<svg id="Layer_1" data-name="Layer 1" xmlns="http://www.w3.org/2000/svg" width="100" height="100" viewBox="0 0 100 100">
  <defs>
    <style>
      .cls-1 {
        fill: none;
      }

      .cls-2 {
        fill: #472ea6;
      }

      .cls-3, .cls-9 {
        opacity: 0.3;
      }

      .cls-4, .cls-7 {
        fill: #fff;
      }

      .cls-5 {
        opacity: 0.1;
      }

      .cls-6, .cls-9 {
        fill: #6c58b8;
      }

      .cls-7, .cls-9 {
        isolation: isolate;
      }

      .cls-7 {
        opacity: 0.4;
      }

      .cls-8 {
        fill: #2cffe2;
      }
    </style>
  </defs>
  <rect class="cls-1" width="100" height="100"/>
  <path class="cls-2" d="M22.88,75.15a27.19,27.19,0,1,0,6.86-24.24A27.18,27.18,0,0,0,22.88,75.15Z"/>
  <g class="cls-3">
    <path class="cls-4" d="M45.71,45.7c-1.52.49-4.64,1.1-5.93.48-.63-.31-1.39-.72-2.21-1A27.29,27.29,0,0,0,24.45,59,9.09,9.09,0,0,0,25.33,61a5.15,5.15,0,0,0,3.21,2.28c1.31.5.74,1.17,1.27,2.09a5.91,5.91,0,0,0,1.39,2c.68.56-.48,1.17-.93,2s-.62,1.28-.31,3.15,1.85,3.61,2.26,4.38-.63,1.41-.65,2.88S30.8,85,31.8,87.4s1.85,2.27,2,.81-.08-2.89.94-3.83,2.66-.34,3.58-2.21,1.27-1.72,2.3-2.23.73-1.15,1.84-2.53,1.63-2.76.48-3.61-2-.93-2.8-2.6a14.07,14.07,0,0,0-3.65-4.53c-1.41-1.12-4.06-.52-5-1s-1.22-2.44-1-3.16-.51-1-1.25-1-1.06-.47-1.09-1.46,1.66-1.92,2.88-1.8,1.75.79,1.72,2.38a3.07,3.07,0,0,0,1.91,3c1.06.48.59-.8-.07-1.72s-.59-1.65.32-3.28,2.34-1.24,3.69-2.63,1.37-.16,2.44.19S42,56,42.59,55s1.82.18,3.11-.43-.87-2.29-.53-3.36,1.43-.84,1.12-2.59.53-1.66,1.07-2.19S47.23,45.2,45.71,45.7Zm-2.33,3.71c-.51.75-.79.54-1.54,1.32a3.41,3.41,0,0,1-2.38,1.08c-.61,0-1.41-1.27-1.34-1.93s1.05-.7,2.15-.65a6,6,0,0,0,3.21-.85c.89-.46.41.29-.09,1ZM69.19,84.56c-.64-.23-.62,0-1.09.44S67,85.93,67,86.48s-.06,1.22.46.91.45-.81,1.14-1,1.57-1.5.63-1.84ZM53.08,51.72c.72.19,3.18.74,3.68,0s.86-.63,1.61-1.42.93-2,.21-2.14-.88.16-2.07-.14-1.61-1.2-2.83-1.2a19.14,19.14,0,0,1-3.36-.64c-1.23-.19-2.87,0-1.86.86s1.73,1.09,1.58,2-.91,1.75-.73,2.43.52,1.53,1,1.39S52.37,51.53,53.08,51.72Zm19.86,4.13A1,1,0,0,1,72,56a5.75,5.75,0,0,1-2.73-1.49c-.43-.65-1.36-1.17-2-.75a12.76,12.76,0,0,1-3.16,1,1.84,1.84,0,0,0-1.63,1.62c-.17,1-.08,1.46-.74,1.33a1.76,1.76,0,0,1-1.43-1.06c-.19-.57-.82-1-1.54,0s-.64,1.54-.17,1.76,1.17.48.49,1.27S57.59,60,57,60.8s-1.09,1.73-.62,1.9a3.11,3.11,0,0,0,2.5-.55c.43-.57.53-.37,1.27-.48a2,2,0,0,1,1.9.61c.44.54,1.3.55,1.24,1.13s-.47,1.09-.38,1.35.51-.2.51-.2.18.71.28.34.19-1.33.53-1.05.88-.1,1.06.47.34.82,1.12,1,1.4.14,1.42.59.31,1.25-.37,1.25-1.06-.41-1.71-.66-1.29,0-1.94-.19-.91-1.32-1.77-2a4.64,4.64,0,0,0-3.45-1.07A8.44,8.44,0,0,0,54,65.42c-1.09,1-2.28,1.36-2.15,3.7s.37,3.1,1.11,3.73,2.35.35,3.23.75a3.88,3.88,0,0,1,2.38,3.85c-.06,2.44.08,2.27-.5,3.74a8.35,8.35,0,0,0-.39,4.56c.3,1.5.91,3.28,1.85,3.62a2.6,2.6,0,0,0,2.71-.72c.68-.73,1.46-2.36,2.46-3.25s2.44-1.1,2.37-2.27.71-3.42,1.59-3.65,2.74-1.07,2.84-2.1-.29-1.93,1.31-2.69,1.6-.09,2.47-1.46a1.92,1.92,0,0,1,1.25-.88v-.08A27,27,0,0,0,72.94,55.85Z"/>
  </g>
  <g class="cls-5">
    <path class="cls-6" d="M39.86,81.72c-12.58-12-7.19-34.25,5.63-39h0q-.78.1-1.56.27A27.18,27.18,0,1,0,72.35,84.29C67.69,88.82,52,93.28,39.86,81.72Z"/>
  </g>
  <path class="cls-7" d="M75.3,78.1a2.56,2.56,0,1,1-2.12-2.94A2.56,2.56,0,0,1,75.3,78.1Z"/>
  <path class="cls-8" d="M49.08,31.21c22.73.9,15.47-26.83,15.47-26.83S36.92,12,49.08,31.21Z"/>
  <path class="cls-8" d="M40.59,38.5c-17,6.23-18.29-16.61-18.29-16.61S45.14,20.94,40.59,38.5Z"/>
  <path class="cls-2" d="M48.67,40.45a50.64,50.64,0,0,1,1.26-8.83,42.12,42.12,0,0,1,2.92-8.46,39.59,39.59,0,0,1,4.73-7.71,29.22,29.22,0,0,0-3.11,3.37,28.92,28.92,0,0,0-2.64,3.83,37.28,37.28,0,0,0-3.62,8.53,46,46,0,0,0-1.66,13.74,47.48,47.48,0,0,0-4.9-6.39,55.71,55.71,0,0,0-4.54-4.42,50.18,50.18,0,0,0-5-3.86c1.51,1.45,3,2.92,4.38,4.47s2.76,3.12,4,4.76a61.05,61.05,0,0,1,3.59,5A41.33,41.33,0,0,1,46.6,49a1.2,1.2,0,0,0,1.41.63h0a1.18,1.18,0,0,0,.82-1.27A53,53,0,0,1,48.67,40.45Z"/>
  <path class="cls-9" d="M48.67,40.45a50.64,50.64,0,0,1,1.26-8.83,42.12,42.12,0,0,1,2.92-8.46,39.59,39.59,0,0,1,4.73-7.71,29.22,29.22,0,0,0-3.11,3.37,28.92,28.92,0,0,0-2.64,3.83,37.28,37.28,0,0,0-3.62,8.53,46,46,0,0,0-1.66,13.74,47.48,47.48,0,0,0-4.9-6.39,55.71,55.71,0,0,0-4.54-4.42,50.18,50.18,0,0,0-5-3.86c1.51,1.45,3,2.92,4.38,4.47s2.76,3.12,4,4.76a61.05,61.05,0,0,1,3.59,5A41.33,41.33,0,0,1,46.6,49a1.2,1.2,0,0,0,1.41.63h0a1.18,1.18,0,0,0,.82-1.27A53,53,0,0,1,48.67,40.45Z"/>
</svg>
