<svg id="freepik--Gavel--inject-80" xmlns="http://www.w3.org/2000/svg" width="77.944" height="58.771" viewBox="0 0 77.944 58.771">
  <g id="freepik--Mullet--inject-80">
    <g id="freepik--Base--inject-80" transform="translate(28.304 25.059)">
      <path id="Trazado_104631" data-name="Trazado 104631" d="M82.73,53.18c-9.66-5.58-25.37-5.58-35,0-4.83,2.79-7.25,6.45-7.24,10.11v3.79c0,3.66,2.4,7.32,7.24,10.12,9.66,5.57,25.36,5.57,35,0C87.56,74.4,90,70.74,90,67.08V63.29C90,59.63,87.57,56,82.73,53.18Z" transform="translate(-40.43 -47.665)" fill="#472ea6"/>
      <path id="Trazado_104632" data-name="Trazado 104632" d="M82.73,53.18c-9.66-5.58-25.37-5.58-35,0-4.83,2.79-7.25,6.45-7.24,10.11v3.79c0,3.66,2.4,7.32,7.24,10.12,9.66,5.57,25.36,5.57,35,0C87.56,74.4,90,70.74,90,67.08V63.29C90,59.63,87.57,56,82.73,53.18Z" transform="translate(-40.43 -47.665)" fill="#6c58b8" opacity="0.5"/>
      <ellipse id="Elipse_4118" data-name="Elipse 4118" cx="24.78" cy="14.31" rx="24.78" ry="14.31" transform="translate(0 1.315)" fill="#472ea6"/>
      <ellipse id="Elipse_4119" data-name="Elipse 4119" cx="24.78" cy="14.31" rx="24.78" ry="14.31" transform="translate(0 1.315)" fill="#6c58b8" opacity="0.35"/>
      <path id="Trazado_104633" data-name="Trazado 104633" d="M78.56,50.86c-7.37-4.26-19.32-4.26-26.7,0-3.69,2.13-5.52,4.92-5.51,7.71v2.51c0,2.79,1.82,5.57,5.51,7.71,7.37,4.25,19.32,4.25,26.7,0,3.69-2.13,5.52-4.92,5.52-7.71V58.57C84.08,55.78,82.25,53,78.56,50.86Z" transform="translate(-40.43 -47.665)" fill="#472ea6"/>
      <path id="Trazado_104634" data-name="Trazado 104634" d="M78.56,50.86c-7.37-4.26-19.32-4.26-26.7,0-3.69,2.13-5.52,4.92-5.51,7.71v2.51c0,2.79,1.82,5.57,5.51,7.71,7.37,4.25,19.32,4.25,26.7,0,3.69-2.13,5.52-4.92,5.52-7.71V58.57C84.08,55.78,82.25,53,78.56,50.86Z" transform="translate(-40.43 -47.665)" fill="#6c58b8" opacity="0.15"/>
      <ellipse id="Elipse_4120" data-name="Elipse 4120" cx="18.88" cy="10.9" rx="18.88" ry="10.9" transform="translate(5.9 0.005)" fill="#455a64"/>
    </g>
    <g id="freepik--Mallet--inject-80">
      <path id="Trazado_104635" data-name="Trazado 104635" d="M53.09,49.32c-2.2-1.45-35.65-18-38.6-19.66a3.94,3.94,0,0,1-1.86-5.54c.73-1.23,2.58-2.23,5.15-.84C19.45,24.18,55,45.82,55,45.82S56.21,47.43,53.09,49.32Z" transform="translate(-12.126 -22.606)" fill="#12263f"/>
      <path id="Trazado_104636" data-name="Trazado 104636" d="M52.07,48.73l2.45-.54c.1-.1.2-.21.29-.32-2.23-1.1-14-6.88-26.39-13.57C14.7,26.87,12.07,25,13.28,23.38a3,3,0,0,0-.63.75c-.74,1.23-1.12,3.91,1.86,5.53C17.21,31.14,46,45.41,52.07,48.73Z" transform="translate(-12.126 -22.606)" fill="#12263f"/>
      <path id="Trazado_104637" data-name="Trazado 104637" d="M79.51,31.51c-4.5-2.6-8.35-1.57-9.87,2.14-.29.71-1.41,3.42-1.68,4.09a8.51,8.51,0,0,0-.54,3.16c0,5.42,3.8,12,8.5,14.73a8.34,8.34,0,0,0,3,1.11l4.33.59c4,.55,6.82-2.27,6.82-7.48C90.09,43.09,85.36,34.89,79.51,31.51Z" transform="translate(-12.126 -22.606)" fill="#12263f"/>
      <path id="Trazado_104638" data-name="Trazado 104638" d="M75.92,36c-4.7-2.71-8.5-.51-8.5,4.91s3.8,12,8.5,14.73,8.51.52,8.51-4.91S80.62,38.69,75.92,36Z" transform="translate(-12.126 -22.606)" fill="#12263f"/>
      <path id="Trazado_104639" data-name="Trazado 104639" d="M65.21,36.72c1.65-.95,3.93-.81,6.45.64,5.07,2.9,9.16,10,9.16,15.83,0,2.91-1,5-2.68,5.91L62.26,68.37c-1.65,1-3.93.83-6.46-.63-5-2.92-9.15-10-9.15-15.85,0-2.92,1-5,2.68-5.91C49.88,45.66,64.66,37,65.21,36.72Z" transform="translate(-12.126 -22.606)" fill="#472ea6"/>
      <path id="Trazado_104640" data-name="Trazado 104640" d="M65.21,36.72c1.65-.95,3.93-.81,6.45.64,5.07,2.9,9.16,10,9.16,15.83,0,2.91-1,5-2.68,5.91L62.26,68.37c-1.65,1-3.93.83-6.46-.63-5-2.92-9.15-10-9.15-15.85,0-2.92,1-5,2.68-5.91C49.88,45.66,64.66,37,65.21,36.72Z" transform="translate(-12.126 -22.606)" fill="#6c58b8" opacity="0.3"/>
      <path id="Trazado_104641" data-name="Trazado 104641" d="M51.29,63.76,79.62,47.3a16.56,16.56,0,0,1,1.2,5.89c0,2.91-1,5-2.68,5.91L62.26,68.37c-1.65,1-3.93.83-6.46-.63a16.66,16.66,0,0,1-4.51-3.98Z" transform="translate(-12.126 -22.606)" fill="#6c58b8" opacity="0.15"/>
      <path id="Trazado_104642" data-name="Trazado 104642" d="M55.8,46.6c-5.06-2.92-9.15-.55-9.15,5.28s4.08,12.94,9.15,15.85,9.2.56,9.2-5.28S60.85,49.52,55.8,46.6Z" transform="translate(-12.126 -22.606)" fill="#12263f"/>
      <path id="Trazado_104643" data-name="Trazado 104643" d="M61.59,63.9c0-5.42-3.81-12-8.51-14.73a8.36,8.36,0,0,0-3.22-1.12s-3.61-.4-4.38-.5c-3.92-.47-6.69,2.34-6.69,7.5,0,6.74,4.73,14.94,10.57,18.31,4.46,2.57,8.26,1.6,9.82-2,.31-.72,1.48-3.46,1.79-4.12a8.5,8.5,0,0,0,.62-3.34Z" transform="translate(-12.126 -22.606)" fill="#12263f"/>
      <path id="Trazado_104644" data-name="Trazado 104644" d="M49.36,48.92c-5.84-3.37-10.57-.63-10.57,6.11s4.73,15,10.57,18.32,10.58.64,10.58-6.11S55.2,52.3,49.36,48.92Z" transform="translate(-12.126 -22.606)" fill="#455a64"/>
    </g>
  </g>
</svg>
