<svg id="Layer_1" data-name="Layer 1" xmlns="http://www.w3.org/2000/svg" width="100" height="100" viewBox="0 0 100 100">
  <defs>
    <style>
      .cls-1 {
        fill: none;
      }

      .cls-2 {
        fill: #472ea6;
      }

      .cls-3, .cls-6 {
        fill: #6c58b8;
        isolation: isolate;
      }

      .cls-3 {
        opacity: 0.2;
      }

      .cls-4 {
        fill: #ef2a66;
      }

      .cls-5 {
        fill: #781533;
      }

      .cls-6 {
        opacity: 0.35;
      }

      .cls-7 {
        fill: #12263f;
      }
    </style>
  </defs>
  <rect class="cls-1" width="100" height="100"/>
  <g id="freepik--Microphone--inject-112">
    <path class="cls-2" d="M25.34,81.46c0-1.91,1.26-3.82,3.79-5.27a20.17,20.17,0,0,1,18.31,0c2.53,1.45,3.8,3.36,3.8,5.27v2.13c0,1.91-1.27,3.82-3.8,5.28a20.23,20.23,0,0,1-18.31,0c-2.53-1.46-3.79-3.37-3.79-5.28Z"/>
    <path class="cls-3" d="M25.34,81.46c0-1.91,1.26-3.82,3.79-5.27a20.17,20.17,0,0,1,18.31,0c2.53,1.45,3.8,3.36,3.8,5.27v2.13c0,1.91-1.27,3.82-3.8,5.28a20.23,20.23,0,0,1-18.31,0c-2.53-1.46-3.79-3.37-3.79-5.28Z"/>
    <path class="cls-2" d="M47.44,86.75a20.17,20.17,0,0,1-18.31,0c-2.53-1.46-3.79-3.37-3.79-5.29s1.26-3.82,3.79-5.27a20.17,20.17,0,0,1,18.31,0c2.53,1.45,3.8,3.36,3.8,5.27S50,85.29,47.44,86.75Z"/>
    <path class="cls-4" d="M58.85,14.82A10.11,10.11,0,0,1,75.4,26.43c-.08.12-.16.23-.25.34l-6.6,9a10.11,10.11,0,0,1-16.31-12Z"/>
    <path class="cls-5" d="M54.42,38a10.09,10.09,0,0,1-3.83-10.62c1.69,1,10.24,5.9,11.51,6.57s4.83-2.67,8.56-8.07,6-7.92,3.9-11.76a10.12,10.12,0,0,1,.59,12.7l-6.6,9A10.08,10.08,0,0,1,54.46,38Z"/>
    <polygon class="cls-2" points="58.61 33.95 50.29 45.33 54.58 53.98 62.91 42.61 58.61 33.95"/>
    <polygon class="cls-3" points="58.61 33.95 50.29 45.33 54.58 53.98 62.91 42.61 58.61 33.95"/>
    <polygon class="cls-2" points="50.29 45.33 39.7 39.22 48.03 27.84 58.61 33.95 50.29 45.33"/>
    <polygon class="cls-2" points="54.58 53.98 43.98 47.86 39.7 39.22 50.29 45.33 54.58 53.98"/>
    <polygon class="cls-6" points="54.58 53.98 43.98 47.86 39.7 39.22 50.29 45.33 54.58 53.98"/>
    <path class="cls-7" d="M36.78,81.46c0,1,3,1,3,0,0-11.31,0-24.12,8-33.75.65-.8-1.66-2.75-2.32-1.93C36.78,56.25,36.78,70.24,36.78,81.46Z"/>
  </g>
</svg>
