<svg id="Layer_1" data-name="Layer 1" xmlns="http://www.w3.org/2000/svg" width="100" height="100" viewBox="0 0 100 100">
  <defs>
    <style>
      .cls-1 {
        fill: none;
      }

      .cls-2, .cls-7 {
        fill: #472ea6;
      }

      .cls-3, .cls-4, .cls-5, .cls-6, .cls-8 {
        fill: #6c58b8;
      }

      .cls-3, .cls-4, .cls-5, .cls-6, .cls-7, .cls-8 {
        isolation: isolate;
      }

      .cls-3 {
        opacity: 0.35;
      }

      .cls-4 {
        opacity: 0.15;
      }

      .cls-5 {
        opacity: 0.1;
      }

      .cls-6 {
        opacity: 0.2;
      }

      .cls-7 {
        opacity: 0.5;
      }

      .cls-8 {
        opacity: 0.3;
      }

      .cls-9 {
        fill: #455a64;
      }

      .cls-10 {
        fill: #12263f;
      }

      .cls-11 {
        fill: #fafafa;
      }

      .cls-12 {
        fill: #6ed1c3;
      }
    </style>
  </defs>
  <rect class="cls-1" width="100" height="100"/>
  <g id="freepik--Bottle--inject-277">
    <g id="freepik--Water--inject-277">
      <path class="cls-2" d="M72.7,45.72a27.06,27.06,0,0,0-1.87-4.84l-.26-.53A9.93,9.93,0,0,1,70.71,31l.16-.3a10.54,10.54,0,0,0,1.48-5.5A6.45,6.45,0,0,0,69.22,20a11.54,11.54,0,0,0-1.49-.75A2.47,2.47,0,0,1,66.15,17V14.11l-9.11,0v2.85a2.49,2.49,0,0,1-1.6,2.3,10.51,10.51,0,0,0-1.48.7,6.47,6.47,0,0,0-3.18,5.19,10.5,10.5,0,0,0,1.41,5.52l.15.27a9.94,9.94,0,0,1,.08,9.37c-.1.18-.18.35-.26.53a25.59,25.59,0,0,0-1.91,4.82,22.5,22.5,0,0,0-.45,4.91l0,13.28c0,1.72,1.12,3.45,3.39,4.77a16,16,0,0,0,6.59,1.92,20.08,20.08,0,0,0,3.29,0,16.1,16.1,0,0,0,6.57-1.88c2.27-1.3,3.42-3,3.42-4.73l0-9.61c0-1.19,0-2.44.06-3.7A22.64,22.64,0,0,0,72.7,45.72Z"/>
      <path class="cls-3" d="M72.7,45.72a27.06,27.06,0,0,0-1.87-4.84l-.26-.53A9.93,9.93,0,0,1,70.71,31l.16-.3a10.54,10.54,0,0,0,1.48-5.5A6.45,6.45,0,0,0,69.22,20a11.54,11.54,0,0,0-1.49-.75A2.47,2.47,0,0,1,66.15,17V14.11l-9.11,0v2.85a2.49,2.49,0,0,1-1.6,2.3,10.51,10.51,0,0,0-1.48.7,6.47,6.47,0,0,0-3.18,5.19,10.5,10.5,0,0,0,1.41,5.52l.15.27a9.94,9.94,0,0,1,.08,9.37c-.1.18-.18.35-.26.53a25.59,25.59,0,0,0-1.91,4.82,22.5,22.5,0,0,0-.45,4.91l0,13.28c0,1.72,1.12,3.45,3.39,4.77a16,16,0,0,0,6.59,1.92,20.08,20.08,0,0,0,3.29,0,16.1,16.1,0,0,0,6.57-1.88c2.27-1.3,3.42-3,3.42-4.73l0-9.61c0-1.19,0-2.44.06-3.7A22.64,22.64,0,0,0,72.7,45.72Z"/>
      <path class="cls-4" d="M70.71,31l.16-.3a10.48,10.48,0,0,0,1.42-4.65,8.64,8.64,0,0,1-.86,1.88,18.06,18.06,0,0,1-4.12,4.29C65.75,33.5,64,35,63.82,37s1.18,3.71,2.74,4.89,3.38,2,4.79,3.36a11.77,11.77,0,0,1,1.59,2c-.06-.5-.13-1-.24-1.49a27.06,27.06,0,0,0-1.87-4.84c-.09-.17-.17-.35-.26-.53A9.91,9.91,0,0,1,70.71,31Z"/>
      <path class="cls-2" d="M55.51,17.28v1.57a3.09,3.09,0,0,0,1.8,2.54,9.68,9.68,0,0,0,8.77,0,4,4,0,0,0,1.36-1.18,2.28,2.28,0,0,0,.46-1.33V17.32a1.4,1.4,0,0,0-.05-.41,3.3,3.3,0,0,0-1.76-2.13l-.08,0a9.72,9.72,0,0,0-8.67,0,3.34,3.34,0,0,0-1.78,2.11A1.61,1.61,0,0,0,55.51,17.28Z"/>
      <path class="cls-5" d="M55.51,17.28v1.57a3.09,3.09,0,0,0,1.8,2.54,9.68,9.68,0,0,0,8.77,0,4,4,0,0,0,1.36-1.18,2.28,2.28,0,0,0,.46-1.33V17.32a1.4,1.4,0,0,0-.05-.41,3.3,3.3,0,0,0-1.76-2.13l-.08,0a9.72,9.72,0,0,0-8.67,0,3.34,3.34,0,0,0-1.78,2.11A1.61,1.61,0,0,0,55.51,17.28Z"/>
      <path class="cls-6" d="M66.05,19.84c2.43-1.39,2.44-3.66,0-5.06a9.63,9.63,0,0,0-8.76,0c-2.42,1.39-2.43,3.65,0,5.06A9.66,9.66,0,0,0,66.05,19.84Z"/>
      <path class="cls-2" d="M55.51,15.49v.92a2.2,2.2,0,0,0,.05.44A3.34,3.34,0,0,0,57.32,19,8.58,8.58,0,0,0,61.19,20a9.14,9.14,0,0,0,4.89-1,4.26,4.26,0,0,0,1.36-1.17,2.12,2.12,0,0,0,.41-.92,1.21,1.21,0,0,0,.05-.42v-1A3.08,3.08,0,0,0,66.1,13l-.32-.17a9.79,9.79,0,0,0-8.44.14A3.06,3.06,0,0,0,55.51,15.49Z"/>
      <path class="cls-5" d="M55.51,15.49v.92a2.2,2.2,0,0,0,.05.44A3.34,3.34,0,0,0,57.32,19,8.58,8.58,0,0,0,61.19,20a9.14,9.14,0,0,0,4.89-1,4.26,4.26,0,0,0,1.36-1.17,2.12,2.12,0,0,0,.41-.92,1.21,1.21,0,0,0,.05-.42v-1A3.08,3.08,0,0,0,66.1,13l-.32-.17a9.79,9.79,0,0,0-8.44.14A3.06,3.06,0,0,0,55.51,15.49Z"/>
      <path class="cls-2" d="M55.51,15.46c0,2,2.76,3.57,6.18,3.58s6.2-1.57,6.21-3.54-2.76-3.57-6.18-3.58S55.51,13.49,55.51,15.46Z"/>
      <path class="cls-2" d="M59.55,11.8v3.36a1.14,1.14,0,0,0,.61.74,2.89,2.89,0,0,0,1.34.36,3,3,0,0,0,1.7-.35,1.33,1.33,0,0,0,.47-.41.71.71,0,0,0,.14-.32.33.33,0,0,0,0-.14V11.83a1.07,1.07,0,0,0-.62-.89l-.11-.06a3.38,3.38,0,0,0-2.93,0A1.09,1.09,0,0,0,59.55,11.8Z"/>
      <path class="cls-6" d="M59.55,11.8v3.36a1.14,1.14,0,0,0,.61.74,2.89,2.89,0,0,0,1.34.36,3,3,0,0,0,1.7-.35,1.33,1.33,0,0,0,.47-.41.71.71,0,0,0,.14-.32.33.33,0,0,0,0-.14V11.83a1.07,1.07,0,0,0-.62-.89l-.11-.06a3.38,3.38,0,0,0-2.93,0A1.09,1.09,0,0,0,59.55,11.8Z"/>
      <path class="cls-2" d="M59.55,11.8c0,.67,1,1.23,2.15,1.23s2.15-.54,2.15-1.22-1-1.24-2.15-1.25S59.56,11.11,59.55,11.8Z"/>
      <path class="cls-7" d="M60.94,11.8c0,.24.34.44.74.44s.74-.19.74-.44-.34-.43-.74-.43S60.94,11.56,60.94,11.8Z"/>
      <path class="cls-8" d="M60.94,11.8c0,.24.34.44.74.44s.74-.19.74-.44-.34-.43-.74-.43S60.94,11.56,60.94,11.8Z"/>
    </g>
  </g>
  <g id="freepik--Dumbbell--inject-16--inject-240">
    <g id="freepik--dumbbell--inject-16--inject-240-2" data-name="freepik--dumbbell--inject-16--inject-240">
      <path class="cls-9" d="M45.69,45.83h0C44.2,41,38.1,36.91,32.4,38.5h0a11,11,0,0,0-2.57,1.1c-5.53,3.18-10,10.95-10,17.34a10.17,10.17,0,0,0,.45,3.19h0C21.75,65,27.86,69,33.56,67.42h0a11,11,0,0,0,2.57-1.09c5.53-3.19,10-11,10-17.35A10.48,10.48,0,0,0,45.69,45.83Z"/>
      <path class="cls-10" d="M36.12,66.32c5.53-3.18,10-11,10-17.35s-4.48-9-10-5.79-10,11-10,17.34S30.59,69.52,36.12,66.32Z"/>
      <path class="cls-9" d="M36.12,50.27C38.25,49,40,50,40,52.5a8.53,8.53,0,0,1-3.85,6.67C34,60.4,32.27,59.4,32.27,57A8.56,8.56,0,0,1,36.12,50.27Z"/>
      <path class="cls-10" d="M37.43,54a2.91,2.91,0,0,1-1.31,2.29.94.94,0,0,1-.89.11l-.09,0a1,1,0,0,1-.34-.8,2.91,2.91,0,0,1,1.32-2.28.93.93,0,0,1,.88-.12l.1,0A1,1,0,0,1,37.43,54Z"/>
      <path class="cls-11" d="M58.59,66.17a2.94,2.94,0,0,1-1.31,2.29,1.06,1.06,0,0,1-.58.17.82.82,0,0,1-.43-.12l-21-12.15-.09,0a1,1,0,0,1-.34-.8,2.91,2.91,0,0,1,1.32-2.28.93.93,0,0,1,.88-.12l.1,0,21,12.14A.92.92,0,0,1,58.59,66.17Z"/>
      <path class="cls-9" d="M79.23,65.19h0c-1.49-4.88-7.59-8.92-13.29-7.32h0A11,11,0,0,0,63.36,59c-5.52,3.19-10,11-10,17.35a10.74,10.74,0,0,0,.45,3.19h0c1.49,4.88,7.59,8.9,13.29,7.31h0a10.6,10.6,0,0,0,2.57-1.1c5.53-3.18,10-11,10-17.34A10.36,10.36,0,0,0,79.23,65.19Z"/>
      <path class="cls-10" d="M69.67,85.68c5.53-3.18,10-11,10-17.34s-4.48-9-10-5.79-10,11-10,17.35S64.13,88.88,69.67,85.68Z"/>
      <path class="cls-9" d="M69.67,69.64c2.12-1.23,3.84-.24,3.84,2.22a8.49,8.49,0,0,1-3.84,6.67c-2.13,1.23-3.86.23-3.86-2.22A8.51,8.51,0,0,1,69.67,69.64Z"/>
      <path class="cls-10" d="M71,73.32A2.92,2.92,0,0,1,69.7,75.6a.94.94,0,0,1-.89.12l-.09,0a1,1,0,0,1-.34-.8,2.92,2.92,0,0,1,1.32-2.29.93.93,0,0,1,.87-.11l.1,0A.92.92,0,0,1,71,73.32Z"/>
      <path class="cls-11" d="M74.2,75.17a2.89,2.89,0,0,1-1.32,2.27,1,1,0,0,1-.57.18.78.78,0,0,1-.44-.13l-3.06-1.77-.09,0a1,1,0,0,1-.34-.8,2.92,2.92,0,0,1,1.32-2.29.93.93,0,0,1,.87-.11l.1,0,3.07,1.76A.94.94,0,0,1,74.2,75.17Z"/>
      <path class="cls-12" d="M74.2,75.15a2.92,2.92,0,0,1-1.32,2.29,1,1,0,0,1-.88.12l-.1-.06a1,1,0,0,1-.34-.8,3,3,0,0,1,1.32-2.28.94.94,0,0,1,.89-.12l.09,0A1,1,0,0,1,74.2,75.15Z"/>
    </g>
  </g>
</svg>
