<svg id="Layer_1" data-name="Layer 1" xmlns="http://www.w3.org/2000/svg" width="300" height="300" viewBox="0 0 300 300">
  <defs>
    <style>
      .cls-1 {
        fill: none;
      }

      .cls-2 {
        fill: #dad5ed;
      }

      .cls-3 {
        fill: #fafafa;
      }

      .cls-11, .cls-13, .cls-17, .cls-21, .cls-22, .cls-25, .cls-26, .cls-4 {
        fill: #fff;
      }

      .cls-5 {
        fill: #abfff3;
      }

      .cls-6 {
        fill: #6ed1c3;
      }

      .cls-7 {
        fill: #80ffee;
      }

      .cls-18, .cls-20, .cls-23, .cls-27, .cls-28, .cls-30, .cls-31, .cls-8 {
        fill: #6c58b8;
      }

      .cls-11, .cls-12, .cls-13, .cls-16, .cls-17, .cls-18, .cls-19, .cls-20, .cls-21, .cls-22, .cls-25, .cls-26, .cls-27, .cls-28, .cls-29, .cls-30, .cls-31, .cls-8 {
        isolation: isolate;
      }

      .cls-8 {
        opacity: 0.05;
      }

      .cls-9 {
        fill: #808184;
      }

      .cls-10, .cls-12, .cls-16, .cls-19, .cls-29 {
        fill: #472ea6;
      }

      .cls-11 {
        opacity: 0.6;
      }

      .cls-12, .cls-17, .cls-28 {
        opacity: 0.2;
      }

      .cls-13 {
        opacity: 0.8;
      }

      .cls-14 {
        fill: #12263f;
      }

      .cls-15 {
        fill: #455a64;
      }

      .cls-16, .cls-30 {
        opacity: 0.3;
      }

      .cls-18, .cls-24 {
        opacity: 0.15;
      }

      .cls-19, .cls-22, .cls-31, .cls-32 {
        opacity: 0.4;
      }

      .cls-20 {
        opacity: 0.1;
      }

      .cls-21, .cls-27 {
        opacity: 0.35;
      }

      .cls-25, .cls-29 {
        opacity: 0.5;
      }

      .cls-26 {
        opacity: 0.7;
      }

      .cls-33 {
        fill: #ffa8a7;
      }

      .cls-34 {
        fill: #b16668;
      }

      .cls-35 {
        fill: #9a4a4d;
      }

      .cls-36 {
        fill: #f28f8f;
      }
    </style>
  </defs>
  <rect class="cls-1" width="300" height="300"/>
  <g id="freepik--Floor--inject-277">
    <path id="freepik--floor--inject-277-2" data-name="freepik--floor--inject-277" class="cls-2" d="M48.61,272.05c-55.48-32-55.48-83.94,0-116s145.42-32.05,200.9,0,55.48,83.94,0,116S104.08,304.08,48.61,272.05Z"/>
  </g>
  <g id="freepik--Window--inject-277">
    <g id="freepik--window--inject-277-2" data-name="freepik--window--inject-277">
      <g id="freepik--window--inject-277-3" data-name="freepik--window--inject-277">
        <g id="freepik--Frame--inject-277">
          <polygon class="cls-3" points="81.53 31.11 83.3 32.1 83.3 103.18 81.53 102.19 81.53 31.11"/>
          <polygon class="cls-4" points="81.53 102.19 81.53 33.12 22.34 67.3 22.35 136.37 81.53 102.19"/>
          <path class="cls-5" d="M86.57,105.07V26.46L19.07,65.41V144ZM22.34,138.38V67.3l61-35.2v71.11Z"/>
          <polygon class="cls-6" points="83.3 103.18 81.53 102.19 22.35 136.37 22.34 138.38 83.3 103.18"/>
          <polygon class="cls-3" points="63.55 43.5 65.31 42.48 65.31 113.56 63.55 112.58 63.55 43.5"/>
          <polygon class="cls-3" points="35.36 59.78 37.12 58.76 37.12 129.84 35.35 128.86 35.36 59.78"/>
          <polygon class="cls-6" points="19.07 144.04 17.31 143.02 17.31 64.39 19.07 65.41 19.07 144.04"/>
          <polygon class="cls-3" points="17.31 64.39 19.07 65.41 86.57 26.44 84.82 25.41 17.31 64.39"/>
          <polygon class="cls-6" points="22.34 99.42 22.34 101.45 83.3 66.25 81.55 65.23 22.34 99.42"/>
        </g>
        <polygon class="cls-5" points="22.34 105.23 22.34 101.45 83.3 66.25 83.3 70.03 22.34 105.23"/>
        <polygon class="cls-5" points="37.12 133.62 40.38 131.74 40.38 53.1 37.12 54.99 37.12 133.62"/>
        <polygon class="cls-5" points="65.31 117.34 68.57 115.46 68.57 36.82 65.31 38.71 65.31 117.34"/>
        <polygon class="cls-3" points="37.12 92.92 35.35 91.91 35.36 59.78 37.12 58.76 37.12 92.92"/>
        <polygon class="cls-3" points="65.3 76.65 63.53 75.64 63.53 43.51 65.3 42.5 65.3 76.65"/>
      </g>
    </g>
  </g>
  <g id="freepik--Pictures--inject-277">
    <g id="freepik--Picture--inject-277">
      <g id="freepik--frame--inject-277-2" data-name="freepik--frame--inject-277">
        <polygon class="cls-3" points="97.91 59.6 98.91 60.2 119.52 48.3 118.51 47.7 97.91 59.6"/>
        <polygon class="cls-4" points="118.51 47.7 98.91 59.02 98.91 38.49 118.52 27.18 118.51 47.7"/>
        <path class="cls-5" d="M121.42,23.31,97,37.4V63.49l24.4-14.09Zm-1.9,25L98.93,60.2V38.49l20.61-11.9Z"/>
        <polygon class="cls-6" points="119.52 48.3 118.51 47.7 118.52 27.18 119.52 26.59 119.52 48.3"/>
        <polygon class="cls-3" points="121.42 23.31 120.4 22.72 96 36.81 97.02 37.4 121.42 23.31"/>
        <polygon class="cls-6" points="96 36.81 97.02 37.4 97.02 63.49 96 62.9 96 36.81"/>
      </g>
      <g id="freepik--Land--inject-277">
        <polygon class="cls-5" points="117.75 47.09 99.67 57.52 99.67 52.31 104.2 41.87 107.01 44.48 106 48.85 112.24 35.51 117.75 41.87 117.75 47.09"/>
        <path class="cls-5" d="M106.84,36.83a3,3,0,0,0-1.34,2.33c0,.85.59,1.17,1.34.77a3,3,0,0,0,1.34-2.33C108.18,36.75,107.58,36.4,106.84,36.83Z"/>
      </g>
    </g>
    <g id="freepik--picture--inject-277-2" data-name="freepik--picture--inject-277">
      <g id="freepik--frame--inject-277-3" data-name="freepik--frame--inject-277">
        <polygon class="cls-3" points="97.91 90.45 98.91 91.05 119.52 79.15 118.51 78.55 97.91 90.45"/>
        <polygon class="cls-4" points="118.51 78.55 98.91 89.87 98.91 69.34 118.52 58.03 118.51 78.55"/>
        <path class="cls-5" d="M121.42,54.16,97,68.25V94.33l24.4-14.09Zm-1.9,25L98.93,91.05V69.34l20.61-11.9Z"/>
        <polygon class="cls-6" points="119.52 79.15 118.51 78.55 118.52 58.03 119.52 57.44 119.52 79.15"/>
        <polygon class="cls-3" points="121.42 54.16 120.4 53.58 96 67.66 97.02 68.25 121.42 54.16"/>
        <polygon class="cls-6" points="96 67.66 97.02 68.25 97.02 94.33 96 93.75 96 67.66"/>
      </g>
      <g id="freepik--land--inject-277-2" data-name="freepik--land--inject-277">
        <polygon class="cls-5" points="117.75 77.94 99.67 88.38 99.67 83.16 104.2 72.72 107.01 75.33 106 79.7 112.24 66.36 117.75 72.72 117.75 77.94"/>
        <path class="cls-5" d="M106.84,67.68A3,3,0,0,0,105.5,70c0,.86.59,1.2,1.34.78a3,3,0,0,0,1.34-2.33C108.18,67.6,107.58,67.26,106.84,67.68Z"/>
      </g>
    </g>
  </g>
  <g id="freepik--Shelf--inject-277">
    <g id="freepik--shelf--inject-277-2" data-name="freepik--shelf--inject-277">
      <polygon class="cls-5" points="183.14 74.41 198.22 65.7 236.86 88.03 236.86 89.68 221.78 98.39 183.14 76.06 183.14 74.41"/>
      <polygon class="cls-3" points="221.78 96.73 183.14 74.41 198.22 65.7 236.86 88.03 221.78 96.73"/>
      <polygon class="cls-7" points="221.78 96.73 221.78 98.39 236.86 89.68 236.86 88.03 221.78 96.73"/>
      <polygon class="cls-6" points="196.13 52.2 187.28 57.31 187.28 74.15 196.13 69.03 196.13 52.2"/>
      <path class="cls-4" d="M187.56,57.59l8.56-4.9a3.6,3.6,0,0,0,2,1.07l-8.49,4.9A8.4,8.4,0,0,1,187.56,57.59Z"/>
      <path class="cls-3" d="M190.44,58.61a1.84,1.84,0,0,1-1.65,0l-1.44-.82a.5.5,0,0,1,0-.95L195.79,52l.36.2L187.85,57c-.28.16-.28.41,0,.59l1.34.76a1.15,1.15,0,0,0,1,0l8.29-4.79.41.24Z"/>
      <path class="cls-6" d="M198.86,53.76V70.6l-8.42,4.82a1.84,1.84,0,0,1-1.65,0l-1.44-.82a.59.59,0,0,1-.34-.48V57.31a.59.59,0,0,0,.34.47l1.44.83a1.84,1.84,0,0,0,1.65,0Z"/>
      <path class="cls-5" d="M189.59,58.81a1.77,1.77,0,0,1-.82-.2l-1.44-.83a.59.59,0,0,1-.34-.47V74.15a.59.59,0,0,0,.34.47l1.44.83a1.77,1.77,0,0,0,.82.19Z"/>
      <polygon class="cls-5" points="199.75 54.28 190.9 59.39 190.9 76.22 199.75 71.11 199.75 54.28"/>
      <path class="cls-4" d="M191.18,59.69l8.59-4.94a3.56,3.56,0,0,0,2,1.07l-8.5,4.9A9,9,0,0,1,191.18,59.69Z"/>
      <path class="cls-3" d="M194,60.69a1.84,1.84,0,0,1-1.65,0L191,59.86a.49.49,0,0,1-.32-.62.47.47,0,0,1,.32-.32l8.44-4.85.35.21-8.3,4.82c-.27.15-.27.41,0,.59l1.34.75a1.08,1.08,0,0,0,1,0l8.33-4.83.41.23Z"/>
      <path class="cls-6" d="M202.47,55.84V72.68L194,77.52a1.84,1.84,0,0,1-1.65,0L191,76.69a.59.59,0,0,1-.35-.47V59.39a.59.59,0,0,0,.35.47l1.44.83a1.84,1.84,0,0,0,1.65,0Z"/>
      <path class="cls-5" d="M193.21,60.89a1.77,1.77,0,0,1-.82-.2L191,59.86a.59.59,0,0,1-.35-.47V76.22a.59.59,0,0,0,.35.47l1.44.83a1.66,1.66,0,0,0,.82.2Z"/>
      <polygon class="cls-5" points="205.79 58.75 196.94 63.87 199.69 81.21 208.53 76.09 205.79 58.75"/>
      <path class="cls-4" d="M197.29,64.1l8.57-4.92a4.62,4.62,0,0,0,2.28.89L199.65,65A11.51,11.51,0,0,1,197.29,64.1Z"/>
      <path class="cls-3" d="M200.53,64.93a2.34,2.34,0,0,1-1.78.08l-1.69-.69c-.53-.22-.58-.58-.14-.86l8.45-4.85.42.17-8.3,4.79c-.28.16-.24.39.08.52l1.56.63a1.35,1.35,0,0,0,1.08,0l8.3-4.81.47.19Z"/>
      <path class="cls-6" d="M209,60.05l2.74,17.35-8.45,4.84a2.28,2.28,0,0,1-1.79.08l-1.68-.68a.67.67,0,0,1-.45-.42l-2.74-17.34c0,.15.17.31.44.41l1.68.69a2.29,2.29,0,0,0,1.78-.08Z"/>
      <path class="cls-5" d="M199.67,65.12a2.22,2.22,0,0,1-.92-.14l-1.69-.69c-.26-.1-.41-.26-.43-.41l2.74,17.34a.67.67,0,0,0,.44.42l1.68.68a2.24,2.24,0,0,0,.92.14Z"/>
      <polygon class="cls-6" points="214.59 63.33 205.74 68.44 205.74 85.27 214.59 80.16 214.59 63.33"/>
      <path class="cls-4" d="M206,68.71l8.56-4.91a3.56,3.56,0,0,0,2,1.07l-8.49,4.9A8.18,8.18,0,0,1,206,68.71Z"/>
      <path class="cls-3" d="M208.88,69.74a1.84,1.84,0,0,1-1.65,0l-1.44-.83a.49.49,0,0,1-.32-.62.51.51,0,0,1,.32-.32l8.45-4.85.35.2-8.3,4.8c-.27.16-.27.41,0,.58l1.34.77a1.22,1.22,0,0,0,1,0l8.3-4.79.4.23Z"/>
      <path class="cls-6" d="M217.32,64.89V81.73l-8.44,4.84a1.84,1.84,0,0,1-1.65,0l-1.44-.82a.6.6,0,0,1-.33-.48V68.43a.6.6,0,0,0,.33.47l1.44.83a1.84,1.84,0,0,0,1.65,0Z"/>
      <path class="cls-5" d="M208.06,69.93a1.71,1.71,0,0,1-.83-.19l-1.44-.83a.6.6,0,0,1-.33-.48V85.27a.6.6,0,0,0,.33.48l1.44.82a1.72,1.72,0,0,0,.83.2Z"/>
      <polygon class="cls-5" points="218.21 65.4 209.36 70.52 209.36 87.35 218.21 82.24 218.21 65.4"/>
      <path class="cls-4" d="M209.68,70.8l8.56-4.92A3.64,3.64,0,0,0,220.17,67l-8.49,4.89A8.64,8.64,0,0,1,209.68,70.8Z"/>
      <path class="cls-3" d="M212.5,71.82a1.84,1.84,0,0,1-1.65,0L209.41,71a.5.5,0,0,1,0-.95l8.43-4.84.35.2-8.28,4.78a.3.3,0,0,0-.21.37.32.32,0,0,0,.21.21l1.34.76a1.08,1.08,0,0,0,1,0l8.3-4.79.4.24Z"/>
      <path class="cls-6" d="M220.94,67V83.81l-8.44,4.84a1.84,1.84,0,0,1-1.65,0l-1.44-.83a.56.56,0,0,1-.34-.47V70.52a.59.59,0,0,0,.34.47l1.44.83a1.84,1.84,0,0,0,1.65,0Z"/>
      <path class="cls-5" d="M211.68,72a1.71,1.71,0,0,1-.83-.19L209.41,71a.59.59,0,0,1-.34-.47V87.35a.56.56,0,0,0,.34.47l1.44.83a1.85,1.85,0,0,0,.83.2Z"/>
      <polygon class="cls-5" points="224.25 69.87 215.41 74.99 218.15 92.33 227 87.22 224.25 69.87"/>
      <path class="cls-4" d="M215.76,75.23l8.56-4.92a4.75,4.75,0,0,0,2.28.89l-8.49,4.89A11.61,11.61,0,0,1,215.76,75.23Z"/>
      <path class="cls-3" d="M219,76a2.34,2.34,0,0,1-1.78.07l-1.71-.66c-.53-.21-.59-.58-.14-.86l8.44-4.85.42.17-8.3,4.8c-.27.15-.24.39.08.52l1.57.63a1.37,1.37,0,0,0,1.07,0L227,71l.47.2Z"/>
      <path class="cls-6" d="M227.44,71.18l2.75,17.35-8.44,4.84a2.36,2.36,0,0,1-1.79.08l-1.69-.69c-.26-.11-.4-.26-.43-.42L215.09,75c0,.16.18.31.44.42l1.68.69A2.32,2.32,0,0,0,219,76Z"/>
      <path class="cls-5" d="M218.13,76.25a2.24,2.24,0,0,1-.92-.14l-1.7-.69c-.27-.1-.42-.25-.44-.41l2.77,17.32a.66.66,0,0,0,.43.42l1.69.68a2.22,2.22,0,0,0,.92.14Z"/>
    </g>
    <g id="freepik--shelf--inject-277-3" data-name="freepik--shelf--inject-277">
      <polygon class="cls-5" points="177.41 41.38 191.6 33.18 236.86 59.3 236.86 60.86 222.67 69.05 177.41 42.93 177.41 41.38"/>
      <polygon class="cls-3" points="222.67 67.5 177.41 41.38 191.6 33.18 236.86 59.3 222.67 67.5"/>
      <polygon class="cls-7" points="222.67 67.5 222.67 69.05 236.86 60.86 236.86 59.3 222.67 67.5"/>
      <polygon class="cls-6" points="190.84 18.98 181.65 24.29 181.65 41.79 190.84 36.48 190.84 18.98"/>
      <path class="cls-4" d="M181.94,24.58l8.9-5.11a3.84,3.84,0,0,0,2,1.11L184,25.67A8.86,8.86,0,0,1,181.94,24.58Z"/>
      <path class="cls-3" d="M184.91,25.64a1.91,1.91,0,0,1-1.71,0l-1.5-.86a.52.52,0,0,1-.33-.65.5.5,0,0,1,.33-.33l8.77-5,.37.22-8.63,5a.31.31,0,0,0-.19.39.3.3,0,0,0,.19.19l1.4.79a1.17,1.17,0,0,0,1,0l8.62-5,.42.24Z"/>
      <path class="cls-6" d="M193.68,20.63V38.12l-8.77,5a1.91,1.91,0,0,1-1.71,0l-1.5-.87a.58.58,0,0,1-.36-.49V24.3a.61.61,0,0,0,.36.5l1.5.86a1.91,1.91,0,0,0,1.71,0Z"/>
      <path class="cls-5" d="M184,25.84a1.73,1.73,0,0,1-.86-.2l-1.47-.86a.58.58,0,0,1-.36-.49V41.77a.58.58,0,0,0,.36.49l1.5.87a1.84,1.84,0,0,0,.83.23Z"/>
      <polygon class="cls-5" points="194.61 21.13 185.41 26.45 185.41 43.95 194.61 38.64 194.61 21.13"/>
      <path class="cls-4" d="M185.7,26.74l8.91-5.11a3.65,3.65,0,0,0,2,1.11l-8.83,5.09A8.8,8.8,0,0,1,185.7,26.74Z"/>
      <path class="cls-3" d="M188.69,27.8a1.89,1.89,0,0,1-1.7,0l-1.51-.86a.52.52,0,0,1-.34-.64.52.52,0,0,1,.34-.34l8.78-5,.37.21-8.63,5c-.29.16-.29.42,0,.58l1.39.79a1.17,1.17,0,0,0,1,0l8.63-5,.42.25Z"/>
      <path class="cls-6" d="M197.44,22.77V40.25l-8.75,5.06a2,2,0,0,1-1.7,0l-1.51-.87a.57.57,0,0,1-.35-.49V26.46a.59.59,0,0,0,.35.49l1.46.85a1.91,1.91,0,0,0,1.71,0Z"/>
      <path class="cls-5" d="M187.81,28a1.89,1.89,0,0,1-.87-.21l-1.5-.86a.6.6,0,0,1-.35-.49V44a.6.6,0,0,0,.35.49l1.5.87a1.83,1.83,0,0,0,.86.19Z"/>
      <polygon class="cls-5" points="200.89 25.78 191.69 31.1 194.54 49.13 203.75 43.82 200.89 25.78"/>
      <path class="cls-4" d="M192.05,31.35,201,26.24a4.88,4.88,0,0,0,2.37.92l-8.81,5.09A12.18,12.18,0,0,1,192.05,31.35Z"/>
      <path class="cls-3" d="M195.43,32.18a2.36,2.36,0,0,1-1.86.08l-1.75-.71c-.54-.23-.61-.63-.14-.9l8.78-5,.43.17-8.62,5c-.29.16-.25.41.08.54L194,32a1.45,1.45,0,0,0,1.12,0l8.63-5,.49.2Z"/>
      <path class="cls-6" d="M204.2,27.14l2.86,18-8.78,5a2.34,2.34,0,0,1-1.85.08l-1.75-.71c-.27-.11-.43-.27-.46-.43l-2.86-18c0,.17.18.32.46.44l1.75.71a2.34,2.34,0,0,0,1.85-.08Z"/>
      <path class="cls-5" d="M194.52,32.41a2.21,2.21,0,0,1-1-.15l-1.75-.71c-.28-.12-.43-.27-.46-.44l2.86,18c0,.16.18.32.45.43l1.75.71a2.25,2.25,0,0,0,1,.15Z"/>
      <g id="freepik--picture--inject-277-3" data-name="freepik--picture--inject-277">
        <g id="freepik--frame--inject-277-4" data-name="freepik--frame--inject-277">
          <polygon class="cls-3" points="216.18 58.54 215.52 58.86 203.45 51.89 204.1 51.57 216.18 58.54"/>
          <polygon class="cls-4" points="204.1 51.57 215.59 58.2 217.26 41.03 205.78 34.4 204.1 51.57"/>
          <path class="cls-5" d="M202.23,52.46l14.29,8.25,2-20.26L204.2,32.2Zm3-18.42,12.06,7-1.74,17.83-12.07-7Z"/>
          <polygon class="cls-6" points="203.45 51.89 204.1 51.57 205.78 34.4 205.19 34.06 203.45 51.89"/>
          <polygon class="cls-3" points="204.2 32.2 204.86 31.89 219.15 40.15 218.49 40.45 204.2 32.2"/>
          <polygon class="cls-6" points="219.15 40.15 218.49 40.45 216.52 60.71 217.18 60.4 219.15 40.15"/>
        </g>
        <g id="freepik--land--inject-277-3" data-name="freepik--land--inject-277">
          <polygon class="cls-5" points="204.61 51.24 215.2 57.36 215.48 54.46 213.51 45.96 211.63 48.87 212.02 51.31 208.89 42.29 204.89 48.35 204.61 51.24"/>
          <path class="cls-5" d="M213.68,42.39a1.51,1.51,0,0,1,.7,1.3.53.53,0,0,1-.87.41,1.48,1.48,0,0,1-.7-1.31C212.85,42.32,213.24,42.13,213.68,42.39Z"/>
        </g>
      </g>
      <g id="freepik--Pot--inject-277">
        <path id="freepik--Shadow--inject-277" class="cls-8" d="M222.12,57.35c-2,1.13-2,3,0,4.08a7.86,7.86,0,0,0,7.1,0c1.95-1.13,1.95-3,0-4.08A7.86,7.86,0,0,0,222.12,57.35Z"/>
        <path class="cls-5" d="M228.86,60.2c1.71-1.74,2.7-6.09,1-7.46h-8.46c-1.67,1.37-.66,5.72,1,7.46l.05,0,.06,0,.15.14h0l.13.1a1.64,1.64,0,0,0,.22.14,5.61,5.61,0,0,0,5.08,0h0a1.64,1.64,0,0,0,.22-.14l.12-.09,0,0,.15-.13s0-.05.07-.06Z"/>
        <path class="cls-4" d="M222.17,52.07c-1.93,1.12-1.93,2.92,0,4a7.71,7.71,0,0,0,7,0c1.93-1.11,1.93-2.91,0-4A7.77,7.77,0,0,0,222.17,52.07Z"/>
        <path class="cls-5" d="M223.54,52.87c-1.16.67-1.16,1.74,0,2.45a4.7,4.7,0,0,0,4.26,0,1.3,1.3,0,0,0,0-2.45A4.64,4.64,0,0,0,223.54,52.87Z"/>
        <path class="cls-6" d="M227.8,54a4.7,4.7,0,0,0-4.26,0,2,2,0,0,0-.7.64,2,2,0,0,0,.7.65,4.7,4.7,0,0,0,4.26,0,1.9,1.9,0,0,0,.7-.65A1.87,1.87,0,0,0,227.8,54Z"/>
        <path class="cls-5" d="M223.8,54.67a9.85,9.85,0,0,1-1.54-2c-.71-1.26-.84-2.92-.47-3.15s1.88,1.46,1.88,1.46a9,9,0,0,1-.16-2.14,3.74,3.74,0,0,1,.66-2.33c.32-.2,1,1.2,1.34,2.23s.49,1.86.49,1.86a15.5,15.5,0,0,1,.56-2.33c.37-1.06.71-1.3,1-1.16s.44.58.51,2a13.77,13.77,0,0,1-.06,2s.52-.59,1.11-1.17.92-.7,1.1-.58.24,1.07-.76,2.88a10,10,0,0,1-1.88,2.47A4.46,4.46,0,0,1,223.8,54.67Z"/>
      </g>
    </g>
  </g>
  <g id="freepik--Shadows--inject-277">
    <path id="freepik--shadow--inject-277-2" data-name="freepik--shadow--inject-277" class="cls-7" d="M194.88,161.87c-15.23,8.79-15.23,23,0,31.84s39.91,8.79,55.14,0,15.23-23.05,0-31.84S210.1,153.08,194.88,161.87Z"/>
    <path id="freepik--shadow--inject-277-3" data-name="freepik--shadow--inject-277" class="cls-7" d="M271.61,213c4.91,2.83,4.91,7.44,0,10.28s-12.89,2.84-17.81,0-4.92-7.45,0-10.28S266.69,210.19,271.61,213Z"/>
    <path id="freepik--shadow--inject-277-4" data-name="freepik--shadow--inject-277" class="cls-9" d="M56.72,259.87c-8.43-2.11-17.55-2.54-25.93,0-1.65.5-2.07,1.43-3,2.67a3.76,3.76,0,0,0,0,4.12,7.77,7.77,0,0,0,3.32,2.76c5.77,2.88,12.61,2.33,18.9,3.78,5.64,1.3,10.76,4.18,16,6.64a133.6,133.6,0,0,0,14.21,5.62c3.16,1.05,6.47,2,9.77,1.52a8.48,8.48,0,0,0,4.71-2.22,5.64,5.64,0,0,0,1.7-4.81c-.5-3-3.6-4.75-6.37-6.06l-11.53-5.44C71.38,265.11,64.28,261.77,56.72,259.87Z"/>
  </g>
  <g id="freepik--Plant--inject-277">
    <g id="freepik--hanging-flowerpot--inject-277">
      <path class="cls-5" d="M250,98.77h-.07a.35.35,0,0,1-.27-.4h0l12.42-58.82a.35.35,0,0,1,.68.14h0L250.32,98.49A.34.34,0,0,1,250,98.77Z"/>
      <path class="cls-5" d="M274.83,99.07a.36.36,0,0,1-.35-.28L262.07,39.68a.35.35,0,0,1,.68-.14l12.41,59.11a.35.35,0,0,1-.26.41h-.07Z"/>
      <g id="freepik--pot--inject-277-2" data-name="freepik--pot--inject-277">
        <path class="cls-10" d="M273.57,102.46H251.06l2.33,9.69h0a4.71,4.71,0,0,0,2.59,3.2,14.06,14.06,0,0,0,12.67,0c1.66-1,2.53-2.21,2.6-3.47Z"/>
        <path class="cls-11" d="M273.57,102.46H251.06l2.33,9.69h0a4.71,4.71,0,0,0,2.59,3.2,14.06,14.06,0,0,0,12.67,0c1.66-1,2.53-2.21,2.6-3.47Z"/>
        <path class="cls-11" d="M273.57,102.46H251.06l2.33,9.69h0a4.71,4.71,0,0,0,2.59,3.2,14.06,14.06,0,0,0,12.67,0c1.66-1,2.53-2.21,2.6-3.47Z"/>
        <path class="cls-12" d="M270.83,109.1a8.74,8.74,0,0,0,1.34-.94l1.27-5.17a9.24,9.24,0,0,1-2.27,1.81c-4.75,2.73-12.35,2.8-17.26.22l.59-2.33-.18-.24h-3.26l2.33,9.7h0a4.71,4.71,0,0,0,2.59,3.2,14,14,0,0,0,9.21,1.23c-5.6.42-9.45-2-10-4.29-.23-.9-.63-2.91-.63-2.91C259.22,111.78,266.36,111.68,270.83,109.1Z"/>
        <path class="cls-10" d="M274.74,99.6a4.87,4.87,0,0,1-.75,1.75,8.48,8.48,0,0,1-2.82,2.51c-4.88,2.81-12.83,2.81-17.68,0a8.29,8.29,0,0,1-2.82-2.51,4.48,4.48,0,0,1-.75-1.75h0c-.44-2.12.76-4.33,3.57-5.95,4.88-2.82,12.83-2.82,17.68,0C274,95.27,275.18,97.48,274.74,99.6Z"/>
        <path class="cls-13" d="M274.74,99.6a4.87,4.87,0,0,1-.75,1.75,8.48,8.48,0,0,1-2.82,2.51c-4.88,2.81-12.83,2.81-17.68,0a8.29,8.29,0,0,1-2.82-2.51,4.48,4.48,0,0,1-.75-1.75h0c-.44-2.12.76-4.33,3.57-5.95,4.88-2.82,12.83-2.82,17.68,0C274,95.27,275.18,97.48,274.74,99.6Z"/>
        <path class="cls-10" d="M274,101.35a8.48,8.48,0,0,1-2.82,2.51c-4.88,2.81-12.83,2.81-17.68,0a8.29,8.29,0,0,1-2.82-2.51,4.48,4.48,0,0,1-.75-1.75h0l.58,3.81c.26,1.54,1.4,3,3.44,4.21,4.66,2.68,12.19,2.68,16.84,0a6.45,6.45,0,0,0,3.43-4.15l0-.2.53-3.67A4.68,4.68,0,0,1,274,101.35Z"/>
        <path class="cls-11" d="M274,101.35a8.48,8.48,0,0,1-2.82,2.51c-4.88,2.81-12.83,2.81-17.68,0a8.29,8.29,0,0,1-2.82-2.51,4.48,4.48,0,0,1-.75-1.75h0l.58,3.81c.26,1.54,1.4,3,3.44,4.21,4.66,2.68,12.19,2.68,16.84,0a6.45,6.45,0,0,0,3.43-4.15l0-.2.53-3.67A4.68,4.68,0,0,1,274,101.35Z"/>
        <path class="cls-10" d="M269.71,94.5a16.33,16.33,0,0,0-14.73,0c-2.3,1.33-3.29,3.13-3,4.86a5.58,5.58,0,0,0,3,3.64,16.39,16.39,0,0,0,14.73,0,5.63,5.63,0,0,0,3-3.64C273,97.63,272,95.82,269.71,94.5Z"/>
        <path class="cls-11" d="M269.71,94.5a16.33,16.33,0,0,0-14.73,0c-2.3,1.33-3.29,3.13-3,4.86a5.58,5.58,0,0,0,3,3.64,16.39,16.39,0,0,0,14.73,0,5.63,5.63,0,0,0,3-3.64C273,97.63,272,95.82,269.71,94.5Z"/>
        <path class="cls-3" d="M252.65,101a7,7,0,0,0,2.33,2,16.39,16.39,0,0,0,14.73,0,7.11,7.11,0,0,0,2.33-2c0-1.41-1-2.81-2.83-3.89a15.15,15.15,0,0,0-13.69,0C253.62,98.16,252.68,99.56,252.65,101Z"/>
      </g>
      <path class="cls-14" d="M259.18,85.81c-.2-5.75-2.36-14.68-4.44-18.28a29.39,29.39,0,0,1,6.55,17Z"/>
      <path class="cls-15" d="M265.42,98.21c.19-4,3.13-5.29,6.44-4,2.33.92,5.75,4.41,6.82,10C277.63,101.33,270,91.65,265.42,98.21Z"/>
      <path class="cls-14" d="M265.59,100.13a3.3,3.3,0,0,1,3.87-3c2.33.48,7.83,4.78,10.16,11.83-.42-4.74-1.95-8.81-5.12-11.45s-5.46-3-7.76-1.68C264.76,97,265.59,100.13,265.59,100.13Z"/>
      <path class="cls-15" d="M261.4,102.07c-1.9-6.36-2.18-18.17-.35-24.55,2.59-9,7.95-13,12-13.94-3.8,1.58-7.8,7.36-8.93,13s-.47,25.46-.47,25.46Z"/>
      <path class="cls-14" d="M263,95.87c.25-3.55,2.34-11.44,6.42-14.61a7.55,7.55,0,0,1,10.07.62,6.14,6.14,0,0,0-7.63.12c-2.16,1.78-4.36,7.13-5.46,12.24Z"/>
      <path class="cls-14" d="M268.55,82c2.58-2.54,4.6-4.25,7.8-4.08s7.49,4.66,10,14.13c-2.56-6-5.88-11.33-11.2-11.89A8.52,8.52,0,0,0,268.55,82Z"/>
      <path class="cls-15" d="M239.68,76.36A20.65,20.65,0,0,1,260.92,93.8l-2.85-.46S255.74,85.87,251.6,82C248,78.55,245.23,77.17,239.68,76.36Z"/>
      <path class="cls-14" d="M261.62,92a20.23,20.23,0,0,0-6.19-14.52c-4.9-4.56-6.67-5.57-11.71-6.85a31.74,31.74,0,0,1,10.49,8.74,18.44,18.44,0,0,1,3.39,11.15C258.16,92,260.14,95.11,261.62,92Z"/>
      <path class="cls-14" d="M261.4,93.59c-.64-4.08,1.56-11.39,4.13-15a20.38,20.38,0,0,1,12.76-8.44c-5.44,2.08-10.91,8.16-12.52,13.88a31,31,0,0,0-.67,11.66Z"/>
      <path class="cls-15" d="M263.14,102.07c-.69-3.83.52-11.77,6.81-16.15s10.62-3.23,12.27-2.73c-4.86-.33-9.75,2.38-12.73,5.73-2.07,2.33-4,6.14-4.14,12.45Z"/>
      <path class="cls-14" d="M263.23,102.38a3.73,3.73,0,0,0,2.3-.81c0-2.47.66-7.41,4.13-10.32s6.16-2.36,6.7-1.21c0-1.69-2.11-3.17-4.45-2.68C268,88.19,262.49,93.25,263.23,102.38Z"/>
      <path class="cls-14" d="M269.87,88.11c2.13-1.16,4-2.15,6.33-1,.11-.06,1.47-.4,2,.2,2,2.33,1.34,8.16-2.3,13.77,1.68-4.19,1.75-11.93-1.34-13.14A6.2,6.2,0,0,0,269.87,88.11Z"/>
      <path class="cls-14" d="M276.2,87.08c1,.44,2.92,3.8,1.66,8.48,1.16-3.54.76-6.93-1.23-8.58A2.07,2.07,0,0,0,276.2,87.08Z"/>
      <path class="cls-14" d="M259,101.24a3.28,3.28,0,0,0-3.87-3c-2.34.48-7.83,4.78-10.17,11.83a19.11,19.11,0,0,1,5-11.69c2.55-2.68,5.88-4,8.53-2.55S259,101.24,259,101.24Z"/>
      <path class="cls-15" d="M258.06,92.33c-2.05-2-3.5-4-7.26-3.24s-6.36,4.88-7.39,10.42c.65-2.14,2.59-7,6.45-7.87S255.61,91.1,258.06,92.33Z"/>
      <path class="cls-14" d="M259,101.24c-.54-3.62-1.92-8.78-5.77-9s-8.08,2.22-9.84,7.26c.9-4.59,4.81-9,8.9-9s8.1.88,9.07,11.54Z"/>
      <path class="cls-14" d="M255.79,85.88a10.4,10.4,0,0,0-5.31-2.63c-1.31-.23-3.87-1.23-6.6,1.31s-5.61,8.49-4.59,12.65C239.72,92.79,245.65,80.42,255.79,85.88Z"/>
      <path class="cls-14" d="M262,102.42c0-3.35-2.45-14-6.32-16.71-4.85-3.39-8.09-.51-8.09-.51a6.49,6.49,0,0,1,5.77.93c2.5,1.83,4.83,7.18,5.73,15.11A3.5,3.5,0,0,0,262,102.42Z"/>
      <path class="cls-14" d="M259.75,92.43c-.24,1,.78,8.3,1.57,9.95a7,7,0,0,0,2.33,0c.74-1.29,0-9.57,1.45-9.73C264,92.11,260.26,90.74,259.75,92.43Z"/>
      <path class="cls-15" d="M259.75,92.43c1.14-1.17,5.79,1.16,6.65,8,1.17-3.28.65-7.34-.51-8.36a2.08,2.08,0,0,0-2.38-.32S259.91,90.21,259.75,92.43Z"/>
      <path class="cls-14" d="M263.51,91.8c1.42.58,3.05,2.57,3,5.93.11-1.75-.22-4.74-2.67-6.08A2.75,2.75,0,0,0,263.51,91.8Z"/>
      <path class="cls-5" d="M262.41,110.16a.35.35,0,0,1-.35-.35h0V39.61a.35.35,0,0,1,.39-.3.34.34,0,0,1,.3.3v70.2A.35.35,0,0,1,262.41,110.16Z"/>
      <path class="cls-5" d="M262.41,40a3.11,3.11,0,1,1,3.1-3.11h0A3.1,3.1,0,0,1,262.41,40Zm0-5.51a2.41,2.41,0,1,0,2.4,2.42h0A2.41,2.41,0,0,0,262.41,34.45Z"/>
      <path class="cls-5" d="M262.41,34.45a.35.35,0,0,1-.35-.35h0V24.92a.36.36,0,0,1,.3-.4.35.35,0,0,1,.39.31.14.14,0,0,1,0,.09V34.1A.35.35,0,0,1,262.41,34.45Z"/>
      <path class="cls-5" d="M262.32,110.16a18.2,18.2,0,0,1-8.74-2,6.72,6.72,0,0,1-3.67-4.45.34.34,0,0,1,.25-.42.35.35,0,0,1,.43.25.07.07,0,0,0,0,.05,6.08,6.08,0,0,0,3.32,4c4.67,2.62,12.19,2.62,16.83,0a6.15,6.15,0,0,0,3.32-3.91.35.35,0,0,1,.41-.28.35.35,0,0,1,.28.41,6.85,6.85,0,0,1-3.66,4.39A18.24,18.24,0,0,1,262.32,110.16Z"/>
    </g>
  </g>
  <g id="freepik--Table--inject-277">
    <g id="freepik--table--inject-277-2" data-name="freepik--table--inject-277">
      <g id="freepik--table--inject-277-3" data-name="freepik--table--inject-277">
        <path class="cls-15" d="M223.93,153.3a3.22,3.22,0,0,0-3,0,1,1,0,0,0-.61.85l.61,40.36h0a.74.74,0,0,0,.43.59,2.33,2.33,0,0,0,2.09,0,.74.74,0,0,0,.43-.59h0l.61-40.36A1,1,0,0,0,223.93,153.3Zm-22.87-2.16a3.3,3.3,0,0,0-3,0,.87.87,0,0,0-.49.86l-4.08,32h0a.93.93,0,0,0,.52.58,2.33,2.33,0,0,0,2.09,0,.63.63,0,0,0,.35-.58h0l5.33-32a1.25,1.25,0,0,0-.75-.85Zm45.74.86a.89.89,0,0,0-.5-.86,3.3,3.3,0,0,0-3,0,1.27,1.27,0,0,0-.73.85l5.33,32h0a.63.63,0,0,0,.35.58,2.33,2.33,0,0,0,2.09,0,.86.86,0,0,0,.52-.58h0Z"/>
        <path class="cls-10" d="M260,147.12h0c0-5.56-3.64-11.11-11-15.34-14.68-8.47-38.47-8.47-53.13,0-7.34,4.23-11,9.78-11,15.34h0v3h0c.09,5.48,3.76,10.94,11,15.12,14.67,8.47,38.47,8.47,53.13,0,7.24-4.18,10.91-9.64,11-15.12h0Z"/>
        <path class="cls-11" d="M260,147.12h0c0-5.56-3.64-11.11-11-15.34-14.68-8.47-38.47-8.47-53.13,0-7.34,4.23-11,9.78-11,15.34h0v3h0c.09,5.48,3.76,10.94,11,15.12,14.67,8.47,38.47,8.47,53.13,0,7.24-4.18,10.91-9.64,11-15.12h0Z"/>
        <path class="cls-10" d="M195.88,131.77c-14.67,8.48-14.67,22.21,0,30.68s38.47,8.47,53.13,0,14.68-22.2,0-30.68S210.56,123.3,195.88,131.77Z"/>
        <path class="cls-13" d="M195.88,131.77c-14.67,8.48-14.67,22.21,0,30.68s38.47,8.47,53.13,0,14.68-22.2,0-30.68S210.56,123.3,195.88,131.77Z"/>
      </g>
    </g>
    <g id="freepik--Speaker--inject-277">
      <path class="cls-16" d="M200.26,140.22c-3.59,2.07-3.59,5.44,0,7.52a14.42,14.42,0,0,0,13,0c3.59-2.08,3.59-5.45,0-7.52A14.38,14.38,0,0,0,200.26,140.22Z"/>
      <g id="freepik--speaker--inject-277-2" data-name="freepik--speaker--inject-277">
        <path class="cls-10" d="M199.18,139.86a3.79,3.79,0,0,1,2.25-3.13,11.93,11.93,0,0,1,10.88,0,3.83,3.83,0,0,1,2.25,3.13h0v3.38h0c0,1.17-.75,2.27-2.25,3.14a11.93,11.93,0,0,1-10.88,0,3.84,3.84,0,0,1-2.25-3.14h0Z"/>
        <path class="cls-10" d="M199.18,139.86a3.79,3.79,0,0,1,2.25-3.13,11.93,11.93,0,0,1,10.88,0,3.83,3.83,0,0,1,2.25,3.13h0v3.38h0c0,1.17-.75,2.27-2.25,3.14a11.93,11.93,0,0,1-10.88,0,3.84,3.84,0,0,1-2.25-3.14h0Z"/>
        <path class="cls-17" d="M199.18,139.86a3.79,3.79,0,0,1,2.25-3.13,11.93,11.93,0,0,1,10.88,0,3.83,3.83,0,0,1,2.25,3.13h0v3.38h0c0,1.17-.75,2.27-2.25,3.14a11.93,11.93,0,0,1-10.88,0,3.84,3.84,0,0,1-2.25-3.14h0Z"/>
        <path class="cls-10" d="M212.28,143a11.91,11.91,0,0,1-10.87,0c-3-1.75-3-4.55,0-6.28a12,12,0,0,1,10.87,0C215.29,138.51,215.28,141.29,212.28,143Z"/>
        <path class="cls-18" d="M212.28,143a11.91,11.91,0,0,1-10.87,0c-3-1.75-3-4.55,0-6.28a12,12,0,0,1,10.87,0C215.29,138.51,215.28,141.29,212.28,143Z"/>
        <path class="cls-19" d="M201.29,146.31l.12.07a11.91,11.91,0,0,0,10.87,0,4.94,4.94,0,0,0,1.88-1.75v-3.37a4.94,4.94,0,0,1-1.88,1.75l-.27.14h0a4.15,4.15,0,0,1-3.06,3.6A12.32,12.32,0,0,1,201.29,146.31Z"/>
        <path class="cls-20" d="M213.17,142.38a4.08,4.08,0,0,0,1-1.17v3.37a4.08,4.08,0,0,1-1,1.17Z"/>
        <path class="cls-14" d="M200.39,136.48c0-.72.58-1.47,1.63-2.07a10.82,10.82,0,0,1,9.64,0,2.69,2.69,0,0,1,1.64,2.07v3.39h0c0,.71-.59,1.47-1.64,2.07a10.82,10.82,0,0,1-9.64,0,2.73,2.73,0,0,1-1.63-2.07Z"/>
        <path class="cls-15" d="M200.39,136.48v3.39c0,.71.58,1.47,1.63,2.07a10.82,10.82,0,0,0,9.64,0,2.72,2.72,0,0,0,1.64-2.07v-3.39c0,.71-.59,1.47-1.64,2.07a10.82,10.82,0,0,1-9.64,0C201,138,200.39,137.21,200.39,136.48Zm12.74,3.78a1.74,1.74,0,0,0,.1-.19,1.26,1.26,0,0,1-.1.33Zm0-.37.1-.2a1.33,1.33,0,0,1-.1.34Zm0-.38.1-.2a1.33,1.33,0,0,1-.1.34Zm0-.38a1.74,1.74,0,0,0,.1-.19,1.46,1.46,0,0,1-.1.34Zm0-.37.1-.2a1.33,1.33,0,0,1-.1.34Zm0-.38a1.24,1.24,0,0,0,.1-.2,1.33,1.33,0,0,1-.1.34Zm0-.38a1.74,1.74,0,0,0,.1-.19,1.33,1.33,0,0,1-.1.34Zm0-.37a1.24,1.24,0,0,0,.1-.2,1.33,1.33,0,0,1-.1.34Zm0-.38a1.24,1.24,0,0,0,.1-.2,1.4,1.4,0,0,1-.1.35Zm-.61,3.77a3.6,3.6,0,0,0,.51-.59v.18a2.66,2.66,0,0,1-.51.64Zm0-.38a3.23,3.23,0,0,0,.51-.59v.18a2.87,2.87,0,0,1-.51.64Zm0-.38a3.16,3.16,0,0,0,.51-.58v.18a2.87,2.87,0,0,1-.51.64Zm0-.37a3.6,3.6,0,0,0,.51-.59v.18a2.66,2.66,0,0,1-.51.64Zm0-.38a3.53,3.53,0,0,0,.51-.58v.18a2.87,2.87,0,0,1-.51.64Zm0-.38a3.16,3.16,0,0,0,.51-.58v.18a2.87,2.87,0,0,1-.51.64Zm0-.38a3.16,3.16,0,0,0,.51-.58v.21a2.82,2.82,0,0,1-.51.63Zm0-.37a3.53,3.53,0,0,0,.51-.58V138a2.82,2.82,0,0,1-.51.63Zm0-.38a3.53,3.53,0,0,0,.51-.58v.18a2.87,2.87,0,0,1-.51.64Zm-.93,3.66.1-.06a4.89,4.89,0,0,0,.72-.5v.25a5.08,5.08,0,0,1-.77.54h0Zm0-.38.1-.05a4.89,4.89,0,0,0,.72-.5V141a5.15,5.15,0,0,1-.77.55h0Zm0-.37.1-.06a4.89,4.89,0,0,0,.72-.5v.24a5.15,5.15,0,0,1-.77.55h0Zm0-.38.1-.06a4.41,4.41,0,0,0,.72-.5v.25a6,6,0,0,1-.77.55h0Zm0-.38.1-.05a5.79,5.79,0,0,0,.72-.5v.24a5.15,5.15,0,0,1-.77.55h0Zm0-.38.1-.05a4.89,4.89,0,0,0,.72-.5v.25a5.91,5.91,0,0,1-.77.54h0Zm0-.37.1-.05a5.79,5.79,0,0,0,.72-.5v.24a5.08,5.08,0,0,1-.77.54h0Zm0-.38.1-.05a5.79,5.79,0,0,0,.72-.5v.24a5.15,5.15,0,0,1-.77.55h0Zm0-.38.1,0a5.71,5.71,0,0,0,.72-.49v.23a5.15,5.15,0,0,1-.77.55h0ZM210.8,142c.23-.09.46-.2.69-.31V142l-.69.33Zm0-.37c.23-.1.46-.2.69-.32v.25a4.83,4.83,0,0,1-.69.33Zm0-.38a6.14,6.14,0,0,0,.69-.32v.26l-.69.33Zm0-.37.69-.33v.26l-.69.33Zm0-.38c.23-.1.46-.2.69-.32v.26a7.09,7.09,0,0,1-.69.32Zm0-.38c.24-.1.47-.21.69-.32v.26l-.69.33Zm0-.38a7.09,7.09,0,0,0,.69-.32v.26c-.22.12-.46.23-.69.33Zm0-.37a6.22,6.22,0,0,0,.69-.33v.27a7.09,7.09,0,0,1-.69.32Zm0-.38a7.09,7.09,0,0,0,.69-.32V139a7.09,7.09,0,0,1-.69.32Zm-.89,3.31c.27-.07.54-.16.79-.25v.26c-.25.1-.52.19-.79.27Zm0-.37c.27-.08.54-.16.79-.26V142l-.79.26Zm0-.38a7.3,7.3,0,0,0,.79-.26v.27a7.3,7.3,0,0,1-.79.26Zm0-.38c.27-.07.54-.16.79-.25v.26c-.25.1-.52.18-.79.27Zm0-.37a7.3,7.3,0,0,0,.79-.26v.27c-.26.1-.52.18-.79.26Zm0-.38c.27-.08.54-.16.79-.26v.27c-.25.1-.52.18-.79.26Zm0-.37.79-.26v.26c-.25.1-.52.19-.79.27Zm0-.38a7.3,7.3,0,0,0,.79-.26v.26a7.35,7.35,0,0,1-.79.27Zm0-.38c.27-.08.54-.16.79-.26v.27l-.79.26Zm-1,3.23a8.23,8.23,0,0,0,.86-.19v.28l-.86.19Zm0-.37c.29-.05.58-.12.86-.19v.27c-.28.07-.57.14-.86.19Zm0-.38a8.23,8.23,0,0,0,.86-.19v.26c-.28.08-.59.15-.86.2Zm0-.37.86-.19v.27l-.86.19Zm0-.38c.29-.05.58-.12.86-.19v.27l-.86.19Zm0-.38a8.23,8.23,0,0,0,.86-.19v.27c-.28.08-.57.14-.86.2Zm0-.37c.29-.05.58-.12.86-.19v.26c-.28.08-.57.14-.86.2Zm0-.38c.29,0,.58-.12.86-.19V140l-.86.19Zm0-.37.86-.2v.27c-.28.08-.57.14-.86.2Zm-1,3.14a5.52,5.52,0,0,0,.91-.11v.27c-.3.05-.6.09-.91.12Zm0-.37c.31,0,.61-.07.91-.12v.26a8.39,8.39,0,0,1-.91.11Zm0-.38.91-.11v.26c-.3,0-.6.1-.91.13Zm0-.38a5.52,5.52,0,0,0,.91-.11v.27c-.3.05-.58.09-.91.12Zm0-.37c.31,0,.61-.07.91-.12v.27a6.86,6.86,0,0,1-.91.12Zm0-.38c.31,0,.61-.06.91-.11V141l-.91.13Zm0-.37c.31,0,.61-.07.91-.12v.27c-.3,0-.58.09-.91.12Zm0-.38a5.53,5.53,0,0,0,.91-.12v.27a6.86,6.86,0,0,1-.91.12Zm0-.38a4.63,4.63,0,0,0,.91-.12v.28c-.3,0-.58.09-.91.12Zm-1,3.07a7.39,7.39,0,0,0,.94,0V143c-.31,0-.63,0-.94,0Zm0-.38a7.39,7.39,0,0,0,.94,0v.27c-.31,0-.63,0-.94,0Zm0-.37a5.93,5.93,0,0,0,.94-.05v.28c-.31,0-.63,0-.94,0Zm0-.38a7.39,7.39,0,0,0,.94,0v.29c-.31,0-.63,0-.94,0Zm0-.38a7.39,7.39,0,0,0,.94,0v.27c-.31,0-.63,0-.94,0Zm0-.38a7.39,7.39,0,0,0,.94,0v.28c-.31,0-.63,0-.94,0Zm0-.37a5.93,5.93,0,0,0,.94-.05v.27c-.31,0-.63,0-.94,0Zm0-.38a7.39,7.39,0,0,0,.94,0v.28c-.31,0-.63,0-.94,0Zm0-.38a7.39,7.39,0,0,0,.94,0V140c-.31,0-.63,0-.94,0Zm-1.05,3c.31,0,.63,0,.94,0V143a7.39,7.39,0,0,1-.94,0Zm0-.38c.31,0,.63,0,.94,0v.27a7.39,7.39,0,0,1-.94,0Zm0-.38c.31,0,.63,0,.94.05v.27a7.39,7.39,0,0,1-.94,0Zm0-.37c.31,0,.63,0,.94,0v.25a7.39,7.39,0,0,1-.94,0Zm0-.38c.31,0,.63,0,.94,0v.27a7.39,7.39,0,0,1-.94,0Zm0-.38c.31,0,.63,0,.94,0v.28a7.39,7.39,0,0,1-.94,0Zm0-.38c.31,0,.63.05.94.05v.27a7.39,7.39,0,0,1-.94,0Zm0-.37c.31,0,.63,0,.94,0v.28a7.39,7.39,0,0,1-.94,0Zm0-.38c.31,0,.63,0,.94,0V140a7.39,7.39,0,0,1-.94,0Zm-1,2.92c.3,0,.58.08.91.11V143c-.31,0-.61-.07-.91-.12Zm0-.38c.29.05.6.09.91.12v.27a5.53,5.53,0,0,1-.91-.12Zm0-.37.91.11v.28l-.91-.13Zm0-.38a8.39,8.39,0,0,0,.91.11v.28c-.31,0-.61-.07-.91-.12Zm0-.38c.29.05.6.09.91.12v.27c-.31,0-.61-.07-.91-.12Zm0-.38a8.34,8.34,0,0,0,.91.12v.28l-.91-.13Zm0-.37c.29.05.6.09.91.12v.24a5.53,5.53,0,0,1-.91-.12Zm0-.38c.3.05.58.09.91.12v.27c-.31,0-.61-.07-.91-.12Zm0-.38a6.45,6.45,0,0,0,.91.12V140a9,9,0,0,1-.91-.11Zm-1,2.8a8,8,0,0,0,.85.19v.28c-.29-.05-.57-.12-.85-.19Zm0-.37a8,8,0,0,0,.85.19v.25a8.08,8.08,0,0,1-.85-.2Zm0-.38c.28.07.56.14.85.19v.28l-.85-.2Zm0-.37.85.19v.27a8.08,8.08,0,0,1-.85-.2Zm0-.38c.28.07.56.14.85.19v.27c-.29,0-.58-.12-.85-.19Zm0-.38c.28.07.56.14.85.19V141c-.29-.06-.57-.12-.85-.2Zm0-.37.85.19v.27a8.08,8.08,0,0,1-.85-.2Zm0-.38c.28.07.56.14.85.19v.27c-.29-.05-.58-.12-.85-.19Zm0-.38.85.2v.26a8,8,0,0,1-.85-.19Zm-.89,2.73a8.14,8.14,0,0,0,.79.25v.28c-.28-.09-.54-.17-.79-.27Zm0-.38a8.13,8.13,0,0,0,.79.26v.27c-.28-.08-.54-.17-.79-.26Zm0-.38a7.3,7.3,0,0,0,.79.26v.26a7.3,7.3,0,0,1-.79-.26Zm0-.37a8.14,8.14,0,0,0,.79.25v.28c-.28-.09-.54-.17-.79-.27Zm0-.38a7.3,7.3,0,0,0,.79.26v.27a7.35,7.35,0,0,1-.79-.27Zm0-.38a8.13,8.13,0,0,0,.79.26v.23a8.12,8.12,0,0,1-.79-.27Zm0-.38a8.12,8.12,0,0,0,.79.27v.26a6.09,6.09,0,0,1-.79-.26Zm0-.37c.26.1.52.18.79.26V140a7.35,7.35,0,0,1-.79-.27Zm0-.38a8.13,8.13,0,0,0,.79.26v.27a8.12,8.12,0,0,1-.79-.27Zm-.8,2.65a6.29,6.29,0,0,0,.7.32v.27c-.24-.1-.47-.21-.7-.33Zm0-.37.7.32V142a6.36,6.36,0,0,1-.7-.33Zm0-.38c.23.12.46.22.7.32v.27c-.24-.1-.47-.21-.7-.33Zm0-.38a6.29,6.29,0,0,0,.7.32v.27c-.24-.1-.47-.21-.7-.33Zm0-.37.7.32v.26a6.29,6.29,0,0,1-.7-.32Zm0-.38c.23.12.46.22.7.32v.26a6.29,6.29,0,0,1-.7-.32Zm0-.38a6.29,6.29,0,0,0,.7.32v.27c-.24-.1-.47-.21-.7-.33Zm0-.38a4.88,4.88,0,0,0,.7.32v.27a6.29,6.29,0,0,1-.7-.32Zm0-.37a6.29,6.29,0,0,0,.7.32v.26a6.29,6.29,0,0,1-.7-.32Zm-.91,2.4a4.41,4.41,0,0,0,.72.5l.09.06v.25h0a4.63,4.63,0,0,1-.77-.54Zm0-.37a4.41,4.41,0,0,0,.72.5l.09.05v.26h0a4.68,4.68,0,0,1-.77-.55Zm0-.38a4.41,4.41,0,0,0,.72.5l.09.05v.26h0a4.68,4.68,0,0,1-.77-.55Zm0-.38a4,4,0,0,0,.72.5l.09.06v.26h0a4.68,4.68,0,0,1-.77-.55Zm0-.37a5.14,5.14,0,0,0,.72.5l.09.05v.26h0a4.68,4.68,0,0,1-.77-.55Zm0-.38a4.41,4.41,0,0,0,.72.5l.09.05v.26h0a5.3,5.3,0,0,1-.77-.54Zm0-.37a6.14,6.14,0,0,0,.72.5l.09,0v.27h0a4.68,4.68,0,0,1-.77-.55Zm0-.38a5.14,5.14,0,0,0,.72.5l.09.05v.26h0a4.68,4.68,0,0,1-.77-.55Zm0-.37a5.07,5.07,0,0,0,.72.49l.09,0v.27h0a5.36,5.36,0,0,1-.77-.55Zm-.63,2.33a3.59,3.59,0,0,0,.52.58v.24a2.92,2.92,0,0,1-.52-.64Zm0-.38a3.66,3.66,0,0,0,.52.59v.24a2.92,2.92,0,0,1-.52-.64Zm0-.38a3.28,3.28,0,0,0,.52.59v.23a2.86,2.86,0,0,1-.52-.63Zm0-.37a3.59,3.59,0,0,0,.52.58v.21a2.7,2.7,0,0,1-.52-.64Zm0-.38a3.66,3.66,0,0,0,.52.59v.23a2.92,2.92,0,0,1-.52-.64Zm0-.38a3.66,3.66,0,0,0,.52.59v.24a3,3,0,0,1-.52-.65Zm0-.37a3.21,3.21,0,0,0,.52.58V139a2.86,2.86,0,0,1-.52-.63Zm0-.38a3.21,3.21,0,0,0,.52.58v.24a2.92,2.92,0,0,1-.52-.64Zm-.1-.4a2.14,2.14,0,0,1-.09-.34l.09.19Zm0,.37a1.89,1.89,0,0,1-.09-.34,1.21,1.21,0,0,0,.09.2Zm0,.38a1.89,1.89,0,0,1-.09-.34,1.76,1.76,0,0,0,.09.2Zm0,.37a1.78,1.78,0,0,1-.09-.33,1.63,1.63,0,0,0,.09.19Zm0,.38a2,2,0,0,1-.09-.33c0,.06.06.12.09.19Zm0,.38a2.14,2.14,0,0,1-.09-.34l.09.2Zm0,.38a2.14,2.14,0,0,1-.09-.34l.09.2Zm0,.37a2,2,0,0,1-.09-.33c0,.06.06.12.09.19Zm0,.38a2.14,2.14,0,0,1-.09-.34l.09.2Zm.62-2.4v.23a2.7,2.7,0,0,1-.52-.64v-.18a3.09,3.09,0,0,0,.52.56Z"/>
        <path class="cls-10" d="M199.18,127.55c0-1.61,1.72-3.55,3.85-4.35a12.59,12.59,0,0,1,7.68,0c2.13.8,3.85,2.74,3.85,4.35v8.93a3.82,3.82,0,0,1-2.25,3.14,11.93,11.93,0,0,1-10.88,0,3.84,3.84,0,0,1-2.25-3.14h0v-6h0Z"/>
        <path class="cls-17" d="M199.18,127.55c0-1.61,1.72-3.55,3.85-4.35a12.59,12.59,0,0,1,7.68,0c2.13.8,3.85,2.74,3.85,4.35v8.93a3.82,3.82,0,0,1-2.25,3.14,11.93,11.93,0,0,1-10.88,0,3.84,3.84,0,0,1-2.25-3.14h0v-6h0Z"/>
        <path class="cls-21" d="M212,130.88a10.37,10.37,0,0,1-10.34,0c-2.86-1.84-2.86-4.83,0-6.67a10.37,10.37,0,0,1,10.34,0C214.87,126.05,214.87,129.05,212,130.88Z"/>
        <path class="cls-22" d="M211.68,130.36a9.71,9.71,0,0,1-9.67,0c-2.69-1.72-2.67-4.52,0-6.24a9.66,9.66,0,0,1,9.67,0C214.36,125.87,214.34,128.64,211.68,130.36Z"/>
        <path class="cls-19" d="M202,139.92l1.09-.16a10.66,10.66,0,0,0,8.93-8.88h0a4.08,4.08,0,0,0,2.14-3.34v10.3a4.84,4.84,0,0,1-1.87,1.75A12,12,0,0,1,202,139.92Z"/>
        <path class="cls-20" d="M213.17,129.9a3.54,3.54,0,0,0,1-2.36v10.3a4.08,4.08,0,0,1-1,1.17Z"/>
        <path class="cls-14" d="M205.18,127.36v-.31h.08a1.05,1.05,0,0,1,.44-.42,2.78,2.78,0,0,1,2.51,0,1.18,1.18,0,0,1,.44.42h.08v.31h0a.88.88,0,0,1-.52.72,2.78,2.78,0,0,1-2.51,0A.86.86,0,0,1,205.18,127.36Z"/>
        <path class="cls-15" d="M208.21,127.78a.76.76,0,0,0,.49-1,.75.75,0,0,0-.49-.49,2.78,2.78,0,0,0-2.51,0,.76.76,0,0,0-.49,1,.75.75,0,0,0,.49.49A2.84,2.84,0,0,0,208.21,127.78Z"/>
        <path class="cls-10" d="M207,127.61a1.29,1.29,0,0,0,.64-.16c.27-.15.36-.39.24-.58a.09.09,0,0,0-.12,0,.08.08,0,0,0,0,.12c.08.12,0,.26-.17.37a1.19,1.19,0,0,1-1.1,0c-.13-.08-.2-.17-.2-.26a.32.32,0,0,1,.2-.27,1.12,1.12,0,0,1,.78-.11.09.09,0,0,0,.1-.07.09.09,0,0,0-.06-.11h0a1.32,1.32,0,0,0-.89.14.44.44,0,0,0-.27.56.41.41,0,0,0,.27.27A1.23,1.23,0,0,0,207,127.61Z"/>
        <path class="cls-10" d="M207.13,127h.05l.67-.39a.1.1,0,0,0,0-.12.09.09,0,0,0-.12,0h0l-.67.4a.08.08,0,0,0,0,.11A.12.12,0,0,0,207.13,127Z"/>
        <path class="cls-14" d="M204.09,126.13v-.29h0a.33.33,0,0,1,.13-.13.91.91,0,0,1,.79,0,.33.33,0,0,1,.13.13h0v.29h0a.28.28,0,0,1-.16.23.89.89,0,0,1-.78,0A.28.28,0,0,1,204.09,126.13Z"/>
        <path class="cls-15" d="M205,126.05c.22-.13.22-.33,0-.45a.83.83,0,0,0-.78,0c-.22.12-.22.32,0,.45A.83.83,0,0,0,205,126.05Z"/>
        <path class="cls-14" d="M208.51,128.66v-.3h0a.44.44,0,0,1,.14-.13.83.83,0,0,1,.78,0,.29.29,0,0,1,.14.13h0v.3h0a.28.28,0,0,1-.16.23.89.89,0,0,1-.78,0A.28.28,0,0,1,208.51,128.66Z"/>
        <path class="cls-15" d="M209.43,128.59a.24.24,0,0,0,0-.45.83.83,0,0,0-.78,0,.24.24,0,0,0-.14.31.27.27,0,0,0,.14.14A.83.83,0,0,0,209.43,128.59Z"/>
        <path class="cls-14" d="M202.15,135.19l-1.28-.73a.16.16,0,0,1-.06-.13v-.73A.85.85,0,0,1,201,133a.37.37,0,0,1,.48,0,1.79,1.79,0,0,1,.7,1.48v.72C202.2,135.19,202.18,135.21,202.15,135.19Z"/>
        <path class="cls-14" d="M200.88,134.67l1.26.73a.2.2,0,0,1,.06.14c0,.53-.33.78-.7.59a1.86,1.86,0,0,1-.69-1.38C200.81,134.68,200.84,134.65,200.88,134.67Z"/>
        <path class="cls-14" d="M201.41,136.49a2.23,2.23,0,0,1-1-2,.09.09,0,0,1,.1-.09h0a.09.09,0,0,1,.09.09,2.06,2.06,0,0,0,.88,1.86.49.49,0,0,0,.47,0,1,1,0,0,0,.37-.82.12.12,0,0,1,.11-.09.11.11,0,0,1,.09.1,1.14,1.14,0,0,1-.48,1,.53.53,0,0,1-.28.07.57.57,0,0,1-.18,0v.64l.28.16a.1.1,0,0,1,0,.18h-.05l-.64-.38a.09.09,0,0,1,0-.13.09.09,0,0,1,.13,0l.18.09v-.61Z"/>
      </g>
    </g>
    <g id="freepik--Device--inject-277">
      <path id="freepik--shadow--inject-277-5" data-name="freepik--shadow--inject-277" class="cls-16" d="M217.52,152.87l20.78-12a1.38,1.38,0,0,1,1.25,0L251,147.47a.52.52,0,0,1,.31.67.5.5,0,0,1-.31.31l-20.63,11.91a1.21,1.21,0,0,1-1.11,0l-11.71-6.76a.39.39,0,0,1-.24-.49A.36.36,0,0,1,217.52,152.87Z"/>
      <g id="freepik--Mobile--inject-277">
        <path class="cls-14" d="M238.05,140l-19.56,11.3a1,1,0,0,0-.58,1,1.22,1.22,0,0,0,.58,1L229,159.42a1.7,1.7,0,0,0,1.49,0l19.56-11.3a1,1,0,0,0,.51-1,1.26,1.26,0,0,0-.51-1.1L239.54,140A1.43,1.43,0,0,0,238.05,140Z"/>
        <path class="cls-14" d="M238.6,140.43l10.82,6.25L229.76,158v1.56a1.5,1.5,0,0,0,.75-.17l19.56-11.3a1,1,0,0,0,.51-1,1.26,1.26,0,0,0-.51-1.1L239.54,140a1.47,1.47,0,0,0-.94-.2Z"/>
        <path class="cls-15" d="M218.68,152l10.56,6.1a1.21,1.21,0,0,0,1,0l19.38-11.2a.48.48,0,0,0,.3-.62.47.47,0,0,0-.3-.3l-10.27-5.94a1.31,1.31,0,0,0-1.16,0l-19.53,11.28a.36.36,0,0,0-.24.45A.37.37,0,0,0,218.68,152Z"/>
        <path class="cls-15" d="M243.41,150.88a.62.62,0,0,0-.29.49.17.17,0,0,0,.08.17l.2.12a.2.2,0,0,0,.21,0l1.8-1a.66.66,0,0,0,.3-.49.23.23,0,0,0-.08-.17l-.21-.12a.2.2,0,0,0-.21,0Z"/>
        <path class="cls-14" d="M243.61,151l1.8-1c.17-.1.3,0,.3.15a.63.63,0,0,1-.3.48l-1.8,1a.18.18,0,0,1-.29-.16A.62.62,0,0,1,243.61,151Z"/>
        <path class="cls-15" d="M246.56,149.06a.66.66,0,0,0-.3.49.2.2,0,0,0,.09.17l.2.12a.2.2,0,0,0,.21,0l1.8-1a.62.62,0,0,0,.29-.49.19.19,0,0,0-.07-.17l-.21-.12a.26.26,0,0,0-.21,0Z"/>
        <path class="cls-14" d="M246.76,149.18l1.8-1c.16-.09.29,0,.29.15a.59.59,0,0,1-.29.48l-1.8,1c-.16.09-.29,0-.29-.15A.65.65,0,0,1,246.76,149.18Z"/>
        <path class="cls-23" d="M237.73,140.83l-18,10.41a.34.34,0,0,0-.22.43.31.31,0,0,0,.22.22l9.55,5.52a1.25,1.25,0,0,0,1.13,0l18.18-10.5c.25-.14.3-.36.14-.53l0,0-.1-.07-2.69-1.56-.18-.1a.36.36,0,0,0-.35,0,.38.38,0,0,1-.36,0l-3.13-1.8c-.1-.07-.11-.16,0-.21s.1-.14,0-.2h0l-2.63-1.51-.05,0A1.59,1.59,0,0,0,237.73,140.83Z"/>
        <path class="cls-14" d="M245.34,145a.36.36,0,0,1,.35,0l.18.1,2.69,1.55.1.07,0,0h0a.48.48,0,0,1-.16.13l-18.18,10.49a1.23,1.23,0,0,1-1.12,0l-9.55-5.51a.13.13,0,1,1,0-.26l18-10.41a1.63,1.63,0,0,1,1.43,0l.05,0,2.56,1.47v.34a.17.17,0,0,0,.08.12L245,145A.44.44,0,0,0,245.34,145Z"/>
        <path class="cls-14" d="M245.09,144l-1.43-.82a.32.32,0,0,0-.3,0c-.09,0-.08.12,0,.17l1.43.83a.32.32,0,0,0,.3,0C245.19,144.11,245.18,144,245.09,144Z"/>
        <path class="cls-14" d="M243,142.69a.43.43,0,0,0-.35,0c-.1.06-.1.15,0,.21a.43.43,0,0,0,.35,0,.11.11,0,0,0,.06-.15A.17.17,0,0,0,243,142.69Z"/>
      </g>
      <g class="cls-24">
        <polygon class="cls-4" points="229.05 145.84 231.75 144.28 234.13 155.24 231.43 156.79 229.05 145.84"/>
        <path class="cls-4" d="M236.58,153.82l-2.38-11,3.53-2a1.55,1.55,0,0,1,1.42,0l.06,0,1.58.91,1.86,8.55Z"/>
      </g>
    </g>
    <g id="freepik--musical-note--inject-277">
      <path id="freepik--musical-note--inject-277-2" data-name="freepik--musical-note--inject-277" class="cls-10" d="M189.76,104.46l-2.51,3.23a1.07,1.07,0,0,0-1.79,1.16,1.06,1.06,0,0,0,1.47.32,1.2,1.2,0,0,0,.26-.24l2.26-2.92,3.5,1.5h0l-2.22,2.89a.92.92,0,0,0-.24-.28,1.07,1.07,0,1,0-1.31,1.7,1.07,1.07,0,0,0,1.5-.19h0l3.72-4.8Z"/>
      <path id="freepik--musical-note--inject-277-3" data-name="freepik--musical-note--inject-277" class="cls-25" d="M189.76,104.46l-2.51,3.23a1.07,1.07,0,0,0-1.79,1.16,1.06,1.06,0,0,0,1.47.32,1.2,1.2,0,0,0,.26-.24l2.26-2.92,3.5,1.5h0l-2.22,2.89a.92.92,0,0,0-.24-.28,1.07,1.07,0,1,0-1.31,1.7,1.07,1.07,0,0,0,1.5-.19h0l3.72-4.8Z"/>
    </g>
    <path id="freepik--musical-note--inject-277-4" data-name="freepik--musical-note--inject-277" class="cls-10" d="M200.08,114.09a2,2,0,0,1,.59-.59,4.39,4.39,0,0,1,1.06-.47,8.37,8.37,0,0,0,1.44-.55,2,2,0,0,0,1-1.17,2.12,2.12,0,0,1-.83.36,11.84,11.84,0,0,1-2.28-.23,3.46,3.46,0,0,0-2.64,1.28c.48.81.95,1.64,1.42,2.46l1.12,1.93.48.89a2,2,0,0,0-.81.25,1.6,1.6,0,1,0,2.18.58h0Z"/>
    <g id="freepik--musical-note--inject-277-5" data-name="freepik--musical-note--inject-277">
      <path id="freepik--musical-note--inject-277-6" data-name="freepik--musical-note--inject-277" class="cls-10" d="M199.24,95.24a2.12,2.12,0,0,1,.87,0,4.23,4.23,0,0,1,1.09.36,8.18,8.18,0,0,0,1.44.58,2,2,0,0,0,1.5-.19,2.17,2.17,0,0,1-.85-.3c-.61-.39-1-1.16-1.53-1.69a3.42,3.42,0,0,0-2.81-.85c-.19.93-.41,1.85-.59,2.78-.15.73-.31,1.46-.47,2.18,0,.07-.24,1-.24,1a1.9,1.9,0,0,0-.77-.37,1.6,1.6,0,1,0,1.22,1.9Z"/>
      <path id="freepik--musical-note--inject-277-7" data-name="freepik--musical-note--inject-277" class="cls-26" d="M199.24,95.24a2.12,2.12,0,0,1,.87,0,4.23,4.23,0,0,1,1.09.36,8.18,8.18,0,0,0,1.44.58,2,2,0,0,0,1.5-.19,2.17,2.17,0,0,1-.85-.3c-.61-.39-1-1.16-1.53-1.69a3.42,3.42,0,0,0-2.81-.85c-.19.93-.41,1.85-.59,2.78-.15.73-.31,1.46-.47,2.18,0,.07-.24,1-.24,1a1.9,1.9,0,0,0-.77-.37,1.6,1.6,0,1,0,1.22,1.9Z"/>
    </g>
  </g>
  <g id="freepik--Bottle--inject-277">
    <g id="freepik--Water--inject-277">
      <path class="cls-10" d="M271.57,202.63a20.73,20.73,0,0,0-1.48-3.81c-.06-.13-.12-.27-.2-.41a7.81,7.81,0,0,1,.11-7.35l.13-.24a8.19,8.19,0,0,0,1.16-4.32,5.06,5.06,0,0,0-2.46-4.08,9.09,9.09,0,0,0-1.17-.58,1.94,1.94,0,0,1-1.24-1.82v-2.24l-7.16,0V180A2,2,0,0,1,258,181.8a8.2,8.2,0,0,0-1.16.55,5.09,5.09,0,0,0-2.5,4.08,8.27,8.27,0,0,0,1.11,4.34l.11.21a7.82,7.82,0,0,1,.07,7.37c-.08.13-.14.27-.21.41a20.62,20.62,0,0,0-1.5,3.79,17.89,17.89,0,0,0-.35,3.86l0,10.43c0,1.36.88,2.71,2.66,3.75a12.46,12.46,0,0,0,5.18,1.51,16,16,0,0,0,2.59,0,12.57,12.57,0,0,0,5.16-1.47c1.79-1,2.69-2.38,2.69-3.72l0-7.55c0-.94,0-1.92.05-2.91A18,18,0,0,0,271.57,202.63Z"/>
      <path class="cls-27" d="M271.57,202.63a20.73,20.73,0,0,0-1.48-3.81c-.06-.13-.12-.27-.2-.41a7.81,7.81,0,0,1,.11-7.35l.13-.24a8.19,8.19,0,0,0,1.16-4.32,5.06,5.06,0,0,0-2.46-4.08,9.09,9.09,0,0,0-1.17-.58,1.94,1.94,0,0,1-1.24-1.82v-2.24l-7.16,0V180A2,2,0,0,1,258,181.8a8.2,8.2,0,0,0-1.16.55,5.09,5.09,0,0,0-2.5,4.08,8.27,8.27,0,0,0,1.11,4.34l.11.21a7.82,7.82,0,0,1,.07,7.37c-.08.13-.14.27-.21.41a20.62,20.62,0,0,0-1.5,3.79,17.89,17.89,0,0,0-.35,3.86l0,10.43c0,1.36.88,2.71,2.66,3.75a12.46,12.46,0,0,0,5.18,1.51,16,16,0,0,0,2.59,0,12.57,12.57,0,0,0,5.16-1.47c1.79-1,2.69-2.38,2.69-3.72l0-7.55c0-.94,0-1.92.05-2.91A18,18,0,0,0,271.57,202.63Z"/>
      <path class="cls-18" d="M270,191.06l.13-.24a8.23,8.23,0,0,0,1.11-3.65,6.59,6.59,0,0,1-.67,1.48,14.4,14.4,0,0,1-3.24,3.37c-1.22,1-2.59,2.14-2.74,3.72s.93,2.91,2.15,3.84a37.21,37.21,0,0,1,3.76,2.64,9.4,9.4,0,0,1,1.25,1.56,11.63,11.63,0,0,0-.18-1.16,20.73,20.73,0,0,0-1.48-3.81c-.06-.13-.12-.27-.2-.41A7.82,7.82,0,0,1,270,191.06Z"/>
      <path class="cls-10" d="M258.06,180.27v1.24a2.43,2.43,0,0,0,1.41,2,7.67,7.67,0,0,0,6.89,0,3.32,3.32,0,0,0,1.08-.93,1.79,1.79,0,0,0,.35-1.05v-1.22a1.84,1.84,0,0,0,0-.33,2.61,2.61,0,0,0-1.39-1.67l-.07,0a7.62,7.62,0,0,0-6.81,0,2.66,2.66,0,0,0-1.4,1.66A1,1,0,0,0,258.06,180.27Z"/>
      <path class="cls-20" d="M258.06,180.27v1.24a2.43,2.43,0,0,0,1.41,2,7.67,7.67,0,0,0,6.89,0,3.32,3.32,0,0,0,1.08-.93,1.79,1.79,0,0,0,.35-1.05v-1.22a1.84,1.84,0,0,0,0-.33,2.61,2.61,0,0,0-1.39-1.67l-.07,0a7.62,7.62,0,0,0-6.81,0,2.66,2.66,0,0,0-1.4,1.66A1,1,0,0,0,258.06,180.27Z"/>
      <path class="cls-28" d="M266.34,182.28c1.91-1.09,1.92-2.87,0-4a7.58,7.58,0,0,0-6.88,0c-1.91,1.09-1.92,2.87,0,4A7.55,7.55,0,0,0,266.34,182.28Z"/>
      <path class="cls-10" d="M258.06,178.87v.72a2.07,2.07,0,0,0,0,.35,2.64,2.64,0,0,0,1.39,1.66,6.7,6.7,0,0,0,3,.82,7.2,7.2,0,0,0,3.84-.8,3.42,3.42,0,0,0,1.08-.92,2.12,2.12,0,0,0,.32-.72,1.86,1.86,0,0,0,0-.34v-.74a2.42,2.42,0,0,0-1.42-2l-.26-.14a7.61,7.61,0,0,0-6.62.12A2.38,2.38,0,0,0,258.06,178.87Z"/>
      <path class="cls-20" d="M258.06,178.87v.72a2.07,2.07,0,0,0,0,.35,2.64,2.64,0,0,0,1.39,1.66,6.7,6.7,0,0,0,3,.82,7.2,7.2,0,0,0,3.84-.8,3.42,3.42,0,0,0,1.08-.92,2.12,2.12,0,0,0,.32-.72,1.86,1.86,0,0,0,0-.34v-.74a2.42,2.42,0,0,0-1.42-2l-.26-.14a7.61,7.61,0,0,0-6.62.12A2.38,2.38,0,0,0,258.06,178.87Z"/>
      <path class="cls-10" d="M258.06,178.85c0,1.54,2.17,2.8,4.85,2.81s4.88-1.23,4.88-2.78-2.17-2.81-4.85-2.81S258.06,177.29,258.06,178.85Z"/>
      <path class="cls-10" d="M261.23,176v2.64a.92.92,0,0,0,.48.59,2.45,2.45,0,0,0,1.06.27,2.37,2.37,0,0,0,1.33-.27,1.14,1.14,0,0,0,.37-.32.71.71,0,0,0,.11-.25V176a.83.83,0,0,0-.49-.69l-.09-.05a2.63,2.63,0,0,0-2.29,0A.89.89,0,0,0,261.23,176Z"/>
      <path class="cls-28" d="M261.23,176v2.64a.92.92,0,0,0,.48.59,2.45,2.45,0,0,0,1.06.27,2.37,2.37,0,0,0,1.33-.27,1.14,1.14,0,0,0,.37-.32.71.71,0,0,0,.11-.25V176a.83.83,0,0,0-.49-.69l-.09-.05a2.63,2.63,0,0,0-2.29,0A.89.89,0,0,0,261.23,176Z"/>
      <path class="cls-10" d="M261.23,176c0,.53.76,1,1.69,1s1.69-.43,1.69-1-.75-1-1.69-1S261.24,175.43,261.23,176Z"/>
      <path class="cls-29" d="M262.32,176c0,.19.27.35.59.35s.58-.16.58-.35-.27-.34-.58-.34S262.32,175.78,262.32,176Z"/>
      <path class="cls-30" d="M262.32,176c0,.19.27.35.59.35s.58-.16.58-.35-.27-.34-.58-.34S262.32,175.78,262.32,176Z"/>
    </g>
  </g>
  <g id="freepik--Mat--inject-277">
    <g id="freepik--mat--inject-277-2" data-name="freepik--mat--inject-277">
      <polygon class="cls-10" points="27.12 202.99 27.12 201.76 112.36 152.54 270.99 244.13 270.99 245.37 185.75 294.58 27.12 202.99"/>
      <polygon class="cls-10" points="185.75 293.35 270.99 244.13 112.36 152.54 27.12 201.76 185.75 293.35"/>
      <polygon class="cls-22" points="185.75 293.35 270.99 244.13 112.36 152.54 27.12 201.76 185.75 293.35"/>
    </g>
  </g>
  <g id="freepik--Blocks--inject-277">
    <g id="freepik--Block--inject-277">
      <path class="cls-14" d="M74.55,139.57l14,8.13a2.8,2.8,0,0,1,1.27,2.19v29.87A2.8,2.8,0,0,1,88.59,182l-8.29,4.81a2.8,2.8,0,0,1-2.52,0l-14.05-8.17a2.76,2.76,0,0,1-1.26-2.18V146.54a2.8,2.8,0,0,1,1.26-2.19L72,139.56A2.82,2.82,0,0,1,74.55,139.57Z"/>
      <path class="cls-14" d="M63.73,145.81l14.05,8.12a2.77,2.77,0,0,1,1.27,2.18V186c0,.81-.59,1.13-1.27.73l-14.05-8.14a2.76,2.76,0,0,1-1.26-2.18V146.54C62.47,145.74,63,145.41,63.73,145.81Z"/>
      <path class="cls-15" d="M88.59,149.14l-8.29,4.79a2.8,2.8,0,0,1-2.52,0l-14.05-8.12a.77.77,0,0,1,0-1.45L72,139.57a2.82,2.82,0,0,1,2.53,0l14,8.13a.77.77,0,0,1,.44,1A.79.79,0,0,1,88.59,149.14Z"/>
    </g>
    <g id="freepik--block--inject-277-2" data-name="freepik--block--inject-277">
      <path class="cls-14" d="M31.92,197,46,205.12a2.8,2.8,0,0,0,2.52,0l25.89-14.94A2.82,2.82,0,0,0,75.65,188v-9.57a2.76,2.76,0,0,0-1.26-2.16l-14-8.16a2.8,2.8,0,0,0-2.52,0l-25.9,15a2.75,2.75,0,0,0-1.25,2.18v9.58A2.75,2.75,0,0,0,31.92,197Z"/>
      <path class="cls-15" d="M31.92,184.52,46,192.64a2.8,2.8,0,0,0,2.52,0l25.89-14.95a.76.76,0,0,0,.48-1,.8.8,0,0,0-.48-.49l-14-8.13a2.8,2.8,0,0,0-2.52,0l-25.9,15a.77.77,0,0,0,0,1.45Z"/>
      <path class="cls-14" d="M47.24,204.39v-9.57A2.8,2.8,0,0,0,46,192.64l-14.06-8.12c-.69-.4-1.25-.07-1.25.73v9.58A2.75,2.75,0,0,0,31.92,197L46,205.12C46.67,205.52,47.24,205.2,47.24,204.39Z"/>
    </g>
  </g>
  <g id="freepik--Cat--inject-277">
    <g id="freepik--cat--inject-277-2" data-name="freepik--cat--inject-277">
      <path class="cls-10" d="M25.36,252.88a5.1,5.1,0,0,0,3.86-1.75c2.64-2.91,3-9.16.86-16.32-1.59-5.38-1.49-9.72.27-11.9a4.28,4.28,0,0,1,3.88-1.46c2.74.2,3.42,1.51,4.37,3.33.41.8.73,1.75.18,2.25a9.57,9.57,0,0,0,5.33,2,1.88,1.88,0,0,0,.11-3.76h0c-1.07,0-1.39-.44-2.29-2.18-1-2-2.59-5-7.42-5.34a8,8,0,0,0-7.08,2.85c-2.59,3.2-2.91,8.65-1,15.32s1.35,11.22,0,12.74a1.43,1.43,0,0,1-1.48.46,1.88,1.88,0,1,0-.71,3.69A6,6,0,0,0,25.36,252.88Z"/>
      <path class="cls-31" d="M25.36,252.88a5.1,5.1,0,0,0,3.86-1.75c2.64-2.91,3-9.16.86-16.32-1.59-5.38-1.49-9.72.27-11.9a4.28,4.28,0,0,1,3.88-1.46c2.74.2,3.42,1.51,4.37,3.33.41.8.73,1.75.18,2.25a9.57,9.57,0,0,0,5.33,2,1.88,1.88,0,0,0,.11-3.76h0c-1.07,0-1.39-.44-2.29-2.18-1-2-2.59-5-7.42-5.34a8,8,0,0,0-7.08,2.85c-2.59,3.2-2.91,8.65-1,15.32s1.35,11.22,0,12.74a1.43,1.43,0,0,1-1.48.46,1.88,1.88,0,1,0-.71,3.69A6,6,0,0,0,25.36,252.88Z"/>
      <path class="cls-10" d="M93.62,275.68c-1.06-1.55-4.54-4.29-7.7-6.28s-4.74-3.66-5.62-6.41l-9.63-1.33a24.58,24.58,0,0,0,3.61,7.2c2.23,3.16,9.43,5.15,11,5.66A7.69,7.69,0,0,1,88.76,277c.78,1,1.25,2.18,2.24,2.71a1.28,1.28,0,0,0,1.49-.36c1.35.62,1.62-.58,1.62-.58C94.77,278.19,94.61,277.1,93.62,275.68Z"/>
      <path class="cls-31" d="M93.62,275.68c-1.06-1.55-4.54-4.29-7.7-6.28s-4.74-3.66-5.62-6.41l-9.63-1.33a24.58,24.58,0,0,0,3.61,7.2c2.23,3.16,9.43,5.15,11,5.66A7.69,7.69,0,0,1,88.76,277c.78,1,1.25,2.18,2.24,2.71a1.28,1.28,0,0,0,1.49-.36c1.35.62,1.62-.58,1.62-.58C94.77,278.19,94.61,277.1,93.62,275.68Z"/>
      <path class="cls-10" d="M81.15,246.12a12.31,12.31,0,0,1,4-2.68c2.1-.7,2.91-.76,3.45-.55,1,.39-1.66,4.33-1.66,7.46Z"/>
      <g class="cls-32">
        <path class="cls-23" d="M81.15,246.12a12.31,12.31,0,0,1,4-2.68c2.1-.7,2.91-.76,3.45-.55,1,.39-1.66,4.33-1.66,7.46Z"/>
      </g>
      <path class="cls-33" d="M87,244c1.17-.78,1.75-1,1.88-.74.1,1.1-1.88,4.4-1.88,7.11l-2.61-1.92C84.23,247,85.78,244.78,87,244Z"/>
      <path class="cls-10" d="M88.07,255.08c.1-1.38.55-3-2-5.83s-5.59-4-10-3.75a9.77,9.77,0,0,0-6,3.24,6.58,6.58,0,0,0-.74,1.07c-5.31-.27-8.33-7.76-10.34-11.76a86.44,86.44,0,0,0-4.17-7.69c-2.46-4-6.73-5.51-11.07-5A11.7,11.7,0,0,0,33.27,236.7a28.06,28.06,0,0,0,.31,3.78c.45,3.5,2.24,13,.93,14-1.86,1.46,1.05,10.06,2.24,13a2,2,0,0,0,.69,1,2.87,2.87,0,0,0,3.12.39c1.51-.82,1.07-1.87-.72-2.75-.08-1.64-1.07-6.2-.15-7.35a29.93,29.93,0,0,0,3.17-5.41s.47,2.42,3.5,5.55c5.39,5.55,12.89,7.18,15.15,9.85h0a59.37,59.37,0,0,0,3.91,5.77c2.22,3.16,10.26,4.67,11.78,5.16a7.62,7.62,0,0,1,3.54,2.42c.77,1,1.24,2.18,2.23,2.71a1.28,1.28,0,0,0,1.49-.35c1.35.61,1.62-.59,1.62-.59.67-.52.51-1.58-.48-3s-4.54-4.29-7.7-6.28c-2.78-1.75-4.35-3.26-5.25-5.48,2.82-1.86,3.62-4.44,5.17-5.19l.28.11a10.83,10.83,0,0,0,6.63.39c1.44-.45,3.65-2.74,3.79-4.24S88,256.46,88.07,255.08Z"/>
      <path class="cls-28" d="M88.07,255.08c.1-1.38.55-3-2-5.83s-5.59-4-10-3.75a9.77,9.77,0,0,0-6,3.24,6.58,6.58,0,0,0-.74,1.07c-5.31-.27-8.33-7.76-10.34-11.76a86.44,86.44,0,0,0-4.17-7.69c-2.46-4-6.73-5.51-11.07-5A11.7,11.7,0,0,0,33.27,236.7a28.06,28.06,0,0,0,.31,3.78c.45,3.5,2.24,13,.93,14-1.86,1.46,1.05,10.06,2.24,13a2,2,0,0,0,.69,1,2.87,2.87,0,0,0,3.12.39c1.51-.82,1.07-1.87-.72-2.75-.08-1.64-1.07-6.2-.15-7.35a29.93,29.93,0,0,0,3.17-5.41s.47,2.42,3.5,5.55c5.39,5.55,12.89,7.18,15.15,9.85h0a59.37,59.37,0,0,0,3.91,5.77c2.22,3.16,10.26,4.67,11.78,5.16a7.62,7.62,0,0,1,3.54,2.42c.77,1,1.24,2.18,2.23,2.71a1.28,1.28,0,0,0,1.49-.35c1.35.61,1.62-.59,1.62-.59.67-.52.51-1.58-.48-3s-4.54-4.29-7.7-6.28c-2.78-1.75-4.35-3.26-5.25-5.48,2.82-1.86,3.62-4.44,5.17-5.19l.28.11a10.83,10.83,0,0,0,6.63.39c1.44-.45,3.65-2.74,3.79-4.24S88,256.46,88.07,255.08Z"/>
      <path class="cls-20" d="M43.62,255.23a7.56,7.56,0,0,1-.76-1.89c1.12-1.34,1.25-9.55,1.25-9.55A19.05,19.05,0,0,1,43.62,255.23Z"/>
      <path class="cls-20" d="M57.25,266h0s.69.35,1-.65-1-3.67-1-3.67,2.94,5.13,4.25,7.09A14.41,14.41,0,0,0,57.25,266Z"/>
      <path class="cls-10" d="M68.46,244.62c.5-.58,2.72-1.13,8.35,2.12l-.27,2.83a13.21,13.21,0,0,0-4.61.46,4.71,4.71,0,0,0-2.13,1.79,2.75,2.75,0,0,0-.17.29S67.24,245.81,68.46,244.62Z"/>
      <path class="cls-31" d="M68.46,244.62c.5-.58,2.72-1.13,8.35,2.12l-.27,2.83a13.21,13.21,0,0,0-4.61.46,4.71,4.71,0,0,0-2.13,1.79,2.75,2.75,0,0,0-.17.29S67.24,245.81,68.46,244.62Z"/>
      <path class="cls-33" d="M69.14,244.46c2.33.24,7.4,5.13,7.4,5.13a13.21,13.21,0,0,0-4.61.46,4.75,4.75,0,0,0-2.13,1.78h0C69.31,250.47,67.32,244.65,69.14,244.46Z"/>
      <path class="cls-14" d="M79.94,256.63c0-.06-.37-1.41-1.43-1.55a1.59,1.59,0,0,0-1.56.78,1.63,1.63,0,0,0,1.16,1.31A1.73,1.73,0,0,0,79.94,256.63Z"/>
      <path class="cls-14" d="M85.55,256.12a1.45,1.45,0,0,1,.68-1.51.89.89,0,0,1,.55-.12,1,1,0,0,1,.86,1.13,1.1,1.1,0,0,1-.11.35,1.07,1.07,0,0,1-.41.38A1.28,1.28,0,0,1,85.55,256.12Z"/>
      <path class="cls-14" d="M76.45,259.72h0a7.64,7.64,0,0,1,5,0,.19.19,0,0,0,.25-.1.19.19,0,0,0-.1-.25,7.93,7.93,0,0,0-5.31,0,.18.18,0,0,0-.14.22.19.19,0,0,0,.21.15Z"/>
      <path class="cls-14" d="M76.78,262.11a.18.18,0,0,0,.14-.06c1.75-1.94,4.8-1.57,4.83-1.57a.2.2,0,0,0,.21-.16.18.18,0,0,0-.15-.21h0c-.14,0-3.29-.41-5.16,1.69a.18.18,0,0,0,.14.31Z"/>
      <path class="cls-14" d="M87.51,259.3a.24.24,0,0,0,.15,0h0A5.92,5.92,0,0,1,92,258.1a.2.2,0,0,0,.21-.17h0a.19.19,0,0,0-.17-.21,6.38,6.38,0,0,0-4.59,1.2l-.06,0h0l-.07.07a.2.2,0,0,0,.07.23Z"/>
      <path class="cls-14" d="M91.9,260a.18.18,0,0,0,.17-.11.21.21,0,0,0-.08-.26,5.11,5.11,0,0,0-4.42,0,.19.19,0,0,0-.08.26.18.18,0,0,0,.25.08h0a4.78,4.78,0,0,1,4.08,0Z"/>
      <path class="cls-14" d="M82.77,262.53a2.52,2.52,0,0,0,1.41-.41,1.54,1.54,0,0,0,.63-.66,3.84,3.84,0,0,0-.25-2,.15.15,0,0,0-.29.09l0,0a3.71,3.71,0,0,1,.22,1.84,2.26,2.26,0,0,1-2.49.7.15.15,0,1,0-.07.29A2.86,2.86,0,0,0,82.77,262.53Z"/>
      <path class="cls-33" d="M84.69,258.89c1,0,1.13.4,1,.86a1.28,1.28,0,0,1-1,.8c-.35,0-1.27-.21-1.4-.71S83.55,258.88,84.69,258.89Z"/>
      <path class="cls-14" d="M85.61,262.09a1.5,1.5,0,0,0,.37,0,.14.14,0,0,0,.12-.18.15.15,0,0,0-.18-.12h0a1,1,0,0,1-1.12-.38.16.16,0,0,0-.21-.07.17.17,0,0,0-.07.21h0A1.19,1.19,0,0,0,85.61,262.09Z"/>
      <path class="cls-30" d="M48.8,248.78c0,.06.06,0,.06,0a10.09,10.09,0,0,1,5.44-7.58,12.83,12.83,0,0,1,4.16-1.2,9.39,9.39,0,0,1,1.5,0c-.3-.59-.58-1.17-.82-1.71a10.41,10.41,0,0,0-1.48.1,9.66,9.66,0,0,0-4.56,1.9A11,11,0,0,0,48.8,248.78Z"/>
      <path class="cls-30" d="M46.65,238.71a7.39,7.39,0,0,1,2.69-2.58,14.54,14.54,0,0,1,3.95-1.3,11.52,11.52,0,0,1,4-.2c-.33-.64-.65-1.22-1-1.75a12.12,12.12,0,0,0-3.59.45,9.3,9.3,0,0,0-6.12,5.38S46.64,238.73,46.65,238.71Z"/>
      <path class="cls-30" d="M63.24,245.73c-.36-.5-.71-1-1-1.55l-.45.08a6.25,6.25,0,0,0-3,1.43A6.62,6.62,0,0,0,57,248.58a6,6,0,0,0-.31,3.2c0,.07.08,0,.08,0a7,7,0,0,1,.86-2.75,7.16,7.16,0,0,1,2-2.11,6.79,6.79,0,0,1,2.77-1.09A6,6,0,0,1,63.24,245.73Z"/>
    </g>
  </g>
  <g id="freepik--Character--inject-277">
    <g id="freepik--character--inject-277-2" data-name="freepik--character--inject-277">
      <ellipse id="freepik--shadow--inject-277-6" data-name="freepik--shadow--inject-277" class="cls-29" cx="159.58" cy="247.64" rx="28.86" ry="16.66"/>
      <g id="freepik--Bottom--inject-277">
        <g id="freepik--Leg--inject-277">
          <path class="cls-34" d="M126.48,128.89l45,3.81a98,98,0,0,0-.11,11.24c.84,9.8.3,17.45-1.27,31.39A106.1,106.1,0,0,1,165.91,197c-1.37,5.05-4.38,24.78-5.6,34.06-.64,4.81,1.1,7.14,2.86,9.64,1.62,2.28,6.63,6.33,9.52,8.39,1.53,1.09,5.43,2.4,4,4.35s-2.84,2.64-6.59,3.3c-2.63.46-7.41.24-9.8-1.07-1.87-1-3.73-3.79-5.24-6-1.83-2.68-3.5-3.66-7.58-6.05-1.7-1-2.61-3.7-1.66-6.17.75-2,2.15-4,2.34-6.3.33-4.57-2-19.82-2.53-25.45a29.06,29.06,0,0,1,.5-8.68,33.06,33.06,0,0,1,3.21-9.11l-6-32.3C139.79,154.28,126.81,143.42,126.48,128.89Z"/>
          <path class="cls-14" d="M142.84,155.9l6.07,31.57a52.53,52.53,0,0,0-3,7.84c-.88,3.43-1,7.26.42,15.74,2.8,2.79,14.51,3.17,16.7,1.75.84-5.08,2.85-13.93,3.61-16.54s2.5-6.11,3.5-12.93,1.68-14.94,2.18-24.84.49-19.59-.79-25.77l-45-3.82s-.81,5.79,3.08,12.89S138.69,154,142.84,155.9Z"/>
          <path class="cls-14" d="M151.6,158.78c6-2.66,11.2-5.3,12.66-11-5,6.42-11.22,7.06-14.49,6.6l-5.83,7.18,2.51,13.06,2.47,12.82s-1.21,2.49-2.19,5.17c-.16.45-.32.91-.47,1.36s-.27.89-.38,1.32h0a20.31,20.31,0,0,0-.58,3.71,3.51,3.51,0,0,0,2.75.47c5.38-1.4,8.16-7.37,8.28-10.18.23-6.22-2-9.17-2.42-11s0-5.74-1-8.16A3.78,3.78,0,0,0,149,168.1s-.15-1.55-.15-2.69S148.47,160.18,151.6,158.78Z"/>
        </g>
        <g id="freepik--leg--inject-277-2" data-name="freepik--leg--inject-277">
          <path class="cls-34" d="M142.41,182.79c.45,1.45,2.33,8,2.33,11.57,0,1.9-.27,4.73,1,5.29s3.5.23,5.94-2.73a16.35,16.35,0,0,0,3.39-8.11c.25-2.15-.95-7.37-1.61-8.89-.93-2.08-.72-3-.87-7.73-.09-2.55-1.48-4.66-4-4.66-1.75,0-2.34.58-7.12,1.39s-21.68-1.63-28,1.32c-13.2,6.2-11.43,15.93-11.43,15.93,3.74,4.91,11.27,4.75,15.42,3.66,5.88-1.52,18.29-8.32,21.19-9.22S142,181.33,142.41,182.79Z"/>
          <path class="cls-14" d="M102,186.55c2.33,2.63,5.83,4.5,11.26,4.28s12.24-4.12,12.24-4.12a26.53,26.53,0,0,0-.1-18.58c-10.64.35-15.67,1.66-19.62,6.65S102,182.42,102,186.55Z"/>
          <path class="cls-14" d="M126.48,128.89c3.49,4.28,11.31,8.05,21.06,9.7,13.1,2.21,22.47-3.46,24-5.89,1.24,7.77-8.95,22.63-21.74,21.71a130.32,130.32,0,0,1-10.55,12.32c-4.7,4.75-12,11.86-14.43,14.35s-12.82,11.83-20.06,7.58-4.61-10.93-3.37-15.36c.79-2.84,4.61-10.08,7.7-15.29s5.43-9.27,7.09-11.7,2.53-6.38,3.68-9.08C121.56,133.19,124.88,129.34,126.48,128.89Z"/>
        </g>
      </g>
      <g id="freepik--Top--inject-277">
        <g id="freepik--Arm--inject-277">
          <path class="cls-34" d="M173.23,46.35c4.67,2.44,9.65,4.76,7.82,12.09-1.44,5.8-5.7,16.32-9.5,25.28-3,7.18-2.91,16.52-2.91,16.52-3.4.44-14.19-11.34-13.87-17.43,1.27-3.5,3.68-6.2,4.43-7.58,3.09-5.73,6.61-17.1,6.61-17.1-2.21-1.53-14.89-11.75-16.65-12.66-2.28-1.16-3.66-1.83-4.89-2.41-1.93-.93-2.6-1.57-3.16-3.16-.79-2.25.12-4.08-.2-6.32a7.07,7.07,0,0,1,0-3.17,13.27,13.27,0,0,0-1.75-4.33c-.61-1.13-.62-2.12.24-2.48-.61-1.59,0-2.25.83-2.29-.51-1.24-.85-2.37.35-3,.12-.07.49.28,1,1.17-.07-.87.78-1.87,1.27-1.3A71.31,71.31,0,0,1,147,24c1.47,2.33,1.75,3.42,2.45,8,.19,1.23.35,4,3.05,5.28C153.93,37.86,168.92,44.1,173.23,46.35Z"/>
          <path class="cls-35" d="M165.8,58.1a22.36,22.36,0,0,0,7.49,3.16s-2.69,1.12-7.95-1.74Z"/>
        </g>
        <g id="freepik--Chest--inject-277">
          <path class="cls-34" d="M169.49,119.9c.77-1.84.25-4.45-.39-6.05l-2.49-5.44c5-5.58,1.49-10.92-.63-14.53-3-4.58-10.08-10.66-10.08-10.66a138.68,138.68,0,0,0-18.46.15s-4.08.85-5.95,1.38c-3,.84-4.63,3.78-5.35,9.76-.2,1.61.35,6.86,1.66,11.38l2.6,11.31a4.45,4.45,0,0,0-1.12,4.17c-2.71,1.81-2.81,4.32-2.81,7.52,9.79,12,37.4,14.06,45,3.81C173.09,129.41,172.37,122.79,169.49,119.9Z"/>
          <path class="cls-35" d="M163.77,127.06a1.78,1.78,0,0,0-.35-.42c-.15-.13-.31-.23-.46-.35a.47.47,0,0,1-.19-.38.4.4,0,0,1,.09-.21.84.84,0,0,1,.27-.29h0v.22c0,.24,0,.47,0,.71,0,0,0,.19.11.11a1.25,1.25,0,0,0,.25-.77.76.76,0,0,0-.17-.58c-.36-.38-.86.19-1,.54-.13.52.33.89.7,1.17a1.3,1.3,0,0,1,.42.48,1.93,1.93,0,0,1,.12.67c0,.12.25.34.32.14A1.4,1.4,0,0,0,163.77,127.06Z"/>
          <g id="freepik--Bikini--inject-277">
            <path class="cls-10" d="M137.69,83.27c2.88,3,5.5,5.88,12.5,4.77,4.74-.75,4.81-3.63,3.09-5.28l1.48,0s3.49,1.94,7.1,4.4c4.29,2.91,8,5.28,10.1,10.15a12.25,12.25,0,0,1-2.12,13,9.35,9.35,0,0,1-.38,4.66c-2.19,4.59-24.84,9.45-39.06,2.21,0,0-2.91-6.64-2.61-11.31,0,0,6.07.07,7.47-7.2A33.88,33.88,0,0,0,134.32,84Z"/>
            <path class="cls-27" d="M137.69,83.27c2.88,3,5.5,5.88,12.5,4.77,4.74-.75,4.81-3.63,3.09-5.28l1.48,0s3.49,1.94,7.1,4.4c4.29,2.91,8,5.28,10.1,10.15a12.25,12.25,0,0,1-2.12,13,9.35,9.35,0,0,1-.38,4.66c-2.19,4.59-24.84,9.45-39.06,2.21,0,0-2.91-6.64-2.61-11.31,0,0,6.07.07,7.47-7.2A33.88,33.88,0,0,0,134.32,84Z"/>
            <path class="cls-28" d="M157.15,108.32c-2.58,3.87-7.25,4.91-11.91,4.13-3.67-.63-7.44-3.07-8.56-6,.37,3.1,1.85,6.15,8,7.45C151.56,115.34,156.09,111.66,157.15,108.32Z"/>
          </g>
        </g>
        <g id="freepik--Head--inject-277">
          <path class="cls-14" d="M165,68.57c.4-1.46,2-1.64,2.33-3.6s-.77-3.24-2.4-4.08-2-2.39-1.75-5.68-2.14-5.16-4.83-5.49c-1.33-.16-2.87,0-3.82-.92a6.87,6.87,0,0,1-.94-1.5c-1.34-2.33-3.74-3.31-6.93-3.21a11,11,0,0,0-4.15.91,11.58,11.58,0,0,0-4,2.8c-1.75-.24-5,.23-6.77,1.84A7.09,7.09,0,0,0,129,54.43c-.25,1.94-.05,3-.85,4.08-1.64,2.19-3.75,2.24-4.66,4.08-1.3,2.6,2.12,4.71.49,7.87a4.65,4.65,0,0,0,1.79,6.34,4.55,4.55,0,0,0,1,.41c1.51.53,2.77-.28,4.92.46s2.29,2.38,5,3.4c2.25.84,4.08-.84,5.91-1.1,2.45-.35,1.68.48,4.08-1.17.82-.58,1.29-1.52,2.12-2.07,2.63-1.66,3.5-.82,6.78.26.85.28,3.66,1,5.51-1.17a7.36,7.36,0,0,0,1.53-5c.58,1.75,4.66,1.62,5-1.21A1.43,1.43,0,0,1,165,68.57Z"/>
          <path class="cls-34" d="M138.9,79.38c-.08-1.63-.48-5.75-.48-5.75-.58,1.53-3.32,1.67-4.72-.18a6.22,6.22,0,0,1-.73-6.92c1.25-2,4.31-2.07,5.75.85,2,.32,2.71-2.79,1-5.59-.21-6.8,9.08-4.75,10.77-10.89a10.62,10.62,0,0,1,7.66,5.38c.75,1.49.89,2.42.8,5.48,0,1.17.82,2.55,1.1,4.12,1.27,7.21-.77,10.13-3.1,11.59-1.24.78-2.87,1.31-5.88,1.56,0,0,.09,1.35.17,2.25s.19,1.29,1.28,1.41c.37,0,.78.07.78.07s5.11,4.47-1.43,5.82c-9.75,2-13.83-3.82-14.3-5.33C139,82.91,139,82.09,138.9,79.38Z"/>
          <path class="cls-5" d="M135.26,72.68a1,1,0,1,0,.9-1.09,1,1,0,0,0-.9,1.09Z"/>
          <path class="cls-35" d="M147.89,71.21l3.64.87a1.84,1.84,0,0,1-2.15,1.47l-.07,0A2,2,0,0,1,147.89,71.21Z"/>
          <path class="cls-36" d="M148.2,72a2,2,0,0,1,2.17,1.45,1.81,1.81,0,0,1-1,.06,1.91,1.91,0,0,1-1.41-1.46Z"/>
          <path class="cls-14" d="M157.06,60.05l-2.69-1a1.38,1.38,0,0,1,1.75-.88l.07,0A1.52,1.52,0,0,1,157.06,60.05Z"/>
          <path class="cls-14" d="M144.15,61.26l2.53-1.43a1.4,1.4,0,0,0-1.87-.63l-.07,0A1.53,1.53,0,0,0,144.15,61.26Z"/>
          <path class="cls-14" d="M145.23,64.3A1.45,1.45,0,0,0,147,65c.76-.19,1.31-.79,1.13-1.45-.09-.35-.21.44-1.42.71S145.1,64,145.23,64.3Z"/>
          <path class="cls-14" d="M154,63.13a1.44,1.44,0,0,0,1.62,1c.79,0,1.43-.58,1.37-1.24,0-.35-.29.41-1.53.46S154,62.77,154,63.13Z"/>
          <path class="cls-35" d="M151.05,79c-4.59-.12-9.79-1.6-11.48-4.08a6.56,6.56,0,0,0,2.62,3.54,18.26,18.26,0,0,0,9,2Z"/>
          <polygon class="cls-35" points="156.02 68.25 152.15 70.01 150.92 62.23 156.02 68.25"/>
        </g>
        <g id="freepik--arm--inject-277-2" data-name="freepik--arm--inject-277">
          <path class="cls-35" d="M143,24.32c.39-1.58-.33-2.13-1.08-2.07.33-1.24.51-2.34-.71-2.86-.13-.05-.43.33-.8,1.22a1.92,1.92,0,0,0-.72-1.09,4.65,4.65,0,0,0,.47,1.75c-.79,0-1.45.71-.83,2.3-.87.36-.86,1.34-.25,2.47,1.67,3.07,1.75,4.34,1.75,4.34a7.37,7.37,0,0,0,0,3.17c.33,2.26-.58,4.08.21,6.32A4.2,4.2,0,0,0,143,42.33a4.44,4.44,0,0,0,.34-.85c.69-2.41-.5-5.3-.47-7.49a7,7,0,0,0-.39-3,12.24,12.24,0,0,1,1.12-4.34C144,25.49,143.91,24.55,143,24.32Z"/>
          <path class="cls-34" d="M140,44.87a6.17,6.17,0,0,0,2.87-3.43c.69-2.41-.5-5.29-.48-7.48a6.91,6.91,0,0,0-.39-3,12.49,12.49,0,0,1,1.13-4.34c.43-1.17.32-2.09-.55-2.33.39-1.59-.32-2.13-1.07-2.08.32-1.23.5-2.33-.71-2.85-.13-.05-.44.33-.8,1.22,0-.83-1-1.67-1.37-1.07a66.3,66.3,0,0,0-3.21,6.07c-1.11,2.42-1.2,3.49-1.33,7.88a8.46,8.46,0,0,1-2.17,5.73C130,41.41,118.54,48.65,110,57.42c-2.62,2.69-3.94,5.25-.8,12.31,2.47,5.54,4.9,9.32,11.14,19.89,1.1,1.86,2,3.46,3.5,6.13s1.61,7.61,4,10.12c4.87,0,12.52-6.52,8-22.15-1.95-2.77-3.59-3.42-4.55-5.2-2.91-5.34-6.34-10.13-7.58-13.4.45-.46,7.12-10,9.24-12.57S138.24,46,140,44.87Z"/>
          <path class="cls-35" d="M141.83,25.06a26.19,26.19,0,0,0-1.6,4c-.17.78-.46,2.45-.46,2.45A10.45,10.45,0,0,1,140,28.9,11.7,11.7,0,0,1,141.83,25.06Z"/>
          <path class="cls-35" d="M141.27,22.29c-.62,1.31-1.85,3.13-2.15,4.11a26.75,26.75,0,0,0-.83,4.53,11.38,11.38,0,0,1,.55-4.67C139.37,24.71,140.19,24,141.27,22.29Z"/>
          <path class="cls-35" d="M140,20.57c-.9,1.78-2.33,4.26-2.63,5a40,40,0,0,0-.82,4.45,20.72,20.72,0,0,1,.26-3.93C137.1,24.74,140,20.57,140,20.57Z"/>
          <path class="cls-35" d="M123.61,65.14c-1-2.69-3.92-5.25-5.39-5.68,2-.14,5.13,1.75,6.41,4.29Z"/>
        </g>
      </g>
    </g>
  </g>
  <g id="freepik--Dumbbell--inject-16--inject-240">
    <g id="freepik--dumbbell--inject-16--inject-240-2" data-name="freepik--dumbbell--inject-16--inject-240">
      <path class="cls-15" d="M252.11,235.09h0c-1.36-4.43-6.88-8.09-12.06-6.65h0a10,10,0,0,0-2.33,1c-5,2.89-9.08,9.94-9.08,15.73a9.11,9.11,0,0,0,.41,2.89h0c1.35,4.43,6.88,8.08,12.06,6.62h0a9.89,9.89,0,0,0,2.32-1c5-2.89,9.09-9.94,9.09-15.74A9.5,9.5,0,0,0,252.11,235.09Z"/>
      <path class="cls-14" d="M243.43,253.68c5-2.89,9.08-10,9.08-15.74s-4.07-8.15-9.08-5.26-9.09,9.94-9.09,15.73S238.41,256.57,243.43,253.68Z"/>
      <path class="cls-15" d="M243.43,239.11c1.93-1.11,3.49-.21,3.49,2a7.75,7.75,0,0,1-3.49,6.05c-1.93,1.11-3.49.21-3.49-2A7.71,7.71,0,0,1,243.43,239.11Z"/>
      <path class="cls-14" d="M244.62,242.46a2.67,2.67,0,0,1-1.19,2.07.87.87,0,0,1-.81.11l-.08,0a.84.84,0,0,1-.31-.72,2.65,2.65,0,0,1,1.2-2.07.85.85,0,0,1,.8-.11l.08.05A.84.84,0,0,1,244.62,242.46Z"/>
      <path class="cls-3" d="M263.81,253.54a2.64,2.64,0,0,1-1.19,2.07,1,1,0,0,1-.52.16.8.8,0,0,1-.4-.11l-19.08-11-.08,0a.84.84,0,0,1-.31-.72,2.65,2.65,0,0,1,1.2-2.07.85.85,0,0,1,.8-.11l.08.05,19.08,11A.85.85,0,0,1,263.81,253.54Z"/>
      <path class="cls-15" d="M282.53,252.65h0c-1.35-4.43-6.88-8.09-12.06-6.64h0a10,10,0,0,0-2.33,1c-5,2.89-9.08,9.94-9.08,15.74a9.43,9.43,0,0,0,.4,2.89h0c1.36,4.43,6.89,8.07,12.06,6.62h0a9.39,9.39,0,0,0,2.33-1c5-2.89,9.08-9.94,9.08-15.73A9.37,9.37,0,0,0,282.53,252.65Z"/>
      <path class="cls-14" d="M273.86,271.24c5-2.89,9.08-9.95,9.08-15.74s-4.07-8.14-9.08-5.25-9.09,9.94-9.09,15.74S268.83,274.13,273.86,271.24Z"/>
      <path class="cls-15" d="M273.86,256.68c1.93-1.11,3.49-.22,3.49,2a7.75,7.75,0,0,1-3.49,6.05c-1.93,1.11-3.5.21-3.5-2A7.7,7.7,0,0,1,273.86,256.68Z"/>
      <path class="cls-14" d="M275.08,260a2.65,2.65,0,0,1-1.2,2.07.85.85,0,0,1-.8.11l-.08-.05a.84.84,0,0,1-.31-.72,2.64,2.64,0,0,1,1.19-2.08.88.88,0,0,1,.8-.1l.09.05A.85.85,0,0,1,275.08,260Z"/>
      <path class="cls-3" d="M278,261.7a2.65,2.65,0,0,1-1.19,2.06,1,1,0,0,1-.52.16.77.77,0,0,1-.4-.11l-2.78-1.61-.08-.05a.84.84,0,0,1-.31-.72,2.64,2.64,0,0,1,1.19-2.08.88.88,0,0,1,.8-.1l.09.05,2.78,1.59A.88.88,0,0,1,278,261.7Z"/>
      <path class="cls-6" d="M278,261.68a2.67,2.67,0,0,1-1.19,2.08.87.87,0,0,1-.81.1l-.08-.05a.83.83,0,0,1-.31-.72,2.62,2.62,0,0,1,1.2-2.07.85.85,0,0,1,.8-.11l.08,0A.88.88,0,0,1,278,261.68Z"/>
    </g>
  </g>
</svg>
