<svg id="Layer_1" data-name="Layer 1" xmlns="http://www.w3.org/2000/svg" width="300" height="300" viewBox="0 0 300 300">
  <defs>
    <style>
      .cls-1 {
        fill: #dad5ed;
      }

      .cls-2 {
        fill: #472ea6;
      }

      .cls-3, .cls-8 {
        opacity: 0.5;
      }

      .cls-26, .cls-4, .cls-7, .cls-8 {
        fill: #fff;
      }

      .cls-5 {
        opacity: 0.65;
      }

      .cls-6 {
        fill: #6ed1c3;
      }

      .cls-13, .cls-19, .cls-25, .cls-26, .cls-7, .cls-8, .cls-9 {
        isolation: isolate;
      }

      .cls-7 {
        opacity: 0.3;
      }

      .cls-12, .cls-13, .cls-19, .cls-25, .cls-9 {
        fill: #6c58b8;
      }

      .cls-9 {
        opacity: 0.2;
      }

      .cls-10 {
        fill: #455a64;
      }

      .cls-11 {
        fill: #12263f;
      }

      .cls-13 {
        opacity: 0.15;
      }

      .cls-14 {
        fill: #b16668;
      }

      .cls-15 {
        fill: #9a4a4d;
      }

      .cls-16 {
        fill: #fafafa;
      }

      .cls-17 {
        fill: #f28f8f;
      }

      .cls-18 {
        fill: #091320;
      }

      .cls-19, .cls-26 {
        opacity: 0.25;
      }

      .cls-20 {
        fill: #80ffee;
      }

      .cls-21 {
        fill: #ffbda7;
      }

      .cls-22 {
        fill: #f0997a;
      }

      .cls-23 {
        fill: #f25585;
      }

      .cls-24 {
        fill: #ef2a66;
      }

      .cls-25 {
        opacity: 0.35;
      }

      .cls-27 {
        fill: #f57fa3;
      }

      .cls-28 {
        fill: none;
      }
    </style>
  </defs>
  <g id="freepik--Floor--inject-112">
    <ellipse id="freepik--floor--inject-112-2" data-name="freepik--floor--inject-112" class="cls-1" cx="149.47" cy="209.95" rx="145.45" ry="83.98"/>
  </g>
  <g id="freepik--Plants--inject-112">
    <g id="freepik--plants--inject-112-2" data-name="freepik--plants--inject-112">
      <path class="cls-2" d="M25.54,210.05A57.28,57.28,0,0,0,23.6,183.4c-2.55-7.57-7.41-11.16-10.42-11.56-3.38-.44-6.87,2.68-4,7.71,2.75,4.77,8.22,6.79,11.18,19.14a53.43,53.43,0,0,1,1.55,11.6A1.07,1.07,0,0,0,23,211.38a1.06,1.06,0,0,0,.55-.15Z"/>
      <g class="cls-3">
        <path class="cls-4" d="M25.54,210.05A57.28,57.28,0,0,0,23.6,183.4c-2.55-7.57-7.41-11.16-10.42-11.56-3.38-.44-6.87,2.68-4,7.71,2.75,4.77,8.22,6.79,11.18,19.14a53.43,53.43,0,0,1,1.55,11.6A1.07,1.07,0,0,0,23,211.38a1.06,1.06,0,0,0,.55-.15Z"/>
      </g>
      <path class="cls-4" d="M23.53,207.13a.23.23,0,0,1-.18-.25c1.79-15-5.17-27.71-10.68-32a.21.21,0,0,1,0-.29h0a.22.22,0,0,1,.3,0c5.59,4.32,12.65,17.2,10.84,32.36A.23.23,0,0,1,23.53,207.13Z"/>
      <path class="cls-2" d="M23.21,211.41a1.06,1.06,0,0,1-1.46-.36,1.2,1.2,0,0,1-.13-.31c-.72-3-2.56-6.13-6-9.44-4-3.85-9.58-7.4-8.7-10.73s5.34-2.56,8.44-.68,10,9,8.36,21.19Z"/>
      <g class="cls-5">
        <path class="cls-4" d="M23.21,211.41a1.06,1.06,0,0,1-1.46-.36,1.2,1.2,0,0,1-.13-.31c-.72-3-2.56-6.13-6-9.44-4-3.85-9.58-7.4-8.7-10.73s5.34-2.56,8.44-.68,10,9,8.36,21.19Z"/>
      </g>
      <path class="cls-4" d="M22.92,211.65a.2.2,0,0,1-.19-.2c.38-9.18-7.22-19.44-12.66-21.36a.2.2,0,0,1-.13-.26h0a.21.21,0,0,1,.27-.12c5.42,1.44,13.74,12.54,13,21.75a.21.21,0,0,1-.2.22Z"/>
    </g>
    <g id="freepik--plants--inject-112-3" data-name="freepik--plants--inject-112">
      <path class="cls-2" d="M276.49,211.7a57.28,57.28,0,0,1,1.94-26.65c2.56-7.58,7.41-11.16,10.42-11.56,3.38-.45,6.87,2.68,4,7.71-2.75,4.77-8.22,6.79-11.18,19.13a52.9,52.9,0,0,0-1.54,11.61A1.08,1.08,0,0,1,279,213a1,1,0,0,1-.53-.15Z"/>
      <g class="cls-3">
        <path class="cls-4" d="M276.49,211.7a57.28,57.28,0,0,1,1.94-26.65c2.56-7.58,7.41-11.16,10.42-11.56,3.38-.45,6.87,2.68,4,7.71-2.75,4.77-8.22,6.79-11.18,19.13a52.9,52.9,0,0,0-1.54,11.61A1.08,1.08,0,0,1,279,213a1,1,0,0,1-.53-.15Z"/>
      </g>
      <path class="cls-4" d="M278.5,208.75a.21.21,0,0,0,.19-.23h0c-1.8-15,5.16-27.72,10.68-32a.21.21,0,0,0,0-.29.2.2,0,0,0-.29,0c-5.6,4.32-12.66,17.19-10.84,32.35a.19.19,0,0,0,.21.19Z"/>
      <path class="cls-2" d="M278.82,213a1.07,1.07,0,0,0,1.59-.67c.72-3,2.56-6.13,6-9.44,4-3.85,9.58-7.4,8.69-10.73s-5.34-2.56-8.43-.68-10,9-8.37,21.22Z"/>
      <g class="cls-5">
        <path class="cls-4" d="M278.82,213a1.07,1.07,0,0,0,1.59-.67c.72-3,2.56-6.13,6-9.44,4-3.85,9.58-7.4,8.69-10.73s-5.34-2.56-8.43-.68-10,9-8.37,21.22Z"/>
      </g>
      <path class="cls-4" d="M279.12,213.28a.2.2,0,0,0,.18-.2c-.37-9.18,7.21-19.45,12.67-21.38a.21.21,0,0,0,.13-.27h0a.21.21,0,0,0-.27-.12c-5.42,1.44-13.74,12.54-13,21.75a.23.23,0,0,0,.2.22Z"/>
    </g>
  </g>
  <g id="freepik--Shadows--inject-112">
    <ellipse id="freepik--Shadow--inject-112" class="cls-6" cx="43.82" cy="223.63" rx="31.08" ry="17.95"/>
    <ellipse id="freepik--shadow--inject-112-2" data-name="freepik--shadow--inject-112" class="cls-6" cx="254.76" cy="223.63" rx="31.08" ry="17.95"/>
    <polygon id="freepik--shadow--inject-112-3" data-name="freepik--shadow--inject-112" class="cls-6" points="87.44 268.46 38.04 239.94 87.44 211.42 136.85 239.94 87.44 268.46"/>
    <polygon id="freepik--shadow--inject-112-4" data-name="freepik--shadow--inject-112" class="cls-6" points="212.83 268.46 163.43 239.94 212.83 211.42 262.23 239.94 212.83 268.46"/>
  </g>
  <g id="freepik--Flag--inject-112">
    <g id="freepik--flag--inject-112-2" data-name="freepik--flag--inject-112">
      <path class="cls-2" d="M159.25,197c-5.4-3.09-14.15-3.09-19.56,0-2.69,1.56-4,3.6-4,5.64v2.12c0,2,1.34,4.08,4,5.64,5.41,3.12,14.16,3.12,19.56,0,2.7-1.56,4.05-3.6,4-5.64v-2.12C163.3,200.59,162,198.54,159.25,197Z"/>
      <path class="cls-7" d="M159.25,197c-5.4-3.09-14.15-3.09-19.56,0-2.69,1.56-4,3.6-4,5.64v2.12c0,2,1.34,4.08,4,5.64,5.41,3.12,14.16,3.12,19.56,0,2.7-1.56,4.05-3.6,4-5.64v-2.12C163.3,200.59,162,198.54,159.25,197Z"/>
      <path class="cls-2" d="M139.69,197c-5.4,3.11-5.4,8.17,0,11.29s14.16,3.11,19.56,0,5.4-8.18,0-11.29S145.1,193.86,139.69,197Z"/>
      <path class="cls-8" d="M139.69,197c-5.4,3.11-5.4,8.17,0,11.29s14.16,3.11,19.56,0,5.4-8.18,0-11.29S145.1,193.86,139.69,197Z"/>
      <path class="cls-2" d="M158.26,195c-4.85-2.8-12.72-2.8-17.57,0-2.43,1.4-3.63,3.24-3.63,5.08v1.39c0,1.85,1.2,3.66,3.63,5.07,4.85,2.8,12.72,2.8,17.57,0,2.42-1.41,3.63-3.24,3.62-5.07V200C161.89,198.2,160.68,196.36,158.26,195Z"/>
      <path class="cls-7" d="M158.26,195c-4.85-2.8-12.72-2.8-17.57,0-2.43,1.4-3.63,3.24-3.63,5.08v1.39c0,1.85,1.2,3.66,3.63,5.07,4.85,2.8,12.72,2.8,17.57,0,2.42-1.41,3.63-3.24,3.62-5.07V200C161.89,198.2,160.68,196.36,158.26,195Z"/>
      <ellipse class="cls-2" cx="149.47" cy="200.04" rx="12.42" ry="7.17"/>
      <ellipse class="cls-8" cx="149.47" cy="200.04" rx="12.42" ry="7.17"/>
      <path class="cls-2" d="M150.71,25.05a1.24,1.24,0,0,0-1.24-1.24h0a1.24,1.24,0,0,0-1.23,1.24v175h0a.61.61,0,0,0,.36.5,1.91,1.91,0,0,0,1.71,0,.61.61,0,0,0,.36-.5h0Z"/>
      <path class="cls-9" d="M150.71,25.05a1.24,1.24,0,0,0-1.24-1.24h0a1.24,1.24,0,0,0-1.23,1.24v175h0a.61.61,0,0,0,.36.5,1.91,1.91,0,0,0,1.71,0,.61.61,0,0,0,.36-.5h0Z"/>
      <path class="cls-9" d="M149.47,23.83h0a1.23,1.23,0,0,0-1.23,1.23v1.43a3.21,3.21,0,0,0,2.47,0V25.05A1.24,1.24,0,0,0,149.47,23.83Z"/>
      <path class="cls-2" d="M152.86,22.6a3.39,3.39,0,1,1-3.39-3.38,3.38,3.38,0,0,1,3.39,3.38Z"/>
      <path class="cls-7" d="M152.86,22.6a3.39,3.39,0,1,1-3.39-3.38,3.38,3.38,0,0,1,3.39,3.38Z"/>
      <path class="cls-10" d="M138.54,137.11c-.8,8.9,9.75,21.31,25.19,20.32l-5.84-50.62-16.3,2.2Z"/>
      <path class="cls-11" d="M139.07,134.53a12.82,12.82,0,0,0-.53,2.22l5.25-47.68c8.93,2.77,16.1,10,17.41,20.45C162.61,120.76,143,122.41,139.07,134.53Z"/>
      <path class="cls-9" d="M151,19.59a3.25,3.25,0,0,0-3,0,2.14,2.14,0,0,0,3,0Z"/>
      <path class="cls-2" d="M152.23,16.4c0,1.52-1.23,3.34-2.76,3.34s-2.76-1.82-2.76-3.34,2.76-8.28,2.76-8.28S152.23,14.88,152.23,16.4Z"/>
      <path class="cls-8" d="M152.23,16.4c0,1.52-1.23,3.34-2.76,3.34s-2.76-1.82-2.76-3.34,2.76-8.28,2.76-8.28S152.23,14.88,152.23,16.4Z"/>
      <path class="cls-10" d="M150.71,29.38,135.4,90.94s12.39,3.49,17.1,6.62c7.76,5.16,8.72,12.1,8.72,12.1Z"/>
    </g>
  </g>
  <g id="freepik--character-2--inject-112">
    <g id="freepik--Chartacter--inject-112">
      <g id="freepik--Bottom--inject-112">
        <polygon class="cls-12" points="248.6 220.44 245.56 219.31 246.54 217.26 248.42 218.98 248.6 220.44"/>
        <path class="cls-11" d="M251.7,215s.13,2,.16,2.6-2.6,2.56-3.26,2.89l-.18-1.46a11.33,11.33,0,0,0-1.51,2.37,11.35,11.35,0,0,1-2.54,3.7c-2.08,1.71-5.32,2.59-8.65,2.73s-5.21-.67-6.17-1.38a2.2,2.2,0,0,1-1-2.39C228.75,223.17,251.7,215,251.7,215Z"/>
        <path class="cls-10" d="M242.81,208.27l0-1.15c-.62,0-.68,1.65-1.56,3.09a29.82,29.82,0,0,1-4.63,6c-3.34,3.08-6.33,5-7.81,6.4-2,1.85,1.53,4.76,6.94,4.43,2.68-.16,7.43-1.54,8.77-3.13s2.13-4.07,3.2-5.23,3.36-2.32,4-3.7c.37-.77.16-2.56-.07-4.08s-.26-3.54-1-3.37l-.05.73c-.32.61-1.06,1.62-3.22,2C246.24,210.42,243,210.53,242.81,208.27Z"/>
        <path class="cls-13" d="M245.58,210.3A3,3,0,0,1,243,209v0a2.64,2.64,0,0,1-.69,2.21c-1,1.13-7,9.13-7,9.13s5.64-6.6,6.72-7.84c1.61-1.86,2.12-2.06,3.59-2.12Z"/>
        <path class="cls-11" d="M228.77,222.61c1.23-1.17,3.58-2.74,6.28-5.05-.57.92-1.4,1.63-1.48,1.93-.21.75,2,1.78,3.37,2.13s2.88-1.59,4.86-3.36,3.76.28,4.45,2.73a16.26,16.26,0,0,1-1.77,2.91c-1.34,1.6-6.09,3-8.77,3.13C230.3,227.37,226.77,224.46,228.77,222.61Z"/>
        <path class="cls-13" d="M244.24,212.42a.33.33,0,0,0,.35.29h0a.34.34,0,0,0,.29-.37.34.34,0,0,0-.37-.29.33.33,0,0,0-.29.35Z"/>
        <path class="cls-13" d="M242.66,214.17a.31.31,0,0,0,.34.29h0a.33.33,0,0,0,.29-.37.33.33,0,0,0-.36-.29.34.34,0,0,0-.3.35Z"/>
        <path class="cls-13" d="M241.07,216a.33.33,0,0,0,.36.29.32.32,0,0,0,.29-.36.31.31,0,0,0-.36-.29A.33.33,0,0,0,241.07,216Z"/>
        <path class="cls-13" d="M239.48,217.73a.34.34,0,0,0,.37.29.32.32,0,0,0,.28-.37.33.33,0,0,0-.37-.28A.35.35,0,0,0,239.48,217.73Z"/>
        <path class="cls-13" d="M237.9,219.5a.34.34,0,0,0,.39.27.31.31,0,1,0-.39-.27Z"/>
        <path class="cls-11" d="M244.58,212.51a.12.12,0,0,0,.08,0,.12.12,0,0,0,0-.18h0a5.41,5.41,0,0,0-3.74-1.47h0a.15.15,0,0,0-.13.14.13.13,0,0,0,.14.12h0a5.29,5.29,0,0,1,3.55,1.39A.13.13,0,0,0,244.58,212.51Z"/>
        <path class="cls-11" d="M243,214.28a.13.13,0,0,0,.11-.15.11.11,0,0,0,0-.08,5.44,5.44,0,0,0-3.75-1.46h0a.14.14,0,0,0-.12.14.12.12,0,0,0,.13.12h0a5.27,5.27,0,0,1,3.54,1.39A.15.15,0,0,0,243,214.28Z"/>
        <path class="cls-11" d="M241.41,216.05a.12.12,0,0,0,.09,0,.14.14,0,0,0,0-.19,5.48,5.48,0,0,0-3.75-1.45h0a.12.12,0,0,0-.11.14h0a.12.12,0,0,0,.13.12h0a5.33,5.33,0,0,1,3.54,1.38A.1.1,0,0,0,241.41,216.05Z"/>
        <path class="cls-11" d="M239.82,217.82a.12.12,0,0,0,.09,0,.14.14,0,0,0,0-.19,5.42,5.42,0,0,0-3.74-1.46h0a.14.14,0,0,0-.11.16.16.16,0,0,0,.11.1,5.29,5.29,0,0,1,3.54,1.39A.11.11,0,0,0,239.82,217.82Z"/>
        <path class="cls-11" d="M238.24,219.6a.12.12,0,0,0,.08,0,.14.14,0,0,0,0-.19,5.43,5.43,0,0,0-3.74-1.46h0a.14.14,0,0,0-.17.1.15.15,0,0,0,.11.17h.06a5.28,5.28,0,0,1,3.54,1.38A.13.13,0,0,0,238.24,219.6Z"/>
        <path class="cls-11" d="M266.61,227.49a11.41,11.41,0,0,0,1.16,5.75A3.72,3.72,0,0,0,272,235c1.76-.36,4-1.41,4.58-3.56a14,14,0,0,0,.29-6Z"/>
        <path class="cls-10" d="M275,209.42c.71.09.4,3.27.62,6.69a31.33,31.33,0,0,0,.39,4.52,22.8,22.8,0,0,1,.79,4c.29,3.42,0,4.94-1.23,6.94s-5.62,3.82-7.56.77c-1.58-2.46-1.52-5.15-1.23-8.55s-.16-5.93-.17-8.64c0-2.55-.73-5.23.33-5.22,0,.38.05.85.09,1.23s0,1.68.42,1.71a5.21,5.21,0,0,0,.05-1,1.11,1.11,0,0,1,.24-.8,1.23,1.23,0,0,1,.79-.32c.71-.1,2.37-.3,3.09-.33.36,0,1.4-.14,1.75-.11a2.65,2.65,0,0,1,.89.16.63.63,0,0,1,.36.37.86.86,0,0,1,0,.39,2.84,2.84,0,0,0,.06.71c0,.09.08.22.19.2s.11-.12.12-.2v-1.94C275,209.84,275,209.64,275,209.42Z"/>
        <path class="cls-13" d="M274.18,225.37a.24.24,0,0,1-.24.26h0a.24.24,0,0,1-.25-.22h0a.25.25,0,0,1,.24-.25h0a.24.24,0,0,1,.26.22Z"/>
        <path class="cls-13" d="M274.06,223a.25.25,0,0,1-.24.25.24.24,0,0,1-.26-.23.25.25,0,1,1,.5,0Z"/>
        <path class="cls-13" d="M273.94,220.79a.25.25,0,1,1-.26-.24.26.26,0,0,1,.26.24Z"/>
        <path class="cls-13" d="M273.82,218.59a.25.25,0,1,1-.25-.22.23.23,0,0,1,.25.24h0Z"/>
        <path class="cls-13" d="M269.18,218.66a.23.23,0,0,1-.23.26.25.25,0,1,1,0-.49.24.24,0,0,1,.25.23Z"/>
        <path class="cls-13" d="M269.3,220.87a.24.24,0,0,1-.23.26h0a.24.24,0,0,1-.26-.22h0a.24.24,0,0,1,.23-.25h0a.23.23,0,0,1,.26.22Z"/>
        <path class="cls-13" d="M269.42,223.11a.26.26,0,0,1-.24.26.25.25,0,0,1,0-.5A.25.25,0,0,1,269.42,223.11Z"/>
        <path class="cls-13" d="M269.54,225.47a.25.25,0,0,1-.23.26h0a.25.25,0,0,1-.26-.23h0a.25.25,0,0,1,.23-.26h0a.24.24,0,0,1,.26.22Z"/>
        <path class="cls-11" d="M276.8,224.66a20.15,20.15,0,0,0-.66-3.53,1.43,1.43,0,0,0-.3.35,3.16,3.16,0,0,0-.36,1c-.12.44-.23,1-.33,1.34a4.7,4.7,0,0,1-1.42,2.81,3,3,0,0,1-2,.47,8.21,8.21,0,0,1-1.85-.15c-.78-.24-.93-1-1.14-1.66-.25-.87-.51-1.73-.79-2.59a2.51,2.51,0,0,0-.62-1.17,2.08,2.08,0,0,0-.43-.19c0,.82,0,1.58-.12,2.47-.31,3.4-.37,6.07,1.24,8.55,1.94,3.05,6.27,1.24,7.56-.77S277.09,228.08,276.8,224.66Z"/>
        <polygon class="cls-13" points="271.56 226.68 270.45 210.18 271.36 210.21 271.56 226.68"/>
        <path class="cls-11" d="M273.94,225.52h0a7.63,7.63,0,0,0-4.56.06.12.12,0,0,1-.16-.05h0a.11.11,0,0,1,.07-.16,7.66,7.66,0,0,1,4.71-.08.13.13,0,0,1,.1.15A.16.16,0,0,1,273.94,225.52Z"/>
        <path class="cls-11" d="M273.81,223.15h-.06a6.07,6.07,0,0,0-4.53.08.13.13,0,0,1-.17-.07.12.12,0,0,1,.06-.15h0a6.21,6.21,0,0,1,4.75-.07.12.12,0,0,1-.06.23Z"/>
        <path class="cls-11" d="M273.7,220.92h-.06a6,6,0,0,0-4.54.08.12.12,0,0,1-.16-.06.13.13,0,0,1,.05-.16h0a6.23,6.23,0,0,1,4.74-.07.13.13,0,0,1,.06.17.12.12,0,0,1-.11.07Z"/>
        <path class="cls-11" d="M273.56,218.73h-.06a5.93,5.93,0,0,0-4.53.08.13.13,0,0,1-.18,0,.13.13,0,0,1,0-.18l.05,0a6.26,6.26,0,0,1,4.75-.07.12.12,0,0,1,.05.16h0A.13.13,0,0,1,273.56,218.73Z"/>
        <path class="cls-11" d="M271.82,116.19c.77,2.43,1.59,11.4,1.93,15.15,1.45,15.44,1.55,37.26,1.55,37.26a62,62,0,0,1,1.4,10.86c.47,8.43-.48,36.6-.48,36.6s-6.45,2.72-10.23.28c0,0-5.44-33.64-6.64-42-1.06-7.28-2.65-18.86-2.65-18.86l-2,18.32s.44,5.79.29,10c-.16,4.94-3.16,26.61-3.16,26.61s-6.28,2.25-10.79-.57c0,0-1.12-33.57-1.3-39.51-.37-11.65,0-37.62.34-50.14Z"/>
        <path class="cls-12" d="M256.7,155.52,255,142.6s-5.23-.46-8.21-3.09c0,0,.91,3.09,6.69,4.69l1.37,10.09L255,171Z"/>
      </g>
      <g id="freepik--Top--inject-112">
        <path class="cls-14" d="M226.59,101.73c-4.71-3.38-6.07-4.32-6.61-5.56s-.38-2.5-.78-4.55a14.26,14.26,0,0,1,0-5.29c.28-1-1-.92-2,.36s-.62,2-.9,3.29-.82,1.1-1.59.34-4.39-4.63-5.66-5.73-2.18-.84-2.52-.27c-.19.33.48,1,2.08,2.77s3.27,3.23,3.15,3.34a37.17,37.17,0,0,1-3.6-3.08c-1.7-1.44-2.69-2.15-3.64-2.06s-1.14.93-.84,1.17a46.23,46.23,0,0,1,4,3.38,22.11,22.11,0,0,1,2.1,2.12c-.08.21-1.45-.91-3.34-2-1.73-1-2.72-1.43-3.71-.9-.2.11-.48.41-.4.61.16.42,1.58,1.12,2.42,1.66,1.24.8,1.35.82,2.25,1.47.62.44,1.41,1,1.35,1.15s-3.12-1.36-4.2-1.34-1.59.53-.78,1.11,5.26,3.26,6.93,4.42,3.51,2.72,5.09,4,8.51,6.39,8.51,6.39Z"/>
        <path class="cls-15" d="M215.41,92.2c-.89,1.5.11,3.88,1.23,5.2C214.91,96.16,213.84,94.27,215.41,92.2Z"/>
        <path class="cls-11" d="M247.39,100.08l.86-15.62c-4.19,1-5.9,2.19-8.59,6.72-1.51,2.52-4.94,8-8.11,13.06l-9.33-6.68s-4,3.5-4.79,7.09c0,0,11,9.71,13.47,11.4,2.22,1.55,3.89,2.47,7-1.08S246.57,101.5,247.39,100.08Z"/>
        <path class="cls-12" d="M231.58,104.24c2,1.36,3.92,3.92,4.23,6a8.36,8.36,0,0,0-3.62-6.9Z"/>
        <path class="cls-16" d="M253.44,82.93c1.45.12,9.68-.23,11.88.43,1.77.54,3.9,1,5.44,1.64s1.43,1.75,1.52,4c.29,7.88-.46,24.8-.46,24.8l.77,10.81c-3.75,3.83-23.25,7-32.48,1,0,0,.36-20.19,1.31-30,.77-8.08,4.37-10.22,7.16-11.11C252.21,83.36,253.44,82.93,253.44,82.93Z"/>
        <path class="cls-11" d="M266.18,66.34c-1.13,5.28-6.9,8.51-12.89,7.22s-9.93-6.6-8.79-11.88,6.9-8.5,12.89-7.21S267.31,61.07,266.18,66.34Z"/>
        <path class="cls-11" d="M262.49,59.46a4.28,4.28,0,0,1,3.09,1.8c2.5,1.32,2.63,4.86,1.26,8.76a14.73,14.73,0,0,1-2.93,5.26c-1,1.55-1.47,2.22-1.47,2.22l-.18-3.35,0-3.08a10.48,10.48,0,0,1-2.52-4.61,9.79,9.79,0,0,1,.2-4.78A2.75,2.75,0,0,1,262.49,59.46Z"/>
        <path class="cls-14" d="M262.15,70.59c.71.12,1.1-1.11,1.7-1.76a2.21,2.21,0,0,1,3.12-.06,2.35,2.35,0,0,1,.51.77,3.8,3.8,0,0,1-1.9,5.09,3,3,0,0,1-3.09-.56l-.16,8.42v.13c-1.85,2.47-4.87,1.29-8.71,4.54a8.77,8.77,0,0,1-.18-3l-.05-3a11.61,11.61,0,0,1-4.21-.28,6.17,6.17,0,0,1-3.88-4c-.86-2.31-1.1-8.28-.34-12.53.62-3.34,1.46-4.11,3.94-4.66a19.4,19.4,0,0,1,9.94.69c1.1.42,1.1.79.86,1.76C258.54,67.24,261.46,70.47,262.15,70.59Z"/>
        <path class="cls-15" d="M252.82,74.51c1.36-.55,2.74.74,2,1.24-.32.21-.93,0-1.4.24s-.88.79-1.36.68S251.46,75.06,252.82,74.51Z"/>
        <path class="cls-17" d="M252.74,76.43a1.64,1.64,0,0,1,1.63-1.62,2.57,2.57,0,0,1,.4.06c.3.3.38.65.06.86s-.93,0-1.4.24A3.61,3.61,0,0,0,252.74,76.43Z"/>
        <path class="cls-15" d="M253.36,81.14a17,17,0,0,0,5.32-1.76,6.23,6.23,0,0,0,2.51-2.95,5.44,5.44,0,0,1-1.08,3c-1.14,1.46-6.73,3-6.73,3Z"/>
        <path class="cls-18" d="M254.17,68.78a.9.9,0,1,0,1.79-.06.89.89,0,0,0-.92-.86A.91.91,0,0,0,254.17,68.78Z"/>
        <path class="cls-18" d="M254.42,65.66l1.94,1a1.13,1.13,0,0,0-.47-1.51,1.07,1.07,0,0,0-1.44.45Z"/>
        <path class="cls-18" d="M248.31,64.55l-2.08.73a1,1,0,0,0,1.31.71h.05A1.16,1.16,0,0,0,248.31,64.55Z"/>
        <path class="cls-18" d="M246.4,68.32a.9.9,0,0,0,1.8-.11.9.9,0,0,0-1.8.1Z"/>
        <path class="cls-15" d="M251.76,67l-.89,6.34-3.24-1.1A13.36,13.36,0,0,1,251.76,67Z"/>
        <path class="cls-2" d="M252,88.65a5.15,5.15,0,0,1-.61-2.37l1.23-.94.66,2Z"/>
        <path class="cls-19" d="M252,88.65a5.15,5.15,0,0,1-.61-2.37l1.23-.94.66,2Z"/>
        <polygon class="cls-2" points="254.31 87.46 257.39 85.19 259.88 87.11 255.09 89.62 254.31 87.46"/>
        <polygon class="cls-19" points="254.31 87.46 257.39 85.19 259.88 87.11 255.09 89.62 254.31 87.46"/>
        <path class="cls-2" d="M254.09,91.08c-.17,2.28.21,14.73.81,22.31.14,1.85-2.27,5.84-2.92,5.81s-2.09-3.48-2.42-5.55c-.13-5,1.85-20,2.93-22.75Z"/>
        <path class="cls-13" d="M252.41,91.14c0-.08.06-.15.08-.22l1.6.16,0,.66A2.67,2.67,0,0,1,252.41,91.14Z"/>
        <path class="cls-2" d="M254.31,87.46a4.57,4.57,0,0,0-1.05-.12,3.37,3.37,0,0,0-1.34,1.28,5.74,5.74,0,0,0,.57,2.3,2,2,0,0,0,1.6.16,3.31,3.31,0,0,0,1.15-1.54A3,3,0,0,0,254.31,87.46Z"/>
        <path class="cls-20" d="M262.38,79.59v.79c-.12.61-1.41,2-4.52,3.42a9.81,9.81,0,0,0-4.26,3.38s1.24-1,2.2,0c1.39,1.37,2,2.56,2.71,2.53A11.94,11.94,0,0,0,264,86a11.59,11.59,0,0,0,1.45-2.68C263.29,82.06,263.22,79.59,262.38,79.59Z"/>
        <path class="cls-20" d="M253.58,87.16c-1.13-.78-2.47,1.44-2.77,1s.87-5.17,2.55-6.31Z"/>
        <path class="cls-11" d="M263.6,81.28c-.16,2.74-12.07,28.49-12.07,28.49s-3.81-14.66.76-26.67a20.43,20.43,0,0,0-4,1.36c-2.82,1.18-6.55,3.21-7.57,11s-1.24,39.28-1.24,39.28a44.5,44.5,0,0,0,29.92,1.85l.4-5.19,1.2,4.53a8.9,8.9,0,0,0,3.26-1.43c-.62-7.41-1-21.41-1-26.2-.06-5.36.07-15.89-.06-19.22s-.33-3.47-2.69-4.38S265.65,83.33,263.6,81.28Z"/>
        <path class="cls-11" d="M253,82.22a10.09,10.09,0,0,1-1.85,1.16A61.63,61.63,0,0,0,246.8,92c-1.17,3.38-1.2,4,1.76,4.1-1.74.9-2.18.86-.54,6.37a42.37,42.37,0,0,0,3.56,8.72l.1-1.24a87.11,87.11,0,0,1-1.41-13.74C250.35,86.94,253,82.22,253,82.22Z"/>
        <path class="cls-11" d="M263.33,80.77a11,11,0,0,0,3.8,2.71c-.61,3.48-1.75,9-2.92,11.39s-2.73,1.85-4.59,1.61c.95,2.2,2.17,2.42-.76,5.87-4.13,4.86-7.92,8-8.84,13.12.13-5.41,2.46-9.42,3.66-13s3.7-8,6.07-12.83A65.25,65.25,0,0,0,263.33,80.77Z"/>
        <path class="cls-11" d="M270.47,84.65c5.28.77,7.83,2.33,9.35,6.09s3.95,13,5.27,18.52c1.14,4.77,1.62,9.07.44,11.11l-10.08-4.32-4.69-15S266.93,89.46,270.47,84.65Z"/>
        <path class="cls-12" d="M274.58,108.73c.85,1.19,1.85,1.67,4,2.69s4.32,1.86,5.51,4c-.34-2-1.43-3-3.92-4.44s-6.13-3.12-6.13-3.12Z"/>
        <path class="cls-11" d="M274.58,108.73c.85,1.19,1.85,1.67,4,2.69s4.32,1.86,5.51,4c1.05,1.93,2.19,3.53,1.47,4.94-.49,1-3.3,1.54-6,1.34s-4.43-2.41-7.1-4.32c-2.27-1.65-3.47-2.7-3.47-2.7Z"/>
        <path class="cls-14" d="M271,110.53c1-.88,1.24-1.85,2.67-2.54s2.31-.62,3.84-1.28,2.75-1,3.84-.55.89,1.06,0,1.55-2.35,1.08-3.4,1.74-2,1-2.13,2.29a57.93,57.93,0,0,0,.07,6,28.5,28.5,0,0,1,.29,4.11c-.18.21-1.1.27-1.59-1a38.73,38.73,0,0,1-.94-5.6s-.62,3-.89,5-.47,3.63-.55,4.07-1.54,0-1.68-1.57a48.22,48.22,0,0,1,.46-6.17l-2.22,3.35c-.87,1.31-1.95,3.12-2.3,3.55s-1.23-.43-.93-1.66a25.43,25.43,0,0,1,2.08-4.16s-2,1.89-2.39,2.06-1.36,0-.93-1.39c.29-.9.92-1.45,2.57-3.12a11.15,11.15,0,0,0,2.21-3.18C269.8,111.13,270.28,111.16,271,110.53Z"/>
        <path class="cls-15" d="M274.8,111.48a3,3,0,0,1-3.23-.61C271.6,112,273.67,112.7,274.8,111.48Z"/>
        <path class="cls-15" d="M264.23,119.23a.7.7,0,0,0,1,0,24.41,24.41,0,0,0,1.89-1.78c.46-.46,2.06-2.13,2.06-2.13l-1.51,2.47s-2.05,1.89-2.39,2.07a.77.77,0,0,1-1-.44A.58.58,0,0,1,264.23,119.23Z"/>
      </g>
    </g>
  </g>
  <g id="freepik--character-1--inject-112">
    <g id="freepik--Character--inject-112">
      <g id="freepik--bottom--inject-112-2" data-name="freepik--bottom--inject-112">
        <path class="cls-11" d="M26,210.8c-.19,1.24-.61,2.65-.89,5.15s.24,2.59-1.24,8.87c-.9,3.78-.58,4.84,1.35,8.2,2.08,3.63,5.67,2.77,7.26-1,1.36-3.24,1-4.73.91-8s0-4.32,0-6.93c.08-2.33-.14-3.91,0-5.7Z"/>
        <path class="cls-21" d="M25.45,219.93c.39-3.23.43-6.57.55-8.75.27-4.89-.91-14.51-.37-21.85L38,187.82c-.36,2.89-3.52,15.85-4.57,23.71,0,0-.27,10.6-.86,15.28a.88.88,0,0,1-1,.78,1.05,1.05,0,0,1-.24-.06,8.15,8.15,0,0,0-5.61-.25.9.9,0,0,1-1.17-.5.92.92,0,0,1-.06-.33C24.46,224.73,25.15,222.36,25.45,219.93Z"/>
        <path class="cls-21" d="M61.39,187.05c0,10.15-.45,18-.09,20.66A29.44,29.44,0,0,0,63,214.19a20.75,20.75,0,0,0,2.82,5.49s2.9,3.09,2.25,3.42-6.72,1-9.44.13-3-3.12-3.93-7.34S53,205.52,53,205.52a3,3,0,0,0,.28-.72c.36-1.23-.75-4.37-1-7.4Z"/>
        <path class="cls-11" d="M50.52,211.73c.07,1.38.93,2.14,1.24,3.7a26.85,26.85,0,0,1,.54,5.36v2.52H53s0-3.18,0-4.58.12-2.41.78-2.57C53.75,216.14,53.82,211.7,50.52,211.73Z"/>
        <path class="cls-11" d="M52.71,205.16a27,27,0,0,1-1.61,3.71,5.33,5.33,0,0,0-.61,2.14,2.19,2.19,0,0,0,.69,1.81,12.6,12.6,0,0,1,1.55,1.79,18.52,18.52,0,0,1,2.83,5.55c.43,1.86.68,3.46,2.26,4.37,1.24.72,6.29,1.71,8.85,1.86,3.49.22,4.39-1.46,3.08-2.81s-3.52-3.63-3.92-3.92a6.45,6.45,0,0,0-3.25.45c-2,.84-2.58,2-4.63,1-1.85-.93-2.36-4.36-2.47-9.31C55.35,204.13,52.71,205.16,52.71,205.16Z"/>
        <path class="cls-11" d="M31.69,117.69a12.64,12.64,0,0,1-1.45,4.2c-2.2,4.25-4.08,7.18-4.1,14.88-.05,17.52.55,34.39.55,34.39a81,81,0,0,0-1.46,14.11c-.13,7,.2,25.53.2,25.53a10.9,10.9,0,0,0,8.56.73c1.17-7.24,5.59-30.39,7.26-38.07,1.79-8.09,3.61-17.73,3.61-17.73l3,14.11A41.08,41.08,0,0,0,48,179c.55,4.69,4.14,27.13,4.14,27.13a13,13,0,0,0,9.59-.76s0-29.49.32-34.65c.3-5-1.59-40.67-3.18-52.83C53.09,121.06,36.63,121,31.69,117.69Z"/>
        <path class="cls-12" d="M44.86,155.73,46.47,141s6.09-.4,10-4.24c0,0-1.76,4.55-8.18,6.17L46.2,156.5l1.68,13.37Z"/>
      </g>
      <g id="freepik--top--inject-112-2" data-name="freepik--top--inject-112">
        <path class="cls-21" d="M96.22,82.9a2.74,2.74,0,0,0-1.6.12,18.4,18.4,0,0,0-2.29,1.29c-1.17.62-3.09,1.68-4.41,1.62-.28,0-.85-.12-.48-.47a10.37,10.37,0,0,0,1.43-1.38,2.39,2.39,0,0,0,.56-1.85.82.82,0,0,0-.28-.52c-.23-.17-.39-.06-.56.07a4.83,4.83,0,0,1-.62.37l-1.27.73c-2.47,1.45-4.94,3.13-6.39,5.66-.21.37-1.49,3.26-2.31,4.89-.67,1.48-5.74,10.79-5.74,10.79l-9-8.81c-2-2-4-3.9-5.84-4.59-1.29-.5-3.09-1.15-3.09-1.15l3.3,15.48s9.55,7.19,10.92,8.17c2,1.47,6.07,3.84,8.07,1.36,2.73-3.36,4-8.21,5.32-11.91a56.85,56.85,0,0,1,2.68-7.23c.73-1.27,1.93-1.36,2.77-1.62a13.21,13.21,0,0,0,3.31-1.45,11.62,11.62,0,0,0,2.55-1.85,3.63,3.63,0,0,0,1-1.18c.06-.42.14-.83.24-1.24a13.73,13.73,0,0,0,.77-1.29,4.63,4.63,0,0,0,.07-1.18,2,2,0,0,1,.85-1.38,2,2,0,0,0,.55-.65C96.87,83.21,96.58,83,96.22,82.9Z"/>
        <path class="cls-2" d="M76.13,96.79l1.23-2.11a6.45,6.45,0,0,0,2.57,3c2,1.36,3.41.87,3.41.87l-.74,2.53s-1.54.57-4-1S76.13,96.79,76.13,96.79Z"/>
        <path class="cls-11" d="M53.92,89.32a11.81,11.81,0,0,1,5.34,2.14c2.18,1.7,12.9,11.15,12.9,11.15l4.37-6.73s.25,1.85,2.8,3.33,3.65,1,3.65,1-2,8-4.18,11.94-3.45,5.22-7,3.6S56,105.05,56,105.05Z"/>
        <path class="cls-22" d="M86.37,87.11a8.77,8.77,0,0,1-3,3.81,3.64,3.64,0,0,0,2.25-1.15A3.41,3.41,0,0,0,86.37,87.11Z"/>
        <path class="cls-12" d="M72.16,102.61a13.41,13.41,0,0,0-1.7,7.81,9.17,9.17,0,0,1,.76-8.73Z"/>
        <path class="cls-11" d="M34.79,88.74c-3.18,1.23-5,1.93-5,1.93a20.86,20.86,0,0,0-1.3,10.57c.78,4.66,3.16,14.52,2.66,16.46s-4,8-4.94,13.79a16.26,16.26,0,0,0,3.67,2.65s1.35-5.64,2.27-8.26c0,4.82-.08,8.72-.08,8.72s4.49,3,19.38,1.54c8-.76,9.36-3.91,9.36-3.91s-1.58-13-1.58-16V108.1a8.36,8.36,0,0,0,2.11-6.64c-.39-4.32-5.9-10.72-7.37-12.14-1.16-.47-6.42-2.23-6.42-2.23Z"/>
        <path class="cls-2" d="M38,88.46c.45,2.27,1.36,2.82,3.94,5.65S52.55,104.63,53.3,108c.49-2.86,1.14-6.7.38-10s-2.58-7.8-5.47-10.07l-10-.42Z"/>
        <g id="freepik--Head--inject-112">
          <g id="freepik--head--inject-112-2" data-name="freepik--head--inject-112">
            <path class="cls-6" d="M55.54,71.28c2.41-8.87-5.76-13.41-13.89-12-2.68.47-6.14,2-6.51,5.82C31.6,66.23,29.9,71,32.08,76c1.59,3.71,4.76,5.5,6.18,7.76Z"/>
            <path class="cls-21" d="M35,72.54c2.27-1,3.41,1.39,3.41,1.39,1.48.92,2.34-2,2.66-2.94.57-1.55,1.1-3.78,2.83-4.42a4.63,4.63,0,0,1,3.91.7,3,3,0,0,0,2.35.31c.71-.19.93-1.29,1.57-1.64,1.85-1,3.09,2.09,3.54,3.51a17.78,17.78,0,0,1,.55,5.48c-.13,6.61-2.47,9.71-3.6,10.31s-2.5.77-4.71.62v2a18.31,18.31,0,0,1,1.58,6.79,26.58,26.58,0,0,1-10.84-6.71V79c-.42.86-2.38,1.28-3.59-.28C33.11,76.72,32.79,73.49,35,72.54Z"/>
            <path class="cls-22" d="M47.49,85.83c-2.15-.34-6.05-1.38-6.67-3.16a3.36,3.36,0,0,0,1.56,2.69c1.38,1,5.16,1.71,5.16,1.71Z"/>
          </g>
          <path class="cls-10" d="M54,70l-2,1.09a1.1,1.1,0,0,1,.36-1.5l.07,0A1.2,1.2,0,0,1,54,70Z"/>
          <path class="cls-10" d="M45.25,70.67l2.19.67a1.1,1.1,0,0,0-.66-1.41l-.06,0A1.24,1.24,0,0,0,45.25,70.67Z"/>
          <path class="cls-11" d="M54,73.78a.93.93,0,0,1-.84,1h0A1,1,0,0,1,53,72.88h0a1,1,0,0,1,1,.88Z"/>
          <path class="cls-11" d="M47,74.3a.94.94,0,0,1-.84,1h0A1,1,0,1,1,47,74.26Z"/>
          <path class="cls-22" d="M44.84,73.84a.21.21,0,0,0-.14-.1l-.3-.11L44,73.49l-.34-.11-.21,0a1.31,1.31,0,0,0-.28,0c-.08,0-.09.11-.07.18a.23.23,0,0,0,.16.16l.16,0h.27l.35.12a2.11,2.11,0,0,0,.47.19.51.51,0,0,0,.24,0A.12.12,0,0,0,44.84,73.84Z"/>
          <path class="cls-22" d="M44.77,74.56a.46.46,0,0,0-.34-.19,2.73,2.73,0,0,0-.57,0,4.72,4.72,0,0,0-.66,0c-.22,0-.09.34.06.36a5.75,5.75,0,0,0,.83,0,1.82,1.82,0,0,1,.33,0h.25c.06,0,0,0,.09-.06A.08.08,0,0,0,44.77,74.56Z"/>
          <path class="cls-22" d="M44.74,75c-.06-.06-.14,0-.2,0l-.15,0-.29.09-.28.08H43.7l-.15.05a.15.15,0,0,0-.08.12v0a.18.18,0,0,0,.1.15h.3l.15,0a1.61,1.61,0,0,0,.29-.09.78.78,0,0,0,.35-.18.24.24,0,0,0,.09-.11S44.78,75.07,44.74,75Z"/>
          <path class="cls-11" d="M57.66,70.78h-.44a13.18,13.18,0,0,0-4.46.47c-1.43.54-1.95,1.07-2.74,1.13s-1.35-.39-2.86-.73a14.57,14.57,0,0,0-4.75.21l-.49.08a.89.89,0,0,0-.55.85,1.6,1.6,0,0,0,.42.9,1.25,1.25,0,0,1,.15.36,15.94,15.94,0,0,0,.49,2.55,2.75,2.75,0,0,0,.58.88,1.81,1.81,0,0,0,.3.25l.18.11a2.39,2.39,0,0,0,.52.22h.09l.14,0h.15a3.56,3.56,0,0,0,.47,0h.45A3.65,3.65,0,0,0,48.63,76c.52-1,.44-2.39,1.34-2.47h.17c.66.11.54,1.39.93,2.27a3.15,3.15,0,0,0,.61,1c0,.06.1.1.15.15l.08.06L52,77l.08,0,.08,0,.07,0h0a2.34,2.34,0,0,0,.77.26h.07a3.77,3.77,0,0,0,.95,0,3.14,3.14,0,0,0,2.82-2,18.45,18.45,0,0,0,.62-2.62,1,1,0,0,1,.17-.36,1.91,1.91,0,0,0,.45-.91C58.16,71.15,57.91,70.79,57.66,70.78Zm-9.5,4.32a3.34,3.34,0,0,1-.72,1.4h0a3,3,0,0,1-2.16.93,2.1,2.1,0,0,1-2-.82l-.06-.09a.47.47,0,0,1-.06-.09l-.05-.09,0-.08v-.12l0-.1h0a1.8,1.8,0,0,1-.09-.28h0a.23.23,0,0,0-.05-.17,2.56,2.56,0,0,1,0-.27v-.1c-.13-.67-.27-2,.08-2.33a3.91,3.91,0,0,1,2.69-.67h.16a4.93,4.93,0,0,1,.66.07l.26,0c.22,0,.44.11.62.17l.19.07.21.09h.05l.07,0a1.38,1.38,0,0,1,.43.32,4.06,4.06,0,0,1-.12,2.09Zm8.5-.91a3.37,3.37,0,0,1-1.45,2.31,2.8,2.8,0,0,1-1.09.32A2.12,2.12,0,0,1,52,76h0a.43.43,0,0,1,0-.07l0-.07v0s0-.07,0-.11l-.06-.12v-.18a2.15,2.15,0,0,1-.12-.5,3.4,3.4,0,0,1,.11-2.07,4.43,4.43,0,0,1,2.42-1.18c.24-.05.46-.08.67-.11h.77l.34,0h.3l.15,0h0a1.13,1.13,0,0,1,.35.21,4.75,4.75,0,0,1-.12,2.39Z"/>
          <path class="cls-11" d="M41.85,72l-4.49.84a3.35,3.35,0,0,1,.86.9l3.65-.62Z"/>
          <path class="cls-22" d="M49.6,73.67l.62,5.39,3.17-1.12L50,73.55A.77.77,0,0,0,49.6,73.67Z"/>
          <path class="cls-16" d="M37.37,77.93a.84.84,0,1,1-1.68.06.83.83,0,0,1,.81-.87h0A.84.84,0,0,1,37.37,77.93Z"/>
          <path class="cls-14" d="M49.28,79.94c-1.36-.55-2.75.74-2,1.24.33.21.93,0,1.4.25.62.25.89.78,1.36.67C50.65,81.94,50.64,80.5,49.28,79.94Z"/>
          <path class="cls-17" d="M49.36,81.86a1.61,1.61,0,0,0-1.61-1.61,1.42,1.42,0,0,0-.42.06c-.3.29-.38.65-.07.86s.93,0,1.4.24A3.22,3.22,0,0,1,49.36,81.86Z"/>
        </g>
        <path class="cls-11" d="M38.26,86.41v1a81.55,81.55,0,0,0,5.89,7.34c3.9,4.32,7.24,7.58,8.44,10.56a32.35,32.35,0,0,1,1.66,6.7,16.85,16.85,0,0,0-5.79-8.57c-2.83-2.26-7.41-4-8.26-5.45s.82-3.24.82-3.24a19.21,19.21,0,0,1-4.49-2.12c-1.71-1.24-1.74-3.9-1.74-3.9Z"/>
        <path class="cls-11" d="M47.52,87.78a18.21,18.21,0,0,1,4.79,8.87,122.84,122.84,0,0,1,1,12.56s1-5.89,1.57-8.39.84-4.44-1.89-7c.67-1.17.79-1.61-.62-3.31A13,13,0,0,0,49.76,88l-2.23-1.43Z"/>
        <path class="cls-21" d="M53.48,119.78c1.5-.15,2.93-1.53,4.85-2.26s3.55-.75,4.87-1.28c.54.31.26,1.45-.38,1.94-1,.77-2.54,1.24-2.18,1.66.55.62,2.61.19,3.24.06,1.93-.4,4-1.56,6-1.13a.78.78,0,0,1,.55.3.69.69,0,0,1-.15.82,3.82,3.82,0,0,1-.75.51,1,1,0,0,0-.5.71,5.6,5.6,0,0,1,.1.81,1.09,1.09,0,0,1-.23.47,3.21,3.21,0,0,1-.72.66,7.66,7.66,0,0,0-.66.45,6.48,6.48,0,0,0-1.17,1.17c-1.06,1.72-3.33,2.24-5.17,2.55-3.93.69-5.74-.14-8.06-.1s-12.2-.26-17.29-.62c-5.31-.38-6-1.37-7.46-6.44a145.33,145.33,0,0,1-4-18.1c-.84-6.37,0-9.66,6.3-11.65,1.77,1.2,4,5.56,5,14L38,117.05S52,119.93,53.48,119.78Z"/>
        <path class="cls-2" d="M49.73,119.15l2.47.53a21.4,21.4,0,0,0-.44,3.82,13,13,0,0,0,.36,3.62l-3,.09S47.41,122.54,49.73,119.15Z"/>
        <path class="cls-11" d="M31.36,90.08c-2.83.56-5.44,1.35-6.89,3.65s-.94,4.78-.32,9.54,3.88,17.15,4.71,19.8,1.32,3.24,4.14,3.7,17.25.62,17.25.62a11.27,11.27,0,0,1-.33-4.32,13.35,13.35,0,0,1,.75-4L38.2,116.84s-2-11.9-2.68-15.63S34,93.48,31.36,90.08Z"/>
        <path class="cls-12" d="M38.18,116.88c-1.72-.19-4.61,1-5.46,2.56.36-1.68,2.14-3.52,5.28-3.51Z"/>
      </g>
    </g>
  </g>
  <g id="freepik--podium-2--inject-112">
    <g id="freepik--Podium--inject-112">
      <g id="freepik--podium--inject-112-2" data-name="freepik--podium--inject-112">
        <polygon class="cls-11" points="212.83 262.68 212.83 255.34 176.2 234.19 176.19 241.52 212.83 262.68"/>
        <polygon class="cls-11" points="212.83 255.34 249.47 234.19 249.47 241.52 212.83 262.68 212.83 255.34"/>
        <polygon class="cls-10" points="212.83 255.34 249.47 234.19 212.83 213.04 176.2 234.19 212.83 255.34"/>
        <polygon class="cls-11" points="212.83 252.31 181.43 234.19 177.89 160.06 212.83 180.23 212.83 252.31"/>
        <polygon class="cls-11" points="212.83 252.31 244.23 234.19 247.78 160.06 212.83 180.23 212.83 252.31"/>
        <polygon class="cls-11" points="212.83 180.23 212.83 175.47 174.71 153.47 174.71 158.22 212.83 180.23"/>
        <polygon class="cls-11" points="212.83 175.47 250.95 153.47 250.95 158.22 212.83 180.23 212.83 175.47"/>
        <polygon class="cls-9" points="178.21 166.72 177.89 160.06 212.83 180.23 247.78 160.06 247.45 166.72 212.83 186.72 178.21 166.72"/>
        <polygon class="cls-10" points="212.83 175.47 250.95 153.47 212.83 131.46 174.71 153.47 212.83 175.47"/>
        <polygon class="cls-11" points="206.48 189.52 184.24 176.69 186.34 229.66 206.47 241.31 206.48 189.52"/>
        <path class="cls-10" d="M187.46,182.16l15.89,9.17v44.56l-13.92-8.06-2-45.68m-.87-1.41,2.09,47.54,15.44,8.95V190.88l-17.55-10.13Z"/>
      </g>
      <g id="freepik--Garland--inject-112">
        <path class="cls-23" d="M212.83,175.47v5.68c0,2.43-3.81,5.08-3.81,5.08s-3.81-7-3.81-9.48v-5.68Z"/>
        <path class="cls-24" d="M205.21,171.07v5.68c0,2.43-3.82,5.08-3.82,5.08s-3.81-7.05-3.81-9.48v-5.68Z"/>
        <path class="cls-23" d="M197.58,166.67v5.68c0,2.43-3.81,5.07-3.81,5.07s-3.81-7-3.81-9.47v-5.68Z"/>
        <path class="cls-24" d="M190,162.27V168c0,2.42-3.81,5.07-3.81,5.07s-3.81-7.05-3.81-9.47v-5.68Z"/>
        <path class="cls-23" d="M182.34,157.87v5.68c0,2.42-3.81,5.07-3.81,5.07s-3.82-7.05-3.82-9.48v-5.68Z"/>
      </g>
      <g id="freepik--Microphone--inject-112">
        <path class="cls-2" d="M182.48,151.54a2.9,2.9,0,0,1,1.71-2.37,9.11,9.11,0,0,1,8.23,0,2.91,2.91,0,0,1,1.7,2.37v1a2.88,2.88,0,0,1-1.7,2.37,9,9,0,0,1-8.23,0,2.88,2.88,0,0,1-1.71-2.37Z"/>
        <path class="cls-9" d="M182.48,151.54a2.9,2.9,0,0,1,1.71-2.37,9.11,9.11,0,0,1,8.23,0,2.91,2.91,0,0,1,1.7,2.37v1a2.88,2.88,0,0,1-1.7,2.37,9,9,0,0,1-8.23,0,2.88,2.88,0,0,1-1.71-2.37Z"/>
        <path class="cls-2" d="M192.42,153.92a9,9,0,0,1-8.23,0,2.5,2.5,0,0,1,0-4.75,9.11,9.11,0,0,1,8.23,0,2.51,2.51,0,0,1,0,4.75Z"/>
        <path class="cls-11" d="M197.54,121.6a4.54,4.54,0,1,1,7.44,5.22l-.11.15-3,4.05a4.54,4.54,0,0,1-7.33-5.37Z"/>
        <path class="cls-11" d="M195.55,132a4.54,4.54,0,0,1-1.72-4.77c.76.43,4.6,2.65,5.17,2.95s2.17-1.2,3.85-3.62,2.7-3.56,1.75-5.29a4.56,4.56,0,0,1,.27,5.71l-3,4.05a4.53,4.53,0,0,1-6.33,1Z"/>
        <polygon class="cls-2" points="197.44 130.2 193.69 135.31 195.62 139.2 199.37 134.09 197.44 130.2"/>
        <polygon class="cls-9" points="197.44 130.2 193.69 135.31 195.62 139.2 199.37 134.09 197.44 130.2"/>
        <polygon class="cls-2" points="193.69 135.31 188.94 132.56 192.68 127.45 197.44 130.2 193.69 135.31"/>
        <polygon class="cls-2" points="195.62 139.2 190.86 136.44 188.94 132.56 193.69 135.31 195.62 139.2"/>
        <polygon class="cls-25" points="195.62 139.2 190.86 136.44 188.94 132.56 193.69 135.31 195.62 139.2"/>
        <path class="cls-11" d="M187.63,151.54c0,.44,1.35.44,1.35,0,0-5.08,0-10.84,3.58-15.16.29-.36-.74-1.24-1-.87C187.63,140.22,187.63,146.5,187.63,151.54Z"/>
      </g>
      <g id="freepik--Name--inject-112">
        <polygon class="cls-6" points="215.45 169.23 218.06 167.71 199.74 157.14 197.13 158.65 215.45 169.23"/>
        <polygon class="cls-16" points="215.45 169.23 197.13 158.65 198.02 153.12 216.33 163.69 215.45 169.23"/>
        <path class="cls-6" d="M214.6,165.57v.13a.48.48,0,0,1-.77.37l-11.56-6.67a1.18,1.18,0,0,1-.54-1.13v-.13a.49.49,0,0,1,.51-.47.52.52,0,0,1,.27.1l11.56,6.67A1.23,1.23,0,0,1,214.6,165.57Z"/>
        <path class="cls-6" d="M201.2,157.82V158a.49.49,0,0,1-.51.47.56.56,0,0,1-.27-.1l-1.27-.73a1.18,1.18,0,0,1-.54-1.13v-.14a.49.49,0,0,1,.51-.46.44.44,0,0,1,.27.09l1.28.74A1.19,1.19,0,0,1,201.2,157.82Z"/>
      </g>
    </g>
  </g>
  <g id="freepik--podium-1--inject-112">
    <g id="freepik--podium--inject-112-3" data-name="freepik--podium--inject-112">
      <g id="freepik--podium--inject-112-4" data-name="freepik--podium--inject-112">
        <polygon class="cls-11" points="87.44 262.68 87.44 255.34 124.08 234.19 124.08 241.52 87.44 262.68"/>
        <polygon class="cls-11" points="87.44 255.34 50.81 234.19 50.81 241.52 87.44 262.68 87.44 255.34"/>
        <polygon class="cls-10" points="87.44 255.34 50.81 234.19 87.44 213.04 124.08 234.19 87.44 255.34"/>
        <polygon class="cls-11" points="87.44 252.31 118.85 234.19 122.38 160.06 87.44 180.23 87.44 252.31"/>
        <polygon class="cls-11" points="87.44 252.31 56.04 234.19 52.5 160.06 87.44 180.23 87.44 252.31"/>
        <polygon class="cls-11" points="87.44 180.23 87.44 175.47 125.56 153.47 125.56 158.22 87.44 180.23"/>
        <polygon class="cls-11" points="87.44 175.47 49.33 153.47 49.33 158.22 87.44 180.23 87.44 175.47"/>
        <polygon class="cls-9" points="122.07 166.72 122.38 160.06 87.44 180.23 52.5 160.06 52.82 166.72 87.44 186.72 122.07 166.72"/>
        <polygon class="cls-10" points="87.44 175.47 49.33 153.47 87.44 131.46 125.56 153.47 87.44 175.47"/>
        <polygon class="cls-11" points="93.79 189.52 116.03 176.69 113.94 229.66 93.79 241.31 93.79 189.52"/>
        <path class="cls-10" d="M112.81,182.16l-2,45.68-13.92,8.07V191.33l15.89-9.18m.88-1.4L96.14,190.88v46.37l15.43-9,2.1-47.53Z"/>
      </g>
      <g id="freepik--garland--inject-112-2" data-name="freepik--garland--inject-112">
        <path class="cls-2" d="M87.44,175.47v5.68c0,2.43,1.71,3.42,3.82,2.2a8.44,8.44,0,0,0,3.81-6.6v-5.68Z"/>
        <path class="cls-2" d="M95.07,171.07v5.68c0,2.43,1.7,3.42,3.81,2.2a8.44,8.44,0,0,0,3.81-6.6v-5.68Z"/>
        <path class="cls-19" d="M95.07,171.07v5.68c0,2.43,1.7,3.42,3.81,2.2a8.44,8.44,0,0,0,3.81-6.6v-5.68Z"/>
        <path class="cls-2" d="M102.69,166.67v5.68c0,2.43,1.7,3.41,3.81,2.2a8.42,8.42,0,0,0,3.81-6.6v-5.68Z"/>
        <path class="cls-2" d="M110.31,162.27V168c0,2.42,1.71,3.41,3.81,2.2a8.45,8.45,0,0,0,3.82-6.6v-5.68Z"/>
        <path class="cls-19" d="M110.31,162.27V168c0,2.42,1.71,3.41,3.81,2.2a8.45,8.45,0,0,0,3.82-6.6v-5.68Z"/>
        <path class="cls-2" d="M117.94,157.87v5.68c0,2.42,1.7,3.41,3.81,2.19a8.38,8.38,0,0,0,3.81-6.6v-5.68Z"/>
      </g>
      <g id="freepik--microphone--inject-112-2" data-name="freepik--microphone--inject-112">
        <path class="cls-2" d="M117.79,151.54a2.91,2.91,0,0,0-1.7-2.37,9.11,9.11,0,0,0-8.23,0,2.9,2.9,0,0,0-1.71,2.37v1a2.88,2.88,0,0,0,1.71,2.37,9,9,0,0,0,8.23,0,2.88,2.88,0,0,0,1.7-2.37Z"/>
        <path class="cls-9" d="M117.79,151.54a2.91,2.91,0,0,0-1.7-2.37,9.11,9.11,0,0,0-8.23,0,2.9,2.9,0,0,0-1.71,2.37v1a2.88,2.88,0,0,0,1.71,2.37,9,9,0,0,0,8.23,0,2.88,2.88,0,0,0,1.7-2.37Z"/>
        <path class="cls-2" d="M107.86,153.92a9,9,0,0,0,8.23,0,2.51,2.51,0,0,0,0-4.75,9.11,9.11,0,0,0-8.23,0,2.5,2.5,0,0,0,0,4.75Z"/>
        <path class="cls-11" d="M102.73,121.6a4.54,4.54,0,1,0-7.43,5.22l.11.15,3,4.05a4.54,4.54,0,0,0,7.32-5.37Z"/>
        <path class="cls-11" d="M104.72,132a4.53,4.53,0,0,0,1.72-4.77c-.76.43-4.6,2.65-5.17,2.95s-2.17-1.2-3.85-3.63-2.7-3.55-1.75-5.28a4.55,4.55,0,0,0-.26,5.71l3,4.05a4.52,4.52,0,0,0,6.33,1Z"/>
        <polygon class="cls-2" points="102.84 130.2 106.58 135.31 104.65 139.19 100.91 134.09 102.84 130.2"/>
        <polygon class="cls-9" points="102.84 130.2 106.58 135.31 104.65 139.19 100.91 134.09 102.84 130.2"/>
        <polygon class="cls-2" points="106.58 135.31 111.34 132.56 107.59 127.45 102.84 130.2 106.58 135.31"/>
        <polygon class="cls-2" points="104.65 139.19 109.41 136.44 111.34 132.56 106.58 135.31 104.65 139.19"/>
        <polygon class="cls-25" points="104.65 139.19 109.41 136.44 111.34 132.56 106.58 135.31 104.65 139.19"/>
        <path class="cls-11" d="M112.65,151.54c0,.43-1.35.43-1.35,0,0-5.08,0-10.84-3.59-15.16-.29-.36.75-1.24,1-.87C112.65,140.22,112.65,146.5,112.65,151.54Z"/>
      </g>
      <g id="freepik--name--inject-112-2" data-name="freepik--name--inject-112">
        <polygon class="cls-6" points="84.82 169.23 82.21 167.71 100.53 157.14 103.14 158.65 84.82 169.23"/>
        <polygon class="cls-16" points="84.82 169.23 103.14 158.65 102.26 153.12 83.94 163.69 84.82 169.23"/>
        <path class="cls-6" d="M88.79,163.77v.13a.48.48,0,0,0,.51.46.46.46,0,0,0,.27-.09l11.55-6.67a1.18,1.18,0,0,0,.54-1.13v-.13a.49.49,0,0,0-.51-.47.45.45,0,0,0-.27.1l-11.56,6.67A1.22,1.22,0,0,0,88.79,163.77Z"/>
        <path class="cls-6" d="M85.67,165.57v.13a.49.49,0,0,0,.51.47.52.52,0,0,0,.27-.1l1.29-.73a1.19,1.19,0,0,0,.54-1.13v-.14a.5.5,0,0,0-.5-.47.56.56,0,0,0-.28.1l-1.28.74A1.17,1.17,0,0,0,85.67,165.57Z"/>
      </g>
    </g>
  </g>
  <g id="freepik--speech-bubbles--inject-112">
    <g id="freepik--speech-bubble--inject-112">
      <g id="freepik--speech-bubble--inject-112-2" data-name="freepik--speech-bubble--inject-112">
        <path class="cls-2" d="M97.62,39.67,73.2,53.77A1.52,1.52,0,0,0,72.52,55v21.6a1.49,1.49,0,0,0,.68,1.18l2.43,1.36a1.55,1.55,0,0,0,1.36,0L101.39,65a1.52,1.52,0,0,0,.68-1.18V42.21a1.52,1.52,0,0,0-.68-1.18L99,39.67A1.5,1.5,0,0,0,97.62,39.67Z"/>
        <path class="cls-2" d="M76.31,78.68V57.07A1.5,1.5,0,0,1,77,55.9l24.4-14.1c.37-.21.68,0,.68.4V63.81a1.51,1.51,0,0,1-.68,1.17L77,79.08A.42.42,0,0,1,76.31,78.68Z"/>
        <path class="cls-9" d="M77,79.07a1.62,1.62,0,0,1-1.36,0L73.2,77.73a1.47,1.47,0,0,1-.68-1.16V55a1.34,1.34,0,0,1,.22-.7l3.77,2.16a1.42,1.42,0,0,0-.2.67V78.7C76.31,79.07,76.59,79.3,77,79.07Z"/>
        <path class="cls-26" d="M102.06,42.08c0-.35-.33-.47-.67-.28L77,55.9a1.47,1.47,0,0,0-.48.51l-3.78-2.14a1.44,1.44,0,0,1,.47-.48L97.62,39.67a1.53,1.53,0,0,1,1.35,0L101.41,41A1.53,1.53,0,0,1,102.06,42.08Z"/>
        <path class="cls-2" d="M72.52,59.24l-4.68,5.19a.62.62,0,0,0,0,.87l.07.06,3.77,2.17,4.59-6.1Z"/>
        <path class="cls-26" d="M72.52,59.24l-4.68,5.19a.62.62,0,0,0,0,.87l.07.06,3.77,2.17,4.59-6.1Z"/>
        <path class="cls-2" d="M76.31,61.43l-4.67,5.19a.61.61,0,0,0,.51,1l4.16-.35C76.84,67.28,76.84,61.43,76.31,61.43Z"/>
      </g>
      <path class="cls-16" d="M85.45,67.86v2.22a1.51,1.51,0,0,1-.94,1.31l-.5.29c-.66.38-.94.28-.94-.23V69.23A1.52,1.52,0,0,1,84,67.92l.5-.29C85.17,67.28,85.45,67.37,85.45,67.86Zm.49-13.59c-.27,3.53-.52,7-.79,10.59a1.31,1.31,0,0,1-.79,1.23l-.18.1c-.62.37-.79.2-.79-.31v-10a1.5,1.5,0,0,1,.93-1.31l.68-.39C85.61,53.81,85.94,53.85,85.94,54.27Z"/>
      <path class="cls-16" d="M90.45,65v2.24a1.52,1.52,0,0,1-.94,1.31l-.5.29c-.66.39-.94.28-.94-.22V66.37A1.51,1.51,0,0,1,89,65.06l.5-.29C90.16,64.39,90.45,64.49,90.45,65Zm.49-13.58c-.27,3.53-.52,7-.79,10.58a1.32,1.32,0,0,1-.8,1.23l-.17.1c-.65.37-.8.2-.8-.31V53a1.55,1.55,0,0,1,.94-1.32l.68-.39c.6-.35.94-.3.94.13Z"/>
      <path class="cls-16" d="M95.45,62.11v2.22a1.56,1.56,0,0,1-1,1.32l-.5.29c-.66.37-.93.27-.93-.23V63.49A1.5,1.5,0,0,1,94,62.17l.5-.28C95.15,61.5,95.45,61.61,95.45,62.11Zm.48-13.58c-.27,3.53-.52,7-.78,10.58a1.32,1.32,0,0,1-.8,1.24l-.17.1c-.62.37-.8.19-.8-.32v-10a1.55,1.55,0,0,1,.94-1.32l.67-.38c.61-.36.94-.29.94.13Z"/>
    </g>
    <g id="freepik--speech-bubble--inject-112-3" data-name="freepik--speech-bubble--inject-112">
      <g id="freepik--speech-bubble--inject-112-4" data-name="freepik--speech-bubble--inject-112">
        <path class="cls-27" d="M204.52,39.67l24.41,14.1a1.53,1.53,0,0,1,.68,1.18v21.6a1.53,1.53,0,0,1-.69,1.18l-2.43,1.36a1.55,1.55,0,0,1-1.36,0L200.71,65a1.52,1.52,0,0,1-.68-1.18V42.19a1.53,1.53,0,0,1,.69-1.18l2.43-1.35A1.5,1.5,0,0,1,204.52,39.67Z"/>
        <path class="cls-24" d="M225.81,78.68V57.07a1.5,1.5,0,0,0-.68-1.17L200.71,41.8c-.37-.21-.68,0-.68.4V63.81a1.51,1.51,0,0,0,.68,1.17l24.4,14.1C225.51,79.28,225.81,79.11,225.81,78.68Z"/>
        <path class="cls-9" d="M225.13,79.07a1.62,1.62,0,0,0,1.36,0l2.43-1.37a1.51,1.51,0,0,0,.69-1.16V54.93a1.41,1.41,0,0,0-.22-.69l-3.78,2.15a1.42,1.42,0,0,1,.2.67V78.67C225.81,79.07,225.53,79.3,225.13,79.07Z"/>
        <path class="cls-23" d="M229.61,59.24l4.67,5.19a.62.62,0,0,1,0,.87l-.07.06-3.77,2.17-4.59-6.1Z"/>
        <path class="cls-24" d="M225.81,61.43l4.67,5.19a.61.61,0,0,1-.06.87.62.62,0,0,1-.45.14l-4.16-.35C225.28,67.28,225.28,61.43,225.81,61.43Z"/>
      </g>
      <path class="cls-16" d="M207.82,63.49V65.7c0,.51-.28.62-.95.23l-.5-.29a1.51,1.51,0,0,1-.93-1.31V62.11c0-.51.28-.62.93-.23l.5.29A1.52,1.52,0,0,1,207.82,63.49Zm.48-13-.78,9.68c-.05.48-.16.68-.8.31l-.17-.1a1.28,1.28,0,0,1-.8-1.24v-10c0-.51.28-.62.94-.23l.67.39C208,49.59,208.3,50,208.3,50.45Z"/>
      <path class="cls-16" d="M216.15,58.44c0,3.7-2.63,2.94-2.92,5.09-.09.46-.31.47-.82.17l-.36-.2a1.23,1.23,0,0,1-.77-1.14,4.43,4.43,0,0,1,1.06-3c.66-.8,1.37-1.33,1.37-2.13a2.21,2.21,0,0,0-1.16-2c-.91-.52-1.54-.14-1.75-.27a5,5,0,0,1-1-2.55c0-1.42,1.72-1,2.94-.25A7.14,7.14,0,0,1,216.15,58.44Zm-2.74,8.26v2.21c0,.51-.28.62-.94.23l-.5-.29a1.51,1.51,0,0,1-.94-1.31V65.32c0-.51.28-.62.94-.23l.5.29a1.52,1.52,0,0,1,.91,1.32Z"/>
      <path class="cls-16" d="M220.18,70.62v2.22c0,.5-.29.62-1,.23l-.5-.29a1.54,1.54,0,0,1-.93-1.32V69.25c0-.51.28-.62.93-.23l.5.29A1.49,1.49,0,0,1,220.18,70.62Zm.48-13c-.27,3.22-.51,6.45-.78,9.67,0,.49-.16.68-.8.31l-.17-.1a1.27,1.27,0,0,1-.8-1.23v-10c0-.51.28-.61.94-.23l.67.39C220.33,56.74,220.66,57.15,220.66,57.59Z"/>
    </g>
  </g>
  <rect class="cls-28" width="300" height="300"/>
</svg>
