<svg id="Layer_1" data-name="Layer 1" xmlns="http://www.w3.org/2000/svg" width="300" height="300" viewBox="0 0 300 300">
  <defs>
    <style>
      .cls-1 {
        fill: none;
      }

      .cls-2 {
        fill: #12263f;
      }

      .cls-3 {
        fill: #455a64;
      }

      .cls-4 {
        fill: #472ea6;
      }

      .cls-18, .cls-5, .cls-8, .cls-9 {
        fill: #fff;
      }

      .cls-10, .cls-16, .cls-17, .cls-18, .cls-5, .cls-6, .cls-7, .cls-8, .cls-9 {
        isolation: isolate;
      }

      .cls-17, .cls-5 {
        opacity: 0.2;
      }

      .cls-10, .cls-17, .cls-6, .cls-7 {
        fill: #6c58b8;
      }

      .cls-6 {
        opacity: 0.1;
      }

      .cls-18, .cls-7 {
        opacity: 0.3;
      }

      .cls-10, .cls-8 {
        opacity: 0.6;
      }

      .cls-9 {
        opacity: 0.8;
      }

      .cls-11 {
        fill: #ef2a66;
      }

      .cls-12 {
        fill: #fafafa;
      }

      .cls-13 {
        fill: #f28f8f;
      }

      .cls-14 {
        fill: #ffa8a7;
      }

      .cls-15 {
        fill: #9182ca;
      }

      .cls-16 {
        fill: #2cffe2;
        opacity: 0.7;
      }
    </style>
  </defs>
  <rect class="cls-1" width="300" height="300"/>
  <path class="cls-2" d="M241.45,230.62a41.59,41.59,0,0,0-9.29-16.56,70.56,70.56,0,0,0-17.75-14A112.74,112.74,0,0,0,190,189.83a149.52,149.52,0,0,0-28.69-5.31,166.83,166.83,0,0,0-30.15,0,149.42,149.42,0,0,0-28.68,5.31,112.53,112.53,0,0,0-24.39,10.24,70.46,70.46,0,0,0-17.73,14.08,41.8,41.8,0,0,0-9.3,16.56,32.6,32.6,0,0,0,0,17.42,41.26,41.26,0,0,0,9.3,16.55,70.72,70.72,0,0,0,17.74,14.09A112.13,112.13,0,0,0,102.5,289a150.38,150.38,0,0,0,28.69,5.36,166.83,166.83,0,0,0,30.15,0A149,149,0,0,0,190,289a111.61,111.61,0,0,0,24.37-10.22h0a70.59,70.59,0,0,0,17.75-14.09,41.55,41.55,0,0,0,9.29-16.55A32.4,32.4,0,0,0,241.45,230.62Z"/>
  <polygon class="cls-2" points="49.9 230.65 242.63 230.65 242.63 240.47 49.9 239.93 49.9 230.65"/>
  <path class="cls-3" d="M131.19,175.72l15.06,54.9-43.74-49.54A148.74,148.74,0,0,1,131.19,175.72Z"/>
  <path class="cls-3" d="M161.34,175.72l-15.05,54.9h0l-15.06-54.93A165.48,165.48,0,0,1,161.34,175.72Z"/>
  <path class="cls-3" d="M190,181.08l-43.74,49.54,15.05-54.93A149.52,149.52,0,0,1,190,181.08Z"/>
  <path class="cls-3" d="M232.14,205.39a41.77,41.77,0,0,1,9.3,16.57l-95.14,8.66h0Z"/>
  <path class="cls-3" d="M241.45,222a32.77,32.77,0,0,1,0,17.41l-95.15-8.76Z"/>
  <path class="cls-3" d="M241.45,239.38a41.59,41.59,0,0,1-9.29,16.56L146.3,230.71Z"/>
  <path class="cls-3" d="M232.16,255.94A70.33,70.33,0,0,1,214.41,270l-68.14-39.4h0Z"/>
  <path class="cls-3" d="M146.29,230.68,190,280.26a149.62,149.62,0,0,1-28.7,5.31l-15.07-54.93Z"/>
  <path class="cls-3" d="M146.27,230.7l15.07,54.92a165,165,0,0,1-30.15,0Z"/>
  <path class="cls-3" d="M146.25,230.68h0l-15.09,54.93a149.62,149.62,0,0,1-28.7-5.31Z"/>
  <path class="cls-3" d="M146.25,230.68l-43.83,49.58A112.66,112.66,0,0,1,78.05,270Z"/>
  <path class="cls-3" d="M146.23,230.62,60.38,255.85a41.18,41.18,0,0,1-9.3-16.56Z"/>
  <path class="cls-3" d="M146.23,230.62l-95.14,8.76a32.57,32.57,0,0,1,0-17.41Z"/>
  <path class="cls-3" d="M146.23,230.62h0l-95.14-8.7a41.84,41.84,0,0,1,9.3-16.57Z"/>
  <path class="cls-3" d="M78.12,191.34l68.11,39.28L60.39,205.39A70.12,70.12,0,0,1,78.12,191.34Z"/>
  <path class="cls-3" d="M214.41,191.34l-68.12,39.28h0L190,181.06A111.68,111.68,0,0,1,214.41,191.34Z"/>
  <path class="cls-3" d="M214.41,191.34a70.12,70.12,0,0,1,17.73,14L146.3,230.62Z"/>
  <path class="cls-3" d="M146.25,230.62h0L78.09,270a70.68,70.68,0,0,1-17.74-14.08l85.86-25.23Z"/>
  <path class="cls-3" d="M102.51,181.08l43.74,49.54h0L78.12,191.28A111.9,111.9,0,0,1,102.51,181.08Z"/>
  <path class="cls-3" d="M146.29,230.68,214.41,270A112.66,112.66,0,0,1,190,280.26Z"/>
  <path class="cls-4" d="M88,175.21l54.12,31.24-2.65-44.16C119.54,163.14,102.63,167.39,88,175.21Z"/>
  <path class="cls-5" d="M88,175.21l54.12,31.24-2.65-44.16C119.54,163.14,102.63,167.39,88,175.21Z"/>
  <polygon class="cls-4" points="142.1 206.45 142.1 223.5 87.98 192.25 87.98 175.21 142.1 206.45"/>
  <polygon class="cls-6" points="142.1 206.45 142.1 223.5 87.98 192.25 87.98 175.21 142.1 206.45"/>
  <polygon class="cls-4" points="212.26 179.59 150.15 207.62 150.15 224.66 212.26 196.63 212.26 179.59"/>
  <polygon class="cls-7" points="212.26 179.59 150.15 207.62 150.15 224.66 212.26 196.63 212.26 179.59"/>
  <path class="cls-4" d="M212.26,179.6c-16.72-11.39-39-17.39-64.86-17.47l1.66,27.61,1.09,17.88Z"/>
  <path class="cls-6" d="M212.26,179.6c-16.72-11.39-39-17.39-64.86-17.47l1.66,27.61,1.09,17.88Z"/>
  <polygon class="cls-2" points="147.39 162.13 147.39 179.17 150.15 224.66 150.15 207.62 147.39 162.13"/>
  <path class="cls-4" d="M162.78,240.43,194.53,271c1.78-.68,3.43-1.33,5.31-2.23,21.88-9.86,33.31-24.63,33.3-39.53V212.36c-2.41-6.42-9-6.4-15.94-12.05l-64.85,29.22-.65.29Z"/>
  <path class="cls-8" d="M162.78,240.43,194.53,271c1.78-.68,3.43-1.33,5.31-2.23,21.88-9.86,33.31-24.63,33.3-39.53V212.36c-2.41-6.42-9-6.4-15.94-12.05l-64.85,29.22-.65.29Z"/>
  <path class="cls-4" d="M162.78,223.39l31.75,30.55c1.78-.68,3.43-1.33,5.31-2.25,36.62-16.53,43.95-46.81,17.39-68.47l-64.85,29.22-.65.29Z"/>
  <path class="cls-9" d="M162.78,223.39l31.75,30.55c1.78-.68,3.43-1.33,5.31-2.25,36.62-16.53,43.95-46.81,17.39-68.47l-64.85,29.22-.65.29Z"/>
  <polygon class="cls-4" points="194.48 270.95 194.48 253.9 151.66 212.77 151.66 229.81 194.48 270.95"/>
  <polygon class="cls-8" points="194.48 270.95 194.48 253.9 151.66 212.77 151.66 229.81 194.48 270.95"/>
  <path class="cls-4" d="M82.35,195.51c-9.12,5.75-19.25,9.37-22.94,16.36v17c0,8.88,4.13,17.89,12.69,26.12,12,11.46,30.88,19.56,53.36,22.79a143.4,143.4,0,0,0,62.18-4.53v-17l-28-9.83-16.41-15.81Z"/>
  <path class="cls-10" d="M82.35,195.51c-9.12,5.75-19.25,9.37-22.94,16.36v17c0,8.88,4.13,17.89,12.69,26.12,12,11.46,30.88,19.56,53.36,22.79a143.4,143.4,0,0,0,62.18-4.53v-17l-28-9.83-16.41-15.81Z"/>
  <path class="cls-4" d="M82.35,178.47C56.14,195,51.92,218.6,72.1,238c12,11.47,30.88,19.56,53.36,22.8a143.4,143.4,0,0,0,62.18-4.53l-28-26.86-16.41-15.77Z"/>
  <path class="cls-7" d="M82.35,178.47C56.14,195,51.92,218.6,72.1,238c12,11.47,30.88,19.56,53.36,22.8a143.4,143.4,0,0,0,62.18-4.53l-28-26.86-16.41-15.77Z"/>
  <g>
    <path class="cls-11" d="M191.23,138a5.54,5.54,0,0,0-2.49-4.32l-36-20.74c-1.33-.8-2.48-.16-2.48,1.43v34.75a5.5,5.5,0,0,0,2.48,4.33l15.06,8.69,4.76,19.2a1.31,1.31,0,0,0,1.53,1.08,1.34,1.34,0,0,0,1.06-1l4.35-12.57,9.2,5.31c1.33.79,2.49.16,2.49-1.44Z"/>
    <path class="cls-12" d="M163.92,128.8a9.34,9.34,0,0,1,2,1.51,11,11,0,0,1,1.45,1.74,7.8,7.8,0,0,1,.89,1.78,6.57,6.57,0,0,1,.36,1.65c0,.57.06,1.16.06,1.79a15.91,15.91,0,0,1-.06,1.73,3,3,0,0,1-.36,1.23,1.55,1.55,0,0,1-.89.74,2.65,2.65,0,0,1-1.45.07,6.3,6.3,0,0,1-2-.85,9.61,9.61,0,0,1-2-1.5,9.76,9.76,0,0,1-1.43-1.71,7.06,7.06,0,0,1-.89-1.78,7.29,7.29,0,0,1-.37-1.65V130a3.14,3.14,0,0,1,.37-1.23,1.59,1.59,0,0,1,.89-.76,2.89,2.89,0,0,1,1.43,0A6.08,6.08,0,0,1,163.92,128.8Zm12.7,8.08a1.12,1.12,0,0,1,.46-.17,1.36,1.36,0,0,1,.68.24l1.9,1.09a2,2,0,0,1,.56.49,1.09,1.09,0,0,1,.2.58v.15a.64.64,0,0,1-.1.13L164.68,151a1.12,1.12,0,0,1-.46.17,1.36,1.36,0,0,1-.68-.24l-1.9-1.09a1.76,1.76,0,0,1-.56-.49,1.09,1.09,0,0,1-.2-.58.26.26,0,0,1,.1-.28Zm-11,0a2.81,2.81,0,0,0,0-.58v-1.71c0-.21,0-.41,0-.61a3.23,3.23,0,0,0-.41-1.33,3.07,3.07,0,0,0-1.27-1.18c-.61-.35-1-.46-1.32-.28a1.18,1.18,0,0,0-.42.83v2.91a3.83,3.83,0,0,0,.42,1.33,3.25,3.25,0,0,0,1.32,1.17c.61.36,1,.45,1.27.29a1.1,1.1,0,0,0,.41-.8Zm12,10.91a9.7,9.7,0,0,1,2,1.52,9.89,9.89,0,0,1,1.43,1.73,7.06,7.06,0,0,1,.89,1.78,7.75,7.75,0,0,1,.38,1.65V158a3.15,3.15,0,0,1-.38,1.23,1.56,1.56,0,0,1-.89.76,2.67,2.67,0,0,1-1.43,0,6.81,6.81,0,0,1-2-.84,10.59,10.59,0,0,1-2-1.5,10.47,10.47,0,0,1-1.45-1.73,8.71,8.71,0,0,1-.89-1.78,7.62,7.62,0,0,1-.36-1.64c0-.57-.06-1.17-.06-1.79a15.73,15.73,0,0,1,.06-1.73,3.4,3.4,0,0,1,.36-1.24,1.7,1.7,0,0,1,.89-.74,2.86,2.86,0,0,1,1.45-.08,6.6,6.6,0,0,1,2,.92Zm1.69,8.12a5.61,5.61,0,0,0,0-.58v-2.28a3.45,3.45,0,0,0-.42-1.33,3.2,3.2,0,0,0-1.32-1.18c-.62-.35-1-.46-1.27-.28a1.08,1.08,0,0,0-.41.83,5.42,5.42,0,0,0,0,.57v1.72c0,.21,0,.41,0,.62a3.28,3.28,0,0,0,.41,1.33,3.21,3.21,0,0,0,1.27,1.18c.61.35,1,.44,1.32.28a1.1,1.1,0,0,0,.42-.84Z"/>
  </g>
  <g id="freepik--Character--inject-119">
    <path class="cls-13" d="M98.54,49.85c2.57,2.19,3.9,17.85,3.9,17.85l14,19.59,8-5.39s-12.23-20.24-16.73-27.6S98.56,47,95.28,47.2C95.28,47.2,96,47.66,98.54,49.85Z"/>
    <rect class="cls-14" x="80.5" y="198.05" width="11.43" height="7.86" transform="translate(-132.51 221.79) rotate(-72.06)"/>
    <path class="cls-2" d="M89.31,205c-2.29.45-6.74-1.45-7.25-3.08l.19-.62c-.7-.35-2.28,2.73-3.36,4.74a3.72,3.72,0,0,0,.47,4.58c.77,1.11,2.06,1.63,4.34,2.65,2,.91,5.38,6.78,7.77,8.11A14.38,14.38,0,0,0,102,222.83c1.91-.61,1.84-2.38.51-3.55-2.36-2-5.72-4.94-8-7.34a32,32,0,0,1-4.19-5.5,4.45,4.45,0,0,1-.65-2.54Z"/>
    <path class="cls-14" d="M82.16,205.08c.6,1.53,4.61,6,6.08,8a11.35,11.35,0,0,0,5.5,4.23c2,.58,5.71.07,4.61-1.65h0c-1.37-1.25-2.72-2.52-3.82-3.69a32,32,0,0,1-4.19-5.5,4.38,4.38,0,0,1-.65-2.54L87.12,202c-2.29.46-2.93-.65-5,0A4.11,4.11,0,0,0,82.16,205.08Z"/>
    <path class="cls-14" d="M59.9,97.26l7.41-9L72,72.15s8.19-3.84,8.19-11.33S70.05,49.16,70.05,49.16h0c-3.69,1.43-5.19,6.1-6.35,11.26C60.49,74.73,58,84,57,92A4.39,4.39,0,0,0,59.9,97.26Z"/>
    <rect class="cls-14" x="72.79" y="213.08" width="7.64" height="11.12"/>
    <path class="cls-15" d="M108.75,97.7c3.81,11.33,3.45,56.56,1.06,60.69-2.23,3.88-18.59,42.75-18.59,42.75A12.88,12.88,0,0,1,83,197.86s3.64-25.88,5.31-32.4A53.72,53.72,0,0,1,94,152.55l-4.09-33.68s-2.37,34-3.79,41.94c-1.13,6.44-1.56,14.46-2.89,25.48-1.32,10.52-2.65,29.11-2.65,29.11a7.23,7.23,0,0,1-7.84,0s-5.38-22.12-5.53-31.31c-.16-8.7,3.09-19.92,3.09-19.92S69,151.75,68,141.13c-1-10.91-4-28.4-.95-41.36Z"/>
    <path class="cls-4" d="M93.76,47c6,.33,11.15,5.93,13.42,14.71.81,3.12.52,7.36-2.27,20.64a175.87,175.87,0,0,1,2.27,19.56c-19.31,12.43-37.3,1.09-40.13-2.18l9.84-14.08L72,72.15s8.19-15.86-1.94-23c1.3-.58,11-1.79,11-1.79Z"/>
    <path class="cls-16" d="M93.76,47c6,.33,11.15,5.93,13.42,14.71.81,3.12.52,7.36-2.27,20.64a175.87,175.87,0,0,1,2.27,19.56c-19.31,12.43-37.3,1.09-40.13-2.18l9.84-14.08L72,72.15s8.19-15.86-1.94-23c1.3-.58,11-1.79,11-1.79Z"/>
    <polygon class="cls-4" points="118.66 111.59 87.34 120.69 97.06 79.81 130 71.13 118.66 111.59"/>
    <path class="cls-4" d="M122.06,99.45l-.48,1.7c-3.84.18-5.63-2.14-5.94-3Z"/>
    <path class="cls-17" d="M122.06,99.45l-.48,1.7c-3.84.18-5.63-2.14-5.94-3Z"/>
    <path class="cls-4" d="M91.78,102.44l-.59,2s6.6.77,10.92-.67c3.78-1.27,6-3.28,6.16-4.37Z"/>
    <path class="cls-17" d="M91.78,102.44l-.59,2s6.6.77,10.92-.67c3.78-1.27,6-3.28,6.16-4.37Z"/>
    <path class="cls-4" d="M106.32,80.69l.28-1.26c.14-.69,2.32-1.78,4.86-2.45l4.85-1.26c2.53-.65,4.47-.62,4.31.08l-.26,1.25Z"/>
    <path class="cls-7" d="M106.32,80.69l.28-1.26c.14-.69,2.32-1.78,4.86-2.45l4.85-1.26c2.53-.65,4.47-.62,4.31.08l-.26,1.25Z"/>
    <path class="cls-3" d="M122.45,73l-17,4.46.23-.78a4,4,0,0,1,2.3-1.33l2-.59a6.64,6.64,0,0,1,5.19-4c4.28-.89,3.69,1.77,3.69,1.77l1.93-.53c1.06-.3,1.84-.18,1.75.25A6.41,6.41,0,0,1,122.45,73Z"/>
    <path class="cls-3" d="M120.79,73.14l-11.76,3,.1.47c1.2-.31,1.45.06,1.33.65s-.48,2.16-.48,2.16l7.52-2s.15-1,.37-2.11.88-1.27,2.43-1.66Z"/>
    <path class="cls-3" d="M106.49,80.81l.27-1.26c.16-.69,2.32-1.78,4.86-2.45l4.86-1.26c2.53-.72,4.47-.77,4.31,0s-.27,1.33-.27,1.33Z"/>
    <path class="cls-14" d="M86.13,103.14c1.45.1,2.78.24,4.11.42a44.81,44.81,0,0,0,5.31.35c4.22,0,10.28-.53,13.41-5.31s-1.87-6.49-5.39-5.31-9.54.35-9.3-.7,1-4.31,1-4.31-2-.31-3,2.25-3,5.14-5.67,4.94-19.31-7.2-19.31-7.2l-7.41,9C63.84,98.48,77.51,102.48,86.13,103.14Z"/>
    <path class="cls-14" d="M128.84,84.59c-.56,2.39.13,6.64-1.19,10.63-1.11,3.13-3.87,5.06-5.9,5.15s-6-.62-7.08-3.75c-1.09-3.38,1.57-4.17,4-4.83s6.24-2.5,6.53-3.49l1.46-5.22C127.86,81.7,129.4,82.2,128.84,84.59Z"/>
    <path class="cls-2" d="M76.61,221.58a6.08,6.08,0,0,1-3.82-1.33v-.84c-.46-.17-.84,1.33-1.2,2.66a9.12,9.12,0,0,0-.44,4c.51,1.45,2.63,2.86,3.56,4.11s.89,2.8,2.87,5.07a12.63,12.63,0,0,0,7.84,4.1c3.12.31,7.83-.81,7-3.25s-4.11-5-6.53-7.18a21.22,21.22,0,0,1-5.46-9.57v1.11C80.44,221.29,77.73,221.51,76.61,221.58Z"/>
    <path class="cls-14" d="M77.66,229.11c2.31,2.8,5,4.63,8,4.35s3.42-1.5,2.1-2.93c-.64-.56-1.27-1.1-1.85-1.63a21.22,21.22,0,0,1-5.46-9.57H78.34c0,.85-1.88,0-3,0-1.73-.05-2,1.45-2.56.84A49.32,49.32,0,0,0,77.66,229.11Z"/>
    <path class="cls-2" d="M70.16,23.34V21.67h0A14.78,14.78,0,0,1,84.94,6.89h7.12a14.78,14.78,0,0,1,14.78,14.78v1.77h0a17.4,17.4,0,0,1-17.4,17.39H87.63A17.48,17.48,0,0,1,70.16,23.34Z"/>
    <path class="cls-14" d="M92.67,26.05A20.83,20.83,0,0,1,82.84,29a3.79,3.79,0,0,0-6-1.19c-1.7,1.71-1,4.93,1.21,6.83,2.64,2.31,4.19.79,4.19.79l-.06,12a27.57,27.57,0,0,0,6.29,6.86c3.38,2.33,8.45,1.78,8.69-.61S93.72,47,93.72,47v-5.2c2.64.44,5.36.83,6.77.2s4.21-2.76,4.41-11.42c.24-10.21-2.15-15.08-4.09-16.23A15.86,15.86,0,0,1,92.67,26.05Z"/>
    <path class="cls-2" d="M95.28,28.38a1.09,1.09,0,0,0-1.13-1.05,1.11,1.11,0,0,0-1.05,1.14,1.14,1.14,0,0,0,1.16,1.09h0a1.1,1.1,0,0,0,1-1.18Z"/>
    <path class="cls-13" d="M95.5,35.75a1.32,1.32,0,0,0,2.54.74l-2.52-.81S95.51,35.73,95.5,35.75Z"/>
    <path class="cls-2" d="M104.2,25A1.34,1.34,0,0,0,102,23.53l2.2,1.53Z"/>
    <path class="cls-2" d="M103.65,27.57a1.11,1.11,0,0,0-1.14-1.07,1.09,1.09,0,1,0,1.14,1.08Z"/>
    <polygon class="cls-13" points="102.14 32.44 98.68 33.52 98.51 26.97 102.14 32.44"/>
    <path class="cls-13" d="M93.72,43.49s-5.69-1.65-7.4-3.11a5.84,5.84,0,0,1-2-2.89c.89,2.25,6.62,3.9,9.41,4.27Z"/>
    <polygon class="cls-4" points="76.89 85.66 81.62 88 73.99 77.67 76.89 85.66"/>
    <polygon class="cls-18" points="76.89 85.66 81.62 88 73.99 77.67 76.89 85.66"/>
  </g>
</svg>
