<svg id="Layer_1" data-name="Layer 1" xmlns="http://www.w3.org/2000/svg" width="300" height="300" viewBox="0 0 300 300">
  <defs>
    <style>
      .cls-1 {
        fill: none;
      }

      .cls-2 {
        fill: #0a8675;
      }

      .cls-3 {
        fill: #fafafa;
      }

      .cls-32, .cls-4 {
        opacity: 0.05;
      }

      .cls-16, .cls-29, .cls-32, .cls-5, .cls-7 {
        fill: #6c58b8;
      }

      .cls-6 {
        fill: #abfff3;
      }

      .cls-11, .cls-16, .cls-17, .cls-18, .cls-25, .cls-26, .cls-29, .cls-30, .cls-31, .cls-32, .cls-33, .cls-34, .cls-36, .cls-37, .cls-38, .cls-7 {
        isolation: isolate;
      }

      .cls-36, .cls-7 {
        opacity: 0.15;
      }

      .cls-8 {
        fill: #dad5ed;
      }

      .cls-9 {
        fill: #6ed1c3;
      }

      .cls-10, .cls-25, .cls-26, .cls-31 {
        fill: #472ea6;
      }

      .cls-11, .cls-17, .cls-18, .cls-23, .cls-33, .cls-34, .cls-36, .cls-37, .cls-38 {
        fill: #fff;
      }

      .cls-11, .cls-24, .cls-30 {
        opacity: 0.5;
      }

      .cls-12, .cls-30 {
        fill: #12263f;
      }

      .cls-13 {
        fill: #9e6767;
      }

      .cls-14 {
        fill: #874c4c;
      }

      .cls-15 {
        fill: #f28f8f;
      }

      .cls-16, .cls-25, .cls-38 {
        opacity: 0.2;
      }

      .cls-17 {
        opacity: 0.7;
      }

      .cls-18 {
        opacity: 0.4;
      }

      .cls-19 {
        fill: #455a64;
      }

      .cls-20 {
        fill: #ffa8a7;
      }

      .cls-21, .cls-31 {
        opacity: 0.1;
      }

      .cls-22, .cls-26, .cls-29, .cls-37 {
        opacity: 0.3;
      }

      .cls-27 {
        fill: #ffbda7;
      }

      .cls-28 {
        fill: #f0997a;
      }

      .cls-33 {
        opacity: 0.6;
      }

      .cls-34 {
        opacity: 0.8;
      }

      .cls-35 {
        fill: #168071;
      }
    </style>
  </defs>
  <rect class="cls-1" width="300" height="300"/>
  <g id="freepik--Floor--inject-9">
    <g id="freepik--Mountains--inject-9">
      <g id="freepik--mountains--inject-9-2" data-name="freepik--mountains--inject-9">
        <path class="cls-2" d="M271.5,113.31,246.26,65.39a1.54,1.54,0,0,0-2.43,0L232.52,86.32l-10.4-13.54a2.74,2.74,0,0,0-3.86-.3,2.83,2.83,0,0,0-.3.3L207.51,86.32,181,46a2.71,2.71,0,0,0-3.79-.56,2.4,2.4,0,0,0-.59.6L155,80.08l-16.9-21a2.75,2.75,0,0,0-3.84-.53l-.31.28L123.73,70.06,101.06,36a2.7,2.7,0,0,0-3.78-.55,2.78,2.78,0,0,0-.63.65L67.41,85.91,53,64.79a3,3,0,0,0-4.82.18L22.06,111.46V175.1H271.5Z"/>
        <path class="cls-3" d="M47.86,69.06a2.45,2.45,0,0,1,2.54-.21L52.66,70a2.5,2.5,0,0,0,2.58-.23l.73-.59-3-4.37a3,3,0,0,0-4.82.18l-3.49,6.14a2.27,2.27,0,0,0,1-.41Z"/>
        <path class="cls-3" d="M244,65l-4.34,8.25.56.8a1.59,1.59,0,0,0,2.22.29l.16-.15,1.78-1.92a1.58,1.58,0,0,1,2.25,0h0l.59.64a1.57,1.57,0,0,0,2.22,0,2,2,0,0,0,.25-.33l.15-.36L246.08,65a1.23,1.23,0,0,0-1.69-.41A1.42,1.42,0,0,0,244,65Z"/>
        <path class="cls-3" d="M134,58.83l-4.26,4.71L131.13,65a1.92,1.92,0,0,0,2.66,0l.93-1a1.91,1.91,0,0,1,2.64-.05h0a1.88,1.88,0,0,0,2.67-.1s.09-.1.13-.16l.71-1.09-2.78-3.45a2.74,2.74,0,0,0-3.82-.55A2.92,2.92,0,0,0,134,58.83Z"/>
        <path class="cls-3" d="M176.61,46l-8.1,12.75,1,1.74a2,2,0,0,0,2.84.57,2.25,2.25,0,0,0,.46-.41l1.78-2.44a2.07,2.07,0,0,1,2.91-.29l.14.13h0a2.09,2.09,0,0,0,2.95,0l0,0,1.87-2.19a2.07,2.07,0,0,1,2.7-.32l3.7,2.5L181,46a2.7,2.7,0,0,0-3.78-.57A2.48,2.48,0,0,0,176.61,46Z"/>
        <path class="cls-3" d="M217.93,72.78l-4.65,6L217,77a1.39,1.39,0,0,1,1.62.28l1,1.12a1.38,1.38,0,0,0,1.86.11l.84-.72a1.41,1.41,0,0,1,1.74,0l5.37,4.49h0l-7.29-9.5a2.74,2.74,0,0,0-3.86-.3A2.34,2.34,0,0,0,217.93,72.78Z"/>
        <path class="cls-3" d="M96.63,36.13l-5.31,9,.59.82a2.54,2.54,0,0,0,3.58.4l.13-.11,1.56-1.51a2.58,2.58,0,0,1,3.46,0L104,48a2.58,2.58,0,0,0,3.48,0l.91-.92-7.33-11a2.71,2.71,0,0,0-3.79-.56A2.55,2.55,0,0,0,96.63,36.13Z"/>
        <g class="cls-4">
          <polygon class="cls-5" points="54.33 66.78 45.04 78.99 50.5 78.99 46.44 92.35 55.04 84.85 62.3 94.95 67.41 85.91 54.33 66.78"/>
          <polygon class="cls-5" points="101.36 36.5 107.52 61.48 97.6 71.43 96.26 100.55 123.73 70.07 101.36 36.5"/>
          <polygon class="cls-5" points="138.87 60.05 135.12 68.93 140.12 68.93 131.13 88.78 145.13 78.93 151.51 85.88 155 80.07 138.87 60.05"/>
          <polygon class="cls-5" points="207.51 86.32 182.57 48.37 187.63 66.43 179.11 77.17 200.14 82.68 193.38 89.3 196.93 93.12 191.46 107.47 207.51 86.32"/>
          <polygon class="cls-5" points="222.1 72.78 217.82 83.97 223.59 83.28 224.4 98.03 232.52 86.32 222.1 72.78"/>
          <polygon class="cls-5" points="271.5 175.07 271.5 113.31 247.92 68.45 261.18 105.8 251.53 124.27 262.24 121.73 237.14 175.07 271.5 175.07"/>
        </g>
      </g>
    </g>
    <g id="freepik--Shrubbery--inject-9">
      <path class="cls-6" d="M287,168.91a4.56,4.56,0,0,0-2.63-3,2.63,2.63,0,0,0,1.54-2.61,7,7,0,0,0-1.06-3,3.44,3.44,0,0,0-.34-6.5c1.19-1.5,1.78-3.75.62-5.29-.93-1.26-2.67-1.6-4.25-1.59s-3.18.36-4,1.62a3.11,3.11,0,0,0-3.46-2.72,3,3,0,0,0-.59.13,4,4,0,0,0,.71-1.5,4.89,4.89,0,0,0-.59-3.77,2.73,2.73,0,0,0-1.28-1.23,1.8,1.8,0,0,0-.65,0,13.24,13.24,0,0,0-2.09,0,5.17,5.17,0,0,0-7.61-6,4.39,4.39,0,0,0-8.68-1.11,3.24,3.24,0,0,0-6.26.59,4.54,4.54,0,0,0-4-5.05h-.14a2.9,2.9,0,0,0,2.11-3.08,4.3,4.3,0,0,0-2.25-3.23,2.73,2.73,0,0,0-2.08-4.82,3.84,3.84,0,0,0-3.91-3.28,4.77,4.77,0,0,0-4.16,3.27,4.82,4.82,0,0,0-6.86,5.62,6.81,6.81,0,0,0-3.49-1.93,3.2,3.2,0,0,0-3.4,1.61,5.87,5.87,0,0,0-2.52-3.44,2.94,2.94,0,0,0-3.86.81,5.8,5.8,0,0,0-.75-2.06,6.44,6.44,0,0,0-.65-.9c-.11-.11-.2-.24-.31-.34s-.06-.08-.1-.11-.66-.39-.78-.33c1.4-.6,1.49-2.77.44-3.88a5,5,0,0,0-4.24-1.18,3.39,3.39,0,1,0-6.77-.33v.28c-.7-1.46-3-1.47-4.15-.39a7.73,7.73,0,0,0-2,4.35,4.64,4.64,0,0,0-5.89-.6,4.4,4.4,0,0,0-3.29-5.28l-.31-.06c1.06-2-1.09-4.47-3.33-4.52s-4.2,1.51-5.69,3.19c-3.2-1.66-7.67,1.38-7.31,5a6,6,0,0,0-9.17.4,4.65,4.65,0,0,0-5.61-3.14c.95-2.92-2.81-6.08-5.53-4.63a3.48,3.48,0,0,0-6.95.08,3.22,3.22,0,0,0,.15,1c-3.14-.33-5.78,3.63-4.28,6.39a4,4,0,0,0-5.34,1.13,2,2,0,0,0-2.55-2.38,2.92,2.92,0,0,0-5.49-2c0-1.78-2.25-2.83-3.87-2.18a5.57,5.57,0,0,0-3,4.08c-1.06-2.45-5.12-2.69-6.46-.38a5.37,5.37,0,0,0-10.68-1,4.59,4.59,0,0,0-8.39,3.56c-3.21-.53-5.68,4.23-3.42,6.53a3.11,3.11,0,0,0-5,.67A2.94,2.94,0,0,0,78,116.49a3.44,3.44,0,1,0-6.63-1.8c-1.19-2.12-4.64-1.72-6.19.15s-1.74,4.47-1.85,6.9c-1.25-.93-3.19.18-3.57,1.69A5.71,5.71,0,0,0,61,127.78a4.84,4.84,0,0,0-5.62,3A2.91,2.91,0,0,0,50,128.7c-.08-2.2-3.56-2.82-5-1.19s-1.31,4.19-.56,6.26c-1.19-1.85-4.42-1-5.25,1.09s.08,4.37,1.31,6.2A3.87,3.87,0,0,0,36,145.49c-2.06-2-6.22.45-5.5,3.21-.6-2-3.64-2.29-5.23-.91s-2,3.65-2,5.75c-.71-1.52-3.17-1.26-4.16.07s-1,3.16-.88,4.83c-2.11-.95-4.7,1.84-3.59,3.87a6.67,6.67,0,0,0,1.48,12.79H285.71C286.8,174.25,287.28,170.25,287,168.91Z"/>
      <path class="cls-7" d="M287,168.91a4.56,4.56,0,0,0-2.63-3,2.63,2.63,0,0,0,1.54-2.61,7,7,0,0,0-1.06-3,3.44,3.44,0,0,0-.34-6.5c1.19-1.5,1.78-3.75.62-5.29-.93-1.26-2.67-1.6-4.25-1.59s-3.18.36-4,1.62a3.11,3.11,0,0,0-3.46-2.72,3,3,0,0,0-.59.13,4,4,0,0,0,.71-1.5,4.89,4.89,0,0,0-.59-3.77,2.73,2.73,0,0,0-1.28-1.23,1.8,1.8,0,0,0-.65,0,13.24,13.24,0,0,0-2.09,0,5.17,5.17,0,0,0-7.61-6,4.39,4.39,0,0,0-8.68-1.11,3.24,3.24,0,0,0-6.26.59,4.54,4.54,0,0,0-4-5.05h-.14a2.9,2.9,0,0,0,2.11-3.08,4.3,4.3,0,0,0-2.25-3.23,2.73,2.73,0,0,0-2.08-4.82,3.84,3.84,0,0,0-3.91-3.28,4.77,4.77,0,0,0-4.16,3.27,4.82,4.82,0,0,0-6.86,5.62,6.81,6.81,0,0,0-3.49-1.93,3.2,3.2,0,0,0-3.4,1.61,5.87,5.87,0,0,0-2.52-3.44,2.94,2.94,0,0,0-3.86.81,5.8,5.8,0,0,0-.75-2.06,6.44,6.44,0,0,0-.65-.9c-.11-.11-.2-.24-.31-.34s-.06-.08-.1-.11-.66-.39-.78-.33c1.4-.6,1.49-2.77.44-3.88a5,5,0,0,0-4.24-1.18,3.39,3.39,0,1,0-6.77-.33v.28c-.7-1.46-3-1.47-4.15-.39a7.73,7.73,0,0,0-2,4.35,4.64,4.64,0,0,0-5.89-.6,4.4,4.4,0,0,0-3.29-5.28l-.31-.06c1.06-2-1.09-4.47-3.33-4.52s-4.2,1.51-5.69,3.19c-3.2-1.66-7.67,1.38-7.31,5a6,6,0,0,0-9.17.4,4.65,4.65,0,0,0-5.61-3.14c.95-2.92-2.81-6.08-5.53-4.63a3.48,3.48,0,0,0-6.95.08,3.22,3.22,0,0,0,.15,1c-3.14-.33-5.78,3.63-4.28,6.39a4,4,0,0,0-5.34,1.13,2,2,0,0,0-2.55-2.38,2.92,2.92,0,0,0-5.49-2c0-1.78-2.25-2.83-3.87-2.18a5.57,5.57,0,0,0-3,4.08c-1.06-2.45-5.12-2.69-6.46-.38a5.37,5.37,0,0,0-10.68-1,4.59,4.59,0,0,0-8.39,3.56c-3.21-.53-5.68,4.23-3.42,6.53a3.11,3.11,0,0,0-5,.67A2.94,2.94,0,0,0,78,116.49a3.44,3.44,0,1,0-6.63-1.8c-1.19-2.12-4.64-1.72-6.19.15s-1.74,4.47-1.85,6.9c-1.25-.93-3.19.18-3.57,1.69A5.71,5.71,0,0,0,61,127.78a4.84,4.84,0,0,0-5.62,3A2.91,2.91,0,0,0,50,128.7c-.08-2.2-3.56-2.82-5-1.19s-1.31,4.19-.56,6.26c-1.19-1.85-4.42-1-5.25,1.09s.08,4.37,1.31,6.2A3.87,3.87,0,0,0,36,145.49c-2.06-2-6.22.45-5.5,3.21-.6-2-3.64-2.29-5.23-.91s-2,3.65-2,5.75c-.71-1.52-3.17-1.26-4.16.07s-1,3.16-.88,4.83c-2.11-.95-4.7,1.84-3.59,3.87a6.67,6.67,0,0,0,1.48,12.79H285.71C286.8,174.25,287.28,170.25,287,168.91Z"/>
    </g>
    <g id="freepik--floor--inject-9-2" data-name="freepik--floor--inject-9">
      <ellipse id="freepik--Grass--inject-9" class="cls-8" cx="148.95" cy="201.44" rx="145.23" ry="88.88"/>
      <path class="cls-6" d="M252.1,141.83c-56.72-34.71-148.67-34.71-205.39,0C.06,170.35-8.21,213.51,21.89,247.24c-.06-.19-.11-.39-.16-.59a68.3,68.3,0,0,1-1.26-10.26c-.26-3.2-1.53-8.34,1.93-10.27,1.78-1,3.84-.73,5.77-.73,4.22,0,11.32-1.44,12.21-6.93,1-6.12-9.07-5-12-6.23-5.39-2.3,2.13-9.86,3.69-11.69-.71,3.92,4.15,4.78,6.78,4.27,3.47-.63,6.44-1.6,9-4.06,1.19-1.19,3.41-3.38,3.7-5.45a2.64,2.64,0,0,0-.35-1.8c-1.25-2-4.65-1.13-6.61-1.25.91-3.31,4.6-5.52,5.39-8.9.92-4,2.5-5.67,6.09-7.62,2.91-1.59,7.51-2.55,8.9-6,1-2.54-1.15-5.45-2.38-7.54-.93-1.57-1.45-3-.39-4.79.88-1.52,5-4.68,6.9-3.83.86.39.78,1.78,1.58,2.61,1.44,1.48,3.7,1.36,5.56,1.19,3.56-.31,8.63-2.34,10.62-5.61,3.61-5.93-4.45-6.48-7.89-6.65-.34-3.7,7.49-6.13,9.66-6.89,5.2-1.78,10.63-2.55,16-3.72,3.07-.67,6.11-1.84,9.24-2.18,2.3-.26,4.68.15,6.95-.34,4.75-1,7-3.89,9.19-7.24l2,1.23c4.35,2.62,8.55,4.74,13.7,5,3.1.14,5.86-1,8.9-1.29s8.08-.13,10.16,2.45c-.88,1.23-2.3,2.34-2.59,4-.65,3.64,3,5.48,5.6,6.48,3.56,1.35,12.71,2.7,13.1-3.39a16.2,16.2,0,0,1,9.83,2.92,37.21,37.21,0,0,0,4,2.59c1.66.78,3.38,1.47,5.06,2.23,1.33.59,2.83,1.19,2.25,2.8-.95,2.61-5.43,3.17-1.19,6.13,4.53,3.18,10.55,2.67,15.36,5.51-1.37.23-8.21-.26-8.65,1.89-.6,2.8,5.77,4.91,7.54,5.59,4.38,1.66,10.05,3.44,14.73,3.21,4-.2,6.76-3.18,3.17-6.74,5.93.44,12.4,5,17.94,7.27,0,2.27-2.15,1.51-2.72,3.05-1.06,2.93,1.78,4.39,3.78,5.75s11.08,5.93,11.22.76c0,1.62,2.37,1.84,3.33,2.51a8.5,8.5,0,0,1,1.06.84h-.09l.25.15a8.61,8.61,0,0,1,2.68,5,33.06,33.06,0,0,1-.36,10.22c-1.06,6.23-5.17,9.63-10.69,11.67-5.17,1.93-11.5,3.73-13.84,9.64-2.26,5.72,7.16,7.56,10.79,8,5,.6,15.66,1.46,15.79-6.2,0-1.61-1.68-3.6-.7-4.66,1.23-1.35,5.83-.41,7.35-.28,3.12.28,6.17-.43,7.48-3.82.74-1.87-.3-4.22.37-6,.47-1.23,2.23-2.09,3.25-2.92a12.83,12.83,0,0,0,4.15-6,6.92,6.92,0,0,1,.39-.88C292.33,178.42,278.25,157.83,252.1,141.83Z"/>
    </g>
    <g id="freepik--Pines--inject-9">
      <g id="freepik--Pine--inject-9">
        <path class="cls-9" d="M33.07,152.78c-3.33,2.46-18.58,2.12-22,0-.3-1.33-.15-4.29.33-8.18l4.09,2.2-3.7-5.19c.54-3.77,1.29-8.13,2.18-12.59l2.53,1.41-2.16-3.25c.17-.84.34-1.67.52-2.51l2.89,1.42-2.48-3.32c.73-3.37,1.52-6.67,2.31-9.71l2.3.67-1.78-2.64c.81-3,1.61-5.64,2.37-7.72a1.71,1.71,0,0,1,3.22,0c1,2.83,2.13,6.67,3.23,11l-2,3.42,2.37-2.09c.49,2,1,4.06,1.44,6.16l-3.27,5.8,3.94-2.76c.65,3.09,1.25,6.19,1.78,9.15l-3.2,3.18,3.56-1.14.18,1.07-3.27,4.41,3.66-2C33,145.88,33.5,150.93,33.07,152.78Z"/>
        <path class="cls-6" d="M22.87,138.62l4.64-8.75-4.74,5.79L22,108.52,21.44,125l-3.31-4.78L21.34,128l-.6,16.73-6.3-5.82,6.29,8.28-.53,17.95c0,1,3.31,1,3.31,0l-.64-26.51Z"/>
      </g>
      <g id="freepik--pine--inject-9-2" data-name="freepik--pine--inject-9">
        <path class="cls-9" d="M63.47,131.32c-2.74,2-15.32,1.75-18.15,0a18.35,18.35,0,0,1,0-4.74l3.27,1.18-3-3.27c.35-2.85.89-6.3,1.56-9.94l1.85.77-1.6-2c.06-.35.13-.72.2-1.07L52,114.44l-3.79-5.17c.59-2.84,1.22-5.68,1.87-8.35l2.86,2.38-2.47-3.91c.18-.71.36-1.41.54-2.08l2.53,1.37-2.08-3c.56-1.94,1.1-3.67,1.61-5.08a1.41,1.41,0,0,1,1.8-.86,1.46,1.46,0,0,1,.86.86c.76,2.12,1.59,4.94,2.42,8.11-.72,1.67-1.29,3-1.29,3l1.82-.85c.2.81.39,1.64.59,2.48-.86,2.64-1.94,5.93-1.94,6l2.38-4.21C62.16,116.1,64.13,128.43,63.47,131.32Z"/>
        <path class="cls-6" d="M55.06,119.64l3.86-7.21L55,117.18l-.6-22.37L54,108.42l-2.75-3.91,2.64,6.4-.47,13.78-5.2-4.78,5.12,6.8-.43,12.65c0,.81,2.72.81,2.72,0l-.53-19.71Z"/>
      </g>
      <g id="freepik--pine--inject-9-3" data-name="freepik--pine--inject-9">
        <path class="cls-9" d="M268.06,139.21c-3.19,2.37-17.81,2-21.07,0a16.38,16.38,0,0,1-.07-4l5,2.28-4.74-4.75c.28-2.64.74-5.86,1.34-9.34l1.82,1-1.66-1.91c.34-2,.72-4,1.13-6.07l3,2.37-2.64-4c.08-.43.17-.86.26-1.28l4.05,3.34L251,110.58c.64-2.89,1.31-5.74,2-8.39l2.65,2c-.06-.11-1.12-1.91-2.18-3.78.88-3.31,1.75-6.25,2.57-8.52a1.64,1.64,0,0,1,2.11-1,1.61,1.61,0,0,1,1,1c.78,2.16,1.62,4.92,2.45,8h0l-1.62,3.56,1.93-2.38c.52,2,1,4.12,1.53,6.29l-3.46,7.64L264,110.2c.07.3.14.6.2.9l-1.67,4,1.94-2.69c.7,3.33,1.35,6.67,1.91,9.83l-4.8,5.79,5.19-3.47c.12.73.24,1.45.34,2.14l-2.43,2.7,2.72-.79C268.11,133.69,268.41,137.65,268.06,139.21Z"/>
        <path class="cls-7" d="M268.06,139.21c-3.19,2.37-17.81,2-21.07,0a16.38,16.38,0,0,1-.07-4l5,2.28-4.74-4.75c.28-2.64.74-5.86,1.34-9.34l1.82,1-1.66-1.91c.34-2,.72-4,1.13-6.07l3,2.37-2.64-4c.08-.43.17-.86.26-1.28l4.05,3.34L251,110.58c.64-2.89,1.31-5.74,2-8.39l2.65,2c-.06-.11-1.12-1.91-2.18-3.78.88-3.31,1.75-6.25,2.57-8.52a1.64,1.64,0,0,1,2.11-1,1.61,1.61,0,0,1,1,1c.78,2.16,1.62,4.92,2.45,8h0l-1.62,3.56,1.93-2.38c.52,2,1,4.12,1.53,6.29l-3.46,7.64L264,110.2c.07.3.14.6.2.9l-1.67,4,1.94-2.69c.7,3.33,1.35,6.67,1.91,9.83l-4.8,5.79,5.19-3.47c.12.73.24,1.45.34,2.14l-2.43,2.7,2.72-.79C268.11,133.69,268.41,137.65,268.06,139.21Z"/>
        <path class="cls-9" d="M258.32,125.66l4.44-8.36-4.51,5.54-.7-25.95L257,112.68l-3.17-4.57,3.07,7.42-.55,16-6-5.55,5.93,7.88-.5,14.68c0,.94,3.16.94,3.16,0l-.59-22.87Z"/>
      </g>
      <g id="freepik--pine--inject-9-4" data-name="freepik--pine--inject-9">
        <path class="cls-9" d="M127.24,111.3c-3.31,2.45-18.5,2.11-21.92,0-.53-2.32.34-9.67,1.86-18.22l3.44,2.52-3.11-4.32c.21-1.18.44-2.37.68-3.59l4.86,2.67-4.15-6.23c.59-2.92,1.26-5.83,1.93-8.6l2.35,1.61-1.86-3.52.42-1.66,2.17,1.38-1.71-3.1c.84-3.16,1.69-5.94,2.48-8.14a1.71,1.71,0,0,1,2.19-1,1.74,1.74,0,0,1,1,1c.68,1.89,1.4,4.24,2.13,6.88h0l-1.38,3.56,1.71-2.37c.37,1.38.74,2.82,1.1,4.31l-2.81,5.24,3.35-3,.18.74h0l-1.09,3,1.34-1.84c.8,3.52,1.57,7.19,2.25,10.74l-3.74,6.23,4.16-4c.24,1.33.47,2.64.68,3.91l-3.28,5.67,3.7-3.06C127.17,104.41,127.66,109.45,127.24,111.3Z"/>
        <path class="cls-7" d="M127.24,111.3c-3.31,2.45-18.5,2.11-21.92,0-.53-2.32.34-9.67,1.86-18.22l3.44,2.52-3.11-4.32c.21-1.18.44-2.37.68-3.59l4.86,2.67-4.15-6.23c.59-2.92,1.26-5.83,1.93-8.6l2.35,1.61-1.86-3.52.42-1.66,2.17,1.38-1.71-3.1c.84-3.16,1.69-5.94,2.48-8.14a1.71,1.71,0,0,1,2.19-1,1.74,1.74,0,0,1,1,1c.68,1.89,1.4,4.24,2.13,6.88h0l-1.38,3.56,1.71-2.37c.37,1.38.74,2.82,1.1,4.31l-2.81,5.24,3.35-3,.18.74h0l-1.09,3,1.34-1.84c.8,3.52,1.57,7.19,2.25,10.74l-3.74,6.23,4.16-4c.24,1.33.47,2.64.68,3.91l-3.28,5.67,3.7-3.06C127.17,104.41,127.66,109.45,127.24,111.3Z"/>
        <path class="cls-9" d="M117.08,97.19l4.63-8.7L117,94.25l-.72-27-.59,16.44-3.3-4.75,3.2,7.71L115,103.3l-6.22-5.79,6.19,8.21L114.44,121c0,1,3.29,1,3.29,0Z"/>
      </g>
      <g id="freepik--pine--inject-9-5" data-name="freepik--pine--inject-9">
        <path class="cls-9" d="M109.82,116c-3.43,2.12-18.69,2.46-22,0a22.65,22.65,0,0,1,.08-5.94L91,111.72l-2.89-3.85c.29-2.46.71-5.31,1.24-8.35l4.27,2.62-3.68-6c.08-.41.15-.83.24-1.25l2.59,1.7-2.34-3.06c.59-3.07,1.25-6.21,1.94-9.27l4,4-3.19-7.49c.26-1.06.52-2.11.78-3.13L97,79.9l-2.21-5.58c.81-3,1.62-5.65,2.37-7.75a1.72,1.72,0,0,1,3.23,0c.69,1.92,1.42,4.3,2.17,7h0L101,78.34l2.17-2.78c.81,3.08,1.62,6.45,2.37,9.91l-3.11,6.78,3.78-3.69c.2,1,.41,2,.59,3l-1.21,2.27,1.5-1c.71,3.66,1.34,7.23,1.84,10.46l-3.53,4.63,3.88-2.15C109.91,110.67,110.18,114.44,109.82,116Z"/>
        <path class="cls-6" d="M104.54,97.12l-4.63,6.53-.48-14.13,2.49-8.44-2.59,5.77-.52-15.14-.59,21.84-2.6-3.1,2.52,6-.33,12.4-5.34-5.34,5.27,9-.36,13.29c0,1,3.31,1,3.31,0l-.59-17.86Z"/>
      </g>
      <g id="freepik--pine--inject-9-6" data-name="freepik--pine--inject-9">
        <path class="cls-9" d="M283.89,148.14c-3.6,2.21-19.58,2.57-23.1,0-.31-1.4-.15-4.53.35-8.65l4.53,1.94-4.15-4.64c.4-2.82.91-6,1.51-9.25l2.78,1.19-2.6-2.19c.15-.77.29-1.53.44-2.3l4.63,2.66-4.15-5c.51-2.55,1.06-5.12,1.64-7.63l2.37,1.28-2-3.31c.6-2.45,1.73-6.84,2.33-9l2.43,1.93-2.06-3.26c.6-2.09,1.19-4,1.79-5.55a1.77,1.77,0,0,1,2.24-1.14A1.8,1.8,0,0,1,274,96.33c.86,2.41,1.78,5.51,2.72,9h0l-1.89,4.29,2.52-1.9c.65,2.58,1.29,5.34,1.92,8.1h0l-3.19,8,3.79-5.08c.23,1.07.45,2.14.67,3.2l-2.26,4.43,2.58-2.77c.63,3.16,1.19,6.26,1.65,9.15h0l-5.16,8.11,5.59-5.34c.14.88.26,1.72.36,2.53l-3.9,4.79,4.21-2.25A28.5,28.5,0,0,1,283.89,148.14Z"/>
        <path class="cls-6" d="M278.34,128.35l-4.85,6.86L273,120.4l2.62-8.85-2.71,6-.55-15.87-.59,22.89L269,121.37l2.65,6.26-.35,13-5.63-5.6,5.53,9.4-.38,15.84c0,1,3.47,1,3.47,0l-.64-20.65Z"/>
      </g>
      <g id="freepik--pine--inject-9-7" data-name="freepik--pine--inject-9">
        <path class="cls-9" d="M196.26,113c-3.4,2.09-18.47,2.42-21.75,0-.3-1.31-.15-4.22.31-8l4.27,2.52-3.86-5.58c.43-3.06,1-6.53,1.7-10.09l2.92,2-2.55-3.9c.07-.41.16-.81.23-1.19L181.09,91,178,86.48c.64-3.08,1.33-6.16,2-9.08L184,80l-3.48-4.51c.2-.79.4-1.56.6-2.32L184,75.35l-2.37-3.95c.76-2.77,1.51-5.24,2.23-7.22a1.68,1.68,0,0,1,2.16-1,1.7,1.7,0,0,1,1,1c.59,1.66,1.23,3.67,1.87,5.94h0l-1.41,3.69,1.74-2.38v0c.94,3.43,1.9,7.35,2.78,11.37l-2.27,8.06,3-4.55c.6,2.77,1.12,5.54,1.6,8.21h0L191,105.57l4.1-6.38C196.18,105.76,196.69,111.06,196.26,113Z"/>
        <path class="cls-7" d="M196.26,113c-3.4,2.09-18.47,2.42-21.75,0-.3-1.31-.15-4.22.31-8l4.27,2.52-3.86-5.58c.43-3.06,1-6.53,1.7-10.09l2.92,2-2.55-3.9c.07-.41.16-.81.23-1.19L181.09,91,178,86.48c.64-3.08,1.33-6.16,2-9.08L184,80l-3.48-4.51c.2-.79.4-1.56.6-2.32L184,75.35l-2.37-3.95c.76-2.77,1.51-5.24,2.23-7.22a1.68,1.68,0,0,1,2.16-1,1.7,1.7,0,0,1,1,1c.59,1.66,1.23,3.67,1.87,5.94h0l-1.41,3.69,1.74-2.38v0c.94,3.43,1.9,7.35,2.78,11.37l-2.27,8.06,3-4.55c.6,2.77,1.12,5.54,1.6,8.21h0L191,105.57l4.1-6.38C196.18,105.76,196.69,111.06,196.26,113Z"/>
        <path class="cls-9" d="M191,94.32l-4.57,6.47-.48-14,2.47-8.3-2.56,5.69-.51-14.94-.59,21.56-2.57-3.06,2.49,5.89-.33,12.24-5.3-5.27,5.2,8.85-.35,13.12c0,1,3.26,1,3.26,0L186.6,105Z"/>
      </g>
      <g id="freepik--pine--inject-9-8" data-name="freepik--pine--inject-9">
        <path class="cls-9" d="M77.47,125.58c-3.1,1.9-16.85,2.21-19.85,0a11.1,11.1,0,0,1-.13-2.51l3.21,1.43-3-4.59c.19-1.89.48-4.12.86-6.53L61.73,115l-2.75-4c.07-.39.14-.78.21-1.19l5,2.93-4.43-6.53c.69-3.56,1.47-7.33,2.29-10.89L65,97.58,62.7,92.83,63,91.49l2.9,2.3-2.22-4.93c.81-3.06,1.62-5.78,2.38-7.89A1.54,1.54,0,0,1,69,81c.73,2,1.51,4.61,2.29,7.52l-.87,5.3,1.66-2.21c.74,3,1.46,6.13,2.13,9.32L72,107.74,74.83,104c.64,3.22,1.18,6.39,1.66,9.27l-1.27,3.1,1.59-1c.11.76.21,1.51.3,2.22l-2.76,4.66,3-2.44A21.32,21.32,0,0,1,77.47,125.58Z"/>
        <path class="cls-7" d="M77.47,125.58c-3.1,1.9-16.85,2.21-19.85,0a11.1,11.1,0,0,1-.13-2.51l3.21,1.43-3-4.59c.19-1.89.48-4.12.86-6.53L61.73,115l-2.75-4c.07-.39.14-.78.21-1.19l5,2.93-4.43-6.53c.69-3.56,1.47-7.33,2.29-10.89L65,97.58,62.7,92.83,63,91.49l2.9,2.3-2.22-4.93c.81-3.06,1.62-5.78,2.38-7.89A1.54,1.54,0,0,1,69,81c.73,2,1.51,4.61,2.29,7.52l-.87,5.3,1.66-2.21c.74,3,1.46,6.13,2.13,9.32L72,107.74,74.83,104c.64,3.22,1.18,6.39,1.66,9.27l-1.27,3.1,1.59-1c.11.76.21,1.51.3,2.22l-2.76,4.66,3-2.44A21.32,21.32,0,0,1,77.47,125.58Z"/>
        <path class="cls-9" d="M66.82,112.79l-4.19-7.88,4.26,5.22.66-24.46.51,14.88,3-4.3-2.89,7,.52,15.08,5.68-5.24-5.58,7.42.47,16.43c0,.88-3,.88-3,0l.6-24.15Z"/>
      </g>
      <g id="freepik--pine--inject-9-9" data-name="freepik--pine--inject-9">
        <path class="cls-9" d="M210.18,114.93c-3.14,1.93-17.07,2.24-20.11,0a22.67,22.67,0,0,1,.1-5.85l3.13.59-2.91-2.52c.13-1.07.29-2.21.47-3.4l5.78,2.3L191.13,102c.6-3.68,1.35-7.77,2.21-11.87l4.47,3.56-4.06-5.52c.35-1.64.72-3.26,1.09-4.84l3.64,2.27-3.2-4.08c.35-1.41.69-2.78,1-4.1l2.16,2.38-1.43-5c.55-1.9,1.09-3.61,1.6-5a1.56,1.56,0,0,1,3,0c.86,2.37,1.78,5.51,2.7,9h0l-1.64,3.5,2.15-1.49c.68,2.76,1.34,5.69,2,8.64h0l-3.29,6.78,3.82-4.16c.29,1.42.56,2.83.82,4.21L206,99.49l2.45-1.43c.53,3,1,5.79,1.3,8.26h0l-3.41,5.41,3.79-2A21.38,21.38,0,0,1,210.18,114.93Z"/>
        <path class="cls-6" d="M199.38,102l-4.24-8,4.31,5.29.67-24.79.52,15.09,3-4.37-2.92,7.12.52,15.28L207,102.3l-5.67,7.52.48,14c0,.89-3,.89-3,0L199.4,102Z"/>
      </g>
    </g>
  </g>
  <g id="freepik--Clouds--inject-9">
    <path id="freepik--Cloud--inject-9" class="cls-6" d="M79.21,19.86c0-1.86-2-3.15-4.35-3.37-2.71-.25-4.64,1-4.71,3.1-1.78-.73-3.65-.26-3.51,1.69-.46-.53-2.2-.51-2.82-.37a2.47,2.47,0,0,0-1.55,1.33,1.8,1.8,0,0,0-.16,1c-1-.34-3.39-.55-4,.4-1.05,1.7,3.14,1.75,4,1.23.17,1.32,4.68,1.54,5.78.32a5,5,0,0,0,3.4,1.13,9.23,9.23,0,0,0,5.34-1.51,5.22,5.22,0,0,0,6.86-.2,3.32,3.32,0,0,0,2.6.3c.63-.14.77-.41.77-.41a6.13,6.13,0,0,0,1.16.34c1.24.26,3.56,0,2.57-1.12a2.9,2.9,0,0,0-2-.51c-.54-1.05-2.71-2.06-4-1.19,0-1.28-1.22-2.29-2.87-2.54A3.92,3.92,0,0,0,79.21,19.86Z"/>
    <path id="freepik--cloud--inject-9-2" data-name="freepik--cloud--inject-9" class="cls-6" d="M234.58,22.31a5.27,5.27,0,0,0-1.71-.31c-.55-.05-.72-.15-.83-.28a4.07,4.07,0,0,0-4.9-1.44,3.12,3.12,0,0,0-3.68-2.09c.06-1.71-2.14-3.56-4.11-4s-3.56-.23-4.62,1c-1.16-2.26-5.69-2.9-8.14-1.7a6,6,0,0,0-3.19,2.68,5.42,5.42,0,0,0-.53,2.57,4.52,4.52,0,0,0-4.15-.6c-1.38.54-1.48,1.58-1.55,2.63a4.82,4.82,0,0,0-2.5-.05c-.87.26-1.37.94-1.25,1.49-.68,0-2.32.51-2.13,1.24s2.08.73,2.77.7a11.63,11.63,0,0,0,1.95-.3,3.23,3.23,0,0,0,1,.19c1.18,0,1.69-.51,1.88-1,.59,1.22,2.64,2.15,4.1,2.53,2.75.7,6.63.27,8.31-1.78a3.28,3.28,0,0,0,.82,1,4.71,4.71,0,0,0,2.54,1c1.12.11,4.15.26,5-1.54.59,1.19,3.29,1.74,5.34,1.45a8,8,0,0,0,2.29-.7,11,11,0,0,0,1.32-.79,1.09,1.09,0,0,1,1.13-.07,6.72,6.72,0,0,0,4.47,0C235.42,23.78,235.66,22.8,234.58,22.31Z"/>
  </g>
  <g id="freepik--Shadows--inject-9">
    <ellipse id="freepik--Shadow--inject-9" class="cls-6" cx="149.11" cy="252.34" rx="60.86" ry="35.14"/>
    <ellipse id="freepik--shadow--inject-9-2" data-name="freepik--shadow--inject-9" class="cls-6" cx="248.99" cy="217.28" rx="38.34" ry="22.14"/>
    <ellipse id="freepik--shadow--inject-9-3" data-name="freepik--shadow--inject-9" class="cls-6" cx="49.29" cy="215.37" rx="38.34" ry="22.14"/>
  </g>
  <g id="freepik--character-2--inject-9">
    <g id="freepik--Chartacter--inject-9">
      <g id="freepik--Top--inject-9">
        <path class="cls-6" d="M237.36,68.13c-3.36.56-6.65,2.26-9.2,7.33-2.1,4.15-2.58,7.78-5.88,14.36l-13.81-.22,2.46,8.81s8.22,1.47,12.46,1.78c3.18.25,4.47-.59,6.4-3.19,2.52-3.4,6.05-11.35,6.05-11.35Z"/>
        <g id="freepik--Chest--inject-9">
          <path id="freepik--chest--inject-9-2" data-name="freepik--chest--inject-9" class="cls-10" d="M256.54,66.46c5.58,1.25,7.25,1.78,9.89,2.4,0,0,4.91,13.91,2.55,23.61-.54,2.23-1,8.39-1.32,13.13a55.84,55.84,0,0,0,0,11.12s-7.47,5.23-23.08,3.64c-12.25-1.26-13.73-5.82-13.73-5.82s.3-16.75.86-25.8c.74-11.86,4.28-19,5.66-20.61.43-.25,8.75-1.5,8.75-1.5Z"/>
          <path id="freepik--chest--inject-9-3" data-name="freepik--chest--inject-9" class="cls-11" d="M256.54,66.46c5.58,1.25,7.25,1.78,9.89,2.4,0,0,4.91,13.91,2.55,23.61-.54,2.23-1,8.39-1.32,13.13a55.84,55.84,0,0,0,0,11.12s-7.47,5.23-23.08,3.64c-12.25-1.26-13.73-5.82-13.73-5.82s.3-16.75.86-25.8c.74-11.86,4.28-19,5.66-20.61.43-.25,8.75-1.5,8.75-1.5Z"/>
        </g>
        <g id="freepik--Head--inject-9">
          <path class="cls-12" d="M260.54,44.49a4.44,4.44,0,0,0-2.37-2.22h0c-.48-2.57-3.78-5.61-10.09-5.86-5.19-.21-8.16,1.61-9.94,4.63s-.53,6.91-.53,6.91L253,46.76a8.94,8.94,0,0,0-.06,2.53c.25,2.29,2.85,4.59,2.85,4.59l-.13,3.19-.06,4.58a2.93,2.93,0,0,0,1.69-1.38,24,24,0,0,0,2.78-6.61C261.61,47.71,261.15,45.63,260.54,44.49Z"/>
          <path class="cls-13" d="M259.84,58.39a2.48,2.48,0,0,1-3.46-.68L256.14,68c-4.48,6.16-16.66,3.85-11.73-.78V64.32a15.79,15.79,0,0,1-2.06-.2c-2.11-.3-3.44-1.78-4.1-4a31.83,31.83,0,0,1-.2-14.48,4,4,0,0,1,1.7-2.85c2.51-1.27,4.87.5,8.39,1.82,1.47.55,5,.75,5.93.31-1.18,1.36-.45,4.86-.11,6,.49,1.59,1.19,2.37,1.51,2.42,1.44.29,1.6-.94,2.23-1.63a2.66,2.66,0,0,1,3.74.25,2.41,2.41,0,0,1,.41.64,4.32,4.32,0,0,1-1.9,5.81Z"/>
          <path class="cls-14" d="M253.33,61.49c-.47,2.33-3.6,3.9-8.9,4.09V64.32a25.53,25.53,0,0,0,3.9-.4A13.72,13.72,0,0,0,253.33,61.49Z"/>
          <path class="cls-12" d="M248,48.31l2.33,1a1.32,1.32,0,0,0-.7-1.69,1.23,1.23,0,0,0-1.61.67Z"/>
          <path class="cls-12" d="M239.24,49l2.46-.74a1.18,1.18,0,0,0-1.41-.9l-.13,0A1.35,1.35,0,0,0,239.24,49Z"/>
          <path class="cls-12" d="M249.51,50.81a1,1,0,1,1-1-1.06,1,1,0,0,1,1,1.06Z"/>
          <path class="cls-12" d="M241.74,50.71a1,1,0,1,1-1-1.06h0a.94.94,0,0,1,1,.85A1.48,1.48,0,0,1,241.74,50.71Z"/>
          <path class="cls-14" d="M245.39,49.54l-1,6.12-3.17-.75A12.19,12.19,0,0,1,245.39,49.54Z"/>
          <path class="cls-14" d="M247.43,56.41l-3.56,1.38A1.87,1.87,0,0,0,246.24,59l.06,0A2,2,0,0,0,247.43,56.41Z"/>
          <path class="cls-15" d="M247.08,57.09a1.74,1.74,0,0,1,.45-.06A2,2,0,0,1,246.31,59a2,2,0,0,1-.6.12A1.79,1.79,0,0,1,247.08,57.09Z"/>
        </g>
      </g>
      <g id="freepik--Bottom--inject-9">
        <path class="cls-12" d="M267.4,111.09c1.78,22.87,3.16,52.16,3.16,52.16.17,1.74,1.37,3.56,2.21,12.15.21,2.18.59,10.51.64,13.3l0,1.39c-4.94,9.91-12.87,1.39-12.87,1.39l-.42-1.19c-3.25-10.73-4.6-16-5.81-20.85-2.48-10.09-5.38-29.19-5.38-29.19l-2.65,18.91a106.24,106.24,0,0,1-.44,11.42c-.22,2-.92,7.07-1.57,12.53,0,.27-.19,1.39-.19,1.39l-13.34-1.16v-1.62c-.24-9.33-1.1-19.16-1.19-22.26-.29-12.51.72-52.9,2.1-69.6l26.18.89a2.61,2.61,0,0,1,2.5,2.42l.77,11a7.55,7.55,0,0,0,6.32,6.94Z"/>
        <path class="cls-5" d="M248.9,140.27l-2.23-12.53s-6.21-.9-9.4-3.76c0,0,2.06,3.78,7.91,5.26l2.22,11.07-1.15,18.87Z"/>
        <path class="cls-12" d="M244.08,184.52c-.68,7.85-12.37,7.91-13.35-1.15"/>
        <path class="cls-12" d="M217.45,214.77c.25,1.18,1.14,3.38,6,4s10-1,12.33-3.27,2.32-4.24,3.56-5.3a25.72,25.72,0,0,0,3.56-3.26,5,5,0,0,0,.08-2.6Z"/>
        <path class="cls-10" d="M230.71,181.74v1.63s.94,1.63,5.43,2.37a12.92,12.92,0,0,0,7.94-1.22l.19-1.39s.85-.14.64,1.58S243.13,197,243,199.21s.59,4.59-.09,6.19-3.08,2.37-4.5,4.49-2.22,6.14-8.9,7.61-10.13-.38-11.53-2-.54-3.39,2.17-5.34S225,206.62,227,205c2.55-2.07,3.23-3.52,3.23-6.79,0-2.65-.27-13.15-.37-14.53S229.93,181.74,230.71,181.74Z"/>
        <path class="cls-16" d="M230.71,181.74v1.63s.94,1.63,5.43,2.37a12.92,12.92,0,0,0,7.94-1.22l.19-1.39s.85-.14.64,1.58S243.13,197,243,199.21s.59,4.59-.09,6.19-3.08,2.37-4.5,4.49-2.22,6.14-8.9,7.61-10.13-.38-11.53-2-.54-3.39,2.17-5.34S225,206.62,227,205c2.55-2.07,3.23-3.52,3.23-6.79,0-2.65-.27-13.15-.37-14.53S229.93,181.74,230.71,181.74Z"/>
        <path class="cls-12" d="M266.07,223.72c.53,3,1.73,4.91,4.15,5.82s5.88-.85,6.88-2.37,2-3.53,1-8.1Z"/>
        <path class="cls-10" d="M260.1,190.32l.41,1.18a13,13,0,0,0,6.53.6,14.65,14.65,0,0,0,6.35-2l0-1.39s.81-.17.93,1.39c.19,2.37.19,12.7.28,16.06s1.67,6.9,2.75,9.87,2,8.68-2.18,11.46-7.87.9-9.06-3.49c-1.27-4.68-.7-12-1.56-16a152.21,152.21,0,0,0-4.82-15.27C259,191,260.1,190.32,260.1,190.32Z"/>
        <path class="cls-16" d="M260.1,190.32l.41,1.18a13,13,0,0,0,6.53.6,14.65,14.65,0,0,0,6.35-2l0-1.39s.81-.17.93,1.39c.19,2.37.19,12.7.28,16.06s1.67,6.9,2.75,9.87,2,8.68-2.18,11.46-7.87.9-9.06-3.49c-1.27-4.68-.7-12-1.56-16a152.21,152.21,0,0,0-4.82-15.27C259,191,260.1,190.32,260.1,190.32Z"/>
        <path class="cls-12" d="M256.42,92.67s.56-8,1.22-13.92,2.75-9.54,5.18-10.79l-3-.75c-2.42,1.25-4.69,5.26-5.34,11.2s-1.19,13.92-1.19,13.92Z"/>
        <path class="cls-12" d="M237.32,91.48s.56-8,1.21-13.92,2.8-9.28,4.44-10.46a29.58,29.58,0,0,0-3.84.64c-1.78,1.69-3.32,5.18-3.8,9.49-.65,5.94-1.18,13.92-1.18,13.92Z"/>
      </g>
      <g id="freepik--Coat--inject-9">
        <path class="cls-6" d="M256.19,65.67l0,1.44c1,1,1.18,5.34.37,11a216.61,216.61,0,0,0-1.3,30.67c.29,10.25.85,12.62.85,12.62s7.6.66,12.63-.74l-.08-3s1.25-.43,1.06-3-.68-15.36-.55-21.3,3.66-19.11-2.72-24.53Z"/>
        <path class="cls-9" d="M256.08,121.4s7.6.66,12.63-.74l-.08-3a31,31,0,0,1-5.51.77,59.12,59.12,0,0,1-7.41-.1Z"/>
        <path class="cls-9" d="M255.77,85.71c.32-3.84,2.53-9,3.56-12.53s1.5-6.08,1.5-6.08l3.26,1a6.61,6.61,0,0,0-3.39-3.3,18.11,18.11,0,0,0-4.45-1.56,15.68,15.68,0,0,1-.19,2.27,40.72,40.72,0,0,0-.66,8.39Z"/>
        <path class="cls-6" d="M244.39,66.85c-2.3.53-5,3.68-6.82,10.34a93.35,93.35,0,0,0-3.28,20.6c-.39,7.36-.54,22-.54,22a14.28,14.28,0,0,1-4.68-.69v-2.62A3.14,3.14,0,0,1,228,114a233.38,233.38,0,0,1,2-26c1.4-9.38,4.62-17.53,7.41-19.88C237.36,67.83,241.64,66.85,244.39,66.85Z"/>
        <path class="cls-9" d="M229.07,116.49a25.39,25.39,0,0,0,4.74.76l0,2.55a13.77,13.77,0,0,1-4.68-.69Z"/>
        <path class="cls-9" d="M235.92,84.2c-.54-4.65,1.6-12.93,3.33-16.07a8,8,0,0,1,4.15-3.87c.32,0,.64,0,1,.06v2.89a27.08,27.08,0,0,0-4.66,7A57.3,57.3,0,0,0,235.92,84.2Z"/>
      </g>
      <g id="freepik--Tablet--inject-9">
        <path class="cls-10" d="M205.25,77.18h0l.9-.59h0a.91.91,0,0,1,.85,0l23.14,9.5a3.23,3.23,0,0,1,1.78,2.09L236,107.25a.84.84,0,0,1-.23.92h0l-.93.63h0a.93.93,0,0,1-.86,0l-23.14-9.5a3.26,3.26,0,0,1-1.75-2.09L205,78.13A.79.79,0,0,1,205.25,77.18Z"/>
        <path class="cls-17" d="M205.25,77.18h0l.9-.59h0a.91.91,0,0,1,.85,0l23.14,9.5a3.23,3.23,0,0,1,1.78,2.09L236,107.25a.84.84,0,0,1-.23.92h0l-.93.63h0a.93.93,0,0,1-.86,0l-23.14-9.5a3.26,3.26,0,0,1-1.75-2.09L205,78.13A.79.79,0,0,1,205.25,77.18Z"/>
        <path class="cls-10" d="M230.14,87.34a3.14,3.14,0,0,1,.86,1.47l4.11,19.07a.88.88,0,0,1-.2.9l.87-.59h0a.86.86,0,0,0,.24-.92L231.9,88.2a3.06,3.06,0,0,0-.78-1.39Z"/>
        <path class="cls-10" d="M235.11,107.88,231,88.8a3.29,3.29,0,0,0-1.75-2.09l-23.14-9.49c-.8-.32-1.29.09-1.11.93.8,3.75,3.3,15.32,4.11,19.07a3.24,3.24,0,0,0,1.75,2.09l23.14,9.5C234.79,109.13,235.29,108.71,235.11,107.88Z"/>
        <path class="cls-18" d="M235.11,107.88,231,88.8a3.29,3.29,0,0,0-1.75-2.09l-23.14-9.49c-.8-.32-1.29.09-1.11.93.8,3.75,3.3,15.32,4.11,19.07a3.24,3.24,0,0,0,1.75,2.09l23.14,9.5C234.79,109.13,235.29,108.71,235.11,107.88Z"/>
        <path class="cls-19" d="M230.52,92.64l-.77-3.56a.64.64,0,0,0-.33-.39L227.83,88c-.15-.06-.25,0-.21.18.15.7.59,2.86.77,3.56a.61.61,0,0,0,.33.39l1.59.65C230.46,92.87,230.55,92.8,230.52,92.64Z"/>
        <path class="cls-12" d="M229.57,89.88a1.53,1.53,0,0,0-.84-1c-.39-.15-.63,0-.55.4a1.59,1.59,0,0,0,.85,1C229.41,90.44,229.65,90.24,229.57,89.88Z"/>
        <path class="cls-12" d="M229.93,91.68a1.54,1.54,0,0,0-.83-1c-.39-.16-.63,0-.55.41a1.56,1.56,0,0,0,.84,1C229.77,92.24,230,92.06,229.93,91.68Z"/>
        <path class="cls-19" d="M205.77,89.4c-.75-1.18-.67-1.32-.2-1.87a3.55,3.55,0,0,1,3-1.33,7.42,7.42,0,0,1,2.5.4c.5.29,0,1.35-1.31,1.57-2.06.35-2.08.91-2.08.91a23.83,23.83,0,0,1,2.66-.32,17.94,17.94,0,0,1,3,.59c.85.18,1,1.3-.51,1.61l1.56.33c1.09.24,1.44.84.54,1.48a1.65,1.65,0,0,1-1,.32s1.18.06,1.18.46c0,1.12-.73,1.37-3.14,1.94s-2.83,1.73-2.42,2.6c0,0-.89-.6-1.67-1.19a1.48,1.48,0,0,1-.74-1.85s-1.3,0-1.33-.85a4.15,4.15,0,0,1,.4-1.69,1.42,1.42,0,0,1-.64-1.37,2.26,2.26,0,0,1,.54-1.38Z"/>
        <path class="cls-12" d="M212.77,91a6.79,6.79,0,0,0-1.42-.23,4.33,4.33,0,0,0-1.41.37,16.14,16.14,0,0,0-2.57,1.18,15.94,15.94,0,0,0,2.71-.81,7.51,7.51,0,0,1,1.29-.43C211.8,91,212.3,91,212.77,91Z"/>
        <path class="cls-12" d="M213.85,93.11A3.14,3.14,0,0,0,212.3,93a8.35,8.35,0,0,0-1.49.38A14,14,0,0,0,208,94.67c1-.26,2-.56,2.9-.91A7.9,7.9,0,0,1,213.85,93.11Z"/>
      </g>
      <g id="freepik--Arm--inject-9">
        <g id="freepik--arm--inject-9-2" data-name="freepik--arm--inject-9">
          <path class="cls-12" d="M250.6,85.09a12.86,12.86,0,0,0-3.78-2.56c-.91-.33-4.09-1.88-5.34-2.27-.78-.25-1.18,1-.22,1.92a26.78,26.78,0,0,0,3.56,2.26,15.51,15.51,0,0,1,2.46,2.77Z"/>
          <path class="cls-19" d="M274.65,76.53c-1.71-4.34-3.39-5.62-7.85-7.08-4.75,4.11-2.1,15.49-2.1,15.49l4.3,12s-9.66-3.32-10.95-4.26-4.67-5.06-5.81-6.3c-1.55-1.69-2.37-1.53-3.23-1.46-2.77.25-3.4.44-4,.77a1.27,1.27,0,0,0-.59,1c-.74,0-1.82,0-2,1.15a3,3,0,0,0-.1,1,.8.8,0,0,0-.5.25c-.65.66.24,3.16.87,3.79a2.35,2.35,0,0,0,2,.48c.75,0,.45-.83.45-.83l1,.13c2.14,1.73,2.06,4.88,5,5.76a20.68,20.68,0,0,1,3.56.92c6.23,2.54,14.2,9.66,19.84,10.5s6.22-2.37,6.18-5.79C280.57,98.61,276.36,80.85,274.65,76.53Z"/>
          <path class="cls-14" d="M268.63,95.43l.36,1.51c2.47.81,5.08,2.79,5.61,4.21C274.26,98.93,273,96.89,268.63,95.43Z"/>
          <path class="cls-12" d="M244.4,86.73l3.5-.11-3.41-.33A1.12,1.12,0,0,0,244.4,86.73Z"/>
          <path class="cls-12" d="M242.25,88.83l3.79-.25-3.76-.18A2.08,2.08,0,0,0,242.25,88.83Z"/>
          <path class="cls-12" d="M245.39,92a1.41,1.41,0,0,1-.42-.75c-.44,0-.87-.09-1.3-.17a4.24,4.24,0,0,1-.5-.18,1.41,1.41,0,0,1-.53-.38,1.23,1.23,0,0,0,.49.47,2.48,2.48,0,0,0,.55.24l.18.47a.82.82,0,0,0-.4.13,1,1,0,0,0-.36.47,1.38,1.38,0,0,1,.41-.39.75.75,0,0,1,.51-.06,1.63,1.63,0,0,1,1,.68l1,.12A7.07,7.07,0,0,1,245.39,92Z"/>
        </g>
        <path class="cls-6" d="M266.42,68.88c-1.4.8-4.11,5.56-2.45,13.48a68.28,68.28,0,0,0,4.9,14.46s-4.35-1.94-5.05-2.2-.78.2-.78.2a6,6,0,0,1,0,4.45,6.41,6.41,0,0,1-3,3,.61.61,0,0,0,.18,1,52.5,52.5,0,0,0,4.93,3.12c4.32,2.37,8.63,4.83,12,4.07s3.77-3.56,3.63-7.33-3.47-17.33-4.37-21.27S275,71,266.42,68.88Z"/>
        <path class="cls-9" d="M260.1,102.24a6.5,6.5,0,0,0,3-3,6,6,0,0,0,0-4.45l-2.15-1a9.93,9.93,0,0,1-.56,3.93,7.07,7.07,0,0,1-2.72,3.27Z"/>
        <path class="cls-9" d="M268.87,96.8c2.37.65,5.39,3.28,6,4.61-.69-2.92-2.68-5.4-6.76-6.33Z"/>
      </g>
    </g>
  </g>
  <g id="freepik--character-1--inject-9">
    <g id="freepik--chartacter--inject-9-2" data-name="freepik--chartacter--inject-9">
      <g id="freepik--arm--inject-9-3" data-name="freepik--arm--inject-9">
        <path class="cls-20" d="M74.25,87.41s7.25-3.81,10.09-5.48,3.07-2.79,4.36-4.62l5.12-.51c-.16.37,0,.62,1.27.43,2.48-.38,6.94-3.81,8-4.47s1.29.77.86,1.78,0,3.56-.7,5.25a7.22,7.22,0,0,1-3.4,3.95c-2,1.3-4.75,2.26-8.2,4.67s-5.47,4.93-10.76,8.36c-5,3.27-6.62,4.78-10.08,1.78Z"/>
        <path class="cls-19" d="M99.91,83.71a7.16,7.16,0,0,0,3.4-3.94c.74-1.66.27-4.25.7-5.25s.25-2.43-.86-1.78-5.56,4.08-8,4.47c-1.24.19-1.43-.06-1.27-.44l-5.12.52c-1.25,1.78-1.54,2.91-4.15,4.49.07,3.81.93,7.36,3.66,9.37,1.13-1,2.22-1.87,3.49-2.77C95.17,86,97.89,85,99.91,83.71Z"/>
        <g id="freepik--test-tube--inject-9">
          <path class="cls-10" d="M94,70.35a1.55,1.55,0,0,1,.9-1.27,4.85,4.85,0,0,1,4.39,0,1.56,1.56,0,0,1,.91,1.27V90.77h0a3.1,3.1,0,0,1-6.2,0h0Z"/>
          <path class="cls-17" d="M94,70.35a1.55,1.55,0,0,1,.9-1.27,4.85,4.85,0,0,1,4.39,0,1.56,1.56,0,0,1,.91,1.27V90.77h0a3.1,3.1,0,0,1-6.2,0h0Z"/>
          <path class="cls-10" d="M95,75.56a1.09,1.09,0,0,1,.64-.89,3.39,3.39,0,0,1,3.07,0,1.09,1.09,0,0,1,.64.89v15.1h0a2.18,2.18,0,0,1-4.35,0h0Z"/>
          <g class="cls-21">
            <path class="cls-5" d="M97.12,92.83A2.16,2.16,0,0,1,95,90.77a1.51,1.51,0,0,0,3-.41h0v-16a2.44,2.44,0,0,1,.74.27,1.09,1.09,0,0,1,.64.89v15.1h0a2.18,2.18,0,0,1-2.18,2.17Z"/>
          </g>
          <path class="cls-10" d="M95,75.56c0,.69,1,1.26,2.17,1.26s2.18-.57,2.18-1.26-1-1.25-2.18-1.25S95,74.87,95,75.56Z"/>
          <g class="cls-22">
            <path class="cls-23" d="M95,75.56c0,.69,1,1.26,2.17,1.26s2.18-.57,2.18-1.26-1-1.25-2.18-1.25S95,74.87,95,75.56Z"/>
          </g>
          <g class="cls-24">
            <path class="cls-23" d="M95,75.56a1.09,1.09,0,0,1,.64-.89A1,1,0,0,0,95.5,76a1,1,0,0,0,.53.31,3,3,0,0,0,3.19-.43,2.32,2.32,0,0,1-2.1.93C95.92,76.82,95,76.25,95,75.56Z"/>
          </g>
          <path class="cls-18" d="M95.21,91.63c0,.3-.18.45-.4.31a1.13,1.13,0,0,1-.37-.83V69.47a2.18,2.18,0,0,1,.49-.37c.09-.06.19-.1.28-.15Z"/>
          <path class="cls-18" d="M95.81,92.39h0a.3.3,0,0,1-.21-.28V68.8l.44-.13V92.22a.17.17,0,0,1-.14.19A.15.15,0,0,1,95.81,92.39Z"/>
          <path class="cls-25" d="M94.8,72.08a2.05,2.05,0,0,1-.77-.72v-1a1,1,0,0,1,0-.33,2.19,2.19,0,0,1,.72-.63,5.21,5.21,0,0,1,4.37-.14V69h0l.11.06a2.07,2.07,0,0,1,.59.51,1.27,1.27,0,0,1,.23.41,1,1,0,0,1,.06.35v1.18h0v3.56h0V90.77h0A3.1,3.1,0,0,1,94.27,92a2.9,2.9,0,0,0,3.27,1.19h0a1.78,1.78,0,0,0,1.26-1.7V72.36A5.24,5.24,0,0,1,94.8,72.08Z"/>
          <path class="cls-26" d="M97.44,93.86h0A2.69,2.69,0,0,0,99.7,91V69.36l0,0a1.66,1.66,0,0,1,.35.44h0l0,.09v0a.79.79,0,0,1,.06.22v1.34h0v3.56h0V90.77h0A3.11,3.11,0,0,1,97.44,93.86Z"/>
          <path class="cls-10" d="M93.57,68.47a1.79,1.79,0,0,1,1-1.45,5.55,5.55,0,0,1,5,0,1.78,1.78,0,0,1,1.05,1.45h0V70h0a1.78,1.78,0,0,1-1.05,1.45,5.55,5.55,0,0,1-5,0,1.79,1.79,0,0,1-1-1.45h0Z"/>
          <path class="cls-11" d="M93.57,68.47a1.79,1.79,0,0,1,1-1.45,5.55,5.55,0,0,1,5,0,1.78,1.78,0,0,1,1.05,1.45h0V70h0a1.78,1.78,0,0,1-1.05,1.45,5.55,5.55,0,0,1-5,0,1.79,1.79,0,0,1-1-1.45h0Z"/>
          <path class="cls-26" d="M94.38,71.3a6.07,6.07,0,0,0,4,.29c1-.44,1.64-.93,1.64-2V67.3a1.54,1.54,0,0,1,.64,1.19h0V70h0a1.81,1.81,0,0,1-1.05,1.45,5.55,5.55,0,0,1-5,0Z"/>
          <path class="cls-1" d="M93.57,68.47a1.79,1.79,0,0,1,1-1.45,5.55,5.55,0,0,1,5,0,1.78,1.78,0,0,1,1.05,1.45h0V70h0a1.78,1.78,0,0,1-1.05,1.45,5.55,5.55,0,0,1-5,0,1.79,1.79,0,0,1-1-1.45h0Z"/>
          <path class="cls-10" d="M99.63,69.92a5.55,5.55,0,0,1-5,0c-1.39-.8-1.39-2.1,0-2.9a5.55,5.55,0,0,1,5,0C101,67.82,101,69.12,99.63,69.92Z"/>
          <path class="cls-17" d="M99.63,69.92a5.55,5.55,0,0,1-5,0c-1.39-.8-1.39-2.1,0-2.9a5.55,5.55,0,0,1,5,0C101,67.82,101,69.12,99.63,69.92Z"/>
          <path class="cls-17" d="M98.68,67.27c1.13.3,1.49,1.15,1,1.78a3.11,3.11,0,0,1-3.08,1c-1.67-.22-2-1.12-2-1.33Z"/>
          <path class="cls-10" d="M99,69.52a4,4,0,0,1-3.65,0,1.11,1.11,0,0,1,0-2.11,4,4,0,0,1,3.65,0C100,68,100,68.94,99,69.52Z"/>
          <path class="cls-18" d="M99,69.52a4,4,0,0,1-3.65,0,1.11,1.11,0,0,1,0-2.11,4,4,0,0,1,3.65,0C100,68,100,68.94,99,69.52Z"/>
          <path class="cls-18" d="M99,69.24a1.07,1.07,0,0,1,.22.15l-.22.13a4,4,0,0,1-3.65,0l-.22-.13a1.07,1.07,0,0,1,.22-.15A4,4,0,0,1,99,69.24Z"/>
        </g>
        <path class="cls-19" d="M95.78,71.71c-.7-1.12-1.23,0-2.72,1.59s-3,2.18-4.34,4l5.12-.51c.16-.37.65-.86.78-1.13C94.89,75.13,96.47,72.84,95.78,71.71Z"/>
        <path class="cls-6" d="M74.35,85.75S65.8,75.91,63.67,73.38s-2.55-3-4.79-4a18.83,18.83,0,0,0-6.71-1.54L50.88,78c4.86,5.93,10.76,13,15.61,17.4,2.58,2.33,4.8,4.79,7.58,5.24,1.62,0,3-.59,5.94-2.44s4.22-2.44,3.56-3.22l-1.29.9a6.48,6.48,0,0,1-4.16-4.16,8.52,8.52,0,0,1,.3-6.52l1.35-.73s0-.79-.94-.7A25.77,25.77,0,0,0,74.35,85.75Z"/>
        <path class="cls-9" d="M82.24,95.88a6.47,6.47,0,0,1-4.15-4.16,8.43,8.43,0,0,1,.3-6.52l2.41-1.43A16.8,16.8,0,0,0,82,90.6C83.36,93.46,85.17,94,85.17,94Z"/>
      </g>
      <g id="freepik--top--inject-9-2" data-name="freepik--top--inject-9">
        <path class="cls-10" d="M60.47,100.52a37.19,37.19,0,0,0,.3-8.82c4.47-4.09,3.64-8.53,1.52-12C58,72.63,54.77,69.47,52.16,67.8c-1.85-.67-7.79-.7-7.79-.7-1,.11-10.28,1.42-13,1.94a10.28,10.28,0,0,0-2,5.34c-.09,1.78-.63,3.42.9,9l2,10.8s-.38,5.29-.38,8.12C36.93,108,52.05,108.1,60.47,100.52Z"/>
        <path class="cls-12" d="M37.42,40.46c-4.55-.86-9.43,4.13-9.13,11.28s.59,18.23.83,20.86,5.19,5.52,9.13,3,4-11.44,3.12-15.72S36.27,45.73,37.42,40.46Z"/>
        <path class="cls-12" d="M39,63.89c0-2.19-1.69-3.9-3.53-6-2.63-3.05-5-8.5,0-12.21-.18-5,4-7.91,10-8.14s10.68,1.59,12.32,6.73-1.55,7.85-1.55,7.85Z"/>
        <path class="cls-27" d="M56.91,47.85a27.3,27.3,0,0,1,.83,5.46c.33,7.25-1.63,9.91-2.74,10.58a8.72,8.72,0,0,1-5.15,1l-.71,4.52c.88,1.72,1.93,2.8,1.58,5.52-4.4-1.38-7.55-2.41-11.78-6.53l.1-8.19s-1.62,1.3-3.75-.75a4.09,4.09,0,0,1-1.08-4.75c.95-1.78,4-1.93,4.67.08s2.14,1.46,1.89-1.69c-.08-1-1.26-6.33,2.51-8.58,1.62-1,4.33,1.27,6.27.84,1.09-.25,1.29-2.3,3.23-2.37C55,43,56.23,45.14,56.91,47.85Z"/>
        <path class="cls-28" d="M49.87,64.86c-2.37,0-7-.36-8.83-3.12a4.21,4.21,0,0,0,1.67,2.76c2.19,1.66,7,1.53,7,1.53Z"/>
        <path class="cls-5" d="M48.18,52.3a1,1,0,0,1-.88,1.08,1,1,0,0,1-1.1-.8v0a1,1,0,0,1,.89-1.07,1,1,0,0,1,1.09.78Z"/>
        <path class="cls-5" d="M56.6,49.89l-1.83-1.24a1.11,1.11,0,0,1,1.83,1.24Z"/>
        <path class="cls-5" d="M47.65,49.29l-2,1a1,1,0,0,1,.39-1.4l.09,0A1.19,1.19,0,0,1,47.65,49.29Z"/>
        <path class="cls-5" d="M56.25,51.74a1,1,0,0,1-.89,1.07A.93.93,0,0,1,54.28,52v0a1,1,0,0,1,.89-1.08,1,1,0,0,1,1.08.78Z"/>
        <circle class="cls-13" cx="50.85" cy="59.23" r="0.85"/>
        <path class="cls-10" d="M59.33,52.08V52c-.14-1-.32-2.17-.5-2.88-.68-2.59-1.69-3-7.28-2.7s-8.71,1.07-9.06,3.71c-.09.74-.12,2-.15,3v0a3.27,3.27,0,0,0,3.19,3.36h.28l2-.13A3.7,3.7,0,0,0,51,53.94c.15-.41.46-1.1.92-1.12s.84.59,1,1c.68,1.35,1.45,2.2,2.92,2.11h.34a3.34,3.34,0,0,0,3.12-3.54,1.43,1.43,0,0,0,0-.29Zm-3.15,2.83h-.34c-1.09.07-1.47-.6-2-1.55s-1-1.6-2-1.55-1.48.93-1.78,1.78a2.72,2.72,0,0,1-2.37,1.82l-2,.12a2.28,2.28,0,0,1-2.41-2.14v-.18c0-1,.06-2.25.15-3,.21-1.64,2.11-2.45,8.12-2.82s5.82.34,6.24,1.94c.16.67.35,1.91.49,2.83a2.34,2.34,0,0,1-1.93,2.69Z"/>
        <path class="cls-29" d="M59.33,52.08V52c-.14-1-.32-2.17-.5-2.88-.68-2.59-1.69-3-7.28-2.7s-8.71,1.07-9.06,3.71c-.09.74-.12,2-.15,3v0a3.27,3.27,0,0,0,3.19,3.36h.28l2-.13A3.7,3.7,0,0,0,51,53.94c.15-.41.46-1.1.92-1.12s.84.59,1,1c.68,1.35,1.45,2.2,2.92,2.11h.34a3.34,3.34,0,0,0,3.12-3.54,1.43,1.43,0,0,0,0-.29Zm-3.15,2.83h-.34c-1.09.07-1.47-.6-2-1.55s-1-1.6-2-1.55-1.48.93-1.78,1.78a2.72,2.72,0,0,1-2.37,1.82l-2,.12a2.28,2.28,0,0,1-2.41-2.14v-.18c0-1,.06-2.25.15-3,.21-1.64,2.11-2.45,8.12-2.82s5.82.34,6.24,1.94c.16.67.35,1.91.49,2.83a2.34,2.34,0,0,1-1.93,2.69Z"/>
        <path class="cls-30" d="M58.33,52.22a2.35,2.35,0,0,1-2,2.67l-.21,0h-.33c-1.1.07-1.47-.6-2-1.55s-1-1.6-2-1.55-1.49.93-1.78,1.78a2.72,2.72,0,0,1-2.38,1.82l-2,.12a2.28,2.28,0,0,1-2.41-2.14v-.18c0-1,.06-2.25.14-3,.22-1.64,2.12-2.45,8.13-2.82s5.82.34,6.24,1.94C58,50.06,58.2,51.3,58.33,52.22Z"/>
        <path class="cls-28" d="M51.39,53.22l.64,4L55,56l-.11-.16-2.2-2.48h0L52.4,53a.69.69,0,0,0-.47-.2A.84.84,0,0,0,51.39,53.22Z"/>
      </g>
      <g id="freepik--bottom--inject-9-2" data-name="freepik--bottom--inject-9">
        <path class="cls-12" d="M31.19,98.4c0,2.56-1,4.11-2.07,7-2.09,5.42-3.14,7-3.39,14.77-.63,19.22-.14,39.12-.14,39.12-.14,1.7-1.63,4.7-2.31,13.48-.6,7.68-.39,18.21-.39,18.21s5.82,2.61,10.81.77c2-6.24,6.13-22.45,8.31-30.81a174.52,174.52,0,0,0,3.27-18.76l3.45,15.48a43,43,0,0,0,.14,10c.64,5.14,3.09,19.87,3.09,19.87s6.4,1.78,10.68-1.08c0,0,1.08-25.68,1.13-31.9.07-10.29,1.4-29.17-.91-43.62v-.12a55.64,55.64,0,0,1,.94-21.62,13.74,13.74,0,0,0,.44-3.13c0-4.3-1.64-6.08-1.64-6.08-3.5,1.93-14.94,1.78-22.55,2.51L41,95.71a4.24,4.24,0,0,1-4.65,3.62A22,22,0,0,1,31.19,98.4Z"/>
        <path class="cls-19" d="M39.51,106.77a.24.24,0,0,0-.29.16c-.23.89-.41,1.69-.59,2.47-.59,2.81-1.07,4.84-3.28,7a8,8,0,0,1-5.58,2.12A28.1,28.1,0,0,1,36,104.41a.19.19,0,0,0,0-.27l0,0a.26.26,0,0,0-.32,0,28.85,28.85,0,0,0-6.33,14.54v0h0a51.54,51.54,0,0,0-.59,7.12c-.21,10.81-.52,27.13-.69,31.42a29.87,29.87,0,0,1-1.31,6.81c-.59,2.18-1.25,4.65-1.84,8-1.28,7.3-.63,19.29-.59,19.41a.23.23,0,0,0,.23.21h0a.21.21,0,0,0,.22-.21v0c0-.12-.65-12.07.6-19.32.59-3.36,1.25-5.82,1.83-8a30,30,0,0,0,1.32-6.9c.18-4.3.48-20.63.69-31.45a51.69,51.69,0,0,1,.59-6.92H30a8.23,8.23,0,0,0,5.74-2.26c2.31-2.26,2.77-4.34,3.4-7.22.18-.77.35-1.57.6-2.46a.21.21,0,0,0-.22-.2Z"/>
        <path class="cls-12" d="M53.21,206.21c-.43.54-.16,1.19.41,1.78s3.16,1.31,4.83,1.88a14.48,14.48,0,0,1,5.1,2.55,13.86,13.86,0,0,0,7.64,2.83c4.15.33,6.47-.6,7.39-1.55a2.31,2.31,0,0,0,0-3.23,49.83,49.83,0,0,0-12.46-4.56C60.47,204.72,53.21,206.21,53.21,206.21Z"/>
        <path class="cls-10" d="M50.71,179.78l.26,1.63s2.32,1.25,6.71.9,5.25-2.53,5.25-2.53l.06-1.44s1.29.1.94,2.61-.63,14.54-.44,15.89,2.23,4.1,6.3,6.89,9.57,4.47,9.55,6.74-3.14,3.92-7.75,3.61c-5.86-.37-7.78-2.92-10.89-4.39s-6.12-2.05-7-2.94-1.14-1-.93-4.79,0-5.23-1.22-11.71-1.47-7.25-1.66-8.76S50.71,179.78,50.71,179.78Z"/>
        <path class="cls-16" d="M50.71,179.78l.26,1.63s2.32,1.25,6.71.9,5.25-2.53,5.25-2.53l.06-1.44s1.29.1.94,2.61-.63,14.54-.44,15.89,2.23,4.1,6.3,6.89,9.57,4.47,9.55,6.74-3.14,3.92-7.75,3.61c-5.86-.37-7.78-2.92-10.89-4.39s-6.12-2.05-7-2.94-1.14-1-.93-4.79,0-5.23-1.22-11.71-1.47-7.25-1.66-8.76S50.71,179.78,50.71,179.78Z"/>
        <path class="cls-12" d="M45.28,142.16l2.48-19a12.78,12.78,0,0,0,10-4.6s.16,4.75-8,6.92l-3,17.49,1.93,14.66Z"/>
        <path class="cls-12" d="M19.6,215.91c-.73,3.35-1.28,9,2.57,11.58s6.85,1.19,7.72,0,1.5-2.26,1.59-6.46Z"/>
        <path class="cls-10" d="M35.49,185.6l-.3,1.07a13.68,13.68,0,0,1-6.28.47,11.46,11.46,0,0,1-6.05-2.28v-1.65s-1.19.14-1.09,2,.59,13.65.4,16a48.45,48.45,0,0,1-1.59,10.37,26.69,26.69,0,0,0-1.26,8.12c.08,2.2.77,6.87,6.15,7.71,6.07,1,6-4.58,6.07-9.18.07-3.44-.15-9.07.32-13.06s3.2-12.71,3.67-15.38S36.43,186,35.49,185.6Z"/>
        <path class="cls-16" d="M35.49,185.6l-.3,1.07a13.68,13.68,0,0,1-6.28.47,11.46,11.46,0,0,1-6.05-2.28v-1.65s-1.19.14-1.09,2,.59,13.65.4,16a48.45,48.45,0,0,1-1.59,10.37,26.69,26.69,0,0,0-1.26,8.12c.08,2.2.77,6.87,6.15,7.71,6.07,1,6-4.58,6.07-9.18.07-3.44-.15-9.07.32-13.06s3.2-12.71,3.67-15.38S36.43,186,35.49,185.6Z"/>
      </g>
      <g id="freepik--coat--inject-9-2" data-name="freepik--coat--inject-9">
        <path class="cls-6" d="M39,66.4c0,3.12,3.86,10.08,5.34,17.09s-.21,26.33-.76,32.72v2.51s-12.08.7-18.36-1.7l.34-2.75s-1.19-.3-.86-2.09,3.06-9.93,4.46-16.19-1-11.42-1.45-15.64,2.41-11.43,2.41-11.43Z"/>
        <path class="cls-9" d="M25.18,117c6.28,2.41,18.36,1.69,18.36,1.69V116.2s-10.76.26-18-1.93Z"/>
        <path class="cls-9" d="M44.68,87.66c-.21-2.9-1.93-7.32-4.46-11.51a55.2,55.2,0,0,1-4.2-8.9l-1.92.55A4.17,4.17,0,0,1,36.37,65C38.2,64.18,39,63.89,39,63.89s.05,2,2,7.59S44.68,81.34,44.68,87.66Z"/>
        <path class="cls-6" d="M49.43,67.77s6.84,5.14,9.64,11.72,2.6,35.42,2.6,35.42v2.57l3.56-.92v-2.27a2.84,2.84,0,0,0,1.45-3.16A81.07,81.07,0,0,1,65,95.68c0-6.53,1.34-11.6-2.51-17.55a49.9,49.9,0,0,0-9.61-10.49l-3.24-.89Z"/>
        <path class="cls-9" d="M61.68,114.91a10.79,10.79,0,0,0,3.56-.62v2.27l-3.56.92Z"/>
        <path class="cls-9" d="M60.27,84.6c-.15-3.45-.33-6.63-1.91-9.7s-5.54-9.19-8.42-10.18l-.56,3.38a32,32,0,0,1,7.11,7.3A22.84,22.84,0,0,1,60.27,84.6Z"/>
      </g>
      <g id="freepik--arm--inject-9-4" data-name="freepik--arm--inject-9">
        <path class="cls-27" d="M53.8,66.57a1.46,1.46,0,0,0-1.4-.48,2.07,2.07,0,0,0-.79-1.58,1.87,1.87,0,0,0-1.19,0c.09-.59-.54-1.68-1.22-1.65a6.16,6.16,0,0,0-1.82.59,6.34,6.34,0,0,0-1.19,2l.46-2.17A22.15,22.15,0,0,0,49,61.7c.84-.76.5-1.84.1-1.78a17.69,17.69,0,0,0-2.5,1c-1,.47-2.37.83-2.58,1.6s-.37,1.69-.7,3.44-.42,2.26-.09,3.12.8,2.59,1.67,4.75.59,2.75-.06,4.25c-.43,1-3.39,6.15-6.61,11.24l-1.73-8.68s-2.22-8.9-6.43-11.27c-3.53.91-5.07,2.9-5.4,5.58-.59,4.74,3.22,16.69,5.29,23s5.24,8,7.27,7.89,6.7-3.75,8.9-9.23C48,92.71,51,80.88,51.5,79.22a15.89,15.89,0,0,1,1.42-3.65c.47-.85.3-3.63-.13-5.18.28.46.89.71,1.23.28C53.9,69.83,54,67.1,53.8,66.57Z"/>
        <path class="cls-19" d="M52.4,66.09a2.07,2.07,0,0,0-.79-1.58,1.87,1.87,0,0,0-1.19,0c.09-.59-.54-1.68-1.22-1.65a6.16,6.16,0,0,0-1.82.59,6.34,6.34,0,0,0-1.19,2l.46-2.17A22.15,22.15,0,0,0,49,61.7c.84-.76.5-1.84.1-1.78a17.69,17.69,0,0,0-2.5,1c-1,.47-2.37.83-2.58,1.6s-.37,1.69-.7,3.44-.42,2.26-.09,3.12.8,2.59,1.67,4.75.59,2.75-.06,4.25c-.16.4-.75,1.47-1.57,2.91a9.72,9.72,0,0,0,6.79,3.46c.7-2.54,1.23-4.59,1.4-5.21a15.47,15.47,0,0,1,1.43-3.65c.46-.86.29-3.63-.13-5.18.27.45.89.7,1.22.28-.1-.79,0-3.56-.2-4A1.45,1.45,0,0,0,52.4,66.09Z"/>
        <path class="cls-12" d="M44.86,78a8.08,8.08,0,0,0,.55-1.59,3.69,3.69,0,0,0-.14-1.65c-.35-1.07-.83-2.08-1.19-3.15s-.73-2.11-1.06-3.19a12.1,12.1,0,0,1,.42-3.34l.33-1.65c.15-.51.09-1.19.6-1.56a6.12,6.12,0,0,1,1.5-.78l1.54-.66a15.25,15.25,0,0,1,1.59-.6c.4-.1.6.36.6.6a1.5,1.5,0,0,1-.19.85,4.08,4.08,0,0,1-1.28,1.13c-.47.31-.94.59-1.43.89l0-.06-.47,2.17-.17,0c.16-.36.33-.72.52-1.06a4.88,4.88,0,0,1,.69-1h0a8.33,8.33,0,0,1,1-.39,2.22,2.22,0,0,1,1.05-.17,1.37,1.37,0,0,1,.82.69,1.63,1.63,0,0,1,.29,1l-.09-.08a2.31,2.31,0,0,1,.78-.08,1,1,0,0,1,.71.33,2.2,2.2,0,0,1,.6,1.43l-.08,0a1.41,1.41,0,0,1,1.45.51h0a9.21,9.21,0,0,1,.14,2c0,.68,0,1.36.05,2h0a.59.59,0,0,1-.7.19,1.14,1.14,0,0,1-.6-.48h.06a12.48,12.48,0,0,1,.36,2.27,10.32,10.32,0,0,1,0,2.29,3,3,0,0,1-.42,1.07c-.17.34-.33.68-.48,1a16.27,16.27,0,0,0-.73,2.17A16.85,16.85,0,0,1,52.18,77a10.94,10.94,0,0,1,.47-1,3.17,3.17,0,0,0,.41-1.07,10.77,10.77,0,0,0,0-2.27,13.16,13.16,0,0,0-.37-2.26l-.06-.21.12.18a1.08,1.08,0,0,0,.54.45.56.56,0,0,0,.63-.16h0c-.07-.68-.06-1.36-.07-2a11.16,11.16,0,0,0-.15-2h0a1.3,1.3,0,0,0-1.3-.41h-.07v-.07a2,2,0,0,0-.53-1.36.89.89,0,0,0-.63-.29,2.56,2.56,0,0,0-.73.08h-.1v-.1a1.58,1.58,0,0,0-.26-.87,1.28,1.28,0,0,0-.73-.6,2.5,2.5,0,0,0-1,.17c-.32.12-.64.25-.95.4h0a4.23,4.23,0,0,0-.63.93q-.28.53-.51,1l-.35.8.18-.85.45-2.18v0h0c.48-.28,1-.59,1.43-.88a3.89,3.89,0,0,0,1.23-1.05,1.37,1.37,0,0,0,.17-.82c0-.24-.17-.59-.39-.47a14.07,14.07,0,0,0-1.57.59,24.64,24.64,0,0,0-3,1.4c-.47.33-.41,1-.59,1.5l-.34,1.64a11.66,11.66,0,0,0-.44,3.3c.31,1.06.69,2.13,1,3.19s.81,2.09,1.15,3.17a3.72,3.72,0,0,1,.13,1.66A7.73,7.73,0,0,1,44.86,78Z"/>
        <path class="cls-12" d="M50.47,64.54a1.71,1.71,0,0,0-.11-.59c-.5.29-1.19.55-1.58.83a1.6,1.6,0,0,0-.63,1C48.31,65.46,48.88,65,50.47,64.54Z"/>
        <path class="cls-12" d="M50.62,67.1a3.28,3.28,0,0,1,1.78-.93,5.43,5.43,0,0,0-.09-.56C50.85,66.24,50.62,67.1,50.62,67.1Z"/>
        <path class="cls-12" d="M52.82,70.76a9.51,9.51,0,0,0-.6-2.08c-.19-.39-.27-.59.21-.68s1-.81,1-.38c0,.22-.74.8-.71,1.11A12.52,12.52,0,0,1,52.82,70.76Z"/>
        <path class="cls-28" d="M38.25,89.25c-.92,1.3-4.09,5.46-3.8,8.74,0,0-1.19-2.19.39-5.42a50,50,0,0,1,3-5.34Z"/>
        <path class="cls-6" d="M30.08,68.93c-3.78,1.06-5.81,2.69-6,7.22S25.76,86.38,26.77,90s2.83,10.27,5.58,13.82,5.52,2.6,7.61,1.53,5.72-5.42,7-8.46S49.69,91,48.46,90l-.31,1a8.21,8.21,0,0,1-4.61-1.38,6.94,6.94,0,0,1-3-4l.59-1a1.19,1.19,0,0,0-1.26.51c-.72,1-1.61,2.55-1.61,2.55s-.78-4.59-1.32-7S33.94,69.82,30.08,68.93Z"/>
        <path class="cls-9" d="M40.53,85.62a6.94,6.94,0,0,0,3,4A8.21,8.21,0,0,0,48.15,91l.77-2.25a10.44,10.44,0,0,1-3.84-1.66,7.28,7.28,0,0,1-3.29-3.65Z"/>
        <path class="cls-9" d="M38.25,87.66c-1.62,2.31-4.56,6.14-4.13,9.11-1.5-3.28.2-5.67,1.39-7.44A22.81,22.81,0,0,1,38,86.1Z"/>
      </g>
    </g>
  </g>
  <g id="freepik--Flask--inject-9">
    <g id="freepik--Rocks--inject-9">
      <polygon id="freepik--shadow--inject-9-4" data-name="freepik--shadow--inject-9" class="cls-25" points="106.41 250.51 101.9 253.9 98.49 259.67 94.72 259.19 95.21 260.27 91.85 264.58 87.13 266.23 79.13 268.76 72.47 268.76 70.82 266.66 65.87 266.42 57.95 260.37 62 254.86 74.09 252.83 67.48 250.95 63.2 247.05 61.6 241.65 69.16 236.79 78.66 236.26 105.71 238.02 106.41 250.51"/>
      <g id="freepik--Rock--inject-9">
        <polygon class="cls-12" points="70.19 233.93 69.7 239.72 74.75 237.6 81.27 240.29 84.36 243.55 87.12 250.22 90.14 259.67 92.5 251.12 87.12 243.55 82.06 238.74 75.08 236.95 70.19 233.93"/>
        <polygon class="cls-12" points="78.66 255.11 69.21 248.43 72.39 241.43 78.66 255.11"/>
        <polygon class="cls-12" points="79.96 225.22 70.19 233.93 75.08 236.95 82.06 238.74 87.12 243.55 84.03 237.6 79.06 232.63 79.96 225.22"/>
        <polygon class="cls-12" points="87.12 224.33 99.59 231.1 104.06 236.38 96.49 238.17 87.12 243.55 84.03 237.6 87.94 231.1 87.12 224.33"/>
        <polygon class="cls-12" points="74.75 237.6 81.27 240.29 84.36 243.55 87.12 250.22 85.74 256.73 78.66 255.11 72.39 241.43 74.75 237.6"/>
        <polygon class="cls-12" points="99.59 231.1 108.22 235.57 111.72 236.79 112.45 239.39 108.87 242.65 92.99 249.49 91.33 247.81 96.57 242.16 100.81 242.16 104.06 236.38 99.59 231.1"/>
        <polygon class="cls-12" points="104.06 236.38 100.81 242.16 96.57 242.16 96.49 238.17 104.06 236.38"/>
        <polygon class="cls-12" points="110.66 249.08 107.24 250.22 105.37 248.43 97.88 249.65 108.71 245.26 110.66 249.08"/>
        <polygon class="cls-12" points="94.75 250.5 97.88 249.65 101.21 252.99 98.45 257.3 94.75 250.5"/>
        <polygon class="cls-19" points="69.7 239.72 66.04 245.58 69.21 248.43 72.39 241.43 74.75 237.6 69.7 239.72"/>
        <polygon class="cls-19" points="90.14 259.67 85.74 256.73 87.12 250.22 90.14 259.67"/>
        <polygon class="cls-19" points="87.12 243.55 91.33 247.81 96.57 242.16 96.49 238.17 87.12 243.55"/>
        <polygon class="cls-19" points="87.12 224.33 79.96 225.22 79.06 232.63 84.03 237.6 87.94 231.1 87.12 224.33"/>
        <polygon class="cls-19" points="115.3 239.48 117.42 244.12 110.66 249.08 108.71 245.26 115.3 239.48"/>
        <polygon class="cls-19" points="90.14 259.67 98.45 257.3 94.75 250.5 92.5 251.12 90.14 259.67"/>
        <polygon class="cls-19" points="107.24 250.22 101.21 252.99 97.88 249.65 105.37 248.43 107.24 250.22"/>
        <polygon class="cls-19" points="94.4 228.28 99.09 232.88 100.32 235.57 96.08 236.13 87.12 243.55 96.49 238.17 104.06 236.38 99.59 231.1 94.4 228.28"/>
        <polygon class="cls-19" points="79.96 225.22 80.7 232.15 85.05 235.91 84.03 237.6 79.06 232.63 79.96 225.22"/>
        <polygon class="cls-19" points="92.5 251.12 97.88 249.65 108.71 245.26 115.3 239.48 112.45 235.91 108.22 235.57 111.72 236.79 112.45 239.39 108.87 242.65 92.99 249.49 87.12 243.55 92.5 251.12"/>
        <g class="cls-21">
          <polygon class="cls-23" points="94.4 228.28 99.09 232.88 100.32 235.57 96.08 236.13 87.12 243.55 96.49 238.17 104.06 236.38 99.59 231.1 94.4 228.28"/>
          <polygon class="cls-23" points="79.96 225.22 80.7 232.15 85.05 235.91 84.03 237.6 79.06 232.63 79.96 225.22"/>
          <polygon class="cls-23" points="92.5 251.12 97.88 249.65 108.71 245.26 115.3 239.48 112.45 235.91 108.22 235.57 111.72 236.79 112.45 239.39 108.87 242.65 92.99 249.49 87.12 243.55 92.5 251.12"/>
        </g>
      </g>
      <g id="freepik--rock--inject-9-2" data-name="freepik--rock--inject-9">
        <polygon class="cls-12" points="63.88 253.16 63.61 256.34 66.39 255.18 69.97 256.66 71.68 258.45 73.2 262.13 74.86 267.33 76.16 262.62 73.2 258.45 70.41 255.81 66.57 254.82 63.88 253.16"/>
        <polygon class="cls-12" points="68.54 264.82 63.34 261.14 65.09 257.29 68.54 264.82"/>
        <polygon class="cls-12" points="69.26 248.36 63.88 253.16 66.57 254.82 70.41 255.81 73.2 258.45 71.5 255.18 68.76 252.44 69.26 248.36"/>
        <polygon class="cls-12" points="73.2 247.87 80.06 251.59 82.53 254.51 78.36 255.49 73.2 258.45 71.5 255.18 73.65 251.59 73.2 247.87"/>
        <polygon class="cls-12" points="66.39 255.18 69.97 256.66 71.68 258.45 73.2 262.13 72.44 265.72 68.54 264.82 65.09 257.29 66.39 255.18"/>
        <polygon class="cls-12" points="80.06 251.59 84.82 254.06 86.74 254.73 87.15 256.16 85.18 257.96 76.43 261.72 75.52 260.8 78.41 257.69 80.74 257.69 82.53 254.51 80.06 251.59"/>
        <polygon class="cls-12" points="82.53 254.51 80.74 257.69 78.41 257.69 78.36 255.49 82.53 254.51"/>
        <polygon class="cls-12" points="86.16 261.5 84.28 262.13 83.25 261.14 79.13 261.81 85.09 259.39 86.16 261.5"/>
        <polygon class="cls-12" points="77.4 262.28 79.13 261.81 80.96 263.65 79.44 266.03 77.4 262.28"/>
        <polygon class="cls-19" points="63.61 256.34 61.59 259.58 63.34 261.14 65.09 257.29 66.39 255.18 63.61 256.34"/>
        <polygon class="cls-19" points="74.86 267.33 72.44 265.72 73.2 262.13 74.86 267.33"/>
        <polygon class="cls-19" points="73.2 258.45 75.52 260.8 78.41 257.69 78.36 255.49 73.2 258.45"/>
        <polygon class="cls-19" points="73.2 247.87 69.26 248.36 68.76 252.44 71.5 255.18 73.65 251.59 73.2 247.87"/>
        <polygon class="cls-19" points="88.72 256.21 89.88 258.77 86.16 261.5 85.09 259.39 88.72 256.21"/>
        <polygon class="cls-19" points="74.86 267.33 79.44 266.03 77.4 262.28 76.16 262.62 74.86 267.33"/>
        <polygon class="cls-19" points="84.28 262.13 80.96 263.65 79.13 261.81 83.25 261.14 84.28 262.13"/>
        <polygon class="cls-19" points="77.21 250.04 79.8 252.58 80.47 254.06 78.14 254.37 73.2 258.45 78.36 255.49 82.53 254.51 80.06 251.59 77.21 250.04"/>
        <polygon class="cls-19" points="69.26 248.36 69.66 252.18 72.06 254.25 71.5 255.18 68.76 252.44 69.26 248.36"/>
        <polygon class="cls-19" points="76.16 262.62 79.13 261.81 85.09 259.39 88.72 256.21 87.15 254.25 84.82 254.06 86.74 254.73 87.15 256.16 85.18 257.96 76.43 261.72 73.2 258.45 76.16 262.62"/>
        <g class="cls-21">
          <polygon class="cls-23" points="77.21 250.04 79.8 252.58 80.47 254.06 78.14 254.37 73.2 258.45 78.36 255.49 82.53 254.51 80.06 251.59 77.21 250.04"/>
          <polygon class="cls-23" points="69.26 248.36 69.66 252.18 72.06 254.25 71.5 255.18 68.76 252.44 69.26 248.36"/>
          <polygon class="cls-23" points="76.16 262.62 79.13 261.81 85.09 259.39 88.72 256.21 87.15 254.25 84.82 254.06 86.74 254.73 87.15 256.16 85.18 257.96 76.43 261.72 73.2 258.45 76.16 262.62"/>
        </g>
      </g>
    </g>
    <g id="freepik--Plants--inject-9">
      <g id="freepik--Leaves--inject-9">
        <path class="cls-10" d="M222.9,226.73a3.57,3.57,0,0,0,2.69-2.11,3.47,3.47,0,0,0-.42-3.35,5,5,0,0,0-2.37,2.59A3.54,3.54,0,0,0,222.9,226.73Z"/>
        <path class="cls-16" d="M222.9,226.73a3.57,3.57,0,0,0,2.69-2.11,3.47,3.47,0,0,0-.42-3.35,5,5,0,0,0-2.37,2.59A3.54,3.54,0,0,0,222.9,226.73Z"/>
        <path class="cls-12" d="M223.62,224.36c-1,2.93-3.34,5.62-5.4,7.86a39.88,39.88,0,0,1-6.93,6.11,34.74,34.74,0,0,1-9.94,4.51A50,50,0,0,1,196,244c-2.12.34-4.29.43-6.39.84-.46.09-.18.78.18.8A37,37,0,0,0,201.26,244a35.1,35.1,0,0,0,10.83-4.9c5.1-3.56,10.09-8.7,11.74-14.83,0-.13-.16-.07-.19,0Z"/>
        <path class="cls-10" d="M206,246.15s.3,2.68,3.71,2.7,6.29-3.11,6.29-3.11-3.51-1.84-5.75-1.87A4.23,4.23,0,0,0,206,246.15Z"/>
        <path class="cls-16" d="M206,246.15s.3,2.68,3.71,2.7,6.29-3.11,6.29-3.11-3.51-1.84-5.75-1.87A4.23,4.23,0,0,0,206,246.15Z"/>
        <path class="cls-10" d="M202.75,239.52s2,.18,2.89-3.12-1.41-6.87-1.41-6.87-2.66,2.93-3.26,5.09C200.27,237.22,201.54,239,202.75,239.52Z"/>
        <path class="cls-16" d="M202.75,239.52s2,.18,2.89-3.12-1.41-6.87-1.41-6.87-2.66,2.93-3.26,5.09C200.27,237.22,201.54,239,202.75,239.52Z"/>
        <path class="cls-10" d="M214.62,240.65a3.73,3.73,0,0,0,3.47,1.34c2.32-.27,3.69-3.21,3.69-3.21s-2.74-1.78-4.93-1A3.27,3.27,0,0,0,214.62,240.65Z"/>
        <path class="cls-16" d="M214.62,240.65a3.73,3.73,0,0,0,3.47,1.34c2.32-.27,3.69-3.21,3.69-3.21s-2.74-1.78-4.93-1A3.27,3.27,0,0,0,214.62,240.65Z"/>
        <path class="cls-10" d="M210.25,234a3.79,3.79,0,0,0,2.87-2.38c.89-2.16-1-4.79-1-4.79s-2.9,1.52-3.26,3.83A3.31,3.31,0,0,0,210.25,234Z"/>
        <path class="cls-16" d="M210.25,234a3.79,3.79,0,0,0,2.87-2.38c.89-2.16-1-4.79-1-4.79s-2.9,1.52-3.26,3.83A3.31,3.31,0,0,0,210.25,234Z"/>
        <path class="cls-10" d="M220.6,234.33a3.6,3.6,0,0,0,3.16,1c2.06-.31,3.6-3,3.6-3s-2.72-1.36-3.93-1S220.6,234.33,220.6,234.33Z"/>
        <path class="cls-16" d="M220.6,234.33a3.6,3.6,0,0,0,3.16,1c2.06-.31,3.6-3,3.6-3s-2.72-1.36-3.93-1S220.6,234.33,220.6,234.33Z"/>
        <path class="cls-10" d="M218.66,221.52a3.3,3.3,0,0,1,1.19,2.66c0,1.84-2,3.46-2,3.46s-1.44-2.24-1.34-3.33S218.66,221.52,218.66,221.52Z"/>
        <path class="cls-16" d="M218.66,221.52a3.3,3.3,0,0,1,1.19,2.66c0,1.84-2,3.46-2,3.46s-1.44-2.24-1.34-3.33S218.66,221.52,218.66,221.52Z"/>
        <path class="cls-12" d="M212.3,246.27c-.59,0-1.22,0-1.83-.05s-1.22-.07-1.84-.13c-1.24-.12-2.48-.31-3.7-.54s-2.29-.48-3.43-.77-2.11-.72-3.18-1c-.31-.08-.35.43-.15.56a9.79,9.79,0,0,0,3.08,1.14c1.14.29,2.28.59,3.44.79a28.17,28.17,0,0,0,3.56.46c.7,0,1.39,0,2.09,0a17.17,17.17,0,0,0,1.89-.26c.08,0,.19-.2.07-.19Z"/>
        <path class="cls-12" d="M219.07,239.62a5.35,5.35,0,0,1-2.37.47c-.79,0-1.58.14-2.37.18a18,18,0,0,1-2.44-.05c-.5,0-1-.07-1.47-.12a3.94,3.94,0,0,0-1.37,0c-.18.06-.26.43-.06.51a6.38,6.38,0,0,0,1.49.26c.5.06,1,.15,1.51.18a17.25,17.25,0,0,0,2.69,0c1.52-.08,3.31-.16,4.46-1.27.08-.09,0-.2-.08-.13Z"/>
        <path class="cls-12" d="M203.82,234.34a14.73,14.73,0,0,0-.72,2.25,13.73,13.73,0,0,0-.45,2.19,10.23,10.23,0,0,0,0,2.07,3.36,3.36,0,0,0,.65,1.88c.12.13.44.15.47-.09s-.21-.75-.29-1.09a5.24,5.24,0,0,1-.16-.88,13.24,13.24,0,0,1-.06-1.78,13.61,13.61,0,0,1,.73-4.56c.07-.16-.15-.11-.2,0Z"/>
        <path class="cls-12" d="M211.5,229.3a5.29,5.29,0,0,0-.6.83,13.33,13.33,0,0,0-.52,1.23,14.13,14.13,0,0,0-.7,2.85,13.86,13.86,0,0,0-.1,2.73c0,.77-.13,1.87.49,2.45a.21.21,0,0,0,.31,0l0-.06a2.37,2.37,0,0,0,0-1.06c0-.37,0-.73,0-1.1a16,16,0,0,1,0-2.4,17.12,17.12,0,0,1,.35-2.56,10.76,10.76,0,0,1,.39-1.34c.17-.48.32-1,.52-1.46a.11.11,0,0,0,0-.16.11.11,0,0,0-.17,0s0,0,0,0Z"/>
        <path class="cls-12" d="M224.72,233.4a16,16,0,0,1-2.38.42c-.73.1-1.47.23-2.2.32l-2,.19a5.62,5.62,0,0,0-1.9.36c-.24.12-.18.63.13.6.72-.07,1.44-.25,2.17-.32s1.4-.12,2.1-.24,1.32-.25,2-.42a13.36,13.36,0,0,0,2.06-.76c.09,0,.14-.2,0-.16Z"/>
        <path class="cls-12" d="M218.14,224.36a8.37,8.37,0,0,0-.43,1.08,11.93,11.93,0,0,0-.24,1.19,19,19,0,0,0-.28,2.27,12.6,12.6,0,0,0,.19,2.21,9,9,0,0,0,.41,2.12.32.32,0,0,0,.4.19.32.32,0,0,0,.19-.41,8.29,8.29,0,0,1-.29-1.85,19,19,0,0,1-.2-2c0-.69.08-1.38.12-2.07,0-.32,0-.64.06-1a6.82,6.82,0,0,1,.3-1.73c.07-.18-.14-.21-.21,0Z"/>
      </g>
      <path class="cls-10" d="M185.81,255c.76-.85,1.66-1.56,2.45-2.37l.74-.76c.51-.5,1.05-1,1.6-1.43a25.72,25.72,0,0,1,3.53-2.43,24.86,24.86,0,0,1,3.89-1.78,6.18,6.18,0,0,0-.92,4.75,26.83,26.83,0,0,1,2.13-3.36,6,6,0,0,1,3.72-1.48,20.74,20.74,0,0,1,7.07.43,1.13,1.13,0,0,1,.84.52c.16.39-.15.79-.41,1.11a10.64,10.64,0,0,0-2.06,4.23c1.63-.2,2.72-1.84,4.29-2.34a5.22,5.22,0,0,1,4,.65,14,14,0,0,1,6,5.93,4.51,4.51,0,0,0-1.93.9c.07.44.59.65,1,.84a5.7,5.7,0,0,1,2.67,3,11.32,11.32,0,0,1,.66,2.12c.08.38.15.75.22,1.13a5,5,0,0,1,.14.86,9.23,9.23,0,0,0-1-.56,9.84,9.84,0,0,0-3-.71,11.27,11.27,0,0,0-3.07,0c-.85.15-1.26-1.05-1.32-1.71a6.38,6.38,0,0,1,.43-2.33,1.93,1.93,0,0,0-1.46,1.35,11,11,0,0,0-.38,2.06,1.3,1.3,0,0,1-.89,1.17,10.09,10.09,0,0,1-3.79.8,2,2,0,0,1-.94-.16,2.07,2.07,0,0,1-.82-1.19,24.79,24.79,0,0,1-1.32-5.63.83.83,0,0,0-.21-.54c-.39-.3-.85.29-1,.76a14.47,14.47,0,0,0,.16,7.16c-2.7.59-5.54,1.08-8.21.32a3,3,0,0,1-1.55-.87,3.23,3.23,0,0,1-.59-1.4,32.82,32.82,0,0,1-.9-8.38,4.25,4.25,0,0,0-2.16,2.62,13.49,13.49,0,0,0-.84,5.87c-.24-.14-.48-.27-.7-.42a15.41,15.41,0,0,1-3.11-2.58,13.83,13.83,0,0,1-1.27-1.59A11.81,11.81,0,0,1,185.81,255Z"/>
      <path class="cls-29" d="M185.81,255c.76-.85,1.66-1.56,2.45-2.37l.74-.76c.51-.5,1.05-1,1.6-1.43a25.72,25.72,0,0,1,3.53-2.43,24.86,24.86,0,0,1,3.89-1.78,6.18,6.18,0,0,0-.92,4.75,26.83,26.83,0,0,1,2.13-3.36,6,6,0,0,1,3.72-1.48,20.74,20.74,0,0,1,7.07.43,1.13,1.13,0,0,1,.84.52c.16.39-.15.79-.41,1.11a10.64,10.64,0,0,0-2.06,4.23c1.63-.2,2.72-1.84,4.29-2.34a5.22,5.22,0,0,1,4,.65,14,14,0,0,1,6,5.93,4.51,4.51,0,0,0-1.93.9c.07.44.59.65,1,.84a5.7,5.7,0,0,1,2.67,3,11.32,11.32,0,0,1,.66,2.12c.08.38.15.75.22,1.13a5,5,0,0,1,.14.86,9.23,9.23,0,0,0-1-.56,9.84,9.84,0,0,0-3-.71,11.27,11.27,0,0,0-3.07,0c-.85.15-1.26-1.05-1.32-1.71a6.38,6.38,0,0,1,.43-2.33,1.93,1.93,0,0,0-1.46,1.35,11,11,0,0,0-.38,2.06,1.3,1.3,0,0,1-.89,1.17,10.09,10.09,0,0,1-3.79.8,2,2,0,0,1-.94-.16,2.07,2.07,0,0,1-.82-1.19,24.79,24.79,0,0,1-1.32-5.63.83.83,0,0,0-.21-.54c-.39-.3-.85.29-1,.76a14.47,14.47,0,0,0,.16,7.16c-2.7.59-5.54,1.08-8.21.32a3,3,0,0,1-1.55-.87,3.23,3.23,0,0,1-.59-1.4,32.82,32.82,0,0,1-.9-8.38,4.25,4.25,0,0,0-2.16,2.62,13.49,13.49,0,0,0-.84,5.87c-.24-.14-.48-.27-.7-.42a15.41,15.41,0,0,1-3.11-2.58,13.83,13.83,0,0,1-1.27-1.59A11.81,11.81,0,0,1,185.81,255Z"/>
      <path class="cls-16" d="M185.62,254.53A31.86,31.86,0,0,1,195,252.7a45.79,45.79,0,0,1,9.5.51,40.14,40.14,0,0,1,9.11,2.52,21.15,21.15,0,0,1,7.77,5.25,21,21,0,0,0-7.86-5,39.75,39.75,0,0,0-9.1-2.26,45,45,0,0,0-9.35-.25,31.17,31.17,0,0,0-9,2h0a.5.5,0,0,1-.65-.29h0A.51.51,0,0,1,185.62,254.53Z"/>
    </g>
    <g id="freepik--flask--inject-9-2" data-name="freepik--flask--inject-9">
      <g id="freepik--Ring--inject-9">
        <path class="cls-10" d="M178.2,227.83c-7.84-4.54-18.17-7-29.07-7s-21.24,2.49-29.08,7c-8.75,5-13.57,12.07-13.57,19.78s4.81,14.73,13.57,19.79c7.85,4.53,18.18,7,29.08,7s21.23-2.49,29.07-7c8.75-5,13.57-12.08,13.57-19.79S187,232.88,178.2,227.83ZM174,260c-13.73,7.92-36,7.92-49.71,0s-13.72-20.77,0-28.7,36-7.92,49.71,0S187.7,252,174,260Z"/>
        <path class="cls-11" d="M178.2,227.83c-7.84-4.54-18.17-7-29.07-7s-21.24,2.49-29.08,7c-8.75,5-13.57,12.07-13.57,19.78s4.81,14.73,13.57,19.79c7.85,4.53,18.18,7,29.08,7s21.23-2.49,29.07-7c8.75-5,13.57-12.08,13.57-19.79S187,232.88,178.2,227.83ZM174,260c-13.73,7.92-36,7.92-49.71,0s-13.72-20.77,0-28.7,36-7.92,49.71,0S187.7,252,174,260Z"/>
        <path class="cls-31" d="M178.2,267.4c6.35-3.67,10.63-8.37,12.5-13.62-1,2.34-4.26,8.79-15,13.45-14.17,6.14-35.21,6.58-51.91-1s-17.46-21.47-14.9-27.61h0a18.63,18.63,0,0,0-2.37,9c0,7.72,4.82,14.74,13.56,19.79,7.86,4.53,18.19,7,29.08,7S170.36,271.93,178.2,267.4Z"/>
        <path class="cls-25" d="M178.2,267.4c6.35-3.67,10.63-8.37,12.5-13.62-1,2.34-4.26,8.79-15,13.45-14.17,6.14-35.21,6.58-51.91-1s-17.46-21.47-14.9-27.61h0a18.63,18.63,0,0,0-2.37,9c0,7.72,4.82,14.74,13.56,19.79,7.86,4.53,18.19,7,29.08,7S170.36,271.93,178.2,267.4Z"/>
        <path class="cls-31" d="M114.26,243h0c.94-4.31,4.27-8.47,10-11.78,13.73-7.92,36-7.92,49.71,0,5.59,3.23,8.9,7.27,9.94,11.46h0c-1.24-8.27-7.72-13.82-19.08-17.25-11.58-3.5-25.72-3.56-38,1.92C118.86,230.93,114.26,237.31,114.26,243Z"/>
        <path class="cls-32" d="M114.26,243h0c.94-4.31,4.27-8.47,10-11.78,13.73-7.92,36-7.92,49.71,0,5.59,3.23,8.9,7.27,9.94,11.46h0c-1.24-8.27-7.72-13.82-19.08-17.25-11.58-3.5-25.72-3.56-38,1.92C118.86,230.93,114.26,237.31,114.26,243Z"/>
        <path class="cls-33" d="M187,239.62c-.67-.39-1.84-.64-1.62,1a21.63,21.63,0,0,1-1.14,11.28c-3.27,7.53-14.37,15.21-38.7,16.14,0,0,13.34,2.82,26.58-2.2,11.73-4.44,15-9.88,16.84-16.67C190.07,245.13,188.81,240.65,187,239.62Z"/>
      </g>
      <path class="cls-10" d="M167.37,132.47V95.81l-36.49.07v36.59a10.09,10.09,0,0,1-6.31,9.33,64.5,64.5,0,1,0,49.13,0A10.1,10.1,0,0,1,167.37,132.47Z"/>
      <path class="cls-34" d="M167.37,132.47V95.81l-36.49.07v36.59a10.09,10.09,0,0,1-6.31,9.33,64.5,64.5,0,1,0,49.13,0A10.1,10.1,0,0,1,167.37,132.47Z"/>
      <path class="cls-35" d="M95.09,212.72A55.2,55.2,0,1,0,109,163.51,55.18,55.18,0,0,0,95.09,212.72Z"/>
      <g class="cls-22">
        <path class="cls-23" d="M141.46,152.92c-3.09,1-9.42,2.23-12,1-1.3-.63-2.83-1.46-4.51-2.09a55.33,55.33,0,0,0-26.63,28,18.33,18.33,0,0,0,1.78,4.24c1.71,2.9,3.88,3.62,6.53,4.62s1.51,2.38,2.56,4.24,1.47,2.88,2.84,4-1,2.37-1.89,4-1.26,2.61-.63,6.4,3.75,7.35,4.59,8.9-1.28,2.86-1.32,5.85-1.56,10.64.46,15.46,3.77,4.61,4.06,1.65-.16-5.88,1.92-7.78,5.4-.7,7.26-4.5,2.59-3.48,4.68-4.51,1.47-2.35,3.74-5.14,3.29-5.61,1-7.34-4-1.89-5.69-5.28a28.49,28.49,0,0,0-7.41-9.2c-2.86-2.27-8.25-1.06-10.15-2s-2.49-5-2.1-6.42-1-2.1-2.54-2-2.14-1-2.2-3,3.37-3.9,5.84-3.66,3.56,1.6,3.5,4.83a6.2,6.2,0,0,0,3.88,6.1c2.14,1,1.18-1.62-.16-3.5s-1.19-3.35.66-6.65,4.75-2.52,7.5-5.34,2.77-.34,4.94.38,2-.55,3.22-2.42,3.7.36,6.31-.88-1.78-4.65-1.07-6.81,2.91-1.71,2.27-5.26,1.08-3.37,2.18-4.46S144.54,151.91,141.46,152.92Zm-4.75,7.55c-1,1.52-1.6,1.09-3.13,2.67a6.84,6.84,0,0,1-4.81,2.2c-1.25-.07-2.87-2.58-2.73-3.94s2.13-1.4,4.36-1.3a12.35,12.35,0,0,0,6.53-1.72c1.79-.95.83.58-.2,2.09Zm52.41,71.37c-1.28-.46-1.24,0-2.2.9s-2.31,1.89-2.29,3-.12,2.47.94,1.83.91-1.65,2.31-2,3.19-3,1.27-3.73Zm-32.69-66.69c1.45.4,6.44,1.51,7.46,0s1.75-1.27,3.27-2.89,1.89-4.06.43-4.33-1.78.32-4.2-.29-3.28-2.44-5.75-2.44-5-1-6.82-1.29c-2.5-.4-5.84-.08-3.78,1.74s3.51,2.21,3.21,4-1.85,3.56-1.49,5,1.07,3.09,2.09,2.82S155,164.76,156.43,165.15Zm40.31,8.39a2.07,2.07,0,0,1-1.85.27c-2.41-.86-4.69-1.71-5.56-3s-2.75-2.37-4.07-1.52-4.52,1.54-6.42,2-3,1.32-3.31,3.28-.17,3-1.51,2.71a3.61,3.61,0,0,1-2.9-2.15c-.39-1.16-1.66-2-3.12.06s-1.3,3.11-.35,3.56,2.37,1,1,2.58-3.06.7-4.21,2.33-2.21,3.51-1.25,3.85,4.22.05,5.08-1.12,1.07-.76,2.59-1a4.07,4.07,0,0,1,3.85,1.25c.89,1.09,2.63,1.12,2.52,2.29s-1,2.22-.77,2.73,1-.39,1-.39.35,1.43.55.69.39-2.71,1.08-2.14,1.78-.21,2.15.95.7,1.68,2.29,2,2.83.29,2.87,1.19.62,2.55-.75,2.54-2.16-.83-3.48-1.34-2.61,0-3.94-.39-1.85-2.68-3.59-4a9.4,9.4,0,0,0-7-2.19,17.36,17.36,0,0,0-9.4,4.42c-2.21,2.15-4.63,2.77-4.35,7.53s.74,6.3,2.23,7.56,4.78.72,6.57,1.53a7.87,7.87,0,0,1,4.83,7.81c-.11,5,.16,4.63-1,7.61a16.81,16.81,0,0,0-.79,9.26c.59,3,1.83,6.65,3.75,7.34a5.23,5.23,0,0,0,5.49-1.45c1.39-1.48,3-4.8,5-6.6s4.95-2.25,4.81-4.62,1.43-7,3.22-7.4,5.57-2.18,5.77-4.28-.59-3.91,2.66-5.46,3.25-.18,5-3a3.86,3.86,0,0,1,2.54-1.78v-.16A55,55,0,0,0,196.74,173.54Z"/>
      </g>
      <path class="cls-36" d="M171.8,155.77c-32.86-16.11-43.49,6.34-27.77,24.46s46.29,28.57,52.27,19.51S196.21,167.74,171.8,155.77Z"/>
      <g class="cls-21">
        <path class="cls-5" d="M129.57,226.06C104,201.68,115,156.53,141,146.85h0c-1,.15-2.11.33-3.17.56a55.19,55.19,0,1,0,57.71,83.88C186.08,240.49,154.19,249.54,129.57,226.06Z"/>
      </g>
      <path class="cls-25" d="M103.48,182.22c6.75-14.78,16.91-22.55,25-26.58A22.72,22.72,0,0,0,141,135.34V95.86H130.9v36.58a10.08,10.08,0,0,1-6.31,9.33,64.5,64.5,0,0,0,24.54,124.17c.79,0,1.58,0,2.37-.05l.16-.07C93.34,261.25,91.36,208.81,103.48,182.22Z"/>
      <path class="cls-25" d="M141,253.63c-44.51-11.08-55.24-69.88-46.22-86.91a64.5,64.5,0,1,0,113.56,60.35S185.54,264.71,141,253.63Z"/>
      <path class="cls-25" d="M167.37,109V95.81l-36.49.07V109a18.43,18.43,0,0,0,2.37,1.63c8.76,5.06,23,5.06,31.71,0A18.86,18.86,0,0,0,167.37,109Z"/>
      <path class="cls-18" d="M178.49,154.72c-7.85-1.9-18.58,4.23-11,12.43,9.45,10.35,21.32,15.29,22.74,30.63.41,4.48,2.33,6.84,4.45,7.44,2.37.67,5.07-.3,6.71-3.62C210.49,183.82,197.5,159.08,178.49,154.72Z"/>
      <path class="cls-18" d="M201.53,218.71a5.2,5.2,0,1,1-4.3-6A5.19,5.19,0,0,1,201.53,218.71Z"/>
      <path class="cls-10" d="M171.55,83.71c0-3.31-2.19-6.62-6.57-9.15-8.76-5-23-5-31.72,0-4.38,2.53-6.57,5.84-6.57,9.15h0V93.4h0c0,3.31,2.19,6.63,6.57,9.15,8.76,5.06,23,5.06,31.72,0,4.38-2.52,6.57-5.84,6.57-9.15h0Z"/>
      <path class="cls-11" d="M171.55,83.71c0-3.31-2.19-6.62-6.57-9.15-8.76-5-23-5-31.72,0-4.38,2.53-6.57,5.84-6.57,9.15h0V93.4h0c0,3.31,2.19,6.63,6.57,9.15,8.76,5.06,23,5.06,31.72,0,4.38-2.52,6.57-5.84,6.57-9.15h0Z"/>
      <path class="cls-26" d="M166.44,101.62c-6.58,3-18.83,4.55-25.38,1.78-6.92-2.92-10.35-5.87-10.35-12.54V76.34c-2.67,2.22-4,4.79-4,7.37h0V93.4h0c0,3.31,2.19,6.63,6.57,9.15,8.76,5.06,23,5.06,31.72,0C165.5,102.26,166,101.94,166.44,101.62Z"/>
      <path class="cls-10" d="M133.26,92.87c8.74,5.08,23,5.08,31.72,0s8.76-13.25,0-18.31-23-5-31.72,0S124.5,87.81,133.26,92.87Z"/>
      <path class="cls-17" d="M133.26,92.87c8.74,5.08,23,5.08,31.72,0s8.76-13.25,0-18.31-23-5-31.72,0S124.5,87.81,133.26,92.87Z"/>
      <path class="cls-17" d="M139.32,76.17c-7.08,1.86-9.4,7.21-6.3,11.38S142,95.1,152.5,93.72s12.72-7,12.71-8.39Z"/>
      <path class="cls-10" d="M137.57,90.38c6.38,3.69,16.72,3.69,23.1,0s6.38-9.65,0-13.34-16.72-3.68-23.1,0S131.19,86.68,137.57,90.38Z"/>
      <path class="cls-18" d="M137.57,90.38c6.38,3.69,16.72,3.69,23.1,0s6.38-9.65,0-13.34-16.72-3.68-23.1,0S131.19,86.68,137.57,90.38Z"/>
      <path class="cls-18" d="M137.57,88.59a12.18,12.18,0,0,0-1.35.9,13.68,13.68,0,0,0,1.35.89c6.38,3.69,16.72,3.69,23.1,0a15.12,15.12,0,0,0,1.36-.89,13.33,13.33,0,0,0-1.36-.9C154.29,84.9,144,84.9,137.57,88.59Z"/>
    </g>
    <g id="freepik--plants--inject-9-2" data-name="freepik--plants--inject-9">
      <path class="cls-10" d="M104.26,263c-5.42-1.54-14.09-3.56-15.34-9.73,2.64-.6,4.59-1,6-2.61a23.22,23.22,0,0,1-7.44-.23c-1.33-2.28-1.9-3.59-1.07-7.12a22,22,0,0,0,6.1-1.83,10.22,10.22,0,0,1-5.86-2.1c0-1.9,2-5.52,1.41-9a96.8,96.8,0,0,1,11.53,3.48c.81,1,1.28,1.78,0,4.8a8.58,8.58,0,0,0,2.6-3.1c5.69,2.29,9.56,5.66,6.61,12.38a29.93,29.93,0,0,0,3.61-3.51c6,3.19,3.72,13.73-1,19.19C109.9,263.75,108.3,263.66,104.26,263Z"/>
      <path class="cls-16" d="M93.19,235.22a33.71,33.71,0,0,1,5.43,5.18,54.21,54.21,0,0,1,4.5,6,45,45,0,0,1,3.56,6.68,27.07,27.07,0,0,1,2.09,7.38l-1.52.14a25.57,25.57,0,0,0-1.62-7.12,44.49,44.49,0,0,0-3.15-6.7,52.82,52.82,0,0,0-4.16-6.2A32.85,32.85,0,0,0,93.19,235.22Z"/>
      <path class="cls-10" d="M122,265.36c-.71-.92-1.56-1.71-2.28-2.61-.23-.28-.46-.56-.7-.83-.47-.55-1-1.07-1.49-1.57a26.71,26.71,0,0,0-3.36-2.73,25,25,0,0,0-3.78-2.11,6.2,6.2,0,0,1,.53,4.88,21.69,21.69,0,0,0-1.87-3.56,6.09,6.09,0,0,0-3.63-1.78,21,21,0,0,0-7.16-.13,1.12,1.12,0,0,0-.89.45c-.19.38.08.81.32,1.16A10.42,10.42,0,0,1,99.44,261c-1.63-.34-2.6-2.07-4.15-2.7a5.43,5.43,0,0,0-4.06.34,14.21,14.21,0,0,0-6.53,5.51,4.59,4.59,0,0,1,1.88,1.07c-.11.44-.64.59-1.06.76a5.85,5.85,0,0,0-2.94,2.82,11.92,11.92,0,0,0-.83,2.1l-.3,1.11a4.18,4.18,0,0,0-.22.86,8,8,0,0,1,1-.49,9.87,9.87,0,0,1,3-.48,11.44,11.44,0,0,1,3.09.27c.85.22,1.36-.95,1.46-1.62a6.54,6.54,0,0,0-.23-2.37A2,2,0,0,1,91,269.6a10.71,10.71,0,0,1,.21,2.11,1.63,1.63,0,0,0,.24.81A1.61,1.61,0,0,0,92,273a10,10,0,0,0,3.76,1.11,1.94,1.94,0,0,0,1-.09,2,2,0,0,0,.93-1.15,25.92,25.92,0,0,0,1.78-5.56.79.79,0,0,1,.26-.54c.42-.27.83.36.9.85a14.55,14.55,0,0,1-.74,7.22c2.67.84,5.5,1.53,8.25,1a3,3,0,0,0,1.64-.76,3.31,3.31,0,0,0,.69-1.36,33.17,33.17,0,0,0,1.57-8.38,4.28,4.28,0,0,1,2,2.82,13.48,13.48,0,0,1,.38,6l.75-.37a16,16,0,0,0,3.34-2.38,15.46,15.46,0,0,0,1.42-1.5A12.27,12.27,0,0,0,122,265.36Z"/>
      <path class="cls-29" d="M122,265.36c-.71-.92-1.56-1.71-2.28-2.61-.23-.28-.46-.56-.7-.83-.47-.55-1-1.07-1.49-1.57a26.71,26.71,0,0,0-3.36-2.73,25,25,0,0,0-3.78-2.11,6.2,6.2,0,0,1,.53,4.88,21.69,21.69,0,0,0-1.87-3.56,6.09,6.09,0,0,0-3.63-1.78,21,21,0,0,0-7.16-.13,1.12,1.12,0,0,0-.89.45c-.19.38.08.81.32,1.16A10.42,10.42,0,0,1,99.44,261c-1.63-.34-2.6-2.07-4.15-2.7a5.43,5.43,0,0,0-4.06.34,14.21,14.21,0,0,0-6.53,5.51,4.59,4.59,0,0,1,1.88,1.07c-.11.44-.64.59-1.06.76a5.85,5.85,0,0,0-2.94,2.82,11.92,11.92,0,0,0-.83,2.1l-.3,1.11a4.18,4.18,0,0,0-.22.86,8,8,0,0,1,1-.49,9.87,9.87,0,0,1,3-.48,11.44,11.44,0,0,1,3.09.27c.85.22,1.36-.95,1.46-1.62a6.54,6.54,0,0,0-.23-2.37A2,2,0,0,1,91,269.6a10.71,10.71,0,0,1,.21,2.11,1.63,1.63,0,0,0,.24.81A1.61,1.61,0,0,0,92,273a10,10,0,0,0,3.76,1.11,1.94,1.94,0,0,0,1-.09,2,2,0,0,0,.93-1.15,25.92,25.92,0,0,0,1.78-5.56.79.79,0,0,1,.26-.54c.42-.27.83.36.9.85a14.55,14.55,0,0,1-.74,7.22c2.67.84,5.5,1.53,8.25,1a3,3,0,0,0,1.64-.76,3.31,3.31,0,0,0,.69-1.36,33.17,33.17,0,0,0,1.57-8.38,4.28,4.28,0,0,1,2,2.82,13.48,13.48,0,0,1,.38,6l.75-.37a16,16,0,0,0,3.34-2.38,15.46,15.46,0,0,0,1.42-1.5A12.27,12.27,0,0,0,122,265.36Z"/>
      <path class="cls-16" d="M122.23,264.89a32.37,32.37,0,0,0-9.3-2.55,45.91,45.91,0,0,0-9.59-.25,40.55,40.55,0,0,0-9.4,1.78,21.51,21.51,0,0,0-8.26,4.67A21.09,21.09,0,0,1,94,264.12a39.48,39.48,0,0,1,9.35-1.55,45.27,45.27,0,0,1,9.45.5,31.54,31.54,0,0,1,9,2.74h0a.51.51,0,0,0,.43-.93Z"/>
    </g>
  </g>
  <g id="freepik--speech-bubble--inject-9">
    <g id="freepik--speech-bubble--inject-9-2" data-name="freepik--speech-bubble--inject-9">
      <g id="freepik--speech-bubble--inject-9-3" data-name="freepik--speech-bubble--inject-9">
        <path class="cls-23" d="M169.77,35.29a20.56,20.56,0,0,1-5.56,14.1L162.5,51a20.63,20.63,0,0,1-29.12-29L135,20.28a20.62,20.62,0,0,1,34.76,15Z"/>
        <path class="cls-19" d="M149.09,12.93a22.39,22.39,0,0,0-3.66,44.47l2.51,6.49a1.3,1.3,0,0,0,1.68.74,1.33,1.33,0,0,0,.75-.74l2.5-6.53a22.39,22.39,0,0,0-3.8-44.46Zm20.68,22.36a20.56,20.56,0,0,1-5.56,14.1L162.5,51a20.63,20.63,0,0,1-29.12-29L135,20.28a20.62,20.62,0,0,1,34.76,15Z"/>
        <path class="cls-17" d="M169.77,35.29a20.56,20.56,0,0,1-5.56,14.1L162.5,51a20.63,20.63,0,0,1-29.12-29L135,20.28a20.62,20.62,0,0,1,34.76,15Z"/>
      </g>
      <path class="cls-10" d="M151.45,37.57c13,.51,8.84-15.34,8.84-15.34S144.49,26.59,151.45,37.57Z"/>
      <path class="cls-10" d="M146.59,41.74c-9.74,3.56-10.45-9.5-10.45-9.5S149.19,31.7,146.59,41.74Z"/>
      <path class="cls-10" d="M151.21,42.85a28.72,28.72,0,0,1,.72-5.05A24.43,24.43,0,0,1,153.6,33a22.42,22.42,0,0,1,2.71-4.41A18.71,18.71,0,0,0,153,32.68,21.11,21.11,0,0,0,151,37.55a26.18,26.18,0,0,0-.95,7.86,27,27,0,0,0-2.8-3.65,32.66,32.66,0,0,0-2.6-2.53A28.81,28.81,0,0,0,141.76,37c.86.83,1.7,1.67,2.5,2.56s1.58,1.78,2.3,2.72a34.11,34.11,0,0,1,2.06,2.87A24.31,24.31,0,0,1,150,47.72a.68.68,0,0,0,.8.36h0a.69.69,0,0,0,.47-.73A30.71,30.71,0,0,1,151.21,42.85Z"/>
      <path class="cls-29" d="M151.21,42.85a28.72,28.72,0,0,1,.72-5.05A24.43,24.43,0,0,1,153.6,33a22.42,22.42,0,0,1,2.71-4.41A18.71,18.71,0,0,0,153,32.68,21.11,21.11,0,0,0,151,37.55a26.18,26.18,0,0,0-.95,7.86,27,27,0,0,0-2.8-3.65,32.66,32.66,0,0,0-2.6-2.53A28.81,28.81,0,0,0,141.76,37c.86.83,1.7,1.67,2.5,2.56s1.58,1.78,2.3,2.72a34.11,34.11,0,0,1,2.06,2.87A24.31,24.31,0,0,1,150,47.72a.68.68,0,0,0,.8.36h0a.69.69,0,0,0,.47-.73A30.71,30.71,0,0,1,151.21,42.85Z"/>
    </g>
  </g>
  <g id="freepik--Charts--inject-9">
    <g id="freepik--speech-bubble--inject-9-4" data-name="freepik--speech-bubble--inject-9">
      <g id="freepik--speech-bubble--inject-9-5" data-name="freepik--speech-bubble--inject-9">
        <path class="cls-3" d="M228.65,63.71c.11,0,.13-.14.13-.2V50.06l3.41.5a.27.27,0,0,0,.28-.18.23.23,0,0,0-.06-.29l-3.63-3.7v-4a.88.88,0,0,0-.4-.67L206.37,29a.24.24,0,0,0-.14-.05c-.12,0-.13.14-.13.2v21.1a.86.86,0,0,0,.39.67l22,12.72a.42.42,0,0,0,.15,0Z"/>
        <path class="cls-10" d="M206.24,29.12a.11.11,0,0,1,.08,0l22,12.71a.74.74,0,0,1,.33.59v4l.06.08,3.61,3.66a.16.16,0,0,1-.1.27h0L228.94,50l-.27,0V63.54a.11.11,0,0,1,0,.08.18.18,0,0,1-.08,0l-22-12.71a.77.77,0,0,1-.33-.6V29.18a.11.11,0,0,1,0-.08m0-.24c-.15,0-.25.12-.25.32v21.1a1,1,0,0,0,.45.78l22,12.71a.36.36,0,0,0,.2.06c.15,0,.25-.12.25-.32V50.2l3.27.48h.06a.4.4,0,0,0,.4-.39.36.36,0,0,0-.12-.28l-3.61-3.68V42.41a1,1,0,0,0-.45-.78l-22-12.71a.36.36,0,0,0-.2-.06Z"/>
        <path class="cls-37" d="M206.24,29.12a.11.11,0,0,1,.08,0l22,12.71a.74.74,0,0,1,.33.59v4l.06.08,3.61,3.66a.16.16,0,0,1-.1.27h0L228.94,50l-.27,0V63.54a.11.11,0,0,1,0,.08.18.18,0,0,1-.08,0l-22-12.71a.77.77,0,0,1-.33-.6V29.18a.11.11,0,0,1,0-.08m0-.24c-.15,0-.25.12-.25.32v21.1a1,1,0,0,0,.45.78l22,12.71a.36.36,0,0,0,.2.06c.15,0,.25-.12.25-.32V50.2l3.27.48h.06a.4.4,0,0,0,.4-.39.36.36,0,0,0-.12-.28l-3.61-3.68V42.41a1,1,0,0,0-.45-.78l-22-12.71a.36.36,0,0,0-.2-.06Z"/>
      </g>
      <g id="freepik--Chart--inject-9">
        <path class="cls-19" d="M225.09,59.42c.07,0,.13,0,.13-.12v-16a.37.37,0,0,0-.13-.28c-.08,0-.13,0-.13.13V59.16A.3.3,0,0,0,225.09,59.42Z"/>
        <path class="cls-19" d="M208.34,49.76l18.28,10.55c.07,0,.12,0,.12-.12a.33.33,0,0,0-.12-.27L208.34,49.37c-.07,0-.13,0-.13.12A.34.34,0,0,0,208.34,49.76Z"/>
        <polygon class="cls-10" points="221.93 44.42 224.17 45.72 224.17 56.99 221.93 55.7 221.93 44.42"/>
        <polygon class="cls-38" points="221.93 44.42 224.17 45.72 224.17 56.99 221.93 55.7 221.93 44.42"/>
        <polygon class="cls-10" points="218.74 50.4 220.99 51.7 220.99 55.15 218.74 53.86 218.74 50.4"/>
        <polygon class="cls-10" points="215.56 46.75 217.8 48.04 217.8 53.31 215.56 52.02 215.56 46.75"/>
        <polygon class="cls-37" points="215.56 46.75 217.8 48.04 217.8 53.31 215.56 52.02 215.56 46.75"/>
        <polygon class="cls-10" points="212.37 38.27 214.61 39.57 214.61 51.47 212.37 50.18 212.37 38.27"/>
        <polygon class="cls-10" points="209.18 43.2 211.42 44.5 211.42 49.63 209.18 48.34 209.18 43.2"/>
        <polygon class="cls-18" points="209.18 43.2 211.42 44.5 211.42 49.63 209.18 48.34 209.18 43.2"/>
      </g>
    </g>
    <g id="freepik--speech-bubble--inject-9-6" data-name="freepik--speech-bubble--inject-9">
      <g id="freepik--speech-bubble--inject-9-7" data-name="freepik--speech-bubble--inject-9">
        <path class="cls-3" d="M70.58,63.71c-.11,0-.13-.14-.13-.2V50.06l-3.41.5a.29.29,0,0,1-.29-.18.26.26,0,0,1,.06-.29l3.64-3.7v-4a.87.87,0,0,1,.39-.67L92.86,29A.24.24,0,0,1,93,29c.11,0,.13.14.13.2v21.1a.86.86,0,0,1-.38.67l-22,12.72a.33.33,0,0,1-.14,0Z"/>
        <path class="cls-10" d="M93,29.12a.11.11,0,0,1,0,.08V50.28a.77.77,0,0,1-.33.6l-22,12.71s-.07,0-.07,0a.11.11,0,0,1,0-.08V49.93l-.27,0L67,50.44h0a.15.15,0,0,1-.14-.1.14.14,0,0,1,0-.17l3.61-3.67.06-.07v-4a.74.74,0,0,1,.33-.59l22-12.7a.11.11,0,0,1,.07,0m0-.24a.36.36,0,0,0-.2.06l-22,12.72a1,1,0,0,0-.45.78v3.92L66.74,50a.39.39,0,0,0,.28.67h.06l3.26-.47V63.54c0,.2.1.32.25.32a.66.66,0,0,0,.2-.06l22-12.73a1,1,0,0,0,.45-.77V29.18c0-.2-.1-.32-.25-.32Z"/>
        <path class="cls-37" d="M93,29.12a.11.11,0,0,1,0,.08V50.28a.77.77,0,0,1-.33.6l-22,12.71s-.07,0-.07,0a.11.11,0,0,1,0-.08V49.93l-.27,0L67,50.44h0a.15.15,0,0,1-.14-.1.14.14,0,0,1,0-.17l3.61-3.67.06-.07v-4a.74.74,0,0,1,.33-.59l22-12.7a.11.11,0,0,1,.07,0m0-.24a.36.36,0,0,0-.2.06l-22,12.72a1,1,0,0,0-.45.78v3.92L66.74,50a.39.39,0,0,0,.28.67h.06l3.26-.47V63.54c0,.2.1.32.25.32a.66.66,0,0,0,.2-.06l22-12.73a1,1,0,0,0,.45-.77V29.18c0-.2-.1-.32-.25-.32Z"/>
      </g>
      <g id="freepik--chart--inject-9-2" data-name="freepik--chart--inject-9">
        <path class="cls-10" d="M81.21,38.75v7.74L76.5,54c-1.67-2.13-1.19-7.44,1.41-11.64A10.39,10.39,0,0,1,81.21,38.75Z"/>
        <path class="cls-38" d="M81.21,38.75v7.74L76.5,54c-1.67-2.13-1.19-7.44,1.41-11.64A10.39,10.39,0,0,1,81.21,38.75Z"/>
        <path class="cls-10" d="M87.6,45.58c-.93,4.7-4.16,9.08-7.38,9.86A3.13,3.13,0,0,1,77,54.63L81.79,47Z"/>
        <path class="cls-37" d="M87.6,45.58c-.93,4.7-4.16,9.08-7.38,9.86A3.13,3.13,0,0,1,77,54.63L81.79,47Z"/>
        <path class="cls-10" d="M87.72,44.77l-5.57,1.36,3.13-8.23C87.27,38.65,88.21,41.28,87.72,44.77Z"/>
        <path class="cls-10" d="M84.68,37.84l-2.81,7.43V38.36A3.86,3.86,0,0,1,84.68,37.84Z"/>
        <path class="cls-11" d="M84.68,37.84l-2.81,7.43V38.36A3.86,3.86,0,0,1,84.68,37.84Z"/>
      </g>
    </g>
  </g>
</svg>
