<svg id="Layer_1" data-name="Layer 1" xmlns="http://www.w3.org/2000/svg" width="500" height="500" viewBox="0 0 500 500">
  <defs>
    <style>
      .cls-1 {
        fill: #e4ddfb;
      }

      .cls-2 {
        fill: #d5fff9;
      }

      .cls-3 {
        fill: #d0d3d8;
      }

      .cls-4 {
        fill: #35237d;
      }

      .cls-5 {
        fill: #472ea6;
      }

      .cls-6 {
        fill: #a91a21;
      }

      .cls-25, .cls-27, .cls-7 {
        fill: #fff;
      }

      .cls-8 {
        fill: #32323f;
        opacity: 0.12;
      }

      .cls-9 {
        fill: #efaea6;
      }

      .cls-10, .cls-12, .cls-13, .cls-14, .cls-15, .cls-21, .cls-22 {
        fill: #1f1f39;
      }

      .cls-11 {
        fill: #12263f;
      }

      .cls-12 {
        opacity: 0.46;
      }

      .cls-13 {
        opacity: 0.54;
      }

      .cls-14 {
        opacity: 0.35;
      }

      .cls-15 {
        opacity: 0.14;
      }

      .cls-16 {
        fill: #201b2c;
      }

      .cls-17 {
        fill: #eeada5;
      }

      .cls-18 {
        fill: #bbabf5;
      }

      .cls-19 {
        fill: #8c80b8;
      }

      .cls-20 {
        fill: #6c58b8;
      }

      .cls-21 {
        opacity: 0.22;
      }

      .cls-22 {
        opacity: 0.18;
      }

      .cls-23 {
        fill: #fd8f25;
      }

      .cls-24, .cls-26, .cls-28 {
        fill: #0d0d1e;
      }

      .cls-24 {
        opacity: 0.15;
      }

      .cls-25 {
        opacity: 0.72;
      }

      .cls-26 {
        opacity: 0.26;
      }

      .cls-27 {
        opacity: 0.24;
      }

      .cls-28 {
        opacity: 0.2;
      }

      .cls-29, .cls-34, .cls-36 {
        fill: none;
      }

      .cls-29 {
        stroke: #fff;
        stroke-width: 6px;
        opacity: 0.75;
      }

      .cls-29, .cls-34 {
        stroke-linecap: round;
        stroke-linejoin: round;
      }

      .cls-30 {
        fill: #545460;
      }

      .cls-31 {
        fill: #aaaaaf;
      }

      .cls-32 {
        opacity: 0.65;
      }

      .cls-33 {
        fill: #ea4f26;
        opacity: 0.19;
      }

      .cls-34 {
        stroke: #fd8f25;
        stroke-width: 5px;
      }

      .cls-35 {
        fill: #ef2a66;
      }

      .cls-36 {
        stroke: #ef2a66;
        stroke-miterlimit: 10;
        stroke-width: 2px;
      }
    </style>
  </defs>
  <path class="cls-1" d="M18.34,438.61s61-38,95.94-151.18,29-231.92,166.23-214.26S392.69,381.29,440.88,412.66s50.21,20.51,50.21,20.51Z"/>
  <ellipse class="cls-2" cx="247.66" cy="428.84" rx="221.25" ry="14"/>
  <g>
    <g>
      <path class="cls-3" d="M67.26,428H52.08c-2.07,0-3.9-2.34-4.53-5.8l-6.44-34.86c-.26-1.43.3-2.91,1.15-3a126.89,126.89,0,0,1,34.82,0c.85.11,1.41,1.6,1.15,3l-6.44,34.87C71.15,425.69,69.32,428,67.26,428Z"/>
      <path class="cls-2" d="M88.52,339.75c-9.12-2.4-23,16.52-27.28,35V347.84A55.28,55.28,0,0,1,74.78,332.4c11.45-9.33,22-21.29,12.86-23.7-8.56-2.26-21.37,14.29-26.4,31.59V305.76A36.55,36.55,0,0,1,69,297.32c7.22-5.87,13.86-13.42,8.1-14.93-5-1.32-12.28,7.53-15.85,17.5V288.7A53,53,0,0,1,65,275.24c5.31-11.71,8.18-23.78,1.18-22.88s-11.55,21.76-7.72,37.77v5.76C55.83,284.17,47,272,41.16,273.56s.88,9.06,8.1,14.93a33.29,33.29,0,0,1,9.15,10.92v27.2c-4.15-18.55-18.18-37.69-27.34-35.28s1.4,14.38,12.85,23.7c8.65,7.05,12.74,13.65,14.49,17.24v32.62c-4.43-18.21-18.1-36.58-27.1-34.21S30,341.83,42.88,352.41a60.53,60.53,0,0,1,15.53,18.9v15.36a4.78,4.78,0,0,0,2.83,0v-6.11c1.79-3.62,5.88-10.15,14.42-17.11C87.11,354.12,97.65,342.16,88.52,339.75Z"/>
    </g>
    <g>
      <path class="cls-3" d="M454.22,428h-20a6.31,6.31,0,0,1-6-4.35l-8.5-26.16a1.74,1.74,0,0,1,1.53-2.27,295.18,295.18,0,0,1,46,0,1.74,1.74,0,0,1,1.52,2.27l-8.5,26.17A6.31,6.31,0,0,1,454.22,428Z"/>
      <g>
        <path class="cls-3" d="M443.14,349.46V397a3.48,3.48,0,0,0,2.12,0V349.46a1.06,1.06,0,0,0-1.06-1.06h0A1.07,1.07,0,0,0,443.14,349.46Z"/>
        <path class="cls-2" d="M443.92,362.87s10.81,10.25,23.18-9.71C467.1,353.16,445.68,348.87,443.92,362.87Z"/>
        <path class="cls-2" d="M444.92,354.29s12.1-8.69-5.17-24.6C439.75,329.69,431.5,349.92,444.92,354.29Z"/>
        <path class="cls-2" d="M444.67,380.74s12.07,8.72,21.68-12.7C466.35,368,444.55,366.63,444.67,380.74Z"/>
        <path class="cls-2" d="M444.2,388.41s-.43-14.89-23.27-9.49C420.93,378.92,433.07,397.08,444.2,388.41Z"/>
        <path class="cls-2" d="M445.3,367.2s-.06-14.9-23-10.06C422.27,357.14,434,375.59,445.3,367.2Z"/>
      </g>
    </g>
  </g>
  <g>
    <path class="cls-2" d="M443.19,197a10.44,10.44,0,0,0,2.37,1.67l-.93,4.23,4.64,1,.89-4.06a10,10,0,0,0,3.09-.37l2.63,4.09,4-2.56-2.41-3.77a10.83,10.83,0,0,0,2.48-3.16l4.24.93,1-4.64-4.05-.89a10.88,10.88,0,0,0-.54-3.65l3.39-2.18-2.57-4-3.27,2.1a10.74,10.74,0,0,0-3.52-2.42l.89-4-4.64-1-.93,4.23a10.81,10.81,0,0,0-2.84.53l-2.47-3.86-4,2.57,2.4,3.74a10.71,10.71,0,0,0-2.41,3.52l-4.05-.89-1,4.64,4.24.93a10.46,10.46,0,0,0,.71,3.38l-3.74,2.4,2.56,4Zm3-8.74a4.36,4.36,0,1,1,3.32,5.18A4.35,4.35,0,0,1,446.21,188.29Z"/>
    <path class="cls-2" d="M454.2,221.55a4.68,4.68,0,0,0,1.06.74l-.42,1.9,2.09.46.39-1.82a4.57,4.57,0,0,0,1.39-.17l1.18,1.84,1.79-1.15-1.08-1.69a4.83,4.83,0,0,0,1.11-1.42l1.9.42.46-2.09-1.82-.39a4.73,4.73,0,0,0-.24-1.64l1.52-1-1.15-1.79-1.47.94a4.88,4.88,0,0,0-1.58-1.08l.4-1.82-2.08-.45-.42,1.9a4.91,4.91,0,0,0-1.27.23l-1.11-1.73-1.8,1.15,1.08,1.68a5,5,0,0,0-1.08,1.58l-1.82-.4-.45,2.08,1.9.42a4.59,4.59,0,0,0,.32,1.52l-1.68,1.08,1.15,1.79Zm1.35-3.93A2,2,0,1,1,457,220,2,2,0,0,1,455.55,217.62Z"/>
    <path class="cls-2" d="M10.73,260.92l.66,4.7,4.4-.61a10.82,10.82,0,0,0,1.66,3l-2.61,3.46,3.79,2.86,2.5-3.31a10.61,10.61,0,0,0,4.12,1.09l.62,4.41,4.7-.66-.63-4.54a10.5,10.5,0,0,0,2.5-1.45l3.46,2.62,2.86-3.8-3.31-2.5a10.56,10.56,0,0,0,1.09-4.11l3.85-.54-.65-4.71-4,.56a10.68,10.68,0,0,0-2-3.12l2.5-3.32-3.79-2.86-2.62,3.46a10.75,10.75,0,0,0-3.94-.77l-.62-4.43-4.7.65.67,4.81a10.51,10.51,0,0,0-2.59,1.74l-3.31-2.5-2.86,3.79L16,257.48a10.67,10.67,0,0,0-.71,2.8Zm11.67-2.06a4.35,4.35,0,1,1,.85,6.1A4.35,4.35,0,0,1,22.4,258.86Z"/>
    <path class="cls-2" d="M35.39,239.68l.29,2.11,2-.28a4.53,4.53,0,0,0,.75,1.36l-1.18,1.56,1.71,1.28,1.12-1.49a4.47,4.47,0,0,0,1.84.49l.28,2,2.11-.29-.28-2a4.87,4.87,0,0,0,1.12-.65l1.55,1.17,1.28-1.7-1.48-1.12a4.89,4.89,0,0,0,.49-1.85L48.7,240l-.3-2.11-1.79.25a4.79,4.79,0,0,0-.88-1.4l1.12-1.49-1.7-1.28L44,235.49a4.94,4.94,0,0,0-1.77-.35l-.28-2-2.11.3.3,2.16a4.63,4.63,0,0,0-1.16.78l-1.49-1.12L36.19,237l1.55,1.17a4.58,4.58,0,0,0-.31,1.25Zm5.24-.93a2,2,0,1,1,.38,2.74A2,2,0,0,1,40.63,238.75Z"/>
  </g>
  <g>
    <g>
      <path class="cls-4" d="M80.82,196.08A4.78,4.78,0,1,1,76,191.3,4.78,4.78,0,0,1,80.82,196.08Zm-1.5,0A3.28,3.28,0,1,0,76,199.36,3.28,3.28,0,0,0,79.32,196.08Z"/>
      <path class="cls-5" d="M100.31,189.64a4.78,4.78,0,1,1-4.77-4.78A4.78,4.78,0,0,1,100.31,189.64Zm-1.49,0a3.28,3.28,0,1,0-3.28,3.27A3.28,3.28,0,0,0,98.82,189.64Z"/>
      <g>
        <g>
          <path class="cls-6" d="M100.93,169.13a.75.75,0,0,0-.75.75v3.31a.75.75,0,0,0,1.49,0v-3.31A.75.75,0,0,0,100.93,169.13Z"/>
          <path class="cls-6" d="M100.93,163.35a.75.75,0,0,0-.75.75v3.3a.75.75,0,1,0,1.49,0v-3.3A.75.75,0,0,0,100.93,163.35Z"/>
        </g>
        <g>
          <path class="cls-6" d="M105.56,167.89h-3a.75.75,0,0,0,0,1.5h3a.75.75,0,0,0,0-1.5Z"/>
          <path class="cls-6" d="M99.26,167.89h-3a.75.75,0,0,0,0,1.5h3a.75.75,0,0,0,0-1.5Z"/>
        </g>
      </g>
      <g>
        <g>
          <path class="cls-5" d="M80.68,174.42a.76.76,0,0,0-.75.75v3.31a.75.75,0,0,0,1.5,0v-3.31A.75.75,0,0,0,80.68,174.42Z"/>
          <path class="cls-5" d="M80.68,168.64a.76.76,0,0,0-.75.75v3.31a.75.75,0,0,0,1.5,0v-3.31A.75.75,0,0,0,80.68,168.64Z"/>
        </g>
        <g>
          <path class="cls-5" d="M85.32,173.19h-3a.75.75,0,1,0,0,1.49h3a.75.75,0,1,0,0-1.49Z"/>
          <path class="cls-5" d="M79,173.19H76a.75.75,0,0,0,0,1.49h3a.75.75,0,1,0,0-1.49Z"/>
        </g>
      </g>
    </g>
    <g>
      <path class="cls-4" d="M289.62,351.19a4.78,4.78,0,1,1-4.77,4.78A4.78,4.78,0,0,1,289.62,351.19Zm0,8.05a3.28,3.28,0,1,0-3.27-3.27A3.28,3.28,0,0,0,289.62,359.24Z"/>
      <path class="cls-5" d="M270.13,344.75a4.78,4.78,0,1,1-4.78,4.77A4.78,4.78,0,0,1,270.13,344.75Zm0,8.05a3.28,3.28,0,1,0-3.28-3.28A3.28,3.28,0,0,0,270.13,352.8Z"/>
      <g>
        <g>
          <path class="cls-6" d="M264.74,329a.75.75,0,0,1,.75.75v3.3a.75.75,0,0,1-1.5,0v-3.3A.76.76,0,0,1,264.74,329Z"/>
          <path class="cls-6" d="M264.74,323.24a.74.74,0,0,1,.75.75v3.3a.75.75,0,0,1-1.5,0V324A.75.75,0,0,1,264.74,323.24Z"/>
        </g>
        <g>
          <path class="cls-6" d="M260.11,327.78h3a.75.75,0,0,1,0,1.5h-3a.75.75,0,0,1,0-1.5Z"/>
          <path class="cls-6" d="M266.41,327.78h3a.75.75,0,0,1,0,1.5h-3a.75.75,0,0,1,0-1.5Z"/>
        </g>
      </g>
      <g>
        <g>
          <path class="cls-5" d="M285,334.31a.76.76,0,0,1,.75.75v3.3a.75.75,0,0,1-1.5,0v-3.3A.75.75,0,0,1,285,334.31Z"/>
          <path class="cls-5" d="M285,328.53a.76.76,0,0,1,.75.75v3.3a.75.75,0,0,1-1.5,0v-3.3A.75.75,0,0,1,285,328.53Z"/>
        </g>
        <g>
          <path class="cls-5" d="M280.35,333.07h3a.75.75,0,0,1,0,1.5h-3a.75.75,0,0,1,0-1.5Z"/>
          <path class="cls-5" d="M286.66,333.07h3a.75.75,0,0,1,0,1.5h-3a.75.75,0,0,1,0-1.5Z"/>
        </g>
      </g>
    </g>
    <g>
      <path class="cls-4" d="M276.88,87.47v18.72a2.16,2.16,0,0,1-2.16,2.16H256a4.1,4.1,0,0,1-3.5-2.49,1.07,1.07,0,0,1-.1-.22c0-.11-.07-.22-.11-.34s0,0,0,0h0v0l0-14.77V86.12A2.15,2.15,0,0,1,254.17,84h.23l19.09.07a1.09,1.09,0,0,1,.26,0h0A3.84,3.84,0,0,1,276.88,87.47Z"/>
      <path class="cls-5" d="M275.27,86.12v18.71a2.15,2.15,0,0,1-2.16,2.16H254.4a2.15,2.15,0,0,1-1.9-1.13,1.07,1.07,0,0,1-.1-.22c0-.11-.07-.22-.11-.34s0,0,0,0v-.05a1.58,1.58,0,0,1,0-.38V86.12A2.15,2.15,0,0,1,254.17,84h18.94a1.91,1.91,0,0,1,.64.1h0A2.14,2.14,0,0,1,275.27,86.12Z"/>
      <g>
        <path class="cls-7" d="M263.78,87.14h-.14a4.77,4.77,0,0,0-4,7.16c.66,1.12,1.29,2.27,1.86,3.44L262,98.8h3.49l.35-.73c.63-1.29,1.31-2.55,2-3.79a4.76,4.76,0,0,0-4.1-7.14Z"/>
        <path class="cls-7" d="M265.51,100.13H262v1.17a1.75,1.75,0,0,0,1.75,1.76h0a1.75,1.75,0,0,0,1.75-1.76Z"/>
      </g>
    </g>
  </g>
  <g>
    <path class="cls-8" d="M435.75,419.21c0,4.49-80.84,9.7-174,9.7s-168.66-3.64-168.66-8.12,75.51-8.13,168.66-8.13S435.75,414.73,435.75,419.21Z"/>
    <path class="cls-9" d="M273.44,236.72a22.93,22.93,0,0,0-3.35-3.15c-1.18-.86-1.82-2.16-3.43-2.85l-1.26-.53c-.48-.2-.92-.39-1.33-.58a54.5,54.5,0,0,1-6.26-3.69s3.73-9.34,5.42-9.06c1,.17,2.58,1.39,4.44,2.71.78.55,1.61,1.11,2.48,1.62.44.26.88.5,1.33.71a9.45,9.45,0,0,0,3.36.79c3.51.26,6.33-2.43,6.52-.14s-3.61,1.81,3.26,6c1.86,1.12.88,7.41-2.63,9C281,238,275.22,239,273.44,236.72Z"/>
    <g>
      <path class="cls-7" d="M205.06,410.34c.5-4.76.13-16.84.13-16.84L191.45,393l.74,18.13,9.08,5.77Z"/>
      <path class="cls-10" d="M230.76,421.2a3.65,3.65,0,0,1-2.42,1.64,7.46,7.46,0,0,1-2,.21c-6.07,0-25.5,0-32.13-.1a3.34,3.34,0,0,1-.78-.11,2.9,2.9,0,0,1-2.16-2c-.06-.22-.12-.45-.17-.69-1-4.72-1.08-14.12.68-14.26l.14,0c2.46.58,8.91,3.29,13.29,1.07a6.21,6.21,0,0,0,.92-.55c1.15-.86,3.73,2.12,4.27,4.13,1.21,4.58,16.55,5.16,19.28,5.58C230.65,416.27,231.94,419.2,230.76,421.2Z"/>
    </g>
    <g>
      <path class="cls-7" d="M152.26,410.42c.53-4.76.23-16.84.23-16.84l-13.74-.53.63,18.14,9.05,5.81Z"/>
      <path class="cls-10" d="M178.3,420a3.25,3.25,0,0,1-2,2.82,3.14,3.14,0,0,1-.46.18,7.54,7.54,0,0,1-2.35.3c-5-.06-19.08-.19-27.59-.3-1.82,0-3.38,0-4.55-.07a3,3,0,0,1-2.92-2.14c-.06-.22-.11-.46-.16-.72-1-4.9-1.32-15.89.44-16l.46.09c2.54.43,7.59.45,13.41.77l1.23.07c1.48.09,1.21,1.42,1.73,3.42,1.17,4.59,18.62,7.57,21.35,8C177.55,416.55,178.46,418.3,178.3,420Z"/>
    </g>
    <path class="cls-11" d="M132.59,252.87c.18,2.16.41,4.5.73,7.07,1.18,9.63,3.68,42.1,3.07,62.73s1.28,68.54,1.28,75.89c6.51,2.74,10.54,1.88,19.84,0,0,0,1.65-39.61,3.48-74.3,1.49-28.16,1.92-25.34,7.32-61.2h0c.06.16,1.38,3.66,3.3,9,4.1,11.47,10.94,31.52,14.23,46,5.12,22.65,2.45,81.67,4.59,83.71,6.38,3.6,17.19,4,20.07-1,0,0,1.22-73-1.05-84.43C207.91,308.59,194.92,232.42,192,212c0,0-57.24-11.95-59,6.78a64,64,0,0,0-.28,7c.05,2.91-.12,5.6-.29,8.56A126.41,126.41,0,0,0,132.59,252.87Z"/>
    <path class="cls-12" d="M163.27,252.77v0l.16-.1Z"/>
    <path class="cls-13" d="M168.31,263.06h0c.06.16,2.58,6.95,4.5,12.32l-2.25-21.67S170.64,255,168.31,263.06Z"/>
    <path class="cls-14" d="M132.8,233.86c.48-.1,22.54-4.61,25.52-15.19,0,0-19.18,1.58-25.31,2.21C132.74,225.71,132.61,231.13,132.8,233.86Z"/>
    <path class="cls-9" d="M223.8,121.82l-.71.52s-1.34,1.4-2.85,3.3c-1.65,2.08-3.52,4.76-4.09,6.87-.62,2.31-3,4.55-3.11,8.77,0,3.16-11.67,1.67-11.67,1.67l-2.47-14.79c2.9-4,10.61-8.7,14.54-10.81a32,32,0,0,1,10.26-2.94Z"/>
    <path class="cls-15" d="M220.24,125.64c-1.65,2.08-3.52,4.76-4.09,6.87-5.38-6.48-2.65-12.82-.07-13.19,1.61-.24,2.54,3.55,2.54,3.55Z"/>
    <path class="cls-7" d="M198.94,124.23c5.5.56,3.48,10.5,7.44,12.32,2.41,1.11,5.41-3.93,7-4.59,1-.41,1.92-.91,2.64.63,14.69,31.32-33.84,83.51-32.38,88.6,1.2,4.16-21,4-32.25-3.4-15.4-10.19-7.87-27.35-6.13-30.52S179,131.19,179,131.19,189,127.85,198.94,124.23Z"/>
    <g>
      <path class="cls-16" d="M134.68,233.57h0a.58.58,0,0,0-.1-.12,3,3,0,0,0-1.85-1.19l-.15,0-.19,0-2.37-.11h-.3l-2.61-.12-7-.33a2.64,2.64,0,0,0-1.33.28,4.63,4.63,0,0,0-2.35,4l-.15,2.65-.23,4.19s0,.06.06.07l2.28.11a.07.07,0,0,0,.07-.06l.23-4.21h0l0-.61a3.5,3.5,0,0,1,1.72-3,2,2,0,0,1,1-.22l5.9.28,2.55.12h0l.71,0a2.23,2.23,0,0,1,1.69,1,3.56,3.56,0,0,1,.67,1.91,4.87,4.87,0,0,1,0,.54v0l0,.53-.25,4.26v0a.07.07,0,0,0,.07.06l2.28.11s.07,0,.07-.05v0l.24-4.28.14-2.54A5.15,5.15,0,0,0,134.68,233.57Z"/>
      <path class="cls-17" d="M130,220.29s0,0,0,.05c.34,2.54,1.09,1.87,2,5.19s3.95,8,2.07,8.49-3.29-1.52-4.19-1.94,1.14,1.56,0,3.16-5.83,2.46-8,1.16-3.55-3.86-3.61-7.18,1.77-7.8,2.15-9.25S129.3,220.16,130,220.29Z"/>
      <path class="cls-16" d="M134.69,233.55h0l-.08-.1a3.1,3.1,0,0,0-1.87-1.21l-.15,0-.19,0-2.38-.08h-.11a.07.07,0,0,0-.05.08l.17.64h0v0h0l.28,1.1v0h0l.35,1.29a2.23,2.23,0,0,1,1.69,1h0a3.7,3.7,0,0,1,.67,1.94,4.87,4.87,0,0,1,0,.54v0l0,.53-.24,4.26v0s0,0,.07.05l2.28.11s.07,0,.07-.06l.24-4.28.15-2.57A5.14,5.14,0,0,0,134.69,233.55Z"/>
      <g>
        <path class="cls-18" d="M163.61,247.86,162,279.64a3.67,3.67,0,0,1-3.95,3.31H158l-61.71-1.9c-7-.29-6.68-4.81-6.59-6.7l.54-30.07c.09-1.88,2.82-6.74,8.38-6.44l54.88,2.31,2.06.08C160.1,240.43,163.82,243.59,163.61,247.86Z"/>
        <path class="cls-19" d="M163.61,247.86,162,279.64a3.67,3.67,0,0,1-3.95,3.31h0s-.06,0-.06,0c-.61-1.92-.91-4.9-.34-9.55,1.39-11.3-1.49-24.28-4.13-33.13a.07.07,0,0,1,.07-.08l2,.08C160.1,240.43,163.82,243.59,163.61,247.86Z"/>
      </g>
    </g>
    <path class="cls-20" d="M223.66,202c-6.25-5.37-4.76-19.18-8.6-29.15-.78-2-3.82,4.81-5,7.2-4.2,8.19-4.23,14.07-4.85,16.62-1.59,6.55-6.08,34.94-17.16,40-7,3.21-11.11,1.11-13.18-2.73-3.56-6.58,9.49-25.58,15.09-46.86,4.33-16.44,15.5-22.92,18.6-36.68A55.71,55.71,0,0,1,216,132.59c21.85,20.17,18.21,55.62,20.23,57.79,6.12,6.57,22.72,20.41,31.3,27a18.57,18.57,0,0,1,3.29,2.89l-.82,1.52-2.65,4.92-2.28,4.22-.49.9C262.91,232.17,234.41,211.27,223.66,202Z"/>
    <path class="cls-20" d="M181.76,173.1c-4,8.47-12.08,19.79-16.9,26-8.67,11.18-5.84,20.23-13.23,23.66-8.92,4.13-18.67.36-24.41-6.79-3.66-4.57,11.11-22.91,18.49-34.91a38.8,38.8,0,0,0,3.52-6.79c.67-1.93,1.2-3.53,1.66-4.94h0c.41-1.26.75-2.37,1.1-3.44.85-2.71,1.65-5.17,3.18-9,.74-1.88,1.66-4.1,2.83-6.85,3.6-8.37,10.48-19.09,16-21.63a49.27,49.27,0,0,1,26-3.88C198.49,129.91,190.22,155.08,181.76,173.1Z"/>
    <path class="cls-20" d="M183.2,145.82c-40.91,31-41.54,27.9-44.65,34.3s-6.19,45.06-6.19,45.06-13.11-1.78-13.64-4,3.43-44.49,4.87-48.46c4.83-13.22,45.91-41.94,50.53-44.36s19.32,1.26,16.76,7.71A22.14,22.14,0,0,1,183.2,145.82Z"/>
    <g>
      <path class="cls-9" d="M236.13,119.85c-2.5,3.21-4.5,12-6.52,10.05s-5.27,6.79-7.49,4.82c-5.4-4.78-8.39-13.76-6.76-16.9S223.8,108,223.8,108Z"/>
      <path class="cls-9" d="M215.18,118.23c-.92,2.63.59,8.15,3.63,12.66a20.36,20.36,0,0,0,3.31,3.83c1.31,1.17,3-1.39,4.54-3.29,1.08-1.32,2.12-2.32,3-1.53,1.09,1,2.17-1,3.32-3.64a40.55,40.55,0,0,0-2.69-6.2c-1.89-3.68-4.37-7.84-6.76-11.71-1.38,1.36-6.71,6.73-8.12,9.47A2.2,2.2,0,0,0,215.18,118.23Z"/>
      <path class="cls-10" d="M228.1,117.6c1.47,1.76,1.16,2.19,2.83,2.73s1.13-2.93,3.61-1.24,5,3.8,7.45,1.57c3.59-3.23-.08-5.67-2.42-7.12-1.5-.92.69-3.93-1.94-6.19-2-1.78-2.87-.42-4.78-1.92-1.15-.91-1.62-4.6-4.45-4.91-5.23-.56-5.33,4.75-10.2,4.84-5.67.1-4.52,12.87-3,12.88,1.74,0,3.16-4.33,4.76-4.15,2.41.28,1.48,1.65,1.65,3.9.18,2.4,2.47,4.7,3.07,1S226.76,116,228.1,117.6Z"/>
    </g>
    <path class="cls-21" d="M145.71,181.05a38.8,38.8,0,0,0,3.52-6.79c.67-1.93,1.2-3.53,1.66-4.94h0c8.1-5.66,14-12.55,13.25-9.35C163.58,162.38,152.32,175.88,145.71,181.05Z"/>
    <path class="cls-21" d="M136.42,222.93c-.34-2.74-1.13-26.22-1.13-26.22L132.72,221Z"/>
    <g>
      <path class="cls-22" d="M204.28,137.66c-.45-.45-7.72,8.72-15.44,10.68a17,17,0,0,1-6.55.45c-6.45-.93-17.72-5.69-25.52-8.32,3.07-1.85,6.56-5.29,10.37-6.87,5.44,3,12.34,8.31,15.74,8.61a24.57,24.57,0,0,0,7.35-.49,41.25,41.25,0,0,0,11.49-4.61c1.57-.9,2.12-2.63,3.74-2.37C207.6,135.09,204.86,138.24,204.28,137.66Z"/>
      <path class="cls-23" d="M207.93,136.22a2.72,2.72,0,0,0-2.39-3.14c-1.62-.25-1.88.37-3.45,1.26-4.71,2.68-11.57,5.77-18.83,5.11s-21.6-13.24-32.58-13.07-16.07,9-31.73,8.33-30.7-10.33-35.34-10.46-7.54.31-7.78,2.1,1.39,5.18,4.29,7.07,30.23,9.34,37.74,9.83c12.27.79,24.71-7.93,32.54-7.06s23.14,8.52,32.27,9.83c10.17,1.47,20.71-8.61,21.29-8a2.76,2.76,0,0,0,2.46,1.06C207.35,139,207.79,137.24,207.93,136.22Z"/>
    </g>
    <g>
      <path class="cls-20" d="M275.89,206.36a22.17,22.17,0,0,0,3.05,6.59,32,32,0,0,0,3.5,4.45,35.11,35.11,0,0,0,3.78,3.48c.49.39,1,.78,1.53,1.16q.38.27.78.51c7.11,4.26,19.49,1,30.6-6.29a65.61,65.61,0,0,0,7.58-5.83c13.19-11.79,17.88-28.18,17.63-34.64-.16-4.25-2.84-10.87-9.22-17.76-.29-.32-.59-.64-.9-.95l-3.8,3.2-1.42,1.2L326,164l-40,33.76-5.57,4.71-2,1.65Z"/>
      <ellipse class="cls-20" cx="306.66" cy="185.91" rx="34.97" ry="20.95" transform="translate(-40.12 277.29) rotate(-45.99)"/>
      <ellipse class="cls-24" cx="306.66" cy="185.91" rx="34.97" ry="20.95" transform="translate(-40.12 277.29) rotate(-45.99)"/>
      <path class="cls-25" d="M284.18,208.62a21,21,0,0,0,1.08,8.5c10.79,4.07,27-1.45,39.54-14.41A59.1,59.1,0,0,0,334,190.5h0a128.08,128.08,0,0,0,.44-22.95,11.29,11.29,0,0,0-2.08-1.64C318.32,157.29,285.73,177.93,284.18,208.62Z"/>
      <path class="cls-26" d="M286.22,220.88a24.66,24.66,0,0,0,.8,3.53l1.51-1.86c7.11,4.26,19.49,1,30.6-6.29-11.51,4.27-25.41,5.67-30.7,1.75h0c-.82-.6-1.4-.7-1.78-.42a1,1,0,0,0-.3.39A5.64,5.64,0,0,0,286.22,220.88Z"/>
      <path class="cls-20" d="M288.88,167.84c15.12-15.57,35.42-20.39,45.34-10.76.31.3.61.62.9.95,6.5,7.42,5.72,20.2-1.15,32.47h0a59.1,59.1,0,0,1-9.17,12.21c-11.4,11.75-25.75,17.38-36.37,15.3a17.09,17.09,0,0,1-1.78-.42c-.47-.14-.94-.3-1.39-.47a16.67,16.67,0,0,1-5.79-3.64c-.18-.17-.36-.35-.53-.53C269.7,203.12,274,183.14,288.88,167.84Zm3.1,3a48.52,48.52,0,0,0-3.39,3.86c-7.42,9.35-10.4,20-8.08,27.75a14.13,14.13,0,0,0,3.67,6.16c8.21,8,25,4,37.53-8.91,10.7-11,14.8-25,10.62-33.8a13.53,13.53,0,0,0-2.83-4c-.16-.16-.33-.31-.5-.46-6.4-5.62-17.5-4.56-27.85,1.91A49.2,49.2,0,0,0,292,170.85Z"/>
      <path class="cls-27" d="M288.88,167.84c15.12-15.57,35.42-20.39,45.34-10.76.31.3.61.62.9.95,6.5,7.42,5.72,20.2-1.15,32.47h0a59.1,59.1,0,0,1-9.17,12.21c-11.4,11.75-25.75,17.38-36.37,15.3a17.09,17.09,0,0,1-1.78-.42c-.47-.14-.94-.3-1.39-.47a16.67,16.67,0,0,1-5.79-3.64c-.18-.17-.36-.35-.53-.53C269.7,203.12,274,183.14,288.88,167.84Zm3.1,3a48.52,48.52,0,0,0-3.39,3.86c-7.42,9.35-10.4,20-8.08,27.75a14.13,14.13,0,0,0,3.67,6.16c8.21,8,25,4,37.53-8.91,10.7-11,14.8-25,10.62-33.8a13.53,13.53,0,0,0-2.83-4c-.16-.16-.33-.31-.5-.46-6.4-5.62-17.5-4.56-27.85,1.91A49.2,49.2,0,0,0,292,170.85Z"/>
      <path class="cls-20" d="M230.05,285.51c.87,1.81,2.86,2.86,6.37.76,6.18-3.69,41.73-51,50.6-61.86l1.51-1.86.25-.29c.4-.45.24-1.19-.25-2a9,9,0,0,0-2.18-2.3c-1.42-1-3-1.61-3.8-.71l-.11.13c-3.17,3.68-50.09,60-52.27,62.87A5.77,5.77,0,0,0,230.05,285.51Z"/>
      <path class="cls-28" d="M230.05,285.51c.87,1.81,2.86,2.86,6.37.76,6.87-4.11,50.89-62.36,52.36-64,.4-.45.24-1.19-.25-2C280.36,230.19,242.51,278.82,230.05,285.51Z"/>
    </g>
    <path class="cls-9" d="M277.36,238.14c-2.56-.48-4.93-.69-3.28-4.81.73-1.83,5.53-6,7.07-5.48s3.11.08,3.89,1.08S280,236,280,236Z"/>
    <g>
      <path class="cls-23" d="M380.86,386.46a23.2,23.2,0,0,1-6.84,2.23c-.67.13-1.35.23-2,.31h0a40,40,0,0,1-17.34-1.69l-.28-.11a16.46,16.46,0,0,1-6.62-4.11,8.09,8.09,0,0,1-2.21-5,9.32,9.32,0,0,0-.4-2.18,23.15,23.15,0,0,0-3-5.93c-2.79-4.21-7-9.13-11.78-15-12.94-15.89-29.5-38.45-29.92-71.33-.39-31.49,15.35-69.28,55.08-71.31.3,0,.61,0,.92,0,39.29-1.59,70.19,25.52,70.59,68.79.39,41.39-30,68.9-39,88.3-1.72,3.7-2.66,7.09-2.47,10.25,0,.11,0,.21,0,.32C385.56,382.75,383.74,384.92,380.86,386.46Z"/>
      <path class="cls-29" d="M373.48,395.89s2.37-89.34,18-92.43,11.95,18,1.11,21.25c-14.58,4.43-36.95,1.16-36.47-14.5.37-12.2,15.59-11.39,16.18,1.5.41,8.75-6.44,14.82-17.51,14.45-18.75-.61-29.6-9.56-20.66-20.78,4.9-6.15,13.36-.69,12.91,8.74s7.25,82,7.25,82"/>
      <path class="cls-30" d="M364.89,421.57l1.6,0a22.31,22.31,0,0,0,22-22.58s2.62-27.49-.37-29.5-44.75-1.4-46.21.58.37,29.5.37,29.5A22.29,22.29,0,0,0,364.89,421.57Z"/>
      <rect class="cls-31" x="361.77" y="355.5" width="6.93" height="51.77" rx="3.15" transform="translate(-51.05 706.28) rotate(-84.21)"/>
      <rect class="cls-31" x="361.85" y="365.92" width="6.93" height="51.77" rx="3.15" transform="translate(-61.38 715.69) rotate(-84.2)"/>
      <rect class="cls-31" x="361.3" y="376.16" width="6.93" height="51.77" rx="3.15" transform="matrix(0.1, -0.99, 0.99, 0.1, -72.05, 724.37)"/>
      <g class="cls-32">
        <path class="cls-7" d="M392.11,236.9c-.67-.36-1.49-.86-2.39-1.42s-1.88-1.19-3-1.81a32.08,32.08,0,0,0-3.57-1.81,22.53,22.53,0,0,0-4.32-1.35h-.05a6.34,6.34,0,1,0-2.49,12.44l.1,0a13.73,13.73,0,0,1,4.09,1.67c.8.45,1.65,1,2.59,1.55s2,1.2,3.21,1.85a6.27,6.27,0,0,0,5.85-11.1Z"/>
        <path class="cls-7" d="M414.92,289.5a72,72,0,0,0,.54-9.68,56.06,56.06,0,0,0-1-9.87,53.41,53.41,0,0,0-2.78-9.58,62.3,62.3,0,0,0-4.31-8.79h0a6.14,6.14,0,0,0-10.61,6.19,44.67,44.67,0,0,1,5.5,14.49,50.39,50.39,0,0,1,.19,15.67v0a6.28,6.28,0,0,0,12.45,1.61Z"/>
      </g>
      <path class="cls-33" d="M330.29,355c-12.94-15.89-29.5-38.45-29.92-71.33-.39-31.49,15.35-69.28,55.08-71.31.3,0,.61,0,.92,0C300.59,276.14,309.84,299.75,330.29,355Z"/>
    </g>
    <g>
      <line class="cls-34" x1="359.58" y1="158.79" x2="382.3" y2="153.43"/>
      <line class="cls-34" x1="353.42" y1="145.98" x2="370.43" y2="130"/>
      <line class="cls-34" x1="342.91" y1="136.08" x2="354.11" y2="115.6"/>
    </g>
    <g>
      <path class="cls-35" d="M299.27,186.53c2.47-.31,1.33,4.13,2.6,3.83,2.69-.65,19.61-4.24,23.28-2.2,3,1.66-10.67,2.52-14.08,3.5-3.12.89-11.8,3.34-13.11,2C297,192.7,298,186.69,299.27,186.53Z"/>
      <ellipse class="cls-36" cx="307.77" cy="189.66" rx="16.33" ry="11.53" transform="translate(-39.96 288.55) rotate(-47.52)"/>
    </g>
  </g>
</svg>
