<svg id="Layer_1" data-name="Layer 1" xmlns="http://www.w3.org/2000/svg" width="991.04" height="583.5" viewBox="0 0 991.04 583.5">
  <defs>
    <style>
      .cls-1 {
        fill: #e4ddfb;
      }

      .cls-2 {
        fill: #fff;
      }

      .cls-3 {
        fill: #8b94c7;
      }

      .cls-4 {
        fill: #6470b5;
      }

      .cls-5 {
        fill: #b1b8da;
      }

      .cls-6 {
        fill: #c3efff;
      }

      .cls-7 {
        fill: #bbabf5;
      }

      .cls-8 {
        fill: #ef2a66;
      }

      .cls-9 {
        fill: #472ea6;
      }

      .cls-10 {
        fill: #ff4049;
      }

      .cls-11 {
        fill: #ffb205;
      }

      .cls-12 {
        fill: #2cffe2;
      }

      .cls-13 {
        fill: #00203e;
      }

      .cls-14 {
        fill: #ffc98e;
      }

      .cls-15 {
        fill: #19355a;
      }

      .cls-16 {
        fill: #ff5c0d;
      }

      .cls-17 {
        fill: #db2d34;
      }

      .cls-18 {
        fill: #ffb769;
      }

      .cls-19 {
        fill: #ffcd97;
      }

      .cls-20 {
        fill: #d9f6fd;
      }

      .cls-21 {
        fill: #0057a8;
      }
    </style>
  </defs>
  <g>
    <g>
      <path class="cls-1" d="M172.35,475.58c-69.6-52.73-105.09-141.33-89.43-223.25,5-26.32,15.83-53,37.85-70.36,36.58-28.77,90.54-23.33,137.71-31.64,88.06-15.51,156.43-81.46,242.23-105.48,78.8-22,168.34-5.05,233.49,41.48S839.42,207.09,844,283.08s-25.54,152.67-79.09,210.48Z"/>
      <g>
        <rect class="cls-2" x="161.52" y="179.67" width="37.21" height="19.32"/>
        <rect class="cls-2" x="380.26" y="152.32" width="37.21" height="19.32"/>
        <rect class="cls-2" x="447.37" y="411.85" width="37.21" height="19.32"/>
        <rect class="cls-2" x="409.34" y="125.66" width="37.21" height="19.32"/>
        <rect class="cls-2" x="384.66" y="245.71" width="37.21" height="19.32"/>
        <rect class="cls-2" x="794.1" y="264.34" width="37.21" height="19.32"/>
        <rect class="cls-2" x="766.15" y="295.61" width="37.21" height="19.32"/>
        <rect class="cls-2" x="314.76" y="319.72" width="37.21" height="19.32"/>
        <rect class="cls-2" x="498.02" y="251.03" width="37.21" height="19.32"/>
        <rect class="cls-2" x="338.07" y="347.75" width="37.21" height="19.32"/>
        <rect class="cls-2" x="675.97" y="108" width="37.21" height="19.32"/>
        <rect class="cls-2" x="666.15" y="216.8" width="37.21" height="19.32"/>
      </g>
    </g>
    <g>
      <g>
        <g>
          <path class="cls-3" d="M848.62,448.12c-.4-8.2-7.39-14.88-15.15-17.53a35.12,35.12,0,0,0-5.39-1.35,135.38,135.38,0,0,0,40.9-8.87c6.64-2.57,13.81-6.54,15.43-13.48,1.94-8.29-5.77-16.34-14.12-18s-16.88,1.18-24.92,4A127.14,127.14,0,0,0,892,346.73c4-6.76,7-16,1.73-21.8-6.07-6.61-17-2.48-24.48,2.5a201.8,201.8,0,0,0-49.55,47c1.57-7,3.14-14.35,1.15-21.24S812,340.29,805,341.84c-5.19,1.15-8.72,5.87-11.37,10.47a93,93,0,0,0-12.07,52.62c-1.37-7.57-4.84-16.78-12.52-17.3-5-.35-8.95,3.88-11.31,8.3-15.45,28.91,3.73,59,9,80.57,18.44.93,37.81.54,55.65-4.23,6.23-1.66,12.5-3.74,17.62-7.67S848.94,454.56,848.62,448.12Z"/>
          <path class="cls-4" d="M783.63,452.28a148.29,148.29,0,0,0,44.16,18.4c1.13-.37,2.26-.77,3.37-1.21a147.45,147.45,0,0,1-46.45-18.79q1.41-2.12,2.83-4.21a169,169,0,0,0,60.71,5.83,16.34,16.34,0,0,0,.32-2,168.12,168.12,0,0,1-24.38.37,94.19,94.19,0,0,1,22.44-9.48,15.89,15.89,0,0,0-1-1.7A96.05,96.05,0,0,0,821,450.36l-.14.11a166.29,166.29,0,0,1-32.16-5.69q14.17-20.71,29.87-40.35a.93.93,0,0,0,.67.57,171.79,171.79,0,0,0,20.46,3.72l.06.06a107.32,107.32,0,0,0,22.4,14c.9-.29,1.79-.6,2.68-.91a105.3,105.3,0,0,1-21.53-12.78,173.2,173.2,0,0,0,40.7-.82,12.58,12.58,0,0,0,.41-1.4c.05-.2.09-.41.13-.61a170.88,170.88,0,0,1-64.92-3.18q17.71-22,37.25-42.56a.8.8,0,0,0,.39.06A119.84,119.84,0,0,0,886,356.06c.6-.83,1.18-1.67,1.75-2.52a119.06,119.06,0,0,1-29,5l2.71-2.79a203.55,203.55,0,0,0,32.26-12.25c.42-.88.81-1.79,1.16-2.71A201.28,201.28,0,0,1,864.2,353q14.28-14.52,29.42-28.15a10.81,10.81,0,0,0-1.45-1.28q-23.32,21-44.62,44.14a108.34,108.34,0,0,1,6.8-29.24q-1.49,1.2-2.94,2.43a108.33,108.33,0,0,0-4.9,19.4l-.08-.07a24.56,24.56,0,0,1-7.63-7.76l-1.41,1.42a25.9,25.9,0,0,0,7.78,7.82,1.05,1.05,0,0,0,1.12,0q-.54,3.7-.81,7.46a1,1,0,0,0,.15.62q-9.12,10-17.84,20.34Q816.54,403.45,806,417.39a172.74,172.74,0,0,1-3.7-34.5l0-.05a216.58,216.58,0,0,0,18.66-29c0-.19-.09-.38-.15-.57a17.61,17.61,0,0,0-.7-2,213.38,213.38,0,0,1-17.85,28.39A175.64,175.64,0,0,1,807,341.6a10.83,10.83,0,0,0-1.94.24l-.09,0a176.93,176.93,0,0,0-.71,76.34.75.75,0,0,0,.69.65c-1.25,1.66-2.5,3.33-3.73,5A160.61,160.61,0,0,1,800,344.3a19.31,19.31,0,0,0-2.56,2.48,162.5,162.5,0,0,0,2,78.27.81.81,0,0,0,.41.54q-10.47,14.3-20.19,29.11a93.14,93.14,0,0,1-9.45-66.91,7.88,7.88,0,0,0-1.2-.16,6,6,0,0,0-.73,0,95.1,95.1,0,0,0,10.06,68.66.62.62,0,0,0,.15.2q-5.35,8.22-10.47,16.6c-.52.85-1,1.7-1.54,2.55.08.29.15.58.22.87l1.5.07Q775.68,464.27,783.63,452.28Z"/>
        </g>
        <g>
          <path class="cls-5" d="M701,476.47c-6.73-13.18-17-38.3-21-52.55a92.83,92.83,0,0,1-3.23-17.59l12.15,5.2a2.76,2.76,0,0,0,2.66-.21c1.8-1.26.53-3.67-.75-5.19L677.18,390a58.11,58.11,0,0,1,2.34-9.79c3.91-11.74,11.62-21.88,20.31-30.71q4.86-4.93,10.12-9.43c8.18,7.23,17.14,15.56,18.42,12.92a161.24,161.24,0,0,0-1-26.45c7.91-5.61,16.1-10.89,24.29-16.11a2.14,2.14,0,0,1,3.27,1.54c2.53,20.16,4.9,40.39,4.39,60.69h0a78.82,78.82,0,0,0-16.7,9.8c-2.28,3.72,6.79,5.57,15.57,6.71-1.75,15.37-5.58,30.48-12.46,44.29C736.28,452.37,720.67,468.73,701,476.47Z"/>
          <path class="cls-3" d="M705.84,468.42a.87.87,0,0,0,.43.05,116.33,116.33,0,0,0,12.21-1.83c1.1-.83,2.19-1.69,3.26-2.57a119.07,119.07,0,0,1-15,2.53A110.64,110.64,0,0,0,711,455.55a128.83,128.83,0,0,0,26.17-8.09c.68-.93,1.34-1.88,2-2.84a127.26,127.26,0,0,1-27.52,8.95c1.72-5.46,3.11-11,4.42-16.56a.94.94,0,0,0,.6,0,177.94,177.94,0,0,0,32.95-12.46c.33-.83.64-1.66,1-2.5a177,177,0,0,1-34.07,13.13c1.3-5.59,2.57-11.19,4-16.74a95.5,95.5,0,0,0,34.92-13.09c.19-.82.37-1.65.53-2.48a93.42,93.42,0,0,1-34.93,13.64c1.72-6.32,3.71-12.54,5.84-18.72a225,225,0,0,0,27.92-9.17c-1.18-.18-2.33-.38-3.44-.6a216.08,216.08,0,0,1-23.77,7.72c2-5.79,4.17-11.55,6.32-17.31a107.84,107.84,0,0,0,25.41-14.78c0-.77,0-1.53,0-2.3a105.58,105.58,0,0,1-24.49,14.74c2.62-7,5.23-14,7.65-21.1l0,0a79.84,79.84,0,0,0,15.92-10.45l-.18-2.23a77.65,77.65,0,0,1-15,10.25c.82-2.43,1.62-4.87,2.37-7.33a207.13,207.13,0,0,0,6-24.14h0c1.41-.6,2.78-1.24,4.14-1.92l-.24-1.92c-1.16.59-2.34,1.16-3.54,1.7.5-2.94.9-5.89,1.22-8.86a2.13,2.13,0,0,0-1.61.28l-.26.18A166.37,166.37,0,0,1,748,329.81,126.86,126.86,0,0,1,742.9,316l-1.58,1a127.5,127.5,0,0,0,5.83,15.38.91.91,0,0,0,.15.23c-2.49,9.88-5.71,19.6-9.16,29.23a97.18,97.18,0,0,1-9.71-21.73c.07,2,.1,4,.1,5.93a100.28,100.28,0,0,0,8.82,18q-2.34,6.44-4.75,12.83l-.07.19a.86.86,0,0,0-.41,1.1c-.81,2.18-1.63,4.37-2.43,6.56a262.73,262.73,0,0,1-24.36-40.62l-1.38,1.3a264.61,264.61,0,0,0,24.45,40.63.81.81,0,0,0,.67.36c-1.2,3.29-2.39,6.59-3.54,9.89l-.18.05a1,1,0,0,0-.42,1.71q-.9,2.63-1.77,5.28a172.39,172.39,0,0,1-33.55-42.05c-.4.54-.78,1.07-1.16,1.61a175.22,175.22,0,0,0,34.1,42.34q-1.18,3.71-2.27,7.45c-1.17,4-2.19,8.1-3.16,12.19a183.52,183.52,0,0,1-38.67-41.08c-.21.8-.4,1.59-.57,2.39a185.23,185.23,0,0,0,38.74,40.61l0,0c-1.34,5.72-2.64,11.46-4.12,17.15a90.58,90.58,0,0,1-33.3-22.7c.22.89.45,1.77.7,2.64.09.33.19.67.29,1a92.37,92.37,0,0,0,31.85,20.81q-.68,2.53-1.43,5.06-1.5,5.07-3.43,9.94a100.87,100.87,0,0,1-17.73-10c.41,1,.83,2.05,1.25,3.07a102.62,102.62,0,0,0,15.79,8.61c-1.2,2.89-2.5,5.73-3.95,8.52-.74,1.45-1.49,2.89-2.21,4.34l.59,1.18,1-.43c.66-1.32,1.35-2.63,2-4S705.26,469.65,705.84,468.42Z"/>
        </g>
        <g>
          <path class="cls-3" d="M636.6,452.66c16.87,18.38,46.31,37.75,78.42,36.7,3.65-7.42,3.79-16.23,1.67-24.21s-6.38-15.26-11.21-22c-24.08-33.44-64.52-54.5-105.73-55.06C608,411.65,619.73,434.29,636.6,452.66Z"/>
          <path class="cls-4" d="M601.57,393.12q11.7,9.21,23.25,18.63l-14.87.94c.43.88.87,1.76,1.31,2.63l15.63-1a1.39,1.39,0,0,0,.76-.28c4.34,3.56,8.66,7.16,13,10.76a1.35,1.35,0,0,0,.72.6q9.28,7.8,18.44,15.72-14.31,2.43-28.55,5.29c.65.8,1.31,1.59,2,2.38q14.58-2.91,29.24-5.37l4,3.44-28.75,6.88c.71.76,1.44,1.51,2.2,2.27l28.87-6.9.18-.07q22.49,19.76,44.24,40.32c.63,0,1.27,0,1.9,0,.22-.44.42-.89.62-1.34q-8.22-7.77-16.52-15.42a1.26,1.26,0,0,0,.25-1.11Q694.29,446.8,687,422.67c-1.26-1.14-2.56-2.25-3.86-3.33q7.73,25,13.12,50.63-2.37-2.18-4.76-4.33a1.33,1.33,0,0,0,.18-.94,392.57,392.57,0,0,0-10.78-47.18q-1.81-1.45-3.68-2.83A392.87,392.87,0,0,1,688.63,463q-22.53-20.37-45.8-39.88-6-15.69-12.89-31c-1.11-.29-2.23-.56-3.35-.82q6.4,13.93,12,28.22-19.14-15.94-38.76-31.29Q600.67,390.7,601.57,393.12Z"/>
        </g>
      </g>
      <g>
        <g>
          <circle class="cls-6" cx="280.9" cy="399.51" r="6.61" transform="translate(-166.17 202.94) rotate(-31.15)"/>
          <path class="cls-6" d="M260.86,280.34a9,9,0,1,0,.13-12.73A9,9,0,0,0,260.86,280.34Z"/>
          <path class="cls-5" d="M266.29,281.46A113.3,113.3,0,0,1,197.5,402.08c-1.37.57-2.51-1.45-1.13-2A111,111,0,0,0,264,282c-.19-1.47,2.06-2,2.26-.57Z"/>
          <path class="cls-5" d="M254.77,279.92a10.17,10.17,0,1,1,14.37.14A10.19,10.19,0,0,1,254.77,279.92Zm1.66-1.63a7.84,7.84,0,1,0,.11-11.09A7.86,7.86,0,0,0,256.43,278.29Z"/>
          <path class="cls-5" d="M292.85,325.53a10.17,10.17,0,1,1,14.38.14A10.19,10.19,0,0,1,292.85,325.53Zm1.66-1.63a7.84,7.84,0,1,0,.11-11.09A7.86,7.86,0,0,0,294.51,323.9Z"/>
          <path class="cls-5" d="M280.47,294a4.58,4.58,0,1,1,6.47.06A4.58,4.58,0,0,1,280.47,294Zm1.66-1.63a2.25,2.25,0,1,0,0-3.18A2.25,2.25,0,0,0,282.13,292.39Z"/>
          <path class="cls-5" d="M211.69,323.79a4.58,4.58,0,1,1,6.47.06A4.58,4.58,0,0,1,211.69,323.79Zm1.66-1.63a2.25,2.25,0,1,0,0-3.18A2.25,2.25,0,0,0,213.35,322.16Z"/>
          <path class="cls-5" d="M287.7,358.29a6.32,6.32,0,1,1,8.95.09A6.33,6.33,0,0,1,287.7,358.29Zm1.66-1.62a4,4,0,1,0,.05-5.66A4,4,0,0,0,289.36,356.67Z"/>
          <path class="cls-5" d="M274.7,401.7a7.77,7.77,0,1,1,11,.11A7.78,7.78,0,0,1,274.7,401.7Zm1.66-1.63a5.45,5.45,0,1,0,.08-7.7A5.45,5.45,0,0,0,276.36,400.07Z"/>
          <path class="cls-5" d="M282.62,294.11a41.3,41.3,0,0,1-16,13.43c-1.35.64-2.49-1.39-1.13-2a38.7,38.7,0,0,0,15.08-12.56c.87-1.21,2.88-.05,2,1.17Z"/>
          <path class="cls-5" d="M244.22,304.6a37.84,37.84,0,0,0,19.11,20.26c1.35.65.17,2.65-1.17,2a39.77,39.77,0,0,1-20-21.16c-.55-1.36,1.47-2.51,2-1.12Z"/>
          <path class="cls-5" d="M296.38,327a42.61,42.61,0,0,1-39.56,18c-1.47-.17-1.46-2.5,0-2.33a40.3,40.3,0,0,0,37.52-16.88c.84-1.22,2.86-.06,2,1.17Z"/>
          <path class="cls-5" d="M217,324.21a48,48,0,0,0,28.31,36.63c1.37.6.19,2.6-1.17,2a50.15,50.15,0,0,1-29.39-38.07c-.23-1.47,2-2,2.25-.57Z"/>
          <path class="cls-5" d="M290.28,358.82a46.53,46.53,0,0,1-54.22,17.85c-1.4-.5-.8-2.74.61-2.24a44.19,44.19,0,0,0,51.6-16.78c.83-1.23,2.85-.07,2,1.17Z"/>
          <path class="cls-5" d="M273.59,394c-6.67-3.12-12.46-9.28-13.41-16.74-.19-1.47,2.07-2.05,2.25-.57.88,6.91,6.16,12.42,12.32,15.3,1.36.64.18,2.64-1.16,2Z"/>
          <path class="cls-5" d="M273.89,292.3l.69,9.26c.11,1.49-2.21,1.46-2.32,0-.23-3.09-.47-6.18-.7-9.26-.11-1.5,2.22-1.46,2.33,0Z"/>
          <path class="cls-6" d="M279.88,324.8a5,5,0,1,0,.07-7A4.95,4.95,0,0,0,279.88,324.8Z"/>
          <circle class="cls-6" cx="257.82" cy="361.77" r="5.18"/>
          <circle class="cls-6" cx="301.19" cy="366.47" r="2.59"/>
          <path class="cls-5" d="M227,329.89a6.33,6.33,0,1,1,9,.09A6.33,6.33,0,0,1,227,329.89Zm1.66-1.63a4,4,0,1,0,.06-5.65A4,4,0,0,0,228.67,328.26Z"/>
          <path class="cls-5" d="M235.22,329.89c2.58,6.88-.69,14.76-5,20.25-.92,1.18-2.54-.49-1.63-1.66,3.39-4.35,6.66-11.87,4.34-18-.52-1.4,1.74-1.95,2.26-.57Z"/>
        </g>
        <g>
          <path class="cls-5" d="M227.79,286l.21.16c3.65,2.8,4,8.14,3.7,12.74-2.25,38.63-23.15,75.71-55.53,96.57a213.94,213.94,0,0,0,26.74-72.61c1.79-10.31,2.94-21.11,8.32-30a18.15,18.15,0,0,1,7.08-7.17C221.28,284.21,225.08,284.11,227.79,286Z"/>
          <path class="cls-5" d="M163.23,246.44c2.83,2.31,4.78,5.63,6.53,8.9a163.62,163.62,0,0,1,16.24,107,669.7,669.7,0,0,1-36.75-103c-1.21-4.54-2.17-10,1-13.39,2.87-3.09,8.07-2.85,11.64-.55A12.67,12.67,0,0,1,163.23,246.44Z"/>
          <path class="cls-5" d="M147.1,329c3.07,2.21,5.18,5.5,7,8.83,13.37,24.73,13.29,54.38,10.56,82.28-.62,6.37-1.6,13.22-5.08,18.35Q146.33,393,133.12,347.6c-1-3.55-2.08-7.18-1.86-10.85s1.92-7.48,5.16-9.16,7.58-.83,10.66,1.38Z"/>
          <g>
            <path class="cls-5" d="M135,488.3q2.85-.29,5.69-.72a20.19,20.19,0,0,0-3.51-1.81Z"/>
            <path class="cls-5" d="M221.07,421.9a6.76,6.76,0,0,0-1.16-2.66c-1.77-2.43-5.11-3.3-8.06-2.86s-5.61,2-8.14,3.56c-26.49,16.67-46.22,42.25-66.49,65.83a20.19,20.19,0,0,1,3.51,1.81c32.74-5.11,62.27-26.41,77.92-55.67C220.29,428.86,221.73,425.12,221.07,421.9Z"/>
          </g>
          <g>
            <path class="cls-5" d="M242.37,365.16c2.65-4.06,4.53-9,1.9-12.8-2.17-3.18-6.71-3.93-10.33-2.75s-6.53,3.86-9.27,6.51a411.6,411.6,0,0,0-66.14,82.64,275.37,275.37,0,0,0,82.2-71.3C241.28,366.74,241.84,366,242.37,365.16Z"/>
            <path class="cls-6" d="M160.23,437.77l81.7-87.53a7,7,0,0,1,2.22,2l-36.36,38.95,14-1.65c-1.08,1.13-2.16,2.26-3.26,3.37l-13.83,1.62-35.22,37.74Q164.89,435.1,160.23,437.77Z"/>
          </g>
          <path class="cls-6" d="M155.34,243.75a656,656,0,0,1,25.84,87,148.67,148.67,0,0,0,7-13.81c.19,2,.34,4.05.45,6.08-1.83,3.8-3.81,7.53-6,11.17a1.43,1.43,0,0,1-.56.54q2.55,11.75,4.66,23.59c-.23,1.36-.46,2.71-.72,4.06-.86-1.89-1.7-3.79-2.54-5.69q-4-21.68-9.35-43.05-6.26-7.26-12.83-14.24-1.08-3.24-2.13-6.48Q166,300,172.5,307.34q-1.26-4.81-2.6-9.6a1.66,1.66,0,0,1-.42-.45A255.1,255.1,0,0,0,153.63,275c-.69-2.37-1.37-4.75-2-7.12a260,260,0,0,1,15.69,20.75q-6.59-22.35-14.8-44.2A8.39,8.39,0,0,1,155.34,243.75Z"/>
          <g>
            <g>
              <path class="cls-5" d="M137.09,489.3q.56-1.56,1.08-3.12a22.63,22.63,0,0,0-2.22-.87C136.33,486.64,136.7,488,137.09,489.3Z"/>
              <path class="cls-5" d="M127.67,373.38c-1.94-3.48-4.89-7.17-8.24-9a7.62,7.62,0,0,0-7-.53c-5.9,2.59-5.39,11.09-3.88,17.42Q121,433.61,136,485.31a22.63,22.63,0,0,1,2.22.87A142.23,142.23,0,0,0,127.67,373.38Z"/>
            </g>
            <g>
              <path class="cls-6" d="M137.09,489.3l.41-1.19,0-2.22c-.53-.21-1.05-.4-1.58-.58C136.33,486.64,136.7,488,137.09,489.3Z"/>
              <path class="cls-6" d="M133.67,429.12a1.26,1.26,0,0,0,.78-.7c2.78-5.65,5.24-11.43,7.44-17.31-.38-1.74-.8-3.46-1.24-5.18A189.8,189.8,0,0,1,133,424.66c-.46-2.81-.95-5.6-1.48-8.39a1.42,1.42,0,0,0,.29-.53q3.22-10,5.77-20.11c-.57-1.67-1.17-3.34-1.8-5q-2.38,10-5.4,19.8a358.06,358.06,0,0,0-13-46.89,7.49,7.49,0,0,0-3.16-.2,353,353,0,0,1,18.51,81.36c-3.37-2.09-6.65-4.32-9.84-6.65l1.2,4.48c2.93,2,5.93,4,9,5.87q1.53,16.14,1.58,32.37c.43,1.51.86,3,1.3,4.53.53.18,1.05.37,1.58.58A354.51,354.51,0,0,0,133.67,429.12Z"/>
            </g>
          </g>
          <path class="cls-6" d="M197,300.24a650.82,650.82,0,0,1-14.43,65.65c-11,40-31,86.5-46.23,119.57a20.68,20.68,0,0,1,2.89,1.25,653.14,653.14,0,0,0,60.68-185.89C200.26,298.92,197.35,298.34,197,300.24Z"/>
          <g>
            <path class="cls-5" d="M207.09,189.61l0,.07c16.36,40.74,12.45,89.06-10.4,126.19a396,396,0,0,1-8.33-119.13c.31-3.75.72-7.64,2.65-10.84s5.84-5.51,9.41-4.38S205.73,186.25,207.09,189.61Z"/>
            <path class="cls-6" d="M197.94,181.26a457.7,457.7,0,0,1,4.67,62.17,200.58,200.58,0,0,0,13.83-15.05c.13,1.39.25,2.79.34,4.19a202.16,202.16,0,0,1-14.08,14.91l-.08.07c0,2.53,0,5.06-.08,7.6l14.54-15.41c0,1.44,0,2.87,0,4.31l-14.26,15.12a1.38,1.38,0,0,1-.38.28,457.4,457.4,0,0,1-4.9,55c-.28.46-.54.92-.82,1.38q-.72-3.21-1.39-6.44a451.36,451.36,0,0,0,3.41-92.5,1.54,1.54,0,0,1-.36-.36L188,202.08c.1-1.52.21-3,.33-4.55l10,14q-1.14-14.75-3.25-29.43A7.82,7.82,0,0,1,197.94,181.26Z"/>
          </g>
        </g>
        <g>
          <g>
            <path class="cls-5" d="M96.93,298.51a2.48,2.48,0,0,0-1.63-1.44c-1.62-.31-2.55,1.81-2.88,3.56-1.87,10.11-4.67,21.82,2.29,32.22,7.81-10.81,5.24-22,2.92-32.31A8.56,8.56,0,0,0,96.93,298.51Z"/>
            <path class="cls-5" d="M69.13,317a2.84,2.84,0,0,1,1.67-2.56,3.44,3.44,0,0,1,2.62,0c12.58,4.73,22.22,21.46,22.72,30.73l1,7.39c-12.06-3.84-21.91-18.53-27.18-31.3A9.65,9.65,0,0,1,69.13,317Z"/>
            <path class="cls-5" d="M122.35,329.64a2.79,2.79,0,0,0-.38-1.55c-1-1.65-3.19-1.24-4.74-.49-8.1,3.89-17.72,10.25-20.84,19.43l1.79,6.64c10.26-3,19-11,23.54-21.57A7,7,0,0,0,122.35,329.64Z"/>
            <path class="cls-5" d="M54.36,343.39a7.83,7.83,0,0,1,6.52-3c2.9,0,5.74,1.3,8.45,2.65a118.4,118.4,0,0,1,21.33,13.61c3,2.43,6.62,5.34,8.67,8.81l1.23,8.62c-12.72-2.3-26.47-6.77-37.95-13.8A23.34,23.34,0,0,1,55.27,354c-1.91-2.72-2.83-6.53-1.55-9.47A7,7,0,0,1,54.36,343.39Z"/>
            <path class="cls-5" d="M152,352.65a9.21,9.21,0,0,0-4.77-5.69,14.33,14.33,0,0,0-7.33-1.23c-8.13.45-15.64,4.45-21.91,9.84-6.82,5.86-10.71,12.46-16.3,19.73l2,8.14c16.08-2.54,32.21-8,44-19.89,2.67-2.7,5.25-6.38,4.44-10.46C152.11,352.94,152.07,352.79,152,352.65Z"/>
            <path class="cls-5" d="M45,375.15a8.46,8.46,0,0,1,1.44-2.38c3-3.46,8.13-3.27,12.58-2.39,16.92,3.37,36.25,13.23,47.75,27.93l3.59,11.89c-10.81.77-20.72,2-31.49-.55S57.6,401.7,50,392.7a24.44,24.44,0,0,1-5.37-9.6A13.17,13.17,0,0,1,45,375.15Z"/>
            <path class="cls-5" d="M165,383.24a10.41,10.41,0,0,0-2.66-2.38c-4.2-2.59-9.26-1.51-13.58.2-16.19,6.42-29.18,21-34.92,39l3.36,11.55c16.5-6.08,28.24-8.81,41.73-21.09,4-3.67,7.72-8.2,8.94-13.93A16.71,16.71,0,0,0,165,383.24Z"/>
            <path class="cls-5" d="M46.31,428.18a9.83,9.83,0,0,1-.08-1.21c0-6.66,6.53-10.38,12.37-11.51,10.51-2,21.59-.2,32,3.53,11.26,4,16.45,7.91,27,14l3.46,9.19C100,452.21,82,449,59.28,440.66A26,26,0,0,1,50.69,436,13.08,13.08,0,0,1,46.31,428.18Z"/>
            <path class="cls-5" d="M182,422.44c-3.37-2.94-8.47-3.49-12.79-2.93a43.49,43.49,0,0,0-27.34,15.06C135.63,441.86,129.65,451,129,461l3.46,7.51c10.14-2.57,17.58-4.28,27.09-8.76,8.73-4.12,16.85-10.11,22.36-18.61,2.89-4.46,5-10.59,2.44-15.65A9.89,9.89,0,0,0,182,422.44Z"/>
            <path class="cls-5" d="M44.55,459.08a9.76,9.76,0,0,1,1.58-1.8c2.2-1.95,5-2.87,7.79-3.62,23.32-6.28,51.91-6.43,74.26,5.86l3.32,6.94c-22.91,11.82-51.63,14.1-77.21,7.93-4.69-1.13-10.25-3.56-11.24-8.78A8.71,8.71,0,0,1,44.55,459.08Z"/>
          </g>
          <g>
            <path class="cls-5" d="M95.34,312.66A366.1,366.1,0,0,0,123,445.17c4.62,11.28,9.75,22.35,15.26,33.21.53,1-1,2-1.56.93-20.1-39.59-34.53-81.93-40.27-126a360.55,360.55,0,0,1-3-40.61.91.91,0,0,1,1.82,0Z"/>
            <path class="cls-5" d="M95.85,349.4a148.56,148.56,0,0,0-20.48-26.23c-.83-.83.45-2.13,1.27-1.29a150.14,150.14,0,0,1,20.78,26.59c.61,1-1,1.92-1.57.93Z"/>
            <path class="cls-5" d="M117.91,331.67A110.77,110.77,0,0,1,98.1,350.44c-.95.69-1.86-.88-.93-1.57a108.74,108.74,0,0,0,19.44-18.48c.75-.9,2,.38,1.3,1.28Z"/>
            <path class="cls-5" d="M98.78,369.4a154.71,154.71,0,0,1-35.35-21.31c-.91-.73.37-2,1.28-1.3a152.81,152.81,0,0,0,35,21c1.07.46.16,2-.91,1.57Z"/>
            <path class="cls-5" d="M145.35,354.43a151.86,151.86,0,0,0-42.08,26c-.88.77-2.18-.51-1.29-1.28a154.16,154.16,0,0,1,42.9-26.51c1.08-.45,1.54,1.32.47,1.75Z"/>
            <path class="cls-5" d="M55.13,377.31c13.55,14.63,32.5,24.31,52.65,24.47a.91.91,0,0,1,0,1.82c-20.6-.17-40.06-10-53.92-25-.79-.86.48-2.16,1.28-1.29Z"/>
            <path class="cls-5" d="M158.44,388.43a144.59,144.59,0,0,1-42.77,37.23c-1,.57-1.94-1-.92-1.57a143.12,143.12,0,0,0,42.39-36.94c.72-.92,2,.37,1.3,1.28Z"/>
            <path class="cls-5" d="M57.34,425.46a114.79,114.79,0,0,0,61.71,11.2c1.16-.12,1.15,1.7,0,1.82A116.58,116.58,0,0,1,56.43,427c-1.06-.51-.15-2.09.91-1.58Z"/>
            <path class="cls-5" d="M175.91,429.77a135.78,135.78,0,0,1-45.81,33.38c-1.06.47-2-1.1-.92-1.57a134.58,134.58,0,0,0,45.43-33.09c.79-.87,2.08.41,1.3,1.28Z"/>
            <path class="cls-5" d="M60.6,463a147.35,147.35,0,0,0,67.64-.75.91.91,0,0,1,.48,1.76,149.53,149.53,0,0,1-68.59.75c-1.15-.25-.67-2,.47-1.76Z"/>
            <path class="cls-5" d="M158.37,429.72a77,77,0,0,0-3.73,18.2c-.1,1.16-1.92,1.16-1.82,0a79.27,79.27,0,0,1,3.79-18.67c.37-1.1,2.13-.64,1.76.48Z"/>
            <path class="cls-5" d="M161.33,455.08a21.93,21.93,0,0,1-13.13-1.46c-1.07-.46-.16-2,.91-1.58a19.82,19.82,0,0,0,11.75,1.29c1.14-.23,1.62,1.53.47,1.75Z"/>
            <path class="cls-5" d="M105.14,467.32a24.54,24.54,0,0,0-9.68-9.12c-1-.54-.14-2.11.9-1.58a26.36,26.36,0,0,1,10.35,9.77.91.91,0,0,1-1.57.93Z"/>
            <path class="cls-5" d="M89.83,467.77a25.52,25.52,0,0,1-18.53,5.62c-1.16-.11-1.16-1.93,0-1.82a23.73,23.73,0,0,0,17.23-5.08c.9-.72,2.21.55,1.29,1.28Z"/>
            <path class="cls-5" d="M85,436.37a20.13,20.13,0,0,0-6.8-10.8c-.91-.74.38-2,1.28-1.29a21.74,21.74,0,0,1,7.27,11.61.91.91,0,0,1-1.75.48Z"/>
            <path class="cls-5" d="M70.64,432.76a20.13,20.13,0,0,1-14.49,4.08c-1.15-.11-1.16-1.94,0-1.82a18.69,18.69,0,0,0,13.56-3.83c.92-.71,1.84.87.92,1.57Z"/>
            <path class="cls-5" d="M135.79,399.06a26.08,26.08,0,0,0-2.08,13.65c.12,1.16-1.7,1.15-1.82,0a27.87,27.87,0,0,1,2.32-14.55c.49-1.07,2.06-.15,1.58.91Z"/>
            <path class="cls-5" d="M161.81,401.75a22.11,22.11,0,0,1-14.84-.3c-1.09-.4-.62-2.16.48-1.76a20.52,20.52,0,0,0,13.89.3c1.11-.37,1.58,1.38.47,1.76Z"/>
            <path class="cls-5" d="M136.64,368.52a27.58,27.58,0,0,1-12.48-3.62.91.91,0,0,1,.9-1.57,25.6,25.6,0,0,0,11.59,3.37c1.17.05,1.17,1.87,0,1.82Z"/>
            <path class="cls-5" d="M132.51,358.68a14.85,14.85,0,0,1,2-8.91.91.91,0,0,1,1.58.91,13.2,13.2,0,0,0-1.76,8c.09,1.17-1.73,1.15-1.82,0Z"/>
            <path class="cls-5" d="M114.09,370.54a16.74,16.74,0,0,1,1.13-9.22c.46-1.07,2-.16,1.58.91a14.41,14.41,0,0,0-1,7.84c.17,1.14-1.58,1.63-1.76.47Z"/>
            <path class="cls-5" d="M93.39,400.89a17.26,17.26,0,0,0-5.52-11.73c-.86-.8.42-2.09,1.28-1.3a19.2,19.2,0,0,1,6.06,13c.07,1.16-1.75,1.15-1.82,0Z"/>
            <path class="cls-5" d="M78.29,396.39A17.09,17.09,0,0,1,65,396.15c-1.08-.45-.16-2,.91-1.58a15.34,15.34,0,0,0,11.95.07c1.08-.44,1.55,1.32.47,1.75Z"/>
            <path class="cls-5" d="M63.93,387a30,30,0,0,0-3.35-11.27c-.54-1,1-2,1.57-.92a32.24,32.24,0,0,1,3.6,12.2c.1,1.16-1.72,1.15-1.82,0Z"/>
            <path class="cls-5" d="M86.48,363.4a14.91,14.91,0,0,1-7.53,1c-1.15-.13-1.15-1.95,0-1.82a13.71,13.71,0,0,0,7.05-1c1.08-.45,1.54,1.31.47,1.76Z"/>
            <path class="cls-5" d="M76.85,357.13a20.74,20.74,0,0,0-2.68-6.95.91.91,0,0,1,1.57-.92,22.35,22.35,0,0,1,2.87,7.4c.22,1.14-1.54,1.62-1.76.47Z"/>
            <path class="cls-5" d="M106.91,337.46l-2.38,6.93c-.38,1.1-2.14.64-1.76-.47l2.39-6.94c.38-1.1,2.14-.63,1.75.48Z"/>
            <path class="cls-5" d="M88.65,338a16.77,16.77,0,0,1-8.91-3.58c-.93-.71.36-2,1.28-1.3a14.5,14.5,0,0,0,7.64,3.06c1.16.11,1.16,1.93,0,1.82Z"/>
          </g>
        </g>
      </g>
    </g>
    <ellipse class="cls-7" cx="463.81" cy="482.71" rx="380.62" ry="35.35"/>
    <g>
      <g>
        <circle class="cls-8" cx="235.36" cy="179.57" r="24.22" transform="translate(-58.04 219.02) rotate(-45)"/>
        <g>
          <path class="cls-2" d="M233.81,193.29h3.43v-8.87a1.72,1.72,0,1,0-3.43,0Z"/>
          <rect class="cls-2" x="230.37" y="194.48" width="10.3" height="2.97"/>
          <path class="cls-2" d="M249,177.58c0,4.66-2.37,7.38-6,9.33a4.33,4.33,0,0,0-2.3,3.79v2.59h-2.24v-8.87a2.93,2.93,0,0,0-.82-2,20.94,20.94,0,0,1,.79-5.44c2.44-.32,4.54-1,5.33-2.22a2.25,2.25,0,0,0-.14-2.63,2.15,2.15,0,0,0-2.52-1.17c-1.4.41-2.7,2.33-3.57,4.92a26,26,0,0,1-3.54.08c-.57-2.11-1.59-4-3.43-4.56a2.64,2.64,0,0,0-2.65.73,2.35,2.35,0,0,0-.61,2.36c.28.82,1.13,1.9,3.73,2.36.62.1,1.3.19,2,.24a24,24,0,0,1,.44,5.31,2.9,2.9,0,0,0-.83,2v8.87h-2.25V190.7a4.31,4.31,0,0,0-2.3-3.79c-3.6-1.95-6-4.67-6-9.32a13.43,13.43,0,1,1,26.85,0Z"/>
          <path class="cls-2" d="M242.6,172.75c-.38-.59-.72-.71-.95-.71a.75.75,0,0,0-.24,0c-.79.23-1.8,1.57-2.57,3.62,1.89-.3,3.39-.84,3.91-1.62C242.9,173.85,243.06,173.45,242.6,172.75Z"/>
          <path class="cls-2" d="M230.21,172.52a1.28,1.28,0,0,0-.38-.05,1.53,1.53,0,0,0-1.08.47,1.17,1.17,0,0,0-.33,1.16c.23.71,1.25,1.28,2.79,1.55.48.08,1,.15,1.5.2C232.22,174.22,231.44,172.87,230.21,172.52Z"/>
          <path class="cls-2" d="M235.53,181.51a2.82,2.82,0,0,1,.92.15,22.36,22.36,0,0,1,.69-4.58,25.52,25.52,0,0,1-2.9.06,26.27,26.27,0,0,1,.41,4.51A2.8,2.8,0,0,1,235.53,181.51Z"/>
        </g>
      </g>
      <g>
        <circle class="cls-8" cx="844.43" cy="106.02" r="24.22" transform="translate(172.36 628.15) rotate(-45)"/>
        <g>
          <path class="cls-2" d="M842.88,119.74h3.43v-8.87a1.72,1.72,0,1,0-3.43,0Z"/>
          <rect class="cls-2" x="839.45" y="120.93" width="10.3" height="2.97"/>
          <path class="cls-2" d="M858,104c0,4.66-2.37,7.38-6,9.33a4.33,4.33,0,0,0-2.3,3.79v2.59h-2.24v-8.87a2.91,2.91,0,0,0-.82-2,21.08,21.08,0,0,1,.79-5.45c2.44-.31,4.54-1,5.33-2.21a2.28,2.28,0,0,0-.13-2.64,2.17,2.17,0,0,0-2.53-1.16c-1.4.41-2.7,2.33-3.57,4.92a27.73,27.73,0,0,1-3.54.08c-.57-2.11-1.59-4-3.43-4.57a2.67,2.67,0,0,0-2.65.74,2.32,2.32,0,0,0-.6,2.36c.27.82,1.13,1.9,3.72,2.35.62.11,1.3.19,2,.25a23.91,23.91,0,0,1,.44,5.31,2.94,2.94,0,0,0-.83,2v8.87h-2.24v-2.59a4.32,4.32,0,0,0-2.31-3.79c-3.6-2-6-4.67-6-9.33A13.43,13.43,0,1,1,858,104Z"/>
          <path class="cls-2" d="M851.67,99.2c-.38-.59-.72-.71-.95-.71a.75.75,0,0,0-.24,0c-.79.23-1.79,1.57-2.57,3.62,1.89-.3,3.39-.85,3.91-1.62C852,100.29,852.13,99.9,851.67,99.2Z"/>
          <path class="cls-2" d="M839.28,99a1.31,1.31,0,0,0-.38-.06,1.54,1.54,0,0,0-1.08.48,1.17,1.17,0,0,0-.33,1.16c.23.71,1.25,1.28,2.79,1.55.48.08,1,.15,1.5.2C841.29,100.67,840.51,99.32,839.28,99Z"/>
          <path class="cls-2" d="M844.6,108a2.82,2.82,0,0,1,.92.15,22.36,22.36,0,0,1,.69-4.58,28.07,28.07,0,0,1-2.9.06,26.25,26.25,0,0,1,.41,4.5A3.17,3.17,0,0,1,844.6,108Z"/>
        </g>
      </g>
      <g>
        <circle class="cls-8" cx="325.16" cy="211.59" r="24.22" transform="translate(-54.38 291.9) rotate(-45)"/>
        <g>
          <path class="cls-2" d="M323.61,225.31h3.44v-8.87a1.72,1.72,0,0,0-3.44,0Z"/>
          <rect class="cls-2" x="320.18" y="226.5" width="10.3" height="2.97"/>
          <path class="cls-2" d="M338.76,209.6c0,4.66-2.37,7.38-6,9.33a4.32,4.32,0,0,0-2.31,3.79v2.59h-2.24v-8.87a2.87,2.87,0,0,0-.82-2,20.64,20.64,0,0,1,.8-5.45c2.43-.31,4.54-1,5.32-2.21a2.24,2.24,0,0,0-.13-2.64,2.16,2.16,0,0,0-2.53-1.16c-1.39.41-2.69,2.33-3.56,4.92a27.89,27.89,0,0,1-3.55.08c-.56-2.11-1.58-4-3.43-4.57a2.66,2.66,0,0,0-2.64.74,2.33,2.33,0,0,0-.61,2.36c.27.82,1.13,1.9,3.72,2.35.62.11,1.3.19,2,.25a24.53,24.53,0,0,1,.44,5.31,2.91,2.91,0,0,0-.84,2v8.87h-2.24v-2.59a4.33,4.33,0,0,0-2.3-3.79c-3.6-2-6-4.67-6-9.33a13.43,13.43,0,1,1,26.86,0Z"/>
          <path class="cls-2" d="M332.41,204.77c-.39-.59-.73-.71-1-.71a.63.63,0,0,0-.23,0c-.79.23-1.8,1.57-2.58,3.62,1.89-.3,3.4-.85,3.91-1.62C332.71,205.86,332.86,205.47,332.41,204.77Z"/>
          <path class="cls-2" d="M320,204.54a1.31,1.31,0,0,0-.38-.06,1.56,1.56,0,0,0-1.08.48,1.14,1.14,0,0,0-.32,1.16c.23.71,1.24,1.28,2.79,1.55.47.08,1,.15,1.49.2C322,206.24,321.24,204.89,320,204.54Z"/>
          <path class="cls-2" d="M325.33,213.53a2.82,2.82,0,0,1,.92.15,22.36,22.36,0,0,1,.7-4.58,28.13,28.13,0,0,1-2.9.06,26.08,26.08,0,0,1,.4,4.5A3.23,3.23,0,0,1,325.33,213.53Z"/>
        </g>
      </g>
      <g>
        <circle class="cls-8" cx="132.45" cy="219.11" r="24.22" transform="translate(-116.14 157.84) rotate(-45)"/>
        <g>
          <path class="cls-2" d="M130.91,232.84h3.43V224a1.72,1.72,0,1,0-3.43,0Z"/>
          <rect class="cls-2" x="127.47" y="234.03" width="10.3" height="2.97"/>
          <path class="cls-2" d="M146.05,217.13c0,4.66-2.37,7.38-6,9.33a4.31,4.31,0,0,0-2.3,3.79v2.58h-2.25V224a2.94,2.94,0,0,0-.81-2,20.24,20.24,0,0,1,.79-5.44c2.44-.32,4.54-1,5.33-2.21a2.27,2.27,0,0,0-.14-2.64,2.17,2.17,0,0,0-2.53-1.17c-1.39.41-2.69,2.34-3.56,4.93a26,26,0,0,1-3.54.07c-.57-2.11-1.59-4-3.44-4.56a2.64,2.64,0,0,0-2.64.74,2.33,2.33,0,0,0-.61,2.35c.27.83,1.13,1.9,3.72,2.36.62.11,1.3.19,2,.25a24.53,24.53,0,0,1,.44,5.31,2.86,2.86,0,0,0-.84,2v8.87h-2.24v-2.58a4.33,4.33,0,0,0-2.3-3.79c-3.6-2-6-4.67-6-9.33a13.43,13.43,0,0,1,26.86,0Z"/>
          <path class="cls-2" d="M139.7,212.3c-.39-.59-.72-.71-.95-.71a.65.65,0,0,0-.24,0c-.79.23-1.8,1.57-2.58,3.61,1.89-.29,3.4-.84,3.91-1.61C140,213.39,140.15,213,139.7,212.3Z"/>
          <path class="cls-2" d="M127.3,212.07a1.26,1.26,0,0,0-.38-.06,1.55,1.55,0,0,0-1.07.47,1.17,1.17,0,0,0-.33,1.17c.23.71,1.25,1.27,2.79,1.54q.72.13,1.5.21C129.32,213.76,128.53,212.42,127.3,212.07Z"/>
          <path class="cls-2" d="M132.62,221.06a2.82,2.82,0,0,1,.92.15,23,23,0,0,1,.7-4.58,28.13,28.13,0,0,1-2.9.06,26.25,26.25,0,0,1,.41,4.5A2.78,2.78,0,0,1,132.62,221.06Z"/>
        </g>
      </g>
      <g>
        <g>
          <path class="cls-4" d="M115,257.56a.78.78,0,0,1-.22,0,.67.67,0,0,1-.41-.85,35.84,35.84,0,0,1,4.09-8.3.66.66,0,1,1,1.1.74,35.36,35.36,0,0,0-3.93,8A.67.67,0,0,1,115,257.56Z"/>
          <path class="cls-4" d="M113.45,275.52a.67.67,0,0,1-.66-.56,37,37,0,0,1-.34-9.24.66.66,0,0,1,.72-.61.67.67,0,0,1,.61.72,35.29,35.29,0,0,0,.33,8.91.68.68,0,0,1-.55.77Z"/>
          <path class="cls-4" d="M120.7,292a.68.68,0,0,1-.53-.26,38,38,0,0,1-4.73-7.94.67.67,0,0,1,.35-.88.66.66,0,0,1,.88.34,35.78,35.78,0,0,0,4.56,7.66.67.67,0,0,1-.12.94A.7.7,0,0,1,120.7,292Z"/>
        </g>
        <g>
          <path class="cls-4" d="M237.89,219.11h-.08a.66.66,0,0,1-.58-.74l.09-.75a21.84,21.84,0,0,0,.22-2.23c0-.19,0-.37,0-.56s0-.63,0-.94v-1.52a.67.67,0,0,1,.67-.67h0a.68.68,0,0,1,.67.67v1.53c0,.35,0,.7-.05,1l0,.52c0,.79-.13,1.58-.23,2.34,0,.25-.07.49-.1.74A.66.66,0,0,1,237.89,219.11Z"/>
          <path class="cls-4" d="M234.26,230.7a.75.75,0,0,1-.29-.06.67.67,0,0,1-.31-.89,39.54,39.54,0,0,0,2.21-5.56.67.67,0,0,1,1.28.38,40.64,40.64,0,0,1-2.29,5.75A.66.66,0,0,1,234.26,230.7Z"/>
          <path class="cls-4" d="M227.32,240.66a.63.63,0,0,1-.48-.2.66.66,0,0,1,0-.94c.47-.46.9-1,1.35-1.49l.64-.75c.19-.23.38-.48.57-.73s.22-.3.34-.44l.1-.14c.27-.35.53-.69.76-1.05a.67.67,0,0,1,1.12.72c-.26.41-.54.78-.82,1.14l-.11.14-.32.43-.62.79-.64.75c-.45.53-.92,1.08-1.44,1.59A.67.67,0,0,1,227.32,240.66Z"/>
        </g>
        <g>
          <path class="cls-4" d="M309.73,246a.62.62,0,0,1-.29-.07.67.67,0,0,1-.31-.89l.32-.65c.32-.68.65-1.38,1-2.05.08-.15.16-.31.25-.46s.3-.59.46-.87l.75-1.3a.67.67,0,1,1,1.15.67l-.74,1.29-.44.82-.25.48c-.36.65-.68,1.33-1,2l-.32.66A.66.66,0,0,1,309.73,246Z"/>
          <path class="cls-4" d="M305.75,257.21a.51.51,0,0,1-.17,0,.66.66,0,0,1-.48-.81c.6-2.28,1.15-4.11,1.76-5.77a.67.67,0,1,1,1.25.46c-.59,1.61-1.13,3.41-1.72,5.65A.65.65,0,0,1,305.75,257.21Z"/>
          <path class="cls-4" d="M303.93,269h0a.68.68,0,0,1-.64-.7c0-.69.09-1.38.16-2.05,0-.32.06-.63.08-.95l.1-.79c.09-.73.18-1.48.3-2.22a.67.67,0,0,1,.77-.55.66.66,0,0,1,.55.77c-.12.71-.21,1.45-.3,2.16l-.09.77c0,.29-.05.61-.08.94-.07.65-.13,1.32-.16,2A.66.66,0,0,1,303.93,269Z"/>
        </g>
      </g>
      <g>
        <path class="cls-4" d="M833.33,143.14h-.08a.66.66,0,0,1-.58-.74l.09-.75a21.84,21.84,0,0,0,.22-2.23c0-.19,0-.37,0-.56s.05-.63.05-.94V136.4a.67.67,0,0,1,.67-.67h0a.68.68,0,0,1,.67.67v1.53c0,.35,0,.7,0,1l0,.52c0,.79-.14,1.58-.23,2.34,0,.25-.07.49-.1.74A.66.66,0,0,1,833.33,143.14Z"/>
        <path class="cls-4" d="M829.7,154.73a.75.75,0,0,1-.29-.06.67.67,0,0,1-.31-.89,39.54,39.54,0,0,0,2.21-5.56.66.66,0,0,1,.83-.45.67.67,0,0,1,.45.83,40.64,40.64,0,0,1-2.29,5.75A.66.66,0,0,1,829.7,154.73Z"/>
        <path class="cls-4" d="M822.76,164.69a.63.63,0,0,1-.48-.2.66.66,0,0,1,0-.94c.47-.46.9-1,1.35-1.49l.64-.75c.19-.23.38-.48.57-.73s.22-.3.34-.44l.1-.14c.27-.35.53-.69.76-1.05a.67.67,0,0,1,1.12.72c-.26.41-.54.78-.82,1.14l-.11.14-.32.43-.62.79-.64.75c-.45.53-.92,1.08-1.44,1.59A.67.67,0,0,1,822.76,164.69Z"/>
      </g>
    </g>
    <g>
      <g>
        <path class="cls-5" d="M683.24,135.69s15,139.2,5.87,229.15C665,350.16,598.72,343,598.72,343S610.42,172.66,623,150.84C654.7,152.25,683.24,135.69,683.24,135.69Z"/>
        <path class="cls-6" d="M682.92,135.69s11.37,134.41-.8,220.74c-24.56-14.8-93.19-23.59-93.19-23.59s17.27-163.59,31-184.25C652.79,150.83,682.92,135.69,682.92,135.69Z"/>
        <polygon class="cls-9" points="655.96 481.18 623.36 251.43 573.43 458.41 569.97 457.58 624.27 232.5 659.49 480.68 655.96 481.18"/>
        <rect class="cls-9" x="652.21" y="232.97" width="3.56" height="227.54" transform="matrix(0.97, -0.26, 0.26, 0.97, -66.85, 178.44)"/>
        <polygon class="cls-9" points="556.99 338.28 675.02 366.54 682.92 135.69 581 135.69 556.99 338.28"/>
        <rect class="cls-9" x="616.34" y="351.38" width="3.56" height="52.58" transform="translate(102.51 886.44) rotate(-76.04)"/>
        <path class="cls-2" d="M682.92,135.69s-21.74,16-24.5,104.28S672.3,378.79,672.3,378.79s-93-17-120.64-30.42C533.54,292,564.54,165.38,581,135.69,600.32,130.8,682.92,135.69,682.92,135.69Z"/>
        <path class="cls-9" d="M548.14,327.3a420.08,420.08,0,0,1,5-84.86,530.52,530.52,0,0,1,15.05-66.93c3.62-12.35,7.63-24.61,12.31-36.61.39-1,.89-2,1.2-3a1.78,1.78,0,0,1,.17-.4c-.41.64-.15.26.3.16s.79-.23,1.2-.32c6.33-1.38,13.2-1.18,19.64-1.3,20-.37,40.06.18,60.08.49l6,.08a.78.78,0,0,0,0-1.55c-20.07-.25-40.13-.81-60.2-.65-7.66.06-15.42,0-23,1-1.45.18-3.92.21-5.12,1.21a4.22,4.22,0,0,0-.89,1.72c-4.18,10.34-7.73,20.95-11,31.6a533.85,533.85,0,0,0-15.59,64.42,437.5,437.5,0,0,0-7.06,83.77c.06,3.74.19,7.47.37,11.2,0,1,1.6,1,1.55,0Z"/>
      </g>
      <g>
        <g>
          <path class="cls-10" d="M641.28,153.65l-6.88,14.71-.81,15.84,16.83-1,1.34-14.83-3.45-15.94Zm3.43,7.84a2.67,2.67,0,1,1,2.31-3.12A2.74,2.74,0,0,1,644.71,161.49Z"/>
          <path class="cls-11" d="M647.78,142.13a18.42,18.42,0,0,0-2.77,3.73c1.49,2,2.86,4.22,3,6.6l-1,.18a7.85,7.85,0,0,0-.56-2.37,17.63,17.63,0,0,0-2-3.43,17.28,17.28,0,0,0-1,2.65,21.29,21.29,0,0,0-.71,3.9c-.09,1.25,0,2.42.59,3a1.34,1.34,0,0,0,1.36.21,2.77,2.77,0,0,0,.53-.2,2.76,2.76,0,0,1,.92.54,3.56,3.56,0,0,1-2,.74,2,2,0,0,1-1.79-.71,5.15,5.15,0,0,1-.58-3.36c.06-.67.15-1.3.22-1.77a18.61,18.61,0,0,1,1.89-5.81c-.42-.57-.86-1.13-1.29-1.68s.38-1.09.75-.61.7.88,1.06,1.35a19,19,0,0,1,2.76-3.61C647.59,141,648.2,141.69,647.78,142.13Z"/>
          <path class="cls-2" d="M640.05,168.84a4.17,4.17,0,0,1,.55-2,2.19,2.19,0,0,1,1.41-1l0-.92,1.39,0,0,.92a2,2,0,0,1,1.32,1,4,4,0,0,1,.36,2.07l0,.4-1.62,0,0-.52a1.54,1.54,0,0,0-.18-1,.76.76,0,0,0-.62-.29.77.77,0,0,0-.64.26,1.52,1.52,0,0,0-.27.94,2.23,2.23,0,0,0,.19,1.12,4.06,4.06,0,0,0,.58.88c.23.27.48.54.76.81a6.44,6.44,0,0,1,.75.88,4.34,4.34,0,0,1,.57,1.14,4.83,4.83,0,0,1-.4,3.58,2.21,2.21,0,0,1-1.44,1l0,.91-1.4,0,0-.91a2,2,0,0,1-1.34-1,4,4,0,0,1-.35-2.08l0-.85,1.62,0-.05,1a1.42,1.42,0,0,0,.19,1,.79.79,0,0,0,.63.29.85.85,0,0,0,.66-.25,1.43,1.43,0,0,0,.29-.94,2.3,2.3,0,0,0-.19-1.11,3.83,3.83,0,0,0-.58-.88,9.6,9.6,0,0,0-.76-.81,6,6,0,0,1-.75-.89,3.87,3.87,0,0,1-.57-1.13A4.19,4.19,0,0,1,640.05,168.84Z"/>
        </g>
        <g>
          <path class="cls-11" d="M612.14,339.69l-1.8-17.45a.71.71,0,0,1,.18-.56.56.56,0,0,1,.51-.19l29.29,3.95,2.23-5.67a.61.61,0,0,1,.64-.4l4.73.64a.69.69,0,0,1,.56.77.63.63,0,0,1-.69.6l-4.27-.57-2.21,5.61a.3.3,0,0,1,0,.1l-6.41,16.29a.6.6,0,0,1-.64.4l-21.52-2.9A.68.68,0,0,1,612.14,339.69Zm27.66-12.93L611.68,323l1.66,16,20.55,2.77Z"/>
          <g>
            <path class="cls-11" d="M610.9,322.86l29.75,4a.63.63,0,0,0,.69-.6.69.69,0,0,0-.56-.77l-29.75-4a.62.62,0,0,0-.69.6A.69.69,0,0,0,610.9,322.86Z"/>
            <path class="cls-11" d="M611.5,328.68l27,3.64a.63.63,0,0,0,.7-.6.7.7,0,0,0-.56-.77l-27-3.64a.63.63,0,0,0-.69.6A.69.69,0,0,0,611.5,328.68Z"/>
            <path class="cls-11" d="M612.1,334.49l24.26,3.28a.64.64,0,0,0,.69-.61.69.69,0,0,0-.56-.77l-24.26-3.27a.63.63,0,0,0-.69.6A.68.68,0,0,0,612.1,334.49Z"/>
            <path class="cls-11" d="M612.7,340.31l21.52,2.9a.63.63,0,0,0,.69-.6.69.69,0,0,0-.56-.77l-21.52-2.9a.63.63,0,0,0-.69.6A.69.69,0,0,0,612.7,340.31Z"/>
          </g>
          <path class="cls-11" d="M614.05,347.91l20.63,2.79a.64.64,0,0,0,.7-.6l.29-3a.74.74,0,0,0-.16-.54l-4-4.95a.59.59,0,0,0-.89-.07.75.75,0,0,0-.05,1l3.86,4.72-.19,2-20-2.7a.64.64,0,0,0-.69.6A.68.68,0,0,0,614.05,347.91Z"/>
          <path class="cls-11" d="M629.21,353.8a2.71,2.71,0,0,1,3-2.57,3,3,0,0,1,2.38,3.29,2.7,2.7,0,0,1-2.95,2.56A3,3,0,0,1,629.21,353.8Zm1.25.16a1.58,1.58,0,0,0,1.27,1.75,1.45,1.45,0,0,0,1.57-1.36,1.57,1.57,0,0,0-1.27-1.74A1.43,1.43,0,0,0,630.46,354Z"/>
          <path class="cls-11" d="M612.77,351.58a2.7,2.7,0,0,1,3-2.56,2.94,2.94,0,0,1,2.38,3.28,2.7,2.7,0,0,1-3,2.56A3,3,0,0,1,612.77,351.58Zm1.25.17a1.58,1.58,0,0,0,1.27,1.74,1.45,1.45,0,0,0,1.57-1.36,1.57,1.57,0,0,0-1.27-1.74A1.43,1.43,0,0,0,614,351.75Z"/>
          <path class="cls-11" d="M628.57,342.45a.63.63,0,0,0,.68-.5l4-16.66a.72.72,0,0,0-.45-.85.61.61,0,0,0-.77.47l-4,16.67a.71.71,0,0,0,.45.85Z"/>
          <path class="cls-11" d="M619.79,341.27h.1a.65.65,0,0,0,.6-.71l-.69-17.3a.67.67,0,0,0-.66-.67.65.65,0,0,0-.6.71l.69,17.3A.7.7,0,0,0,619.79,341.27Z"/>
        </g>
        <g>
          <path class="cls-9" d="M649.63,308.31c-.57-.05-57.88-4.62-89.54-15.79l-.77-.27,0-.81c1.85-64.61,19.08-111,19.26-111.51l2.08.79c-.17.45-17.14,46.18-19.09,110,31.54,10.88,87.65,15.35,88.22,15.4Z"/>
          <polygon class="cls-9" points="578.73 195.15 578.57 183.49 570.94 193.23 569.19 191.85 580.71 177.16 580.96 195.12 578.73 195.15"/>
          <polygon class="cls-9" points="633.51 221.18 631.48 220.28 636.18 209.62 625.19 215.29 624.17 213.31 640.76 204.75 633.51 221.18"/>
          <polygon class="cls-9" points="635.38 311.05 634.97 308.86 646.42 306.69 635.51 300.85 636.56 298.89 653.02 307.7 635.38 311.05"/>
          <polygon class="cls-9" points="616.76 303.41 628.96 226.64 642.06 226.45 629.96 304.99 616.76 303.41"/>
          <polygon class="cls-9" points="591.22 299.77 598.07 257.54 611.17 257.36 604.43 301.35 591.22 299.77"/>
          <polygon class="cls-9" points="566.13 293.33 569.5 272.64 582.6 272.46 579.11 296.27 566.13 293.33"/>
          <path class="cls-9" d="M569.82,263.61l-1.14-1.91c.3-.18,30.51-18.28,69-55.32l1.54,1.61C600.54,245.21,570.12,263.43,569.82,263.61Z"/>
        </g>
        <g>
          <ellipse class="cls-4" cx="593.87" cy="219.47" rx="13.1" ry="10.69" transform="translate(314.06 787.41) rotate(-84.05)"/>
          <path class="cls-2" d="M591.72,216a4.61,4.61,0,0,1,.67-2.12,2.11,2.11,0,0,1,1.46-.93l.1-1,1.39.14-.1,1a2.09,2.09,0,0,1,1.26,1.19,4.53,4.53,0,0,1,.23,2.23l-.05.42-1.6-.17,0-.55a1.69,1.69,0,0,0-.12-1,.73.73,0,0,0-.59-.36.75.75,0,0,0-.66.23,1.73,1.73,0,0,0-.33,1,2.73,2.73,0,0,0,.13,1.2,4.4,4.4,0,0,0,.52,1c.22.31.45.61.71.92a6.14,6.14,0,0,1,.7,1,5,5,0,0,1,.5,1.24,4.88,4.88,0,0,1,.07,1.65,4.48,4.48,0,0,1-.69,2.15,2.13,2.13,0,0,1-1.48.92l-.11,1-1.39-.14.1-1a2.12,2.12,0,0,1-1.27-1.2,4.63,4.63,0,0,1-.23-2.25l.1-.91,1.61.17-.11,1a1.61,1.61,0,0,0,.13,1,.8.8,0,0,0,.61.35.79.79,0,0,0,.68-.22,1.58,1.58,0,0,0,.34-1,2.56,2.56,0,0,0-.12-1.2,4.72,4.72,0,0,0-.53-1c-.22-.31-.45-.61-.71-.91a6.93,6.93,0,0,1-.7-1,4.94,4.94,0,0,1-.49-1.24A4.62,4.62,0,0,1,591.72,216Z"/>
        </g>
        <g>
          <g>
            <ellipse class="cls-11" cx="581.93" cy="327.25" rx="13.87" ry="12.11" transform="translate(227.56 893.08) rotate(-87.29)"/>
            <path class="cls-2" d="M576.87,321.68a2.84,2.84,0,0,1,.6-1.78,1.83,1.83,0,0,1,1.53-.56,1.81,1.81,0,0,1,1.47.71,2.82,2.82,0,0,1,.43,1.82l-.24,5a2.84,2.84,0,0,1-.6,1.78,2.1,2.1,0,0,1-3-.14,2.87,2.87,0,0,1-.43-1.83Zm1.09,5.18c0,.64.18,1,.64,1a.6.6,0,0,0,.51-.21,1.16,1.16,0,0,0,.22-.72l.24-5.22a1.14,1.14,0,0,0-.14-.73.62.62,0,0,0-.5-.26q-.67,0-.72.93Zm6.28-7.16,1.23.06-6,15-1.24-.06Zm-1,7.93a2.82,2.82,0,0,1,.6-1.78,2.1,2.1,0,0,1,3,.14,2.75,2.75,0,0,1,.43,1.83l-.24,5a2.76,2.76,0,0,1-.59,1.78,1.83,1.83,0,0,1-1.53.56,1.8,1.8,0,0,1-1.47-.7,2.75,2.75,0,0,1-.43-1.83Zm1.09,5.17c0,.64.18,1,.64,1a.6.6,0,0,0,.51-.2,1.2,1.2,0,0,0,.22-.72l.25-5.22a1.24,1.24,0,0,0-.15-.74.6.6,0,0,0-.49-.25c-.46,0-.7.29-.73.92Z"/>
          </g>
          <g>
            <rect class="cls-11" x="563.94" y="312.19" width="1.33" height="5.11" transform="translate(-35.37 555.32) rotate(-50.99)"/>
            <rect class="cls-11" x="559.2" y="331.35" width="5.11" height="1.33" transform="translate(-80.23 215.12) rotate(-20.27)"/>
            <rect class="cls-11" x="562.2" y="320.22" width="1.33" height="5.11" transform="translate(159.28 830.83) rotate(-81.37)"/>
          </g>
        </g>
        <g>
          <rect class="cls-11" x="648.81" y="186.97" width="1.33" height="5.11" transform="translate(-25.95 150.34) rotate(-12.95)"/>
          <rect class="cls-11" x="656.05" y="182.45" width="1.33" height="5.11" transform="translate(160.55 653.32) rotate(-59.08)"/>
        </g>
        <g>
          <g>
            <path class="cls-11" d="M609.93,185.63l-.63,0a192.69,192.69,0,0,1-20.82-2.54l-.68-.11.13-.68c1.72-8.39,8.76-35.82,8.83-36.09l.15-.58,16.77,2.23Zm-20.55-3.77c10.67,1.73,17.35,2.25,19.35,2.38L612.22,149l-14.31-1.9C596.91,151,591.15,173.54,589.38,181.86Z"/>
            <path class="cls-11" d="M610,185.19l-1.24-.51c1-2.33,2.32-3.8,4-4.36s3.57-.26,5.86.88c-.51-8.14-.28-28.71-.23-32.61l-3.81-.41-1.22.78-.72-1.12,1.62-1,5.48.59V148c0,.26-.36,26.78.31,34.31l.12,1.3L619,183c-2.39-1.41-4.36-1.87-5.85-1.37C611.82,182,610.77,183.2,610,185.19Z"/>
            <path class="cls-11" d="M614.6,180.74h-1.34c0-.24.06-24.35.44-33.28l1.34.06C614.66,156.42,614.6,180.5,614.6,180.74Z"/>
            <polygon class="cls-11" points="618.91 148.65 602.74 145.99 597.54 147 597.28 145.69 602.72 144.64 619.13 147.33 618.91 148.65"/>
            <path class="cls-11" d="M601,149.08c.14-2.93,1.49-11.32,5.67-10.69,5.05.77,2.86,9.05,1.5,12.1-.22.51.52,1,.77.45l.26-.54c.25-.52-.51-1-.76-.45l-.27.54.77.45c1.57-3.52,3.74-12.13-1.78-13.54-5.23-1.35-6.89,8.34-7,11.68,0,.58.86.57.89,0Z"/>
            <path class="cls-11" d="M608.13,145.64a13,13,0,0,1,1.48-4.9c1-1.91,3.68-4.81,5.74-1.93,1.51,2.12.5,6.52.38,8.95,0,.57.86.57.89,0,.15-2.95,1.71-10-2.63-11s-6.41,5.77-6.75,8.85c-.06.57.83.57.89,0Z"/>
          </g>
          <path class="cls-11" d="M596.26,152.28a43,43,0,0,0,15.57,2.08c.57,0,.57-.92,0-.89a42.45,42.45,0,0,1-15.34-2.05c-.54-.18-.77.68-.23.86Z"/>
          <path class="cls-11" d="M589.66,177.67a109,109,0,0,0,20.1,1.51.45.45,0,0,0,0-.89,107.47,107.47,0,0,1-19.87-1.48c-.56-.1-.8.76-.23.86Z"/>
          <path class="cls-11" d="M597.78,160.69a2.27,2.27,0,0,1,.81-1.41,1.78,1.78,0,0,1,1.48-.22,1.76,1.76,0,0,1,1.25.83,2.22,2.22,0,0,1,.13,1.62l-.93,4.18a2.27,2.27,0,0,1-.8,1.4,2.07,2.07,0,0,1-2.74-.61,2.3,2.3,0,0,1-.13-1.61Zm.26,4.54c-.12.54,0,.85.45.94a.61.61,0,0,0,.5-.09.91.91,0,0,0,.3-.57l1-4.37a.9.9,0,0,0,0-.64.58.58,0,0,0-.41-.29c-.42-.1-.69.12-.8.66Zm6.79-5,1.13.25-7.62,11.66-1.13-.25Zm-2.09,6.52a2.27,2.27,0,0,1,.8-1.41,1.81,1.81,0,0,1,1.49-.22,1.76,1.76,0,0,1,1.25.83,2.27,2.27,0,0,1,.13,1.62l-.93,4.18a2.27,2.27,0,0,1-.81,1.4,1.75,1.75,0,0,1-1.48.23,1.77,1.77,0,0,1-1.25-.84,2.19,2.19,0,0,1-.13-1.61Zm.26,4.54c-.12.54,0,.85.44.94a.57.57,0,0,0,.5-.09.91.91,0,0,0,.3-.57l1-4.37a1,1,0,0,0,0-.64.58.58,0,0,0-.42-.29c-.41-.1-.68.12-.8.66Z"/>
        </g>
      </g>
    </g>
    <g>
      <g>
        <g>
          <circle class="cls-9" cx="597.41" cy="61.29" r="26.27"/>
          <g>
            <rect class="cls-2" x="579.26" y="75.14" width="36.3" height="1.33"/>
            <g>
              <rect class="cls-2" x="606.5" y="47.41" width="5.72" height="26.4"/>
              <rect class="cls-2" x="594.55" y="54.99" width="5.72" height="18.82"/>
              <rect class="cls-2" x="582.6" y="64.4" width="5.72" height="9.41"/>
            </g>
            <g>
              <rect class="cls-2" x="581.72" y="48.53" width="25.08" height="1.33" transform="translate(67.68 328.99) rotate(-32.72)"/>
              <polygon class="cls-2" points="601.79 49.31 600.62 48.67 603.64 43.17 597.38 43.63 597.29 42.3 605.99 41.66 601.79 49.31"/>
            </g>
          </g>
        </g>
        <g>
          <circle class="cls-9" cx="471.38" cy="202.16" r="26.27"/>
          <g>
            <g>
              <path class="cls-2" d="M466.43,204.67h0a4,4,0,0,0-2.19.71c-.17.11-.82.49-1,.62l.48-.27s-5.6,1.57-6.62,4.47c-.68,1.89-1.66,5.11-2.23,7.5l.05.06h11.49Z"/>
              <path class="cls-2" d="M466.43,204.67h0a4,4,0,0,1,2.2.71c.17.11.82.49,1,.62l-.48-.27s5.59,1.57,6.62,4.47c.67,1.89,1.65,5.11,2.22,7.5l0,.06h-11.5Z"/>
              <rect class="cls-2" x="464.83" y="200.6" width="3.21" height="5.55"/>
              <path class="cls-2" d="M460.13,195.86a13.36,13.36,0,0,1-.91-5.43,7,7,0,0,1,2.36-4.89,5.25,5.25,0,0,1,5.39-.85,8.79,8.79,0,0,0,2.33,1.08c.59.07,1.19-.09,1.78,0a2.59,2.59,0,0,1,1.91,1.75,6.14,6.14,0,0,1,.19,2.63,34.32,34.32,0,0,1-.66,4.3,9.41,9.41,0,0,1-1.11,3,4,4,0,0,1-2.59,1.89Z"/>
              <path class="cls-2" d="M472.68,195.26a.89.89,0,0,0-1,0,1.72,1.72,0,0,0-.34.32,52.83,52.83,0,0,0-1.51-7.11h-7.34l-1.22,7.24a1.84,1.84,0,0,0-.43-.45.89.89,0,0,0-1,0,.92.92,0,0,0-.19,1,2.45,2.45,0,0,0,1.41,1.54l0,0c.35,1.24,1.66,4.74,5.16,4.87s4.73-3,5.12-4.86l.08,0a2.43,2.43,0,0,0,1.42-1.54A.94.94,0,0,0,472.68,195.26Z"/>
              <path class="cls-9" d="M469.82,188.5a52.83,52.83,0,0,1,1.51,7.11,1.72,1.72,0,0,1,.34-.32,1,1,0,0,1,.56-.17.71.71,0,0,1,.45.14.94.94,0,0,1,.19,1,2.43,2.43,0,0,1-1.42,1.54l-.08,0c-.38,1.82-1.52,4.87-4.91,4.87h-.21c-3.5-.13-4.81-3.63-5.16-4.87l0,0a2.45,2.45,0,0,1-1.41-1.54.92.92,0,0,1,.19-1,.68.68,0,0,1,.44-.14,1.06,1.06,0,0,1,.57.17,1.84,1.84,0,0,1,.43.45l1.22-7.24Zm.33-.44h-8l-.06.37L461,194.85a1.46,1.46,0,0,0-.7-.18,1.2,1.2,0,0,0-.72.24,1.35,1.35,0,0,0-.34,1.48,2.89,2.89,0,0,0,1.52,1.77c.43,1.37,1.88,4.85,5.51,5h.23c3.55,0,4.83-3,5.29-5a2.91,2.91,0,0,0,1.55-1.78,1.35,1.35,0,0,0-.34-1.48,1.21,1.21,0,0,0-.73-.24,1.51,1.51,0,0,0-.58.12,51.55,51.55,0,0,0-1.4-6.42l-.1-.31Z"/>
              <path class="cls-2" d="M468,204.17l-.31.24a4.16,4.16,0,0,1-1.3.66,4.21,4.21,0,0,1-1.29-.66l-.31-.24-1.09,1.75,1.09,1.46,1.6-2v0h0l1.61,2,1.09-1.46Z"/>
              <path class="cls-9" d="M466.44,217.76h.48l-.21-13.07-.28,0-.21,0Q466.33,211.23,466.44,217.76Z"/>
              <path class="cls-9" d="M468,204.17l1.09,1.75L468,207.38l-1.61-2h0v0l-1.6,2-1.09-1.46,1.09-1.75.31.24a4.21,4.21,0,0,0,1.29.66,4.16,4.16,0,0,0,1.3-.66l.31-.24Zm-3.33-.65-.26.42-1.09,1.74-.16.26.18.24,1.09,1.47.34.45.36-.44,1.26-1.55,1.26,1.55.36.44.35-.45,1.08-1.47.19-.24-.16-.26-1.09-1.74-.26-.42-.39.3-.31.24a4,4,0,0,1-1,.54,4.06,4.06,0,0,1-1-.55l-.29-.23-.39-.3Z"/>
            </g>
            <g>
              <g>
                <rect class="cls-2" x="485.88" y="197.42" width="1.98" height="11.33"/>
                <rect class="cls-2" x="481.74" y="200.67" width="1.98" height="8.08"/>
                <rect class="cls-2" x="477.6" y="204.72" width="1.98" height="4.04"/>
              </g>
              <g>
                <rect class="cls-2" x="475.8" y="195.41" width="13.45" height="0.89" transform="translate(-18.88 336.5) rotate(-37.76)"/>
                <polygon class="cls-2" points="486.39 195.33 485.61 194.91 486.97 192.42 484.22 193.12 484 192.25 488.73 191.06 486.39 195.33"/>
              </g>
            </g>
          </g>
        </g>
        <g>
          <path class="cls-12" d="M535.35,110.18a26.27,26.27,0,1,1-26.27-26.27A26.24,26.24,0,0,1,535.35,110.18Z"/>
          <path class="cls-2" d="M532.24,122.59a26.28,26.28,0,0,1-46.32,0c7-4.86,23.16-16.57,23.16-16.57S525.26,117.73,532.24,122.59Z"/>
          <rect class="cls-2" x="508.63" y="91.56" width="0.89" height="18.62"/>
          <polygon class="cls-2" points="518.08 94.98 509.08 98.33 509.08 91.63 518.08 94.98"/>
          <path class="cls-12" d="M509.08,85.24a24.94,24.94,0,1,1-24.94,24.94,25,25,0,0,1,24.94-24.94Zm0-1.34a26.28,26.28,0,1,0,26.27,26.28A26.28,26.28,0,0,0,509.08,83.9Z"/>
          <polygon class="cls-12" points="512.95 122.85 506.47 115.9 496.52 120.73 498.44 107.22 499.76 107.41 498.19 118.44 506.77 114.27 511.7 119.55 511.86 113.15 523.18 118.34 518.41 104.09 519.67 103.67 525.43 120.83 513.14 115.2 512.95 122.85"/>
        </g>
        <g>
          <circle class="cls-12" cx="686.09" cy="66.19" r="26.27"/>
          <g>
            <path class="cls-2" d="M690.24,58.66H682s-8.45,7.53-7.43,16.12,11.57,7.88,11.57,7.88,10.54.72,11.57-7.88S690.24,58.66,690.24,58.66Z"/>
            <path class="cls-2" d="M682,58.66s-5.88-7.66-2.78-8.48,2.42,4.08,6.92.82,3.69.49,5.15,1.79,4.68,1.31-1,5.87A13,13,0,0,1,682,58.66Z"/>
            <rect class="cls-12" x="680.32" y="58" width="12.23" height="1.33"/>
            <path class="cls-12" d="M683.34,68a3.2,3.2,0,0,1,.46-1.8,2.11,2.11,0,0,1,1.37-.89v-.82h1.41v.82a2.11,2.11,0,0,1,1.39.87,3.19,3.19,0,0,1,.47,1.82v.34H686.8v-.45a1.23,1.23,0,0,0-.22-.84.83.83,0,0,0-.64-.25.81.81,0,0,0-.64.25,1.22,1.22,0,0,0-.23.84,1.78,1.78,0,0,0,.26,1,3.18,3.18,0,0,0,.62.76c.26.24.53.47.81.7a5.79,5.79,0,0,1,.81.76,3.92,3.92,0,0,1,.63,1,3.22,3.22,0,0,1,.25,1.35A3.13,3.13,0,0,1,688,75.2a2.13,2.13,0,0,1-1.4.88v.8h-1.41v-.8a2.13,2.13,0,0,1-1.41-.88,3.21,3.21,0,0,1-.46-1.82v-.76h1.63v.87a1.11,1.11,0,0,0,.25.83,1,1,0,0,0,1.3,0,1.16,1.16,0,0,0,.24-.83,1.81,1.81,0,0,0-.25-1,3.19,3.19,0,0,0-.63-.76,9.17,9.17,0,0,0-.81-.69,6.43,6.43,0,0,1-.8-.77,3.43,3.43,0,0,1-.63-1A3.2,3.2,0,0,1,683.34,68Z"/>
          </g>
        </g>
        <g>
          <circle class="cls-9" cx="745.18" cy="123.06" r="26.27"/>
          <g>
            <polygon class="cls-2" points="741.72 105.42 737.09 128.13 748.48 123.99 742.79 145.04 756.08 117.98 744.97 120.64 751.47 105.42 741.72 105.42"/>
            <g>
              <rect class="cls-2" x="730.7" y="110.3" width="1.33" height="6.29" transform="translate(151.23 573.03) rotate(-47.2)"/>
              <rect class="cls-2" x="726.39" y="120.38" width="6.29" height="1.33" transform="translate(-5.52 202.11) rotate(-15.71)"/>
            </g>
            <g>
              <rect class="cls-2" x="760.4" y="123.5" width="1.33" height="6.29" transform="translate(566.98 873.37) rotate(-84.88)"/>
              <rect class="cls-2" x="755.99" y="129.95" width="1.33" height="6.29" transform="translate(19.68 350.13) rotate(-26.39)"/>
            </g>
          </g>
        </g>
        <g>
          <circle class="cls-12" cx="470.69" cy="304.99" r="26.27"/>
          <g>
            <path class="cls-2" d="M451.32,304.49s8.88,11.12,14.73,14.86c0,0,6.52,2.29,11.94-.94a2.27,2.27,0,0,0,.42-3.55l-3.57-3.57a1.89,1.89,0,0,0-2.33-.28l-3.28,2h0a19.55,19.55,0,0,1-11.32-11.33h0l2-3.28a1.91,1.91,0,0,0-.28-2.33l-3.58-3.58a2.28,2.28,0,0,0-3.55.4C449.21,298.24,451.32,304.49,451.32,304.49Z"/>
            <g>
              <path class="cls-2" d="M467.75,295.84a5.45,5.45,0,0,1,6.47,7.37c-.21.54.65.77.86.24a6.33,6.33,0,0,0-7.57-8.47.45.45,0,0,0,.24.86Z"/>
              <path class="cls-2" d="M465.88,292a9.53,9.53,0,0,1,13.64,10.88.45.45,0,0,0,.86.24,10.43,10.43,0,0,0-14.95-11.89c-.51.26-.06,1,.45.77Z"/>
            </g>
            <g>
              <g>
                <circle class="cls-2" cx="483.35" cy="314.79" r="7.37"/>
                <g>
                  <path class="cls-12" d="M481.77,312.59a1.22,1.22,0,0,0-.2-.81.67.67,0,0,0-.52-.21.72.72,0,0,0-.53.2,1,1,0,0,0-.19.68v.95H479v-.86a2.4,2.4,0,0,1,.53-1.66,2.39,2.39,0,0,1,3.1,0,2.39,2.39,0,0,1,.52,1.66,3.58,3.58,0,0,1-.22,1.3,5.05,5.05,0,0,1-.55,1.06,7,7,0,0,1-.71.88c-.25.27-.48.52-.68.76a3.76,3.76,0,0,0-.48.72,1.18,1.18,0,0,0-.12.74H483v1.27h-4v-1.09a3.09,3.09,0,0,1,.2-1.14,4,4,0,0,1,.52-.9,6.09,6.09,0,0,1,.66-.77,7.91,7.91,0,0,0,.66-.77,4.15,4.15,0,0,0,.52-.89A3,3,0,0,0,481.77,312.59Z"/>
                  <path class="cls-12" d="M483,316.4l2.53-6H487v6h.66v1.26H487v1.61h-1.4v-1.61H483Zm2.65,0v-3.28l-1.38,3.28Z"/>
                </g>
              </g>
              <path class="cls-12" d="M483.35,307.42a7.37,7.37,0,1,1-7.37,7.37,7.37,7.37,0,0,1,7.37-7.37Zm0-.89a8.26,8.26,0,1,0,8.26,8.26,8.27,8.27,0,0,0-8.26-8.26Z"/>
            </g>
          </g>
        </g>
        <g>
          <path class="cls-9" d="M540.1,383.53a26.24,26.24,0,0,1-26.27,26.27,25.93,25.93,0,0,1-6.14-.73,26.27,26.27,0,1,1,32.41-25.54Z"/>
          <g>
            <path class="cls-2" d="M520.45,393.26l2-3.31a9.23,9.23,0,0,0,1.36-4.83v-9.68c0-4.84-17.65-6-17.65-2.67v16.45Z"/>
            <rect class="cls-2" x="504.54" y="369.34" width="4.54" height="11.34" rx="2.27"/>
            <path class="cls-9" d="M507.27,369.34a1.81,1.81,0,0,1,1.81,1.81v7.72a1.81,1.81,0,0,1-1.81,1.81h-.93a1.81,1.81,0,0,1-1.8-1.81v-7.72a1.81,1.81,0,0,1,1.8-1.81Zm0-.89h-.93a2.7,2.7,0,0,0-2.69,2.7v7.72a2.7,2.7,0,0,0,2.69,2.7h.93a2.7,2.7,0,0,0,2.7-2.7v-7.72a2.7,2.7,0,0,0-2.7-2.7Z"/>
            <rect class="cls-2" x="509.54" y="368.02" width="4.54" height="12.66" rx="2.27"/>
            <path class="cls-9" d="M512.27,368a1.81,1.81,0,0,1,1.81,1.81v9a1.81,1.81,0,0,1-1.81,1.81h-.92a1.81,1.81,0,0,1-1.81-1.81v-9a1.81,1.81,0,0,1,1.81-1.81Zm0-.89h-.92a2.7,2.7,0,0,0-2.7,2.7v9a2.7,2.7,0,0,0,2.7,2.7h.92a2.7,2.7,0,0,0,2.7-2.7v-9a2.7,2.7,0,0,0-2.7-2.7Z"/>
            <rect class="cls-2" x="514.97" y="369.34" width="4.54" height="11.34" rx="2.27"/>
            <path class="cls-9" d="M517.71,369.34a1.81,1.81,0,0,1,1.81,1.81v7.72a1.81,1.81,0,0,1-1.81,1.81h-.93a1.81,1.81,0,0,1-1.81-1.81v-7.72a1.81,1.81,0,0,1,1.81-1.81Zm0-.89h-.93a2.7,2.7,0,0,0-2.7,2.7v7.72a2.7,2.7,0,0,0,2.7,2.7h.93a2.69,2.69,0,0,0,2.69-2.7v-7.72a2.69,2.69,0,0,0-2.69-2.7Z"/>
            <rect class="cls-2" x="520.46" y="371.15" width="3.85" height="9.13" rx="1.92"/>
            <path class="cls-9" d="M522.5,371.15a1.8,1.8,0,0,1,1.81,1.8v5.52a1.81,1.81,0,0,1-1.81,1.81h-.23a1.81,1.81,0,0,1-1.81-1.81V373a1.8,1.8,0,0,1,1.81-1.8Zm0-.89h-.23a2.7,2.7,0,0,0-2.69,2.69v5.52a2.7,2.7,0,0,0,2.69,2.7h.23a2.7,2.7,0,0,0,2.7-2.7V373a2.7,2.7,0,0,0-2.7-2.69Z"/>
            <path class="cls-2" d="M520.45,387.73V409a26.22,26.22,0,0,1-6.62.84,25.93,25.93,0,0,1-6.14-.73V387.73Z"/>
            <path class="cls-2" d="M507.79,393.26l-2.38-3.52a11.29,11.29,0,0,1-2-6.33v-7.52l5.57-2.12a1.82,1.82,0,0,1,2.29.83h0a1.48,1.48,0,0,1-.75,2L507.68,378v3.9a12.64,12.64,0,0,1,6.39,11.32Z"/>
            <path class="cls-9" d="M508.57,381.42v-2.83l2.39-1.21a2.4,2.4,0,0,0,1.14-3.17,2.66,2.66,0,0,0-2.41-1.46,2.77,2.77,0,0,0-1,.19l-5.58,2.12-.57.22v8a12.55,12.55,0,0,0,2.19,7l2.31,3.43.27.39h.37v-1l-2.22-3.28a11.65,11.65,0,0,1-2-6.53v-7.41l5.57-2.12a1.86,1.86,0,0,1,.68-.13,1.76,1.76,0,0,1,1.61,1,1.48,1.48,0,0,1-.74,2L507.68,378v3.9a12.5,12.5,0,0,1,5.94,7.72h.92A13.36,13.36,0,0,0,508.57,381.42Z"/>
            <path class="cls-9" d="M513.51,387.1l-.77-.44c.1-.18,2.43-4.19,6.61-4.62l.09.88C515.71,383.31,513.54,387.06,513.51,387.1Z"/>
          </g>
          <path class="cls-9" d="M513.83,358.59a24.94,24.94,0,1,1,0,49.87,24.81,24.81,0,0,1-19.49-9.38,24.64,24.64,0,0,1-5.44-15.55,25,25,0,0,1,24.93-24.94Zm0-1.33a26.27,26.27,0,0,0-6.14,51.81,25.93,25.93,0,0,0,6.14.73,26.27,26.27,0,0,0,0-52.54Z"/>
        </g>
      </g>
      <g>
        <g>
          <path class="cls-4" d="M707.25,202.39a.67.67,0,0,1-.23-1.3,44.38,44.38,0,0,0,8.68-4.31.68.68,0,0,1,.92.21.66.66,0,0,1-.2.92,45.44,45.44,0,0,1-8.95,4.44A.57.57,0,0,1,707.25,202.39Z"/>
          <path class="cls-4" d="M723.77,191.9a.69.69,0,0,1-.48-.2.66.66,0,0,1,0-.94,51.4,51.4,0,0,0,6.27-7.43.67.67,0,0,1,1.1.75,52.38,52.38,0,0,1-6.43,7.63A.7.7,0,0,1,723.77,191.9Z"/>
          <path class="cls-4" d="M734.9,175.78a.66.66,0,0,1-.27-.06.67.67,0,0,1-.34-.88,47.43,47.43,0,0,0,3-9.24.67.67,0,0,1,.79-.52.66.66,0,0,1,.51.79,48.16,48.16,0,0,1-3,9.51A.66.66,0,0,1,734.9,175.78Z"/>
        </g>
        <g>
          <path class="cls-4" d="M520.79,156.79a.67.67,0,0,1-.65-.55,41.53,41.53,0,0,1-.64-9.93.67.67,0,0,1,1.33.08,41,41,0,0,0,.62,9.61.67.67,0,0,1-.54.78Z"/>
          <path class="cls-4" d="M528.33,174.75a.65.65,0,0,1-.55-.29,48.17,48.17,0,0,1-4.79-8.69.67.67,0,0,1,.35-.88.65.65,0,0,1,.87.35,47.82,47.82,0,0,0,4.66,8.46.67.67,0,0,1-.16.93A.68.68,0,0,1,528.33,174.75Z"/>
          <path class="cls-4" d="M542.49,188.11a.69.69,0,0,1-.34-.09,45.47,45.47,0,0,1-7.91-6,.66.66,0,1,1,.92-1,43.93,43.93,0,0,0,7.67,5.83.67.67,0,0,1,.23.92A.65.65,0,0,1,542.49,188.11Z"/>
        </g>
        <g>
          <g>
            <path class="cls-4" d="M436.93,283.09a.68.68,0,0,1-.51-.23l-1-1.2c-.23-.27-.44-.55-.66-.83s-.22-.29-.34-.43c-.51-.64-1-1.31-1.44-2l-.44-.63a.66.66,0,0,1,.15-.93.67.67,0,0,1,.93.16c.16.21.3.43.45.64.45.63.9,1.29,1.39,1.89l.36.46c.2.26.4.52.62.77l1,1.2a.67.67,0,0,1-.07.94A.64.64,0,0,1,436.93,283.09Z"/>
            <path class="cls-4" d="M429.85,272.61a.68.68,0,0,1-.6-.36,51.14,51.14,0,0,1-2.52-5.9.67.67,0,1,1,1.25-.46,48.52,48.52,0,0,0,2.46,5.75.67.67,0,0,1-.29.9A.66.66,0,0,1,429.85,272.61Z"/>
            <path class="cls-4" d="M425.62,260.69a.66.66,0,0,1-.64-.51c-.12-.47-.21-.95-.29-1.41l0-.19c0-.19-.07-.37-.1-.55-.07-.34-.13-.68-.18-1s-.09-.68-.13-1c-.1-.72-.2-1.46-.24-2.2a.67.67,0,0,1,1.33-.08c0,.7.13,1.38.23,2.1.05.34.09.67.13,1s.11.64.17,1,.07.37.1.56l0,.18c.08.46.16.9.27,1.33a.67.67,0,0,1-.48.81Z"/>
          </g>
          <g>
            <path class="cls-4" d="M424.58,247.49h-.05a.67.67,0,0,1-.62-.72l.11-1.58q0-.52.12-1.05c0-.18.05-.37.07-.55.08-.81.22-1.62.36-2.41,0-.25.09-.5.13-.76a.67.67,0,1,1,1.32.22c0,.26-.09.52-.14.78-.13.76-.27,1.54-.35,2.31,0,.2,0,.39-.07.58s-.08.65-.11,1l-.11,1.58A.67.67,0,0,1,424.58,247.49Z"/>
            <path class="cls-4" d="M427,235.07a.76.76,0,0,1-.21,0,.67.67,0,0,1-.43-.84,50.75,50.75,0,0,1,2.38-6,.67.67,0,0,1,.89-.32.66.66,0,0,1,.32.88,49.86,49.86,0,0,0-2.32,5.81A.66.66,0,0,1,427,235.07Z"/>
            <path class="cls-4" d="M432.4,223.64a.67.67,0,0,1-.34-.09.68.68,0,0,1-.24-.92c.26-.42.54-.82.81-1.21l.1-.14.32-.46c.19-.29.39-.58.6-.86l.62-.81c.44-.57.89-1.17,1.38-1.72a.68.68,0,0,1,1-.06.67.67,0,0,1,0,.94c-.46.52-.87,1.07-1.31,1.65l-.63.81-.56.8-.33.47-.1.14c-.27.39-.52.75-.75,1.14A.66.66,0,0,1,432.4,223.64Z"/>
          </g>
        </g>
        <g>
          <path class="cls-4" d="M635.89,119.18h0a.68.68,0,0,1-.66-.68l0-1.56c0-.35,0-.69.06-1,0-.18,0-.36,0-.53,0-.8.15-1.61.25-2.38,0-.25.06-.5.1-.75a.66.66,0,0,1,.74-.58.67.67,0,0,1,.58.74c0,.25-.06.51-.1.76-.1.75-.2,1.53-.24,2.28,0,.2,0,.38,0,.57s0,.64-.06,1l0,1.55A.67.67,0,0,1,635.89,119.18Z"/>
          <path class="cls-4" d="M637.71,106.92l-.18,0a.66.66,0,0,1-.46-.82,44.57,44.57,0,0,1,2.16-5.92.66.66,0,1,1,1.22.52,46.63,46.63,0,0,0-2.1,5.75A.66.66,0,0,1,637.71,106.92Z"/>
          <path class="cls-4" d="M642.74,95.6a.66.66,0,0,1-.33-.09.67.67,0,0,1-.25-.91c.24-.42.51-.82.77-1.21l.1-.14.3-.46c.19-.28.38-.57.58-.84s.41-.54.6-.81c.42-.57.86-1.15,1.34-1.7a.66.66,0,0,1,.94-.06.67.67,0,0,1,.07.94c-.45.51-.85,1.05-1.27,1.62-.2.27-.4.54-.61.8l-.54.79-.31.47-.09.14c-.26.38-.5.74-.72,1.12A.68.68,0,0,1,642.74,95.6Z"/>
        </g>
        <g>
          <path class="cls-4" d="M508.31,347.61h-.05a.67.67,0,0,1-.62-.72l.14-1.8c0-.41.11-.82.17-1.21,0-.2.07-.41.1-.61a24,24,0,0,1,.55-2.73c.07-.29.14-.57.2-.85a.67.67,0,0,1,1.31.29l-.21.87a22.91,22.91,0,0,0-.53,2.59c0,.23-.07.45-.1.66-.07.38-.13.74-.16,1.1L509,347A.66.66,0,0,1,508.31,347.61Z"/>
          <path class="cls-4" d="M512,333.76a.75.75,0,0,1-.29-.06.68.68,0,0,1-.32-.89,39.57,39.57,0,0,1,3.8-6.27.67.67,0,0,1,.93-.15.66.66,0,0,1,.15.93,38.37,38.37,0,0,0-3.67,6.06A.66.66,0,0,1,512,333.76Z"/>
          <path class="cls-4" d="M520.54,322.24a.7.7,0,0,1-.47-.19.69.69,0,0,1,0-.95c.41-.41.85-.77,1.27-1.12l.14-.11.49-.41c.3-.26.61-.51.92-.75l1.49-1.07.25-.18.52-.36.78-.47a.67.67,0,0,1,.92.23.66.66,0,0,1-.23.91l-.77.47-.43.3-.27.2-1.46,1c-.28.21-.57.46-.86.7l-.5.42-.14.11a13.06,13.06,0,0,0-1.16,1A.69.69,0,0,1,520.54,322.24Z"/>
        </g>
        <g>
          <path class="cls-4" d="M501.35,247.72a.67.67,0,0,1-.46-.18,37.47,37.47,0,0,1-5.9-7.09.66.66,0,0,1,.2-.92.68.68,0,0,1,.93.21,36.09,36.09,0,0,0,5.68,6.83.67.67,0,0,1-.45,1.15Z"/>
          <path class="cls-4" d="M516.87,256.86a.76.76,0,0,1-.21,0,44.39,44.39,0,0,1-8.39-3.78.67.67,0,1,1,.67-1.15,43.18,43.18,0,0,0,8.13,3.66.67.67,0,0,1-.2,1.3Z"/>
          <path class="cls-4" d="M530,259a41.15,41.15,0,0,1-4.3-.23.67.67,0,0,1-.59-.74.67.67,0,0,1,.74-.59,38.42,38.42,0,0,0,8.9-.07.67.67,0,1,1,.16,1.33A40.32,40.32,0,0,1,530,259Z"/>
        </g>
        <g>
          <path class="cls-4" d="M727.8,57.1a.57.57,0,0,1-.18,0,32.55,32.55,0,0,0-8.73-1.23.67.67,0,0,1,0-1.34h0A33.64,33.64,0,0,1,728,55.79a.66.66,0,0,1,.46.82A.67.67,0,0,1,727.8,57.1Z"/>
          <path class="cls-4" d="M743.12,66.22a.64.64,0,0,1-.48-.21,33.12,33.12,0,0,0-6.91-5.48.66.66,0,0,1-.23-.91.67.67,0,0,1,.92-.23,34.88,34.88,0,0,1,7.19,5.7.66.66,0,0,1,0,.94A.63.63,0,0,1,743.12,66.22Z"/>
          <path class="cls-4" d="M751.61,81.9a.67.67,0,0,1-.65-.51,33.31,33.31,0,0,0-3.14-8.24.67.67,0,0,1,.26-.91.68.68,0,0,1,.91.27,34.64,34.64,0,0,1,3.27,8.57.66.66,0,0,1-.49.8A.47.47,0,0,1,751.61,81.9Z"/>
        </g>
        <g>
          <path class="cls-4" d="M563.3,112.24a30.78,30.78,0,0,1-6.87-.76.67.67,0,0,1,.3-1.3,29.84,29.84,0,0,0,7.59.71.66.66,0,0,1,.69.64.67.67,0,0,1-.65.69Z"/>
          <path class="cls-4" d="M572.05,111.06a.67.67,0,0,1-.64-.49.66.66,0,0,1,.46-.82,35.66,35.66,0,0,0,7.13-2.81.67.67,0,1,1,.62,1.18,36.81,36.81,0,0,1-7.39,2.91A.57.57,0,0,1,572.05,111.06Z"/>
          <path class="cls-4" d="M585.78,103.85a.65.65,0,0,1-.51-.24.67.67,0,0,1,.08-.94,32.54,32.54,0,0,0,5.23-5.57.68.68,0,0,1,.94-.14.69.69,0,0,1,.14.94,34,34,0,0,1-5.45,5.79A.66.66,0,0,1,585.78,103.85Z"/>
        </g>
        <g>
          <path class="cls-4" d="M699.94,298.75a.67.67,0,0,1,0-1.34,35.18,35.18,0,0,0,8.54-1.18.67.67,0,0,1,.34,1.29,36.85,36.85,0,0,1-8.87,1.23Z"/>
          <path class="cls-4" d="M716.84,294.36a.67.67,0,0,1-.31-1.26,41.85,41.85,0,0,0,7.21-4.8.67.67,0,0,1,.85,1,43.45,43.45,0,0,1-7.43,4.95A.72.72,0,0,1,716.84,294.36Z"/>
          <path class="cls-4" d="M730.3,283.19a.7.7,0,0,1-.41-.14.67.67,0,0,1-.11-.94,38.11,38.11,0,0,0,4.57-7.34.65.65,0,0,1,.88-.31.66.66,0,0,1,.32.89,39.69,39.69,0,0,1-4.72,7.59A.69.69,0,0,1,730.3,283.19Z"/>
        </g>
      </g>
    </g>
    <g>
      <g>
        <path class="cls-13" d="M741.92,260.07a7.74,7.74,0,0,1-4.86-6.64c-.33-5.06,6.32-3.58,6.32-3.58S744.84,257.71,741.92,260.07Z"/>
        <path class="cls-14" d="M742.39,250.13l-2.47-3.63c-10.08-4.49-33.62-20.85-33.62-20.85l-1.54,4.12s10.2,12.78,19.8,20.7c7.08,5.84,14.59,11.14,19.34,5.53C744.71,255,743.54,253.31,742.39,250.13Z"/>
        <path class="cls-14" d="M771.28,227.45a7.18,7.18,0,0,1-.35.84c-3.33,7.18-19.49,22.71-27,27.71a16.58,16.58,0,0,1-2.15,1.24l-2.44-10,.61-.75,27.25-33.74a21,21,0,0,1,3.32,5.21A12.77,12.77,0,0,1,771.28,227.45Z"/>
        <path class="cls-15" d="M770.93,228.29c-3.33,7.18-16.66,25-27.33,30.09-.61-3.87-2.57-10.14-3.68-11.88l27.25-33.74a21,21,0,0,1,3.32,5.21Z"/>
        <g>
          <path class="cls-14" d="M706.36,228a9,9,0,0,0-4.72-6.34,18.6,18.6,0,0,0-5.76-1.86.82.82,0,0,0-.71,1.33,10,10,0,0,0,6.16,3.92Z"/>
          <path class="cls-14" d="M706.3,225.65s-3-4.78-8.1-2c-2.73,1.46-1.34,3.5.12,5.13.67.74,3.93,5.82,6.95,5.13s3.56-.18,3.56-.18Z"/>
          <polygon class="cls-11" points="635.22 181.22 635.13 181.35 635.04 181.49 724.11 244.52 725.03 243.17 725.96 241.82 635.22 181.22"/>
          <path class="cls-14" d="M696.75,224.59a2.06,2.06,0,0,0-.24,2.86,39,39,0,0,0,6.27,5.9c3,1.63,6.41-4.44,2.33-7.65C701.54,222.9,699.84,221.9,696.75,224.59Z"/>
        </g>
        <path class="cls-13" d="M743.54,242s-2.22.79-4.23,4.2a31.48,31.48,0,0,1,2.61,13.85s4.93-1.89,7.52-5.44C748.32,245.36,743.54,242,743.54,242Z"/>
      </g>
      <g>
        <path class="cls-16" d="M782.52,191.23s15.24-7.45,13.09-22.53-24.17-14.63-32.22-7.55-10.81,11.84-5.34,15.68,5,13.47,12.57,11.47C776.77,186.68,782.52,191.23,782.52,191.23Z"/>
        <g>
          <path class="cls-16" d="M785.16,163.45c2.93-1.48,8.44-5.08,11.69-5.48,12.85-1.57,10.12,9.62,11.69,19.08.55,3.26,5,7.08,8.13,8.09a16.36,16.36,0,0,1,1.19,30.72,2.32,2.32,0,0,0-1.34.94c-.39.79.26,1.66.75,2.39,2.24,3.34,1.25,8.28-1.83,10.87a10.69,10.69,0,0,1-11.36,1.08,14.31,14.31,0,0,1-7.19-9.24,22.14,22.14,0,0,1,.45-11.91c-.63,2-3.29,2.85-5.2,2a6.12,6.12,0,0,1-3.25-5,15.42,15.42,0,0,1,1-6.17c1.46-4.55,3.4-8.95,4.65-13.57s1.77-9.58.36-14.15-5-8.66-9.74-9.59Z"/>
          <path class="cls-17" d="M795.61,168.7a19.47,19.47,0,0,1-.17,6.64,19.93,19.93,0,0,1,.25,2,19.79,19.79,0,0,0,.67-8.78,13.47,13.47,0,0,0-4.7-8.7l-.73.38A12.83,12.83,0,0,1,795.61,168.7Z"/>
        </g>
        <path class="cls-14" d="M773.37,199.93s1.4-6.9.76-10.51,8.3-3.85,8.3-3.85.16,8.45,1.4,12.3S775,204.21,773.37,199.93Z"/>
        <path class="cls-14" d="M771.15,166.43a9.61,9.61,0,0,0-6.25,9.83c.52,5.74,1.63,13.41,3.86,15.7,1.35,1.38,5.49,1,9.46-2s4.23-4.48,4.23-4.48C777.7,183.14,772.77,165.82,771.15,166.43Z"/>
        <path class="cls-18" d="M782.43,185.58c-.12.35-.78,1.83-4.21,4.4a15.44,15.44,0,0,1-3.93,2.13c0,.32,0,.64,0,1a16.07,16.07,0,0,0,4.5-2.38,18.64,18.64,0,0,0,3.72-3.45C782.44,186.28,782.43,185.65,782.43,185.58Z"/>
        <path class="cls-14" d="M777.74,181a4.47,4.47,0,0,1,3-3.83,2,2,0,0,1,1.88.19,2,2,0,0,1,.53,1.64,5.49,5.49,0,0,1-1.54,3.29,14.35,14.35,0,0,1-2.9,2.29l.17-.21Z"/>
      </g>
      <path class="cls-13" d="M803.5,263.89s-7.34-1.8-9.13-5.06,3.08-3.82,3.08-3.82l6,5.06Z"/>
      <g>
        <g>
          <path class="cls-14" d="M797.79,481.61s-4.08,6.86-5.43,7.89-4.34,3.41-5.41,2.43-.44-1.57.77-2.83l.48-.48c1.55-1.58,5.47-9.72,5.47-9.72s2.34-4.14,3.85,1.31A8,8,0,0,1,797.79,481.61Z"/>
          <path class="cls-11" d="M797.79,481.61l.48,3.58a22,22,0,0,1-5.46,6.35c-3.09,2.49-5.77,2.34-6.84,1.36s1-3.92,3.71-6.43c-1.48,2.15-2.6,4.35-.13,3.41a7.19,7.19,0,0,0,2.85-2Q795.09,484.72,797.79,481.61Z"/>
        </g>
        <g>
          <g>
            <path class="cls-14" d="M738.14,481.43c-.61.82-17.76,3-17.81,2.61a1.47,1.47,0,0,1,.25-2.23,7.76,7.76,0,0,1,2.41-1.29c2.92-1.08,8.54-5.32,10.49-6,2.39-1.08,3.56-.52,3.56-.52l.18.73c0,.21.11.45.17.72C737.85,477.42,738.56,480.86,738.14,481.43Z"/>
            <path class="cls-11" d="M738.14,481.43c-.61.82-17.76,3-17.81,2.61a1.47,1.47,0,0,1,.25-2.23,16.32,16.32,0,0,0,10.31-2.43c2.17-1.39,4-3.28,6.19-4.61l.14-.08c0,.21.11.45.17.72C737.85,477.42,738.56,480.86,738.14,481.43Z"/>
          </g>
          <path class="cls-14" d="M762.78,291.37s-23.65,152.47-30.51,183.71c3.4.65,4.77-1.12,4.77-1.12s41.59-136.39,42.43-150.63.73-34.23.73-34.23Z"/>
        </g>
        <path class="cls-14" d="M762.19,295s17.66,89.11,20.61,112.59,10.87,71.28,10.87,71.28-1.07,6.24,3.85,1.31c-3.69-86.82,9.6-170.14-6.55-193.61C778.22,287.33,762.19,295,762.19,295Z"/>
        <g>
          <path class="cls-18" d="M762.2,295.11c-.11.69-.23,1.48-.37,2.36,1.45,7.32,6.13,31.19,10.67,55.37.16-.62.33-1.23.49-1.83C767.79,323.38,762.51,296.66,762.2,295.11Z"/>
          <path class="cls-18" d="M771.85,290.19c-4.59,1.64-8.16,3.24-9.49,3.85,0,.3-.09.63-.15,1a116.7,116.7,0,0,1,13.91-5.39Z"/>
        </g>
      </g>
      <path class="cls-10" d="M780.73,273.87c-10,3.51-20.76,2.41-20.76,2.41s.17-20.26-.39-33.12a21.29,21.29,0,0,1-3.72-11c-.07-5.53,7.62-14.43,11.31-19.4l14.58-9.84,1.44-1.73s9.15,15.91,9.57,22.17S784.74,266.61,780.73,273.87Z"/>
      <path class="cls-14" d="M783.83,197.87c-3.74,8.23-15.76,17.57-20.46,19.85a54.59,54.59,0,0,0,10-17.79Z"/>
      <path class="cls-15" d="M783.83,197.87s-14.46,9.51-16,27.22,1.81,46.73,3.22,49.36,11.84,32.18,11.84,32.18,12.61.76,20.6-1c-12.45-30.2-14.6-35.38-18.08-38.92,0,0,4.3-36,7.34-43.37S783.83,197.87,783.83,197.87Z"/>
      <g>
        <path class="cls-15" d="M799.19,338.7s10.46-35.87-9.84-59a65.61,65.61,0,0,0-7.55-7.27s-16.52,4-21.83,3.82c.51,6.54-5,58.49-5,58.49C765.91,341.39,780.24,342.43,799.19,338.7Z"/>
        <path class="cls-13" d="M801.06,306.09a84.18,84.18,0,0,1-11.66.71c-3.75,0-6.5-.17-6.5-.17s-9.8-27.74-11.69-31.86l-.83.16c1.24,2.49,8.2,21.91,11.75,32l.18.51.54,0s2.82.17,6.55.17a85.44,85.44,0,0,0,11.77-.72C801.13,306.63,801.1,306.36,801.06,306.09Z"/>
      </g>
      <g>
        <g>
          <path class="cls-14" d="M753.8,281.63s-.13-1.08-3.29-1.05-10.58,1-10.73,3.73,1,4.62,2.84,5,9.9-.08,15.75-7.32C761.48,278.17,753.8,281.63,753.8,281.63Z"/>
          <path class="cls-14" d="M758.34,279s-3.7,1-5.92.63a44.53,44.53,0,0,1-4.93-1.16c-1.93-.53-3.42-.1-3.48.45s3.15,1.74,4,2.1,3.08,2.23,4.87,2S758.34,279,758.34,279Z"/>
          <path class="cls-14" d="M780.71,204.35s-7,.27.14,19.58,9.51,30.29,9.51,30.29-26.28,22-38.06,27.07l.73,2.43s43.17-13.16,50.7-22.89C807.89,255.47,790.86,202.14,780.71,204.35Z"/>
        </g>
        <g>
          <path class="cls-15" d="M780.57,201.22s-9.69,12.47-4.63,24.84,14.42,28.16,14.42,28.16l14.07,8.25s3.13-5.59-.22-18.22S793.42,205.6,780.57,201.22Z"/>
          <path class="cls-13" d="M773.92,219.24h0a.44.44,0,0,0-.28.42,20.9,20.9,0,0,0,1.48,6.73A240.46,240.46,0,0,0,787.49,251c.06-.47.13-.95.2-1.44a233.21,233.21,0,0,1-11.75-23.51,19.45,19.45,0,0,1-1.43-6.43A.44.44,0,0,0,773.92,219.24Z"/>
          <path class="cls-13" d="M789.26,255.14s-2.22-3.57-2.54-5.5c6.86-1.14,18.2,2.12,21.46,10.43-3.37,3.37-4.68,3.82-4.68,3.82S793.82,255.71,789.26,255.14Z"/>
        </g>
      </g>
    </g>
    <g>
      <g>
        <path class="cls-13" d="M225.89,337s9.4,17.11,48.95,20.31a28.23,28.23,0,0,1-1.06,8.31s-45.44,2.4-49.59-9.85S225.89,337,225.89,337Z"/>
        <g>
          <polygon class="cls-15" points="197.98 399.4 188.34 472.38 190.84 472.38 205.12 399.4 197.98 399.4"/>
          <polygon class="cls-15" points="253.79 399.4 263.43 472.38 260.93 472.38 246.65 399.4 253.79 399.4"/>
          <path class="cls-11" d="M198.72,358.56c0,13.43-6.89,27.27-9.46,22.85-9.3-25.55-12.62-39.39-11.64-66.64C178.34,294.82,198.72,336,198.72,358.56Z"/>
          <path class="cls-15" d="M196.77,401.46a1.11,1.11,0,0,0,.93-.36,2.5,2.5,0,0,0,.46-2.62c-.16-.35-15.62-35-19.52-72.22-.11-1-.78-1.62-1.5-1.38a2.19,2.19,0,0,0-1.13,2.28c4,38,19.71,73.19,19.87,73.55A1.19,1.19,0,0,0,196.77,401.46Z"/>
          <path class="cls-11" d="M252.07,396.11H199.7c-3,0-5.54,1.85-5.54,4.11s2.49,4.11,5.54,4.11h52.37c3.05,0,5.54-1.85,5.54-4.11S255.12,396.11,252.07,396.11Z"/>
        </g>
        <g>
          <g>
            <path class="cls-19" d="M210,278.88l-2.42,15.34s9.59,3,13-2c-.72-4.53-1.72-12.43-1.72-12.43Z"/>
            <path class="cls-18" d="M219.61,285.59c0-.26-.07-.51-.1-.76a17.46,17.46,0,0,1-3.72-1.43,21.29,21.29,0,0,1-5.78-4.28l0,1a22,22,0,0,0,5.5,3.94A18.14,18.14,0,0,0,219.61,285.59Z"/>
          </g>
          <g>
            <path class="cls-16" d="M210,278.12c-2.91-1.33-4.25-4.76-4.57-7.95s.12-6.44-.55-9.57a8.59,8.59,0,0,1-.4-3.46,5.9,5.9,0,0,1,2.81-3.36,27.79,27.79,0,0,1,22.63-3.6l-1.29,2a3.6,3.6,0,0,1,1.52,7c-1.25.41-2.78.18-3.75,1.08s-.86,2.1-1.15,3.23a6.07,6.07,0,0,1-4.63,4.33c-.88.16-1.79.13-2.67.28a3.22,3.22,0,0,0-2.26,1.29,1.63,1.63,0,0,0,.53,2.3Z"/>
            <path class="cls-19" d="M225.54,256s6.35,16.6,1,27.65c-1,2-5.72,2.41-10.78-.2a18.78,18.78,0,0,1-7.13-5.95c4.32-2.58,7.57-9.3,6.14-20.73C214.8,256.72,221.76,254.3,225.54,256Z"/>
            <path class="cls-19" d="M214.7,269.57c-.25-2.21-5.51-3.9-5.36-.88.13,2.61,3.41,4.33,5.46,4.29Z"/>
          </g>
        </g>
        <g>
          <path class="cls-15" d="M235.35,364.38c0,.12,0,.23,0,.35,0,.29,0,.58,0,.88a1.61,1.61,0,0,1,0,.31c-.09,14.08-3.13,30.37-3.13,30.37-.33.47-.67.92-1,1.36C219.47,412.07,194,409.1,194,409.1l4.71-50.55c.46-8.75-7.1-35.95-1.62-56.81.75-2.88,3.27-6.18,5.59-8.77a60.77,60.77,0,0,1,4.46-4.45,26.93,26.93,0,0,1,1.46-3,12.72,12.72,0,0,0,5.76,2.32h0c1.51.28,2.16,1.68,4.3,1.54.82,3,7.46,14,10,28.9,1.58,9.25,3.59,19,5,29.54.05.39.1.78.16,1.17s.09.68.13,1v0c0,.21.06.42.08.64h0s0,.06,0,.09c.19,1.59.35,3.13.57,4.59,0,.12,0,.24,0,.36q.15.87.24,1.8A63.56,63.56,0,0,1,235.35,364.38Z"/>
          <path class="cls-13" d="M211.56,289.5a30.79,30.79,0,0,1,6.73,10.35,39.35,39.35,0,0,1,2.34,7.8,29.32,29.32,0,0,1,.54,3.84c.06,1-.11,1,.83.92.52,0,1-.07,1.56-.06.25,0,.5.27.34.52a4.38,4.38,0,0,1-2.26,1.91,322.06,322.06,0,0,1,12.46,35.94l.63,5a321.73,321.73,0,0,0-13.91-41.08.36.36,0,0,1,.23-.45,3.84,3.84,0,0,0,1.81-1.15c-.64,0-1.28.1-1.93.08a.36.36,0,0,1-.38-.34c-.53-8.13-3.47-17-9.47-22.78C210.75,289.72,211.23,289.18,211.56,289.5Z"/>
        </g>
        <g>
          <g>
            <g>
              <path class="cls-13" d="M278.52,451.39s.91,16.68.54,17.05-4-1.61-4-1.61l-1-14.76Z"/>
              <path class="cls-13" d="M287.94,472.24c0,.25-12.35.51-12.86,0-.36-.36-.22-2.87-.1-4.34,0-.63.1-1.07.1-1.07a3.29,3.29,0,0,1,2.57,0,17.43,17.43,0,0,1,7.81,3.14A9.59,9.59,0,0,1,287.94,472.24Z"/>
              <path class="cls-15" d="M275,467.9h3l.75-1.3s9.55,3.31,9.73,3.68a9.27,9.27,0,0,1,0,2.25H274.85S274,469.44,275,467.9Z"/>
              <path class="cls-13" d="M288.57,471.5c0,.54-.07,1-.07,1H274.85s-.11-.42-.2-1Z"/>
            </g>
            <path class="cls-15" d="M290.33,383.31c-.28-12.62-5.17-14-5.17-14-4.66-3-63.64-5.59-63.64-5.59-20.5-2.09-25.58,19.48-19.31,30.57,2.91,5.15,47.1,3.7,64.93.81,1,16.52,3.66,49.35,5.86,68.92,6.73,1.4,7.57,0,7.57,0S290.61,395.93,290.33,383.31Z"/>
            <path class="cls-13" d="M236.19,364.43v.31c0,.28,0,.57,0,.86a1.93,1.93,0,0,1,0,.34v0c0,.28,0,.56,0,.84A205,205,0,0,1,233,396.44l0,.18-.1.15c-.2.28-.41.57-.64.86l-1.08,0c.36-.44.7-.89,1-1.36a205.22,205.22,0,0,0,3.12-29.53c0-.28,0-.56,0-.84h0a1.61,1.61,0,0,0,0-.31c0-.3,0-.59,0-.88,0-.12,0-.23,0-.35Z"/>
          </g>
          <g>
            <g>
              <path class="cls-13" d="M307.83,418.92s7.94,13.16,7.8,13.66-4.25.6-4.25.6l-7.09-11.43Z"/>
              <path class="cls-13" d="M325.22,431.44c.13.22-10.44,6.61-11.14,6.42-.49-.13-1.62-2.37-2.25-3.71-.27-.56-.45-1-.45-1s.41-.83,2.23-1.28a17.4,17.4,0,0,1,8.33-1.19A9.53,9.53,0,0,1,325.22,431.44Z"/>
              <path class="cls-15" d="M311.83,434.15l2.63-1.51v-1.5s9.91-1.91,10.26-1.68a9.27,9.27,0,0,1,1.12,2L314,438.24S311.77,436,311.83,434.15Z"/>
              <path class="cls-13" d="M325.4,430.49c.25.47.45.93.45.93L314,438.24a9.31,9.31,0,0,1-.69-.8Z"/>
            </g>
            <path class="cls-15" d="M315.07,426.71c-4.27,6.51-9,4.27-9,4.27s-8.22-11.41-17.67-24.76c-10.66-15.07-22.88-32.62-26.65-39.13l0-.07c-9-.18-18.29-.64-24.47-1l-1.86-.11c-3.35-.2-5.41-.34-5.41-.34l-4.68-1.73-13.39-4.93s3.39-.25,8.67-.57l1.25-.07c3.75-.23,8.3-.49,13.18-.72,14.49-.71,31.88-1.23,39.87-.26l1,.14a11.08,11.08,0,0,1,2.54.63C286.1,361.44,312.33,419.65,315.07,426.71Z"/>
          </g>
          <path class="cls-13" d="M288.22,406c-.06.4-.11.81-.16,1.22-10.59-14.95-22.85-32.55-26.87-39.39-9.31-.2-18.93-.69-25-1l-.84-.05c0-.28,0-.56,0-.84l.84.05c6.15.36,16,.85,25.48,1C265.38,373.45,277.55,391,288.22,406Z"/>
        </g>
        <path class="cls-6" d="M234,350.05c-8.69-47.65-19.63-62.18-19.63-62.18h0a21.56,21.56,0,0,0,5.46.27c.82,3,6.87,14.33,9.42,29.24C231,327.28,232.56,338.68,234,350.05Z"/>
        <path class="cls-20" d="M208.37,282.34s5.46,4.7,11.47,5.8l-.74,5.25s-8.8.18-13.53-5C206.18,287,208.37,282.34,208.37,282.34Z"/>
        <g>
          <path class="cls-14" d="M272.31,358.49s5.87-3,7.48-2.48a6.68,6.68,0,0,1,3.74,7.72c-3.66.73-8.77-.84-8.77-.84Z"/>
          <path class="cls-13" d="M276.32,358.57a5.42,5.42,0,0,0-.44-1.13l-1-.14c1,1.49,1.6,4.15-1.06,8.31-3.78.2-7.39.41-10.85.58-3.68.18-7.19.31-10.55.31a68.57,68.57,0,0,1-17-1.77c-.54-.13-1.07-.28-1.6-.44a37.7,37.7,0,0,1-8.33-3.57,37.17,37.17,0,0,1-3.63-2.44c-8.73-6.69-16.22-18.29-19.72-30.74-8.78-31.32.67-31.6,1-31.6h0a7.43,7.43,0,0,1,3.16-.81c10,0,10.21,28.46,21.78,47.67a20.33,20.33,0,0,0,4.55,5.21c.32.27.64.52,1,.77l.34.24c-.06-.39-.11-.78-.16-1.17l-.59-.47c-.34-.28-.68-.58-1-.89a18.69,18.69,0,0,1-3.37-4.12c-5-8.35-7.88-18.41-10.39-27.29-3.28-11.61-5.87-20.79-12.12-20.79a8.22,8.22,0,0,0-3.37.82,4.62,4.62,0,0,0-3.19,2c-2.34,3.08-4,10.9,1.59,30.67,3.45,12.29,10.75,23.73,19.27,30.58a35.31,35.31,0,0,0,4.46,3.09,38.89,38.89,0,0,0,5.59,2.69,43.45,43.45,0,0,0,4.76,1.48q.92.22,1.86.42a75.77,75.77,0,0,0,15.17,1.31c3,0,6.1-.1,9.33-.25q3.54-.16,7.26-.38h.2l4.65-.25.43,0,.24-.37C276.28,363.27,276.89,360.75,276.32,358.57Z"/>
          <path class="cls-20" d="M269,357.46c.72-.49,4.59-.86,6.81-1.45a8.12,8.12,0,0,1,1.41,7.91,40.44,40.44,0,0,1-6.89.41C268.39,364.07,269,357.46,269,357.46Z"/>
          <path class="cls-15" d="M203.08,295.94s-10-.28-1,31.6c4,14.15,13.1,27.2,23.34,33.18,12.83,7.49,28.34,5.93,48.36,4.89,4.58-7.15-.54-9.85-.54-9.85s-34.75,4.39-45.21-13C215.34,321.76,216.32,289.6,203.08,295.94Z"/>
        </g>
      </g>
      <g>
        <g>
          <path class="cls-10" d="M131.08,306.5s-11.23-3-11.66-13.33c-.37-8.93,2-15.74,13.92-18.44s24.3,6.72,20.88,17.94c-2.79,9.15-6.86,11.66-6.86,11.66Z"/>
          <g>
            <path class="cls-10" d="M124.32,280.17c-4-3.51-10.78-2.71-14.43,1.19s-4.19,10.1-2,15c1.74,3.85,5.07,7.42,4.48,11.6s-5,6.88-6.76,10.79a9.36,9.36,0,1,0,17.66,5.94,6.1,6.1,0,0,0,5.88-3.24,11.55,11.55,0,0,0,1.11-6.94,21.73,21.73,0,0,0-7-13.77Z"/>
            <path class="cls-17" d="M124.91,304.42a20.15,20.15,0,0,0,2.58,1.56c-.3-.52-.62-1-1-1.52-3.17-1.94-6.87-5.43-7.11-11.29-.23-5.51.61-10.21,4.07-13.64a7.09,7.09,0,0,0-.75-.45c-3.86,3.92-4.39,9.14-4.18,14.13A14.16,14.16,0,0,0,124.91,304.42Z"/>
          </g>
          <path class="cls-14" d="M143.92,281.65s6-.36,7.83,10.07c1.12,6.45-.48,15.61-2.53,18.6-1.25,1.81-5.95,2.15-11-.39a24.28,24.28,0,0,1-5.42-3.88s2.12-.26,7.58-8A31.12,31.12,0,0,0,143.92,281.65Z"/>
          <g>
            <path class="cls-14" d="M133.86,306.11,132,326.76s7.23.23,11.22-2.38c-1.1-9.55-1.66-18.27-1.66-18.27Z"/>
            <path class="cls-18" d="M142,311.33a18.56,18.56,0,0,1-3.71-1.4,22.72,22.72,0,0,1-4.47-3l-.09.93a24.29,24.29,0,0,0,4.22,2.78,17.79,17.79,0,0,0,4.12,1.52C142,311.85,142,311.59,142,311.33Z"/>
          </g>
          <path class="cls-14" d="M142.28,298.66c-.12-2.08-6.76-4.35-6.77-1.52,0,2.45,3.23,4.13,5.32,4.13Z"/>
        </g>
        <path class="cls-18" d="M186.49,361.1s3.18-6.36,6.42-6.51a24.11,24.11,0,0,1,6.72.86Z"/>
        <path class="cls-18" d="M159,362.41s13.16,2,23.43,0a35.42,35.42,0,0,1-9.71,5.91c-.33.12-14.62,3.13-14.62,3.13Z"/>
        <g>
          <path class="cls-14" d="M151.17,397.36c-3.89,8.34.8,19.21,16.14,22.35,23.27,4.76,63.59-7.66,62.61-18.72C228.58,385.74,155.06,389,151.17,397.36Z"/>
          <g>
            <g>
              <path class="cls-14" d="M241.14,477.42l.72,12.07c-.52.1-4.08-5.26-4.08-5.26l.22-1.7Z"/>
              <path class="cls-14" d="M235,489.26c.19.82,11.47,8.59,11.6,8.35.05-.08,1-.39.43-1.71a6.52,6.52,0,0,0-1.31-1.81c-1.72-1.84-4.05-7.94-5.2-9.17-1.36-1.65-2.71-.69-2.71-.69l-.33.47c-.09.13-.2.28-.31.46C236.26,486.45,234.83,488.69,235,489.26Z"/>
              <path class="cls-11" d="M235,489.26c.19.82,11.47,8.59,11.6,8.35.05-.08,1-.39.43-1.71a14,14,0,0,1-6.46-5.5c-1.12-1.8-1.85-3.83-3-5.59a1,1,0,0,0-.08-.11c-.09.13-.2.28-.31.46C236.26,486.45,234.83,488.69,235,489.26Z"/>
            </g>
            <path class="cls-14" d="M220.85,395.69s8.67-2,12.32,11.14c2.6,9.4,8.54,80.09,8.54,80.09l-3.93-2.69S219.1,434,216.22,417.34,220.85,395.69,220.85,395.69Z"/>
          </g>
          <g>
            <g>
              <g>
                <path class="cls-14" d="M214.63,474.66l-3.44,10.83c-.53-.1-2-6.09-2-6.09L210,478Z"/>
                <path class="cls-14" d="M204.84,482.79c-.1.79,7.76,11.69,8,11.53s1.09,0,1-1.35a6.43,6.43,0,0,0-.6-2.06c-1-2.24-1.07-8.42-1.72-9.92a2.05,2.05,0,0,0-2.29-1.59l-.47.29-.45.29C207,480.8,204.9,482.24,204.84,482.79Z"/>
                <path class="cls-11" d="M204.84,482.79c-.1.79,7.76,11.69,8,11.53s1.09,0,1-1.35a13.68,13.68,0,0,1-4.14-7.16c-.43-2-.43-4-.91-6l0-.13-.45.29C207,480.8,204.9,482.24,204.84,482.79Z"/>
              </g>
              <path class="cls-14" d="M223.6,395.68s8.77,1.38,7.68,14.23c-.78,9.19-19.36,73.28-19.36,73.28l-2.74-3.79s-.28-50.78,2.72-66.43S223.6,395.68,223.6,395.68Z"/>
            </g>
            <path class="cls-18" d="M216.22,417.34c-.24-1.39-.4-2.68-.51-3.9-1.32.55-2.71,1.08-4.15,1.58-.05.32-.09.64-.14,1,1.21-.42,2.4-.86,3.55-1.32.1.94.23,1.87.4,2.81,1,6,4,16.16,7.51,26.8l.42-1.54C220,432.59,217.2,423,216.22,417.34Z"/>
          </g>
        </g>
        <g>
          <polygon class="cls-15" points="143.8 423.63 133.88 498.68 136.45 498.68 151.14 423.63 143.8 423.63"/>
          <polygon class="cls-15" points="201.19 423.63 211.09 498.68 208.53 498.68 193.84 423.63 201.19 423.63"/>
          <path class="cls-10" d="M144.56,381.63c0,13.82-7.09,28-9.73,23.5-9.56-26.28-13-40.5-12-68.52C123.6,316.09,144.55,358.41,144.56,381.63Z"/>
          <path class="cls-15" d="M142.55,425.75a1.17,1.17,0,0,0,1-.37,2.6,2.6,0,0,0,.47-2.7c-.16-.36-16.07-36-20.07-74.26-.11-1-.8-1.67-1.55-1.41a2.23,2.23,0,0,0-1.15,2.33c4.08,39,20.26,75.27,20.43,75.63A1.21,1.21,0,0,0,142.55,425.75Z"/>
          <path class="cls-10" d="M199.42,420.24H145.56c-3.13,0-5.7,1.9-5.7,4.23s2.57,4.23,5.7,4.23h53.86c3.13,0,5.7-1.91,5.7-4.23S202.55,420.24,199.42,420.24Z"/>
        </g>
        <g>
          <path class="cls-9" d="M132.51,315.44s-6.09,12.55-3,22.78,11.16,21.64,12,30.35.36,25.49,1.69,31.65c15.19.85,22.68-29.69,22.68-29.69s.66,2.11-3.58-8.89a42.46,42.46,0,0,1-3.19-12.74s4.51-7.84-3.72-15.4c-4.09-3.76-12.71-12.4-12.71-12.4S136,319.58,132.51,315.44Z"/>
          <path class="cls-20" d="M133,312.73a34.8,34.8,0,0,0,10.78,6.17l3.77,7s-11-1.12-16.69-7.25C131.89,313.85,133,312.73,133,312.73Z"/>
        </g>
        <path class="cls-13" d="M142,376.78s-2.7,13.42.15,24.68c.92,3.64,2.4,9,6.84,13.05,9.25,8.55,25.85,7.79,44.11,5.73,8.5-10.75,9.41-29.91,9.41-29.91-5.95,0-22.68-3.05-26.43-6.28-6.33-5.45-10.17-13.52-10.17-13.52C158.14,372.86,142,376.78,142,376.78Z"/>
        <g>
          <path class="cls-14" d="M182.33,367.72s9.37-2.25,10.59-3.3,2.13-7.49,1.86-7.31-11.69,5.3-11.69,5.3l-2.17,4.49Z"/>
          <g>
            <path class="cls-11" d="M202.16,356.4a2.75,2.75,0,1,1,2.74-2.75A2.75,2.75,0,0,1,202.16,356.4Zm0-4.6a1.86,1.86,0,1,0,1.85,1.85A1.85,1.85,0,0,0,202.16,351.8Z"/>
            <rect class="cls-10" x="167.4" y="360.25" width="36.22" height="1.85" transform="translate(-130.35 106.04) rotate(-23.88)"/>
          </g>
          <path class="cls-21" d="M145.4,338.47c-2.67-10.12-7.41-11.63-10-11.63a6,6,0,0,0-5.2,2.77l-1.57,2.51c0,.51,0,1,.06,1.54l2.26-3.62a5.14,5.14,0,0,1,4.45-2.34c3.08,0,6.93,2.49,9.17,11,1.83,6.95,1.87,31.84,1.87,31.84a28.68,28.68,0,0,0-4.66,1.67c0,.31,0,.62,0,.94a28.3,28.3,0,0,1,4.81-1.77l.67-.16v-.68C147.29,369.51,147.23,345.45,145.4,338.47Z"/>
          <path class="cls-14" d="M131.39,333.89a210.83,210.83,0,0,0,1.2,33c2.71,22.49,10.49,16.87,19.36,15.57s31.17-15.1,31.17-15.1l.8-3.8s-34.58,9.29-37.49,7-1.76-24.15-5.62-37.91C139.57,328.23,131.7,326.2,131.39,333.89Z"/>
          <path class="cls-9" d="M130.94,330l-2.32,3.72s.35,27.6,6.35,44c2.79-5.15,11.46-7.23,11.46-7.23s0-24.89-1.87-31.84C140.81,324.42,132.5,327.09,130.94,330Z"/>
          <path class="cls-14" d="M180.12,365a5.2,5.2,0,0,1,2.27-4.12c2.32-1.59,5.45-4.47,5.94-3.61s-1.41,5.82-3.43,7.17a15.75,15.75,0,0,1-4.05,1.89Z"/>
        </g>
      </g>
      <g>
        <g>
          <polygon class="cls-15" points="316.74 431.96 306.83 507 309.4 507 324.09 431.96 316.74 431.96"/>
          <polygon class="cls-15" points="374.13 431.96 384.04 507 381.48 507 366.79 431.96 374.13 431.96"/>
          <path class="cls-16" d="M317.51,390c0,13.82-7.09,28.05-9.74,23.5-9.55-26.27-13-40.5-12-68.52C296.55,324.42,317.5,366.73,317.51,390Z"/>
          <path class="cls-15" d="M315.5,434.07a1.14,1.14,0,0,0,1-.37,2.59,2.59,0,0,0,.47-2.7c-.16-.35-16.07-36-20.07-74.26-.11-1-.81-1.66-1.55-1.41a2.23,2.23,0,0,0-1.15,2.34c4.08,39,20.26,75.26,20.43,75.63A1.19,1.19,0,0,0,315.5,434.07Z"/>
          <path class="cls-16" d="M372.37,428.57H318.51c-3.13,0-5.7,1.9-5.7,4.22s2.57,4.23,5.7,4.23h53.86c3.13,0,5.69-1.9,5.69-4.23S375.5,428.57,372.37,428.57Z"/>
        </g>
        <g>
          <g>
            <g>
              <path class="cls-13" d="M429.7,452s8.16,13.53,8,14.05-4.37.61-4.37.61l-7.29-11.75Z"/>
              <path class="cls-13" d="M447.59,464.9c.13.22-10.74,6.8-11.46,6.6-.51-.13-1.67-2.44-2.32-3.81-.28-.58-.46-1-.46-1s.42-.85,2.29-1.32a17.82,17.82,0,0,1,8.57-1.22A9.93,9.93,0,0,1,447.59,464.9Z"/>
              <path class="cls-15" d="M433.81,467.69l2.71-1.56v-1.54s10.2-2,10.55-1.73a9.25,9.25,0,0,1,1.16,2l-12.15,7S433.76,469.55,433.81,467.69Z"/>
              <path class="cls-13" d="M447.77,463.92c.25.49.46.95.46.95l-12.15,7s-.32-.32-.72-.82Z"/>
            </g>
            <path class="cls-9" d="M331,390.32s60.54-4.32,68.44-.86,34.87,63.31,37.68,70.58c-4.38,6.69-9.29,4.38-9.29,4.38s-38.4-53.24-45.61-65.76c-15.89-.33-32.64-1.48-32.64-1.48Z"/>
          </g>
          <g>
            <g>
              <path class="cls-13" d="M399.57,485.42s.93,17.15.55,17.52-4.1-1.65-4.1-1.65L395,486.12Z"/>
              <path class="cls-13" d="M409.25,506.85c0,.26-12.7.53-13.23,0-.37-.37-.22-3-.09-4.46.05-.65.09-1.1.09-1.1a3.38,3.38,0,0,1,2.65,0,17.87,17.87,0,0,1,8,3.23A10,10,0,0,1,409.25,506.85Z"/>
              <path class="cls-15" d="M395.93,502.39h3.12l.77-1.33s9.82,3.4,10,3.77a9.42,9.42,0,0,1,0,2.33h-14S394.94,504,395.93,502.39Z"/>
              <path class="cls-13" d="M409.9,506.1c0,.54-.08,1.06-.08,1.06h-14a9.82,9.82,0,0,1-.21-1.06Z"/>
            </g>
            <path class="cls-9" d="M411.71,415.41c-.29-13-5.32-14.44-5.32-14.44-4.79-3.06-65.44-5.74-65.44-5.74-21.08-2.16-26.31,20-19.86,31.43,3,5.3,48.44,3.8,66.76.83,1,17,3.77,50.74,6,70.87,6.92,1.44,7.79,0,7.79,0S412,428.38,411.71,415.41Z"/>
            <path class="cls-21" d="M409.53,438.75c-11-15.49-23.48-33.48-27.29-40.09-15.89-.33-32.64-1.48-32.64-1.48l-4.81-1.77-2.86-.14L349.3,398l.12.05h.12c.17,0,16.61,1.14,32.2,1.47,4.14,7,16.74,25.13,27.63,40.51C409.42,439.59,409.48,439.17,409.53,438.75Z"/>
          </g>
        </g>
        <g>
          <g>
            <path class="cls-19" d="M307,309.32l-.36,19.14s9.85-1.15,13.1-6.42a113.42,113.42,0,0,0-3.64-12.14Z"/>
            <path class="cls-18" d="M307,309.58a22,22,0,0,0,6.11,4.15,17.54,17.54,0,0,0,4.78,1.47l.24.78a18.11,18.11,0,0,1-5.33-1.58,23,23,0,0,1-5.81-3.82Z"/>
          </g>
          <g>
            <path class="cls-15" d="M321.4,285.94c1.43-1.11,2.42-7.2-3.73-8.59-2.8-.64-7.26,1.86-10.13,1.92-2.24.05-4.65.16-6.39,1.57s-2.08,4.63-.1,5.66c-1.3-1.23-3.66-.14-4.26,1.55s0,3.55.65,5.22c1.69,4.21,4.79,11.5,8.05,14.64a11.16,11.16,0,0,0,6.52,3.61Z"/>
            <path class="cls-19" d="M321.93,285.11s7.23,16.8,2.22,28.37c-.93,2.14-5.77,2.72-11.09.25a19.34,19.34,0,0,1-7.57-5.82c4.34-2.83,5.56-9.24,3.61-20.92C309.1,287,318,283.58,321.93,285.11Z"/>
            <path class="cls-19" d="M311.37,299.56c-.35-2.26-5.82-3.77-5.55-.67.25,2.67,3.69,4.3,5.8,4.18Z"/>
          </g>
        </g>
        <g>
          <g>
            <path class="cls-9" d="M345,379.61v0c-3.56-11.23-7.29-22.46-10.83-32.17-5.33-14.61-13.54-24.95-14.92-27.84a22.25,22.25,0,0,1-5.57.73h0a13,13,0,0,1-6.25-1.28,29.41,29.41,0,0,0-.93,3.28h0s-7.26,9.12-7.73,15.22c-1.69,22.11,8.18,46.75,9.32,55.7l7.36,53.48s27.91-1.8,36.28-20c0,0,.11-27-4.94-41.46C346.19,383.47,345.65,381.57,345,379.61Z"/>
            <path class="cls-21" d="M311.14,322.49a31.31,31.31,0,0,1,8.72,9.22,41,41,0,0,1,3.81,7.46,31.12,31.12,0,0,1,1.25,3.79c.24,1,.07,1,1,.78.53-.13,1-.27,1.57-.35.25,0,.55.18.44.46A4.52,4.52,0,0,1,326,346.2a329.46,329.46,0,0,1,19.23,34.06q.79,2.49,1.57,5a330.85,330.85,0,0,0-21.64-39,.37.37,0,0,1,.14-.51,3.94,3.94,0,0,0,1.62-1.48c-.64.14-1.28.33-1.93.43a.38.38,0,0,1-.45-.27c-2-8.13-6.64-16.56-13.78-21.3C310.36,322.86,310.75,322.22,311.14,322.49Z"/>
          </g>
          <path class="cls-21" d="M349.79,430.17l1,0a24.42,24.42,0,0,0,1.7-3.09l.08-.17v-.18c0-1,0-22.69-3.71-37.48l-.88,0c3.82,14.92,3.73,37.42,3.73,37.42A25.42,25.42,0,0,1,349.79,430.17Z"/>
          <path class="cls-21" d="M318,403.71l2.16,22a.46.46,0,0,0,.57.43,103.26,103.26,0,0,0,17.84-5,.45.45,0,0,0,.33-.42q-1.14-10.1-2.29-20.18c-.06-.56-1-.57-.89,0,.35,3.11.71,6.21,1.06,9.31a91.5,91.5,0,0,1,1,9.15c0,1.19,0,1.25-1.06,1.88a10.68,10.68,0,0,1-2,.7c-1.47.51-2.94,1-4.43,1.4a100.64,100.64,0,0,1-9.85,2.33l.56.43-2.16-22c-.05-.56-.94-.57-.89,0Z"/>
        </g>
        <g>
          <path class="cls-20" d="M345,379.59c-17.58-46.6-31.33-59.28-31.33-59.28h0a22.27,22.27,0,0,0,5.58-.73c1.38,2.89,9.59,13.23,14.92,27.84C337.73,357.13,341.46,368.36,345,379.59Z"/>
          <g>
            <path class="cls-15" d="M319.27,319.58s4,2,3,4.78a12.16,12.16,0,0,1-5.2-2.51Z"/>
            <path class="cls-15" d="M322.25,322.54s6.31,8.66,9.15,15.93,7.77,23.1,9.55,28.54c-5.95-14.39-14.49-31-14.49-31l-5.37-13.47Z"/>
          </g>
        </g>
        <path class="cls-2" d="M306.6,315.83s6.39,3.74,12.67,3.75l.22,5.44s-8.87,1.81-14.62-2.58C305.23,320.9,306.6,315.83,306.6,315.83Z"/>
        <path class="cls-21" d="M366.79,391.27c-3.94,1.39-10.81,3.37-18.6,5.39l1.41.52h0c7.33-1.91,13.74-3.77,17.48-5.09l.58-.21v-.61a24.52,24.52,0,0,0-.16-2.87l-.87,0A23.48,23.48,0,0,1,366.79,391.27Z"/>
        <g>
          <g>
            <path class="cls-19" d="M367.09,387.1a18,18,0,0,1,4.35.87c1.06.56,5.65-.52,6.37-1.05s3.05-3.55,3.07-4.27-.21-3.26-.21-3.26-7.87,5.14-9.37,5.28-5.44.42-5.44.42Z"/>
            <path class="cls-19" d="M370.14,383.53s-6.21.69-10.28,4.09c.79,2.8,2.55,2.7,2.55,2.7s5.25-2.64,9.78-2.17Z"/>
            <path class="cls-18" d="M380,379.81a4.52,4.52,0,0,1-1.5,2.36,26.61,26.61,0,0,1-5,3.33,3.06,3.06,0,0,1-1.29.3,12.17,12.17,0,0,1-1.46,0c-.36-.1-.52.28-.1.35a12.15,12.15,0,0,0,1.58,0,3.25,3.25,0,0,0,1.45-.34l.81-.47a22,22,0,0,0,4.27-2.91,4.74,4.74,0,0,0,1.64-2.87Z"/>
            <path class="cls-15" d="M387.48,375.38h0a.53.53,0,0,0-.72-.21l-14.45,8a.54.54,0,0,0-.21.73.53.53,0,0,0,.72.21l14.45-8A.53.53,0,0,0,387.48,375.38Z"/>
            <path class="cls-19" d="M365.15,384.74a6.64,6.64,0,0,1,4.62-2.68c3-.28,6-.31,7.33-1.63S380,378.52,380,379s.1,1.61-1.52,3.16a26.61,26.61,0,0,1-5,3.33C371.79,386.51,365.15,384.74,365.15,384.74Z"/>
          </g>
          <path class="cls-9" d="M306.6,328.46,301,331s-3.9,7.95-4.41,30.08,2,39.71,7.53,43.34c4,2.66,49.61-8.49,62.72-13.12,0-9.81-4.72-8.4-4.72-8.4s-40.73,3.86-44.56,2.07C324.83,355.7,317.06,327.9,306.6,328.46Z"/>
          <g>
            <path class="cls-21" d="M298.71,338.82A35.81,35.81,0,0,1,301,331l5.65-2.51h.31c10.31,0,17.84,27.54,10.6,56.49.72.34,2.75.47,5.58.47,5.91,0,15.3-.6,23.38-1.22l-.27-.85c-8,.62-17.3,1.21-23.11,1.21a29.54,29.54,0,0,1-4.54-.23c5.59-23.17,1.81-44.36-4.67-52.65-2.08-2.67-4.49-4.08-7-4.08h-.51l-.15.06-4.65,2.07a21.16,21.16,0,0,0-2.82,7.79C298.75,338,298.73,338.39,298.71,338.82Z"/>
            <path class="cls-21" d="M349.47,396.33c-13.81,3.61-31,7.44-39.8,8.29l.12.85c8.91-.87,26-4.68,39.81-8.29C349.56,396.9,349.51,396.61,349.47,396.33Z"/>
          </g>
        </g>
      </g>
    </g>
  </g>
</svg>
