<svg id="Layer_1" data-name="Layer 1" xmlns="http://www.w3.org/2000/svg" xmlns:xlink="http://www.w3.org/1999/xlink" width="100" height="100" viewBox="0 0 100 100">
  <defs>
    <style>
      .cls-1 {
        fill: none;
      }

      .cls-2 {
        fill: #bbabf5;
      }

      .cls-3 {
        clip-path: url(#clip-path);
      }

      .cls-4 {
        fill: #6c58b8;
      }

      .cls-5 {
        fill: #fd8f25;
      }

      .cls-6 {
        fill: #12263f;
      }
    </style>
    <clipPath id="clip-path">
      <rect class="cls-1" x="9.09" y="13.42" width="81.82" height="65.56"/>
    </clipPath>
  </defs>
  <circle class="cls-2" cx="50" cy="50" r="50"/>
  <g class="cls-3">
    <g id="Grupo_17443" data-name="Grupo 17443">
      <path id="Trazado_35606" data-name="Trazado 35606" class="cls-4" d="M90.91,74.37C90.91,76.91,72.59,79,50,79S9.09,76.91,9.09,74.37,27.41,69.76,50,69.76s40.91,2.06,40.91,4.61"/>
      <path id="Trazado_35607" data-name="Trazado 35607" class="cls-5" d="M76.24,55v5.81c0,2.26-5.79,4.09-12.93,4.09s-12.93-1.83-12.93-4.09V55"/>
      <path id="Trazado_35608" data-name="Trazado 35608" class="cls-6" d="M63.31,65.62A32.13,32.13,0,0,1,54,64.39c-2.8-.89-4.28-2.12-4.28-3.57V55h1.41v5.81c0,1.41,4.65,3.38,12.22,3.38s12.22-2,12.22-3.38V55h1.41v5.81c0,1.45-1.48,2.68-4.28,3.57a32.13,32.13,0,0,1-9.35,1.23"/>
      <path id="Trazado_35609" data-name="Trazado 35609" class="cls-5" d="M50.38,55c0,2.09,5.79,3.78,12.93,3.78S76.24,57.13,76.24,55s-5.79-3.79-12.93-3.79S50.38,53,50.38,55"/>
      <path id="Trazado_35610" data-name="Trazado 35610" class="cls-6" d="M63.31,59.5C56.55,59.5,49.7,58,49.7,55s6.85-4.47,13.61-4.47S76.92,52.1,76.92,55,70.07,59.5,63.31,59.5m0-7.57c-7.48,0-12.25,1.84-12.25,3.1s4.78,3.11,12.25,3.11S75.56,56.3,75.56,55s-4.78-3.1-12.25-3.1"/>
      <path id="Trazado_35611" data-name="Trazado 35611" class="cls-5" d="M73.37,47.07v5.19c0,2-5.17,3.65-11.53,3.65s-11.53-1.64-11.53-3.65V47.07"/>
      <path id="Trazado_35612" data-name="Trazado 35612" class="cls-6" d="M61.84,56.54a28.44,28.44,0,0,1-8.35-1.1c-2.49-.79-3.82-1.89-3.82-3.18V47.07h1.27v5.19c0,1.26,4.14,3,10.9,3s10.89-1.76,10.89-3V47.07H74v5.19c0,1.29-1.32,2.39-3.82,3.18a28.33,28.33,0,0,1-8.34,1.1"/>
      <path id="Trazado_35613" data-name="Trazado 35613" class="cls-5" d="M50.31,47.1c0,1.87,5.16,3.38,11.53,3.38S73.37,49,73.37,47.1s-5.17-3.37-11.53-3.37S50.31,45.24,50.31,47.1"/>
      <path id="Trazado_35614" data-name="Trazado 35614" class="cls-6" d="M61.84,51.08c-6,0-12.14-1.36-12.14-4s6.11-4,12.14-4S74,44.49,74,47.1s-6.1,4-12.13,4m0-6.75c-6.67,0-10.93,1.64-10.93,2.77s4.26,2.77,10.93,2.77,10.92-1.64,10.92-2.77-4.26-2.77-10.92-2.77"/>
      <path id="Trazado_35615" data-name="Trazado 35615" class="cls-5" d="M48.39,53.82V59.2c0,2.1-5.37,3.8-12,3.8s-12-1.7-12-3.8V53.82"/>
      <path id="Trazado_35616" data-name="Trazado 35616" class="cls-6" d="M36.41,63.65a29.56,29.56,0,0,1-8.67-1.14c-2.59-.82-4-2-4-3.3V53.82h1.31V59.2c0,1.31,4.31,3.14,11.32,3.14s11.32-1.83,11.32-3.14V53.82H49V59.2c0,1.34-1.37,2.49-4,3.31a29.9,29.9,0,0,1-8.67,1.14"/>
      <path id="Trazado_35617" data-name="Trazado 35617" class="cls-5" d="M24.43,53.85c0,1.94,5.37,3.51,12,3.51s12-1.57,12-3.51-5.37-3.51-12-3.51-12,1.57-12,3.51"/>
      <path id="Trazado_35618" data-name="Trazado 35618" class="cls-6" d="M36.41,58c-6.26,0-12.61-1.42-12.61-4.14s6.35-4.14,12.61-4.14S49,51.14,49,53.85,42.68,58,36.41,58m0-7c-6.93,0-11.35,1.7-11.35,2.87s4.42,2.88,11.35,2.88S47.76,55,47.76,53.85,43.34,51,36.41,51"/>
      <path id="Trazado_35619" data-name="Trazado 35619" class="cls-5" d="M61.85,62.72v5.81c0,2.26-5.79,4.09-12.93,4.09S36,70.79,36,68.53V62.72"/>
      <path id="Trazado_35620" data-name="Trazado 35620" class="cls-6" d="M48.92,73.33a32.47,32.47,0,0,1-9.35-1.23c-2.8-.89-4.28-2.13-4.28-3.57V62.72H36.7v5.81c0,1.41,4.65,3.38,12.22,3.38s12.22-2,12.22-3.38V62.72h1.41v5.81c0,1.44-1.48,2.68-4.28,3.57a32.47,32.47,0,0,1-9.35,1.23"/>
      <path id="Trazado_35621" data-name="Trazado 35621" class="cls-5" d="M36,62.75c0,2.09,5.79,3.78,12.93,3.78s12.93-1.69,12.93-3.78S56.06,59,48.92,59,36,60.66,36,62.75"/>
      <path id="Trazado_35622" data-name="Trazado 35622" class="cls-6" d="M48.92,67.21c-6.76,0-13.61-1.53-13.61-4.46s6.85-4.47,13.61-4.47,13.61,1.54,13.61,4.47-6.85,4.46-13.61,4.46m0-7.57c-7.48,0-12.25,1.84-12.25,3.11s4.78,3.1,12.25,3.1S61.17,64,61.17,62.75s-4.78-3.11-12.25-3.11"/>
      <path id="Trazado_35623" data-name="Trazado 35623" class="cls-5" d="M61.92,53.46v5.81c0,2.26-5.78,4.09-12.92,4.09s-12.93-1.83-12.93-4.09V53.46"/>
      <path id="Trazado_35624" data-name="Trazado 35624" class="cls-6" d="M49,64.07a32.19,32.19,0,0,1-9.36-1.23c-2.8-.89-4.28-2.12-4.28-3.57V53.46h1.42v5.81c0,1.41,4.65,3.39,12.22,3.39s12.22-2,12.22-3.39V53.46h1.41v5.81c0,1.45-1.48,2.68-4.28,3.57A32.13,32.13,0,0,1,49,64.07"/>
      <path id="Trazado_35625" data-name="Trazado 35625" class="cls-5" d="M36.07,53.49c0,2.09,5.79,3.78,12.93,3.78s12.93-1.69,12.93-3.78S56.14,49.7,49,49.7s-12.93,1.7-12.93,3.79"/>
      <path id="Trazado_35626" data-name="Trazado 35626" class="cls-6" d="M49,58c-6.76,0-13.61-1.53-13.61-4.46S42.24,49,49,49s13.6,1.54,13.6,4.47S55.76,58,49,58m0-7.57c-7.48,0-12.25,1.84-12.25,3.11s4.77,3.1,12.25,3.1,12.24-1.84,12.24-3.1S56.47,50.38,49,50.38"/>
      <path id="Trazado_35627" data-name="Trazado 35627" class="cls-5" d="M39.77,30.46A11.81,11.81,0,1,1,51.58,42.32,11.81,11.81,0,0,1,39.77,30.46h0"/>
      <path id="Trazado_35628" data-name="Trazado 35628" class="cls-6" d="M49.78,35.08V37.3H48.29V35.14a8.26,8.26,0,0,1-3.87-.94V31.37a6,6,0,0,0,1.77.89,7.9,7.9,0,0,0,2.1.47V29A7.86,7.86,0,0,1,45,27.08a3.84,3.84,0,0,1-.88-2.54,3.69,3.69,0,0,1,1.14-2.74,4.81,4.81,0,0,1,3-1.31v-1.9h1.5v1.86a7.47,7.47,0,0,1,3.22.7v2.76a7.67,7.67,0,0,0-3.22-1.06v3.87A8.41,8.41,0,0,1,53,28.57a3.56,3.56,0,0,1,1,2.52,3.62,3.62,0,0,1-1.08,2.73,5.19,5.19,0,0,1-3.11,1.27m-1.49-9V22.88c-1,.17-1.42.67-1.42,1.49s.47,1.29,1.42,1.76m1.49,3.46v3.1c1-.15,1.47-.64,1.47-1.46s-.49-1.22-1.47-1.64"/>
      <path id="Trazado_35629" data-name="Trazado 35629" class="cls-6" d="M49,42A14.27,14.27,0,1,1,63.29,27.69h0A14.28,14.28,0,0,1,49,42m0-27.08A12.81,12.81,0,1,0,61.83,27.69,12.81,12.81,0,0,0,49,14.88"/>
      <path id="Trazado_35630" data-name="Trazado 35630" class="cls-6" d="M49,39.15A11.46,11.46,0,1,1,60.48,27.69h0A11.47,11.47,0,0,1,49,39.15m0-22.09A10.63,10.63,0,1,0,59.65,27.69,10.62,10.62,0,0,0,49,17.06"/>
      <path id="Trazado_35631" data-name="Trazado 35631" class="cls-5" d="M61.85,44.21V50c0,2.27-5.79,4.1-12.93,4.1S36,52.29,36,50V44.21"/>
      <path id="Trazado_35632" data-name="Trazado 35632" class="cls-6" d="M48.92,54.83a32.14,32.14,0,0,1-9.35-1.24c-2.8-.88-4.28-2.12-4.28-3.57V44.21H36.7V50c0,1.42,4.65,3.39,12.22,3.39s12.22-2,12.22-3.39V44.21h1.41V50c0,1.45-1.48,2.69-4.28,3.58a32.47,32.47,0,0,1-9.35,1.23"/>
      <path id="Trazado_35633" data-name="Trazado 35633" class="cls-5" d="M36,44.25C36,46.33,41.78,48,48.92,48s12.93-1.69,12.93-3.78-5.79-3.79-12.93-3.79S36,42.16,36,44.25"/>
      <path id="Trazado_35634" data-name="Trazado 35634" class="cls-6" d="M48.92,48.71c-6.76,0-13.61-1.53-13.61-4.46s6.85-4.47,13.61-4.47,13.61,1.53,13.61,4.47-6.85,4.46-13.61,4.46m0-7.57c-7.48,0-12.25,1.84-12.25,3.1s4.78,3.11,12.25,3.11,12.25-1.84,12.25-3.11-4.78-3.1-12.25-3.1"/>
      <path id="Trazado_35635" data-name="Trazado 35635" class="cls-5" d="M61.69,35.89v5.6c0,2.17-5.57,3.94-12.44,3.94s-12.44-1.77-12.44-3.94v-5.6"/>
      <path id="Trazado_35636" data-name="Trazado 35636" class="cls-6" d="M49.25,46.11a30.8,30.8,0,0,1-9-1.19c-2.7-.85-4.12-2-4.12-3.43v-5.6h1.36v5.6c0,1.36,4.48,3.26,11.76,3.26S61,42.85,61,41.49v-5.6h1.37v5.6c0,1.39-1.43,2.58-4.12,3.43a30.83,30.83,0,0,1-9,1.19"/>
      <path id="Trazado_35637" data-name="Trazado 35637" class="cls-5" d="M36.81,35.92c0,2,5.57,3.65,12.44,3.65s12.44-1.64,12.44-3.65-5.57-3.64-12.44-3.64-12.44,1.63-12.44,3.64"/>
      <path id="Trazado_35638" data-name="Trazado 35638" class="cls-6" d="M49.25,40.22c-6.51,0-13.1-1.48-13.1-4.29s6.59-4.3,13.1-4.3,13.1,1.48,13.1,4.3-6.59,4.29-13.1,4.29m0-7.28c-7.2,0-11.79,1.77-11.79,3s4.6,3,11.79,3S61,37.14,61,35.92s-4.6-3-11.79-3"/>
      <path id="Trazado_35639" data-name="Trazado 35639" class="cls-5" d="M40.89,64.75v6.12c0,2.39-6.1,4.32-13.63,4.32s-13.63-1.93-13.63-4.32V64.75"/>
      <path id="Trazado_35640" data-name="Trazado 35640" class="cls-6" d="M27.26,75.94a34.26,34.26,0,0,1-9.86-1.3c-2.95-.94-4.51-2.24-4.51-3.77V64.75h1.49v6.12c0,1.49,4.9,3.57,12.88,3.57s12.89-2.08,12.89-3.57V64.75h1.49v6.12c0,1.53-1.56,2.83-4.52,3.77a34.17,34.17,0,0,1-9.86,1.3"/>
      <path id="Trazado_35641" data-name="Trazado 35641" class="cls-5" d="M13.63,64.78c0,2.21,6.11,4,13.63,4s13.63-1.78,13.63-4-6.1-4-13.63-4-13.63,1.78-13.63,4"/>
      <path id="Trazado_35642" data-name="Trazado 35642" class="cls-6" d="M27.26,69.49c-7.13,0-14.34-1.62-14.34-4.71s7.22-4.71,14.34-4.71,14.35,1.62,14.35,4.71-7.22,4.71-14.35,4.71m0-8c-7.88,0-12.91,1.94-12.91,3.27s5,3.27,12.91,3.27,12.91-1.94,12.91-3.27-5-3.27-12.91-3.27"/>
      <path id="Trazado_35643" data-name="Trazado 35643" class="cls-5" d="M85.14,64.6v5.81c0,2.26-5.78,4.1-12.92,4.1s-12.93-1.84-12.93-4.1V64.6"/>
      <path id="Trazado_35644" data-name="Trazado 35644" class="cls-6" d="M72.22,75.21A32.24,32.24,0,0,1,62.86,74c-2.8-.89-4.28-2.12-4.28-3.57V64.6H60v5.81c0,1.42,4.65,3.39,12.22,3.39s12.22-2,12.22-3.39V64.6h1.41v5.81c0,1.45-1.48,2.69-4.28,3.57a32.13,32.13,0,0,1-9.35,1.23"/>
      <path id="Trazado_35645" data-name="Trazado 35645" class="cls-5" d="M59.29,64.63c0,2.09,5.79,3.79,12.93,3.79s12.93-1.7,12.93-3.79-5.79-3.78-12.93-3.78-12.93,1.69-12.93,3.78"/>
      <path id="Trazado_35646" data-name="Trazado 35646" class="cls-6" d="M72.22,69.1c-6.76,0-13.61-1.54-13.61-4.47s6.85-4.46,13.61-4.46,13.61,1.53,13.61,4.46S79,69.1,72.22,69.1m0-7.57c-7.48,0-12.25,1.84-12.25,3.1s4.78,3.1,12.25,3.1,12.24-1.84,12.24-3.1-4.77-3.1-12.24-3.1"/>
    </g>
  </g>
</svg>
