<svg id="Layer_1" data-name="Layer 1" xmlns="http://www.w3.org/2000/svg" xmlns:xlink="http://www.w3.org/1999/xlink" width="100" height="100" viewBox="0 0 100 100">
  <defs>
    <style>
      .cls-1 {
        fill: none;
      }

      .cls-2 {
        fill: #bbabf5;
      }

      .cls-3 {
        clip-path: url(#clip-path);
      }

      .cls-4 {
        fill: #12263f;
      }

      .cls-5 {
        fill: #fd8f25;
      }

      .cls-6 {
        fill: #ef2a66;
      }

      .cls-7 {
        fill: #2cffe2;
      }

      .cls-8 {
        fill: #6c58b8;
      }

      .cls-9 {
        fill: #9182ca;
      }
    </style>
    <clipPath id="clip-path">
      <rect class="cls-1" x="14.61" y="9.81" width="70.78" height="77.38"/>
    </clipPath>
  </defs>
  <circle class="cls-2" cx="50" cy="50" r="50"/>
  <g class="cls-3">
    <g id="Grupo_17430" data-name="Grupo 17430">
      <path id="Trazado_35526" data-name="Trazado 35526" class="cls-4" d="M19.27,64.45a.85.85,0,0,1-.84-.85h0v-27a.84.84,0,0,1,.81-.88.86.86,0,0,1,.88.82v27a.85.85,0,0,1-.85.85h0"/>
      <path id="Trazado_35527" data-name="Trazado 35527" class="cls-4" d="M45.76,83.06a.8.8,0,0,1-.4-.11L24.42,71.36a.86.86,0,0,1-.33-1.15.84.84,0,0,1,1.15-.33h0L46.17,81.47a.85.85,0,0,1-.4,1.59"/>
      <path id="Trazado_35528" data-name="Trazado 35528" class="cls-4" d="M55.41,83A.84.84,0,0,1,55,81.37L77.28,68.86a.84.84,0,0,1,1.15.32.85.85,0,0,1-.33,1.15L55.82,82.84a.84.84,0,0,1-.41.11"/>
      <path id="Trazado_35529" data-name="Trazado 35529" class="cls-4" d="M81.33,62a.85.85,0,0,1-.85-.85V34.7a.85.85,0,0,1,.82-.87.84.84,0,0,1,.87.81v26.5a.84.84,0,0,1-.84.84"/>
      <path id="Trazado_35530" data-name="Trazado 35530" class="cls-4" d="M75.85,27.37a.79.79,0,0,1-.4-.1L54,15.72a.85.85,0,0,1,.8-1.49L76.25,25.78a.84.84,0,0,1-.4,1.59"/>
      <path id="Trazado_35531" data-name="Trazado 35531" class="cls-4" d="M22.54,29.51a.84.84,0,0,1-.41-1.58L43.81,15.81a.84.84,0,1,1,.82,1.47h0L23,29.4a.88.88,0,0,1-.42.11"/>
      <path id="Trazado_35532" data-name="Trazado 35532" class="cls-5" d="M83.57,33.34a3.9,3.9,0,1,1,0-5.51,3.9,3.9,0,0,1,0,5.51h0"/>
      <path id="Trazado_35533" data-name="Trazado 35533" class="cls-4" d="M80.82,35.16a4.58,4.58,0,1,1,3.23-1.34,4.57,4.57,0,0,1-3.23,1.34m0-7.79a3.21,3.21,0,1,0,2.28.94,3.26,3.26,0,0,0-2.28-.94"/>
      <path id="Trazado_35534" data-name="Trazado 35534" class="cls-5" d="M22.67,70.05a3.9,3.9,0,1,1,0-5.51,3.9,3.9,0,0,1,0,5.51h0"/>
      <path id="Trazado_35535" data-name="Trazado 35535" class="cls-4" d="M19.91,71.86a4.58,4.58,0,1,1,3.23-1.34,4.58,4.58,0,0,1-3.23,1.34m0-7.79a3.22,3.22,0,1,0,3.22,3.22A3.26,3.26,0,0,0,22.19,65a3.22,3.22,0,0,0-2.28-.94"/>
      <path id="Trazado_35536" data-name="Trazado 35536" class="cls-6" d="M52.72,85.37a3.9,3.9,0,1,1,0-5.51h0a3.9,3.9,0,0,1,0,5.51h0"/>
      <path id="Trazado_35537" data-name="Trazado 35537" class="cls-4" d="M50,87.18a4.56,4.56,0,1,1,3.23-1.33A4.57,4.57,0,0,1,50,87.18m0-7.78a3.21,3.21,0,1,0,2.28.94A3.17,3.17,0,0,0,50,79.4"/>
      <path id="Trazado_35538" data-name="Trazado 35538" class="cls-7" d="M52.92,17.13a3.9,3.9,0,1,1,0-5.51h0a3.9,3.9,0,0,1,0,5.51h0"/>
      <path id="Trazado_35539" data-name="Trazado 35539" class="cls-4" d="M50.17,18.94a4.56,4.56,0,1,1,3.23-1.33,4.56,4.56,0,0,1-3.23,1.33m0-7.78a3.22,3.22,0,1,0,3.22,3.21,3.19,3.19,0,0,0-1-2.27,3.14,3.14,0,0,0-2.27-.94"/>
      <path id="Trazado_35540" data-name="Trazado 35540" class="cls-8" d="M62.69,51.05a13.92,13.92,0,1,0-14,13.83h.1A13.87,13.87,0,0,0,62.69,51.05"/>
      <path id="Trazado_35541" data-name="Trazado 35541" class="cls-9" d="M35.27,57.73l.77-.5-.44-2,2-2,3,1.86.77-2.6h1.84l.58,4.37,2.35,1.56,6.45-.78.79,5.09,2.66,1.68s-17.2,3.27-20.79-6.74"/>
      <path id="Trazado_35542" data-name="Trazado 35542" class="cls-4" d="M49.92,65.44c-.93,0-1.93,0-3-.13-6.4-.58-10.59-3.15-12.13-7.43l-.12-.33.8-.53-.43-1.92,2.47-2.38,2.79,1.73.7-2.36h2.57l.62,4.57,2,1.35L53,57.2l.82,5.32,3.47,2.19-1.14.21a36.14,36.14,0,0,1-6.23.53M35.83,57.91c3.1,7.66,15.1,6.78,19,6.29L53,63.06l-.75-4.86L46,59l-2.66-1.77L42.82,53H41.73l-.85,2.85-3.2-2L36.09,55.4l.46,2Z"/>
      <path id="Trazado_35543" data-name="Trazado 35543" class="cls-4" d="M50.05,66.65a18,18,0,1,1,18-18h0a18,18,0,0,1-18,18m0-34.39a16.41,16.41,0,1,0,16.4,16.41h0a16.42,16.42,0,0,0-16.4-16.4"/>
      <path id="Trazado_35544" data-name="Trazado 35544" class="cls-9" d="M52.8,31.78l1,2.32-1.88.73L49.31,34l-5.14,3.21.64,3.39-2.29,2.2,3.28,2.43,4.88-2.34,6,5.26.73-2.33,3.48-1.19.82,2.2,2.48-2.27L60.4,41.33h5.49s-5.12-9.14-13.09-9.55"/>
      <path id="Trazado_35545" data-name="Trazado 35545" class="cls-4" d="M57,49l-6.34-5.53-4.86,2.33-3.93-2.91,2.5-2.4L43.67,37l5.58-3.48,2.62.84,1.29-.5-1-2.55.72,0c3.37.18,6.78,1.93,9.83,5.07a25.16,25.16,0,0,1,3.63,4.71l.38.68h-5l3.28,2.76-3.36,3.08-.9-2.42-2.85,1Zm-6.2-6.61,5.75,5,.59-1.89,4.12-1.41L62,46l1.6-1.47-4.4-3.7h5.93c-1.31-2-5.58-7.84-11.57-8.57l.85,2.05-2.47,1-2.52-.82-4.69,2.93.63,3.33-2.08,2,2.63,1.94Z"/>
      <path id="Trazado_35546" data-name="Trazado 35546" class="cls-4" d="M51.05,30.14H49.39V26.27h1.66Zm0-6.43H49.39V19.83h1.66Z"/>
      <rect id="Rectángulo_3502" data-name="Rectángulo 3502" class="cls-4" x="22.7" y="64.42" width="2.77" height="1.66" transform="translate(-30.49 22.13) rotate(-31.43)"/>
      <rect id="Rectángulo_3503" data-name="Rectángulo 3503" class="cls-4" x="26.81" y="61.64" width="3.64" height="1.66" transform="matrix(0.85, -0.52, 0.52, 0.85, -28.38, 24.09)"/>
      <rect id="Rectángulo_3504" data-name="Rectángulo 3504" class="cls-4" x="31.78" y="58.87" width="2.77" height="1.66" transform="translate(-26.26 26.05) rotate(-31.43)"/>
      <path id="Trazado_35547" data-name="Trazado 35547" class="cls-4" d="M77.82,67.08l-2.18-1.49.94-1.37,2.18,1.49Zm-4.3-2.94L70.32,62l.94-1.37,3.2,2.18Zm-5.31-3.62L65,58.33,65.94,57l3.2,2.18Z"/>
      <rect id="Rectángulo_3505" data-name="Rectángulo 3505" class="cls-4" x="75.24" y="31.94" width="2.77" height="1.66" transform="translate(-5.85 44.76) rotate(-31.43)"/>
      <rect id="Rectángulo_3506" data-name="Rectángulo 3506" class="cls-4" x="70.26" y="34.71" width="3.64" height="1.66" transform="matrix(0.85, -0.52, 0.52, 0.85, -7.96, 42.8)"/>
      <rect id="Rectángulo_3507" data-name="Rectángulo 3507" class="cls-4" x="66.16" y="37.49" width="2.77" height="1.66" transform="translate(-10.07 40.83) rotate(-31.42)"/>
      <path id="Trazado_35548" data-name="Trazado 35548" class="cls-4" d="M34.94,40.33l-3.37-1.91L32.39,37l3.37,1.91Zm-5.6-3.17L26,35.25l.82-1.45,3.37,1.91ZM23.74,34,21,32.41,21.78,31l2.78,1.58Z"/>
      <path id="Trazado_35549" data-name="Trazado 35549" class="cls-4" d="M50.88,79.39H49.22V75.51h1.66Zm0-6.44H49.22V69.08h1.66Z"/>
      <path id="Trazado_35550" data-name="Trazado 35550" class="cls-9" d="M21.94,33.18a3.9,3.9,0,1,1,0-5.51,3.9,3.9,0,0,1,0,5.51h0"/>
      <path id="Trazado_35551" data-name="Trazado 35551" class="cls-4" d="M19.18,35a4.56,4.56,0,1,1,3.24-1.33A4.52,4.52,0,0,1,19.18,35m0-7.79a3.23,3.23,0,1,0,2.28.95,3.19,3.19,0,0,0-2.28-.95"/>
      <path id="Trazado_35552" data-name="Trazado 35552" class="cls-9" d="M83.26,70.08a3.9,3.9,0,1,1,0-5.51,3.88,3.88,0,0,1,0,5.51h0"/>
      <path id="Trazado_35553" data-name="Trazado 35553" class="cls-4" d="M80.5,71.9a4.56,4.56,0,1,1,3.24-1.34A4.58,4.58,0,0,1,80.5,71.9m0-7.79a3.21,3.21,0,1,0,2.28.94,3.22,3.22,0,0,0-2.28-.94"/>
    </g>
  </g>
</svg>
