<svg id="Layer_1" data-name="Layer 1" xmlns="http://www.w3.org/2000/svg" xmlns:xlink="http://www.w3.org/1999/xlink" width="100" height="100" viewBox="0 0 100 100">
  <defs>
    <style>
      .cls-1 {
        fill: none;
      }

      .cls-2 {
        fill: #bbabf5;
      }

      .cls-3 {
        clip-path: url(#clip-path);
      }

      .cls-4 {
        fill: #fda551;
      }

      .cls-5 {
        fill: #12263f;
      }

      .cls-6 {
        fill: #fff;
      }

      .cls-7 {
        fill: #6c58b8;
      }

      .cls-8 {
        fill: #2cffe2;
      }

      .cls-9 {
        fill: #ef2a66;
      }

      .cls-10 {
        fill: #9182ca;
      }
    </style>
    <clipPath id="clip-path">
      <rect class="cls-1" x="15.11" y="16.25" width="73.94" height="73.15"/>
    </clipPath>
  </defs>
  <circle class="cls-2" cx="50" cy="50" r="50"/>
  <g class="cls-3">
    <g id="Grupo_17441" data-name="Grupo 17441">
      <path id="Trazado_35583" data-name="Trazado 35583" class="cls-4" d="M24.07,73.75c.68-3.79,3.32-5.67,5.81-8.26,1.61-1.66,3.36-3.17,4.4-5.24a8.78,8.78,0,0,1,1.25-2.08,2.5,2.5,0,0,1,3.53-.2h0a3.81,3.81,0,0,1,.54,4.08c-.56,1.45-2,2.27-2.61,3.69-.46,1.09-1.17,2.67-.12,3.3,3.84,2.32,6.38,0,7.79-1.64a17.4,17.4,0,0,1,3.46-3.12,15.35,15.35,0,0,1,2.09-1.18c.53-.25,1.86-.49,2.16-1,.81-1.38,1.34-2.5,3.35-2.3s2.6,1.72,3.43,3.22C66,75.41,51.77,86.57,40.3,86.34c-2.67,0-5.31-.6-8-.51s-5.49.94-7.08,3.08"/>
      <path id="Trazado_35584" data-name="Trazado 35584" class="cls-5" d="M25.89,89.4l-1.3-1c2.09-2.82,5.72-3.35,7.71-3.42a35.07,35.07,0,0,1,4.58.26c1.13.12,2.3.24,3.44.26A21.44,21.44,0,0,0,50.5,83a19.94,19.94,0,0,0,7.75-7,12,12,0,0,0,.18-12.55l-.2-.37c-.79-1.46-1.3-2.3-2.6-2.43s-1.71.44-2.44,1.7l-.11.2a3.34,3.34,0,0,1-2,1.14,4.3,4.3,0,0,0-.57.2,15.28,15.28,0,0,0-2,1.11,17.38,17.38,0,0,0-3.31,3A8.63,8.63,0,0,1,42,70.46a6.11,6.11,0,0,1-5.52-.72c-1.63-1-.72-3.11-.23-4.26l0-.06a7.63,7.63,0,0,1,1.42-2,5.77,5.77,0,0,0,1.17-1.65,3.09,3.09,0,0,0-.34-3.21,1.49,1.49,0,0,0-1.09-.41,1.82,1.82,0,0,0-1.28.58,6.55,6.55,0,0,0-1,1.6l-.15.29a17.88,17.88,0,0,1-3.6,4.5c-.31.31-.63.63-.93,1-.47.48-.94.94-1.4,1.39-2,1.93-3.69,3.61-4.2,6.44l-1.6-.28c.6-3.35,2.58-5.28,4.67-7.32.45-.44.91-.89,1.36-1.36s.64-.65.95-1a16.45,16.45,0,0,0,3.3-4.08c.05-.09.1-.19.14-.28a8.25,8.25,0,0,1,1.24-2,3.43,3.43,0,0,1,2.43-1.1,3.1,3.1,0,0,1,2.27.87,4.51,4.51,0,0,1,.72,5,7,7,0,0,1-1.47,2.15,6.07,6.07,0,0,0-1.14,1.57l0,.07c-.29.68-.84,2-.42,2.22,3.19,1.92,5.28.22,6.75-1.48a18.45,18.45,0,0,1,3.63-3.26,16.88,16.88,0,0,1,2.19-1.24,7.08,7.08,0,0,1,.77-.28,4.62,4.62,0,0,0,1.06-.43l.1-.17c.78-1.35,1.58-2.75,4-2.5,2.21.22,3.09,1.84,3.86,3.26.06.13.13.25.2.37a13.53,13.53,0,0,1-.22,14.16c-3.66,6.06-11.59,10.38-19,10.38h-.38c-1.2,0-2.4-.14-3.57-.26a33.35,33.35,0,0,0-4.36-.25c-2.88.09-5.23,1.1-6.46,2.76M51.7,61.65Z"/>
      <path id="Trazado_35585" data-name="Trazado 35585" class="cls-5" d="M33.26,76.16a.81.81,0,0,1-.33-1.55c2.89-1.28,2.73-3.5,2.56-5.85l0-.39a.81.81,0,0,1,1.62-.11l0,.38c.17,2.41.41,5.71-3.52,7.45a.71.71,0,0,1-.32.07"/>
      <path id="Trazado_35586" data-name="Trazado 35586" class="cls-5" d="M50.35,78.75h-.24a12.41,12.41,0,0,1-4.64-1.58l-1.14-.55c-8.62-3.92-11.62.33-11.75.51a.81.81,0,0,1-1.12.23.82.82,0,0,1-.24-1.13,6.8,6.8,0,0,1,3.24-2.32c2.88-1.06,6.42-.64,10.54,1.23.4.18.8.38,1.2.58a10.72,10.72,0,0,0,4,1.4c2.14.11,3.42-2.33,4.45-4.64.8-1.79,2.45-3.37,4.31-2.84a3.21,3.21,0,0,1,2.1,1.87A2.58,2.58,0,0,1,61,73.76.81.81,0,0,1,59.54,73a1,1,0,0,0,0-.83,1.59,1.59,0,0,0-1-.92c-1-.28-2,1-2.39,2-.88,2-2.51,5.6-5.78,5.6"/>
      <path id="Trazado_35587" data-name="Trazado 35587" class="cls-6" d="M40.84,70a8.52,8.52,0,0,1,4.25,4.26"/>
      <path id="Trazado_35588" data-name="Trazado 35588" class="cls-5" d="M45.09,75.1a.81.81,0,0,1-.73-.48,7.8,7.8,0,0,0-3.81-3.83.81.81,0,0,1-.45-1.06.83.83,0,0,1,1-.46A9.32,9.32,0,0,1,45.83,74a.81.81,0,0,1-.4,1.08.93.93,0,0,1-.33.07"/>
      <path id="Trazado_35589" data-name="Trazado 35589" class="cls-5" d="M45.76,71.79A.82.82,0,0,1,45,71a.84.84,0,0,1,.33-.66c.08,0,5.16-3.83,6.54-8.69a.81.81,0,0,1,1-.57.83.83,0,0,1,.56,1c-1.53,5.42-6.91,9.39-7.14,9.56a.81.81,0,0,1-.48.16"/>
      <path id="Trazado_35590" data-name="Trazado 35590" class="cls-5" d="M49.61,75.1a.81.81,0,0,1-.47-1.47,19.24,19.24,0,0,0,6.94-8.51,12.46,12.46,0,0,0,1-4.25.81.81,0,0,1,1.62,0c0,.32,0,7.94-8.58,14.1a.87.87,0,0,1-.47.15"/>
      <path id="Trazado_35591" data-name="Trazado 35591" class="cls-5" d="M59.85,71.38a.82.82,0,0,1-.82-.82.77.77,0,0,1,.09-.36c.64-1.28,2.11-5.19.53-6.28-.25-.17-.61-.36-.84-.25-.44.2-.79,1.29-.87,2a.82.82,0,0,1-1.62-.18c0-.26.34-2.61,1.82-3.29a2.4,2.4,0,0,1,2.43.39c.93.64,1.89,2,1.15,5.17a16.57,16.57,0,0,1-1.15,3.18.8.8,0,0,1-.72.45"/>
      <path id="Trazado_35592" data-name="Trazado 35592" class="cls-7" d="M59.85,70.56s2.85-5.67.26-7.31S56.92,66,56.92,66"/>
      <path id="Trazado_35593" data-name="Trazado 35593" class="cls-5" d="M59.85,71.38a.82.82,0,0,1-.82-.82.77.77,0,0,1,.09-.36,15.16,15.16,0,0,0,1.05-2.89c.28-1.22.43-2.79-.49-3.37-.5-.31-.73-.21-.8-.18-.58.26-1,1.59-1.16,2.41a.81.81,0,0,1-.92.68.81.81,0,0,1-.68-.93c0-.29.48-2.91,2.08-3.64a2.35,2.35,0,0,1,2.34.29c1,.61,2,2,1.2,5.14a16.76,16.76,0,0,1-1.17,3.22.83.83,0,0,1-.73.45"/>
      <path id="Trazado_35594" data-name="Trazado 35594" class="cls-6" d="M73,56.05,51.87,68.22,30.74,56.05V31.71L51.87,19.54,73,31.71Z"/>
      <path id="Trazado_35595" data-name="Trazado 35595" class="cls-5" d="M51.87,69.35,29.76,56.62V31.15L51.87,18.41,74,31.15V56.62ZM31.71,55.49,51.87,67.1,72,55.49V32.27L51.87,20.66,31.71,32.27Z"/>
      <path id="Trazado_35596" data-name="Trazado 35596" class="cls-8" d="M66.59,52.36,51.87,60.84,37.15,52.36v-17l14.72-8.48L66.59,35.4Z"/>
      <rect id="Rectángulo_3510" data-name="Rectángulo 3510" class="cls-5" x="50.77" y="43.26" width="1.57" height="25.04"/>
      <rect id="Rectángulo_3511" data-name="Rectángulo 3511" class="cls-5" x="50.37" y="36.71" width="24.2" height="1.56" transform="translate(-10.32 34.43) rotate(-28.56)"/>
      <rect id="Rectángulo_3512" data-name="Rectángulo 3512" class="cls-5" x="40.53" y="25.48" width="1.57" height="24.03" transform="translate(-11.44 55.66) rotate(-61.22)"/>
      <path id="Trazado_35597" data-name="Trazado 35597" class="cls-9" d="M62.06,49.75,51.87,55.63l-10.2-5.88V38l10.2-5.87L62.06,38Z"/>
      <path id="Trazado_35598" data-name="Trazado 35598" class="cls-5" d="M51.87,56.75,40.7,50.32V37.45L51.87,31,63,37.45V50.32Zm-9.22-7.56,9.22,5.31,9.22-5.31V38.57l-9.22-5.31-9.22,5.31Z"/>
      <path id="Trazado_35599" data-name="Trazado 35599" class="cls-7" d="M29,22.48a3.34,3.34,0,1,1,4.57-1.22h0A3.35,3.35,0,0,1,29,22.48h0"/>
      <path id="Trazado_35600" data-name="Trazado 35600" class="cls-10" d="M68.38,19.59a3.34,3.34,0,1,1,3.34,3.34,3.33,3.33,0,0,1-3.34-3.34h0"/>
      <path id="Trazado_35601" data-name="Trazado 35601" class="cls-10" d="M82.21,46.22a3.42,3.42,0,1,1,3.42,3.42,3.42,3.42,0,0,1-3.42-3.42h0"/>
      <path id="Trazado_35602" data-name="Trazado 35602" class="cls-10" d="M15.11,33.58A1.91,1.91,0,1,1,17,35.49a1.91,1.91,0,0,1-1.91-1.91"/>
      <path id="Trazado_35603" data-name="Trazado 35603" class="cls-7" d="M78.4,31.67a1.91,1.91,0,1,1,1.91,1.91,1.9,1.9,0,0,1-1.91-1.91h0"/>
      <path id="Trazado_35604" data-name="Trazado 35604" class="cls-7" d="M69.81,66.18a3.34,3.34,0,1,1,3.34,3.34,3.35,3.35,0,0,1-3.34-3.34h0"/>
      <path id="Trazado_35605" data-name="Trazado 35605" class="cls-10" d="M18.93,48.69a2.86,2.86,0,1,1,2.86,2.86h0a2.86,2.86,0,0,1-2.86-2.86"/>
    </g>
  </g>
</svg>
