<svg id="Layer_1" data-name="Layer 1" xmlns="http://www.w3.org/2000/svg" xmlns:xlink="http://www.w3.org/1999/xlink" width="100" height="100" viewBox="0 0 100 100">
  <defs>
    <style>
      .cls-1 {
        fill: none;
      }

      .cls-2 {
        fill: #bbabf5;
      }

      .cls-3 {
        clip-path: url(#clip-path);
      }

      .cls-4 {
        fill: #6c58b8;
      }

      .cls-5 {
        fill: #9182ca;
      }

      .cls-6 {
        fill: #12263f;
      }

      .cls-7 {
        fill: #fd8f25;
      }

      .cls-8 {
        fill: #4ece46;
      }

      .cls-9 {
        fill: #2cffe2;
      }
    </style>
    <clipPath id="clip-path">
      <rect class="cls-1" x="15.83" y="13.42" width="69.81" height="70.15"/>
    </clipPath>
  </defs>
  <circle class="cls-2" cx="50" cy="50" r="50"/>
  <g class="cls-3">
    <g id="Grupo_17445" data-name="Grupo 17445">
      <path id="Trazado_35647" data-name="Trazado 35647" class="cls-4" d="M62.41,24.12a26,26,0,1,0,0,36.82h0a26,26,0,0,0,0-36.82h0m-3,33.8a21.76,21.76,0,1,1,0-30.78,21.75,21.75,0,0,1,0,30.78"/>
      <path id="Trazado_35648" data-name="Trazado 35648" class="cls-4" d="M83.18,76.75a2.65,2.65,0,0,1,.27,3.69L81,83a2.66,2.66,0,0,1-3.69-.28l-9.53-9.52a2.6,2.6,0,0,1-.22-3.65L70,67a2.59,2.59,0,0,1,3.64.22Z"/>
      <path id="Trazado_35649" data-name="Trazado 35649" class="cls-5" d="M58.18,51c0,1.73-6.45,3.13-14.4,3.13s-14.4-1.4-14.4-3.13,6.45-3.13,14.4-3.13,14.4,1.4,14.4,3.13"/>
      <path id="Trazado_35650" data-name="Trazado 35650" class="cls-6" d="M42.92,67.6a27.09,27.09,0,1,1,19.16-7.93A27.09,27.09,0,0,1,42.92,67.6m0-52a25,25,0,1,0,17.66,7.31,25,25,0,0,0-17.66-7.31"/>
      <path id="Trazado_35651" data-name="Trazado 35651" class="cls-6" d="M42.92,62.94a22.41,22.41,0,1,1,15.87-6.56,22.42,22.42,0,0,1-15.87,6.56m0-43.58a21.15,21.15,0,1,0,15,6.19,21.16,21.16,0,0,0-15-6.19"/>
      <path id="Trazado_35652" data-name="Trazado 35652" class="cls-6" d="M67.45,68.21l-7.73-7.73,5-5,7.73,7.73Zm-6.19-7.73,6.19,6.19,3.42-3.42-6.19-6.19Z"/>
      <path id="Trazado_35653" data-name="Trazado 35653" class="cls-6" d="M79.62,81.2h-.15a3.35,3.35,0,0,1-2.23-1l-9.53-9.53a3.24,3.24,0,0,1-1-2.22,3,3,0,0,1,.87-2.2l2.69-2.69a3,3,0,0,1,2.21-.87,3.25,3.25,0,0,1,2.22,1l9.53,9.53a3.37,3.37,0,0,1,1,2.24,2.94,2.94,0,0,1-.85,2.24l-2.69,2.68a2.88,2.88,0,0,1-2.09.85M72.43,63.63a2.06,2.06,0,0,0-1.47.59l-2.69,2.69a2.07,2.07,0,0,0-.59,1.52A2.28,2.28,0,0,0,68.37,70l9.52,9.53a2.48,2.48,0,0,0,1.62.71,2,2,0,0,0,1.54-.57L83.74,77a2,2,0,0,0,.57-1.53,2.42,2.42,0,0,0-.72-1.62l-9.52-9.53a2.32,2.32,0,0,0-1.59-.69h-.06"/>
      <path id="Trazado_35654" data-name="Trazado 35654" class="cls-6" d="M79.62,81.59h-.16a3.76,3.76,0,0,1-2.5-1.1L67.44,71a3.65,3.65,0,0,1-1.08-2.49,3.36,3.36,0,0,1,1-2.49L70,63.29a3.4,3.4,0,0,1,2.49-1A3.69,3.69,0,0,1,75,63.39l9.53,9.53a3.76,3.76,0,0,1,1.1,2.49,3.32,3.32,0,0,1-1,2.53L82,80.63a3.3,3.3,0,0,1-2.36,1M72.42,64a1.68,1.68,0,0,0-1.19.49l-2.69,2.69a1.67,1.67,0,0,0-.48,1.24,1.89,1.89,0,0,0,.58,1.32l9.52,9.53a2.08,2.08,0,0,0,1.37.6,1.62,1.62,0,0,0,1.25-.46l2.69-2.69a1.64,1.64,0,0,0,.46-1.25,2.11,2.11,0,0,0-.61-1.36L73.8,64.59A2,2,0,0,0,72.47,64h0"/>
      <path id="Trazado_35655" data-name="Trazado 35655" class="cls-6" d="M79.11,78.24a.47.47,0,0,1-.33-.14l-8.93-8.94a.47.47,0,0,1,.66-.66l8.93,8.94a.46.46,0,0,1,0,.66.49.49,0,0,1-.33.13"/>
      <path id="Trazado_35656" data-name="Trazado 35656" class="cls-5" d="M42.5,68.63a6,6,0,1,0-5.69-6.32q0,.31,0,.63a6,6,0,0,0,5.69,5.69"/>
      <path id="Trazado_35657" data-name="Trazado 35657" class="cls-6" d="M42.81,69.41h-.34a6.78,6.78,0,1,1,.34,0m-.27-1.56a5.24,5.24,0,1,0-5-5.5,5,5,0,0,0,0,.55A5.26,5.26,0,0,0,42.54,67.85Z"/>
      <path id="Trazado_35658" data-name="Trazado 35658" class="cls-5" d="M51.61,81.59a2,2,0,0,0,2-2,1.72,1.72,0,0,0,0-.39c-1-5.21-5.3-9.88-10.39-9.88S33.79,74,32.75,79.21a2,2,0,0,0,1.55,2.34,2.45,2.45,0,0,0,.39,0Z"/>
      <path id="Trazado_35659" data-name="Trazado 35659" class="cls-6" d="M51.61,82.36H34.69a2.76,2.76,0,0,1-2.76-2.75,2.51,2.51,0,0,1,.06-.55c1.2-6,6-10.51,11.16-10.51s10,4.52,11.16,10.51a2.76,2.76,0,0,1-2.16,3.25,3.29,3.29,0,0,1-.54,0M43.15,70.1A8.86,8.86,0,0,0,37,72.86a12.79,12.79,0,0,0-3.47,6.51,1.2,1.2,0,0,0,1.18,1.44H51.61a1.2,1.2,0,0,0,1.17-1.44,12.73,12.73,0,0,0-3.46-6.51,8.86,8.86,0,0,0-6.17-2.76"/>
      <rect id="Rect치ngulo_3515" data-name="Rect치ngulo 3515" class="cls-7" x="38.17" y="32" width="16.12" height="17.12"/>
      <rect id="Rect치ngulo_3516" data-name="Rect치ngulo 3516" class="cls-7" x="36.05" y="29.37" width="13.97" height="15.76"/>
      <path id="Trazado_35660" data-name="Trazado 35660" class="cls-6" d="M55.61,51.29H37.83V47.73h1.38v2.18h15V33.41h-3V32h4.38Z"/>
      <path id="Trazado_35661" data-name="Trazado 35661" class="cls-6" d="M50.92,47.29h-18V26.84h18ZM34.29,45.91H49.55V28.22H34.29Z"/>
      <path id="Trazado_35662" data-name="Trazado 35662" class="cls-8" d="M43.82,43.7a1.72,1.72,0,0,1-1.15-.51L37,37.61A1.24,1.24,0,0,1,37,35.84l.17-.15a1.71,1.71,0,0,1,2.18.1l4.42,4.35,9.2-10.29a1.7,1.7,0,0,1,2.17-.23,1.25,1.25,0,0,1,.4,1.71,1.33,1.33,0,0,1-.14.19L45,43.13a1.62,1.62,0,0,1-1.16.57Z"/>
      <path id="Trazado_35663" data-name="Trazado 35663" class="cls-9" d="M43.87,44.32h0a2.28,2.28,0,0,1-1.59-.69l-5.65-5.58A1.86,1.86,0,0,1,36,36.6a1.91,1.91,0,0,1,.75-1.4,2.31,2.31,0,0,1,3,.15l4,3.89,8.77-9.8a2.3,2.3,0,0,1,3-.33,1.94,1.94,0,0,1,.85,1.36,1.87,1.87,0,0,1-.47,1.46L45.5,43.54a2.23,2.23,0,0,1-1.63.78M38.18,36a1,1,0,0,0-.65.21.71.71,0,0,0-.28.49.66.66,0,0,0,.2.5l5.66,5.58a1.12,1.12,0,0,0,.71.33h0a1,1,0,0,0,.7-.37L54.91,31.1a.62.62,0,0,0,.17-.48.72.72,0,0,0-.32-.49,1.08,1.08,0,0,0-1.35.14L43.78,41l-4.89-4.8a1,1,0,0,0-.71-.27"/>
    </g>
  </g>
</svg>
