<svg id="Layer_1" data-name="Layer 1" xmlns="http://www.w3.org/2000/svg" xmlns:xlink="http://www.w3.org/1999/xlink" width="100" height="100" viewBox="0 0 100 100">
  <defs>
    <style>
      .cls-1 {
        fill: none;
      }

      .cls-2 {
        fill: #bbabf5;
      }

      .cls-3 {
        clip-path: url(#clip-path);
      }

      .cls-4 {
        fill: #6c58b8;
      }

      .cls-5 {
        fill: #f5fafc;
      }

      .cls-6 {
        fill: #9182ca;
      }

      .cls-7 {
        fill: #fd8f25;
      }

      .cls-8 {
        fill: #ef2a66;
      }

      .cls-9 {
        fill: #12263f;
      }

      .cls-10 {
        fill: #2cffe2;
      }
    </style>
    <clipPath id="clip-path">
      <rect class="cls-1" x="20.17" y="20.92" width="63.88" height="55.15"/>
    </clipPath>
  </defs>
  <circle class="cls-2" cx="50" cy="50" r="50"/>
  <g class="cls-3">
    <g id="Grupo_17449" data-name="Grupo 17449">
      <path id="Trazado_35697" data-name="Trazado 35697" class="cls-4" d="M84.05,73.61c0,1.36-14.3,2.46-31.94,2.46S20.17,75,20.17,73.61s14.3-2.45,31.94-2.45,31.94,1.1,31.94,2.45"/>
      <rect id="Rectángulo_3520" data-name="Rectángulo 3520" class="cls-5" x="69" y="38.09" width="7.6" height="35.4"/>
      <rect id="Rectángulo_3521" data-name="Rectángulo 3521" class="cls-4" x="28.08" y="62.33" width="5.24" height="9.97"/>
      <rect id="Rectángulo_3522" data-name="Rectángulo 3522" class="cls-6" x="41.75" y="55.38" width="6.55" height="17.67"/>
      <rect id="Rectángulo_3523" data-name="Rectángulo 3523" class="cls-7" x="56.19" y="47.65" width="7.25" height="25.87"/>
      <rect id="Rectángulo_3524" data-name="Rectángulo 3524" class="cls-8" x="71.16" y="40.19" width="6.08" height="33.31"/>
      <path id="Trazado_35698" data-name="Trazado 35698" class="cls-9" d="M34.08,73.9H25.14V60.72h8.94ZM26.5,72.54h6.22V62.09H26.5Z"/>
      <path id="Trazado_35699" data-name="Trazado 35699" class="cls-9" d="M48,74H39.06V53.55H48Zm-7.56-1.35h6.21V54.9H40.41Z"/>
      <path id="Trazado_35700" data-name="Trazado 35700" class="cls-9" d="M63,74.18H53.4V45.39H63Zm-8.19-1.46h6.74V46.85H54.85Z"/>
      <path id="Trazado_35701" data-name="Trazado 35701" class="cls-9" d="M78,74.15H68.31V37.37H78Zm-8.19-1.46H76.5V38.82H69.76Z"/>
      <path id="Trazado_35702" data-name="Trazado 35702" class="cls-10" d="M24.37,57.13l20.49-15.6,12.59-.48,16.87-13,3.09,4.44,2.62-11L68.59,22l3.14,3-15,12.56-12.34.76L29,52.63Z"/>
      <path id="Trazado_35703" data-name="Trazado 35703" class="cls-9" d="M24.37,57.69a.57.57,0,0,1-.57-.56.54.54,0,0,1,.17-.4l4.6-4.51h0L44,38a.59.59,0,0,1,.34-.15l12.16-.74,14.4-12L68.2,22.41a.57.57,0,0,1,0-.8.6.6,0,0,1,.38-.17L80,20.92a.56.56,0,0,1,.59.54.76.76,0,0,1,0,.15L78,32.64a.57.57,0,0,1-.68.42.55.55,0,0,1-.33-.23l-2.76-3.95L57.8,41.5a.56.56,0,0,1-.32.11l-12.42.47L24.71,57.58a.6.6,0,0,1-.34.11M44.6,38.93,31.85,50.72l12.67-9.64a.52.52,0,0,1,.32-.11l12.41-.48L74,27.63a.56.56,0,0,1,.79.1l0,0,2.37,3.41,2.16-9.08-9.39.43,2.2,2.14a.58.58,0,0,1,0,.8.08.08,0,0,0,0,0l-15,12.56a.64.64,0,0,1-.33.13Z"/>
    </g>
  </g>
</svg>
