<svg id="Layer_1" data-name="Layer 1" xmlns="http://www.w3.org/2000/svg" xmlns:xlink="http://www.w3.org/1999/xlink" width="100" height="100" viewBox="0 0 100 100">
  <defs>
    <style>
      .cls-1 {
        fill: none;
      }

      .cls-2 {
        fill: #bbabf5;
      }

      .cls-3 {
        clip-path: url(#clip-path);
      }

      .cls-4 {
        fill: #6c58b8;
      }

      .cls-5 {
        fill: #12263f;
      }

      .cls-6 {
        fill: #fda551;
      }

      .cls-7 {
        fill: #9182ca;
      }

      .cls-8 {
        fill: #ef2a66;
      }

      .cls-9 {
        fill: #fd8f25;
      }
    </style>
    <clipPath id="clip-path">
      <rect class="cls-1" x="14.45" y="13.42" width="71.09" height="73.16"/>
    </clipPath>
  </defs>
  <circle class="cls-2" cx="50" cy="50" r="50"/>
  <g class="cls-3">
    <g id="Grupo_17439" data-name="Grupo 17439">
      <path id="Trazado_35554" data-name="Trazado 35554" class="cls-4" d="M35.48,62.64l.12,16.09c0,.61.84,1.11,1.88,1.1l11.22,0c6.29,0,12.57-.07,18.84-.08h1.83a1.65,1.65,0,0,0,1.4-.47,3,3,0,0,0,.41-1.89q0-6.44.07-12.86,0-3.56,0-7.11c0-.48,0-1.07-.39-1.26a.79.79,0,0,0-.7.1c-1.92.95-3.84,1.87-5.77,2.78l-6.72,3.16c-2,.93-4,2.17-6.13,2.17h-2"/>
      <path id="Trazado_35555" data-name="Trazado 35555" class="cls-5" d="M66.84,83.22H32.18a2.68,2.68,0,0,1-2.85-2.45V58.11a.81.81,0,1,1,1.62,0v22.7c0,.44.58.82,1.23.82H66.84c.66,0,1.23-.38,1.23-.82V57.59a.83.83,0,0,1,.8-.84.82.82,0,0,1,.83.8V80.77a2.68,2.68,0,0,1-2.86,2.45"/>
      <path id="Trazado_35556" data-name="Trazado 35556" class="cls-5" d="M63.49,68.31H36a.82.82,0,0,1-.84-.8.81.81,0,0,1,.79-.83H63.49a.82.82,0,1,1,0,1.63h0"/>
      <path id="Trazado_35557" data-name="Trazado 35557" class="cls-5" d="M52.25,74H36a.82.82,0,0,1,0-1.63H52.25a.82.82,0,0,1,.83.8.8.8,0,0,1-.79.83h0"/>
      <path id="Trazado_35558" data-name="Trazado 35558" class="cls-6" d="M40.07,53.85S25.76,42,28.76,32.07s14.73-16.55,23.88-6.94c0,0,7.88-8.57,18.2.73S69.29,46.2,69.29,46.2s.81,5.67-1.72,8.8-15.94,10.47-27.5-1.15"/>
      <path id="Trazado_35559" data-name="Trazado 35559" class="cls-7" d="M67.59,30.32s1.44,9.3-2.34,9C56.7,38.7,52.58,31.4,52.58,31.4s9.41,4.41,15-1.08"/>
      <path id="Trazado_35560" data-name="Trazado 35560" class="cls-5" d="M69.6,53.09A9.29,9.29,0,0,1,68.1,53,31.47,31.47,0,0,1,62,51.09l-.45-.17a46.25,46.25,0,0,1-6.78-3.23,1,1,0,0,1,1-1.8A44.23,44.23,0,0,0,62.31,49l.45.18a30.51,30.51,0,0,0,5.67,1.76,5.51,5.51,0,0,0,3.63-.51,4.49,4.49,0,0,0,1.93-3,4,4,0,0,0-.62-3.16,5.49,5.49,0,0,0-2.21-1.43c-1.63-.69-3.36-1.26-5-1.81s-3.27-1.08-4.89-1.75a28.91,28.91,0,0,1-5.59-2.93,12.47,12.47,0,0,1-4.32-5,1,1,0,1,1,1.87-.88h0c1.65,3.5,5.22,5.36,8.84,6.85,1.54.64,3.17,1.18,4.74,1.7S70.26,40.18,72,40.9A7.23,7.23,0,0,1,75,43a6,6,0,0,1,1,4.83,6.55,6.55,0,0,1-2.92,4.41,7,7,0,0,1-3.51.89"/>
      <path id="Trazado_35561" data-name="Trazado 35561" class="cls-5" d="M56,63.18a6.12,6.12,0,0,1-2.18-.53.86.86,0,0,1,.69-1.58,4.12,4.12,0,0,0,1.58.38,3.9,3.9,0,0,0,1.8-1.63l-.13-1.51,1.26.63c.21,0,1.62.05,4.27-2.53a.87.87,0,0,1,1.22,0,.88.88,0,0,1,0,1.23l0,0c-2.4,2.34-4.11,2.93-5.09,3a5.16,5.16,0,0,1-3.13,2.51H56"/>
      <path id="Trazado_35562" data-name="Trazado 35562" class="cls-5" d="M37.26,58.46c-6.21-3.2-13.81-9.7-16.53-18.37a21,21,0,0,1,1.62-16.63,19.42,19.42,0,0,1,14.19-9.85,15.79,15.79,0,0,1,13.89,4.51L49,19.58a13.73,13.73,0,0,0-12.11-3.91,17.29,17.29,0,0,0-12.66,8.77,18.93,18.93,0,0,0-1.47,15c2.53,8.06,9.67,14.14,15.5,17.14Z"/>
      <path id="Trazado_35563" data-name="Trazado 35563" class="cls-5" d="M64.58,58h-.13c-4.08-.1-11.13-4-11.43-4.18a1,1,0,1,1,1-1.81c.07,0,6.9,3.83,10.47,3.91,2.84.07,3.11-3.68,3.12-3.84a1,1,0,1,1,2.07.1v0c-.13,2-1.37,5.79-5.11,5.79"/>
      <path id="Trazado_35564" data-name="Trazado 35564" class="cls-5" d="M58.81,60.74a.78.78,0,0,1-.36-.08l-2.81-1.29a.86.86,0,1,1,.68-1.59l0,0,2.82,1.29a.87.87,0,0,1,.42,1.15.86.86,0,0,1-.79.5"/>
      <path id="Trazado_35565" data-name="Trazado 35565" class="cls-5" d="M34.8,60.47a4.47,4.47,0,0,1-4.16-4.77,4.53,4.53,0,0,1,.59-1.93L33,54.88l-.88-.56.88.55a2.17,2.17,0,0,0,.25,2.65,2.22,2.22,0,0,0,1.71.86c.55-.07,1.11-.6,1.58-1.49l1.83,1a4.29,4.29,0,0,1-3.12,2.57l-.44,0"/>
      <path id="Trazado_35566" data-name="Trazado 35566" class="cls-5" d="M39.85,63.14a4,4,0,0,1-1.78-.41,3.69,3.69,0,0,1-1.83-2.29,4.29,4.29,0,0,1,.37-2.9l.06-.16c.73-1.89,1.67-4,3.59-5a3.85,3.85,0,0,1,3.2-.2,3.65,3.65,0,0,1,2.17,2.13c.94,2.51-1.2,5.55-1.88,6.43a6.93,6.93,0,0,1-2.26,2.08,4,4,0,0,1-1.64.35m-1.25-5-.06.16a2.57,2.57,0,0,0-.3,1.61,1.63,1.63,0,0,0,.78,1,1.92,1.92,0,0,0,1.59,0,6,6,0,0,0,1.5-1.48c1.08-1.39,2-3.3,1.57-4.42a1.6,1.6,0,0,0-1-.92,1.86,1.86,0,0,0-1.48.08c-1.31.71-2,2.41-2.65,4"/>
      <path id="Trazado_35567" data-name="Trazado 35567" class="cls-5" d="M74.63,44.64A1,1,0,0,1,73.81,43a17.1,17.1,0,0,0,2.57-16.09A16.14,16.14,0,0,0,65.27,16.26a16.42,16.42,0,0,0-10.85,1c-7.88,3.59-13.17,11-14.9,20.9a2.85,2.85,0,0,0,0,1.45.43.43,0,0,0,.32.26,3.88,3.88,0,0,0,2.57-.59,7,7,0,0,0,2.42-3.79c.93-2.87,2.36-4.71,4.25-5.48a6,6,0,0,1,4.94.32h0l.09.06,0,0c.76.5,4.78,3,8.57,2C65,31.78,66.84,30,68.17,27a1,1,0,1,1,1.89.85h0c-1.6,3.57-3.89,5.77-6.81,6.55C58.62,35.65,54,32.82,53,32.15a4,4,0,0,0-3.17-.22c-1.3.53-2.33,1.94-3.05,4.19A9,9,0,0,1,43.57,41a5.81,5.81,0,0,1-4.32.87,2.49,2.49,0,0,1-1.65-1.43,4.54,4.54,0,0,1-.13-2.63,33.3,33.3,0,0,1,5.3-13.34,26.18,26.18,0,0,1,10.79-9.09,18.47,18.47,0,0,1,12.23-1.12,18.18,18.18,0,0,1,12.56,12,19.12,19.12,0,0,1-2.9,18,1.05,1.05,0,0,1-.82.4M53.56,30.23a1,1,0,0,0-.89.51l.75.45.59-.86a1,1,0,0,0-.45-.1"/>
      <path id="Trazado_35568" data-name="Trazado 35568" class="cls-5" d="M50.63,66.09a3,3,0,0,1-2-.72,3.33,3.33,0,0,1-1.12-3.31,27.17,27.17,0,0,1,1.1-3.14,5.25,5.25,0,0,1,1.32-2,2.66,2.66,0,0,1,2.25-.59A3.38,3.38,0,0,1,54.5,58a5.21,5.21,0,0,1,.26,3.58l0,.17.11-.08,1,1.4a7.6,7.6,0,0,0-.94.84,8.9,8.9,0,0,1-1.23,1.07,5.38,5.38,0,0,1-3,1.15M51.69,58a.87.87,0,0,0-.6.22,3.72,3.72,0,0,0-.85,1.38,26.13,26.13,0,0,0-1,2.93A1.6,1.6,0,0,0,49.78,64c.65.55,1.63.37,2.92-.53a6.64,6.64,0,0,0,1-.86l.42-.42-1.18-.15c0-.28.09-.56.13-.84A3.68,3.68,0,0,0,53,58.79,1.61,1.61,0,0,0,51.9,58a.75.75,0,0,0-.21,0"/>
      <path id="Trazado_35569" data-name="Trazado 35569" class="cls-5" d="M45.19,64.4l-.5,0a3.59,3.59,0,0,1-2.36-1.15A3.07,3.07,0,0,1,42,60l0-.1,1.64.54,0,.12c-.31.86-.22,1.21,0,1.5a2,2,0,0,0,1.23.55,3,3,0,0,0,2.48-.83,8.6,8.6,0,0,0,1.18-2.93c.2-.82.66-2.74-.13-3.34a1.6,1.6,0,0,0-1.2-.4,2.9,2.9,0,0,0-1.68,1.31l-1.4-1a4.46,4.46,0,0,1,2.82-2,3.3,3.3,0,0,1,2.51.74c1.69,1.29,1.06,3.88.76,5.13a9.8,9.8,0,0,1-1.47,3.55,4.45,4.45,0,0,1-3.55,1.55"/>
      <path id="Trazado_35570" data-name="Trazado 35570" class="cls-5" d="M46.21,35h-.07a.47.47,0,0,1-.4-.53h0a4.18,4.18,0,0,0-.49-2.93.47.47,0,1,1,.76-.55,5.08,5.08,0,0,1,.66,3.63.46.46,0,0,1-.46.4"/>
      <path id="Trazado_35571" data-name="Trazado 35571" class="cls-8" d="M57.91,75.89v8.83l3.26-3.37L64.31,85V76.29"/>
      <path id="Trazado_35572" data-name="Trazado 35572" class="cls-5" d="M64.91,86.58l-3.76-4.34-3.84,4V75.89h1.21v7.33l2.67-2.77,2.51,2.89v-7h1.21Z"/>
      <path id="Trazado_35573" data-name="Trazado 35573" class="cls-9" d="M57.43,74.18a3.68,3.68,0,1,1,3.68,3.67h0a3.67,3.67,0,0,1-3.68-3.67"/>
      <path id="Trazado_35574" data-name="Trazado 35574" class="cls-5" d="M61.11,78.55a4.37,4.37,0,1,1,4.37-4.37,4.37,4.37,0,0,1-4.37,4.37m0-7.35a3,3,0,1,0,3,3,3,3,0,0,0-3-3"/>
      <path id="Trazado_35575" data-name="Trazado 35575" class="cls-5" d="M76.79,65.86v5.49h2.8v8.36c-1.91.14-2.83,2.42-2.83,2.42H83V71.29h2.58V63.2a5.72,5.72,0,0,0-2.61-4.63"/>
      <path id="Trazado_35576" data-name="Trazado 35576" class="cls-5" d="M78.65,58.14a3.85,3.85,0,1,1,3.64-4,2.67,2.67,0,0,1,0,.4,3.84,3.84,0,0,1-3.64,3.64"/>
      <path id="Trazado_35577" data-name="Trazado 35577" class="cls-5" d="M76.79,62v9.35h2.8v8.37c-1.91.13-2.83,2.41-2.83,2.41H83V71.29h2.59V63.2c0-3.08-5.45-7.47-5.45-7.47l-3.44,2"/>
      <path id="Trazado_35578" data-name="Trazado 35578" class="cls-5" d="M78,56.35l-6.32,6.33a1.29,1.29,0,0,1-1,.38h-.54a1.32,1.32,0,0,0-.07,2.63h2.56a1.31,1.31,0,0,0,.93-.39L76.93,62"/>
      <path id="Trazado_35579" data-name="Trazado 35579" class="cls-5" d="M23.21,65.86v5.49h-2.8v8.36c1.91.14,2.83,2.42,2.83,2.42H17V71.29H14.45V63.2a5.72,5.72,0,0,1,2.61-4.63"/>
      <path id="Trazado_35580" data-name="Trazado 35580" class="cls-5" d="M21.36,58.14a3.85,3.85,0,1,0-3.65-4,2.67,2.67,0,0,0,0,.4,3.85,3.85,0,0,0,3.65,3.64"/>
      <path id="Trazado_35581" data-name="Trazado 35581" class="cls-5" d="M23.21,62v9.35h-2.8v8.37c1.91.13,2.83,2.41,2.83,2.41H17V71.29H14.45V63.2c0-3.08,5.46-7.47,5.46-7.47l3.44,2"/>
      <path id="Trazado_35582" data-name="Trazado 35582" class="cls-5" d="M22,56.35l6.32,6.33a1.29,1.29,0,0,0,.95.38h.54a1.32,1.32,0,0,1,.07,2.63H27.32a1.31,1.31,0,0,1-.93-.39L23.08,62"/>
    </g>
  </g>
</svg>
