<svg xmlns="http://www.w3.org/2000/svg" xmlns:xlink="http://www.w3.org/1999/xlink" width="480.242" height="337.368" viewBox="0 0 480.242 337.368">
  <defs>
    <linearGradient id="linear-gradient" y1="0.5" x2="0.996" y2="0.5" gradientUnits="objectBoundingBox">
      <stop offset="0" stop-color="#dae3fe"/>
      <stop offset="1" stop-color="#e9effd"/>
    </linearGradient>
    <linearGradient id="linear-gradient-2" x1="-0.003" y1="0.5" x2="0.999" y2="0.5" xlink:href="#linear-gradient"/>
    <linearGradient id="linear-gradient-3" x1="0.936" y1="-0.078" x2="-0.19" y2="1.416" gradientUnits="objectBoundingBox">
      <stop offset="0" stop-color="#4042e2"/>
      <stop offset="1" stop-color="#4f52ff"/>
    </linearGradient>
    <linearGradient id="linear-gradient-4" x1="0" y1="0.5" x2="1" y2="0.5" xlink:href="#linear-gradient"/>
    <linearGradient id="linear-gradient-5" x1="1.214" y1="-0.449" x2="-0.632" y2="2.003" xlink:href="#linear-gradient-3"/>
    <linearGradient id="linear-gradient-6" x1="0" y1="0.5" x2="1" y2="0.5" xlink:href="#linear-gradient"/>
    <linearGradient id="linear-gradient-7" x1="0" y1="0.501" x2="1" y2="0.501" xlink:href="#linear-gradient"/>
    <linearGradient id="linear-gradient-8" x1="0.001" y1="0.5" x2="1.001" y2="0.5" xlink:href="#linear-gradient-3"/>
    <linearGradient id="linear-gradient-9" x1="0" y1="0.5" x2="1" y2="0.5" xlink:href="#linear-gradient-3"/>
    <linearGradient id="linear-gradient-10" x1="0.587" y1="0.501" x2="1.956" y2="0.519" gradientUnits="objectBoundingBox">
      <stop offset="0" stop-color="#472ea6"/>
      <stop offset="1" stop-color="#4f52ff"/>
    </linearGradient>
    <linearGradient id="linear-gradient-11" x1="0.003" y1="0.85" x2="1.068" y2="0.1" xlink:href="#linear-gradient-10"/>
    <linearGradient id="linear-gradient-12" x1="0.055" y1="0.491" x2="1.391" y2="0.518" xlink:href="#linear-gradient-10"/>
    <linearGradient id="linear-gradient-13" x1="-1.971" y1="1.027" x2="0.455" y2="0.51" xlink:href="#linear-gradient-10"/>
    <linearGradient id="linear-gradient-14" x1="-84.077" y1="44.095" x2="-86.864" y2="42.995" xlink:href="#linear-gradient-3"/>
    <linearGradient id="linear-gradient-15" x1="-60.932" y1="64.094" x2="-59.078" y2="61.3" gradientUnits="objectBoundingBox">
      <stop offset="0" stop-color="#ff928e"/>
      <stop offset="1" stop-color="#feb3b1"/>
    </linearGradient>
    <linearGradient id="linear-gradient-16" x1="-147.95" y1="103.142" x2="-143.496" y2="98.694" xlink:href="#linear-gradient-15"/>
    <linearGradient id="linear-gradient-17" x1="0.5" y1="-0.599" x2="0.5" y2="14.296" xlink:href="#linear-gradient-15"/>
    <linearGradient id="linear-gradient-18" x1="-213.222" y1="127.725" x2="-212.177" y2="127.725" xlink:href="#linear-gradient-15"/>
    <linearGradient id="linear-gradient-19" x1="-180.177" y1="158.224" x2="-179.203" y2="158.224" xlink:href="#linear-gradient-15"/>
    <linearGradient id="linear-gradient-20" x1="-29.846" y1="20.562" x2="-30.753" y2="21.925" xlink:href="#linear-gradient-3"/>
    <linearGradient id="linear-gradient-21" x1="-0.18" y1="-0.732" x2="0.488" y2="0.575" xlink:href="#linear-gradient-15"/>
    <linearGradient id="linear-gradient-22" x1="-0.635" y1="15.314" x2="0.305" y2="3.008" xlink:href="#linear-gradient-3"/>
    <linearGradient id="linear-gradient-23" x1="0.996" y1="-0.369" x2="-0.294" y2="2.635" xlink:href="#linear-gradient-15"/>
    <linearGradient id="linear-gradient-24" x1="41.659" y1="-31.96" x2="41.774" y2="-30.25" xlink:href="#linear-gradient-15"/>
    <linearGradient id="linear-gradient-25" x1="169.071" y1="-102.347" x2="169.543" y2="-96.931" xlink:href="#linear-gradient-15"/>
    <linearGradient id="linear-gradient-26" x1="-3289.64" y1="-267.052" x2="-3288.496" y2="-267.052" xlink:href="#linear-gradient-15"/>
    <linearGradient id="linear-gradient-27" x1="-1011.489" y1="-372.893" x2="-1010.553" y2="-372.893" xlink:href="#linear-gradient-3"/>
    <linearGradient id="linear-gradient-28" x1="-2800.715" y1="-281.971" x2="-2799.824" y2="-281.971" xlink:href="#linear-gradient-15"/>
    <linearGradient id="linear-gradient-29" x1="-751.557" y1="-79.307" x2="-748.262" y2="-82.26" xlink:href="#linear-gradient-3"/>
    <linearGradient id="linear-gradient-30" x1="0.452" y1="0.806" x2="1.396" y2="-1.991" xlink:href="#linear-gradient-15"/>
    <linearGradient id="linear-gradient-31" x1="0.218" y1="-0.14" x2="1.183" y2="1.277" xlink:href="#linear-gradient-3"/>
    <linearGradient id="linear-gradient-32" x1="-1503.805" y1="-148.833" x2="-1502.683" y2="-148.833" xlink:href="#linear-gradient-15"/>
    <linearGradient id="linear-gradient-33" x1="-0.326" y1="-0.483" x2="1.299" y2="1.466" xlink:href="#linear-gradient-3"/>
    <linearGradient id="linear-gradient-34" x1="0.271" y1="-1.435" x2="0.48" y2="0.651" xlink:href="#linear-gradient-15"/>
    <linearGradient id="linear-gradient-35" x1="-0.191" y1="0.476" x2="0.619" y2="0.503" xlink:href="#linear-gradient-15"/>
    <linearGradient id="linear-gradient-36" x1="-3563.304" y1="-2087.58" x2="-3560.885" y2="-2090.255" xlink:href="#linear-gradient-15"/>
    <linearGradient id="linear-gradient-37" x1="3031.392" y1="-0.299" x2="3029.571" y2="1.575" xlink:href="#linear-gradient-3"/>
    <linearGradient id="linear-gradient-38" x1="0.496" y1="-2.131" x2="0.499" y2="0.141" gradientUnits="objectBoundingBox">
      <stop offset="0" stop-color="#e1473d"/>
      <stop offset="1" stop-color="#e9605a"/>
    </linearGradient>
    <linearGradient id="linear-gradient-39" x1="0.001" y1="0.505" x2="1.001" y2="0.505" xlink:href="#linear-gradient"/>
    <linearGradient id="linear-gradient-41" x1="0.001" y1="0.495" x2="1.001" y2="0.495" xlink:href="#linear-gradient"/>
    <linearGradient id="linear-gradient-43" x1="0.001" y1="0.468" x2="1.001" y2="0.468" xlink:href="#linear-gradient"/>
    <linearGradient id="linear-gradient-44" x1="-798.048" y1="0.302" x2="-797.377" y2="1.263" gradientUnits="objectBoundingBox">
      <stop offset="0" stop-color="#a22b25"/>
      <stop offset="1" stop-color="#c0423c"/>
    </linearGradient>
    <linearGradient id="linear-gradient-45" x1="-2568.593" y1="0.506" x2="-2567.584" y2="0.506" xlink:href="#linear-gradient-3"/>
    <linearGradient id="linear-gradient-46" x1="0" y1="0.5" x2="1" y2="0.5" xlink:href="#linear-gradient-44"/>
    <linearGradient id="linear-gradient-47" x1="-1611.185" y1="0.495" x2="-1610.178" y2="0.495" xlink:href="#linear-gradient-3"/>
    <linearGradient id="linear-gradient-48" x1="-0.001" y1="0.5" x2="1" y2="0.5" xlink:href="#linear-gradient-44"/>
    <linearGradient id="linear-gradient-49" x1="-833.101" y1="0.411" x2="-832.868" y2="2.002" xlink:href="#linear-gradient-3"/>
    <linearGradient id="linear-gradient-50" x1="-1892.882" y1="1.856" x2="-1892.64" y2="0.806" gradientUnits="objectBoundingBox">
      <stop offset="0" stop-color="#c4421b"/>
      <stop offset="1" stop-color="#5c0e16"/>
    </linearGradient>
    <linearGradient id="linear-gradient-51" x1="-1443.459" y1="0.5" x2="-1442.454" y2="0.5" xlink:href="#linear-gradient-44"/>
    <linearGradient id="linear-gradient-52" x1="-1598.762" y1="1.327" x2="-1597.297" y2="-1.032" xlink:href="#linear-gradient-44"/>
    <linearGradient id="linear-gradient-53" x1="-5815.77" y1="3.263" x2="-5810.436" y2="-4.351" xlink:href="#linear-gradient-44"/>
    <linearGradient id="linear-gradient-54" x1="-2365.284" y1="1.604" x2="-2363.286" y2="4.272" xlink:href="#linear-gradient-44"/>
    <linearGradient id="linear-gradient-55" x1="-0.154" y1="-3.867" x2="1.657" y2="7.619" xlink:href="#linear-gradient-44"/>
    <linearGradient id="linear-gradient-56" x1="0.002" y1="0.5" x2="1.001" y2="0.5" xlink:href="#linear-gradient"/>
    <linearGradient id="linear-gradient-57" x1="0" y1="0.501" x2="0.996" y2="0.501" xlink:href="#linear-gradient"/>
  </defs>
  <g id="grafico_1__objetivos_4" data-name="grafico(1)_objetivos 4" transform="translate(-19.804 -148.94)">
    <path id="Trazado_112999" data-name="Trazado 112999" d="M490.389,376.183q-6.694-21.87-13.367-43.74a98.529,98.529,0,0,1-3.866-15.577c-2.406-17.562,8.226-31.258,12.678-47.4,3.537-12.894,6.663-28.842,5.028-42.105a36.6,36.6,0,0,0-4.637-14.652c-3.383-5.563-8.771-9.727-14.4-13.11-19.423-11.578-41.55-13.552-63.75-9.686-22.7,3.959-42.465,12.287-66.289,8.339-28.574-4.74-53.57-22.909-82.473-25.232-24.616-1.974-48.419,7.825-70.628,18.025-19.022,8.75-38.5,18.354-59.709,21.212-18.436,2.488-36.45-9.727-54.115-13.531-18.971-4.113-42.291,3.774-48.707,22.415-5.933,17.253,1.121,37.335,6.529,53.9,6.447,19.793,12.154,39.72,8.154,60.583-2.18,11.413-6.663,22.312-10.92,33.211-6.457,16.523-12.945,32.214-4.216,49.354,8.945,17.562,29.068,18.971,48.326,19.7,22.621.853,45.242-.524,67.862-.524H432.12c13.583,0,30.158-2.92,42.239-8.555,14.786-6.9,18.611-18.8,19.382-32.574C494.142,389.128,492.456,382.928,490.389,376.183Z" transform="translate(0.047 0.672)" fill="#f1eefd"/>
    <g id="Grupo_55862" data-name="Grupo 55862" transform="translate(358.726 214.717)">
      <g id="Grupo_55860" data-name="Grupo 55860">
        <path id="Trazado_113000" data-name="Trazado 113000" d="M378.94,460.495c16.4,3.28,37.355-14.611,44.1-34.147,6.951-20.112-5.789-28.533-5.686-56.439.113-31.7,16.6-36.481,27.5-79.173,2.457-9.634,16.7-65.426-.946-75.883-16.318-9.665-62.156,18.086-70.186,53.591-5.737,25.325,11.979,35.988,5.213,65.446-5.933,25.88-21.531,26.261-27.5,51.226C344.155,415.479,357.4,456.186,378.94,460.495Z" transform="translate(-349.424 -212.911)" fill="#bdd0fb"/>
        <path id="Trazado_113001" data-name="Trazado 113001" d="M379.323,466.66c-4.421-34.147,4.205-86.833,12.215-125.021,8.688-41.345,18.508-75.06,18.631-75.4l1.368.4c-.1.329-9.933,34.013-18.6,75.3-8,38.044-16.606,90.6-12.2,124.548Z" transform="translate(-348.614 -211.407)" fill="#91b3fa"/>
      </g>
      <g id="Grupo_55861" data-name="Grupo 55861" transform="translate(25.853 72.241)">
        <path id="Trazado_113002" data-name="Trazado 113002" d="M397.119,454.708c-21.51-11.218-28.883-49.725-16.647-62.238,8.226-8.452,20.112.442,31.556-8.318,14.6-11.2,3.856-32.276,15.331-59.637,9.768-23.258,33.2-45.242,46.9-40.759,14.333,4.73,21.88,39.8,9.645,60.922-7.969,13.727-20.153,14.4-22.8,27.166-3.085,14.817,11.753,21.593,11.835,35.936C473.084,433.609,425.59,469.524,397.119,454.708Z" transform="translate(-374.568 -283.17)" fill="#bdd0fb"/>
        <path id="Trazado_113003" data-name="Trazado 113003" d="M407.824,463.137a.832.832,0,0,1-.38-.093.874.874,0,0,1-.411-1.172c28.533-58.783,36.9-126.985,37.016-127.664a.884.884,0,0,1,1.748.206c-.082.679-8.483,69.179-37.139,128.229A.884.884,0,0,1,407.824,463.137Z" transform="translate(-373.654 -281.75)" fill="#91b3fa"/>
        <path id="Trazado_113004" data-name="Trazado 113004" d="M464.742,353.087a.453.453,0,0,1-.257-.082.432.432,0,0,1-.082-.6c9.007-11.557,18.991-28.924,15.423-46.013a29.983,29.983,0,0,0-8.226-15.536.411.411,0,0,1,0-.586.422.422,0,0,1,.586,0c.257.226,6.3,5.552,8.493,16.009,2.056,9.6.967,25.5-15.547,46.7a.421.421,0,0,1-.391.1Z" transform="translate(-372.035 -282.973)" fill="url(#linear-gradient)"/>
        <path id="Trazado_113005" data-name="Trazado 113005" d="M395.06,446.585a.432.432,0,0,1-.35-.175c-13.84-20.2-18.508-35.8-14.025-46.393,4.031-9.4,14.2-11.156,14.3-11.166a.417.417,0,1,1,.134.823c-.093,0-9.83,1.707-13.675,10.693-4.4,10.282.3,25.623,13.953,45.571a.411.411,0,0,1-.1.576.4.4,0,0,1-.237.072Z" transform="translate(-374.441 -280.188)" fill="#f0f0f0"/>
      </g>
    </g>
    <g id="Grupo_55863" data-name="Grupo 55863" transform="translate(43.333 234.588)">
      <path id="Trazado_113006" data-name="Trazado 113006" d="M127.518,451c-18,3.259-41.365-12.195-49.118-29.407-7.989-17.727,5.892-25.469,5.316-50.249-.658-28.163-18.888-32.06-31.607-69.785-2.879-8.514-19.536-57.765-.236-67.42,17.809-8.935,68.736,14.765,78.145,46.136,6.725,22.384-12.585,32.194-4.648,58.249,6.961,22.868,24.143,22.878,31.134,44.923C165.058,410.317,151.167,446.747,127.518,451Z" transform="translate(-42.687 -232.238)" fill="#91b3fa"/>
      <path id="Trazado_113007" data-name="Trazado 113007" d="M125.257,469.022c3.362-30.415-5.141-77.116-12.945-110.863C103.9,321.586,94.586,291.8,94.493,291.5l-1.2.38c.093.288,9.4,30.045,17.788,66.577,7.742,33.684,16.266,80.2,12.925,110.42Z" transform="translate(-41.259 -230.566)" fill="#7d97f4"/>
    </g>
    <g id="Grupo_55864" data-name="Grupo 55864" transform="translate(19.804 330.03)">
      <path id="Trazado_113008" data-name="Trazado 113008" d="M94.675,458.471c16.709-9.12,21.911-39.422,12.133-49.046-6.6-6.509-15.763.638-24.862-6.066-11.619-8.555-3.506-25.243-12.914-46.506-8-18.1-26.734-35.011-37.376-31.268C20.489,329.5,15.091,357.12,25,373.489c6.447,10.652,16.009,11,18.271,20.976,2.622,11.567-8.894,17.089-8.75,28.358C34.791,443.058,72.568,470.522,94.675,458.471Z" transform="translate(-19.804 -325.06)" fill="#bdd0fb"/>
      <path id="Trazado_113009" data-name="Trazado 113009" d="M84.778,465.266a.668.668,0,0,0,.3-.072.689.689,0,0,0,.3-.925C62.126,418.6,54.528,365.241,54.528,364.706a.69.69,0,0,0-1.368.185c.082.535,7.681,54.125,31.032,100a.679.679,0,0,0,.586.37Z" transform="translate(-18.863 -323.958)" fill="#91b3fa"/>
      <path id="Trazado_113010" data-name="Trazado 113010" d="M38.031,379.726a.226.226,0,0,1-.185-.082c-5.84-7.2-9.819-14.261-11.825-20.965a32.307,32.307,0,0,1-1.008-15.331,24.071,24.071,0,0,1,6.4-12.616.229.229,0,1,1,.319.329,23.536,23.536,0,0,0-6.252,12.39c-1.491,7.434-.38,19.711,12.729,35.885a.216.216,0,0,1,0,.319.2.2,0,0,1-.175.072Z" transform="translate(-19.671 -324.902)" fill="url(#linear-gradient-2)"/>
      <path id="Trazado_113011" data-name="Trazado 113011" d="M94.029,452.006a.175.175,0,0,1-.123,0,.226.226,0,0,1-.072-.319c5.717-8.678,9.367-16.349,10.858-22.8,1.213-5.234,1.028-9.7-.586-13.243-3.177-7.043-10.879-8.226-10.951-8.226a.228.228,0,0,1,.062-.452c.082,0,8.03,1.224,11.31,8.493,1.645,3.65,1.851,8.226.617,13.542-1.5,6.5-5.141,14.22-10.92,22.95A.267.267,0,0,1,94.029,452.006Z" transform="translate(-17.74 -322.749)" fill="#f0f0f0"/>
    </g>
    <g id="Grupo_55870" data-name="Grupo 55870" transform="translate(289.669 148.94)">
      <g id="Grupo_55868" data-name="Grupo 55868">
        <circle id="Elipse_4180" data-name="Elipse 4180" cx="68.747" cy="68.747" r="68.747" transform="translate(0 97.223) rotate(-45)" fill="#91b3fa"/>
        <g id="Grupo_55865" data-name="Grupo 55865" transform="translate(36.427 36.44)">
          <circle id="Elipse_4181" data-name="Elipse 4181" cx="58.67" cy="58.67" r="58.67" transform="translate(2.118 2.118)" fill="url(#linear-gradient-3)"/>
          <path id="Trazado_113012" data-name="Trazado 113012" d="M378.478,305.936a60.778,60.778,0,1,1,60.768-60.771A60.78,60.78,0,0,1,378.478,305.936Zm0-117.351a56.552,56.552,0,1,0,56.552,56.552,56.552,56.552,0,0,0-56.552-56.552Z" transform="translate(-317.69 -184.38)" fill="url(#linear-gradient-4)"/>
        </g>
        <g id="Grupo_55866" data-name="Grupo 55866" transform="translate(52.109 52.122)">
          <circle id="Elipse_4182" data-name="Elipse 4182" cx="35.772" cy="35.772" r="35.772" transform="translate(0 67.996) rotate(-71.88)" fill="url(#linear-gradient-5)"/>
          <path id="Trazado_113013" data-name="Trazado 113013" d="M377.849,282.409a37.869,37.869,0,1,1,37.869-37.869,37.869,37.869,0,0,1-37.869,37.869Zm0-71.543a33.674,33.674,0,1,0,33.674,33.674,33.674,33.674,0,0,0-33.674-33.674Z" transform="translate(-332.743 -199.434)" fill="url(#linear-gradient-6)"/>
        </g>
        <g id="Grupo_55867" data-name="Grupo 55867" transform="translate(81.257 81.249)">
          <path id="Trazado_113014" data-name="Trazado 113014" d="M388.244,235.007c9.161,14.066-5.861,29.088-19.927,19.927a7.464,7.464,0,0,1-2.18-2.18c-9.161-14.066,5.861-29.088,19.927-19.927a7.465,7.465,0,0,1,2.18,2.18Z" transform="translate(-361.232 -227.902)" fill="#ef2a66"/>
          <path id="Trazado_113015" data-name="Trazado 113015" d="M377.248,259.876a15.958,15.958,0,1,1,15.958-15.948A15.958,15.958,0,0,1,377.248,259.876Zm0-27.71a11.758,11.758,0,1,1,0,.01Z" transform="translate(-361.29 -227.96)" fill="url(#linear-gradient-7)"/>
        </g>
      </g>
      <g id="Grupo_55869" data-name="Grupo 55869" transform="translate(96.926 25.51)">
        <rect id="Rectángulo_5540" data-name="Rectángulo 5540" width="2.036" height="77.014" transform="translate(11.891 63.184) rotate(-135)" fill="#12263f"/>
        <path id="Trazado_113016" data-name="Trazado 113016" d="M388,230.433c.823-.823,4.709,3.085,3.887,3.887l-14.4,11.31a.567.567,0,0,1-.8-.8Z" transform="translate(-376.528 -172.154)" fill="#12263f"/>
        <path id="Trazado_113017" data-name="Trazado 113017" d="M441.419,182.27l7.321.73-10.056,10.056a15.578,15.578,0,0,1-12.534,4.483h0Z" transform="translate(-375.128 -173.51)" fill="url(#linear-gradient-8)"/>
        <path id="Trazado_113018" data-name="Trazado 113018" d="M440.051,181.071l-.73-7.321-10.056,10.056a15.526,15.526,0,0,0-4.483,12.534h0Z" transform="translate(-375.169 -173.75)" fill="url(#linear-gradient-9)"/>
      </g>
    </g>
    <g id="Grupo_55881" data-name="Grupo 55881" transform="translate(49.084 267.37)">
      <g id="Grupo_55872" data-name="Grupo 55872" transform="translate(279.326)">
        <rect id="Rectángulo_5541" data-name="Rectángulo 5541" width="89.661" height="204.657" rx="7" transform="translate(26.435)" fill="#ef2a66"/>
        <rect id="Rectángulo_5542" data-name="Rectángulo 5542" width="89.661" height="204.657" rx="7" transform="translate(0)" fill="#ef2a66"/>
        <g id="Grupo_55871" data-name="Grupo 55871" transform="translate(6.838 6.324)" opacity="0.61">
          <path id="Trazado_113019" data-name="Trazado 113019" d="M327.156,301.2a.565.565,0,0,1-.565-.565V285.1a14.847,14.847,0,0,1,14.817-14.827h23.577a.576.576,0,0,1,0,1.141H341.407A13.7,13.7,0,0,0,327.721,285.1v15.536A.576.576,0,0,1,327.156,301.2Z" transform="translate(-326.59 -270.27)" fill="#fff"/>
          <path id="Trazado_113020" data-name="Trazado 113020" d="M327.156,316.573a.566.566,0,0,1-.565-.565v-6.334a.576.576,0,0,1,1.141,0v6.334A.576.576,0,0,1,327.156,316.573Z" transform="translate(-326.59 -269.172)" fill="#fff"/>
        </g>
      </g>
      <g id="Grupo_55874" data-name="Grupo 55874" transform="translate(200.256 43.874)">
        <rect id="Rectángulo_5543" data-name="Rectángulo 5543" width="74.813" height="170.767" rx="5" transform="translate(22.055)" fill="url(#linear-gradient-10)"/>
        <rect id="Rectángulo_5544" data-name="Rectángulo 5544" width="74.813" height="170.767" rx="5" fill="url(#linear-gradient-11)"/>
        <g id="Grupo_55873" data-name="Grupo 55873" transform="translate(5.707 5.357)">
          <path id="Trazado_113021" data-name="Trazado 113021" d="M249.063,337.705a.463.463,0,0,1-.473-.473V324.339A12.339,12.339,0,0,1,260.929,312H280.6a.473.473,0,0,1,.473.473.483.483,0,0,1-.473.473H260.959a11.434,11.434,0,0,0-11.423,11.393v12.956a.473.473,0,0,1-.473.411Z" transform="translate(-248.59 -312)" fill="#bdd0fb"/>
          <path id="Trazado_113022" data-name="Trazado 113022" d="M249.063,350.561a.473.473,0,0,1-.473-.473V344.8a.473.473,0,0,1,.473-.473.483.483,0,0,1,.473.473v5.285a.483.483,0,0,1-.473.473Z" transform="translate(-248.59 -311.088)" fill="#bdd0fb"/>
        </g>
      </g>
      <g id="Grupo_55876" data-name="Grupo 55876" transform="translate(129.36 79.142)">
        <rect id="Rectángulo_5545" data-name="Rectángulo 5545" width="75.965" height="135.488" rx="7" transform="translate(19.289)" fill="#ef2a66"/>
        <rect id="Rectángulo_5546" data-name="Rectángulo 5546" width="75.965" height="135.488" rx="7" fill="#ef2a66"/>
        <g id="Grupo_55875" data-name="Grupo 55875" transform="translate(4.576 5.974)" opacity="0.59">
          <path id="Trazado_113023" data-name="Trazado 113023" d="M179.013,366.241a.483.483,0,0,1-.473-.473v-9.614a9.254,9.254,0,0,1,9.254-9.254h14.59a.473.473,0,0,1,.473.473.483.483,0,0,1-.473.473H187.876a8.359,8.359,0,0,0-8.349,8.349v9.614A.483.483,0,0,1,179.013,366.241Z" transform="translate(-178.54 -346.9)" fill="#fff"/>
          <path id="Trazado_113024" data-name="Trazado 113024" d="M179.013,375.753a.483.483,0,0,1-.473-.473v-3.918a.473.473,0,0,1,.946,0v3.918a.483.483,0,0,1-.473.473Z" transform="translate(-178.54 -346.223)" fill="#fff"/>
        </g>
      </g>
      <g id="Grupo_55878" data-name="Grupo 55878" transform="translate(62.742 118.934)">
        <rect id="Rectángulo_5547" data-name="Rectángulo 5547" width="65.456" height="95.696" rx="5" transform="translate(19.3)" fill="url(#linear-gradient-12)"/>
        <rect id="Rectángulo_5548" data-name="Rectángulo 5548" width="65.456" height="95.696" rx="5" fill="url(#linear-gradient-13)"/>
        <g id="Grupo_55877" data-name="Grupo 55877" transform="translate(4.935 4.596)">
          <path id="Trazado_113025" data-name="Trazado 113025" d="M114.573,406.932a.473.473,0,0,1-.473-.483v-11.31a10.9,10.9,0,0,1,10.879-10.878h17.212a.473.473,0,0,1,.473.473.463.463,0,0,1-.473.473H124.979a9.943,9.943,0,0,0-9.933,9.933v11.31a.483.483,0,0,1-.473.483Z" transform="translate(-114.1 -384.26)" fill="#bdd0fb"/>
          <path id="Trazado_113026" data-name="Trazado 113026" d="M114.573,418.153a.473.473,0,0,1-.473-.473v-4.617a.463.463,0,0,1,.473-.473.473.473,0,0,1,.473.473v4.617A.483.483,0,0,1,114.573,418.153Z" transform="translate(-114.1 -383.461)" fill="#bdd0fb"/>
        </g>
      </g>
      <g id="Grupo_55880" data-name="Grupo 55880" transform="translate(0 167.075)">
        <rect id="Rectángulo_5549" data-name="Rectángulo 5549" width="65.456" height="47.555" rx="7" transform="translate(19.3)" fill="#ef2a66"/>
        <rect id="Rectángulo_5550" data-name="Rectángulo 5550" width="65.456" height="47.555" rx="7" fill="#ef2a66"/>
        <g id="Grupo_55879" data-name="Grupo 55879" transform="translate(4.185 3.815)" opacity="0.51">
          <path id="Trazado_113027" data-name="Trazado 113027" d="M52.823,452.982a.463.463,0,0,1-.473-.473V441.2A10.9,10.9,0,0,1,63.229,430.32H80.441a.473.473,0,0,1,0,.946H63.229A9.943,9.943,0,0,0,53.3,441.2v11.31a.473.473,0,0,1-.473.473Z" transform="translate(-52.35 -430.32)" fill="#fff"/>
          <path id="Trazado_113028" data-name="Trazado 113028" d="M52.823,464.213a.473.473,0,0,1-.473-.473v-4.627a.473.473,0,0,1,.473-.473.483.483,0,0,1,.473.473v4.627a.483.483,0,0,1-.473.473Z" transform="translate(-52.35 -429.521)" fill="#fff"/>
        </g>
      </g>
    </g>
    <g id="Grupo_55883" data-name="Grupo 55883" transform="translate(131.634 184.761)">
      <path id="Trazado_113029" data-name="Trazado 113029" d="M208.322,214.88l-6.642,15.279c5.532,7.413,10.909,11.125,15.9,12.472a25.13,25.13,0,0,1,3.969-12.74C212.507,226.581,208.322,214.88,208.322,214.88Z" transform="translate(-126.502 -182.9)" fill="url(#linear-gradient-14)"/>
      <path id="Trazado_113030" data-name="Trazado 113030" d="M241.056,223.75c-8.226,6.961-14.868,7.742-19.937,5.892a25.13,25.13,0,0,0-3.979,12.74c15.855,4.3,27.762-15.218,27.762-15.218Z" transform="translate(-126.066 -182.65)" fill="url(#linear-gradient-15)"/>
      <path id="Trazado_113031" data-name="Trazado 113031" d="M241.311,226.294s-3.2-3.9-.2-7.8c0,0,.925-1.5,2.509.206,0,0,3.239-4.113,4.524-2.889s4.637,4.226,2.591,8.627S242.843,228,241.311,226.294Z" transform="translate(-125.426 -182.88)" fill="url(#linear-gradient-16)"/>
      <path id="Trazado_113032" data-name="Trazado 113032" d="M244.616,223.224a2.262,2.262,0,0,1-1.193-.093,1.985,1.985,0,0,1-1.172-1.388.524.524,0,0,1,.36-.668.545.545,0,0,1,.679.36c.165.545.432.648.514.679a1.7,1.7,0,0,0,1.08-.082l-1.285-2.519a.545.545,0,0,1,.237-.73.535.535,0,0,1,.73.236l1.542,3.013a.535.535,0,0,1-.206.709A3.723,3.723,0,0,1,244.616,223.224Z" transform="translate(-125.358 -182.792)" fill="url(#linear-gradient-17)"/>
      <path id="Trazado_113033" data-name="Trazado 113033" d="M129.331,334.91a2.416,2.416,0,0,0-.6,2.653c1.4,3.763,5.583,13.644,12.575,18.734a.915.915,0,0,0,1.316-.216,34.816,34.816,0,0,1-7.064-7.907C131.069,341.717,129.67,337.491,129.331,334.91Z" transform="translate(-128.565 -179.513)" fill="#91b3fa"/>
      <path id="Trazado_113034" data-name="Trazado 113034" d="M136.99,333.52a8.452,8.452,0,0,0-7.66,1.419h0c.339,2.581,1.686,6.807,6.231,13.264a34.814,34.814,0,0,0,7.064,7.907,1.029,1.029,0,0,0,.175-.483C143.242,351.565,143.8,340.347,136.99,333.52Z" transform="translate(-128.544 -179.563)" fill="#12263f"/>
      <path id="Trazado_113035" data-name="Trazado 113035" d="M142.439,332.969l-2.93,3.928a1.841,1.841,0,0,1-2.242.6,4.874,4.874,0,0,1-2.139-1.882,1.882,1.882,0,0,1,0-2.056l2.838-4.411a1.861,1.861,0,0,1,2.992-.2l1.4,1.655a1.871,1.871,0,0,1,.082,2.365Z" transform="translate(-128.389 -179.7)" fill="url(#linear-gradient-18)"/>
      <path id="Trazado_113036" data-name="Trazado 113036" d="M245.37,298.027a2.4,2.4,0,0,0,2.714,0c3.414-2.139,12.226-8.226,15.783-16.122a.9.9,0,0,0-.473-1.244,34.62,34.62,0,0,1-6.3,8.514C251.694,294.983,247.827,297.163,245.37,298.027Z" transform="translate(-125.269 -181.044)" fill="#91b3fa"/>
      <path id="Trazado_113037" data-name="Trazado 113037" d="M242.481,290.8a8.452,8.452,0,0,0,2.951,7.2h0c2.457-.864,6.324-3.085,11.722-8.812a34.622,34.622,0,0,0,6.3-8.514,1.029,1.029,0,0,0-.5-.072C258.881,281.011,247.787,282.749,242.481,290.8Z" transform="translate(-125.352 -181.046)" fill="#12263f"/>
      <path id="Trazado_113038" data-name="Trazado 113038" d="M242.86,285.307l4.175,2.571a1.841,1.841,0,0,1,.792,2.17,4.843,4.843,0,0,1-1.686,2.3,1.851,1.851,0,0,1-1.995.165l-4.648-2.375a1.861,1.861,0,0,1-.463-2.961l1.532-1.542A1.882,1.882,0,0,1,242.86,285.307Z" transform="translate(-125.463 -180.92)" fill="url(#linear-gradient-19)"/>
      <path id="Trazado_113039" data-name="Trazado 113039" d="M167.241,266.047s-3.085,25.407-5.861,36.831c0,0-7.825,2.571-12.339,6.313s-12.462,21.634-12.462,21.634,3.691,4.843,7.2,5.09l26.95-26.25,19.588-32.389-3.362-12.935Z" transform="translate(-128.339 -181.505)" fill="#12263f"/>
      <path id="Trazado_113040" data-name="Trazado 113040" d="M166.527,264.195l-.967,6.982s4.822,17.079,26.25,10.457,23.556-10.652,23.556-10.652,0,11.423,26.168,20.76c0,0,3.187-3.362,3.465-6.622l-21.408-24.873c-2.951-3.239-5.275-3.825-9.429-2.447-9.182,3.085-26.528,7.948-29.273,7.938Z" transform="translate(-127.521 -181.709)" fill="#12263f"/>
      <path id="Trazado_113041" data-name="Trazado 113041" d="M175.688,213.268c-6.334,1.4-15.927,6.169-21.438,13.233a79.87,79.87,0,0,1,9,8.113,20.42,20.42,0,0,1,8.39-6.1,275.044,275.044,0,0,1-6.611,40.275,1.4,1.4,0,0,0,1.121,1.738c4.236.72,16.6,2.056,25.171-4.884l15.937-33.571a25.994,25.994,0,0,0,2.519-11.567l-.082-5.563S189.487,210.225,175.688,213.268Z" transform="translate(-127.841 -182.975)" fill="url(#linear-gradient-20)"/>
      <path id="Trazado_113042" data-name="Trazado 113042" d="M171.992,260.278c-1.244-1.861-4.689-3.218-6.313-3.774-1.748-2.457-8.946-13.614-2.344-22.271a79.872,79.872,0,0,0-8.966-8.123c-6.365,8.226-7.29,19.536,8.462,32.564-.093,3.876,2.992,7.845,4.37,8.226C167.838,267.126,173.647,262.756,171.992,260.278Z" transform="translate(-127.959 -182.583)" fill="url(#linear-gradient-21)"/>
      <path id="Trazado_113043" data-name="Trazado 113043" d="M172.336,228.031a.545.545,0,0,1-.288-1.028l5.624-2.242a.545.545,0,0,1,.7.308.535.535,0,0,1-.3.7l-5.624,2.241A.236.236,0,0,1,172.336,228.031Z" transform="translate(-127.347 -182.622)" fill="url(#linear-gradient-22)"/>
      <path id="Trazado_113044" data-name="Trazado 113044" d="M187.683,203.16,184,214.82a1.779,1.779,0,0,0,.6,1.943c1.573,1.265,5.141,3.136,10.282.494a1.655,1.655,0,0,0,.895-1.532l-.206-9.984Z" transform="translate(-127.003 -183.231)" fill="url(#linear-gradient-23)"/>
      <g id="Grupo_55882" data-name="Grupo 55882" transform="translate(52.673)">
        <path id="Trazado_113045" data-name="Trazado 113045" d="M198.919,191.63s2.756,7.691,2.7,11.629.637,6.55-3.959,7.033a9.676,9.676,0,0,1-10.066-6.087s-2.838-6.231-1.943-8.658S198.919,191.63,198.919,191.63Z" transform="translate(-179.632 -183.556)" fill="url(#linear-gradient-24)"/>
        <path id="Trazado_113046" data-name="Trazado 113046" d="M189.5,201.722l.267-.093a.617.617,0,0,0,.36-.833c-.555-1.285-1.614-4.2,0-4.75,2.139-.709,10.478-1.841,12.441-4.637a5.429,5.429,0,0,0-1.573-7.588.3.3,0,0,0-.411.1l-.216.35a.308.308,0,0,1-.566-.1h0a.308.308,0,0,0-.555-.113c-.6.833-2.17,2.149-6.169,2.612-5.676.658-9.521,2.673-9.871,6.529a.308.308,0,0,1-.494.226,1.594,1.594,0,0,0-1.984.247c-1.625,1.182-1.224,4.576,1.964,7.568a.308.308,0,0,1,0,.494c-.637.35-1.614,1.234.658,2.653a7.948,7.948,0,0,0,4.884,1.419.308.308,0,0,0,.278-.35L187.985,202a.308.308,0,0,1,.329-.35Z" transform="translate(-179.793 -183.778)" fill="#12263f"/>
        <path id="Trazado_113047" data-name="Trazado 113047" d="M189.428,202.046s-.915-4.863-3.146-3.66.751,5.419,2.457,5.717Z" transform="translate(-179.632 -183.371)" fill="url(#linear-gradient-25)"/>
      </g>
    </g>
    <g id="Grupo_55884" data-name="Grupo 55884" transform="translate(63.994 240.331)">
      <path id="Trazado_113048" data-name="Trazado 113048" d="M63.675,424.529a.9.9,0,0,1-.329-.062.9.9,0,0,1-.5-1.162s.473-1.2,1.409-3.352a.895.895,0,0,1,1.635.709c-.915,2.108-1.378,3.28-1.388,3.3a.884.884,0,0,1-.823.566Zm2.858-6.591a.925.925,0,0,1-.37-.082.884.884,0,0,1-.442-1.182c.483-1.028,1.028-2.149,1.511-3.249a.888.888,0,0,1,1.6.761c-.514,1.09-1.028,2.18-1.5,3.229A.884.884,0,0,1,66.533,417.938Zm3.085-6.457a.873.873,0,0,1-.391-.093.9.9,0,0,1-.411-1.193c.514-1.028,1.028-2.128,1.594-3.208a.895.895,0,0,1,1.594.8c-.545,1.028-1.028,2.139-1.583,3.187a.9.9,0,0,1-.833.493Zm3.208-6.375a.874.874,0,0,1-.411-.1.884.884,0,0,1-.38-1.193c.545-1.028,1.11-2.118,1.666-3.167a.884.884,0,0,1,1.2-.37.9.9,0,0,1,.339,1.213l-1.655,3.085a.874.874,0,0,1-.792.524Zm3.352-6.293A.895.895,0,0,1,75.4,397.5c.566-1.028,1.152-2.056,1.727-3.136a.9.9,0,0,1,1.213-.339.884.884,0,0,1,.339,1.213c-.576,1.028-1.152,2.056-1.717,3.085a.9.9,0,0,1-.812.483Zm3.475-6.231a.884.884,0,0,1-.442-.113.9.9,0,0,1-.329-1.213c.586-1.028,1.193-2.056,1.789-3.085a.9.9,0,0,1,1.224-.319.884.884,0,0,1,.319,1.213c-.6,1.028-1.2,2.056-1.779,3.085a.9.9,0,0,1-.812.422Zm3.609-6.169a.946.946,0,0,1-.463-.123.884.884,0,0,1-.3-1.224c.607-1.028,1.224-2.056,1.841-3.085a.895.895,0,1,1,1.522.925c-.617,1.028-1.234,2.056-1.841,3.085a.884.884,0,0,1-.792.432Zm3.722-6.077a.864.864,0,0,1-.473-.134.895.895,0,0,1-.288-1.234c.637-1.028,1.275-2.056,1.912-3.013a.895.895,0,1,1,1.5.956c-.637,1.028-1.275,2.005-1.9,3a.9.9,0,0,1-.781.432Zm3.784-5.995a.915.915,0,0,1-.483-.144.884.884,0,0,1-.257-1.234c.648-1.028,1.306-2.005,1.964-2.982a.884.884,0,0,1,1.234-.247.9.9,0,0,1,.247,1.234c-.648.977-1.306,1.974-1.954,2.972A.915.915,0,0,1,90.768,374.342Zm3.948-5.933a.894.894,0,0,1-.494-.154.884.884,0,0,1-.236-1.234l2.056-2.941a.895.895,0,1,1,1.46,1.028c-.679.967-1.347,1.954-2.056,2.92a.884.884,0,0,1-.709.38Zm4.113-5.851a.884.884,0,0,1-.72-1.4c.679-.967,1.378-1.943,2.056-2.91a.9.9,0,0,1,1.244-.2.884.884,0,0,1,.2,1.244l-2.056,2.889a.884.884,0,0,1-.74.37Zm4.185-5.768a.874.874,0,0,1-.535-.175.9.9,0,0,1-.185-1.244l2.139-2.858a.895.895,0,1,1,1.419,1.08c-.709.936-1.419,1.892-2.128,2.838a.884.884,0,0,1-.73.36Zm4.3-5.676a.895.895,0,0,1-.709-1.44c.72-.936,1.46-1.882,2.2-2.817a.895.895,0,0,1,1.4,1.1q-1.11,1.409-2.19,2.807a.9.9,0,0,1-.72.339Zm4.4-5.6a.874.874,0,0,1-.555-.2.9.9,0,0,1-.134-1.254l2.252-2.766a.895.895,0,0,1,1.378,1.131c-.751.9-1.5,1.841-2.242,2.756a.9.9,0,0,1-.72.329Zm4.524-5.5a.935.935,0,0,1-.576-.206.9.9,0,0,1-.1-1.254c.761-.9,1.532-1.83,2.3-2.725a.895.895,0,0,1,1.357,1.152l-2.3,2.715a.884.884,0,0,1-.7.319Zm4.637-5.408a.853.853,0,0,1-.586-.226.884.884,0,0,1-.082-1.254c.781-.895,1.573-1.789,2.365-2.673a.895.895,0,1,1,1.326,1.193l-2.355,2.653a.874.874,0,0,1-.689.36Zm4.75-5.306a.915.915,0,0,1-.607-.237.884.884,0,0,1-.051-1.254c.792-.874,1.614-1.758,2.416-2.632a.915.915,0,0,1,1.265,0,.9.9,0,0,1,0,1.265c-.8.853-1.614,1.738-2.406,2.6a.9.9,0,0,1-.638.257Zm4.853-5.213a.864.864,0,0,1-.607-.247.884.884,0,0,1,0-1.254c.812-.853,1.645-1.727,2.478-2.571a.895.895,0,1,1,1.275,1.244c-.823.843-1.655,1.7-2.468,2.55a.884.884,0,0,1-.7.278Zm4.977-5.141a.884.884,0,0,1-.627-1.511c.833-.843,1.686-1.686,2.54-2.519a.884.884,0,0,1,1.254,0,.9.9,0,0,1,0,1.254l-2.529,2.5a.864.864,0,0,1-.658.319Zm5.09-4.977a.884.884,0,0,1-.617-1.532c.853-.823,1.727-1.645,2.591-2.457a.895.895,0,1,1,1.224,1.3c-.864.812-1.727,1.625-2.581,2.447a.9.9,0,0,1-.637.288Zm5.2-4.863a.895.895,0,0,1-.607-1.553c.874-.8,1.769-1.6,2.653-2.4a.9.9,0,0,1,1.254.072.884.884,0,0,1-.072,1.254l-2.684,2.468a.894.894,0,0,1-.566.2Zm5.306-4.75a.895.895,0,0,1-.586-1.563l2.715-2.324a.884.884,0,0,1,1.254.1.9.9,0,0,1-.1,1.254c-.895.751-1.8,1.532-2.694,2.313a.884.884,0,0,1-.607.257Zm5.429-4.606a.884.884,0,0,1-.689-.329.9.9,0,0,1,.123-1.254c.915-.761,1.84-1.522,2.756-2.262a.895.895,0,1,1,1.121,1.388c-.9.73-1.83,1.491-2.745,2.252a.915.915,0,0,1-.586.247Zm5.532-4.483a.884.884,0,0,1-.7-.339.9.9,0,0,1,.154-1.254c.925-.73,1.871-1.47,2.817-2.19a.887.887,0,0,1,1.08,1.409l-2.8,2.18a.874.874,0,0,1-.576.236Zm5.645-4.339a.895.895,0,0,1-.535-1.6L170,287.19a.895.895,0,1,1,1.028,1.439l-2.858,2.108a.884.884,0,0,1-.535.226Zm5.758-4.2a.9.9,0,0,1-.73-.38.874.874,0,0,1,.216-1.234l2.92-2.056a.9.9,0,1,1,1.028,1.47c-.967.668-1.943,1.347-2.9,2.056a.874.874,0,0,1-.555.185Zm5.861-4.051a.874.874,0,0,1-.74-.391.9.9,0,0,1,.236-1.234c1.028-.668,1.995-1.326,2.982-1.974a.895.895,0,0,1,.977,1.491l-2.961,1.964a.885.885,0,0,1-.514.185Zm5.964-3.887a.895.895,0,0,1-.483-1.645l3.085-1.892a.895.895,0,0,1,.936,1.522c-1.028.617-2.056,1.244-3.013,1.882a.915.915,0,0,1-.545.175Zm6.066-3.722a.9.9,0,0,1-.771-.442.884.884,0,0,1,.308-1.213c1.028-.617,2.056-1.224,3.085-1.81a.889.889,0,0,1,.884,1.542l-3.085,1.789a.823.823,0,0,1-.442.175Zm6.169-3.568a.9.9,0,0,1-.781-.452.9.9,0,0,1,.35-1.213c1.028-.576,2.056-1.162,3.085-1.717a.884.884,0,0,1,1.2.35.9.9,0,0,1-.36,1.213c-1.028.555-2.056,1.131-3.085,1.707a.823.823,0,0,1-.442.154Zm6.262-3.393a.884.884,0,0,1-.411-1.676L206.5,264.8a.895.895,0,0,1,.8,1.594c-1.028.524-2.118,1.028-3.157,1.625a1.029,1.029,0,0,1-.442.134Zm6.3-3.167a.9.9,0,0,1-.8-.5.884.884,0,0,1,.411-1.182c1.028-.524,2.149-1.028,3.218-1.553a.895.895,0,0,1,.761,1.614c-1.028.5-2.149,1.028-3.2,1.532a.946.946,0,0,1-.391.092Zm6.437-3.033a.894.894,0,0,1-.812-.524.884.884,0,0,1,.442-1.172c1.08-.494,2.18-1.028,3.27-1.46a.895.895,0,0,1,.709,1.635l-3.239,1.44a.967.967,0,0,1-.35.082ZM223,259.058a.884.884,0,0,1-.339-1.707c1.09-.463,2.2-.915,3.3-1.368a.895.895,0,0,1,.668,1.655l-3.218,1.347a.822.822,0,0,1-.391.072Zm6.611-2.663a.884.884,0,0,1-.329-1.717c1.11-.432,2.231-.853,3.342-1.265a.888.888,0,1,1,.617,1.666l-3.311,1.254a.917.917,0,0,1-.3.062Zm6.673-2.468a.884.884,0,0,1-.3-1.727l3.373-1.162a.884.884,0,0,1,1.131.555.9.9,0,0,1-.555,1.131c-1.121.37-2.252.761-3.352,1.152a.791.791,0,0,1-.278.051Zm6.745-2.272a.9.9,0,0,1-.853-.617.9.9,0,0,1,.576-1.121l3.414-1.028a.895.895,0,1,1,.514,1.707c-1.121.339-2.262.7-3.383,1.028a.8.8,0,0,1-.247.031Zm6.807-2.056a.895.895,0,0,1-.247-1.748c1.131-.329,2.293-.648,3.434-.967a.895.895,0,1,1,.473,1.717c-1.141.308-2.283.637-3.414.967a1.028,1.028,0,0,1-.226.01Zm6.858-1.882a.884.884,0,0,1-.216-1.748c1.141-.3,2.3-.586,3.465-.874a.889.889,0,1,1,.422,1.727l-3.444.864a.8.8,0,0,1-.206.01Zm6.92-1.676a.9.9,0,0,1-.864-.7.874.874,0,0,1,.668-1.028c1.152-.267,2.324-.524,3.486-.771a.888.888,0,1,1,.37,1.738l-3.465.761a.647.647,0,0,1-.175-.021Zm116.59-.483h-.175l-3.486-.668a.884.884,0,0,1-.709-1.028.874.874,0,0,1,1.028-.709l3.506.668a.884.884,0,0,1-.165,1.758Zm-109.629-1.028a.895.895,0,0,1-.175-1.769l3.516-.668a.888.888,0,1,1,.319,1.748l-3.486.668Zm102.626-.288h-.154l-3.5-.6a.895.895,0,0,1-.74-1.028.9.9,0,0,1,1.028-.74l3.517.6a.895.895,0,0,1-.154,1.769Zm-95.624-1.028a.895.895,0,0,1-.144-1.769l3.527-.576a.895.895,0,0,1,.267,1.769c-1.162.175-2.344.37-3.506.566Zm88.6-.144h-.134l-3.506-.514a.888.888,0,1,1,.247-1.758c1.162.165,2.355.329,3.527.514a.894.894,0,0,1,.751,1.028.9.9,0,0,1-.864.8Zm-81.569-.946a.886.886,0,0,1-.123-1.768l3.537-.473a.895.895,0,0,1,.226,1.769l-3.517.463Zm74.525-.01h-.113l-3.527-.432a.9.9,0,0,1-.781-1.028.884.884,0,0,1,1.028-.781l3.547.432a.884.884,0,0,1,.761,1.028A.874.874,0,0,1,359.133,242.113Zm-7.074-.833h-.093c-1.172-.123-2.355-.247-3.527-.35a.895.895,0,0,1,.164-1.779l3.547.36a.885.885,0,1,1-.092,1.769Zm-60.387,0a.895.895,0,0,1-.1-1.779c1.172-.123,2.365-.257,3.558-.37a.889.889,0,0,1,.175,1.769l-3.527.37Zm53.3-.648H344.9l-3.537-.267a.9.9,0,0,1-.833-.946.9.9,0,0,1,.956-.833c1.172.082,2.375.175,3.558.278a.895.895,0,0,1-.072,1.779Zm-46.218,0a.895.895,0,0,1-.072-1.779c1.172-.1,2.375-.2,3.558-.278a.895.895,0,0,1,.123,1.779l-3.537.267Zm39.072-.463h0c-1.172-.072-2.365-.134-3.537-.185a.895.895,0,1,1,.082-1.779l3.558.185a.895.895,0,0,1-.051,1.779Zm-32.019,0a.9.9,0,0,1-.884-.843.884.884,0,0,1,.843-.936c1.182-.072,2.385-.134,3.568-.185a.895.895,0,0,1,.072,1.779l-3.547.185Zm24.914-.278h0l-3.547-.1a.895.895,0,0,1,0-1.779l3.578.093a.895.895,0,1,1,0,1.789Zm-17.8,0a.895.895,0,0,1,0-1.779c1.172,0,2.375-.072,3.568-.093a.895.895,0,1,1,0,1.779c-1.182,0-2.375.051-3.547.093Zm10.683-.062h-3.558a.915.915,0,0,1-.895-.915.9.9,0,0,1,.884-.915h3.568a.915.915,0,1,1,0,1.83Z" transform="translate(-62.781 -237.818)" fill="#fff"/>
      <path id="Trazado_113049" data-name="Trazado 113049" d="M368.4,251.372a.895.895,0,0,1-.463-1.655l6.673-4.113a52.236,52.236,0,0,0-4.38-6.036.895.895,0,0,1,.165-1.727c.586-.082,1.193-.175,6.169,7.557a.874.874,0,0,1,.123.679.936.936,0,0,1-.4.566l-7.465,4.576a.956.956,0,0,1-.421.154Z" transform="translate(-54.182 -237.823)" fill="#fff"/>
    </g>
    <g id="Grupo_55891" data-name="Grupo 55891" transform="translate(326.958 323.522)">
      <g id="Grupo_55885" data-name="Grupo 55885" transform="translate(46.313 61.364)">
        <rect id="Rectángulo_5551" data-name="Rectángulo 5551" width="2.714" height="29.335" transform="translate(14.015 6.982)" fill="#7d97f4"/>
        <path id="Trazado_113050" data-name="Trazado 113050" d="M390.721,414.329H367v-.751a1.028,1.028,0,0,1,1.028-1.028h21.593a1.1,1.1,0,0,1,1.1,1.1Z" transform="translate(-363.473 -377.447)" fill="#7d97f4"/>
        <rect id="Rectángulo_5552" data-name="Rectángulo 5552" width="31.741" height="9.007" rx="3.01" fill="#7d97f4"/>
      </g>
      <g id="Grupo_55887" data-name="Grupo 55887" transform="translate(21.502 0)">
        <path id="Trazado_113051" data-name="Trazado 113051" d="M355.366,405.09s-8.771,3.774-8.226,7.722c0,0,9.059-1.738,10.683-4.329s.73-4.113.73-4.113Z" transform="translate(-339.223 -316.314)" fill="#12263f"/>
        <path id="Trazado_113052" data-name="Trazado 113052" d="M357.334,400.87l.442,3.846a1.3,1.3,0,0,1-.8,1.357,3.466,3.466,0,0,1-1.11.165,1.491,1.491,0,0,1-1.45-1.028l-.853-3.085Z" transform="translate(-339.042 -316.412)" fill="url(#linear-gradient-26)"/>
        <path id="Trazado_113053" data-name="Trazado 113053" d="M376.618,372.171s-16.133-.751-24.153,3.928.4,27.145.4,27.145a8.154,8.154,0,0,0,5.141-1.162s-4.308-16.452,3.167-19.3a43.093,43.093,0,0,1,17.12-2.437l-1.614-7.671Z" transform="translate(-339.17 -317.224)" fill="#12263f"/>
        <path id="Trazado_113054" data-name="Trazado 113054" d="M348.9,410.972c1.841-.4,7.27-2.663,8.1-2.632S359,409.615,359,409.615a2.231,2.231,0,0,1-.391,1.645,15.3,15.3,0,0,1-7.928,3.321,5.954,5.954,0,0,1-5.028-1.861A7.2,7.2,0,0,1,348.9,410.972Z" transform="translate(-339.265 -316.202)" fill="#12263f"/>
        <path id="Trazado_113055" data-name="Trazado 113055" d="M350.7,414.5a15.3,15.3,0,0,0,7.928-3.321,6.807,6.807,0,0,1-2.591,2.252c-3.547,2-9.408,1.717-10.57,1.265-.925-.36-.638-1.234.206-2.056A5.953,5.953,0,0,0,350.7,414.5Z" transform="translate(-339.286 -316.122)" fill="url(#linear-gradient-27)"/>
        <path id="Trazado_113056" data-name="Trazado 113056" d="M360.636,407.677a13,13,0,0,1-2.149,2.581,1.439,1.439,0,0,1-1.357.4,3.5,3.5,0,0,1-.967-.339.936.936,0,0,1-.37-1.285l1.882-3.424Z" transform="translate(-338.982 -316.279)" fill="url(#linear-gradient-28)"/>
        <path id="Trazado_113057" data-name="Trazado 113057" d="M392.39,370.85s1.409,9.984-2.663,12.03-13,3.373-16.071,8.555-8.6,15.351-13.624,18.271c0,0-2.869-.936-3.712-2.344,0,0,5.964-15.68,8.452-19.536,2.159-3.3,5.306-8.061,9.789-10.118,1.285-.586,1.378-1.943,1.152-3.342l-.411-2.529Z" transform="translate(-338.964 -317.26)" fill="#12263f"/>
        <path id="Trazado_113058" data-name="Trazado 113058" d="M354.744,360.247c5.707,1.635,8.226-14.4,8.226-14.817l8.75,10.231s-5.213,9.172-13.079,10.149a9.326,9.326,0,0,1-5.141-.751A8.226,8.226,0,0,0,354.744,360.247Z" transform="translate(-339.043 -317.977)" fill="url(#linear-gradient-29)"/>
        <path id="Trazado_113059" data-name="Trazado 113059" d="M344.571,354.738c2.488-1.028,4.6,1.028,4.6,1.028,2.468,2.519,4.421,3.794,5.974,4.236a8.226,8.226,0,0,1-1.2,4.812,12.688,12.688,0,0,1-5.6-5.676,1.028,1.028,0,0,0-1.409-.483,1.788,1.788,0,0,0-1.11,1.172c-.062,1.028-1.306,1.11-1.306.72a15.248,15.248,0,0,1,.956-2.437L341.5,360.64a1.655,1.655,0,0,1-2.056-.452S342.072,355.756,344.571,354.738Z" transform="translate(-339.44 -317.722)" fill="url(#linear-gradient-30)"/>
        <path id="Trazado_113060" data-name="Trazado 113060" d="M390.012,339.04s-7.671-5.234-26.189,4.226a6.036,6.036,0,0,0-1.028,5.141c.884,2.725,11.886,17.48,12.339,24.4,0,0,7.527,4.421,17.284,0C392.408,372.858,395.678,354.566,390.012,339.04Z" transform="translate(-338.786 -318.198)" fill="url(#linear-gradient-31)"/>
        <path id="Trazado_113061" data-name="Trazado 113061" d="M373.9,332.49l3.033,5.943a1.7,1.7,0,0,1-.175,1.82A4.822,4.822,0,0,1,371.2,341.8a2.581,2.581,0,0,1-1.769-1.882l-1.573-6.632Z" transform="translate(-338.638 -318.342)" fill="url(#linear-gradient-32)"/>
        <path id="Trazado_113062" data-name="Trazado 113062" d="M395.027,359.739c.524-3.609-9.017-10.611-9.017-10.611L389.352,339s18.2,12.986,14.4,23.6a7.362,7.362,0,0,1-2.365,3.414,11.815,11.815,0,0,0-6.354-6.272Z" transform="translate(-338.126 -318.158)" fill="url(#linear-gradient-33)"/>
        <path id="Trazado_113063" data-name="Trazado 113063" d="M382.062,360.167s10.8,3.013,13.028-.267a1.636,1.636,0,0,0,.278-.73,11.814,11.814,0,0,1,6.334,6.272c-5.141,4.031-15-.494-17.685-1.841a1.892,1.892,0,0,0-1.419-.123,12.946,12.946,0,0,1-3.527.709c-1.357-.072-2.8,4.8-5.09,3.568C374,367.756,375.029,359.427,382.062,360.167Z" transform="translate(-338.465 -317.589)" fill="url(#linear-gradient-34)"/>
        <g id="Grupo_55886" data-name="Grupo 55886" transform="translate(23.916)">
          <path id="Trazado_113064" data-name="Trazado 113064" d="M370.155,323.069c-.123.1-5.665,9.943-5.665,9.943l5.686,3.085,6.632-8.544S372.274,321.2,370.155,323.069Z" transform="translate(-362.649 -318.618)" fill="url(#linear-gradient-35)"/>
          <path id="Trazado_113065" data-name="Trazado 113065" d="M374.165,328.519l-3.136,4.771a1.1,1.1,0,0,1-.144.165c-.339.3-1.583,1.224-2.447-.1a7.2,7.2,0,0,0-2.365-2.663.792.792,0,0,0-1.028.339,34.017,34.017,0,0,0-2.283,4.843.781.781,0,0,0,.422,1.028,25.847,25.847,0,0,0,5.676,1.912.781.781,0,0,0,.761-.288c.895-1.121,3.609-4.514,4.514-5.336s2.355-.38,2.982-.165a.8.8,0,0,0,.617,0,2.056,2.056,0,0,0,.915-3.2.812.812,0,0,1,.3-1.11,2.056,2.056,0,0,0,1.028-2.92,2.93,2.93,0,0,0-3.187-1.655.792.792,0,0,1-.843-.576.658.658,0,0,0-.565-.452.781.781,0,0,1-.617-1.028,2.386,2.386,0,0,0-1.182-2.858c-2.447-1.481-4.74.668-5.378,2.54s2.108,3.321,3.866,3.619c1.326.226,1.974,1.769,2.211,2.488A.792.792,0,0,1,374.165,328.519Z" transform="translate(-362.699 -318.73)" fill="#12263f"/>
          <path id="Trazado_113066" data-name="Trazado 113066" d="M372.7,334.513s1.254-3.218,2.673-3.033,2.478,1.645.648,3.167C373.738,336.539,372.7,334.513,372.7,334.513Z" transform="translate(-362.417 -318.371)" fill="url(#linear-gradient-36)"/>
        </g>
      </g>
      <g id="Grupo_55888" data-name="Grupo 55888" transform="translate(1.722 26.559)">
        <path id="Trazado_113067" data-name="Trazado 113067" d="M369.164,366.882H343.9a1.131,1.131,0,0,1,0-2.262h25.212a1.131,1.131,0,0,1,.051,2.252Z" transform="translate(-319.566 -343.994)" fill="#12263f"/>
        <path id="Trazado_113068" data-name="Trazado 113068" d="M321.876,344.56h21a4.01,4.01,0,0,1,3.619,2.293l9.706,20.564H330.1a2.427,2.427,0,0,1-2.262-1.542l-7.527-19.043a1.676,1.676,0,0,1,1.563-2.272Z" transform="translate(-320.203 -344.56)" fill="#12263f"/>
        <path id="Trazado_113069" data-name="Trazado 113069" d="M336.3,354.878c.463,1.419.123,2.786-.751,3.085s-1.933-.637-2.4-2.056-.113-2.786.751-3.085S335.85,353.469,336.3,354.878Z" transform="translate(-319.844 -344.328)" fill="url(#linear-gradient-37)"/>
      </g>
      <g id="Grupo_55890" data-name="Grupo 55890" transform="translate(0 49.21)">
        <g id="Grupo_55889" data-name="Grupo 55889" transform="translate(5.742 2.237)">
          <path id="Trazado_113070" data-name="Trazado 113070" d="M325.169,420.839a1.043,1.043,0,0,1-.977-1.44l22.22-49.992a1.09,1.09,0,0,1,1.4-.545,1.028,1.028,0,0,1,.545,1.347l-22.21,50A1.028,1.028,0,0,1,325.169,420.839Z" transform="translate(-324.112 -368.766)" fill="#bdd0fb"/>
          <path id="Trazado_113071" data-name="Trazado 113071" d="M350.12,420.839a1.028,1.028,0,0,1-1.028-.627l-22.21-50a1.051,1.051,0,0,1,1.943-.8L351.1,419.389a1.028,1.028,0,0,1-.977,1.439Z" transform="translate(-324.037 -368.766)" fill="#bdd0fb"/>
          <path id="Trazado_113072" data-name="Trazado 113072" d="M392.029,420.839a1.028,1.028,0,0,1-.967-1.44l22.21-49.992a1.09,1.09,0,0,1,1.4-.545,1.028,1.028,0,0,1,.555,1.347l-22.168,50a1.028,1.028,0,0,1-1.028.627Z" transform="translate(-322.226 -368.766)" fill="#bdd0fb"/>
          <path id="Trazado_113073" data-name="Trazado 113073" d="M417,420.839a1.028,1.028,0,0,1-.967-.627l-22.22-50a1.051,1.051,0,0,1,1.943-.8l22.22,49.982a1.028,1.028,0,0,1-.977,1.439Z" transform="translate(-322.148 -368.766)" fill="#bdd0fb"/>
        </g>
        <path id="Trazado_113074" data-name="Trazado 113074" d="M421.732,367.916a1.244,1.244,0,0,0-.216-.925.946.946,0,0,0-.771-.4H319.682a1.121,1.121,0,0,0-.967.6,1.409,1.409,0,0,0-.082,1.234l1.1,2.7a1.532,1.532,0,0,0,1.388,1.028h98.935a1.2,1.2,0,0,0,1.141-1.028Z" transform="translate(-318.528 -366.59)" fill="#bdd0fb"/>
      </g>
    </g>
    <g id="Grupo_55895" data-name="Grupo 55895" transform="translate(307.166 421.305)">
      <g id="Grupo_55893" data-name="Grupo 55893" transform="translate(0 27.865)">
        <g id="Grupo_55892" data-name="Grupo 55892">
          <path id="Trazado_113075" data-name="Trazado 113075" d="M303.08,472.132H430.867V446.55H303.08C305.815,446.55,305.815,472.132,303.08,472.132Z" transform="translate(-299.173 -440.771)" fill="#91b3fa"/>
          <path id="Trazado_113076" data-name="Trazado 113076" d="M430.974,465.885v-11.7c0-4.113-2.519-7.475-5.635-7.475H303.732a4.442,4.442,0,0,1-4.442-4.432h0a1.347,1.347,0,0,1,1.347-1.347H433.555c3.085,0,7.886,4.792,7.886,10.7v16.349c0,5.573-4.7,10.087-7.578,10.087H301.336a2.056,2.056,0,0,1-2.056-2.056,3.743,3.743,0,0,1,3.743-3.732H426.152C428.815,472.291,430.974,469.422,430.974,465.885Z" transform="translate(-299.28 -440.93)" fill="url(#linear-gradient-38)"/>
        </g>
        <path id="Trazado_113077" data-name="Trazado 113077" d="M427.226,452.22H307.407a.555.555,0,1,1,0-1.1H427.226a.555.555,0,0,1,0,1.1Z" transform="translate(-299.068 -440.643)" fill="url(#linear-gradient-39)"/>
        <path id="Trazado_113078" data-name="Trazado 113078" d="M427.224,455.91H307.405a.545.545,0,0,1-.555-.545.555.555,0,0,1,.555-.545H427.224a.545.545,0,1,1,0,1.09Z" transform="translate(-299.066 -440.538)" fill="url(#linear-gradient-6)"/>
        <path id="Trazado_113079" data-name="Trazado 113079" d="M427.226,459.61H307.407a.555.555,0,1,1,0-1.1H427.226a.555.555,0,0,1,0,1.1Z" transform="translate(-299.068 -440.434)" fill="url(#linear-gradient-41)"/>
        <path id="Trazado_113080" data-name="Trazado 113080" d="M427.226,463.3H307.407a.555.555,0,1,1,0-1.1H427.226a.555.555,0,0,1,0,1.1Z" transform="translate(-299.068 -440.33)" fill="url(#linear-gradient-39)"/>
        <path id="Trazado_113081" data-name="Trazado 113081" d="M427.226,467.03H307.407a.555.555,0,1,1,0-1.1H427.226a.555.555,0,0,1,0,1.1Z" transform="translate(-299.068 -440.225)" fill="url(#linear-gradient-43)"/>
      </g>
      <g id="Grupo_55894" data-name="Grupo 55894" transform="translate(16.534 0)">
        <rect id="Rectángulo_5553" data-name="Rectángulo 5553" width="114.986" height="27.752" rx="7.31" transform="translate(114.986 27.752) rotate(180)" fill="#12263f"/>
        <rect id="Rectángulo_5554" data-name="Rectángulo 5554" width="13.511" height="21.377" rx="2.44" transform="translate(88.478 3.187)" fill="#7d97f4"/>
        <rect id="Rectángulo_5555" data-name="Rectángulo 5555" width="5.069" height="21.377" rx="1.96" transform="translate(81.425 3.187)" fill="#7d97f4"/>
      </g>
    </g>
    <g id="Grupo_55898" data-name="Grupo 55898" transform="translate(62.471 344.918)">
      <path id="Trazado_113082" data-name="Trazado 113082" d="M91.684,356.14s-4.4,2.149-5.213,4.606c-.648,1.974-5.511,2.231-5.995,6.108a4.452,4.452,0,0,1-3.722,3.918c-4.977.761-12.637,3.342-13.86,11.968-.936,6.591,2.416,9.089,5.943,9.953a5,5,0,0,1,3.784,5.768c-.494,2.5.247,5.4,4.6,7.691,9.727,5.141,19.444-12.164,19.444-12.164l1.995-30.209Z" transform="translate(-61.26 -339.072)" fill="#12263f"/>
      <path id="Trazado_113083" data-name="Trazado 113083" d="M119.933,347.73s-7.712,21.037-20.863,27.618c0,0,4.37,7.136,6.663,7.568,0,0,14.045-17.973,15.423-32.708Z" transform="translate(-60.235 -339.309)" fill="url(#linear-gradient-44)"/>
      <path id="Trazado_113084" data-name="Trazado 113084" d="M68.117,470.844l-.391,3.188a1.316,1.316,0,0,1-1.152,1.121,20.973,20.973,0,0,1-4.267.072,1.141,1.141,0,0,1-.956-1.47A11.681,11.681,0,0,1,63.5,469.59h3.537a1.09,1.09,0,0,1,1.08,1.254Z" transform="translate(-61.301 -335.87)" fill="url(#linear-gradient-45)"/>
      <path id="Trazado_113085" data-name="Trazado 113085" d="M95.077,434.46l.6,3.517s-1.995,20.256-2.355,28.369a6.478,6.478,0,0,0,.936,3.609l3.486,5.645L88.9,470.386l-.175-1.028,1.45-1.995-1.9-22.693a6.971,6.971,0,0,1,.792-3.856l1.83-3.434Z" transform="translate(-60.54 -336.861)" fill="url(#linear-gradient-46)"/>
      <path id="Trazado_113086" data-name="Trazado 113086" d="M98.282,475.5H95.505a1.7,1.7,0,0,1-1.347-.668c-.884-1.141-2.7-3.373-3.578-3.424-1.172-.082-1.028,4.113-1.028,4.113h-.658l-.833-5.141a3.085,3.085,0,0,1,1.6-3.208h0a4.36,4.36,0,0,0,1.727,2.859c1.45.874,5.912,4.02,5.912,4.02a3.878,3.878,0,0,1,1.152,0,.751.751,0,0,1-.175,1.45Z" transform="translate(-60.546 -335.938)" fill="url(#linear-gradient-47)"/>
      <path id="Trazado_113087" data-name="Trazado 113087" d="M83.691,436.12s-11.711,22.23-13.583,27.31a49.22,49.22,0,0,0-2.54,9.706c0,.627-.812,1.234-2.961,1.234a2.056,2.056,0,0,1-1.923-.874,1.244,1.244,0,0,1,0-1.213c.679-1.378,2.828-5.758,3.63-7.753.946-2.375,2.992-13.13,4.113-16.873s2.4-7.794,7.28-11.537C77.665,436.12,81.017,432.84,83.691,436.12Z" transform="translate(-61.266 -336.856)" fill="url(#linear-gradient-48)"/>
      <path id="Trazado_113088" data-name="Trazado 113088" d="M90.437,401.4c3.023-12.812-4.627-20.061-4.627-20.061,4.833-4.637,13.634-6.745,13.634-6.745s8.4,6.169,7.4,10.951c-.586,2.817-5.9,16.873-5.9,16.873A11.691,11.691,0,0,1,90.437,401.4Z" transform="translate(-60.609 -338.551)" fill="url(#linear-gradient-49)"/>
      <path id="Trazado_113089" data-name="Trazado 113089" d="M83.995,406.994c1.224-3.7,6.694-6.334,6.694-6.334a11.691,11.691,0,0,0,10.508,1.028,21.12,21.12,0,0,1,.339,8.143c-.761,3.917-5.542,29.109-5.542,29.109-7.527,1.522-19.1-1.542-19.1-1.542C81.681,428.874,82.761,410.706,83.995,406.994Z" transform="translate(-60.861 -337.815)" fill="#12263f"/>
      <path id="Trazado_113090" data-name="Trazado 113090" d="M93.8,366.389l-2.457,11.033c-.236,1.028.648.812,1.635.627,1.6-.3,3.681-.925,4.37-2.18a1.141,1.141,0,0,0,.134-.411l1.028-7.66a1.347,1.347,0,0,0-.8-1.439l-2.056-.9a1.368,1.368,0,0,0-1.851.936Z" transform="translate(-60.454 -338.812)" fill="url(#linear-gradient-50)"/>
      <path id="Trazado_113091" data-name="Trazado 113091" d="M86.038,381.15s-17.161,12.277-2.2,25.171a3.856,3.856,0,0,0,1.7.977,18.851,18.851,0,0,1,3.085,2.108.586.586,0,0,0,.843-.154h0a.823.823,0,0,0,0-.771L87.334,404a1.625,1.625,0,0,0-2.128-.092h0a.8.8,0,0,1-1.224-.278c-1.152-2.355-3.342-9.254,5.6-17.11a1.028,1.028,0,0,0,.206-1.182C89.226,384.132,87.8,381.736,86.038,381.15Z" transform="translate(-60.837 -338.366)" fill="url(#linear-gradient-51)"/>
      <g id="Grupo_55896" data-name="Grupo 55896" transform="translate(27.836 13.143)">
        <path id="Trazado_113092" data-name="Trazado 113092" d="M96.672,356.135a10.94,10.94,0,0,1,4.894,5.439c1.974,4.205.494,6.169-1.357,6.416a8.668,8.668,0,0,1-7.568-2.5C89.7,362.777,92.888,354.685,96.672,356.135Z" transform="translate(-88.284 -352.219)" fill="url(#linear-gradient-52)"/>
        <path id="Trazado_113093" data-name="Trazado 113093" d="M94.7,363.353s-2.2-6.169,3.259-6.221l1.285.895s1.995-3.414-1.285-5.038-7.136-.288-8.534,4.113-1.635,7.383.689,9.5,3.29-.278,3.29-.278-1.306-1.995-.751-3.023,1.707.216,1.707.216Z" transform="translate(-88.372 -352.322)" fill="#12263f"/>
        <path id="Trazado_113094" data-name="Trazado 113094" d="M94.013,363.781s-1.11-3.177-2.591-1.912,1.2,2.93,2.252,3.465Z" transform="translate(-88.299 -352.061)" fill="url(#linear-gradient-53)"/>
      </g>
      <g id="Grupo_55897" data-name="Grupo 55897" transform="translate(58.171 0)">
        <path id="Trazado_113095" data-name="Trazado 113095" d="M120.142,351.8c.123.37-1.244.946-2.056-.586,0-.74-.473-3.876,0-4.473a58.349,58.349,0,0,1,6.858-7.2,1.028,1.028,0,0,1,.134,1.491l-2.2,2.293a10.458,10.458,0,0,1,1.3,2.55,3.085,3.085,0,0,1-.308,2.272,25.7,25.7,0,0,1-1.409,2.3A3.085,3.085,0,0,1,120.142,351.8Z" transform="translate(-117.876 -339.54)" fill="url(#linear-gradient-54)"/>
        <path id="Trazado_113096" data-name="Trazado 113096" d="M121.136,350.07h-.226a22.033,22.033,0,0,1,1.028-4.113,1.028,1.028,0,0,0,.206-.761.566.566,0,0,0-.3-.329l-1.912,1.625-.617,1.655-.216-.072.637-1.717,2.056-1.769h.072a.863.863,0,0,1,.483.514,1.213,1.213,0,0,1-.236.936A22.474,22.474,0,0,0,121.136,350.07Z" transform="translate(-117.841 -339.397)" fill="url(#linear-gradient-55)"/>
      </g>
    </g>
    <g id="Grupo_55899" data-name="Grupo 55899" transform="translate(172.851 401.55)">
      <path id="Trazado_113097" data-name="Trazado 113097" d="M227.413,478.41s10.621-13.367,8.894-25.983-10.354-11.115-14.189-3.65-7.29,6.437-5.007-.576,5.141-11.588.411-18.58-5.213-9.953-2.56-16.184,5.995-15.074-4.576-18.22-21.078,6.529-18.621,19.207,3.948,14.045.555,18.744-1.984,6.622-1.5,9.676-4.7,3.774-4.586-.535,6.694-14.457,2.2-19.2-13.367-4.791-15.577,6.169,4.977,15.876,4.617,19.845-4.247-2.056-7.629,1.995,1.172,7.2,4.524,9.4,8.411,6.169,3.6,8.966-9.367.123-6.426,8.925Z" transform="translate(-168.651 -394.618)" fill="#91b3fa"/>
      <path id="Trazado_113098" data-name="Trazado 113098" d="M204.748,404.09a5.634,5.634,0,0,0-.956.658,7.572,7.572,0,0,0-.812.812,9.818,9.818,0,0,0-1.306,1.933,12.267,12.267,0,0,0-1.2,4.5v.586a5.579,5.579,0,0,0,0,.586v1.748l.062.586c.051.38.093.771.175,1.152s.134.761.226,1.131l.134.566.134.545.545,2.19c.709,2.9,1.409,5.809,1.954,8.73a43.126,43.126,0,0,1,.812,8.791,16.974,16.974,0,0,1-.165,2.17,16.044,16.044,0,0,1-.4,2.118,13.653,13.653,0,0,1-.679,2.056,15.69,15.69,0,0,0-.761,2.252,36.685,36.685,0,0,0-.74,4.545c-.154,1.5-.278,3.013-.38,4.514-.206,3-.38,5.994-.812,8.935-.062.37-.113.74-.185,1.11s-.144.73-.216,1.09-.165.72-.257,1.09a2.182,2.182,0,0,1-.144.535c-.051.185-.1.35-.165.524l-.175.535c-.062.175-.134.339-.206.514-.123.35-.3.679-.452,1.028a9.338,9.338,0,0,1-1.244,1.84l.123.113a9.543,9.543,0,0,0,1.419-1.779,13.071,13.071,0,0,0,1.028-2.056,25.133,25.133,0,0,0,1.244-4.39c.617-2.972.9-5.984,1.234-8.966.165-1.491.319-2.982.524-4.462a33.188,33.188,0,0,1,.833-4.329,14.032,14.032,0,0,1,.72-2.005,16.182,16.182,0,0,0,.8-2.241,17.478,17.478,0,0,0,.473-2.293,19.923,19.923,0,0,0,.216-2.324,42.948,42.948,0,0,0-.771-9.141c-.524-3-1.244-5.943-2.056-8.853-.2-.73-.4-1.45-.607-2.18l-.165-.535-.144-.535c-.1-.35-.175-.7-.257-1.028s-.154-.709-.226-1.028l-.082-.535a4.942,4.942,0,0,0-.072-.545,16.9,16.9,0,0,1-.134-2.159,12.571,12.571,0,0,1,.185-2.159,11.478,11.478,0,0,1,.555-2.056c.134-.329.278-.668.442-1.028a8.748,8.748,0,0,1,.555-.946,6.909,6.909,0,0,1,1.46-1.635Z" transform="translate(-167.836 -394.351)" fill="url(#linear-gradient-56)"/>
      <path id="Trazado_113099" data-name="Trazado 113099" d="M226.838,448.081c-.319,2.365-.771,4.709-1.316,7.012-.278,1.162-.586,2.313-.925,3.445-.072.288-.175.565-.257.853s-.185.566-.278.843c-.175.566-.38,1.121-.576,1.676s-.422,1.11-.648,1.655-.463,1.09-.709,1.625c-.494,1.028-1.028,2.128-1.614,3.157a32.42,32.42,0,0,1-1.913,2.972,32.035,32.035,0,0,1-2.272,2.735l.113.134a21.431,21.431,0,0,0,2.632-2.54,28.569,28.569,0,0,0,2.149-2.93,33.93,33.93,0,0,0,1.738-3.177c.247-.555.5-1.1.73-1.666s.442-1.121.648-1.686.4-1.141.576-1.717c.093-.278.185-.576.267-.864s.165-.576.236-.864c.329-1.162.586-2.344.812-3.517a42.969,42.969,0,0,0,.812-7.2Z" transform="translate(-167.306 -393.111)" fill="url(#linear-gradient-57)"/>
    </g>
  </g>
</svg>
