<svg xmlns="http://www.w3.org/2000/svg" width="443.599" height="250.501" viewBox="0 0 443.599 250.501">
  <g id="grafico_1__cuantitativos" data-name="grafico(1)_cuantitativos" transform="translate(-29.955 -226.629)">
    <path id="Trazado_112846" data-name="Trazado 112846" d="M47,476.09c.1-1.82-42.81-56.56,7.16-107.1,22.56-22.81,60.73-10.45,54.69-77.1-5.21-57.54,84.81-91.35,140.75-40,36.15,33.2,72.74-11.09,130.09,14s19.58,93.41,43.11,99.85c46.35,12.67,69.37,68.45,32.42,109.67Z" fill="#f1eefd"/>
    <path id="Trazado_112847" data-name="Trazado 112847" d="M240.23,343.05c-.24-.5-.51-1-.79-1.51l.8-.46c.3.52.58,1.05.83,1.57Zm-1.68-3c-.31-.48-.64-.95-1-1.41l.75-.55c.35.47.69,1,1,1.45Zm-92.24,10.23c-.58.07-1.17.12-1.75.15l-.06-.93a16.83,16.83,0,0,0,1.72-.14Zm1.75-.23-.14-.91c.56-.09,1.13-.19,1.69-.31l.18.91a15.089,15.089,0,0,1-1.73.34Zm-5.26.44h-1.77l.05-.92h1.71Zm8.71-1.13-.22-.9c.55-.13,1.11-.28,1.66-.44l.26.89c-.56.19-1.14.35-1.7.48Zm-12.24,1c-.58-.06-1.17-.13-1.75-.23l.15-.91c.56.09,1.13.16,1.7.22Zm15.62-1.93-.29-.88c.54-.18,1.09-.37,1.63-.57l.32.88c-.55.19-1.11.38-1.66.56Zm3.29-1.21-.35-.86c.53-.22,1.06-.44,1.59-.68l.38.85q-.8.35-1.62.68Zm-22.39,2.58c-.58-.14-1.16-.29-1.71-.45l.26-.89c.54.16,1.09.3,1.65.43Zm100.73-12.48c-.36-.44-.74-.87-1.12-1.3l.68-.62c.4.43.79.88,1.16,1.33Zm-75.13,8.47-.41-.84,1.54-.77.43.82c-.52.26-1.04.53-1.56.78Zm-29,3c-.56-.2-1.11-.43-1.64-.67l.38-.85a15.3,15.3,0,0,0,1.58.65Zm32.09-4.63-.45-.81c.5-.27,1-.56,1.5-.86l.47.8c-.49.29-1,.58-1.51.86Zm69.72-9.38c-.4-.4-.82-.8-1.25-1.18l.62-.69c.44.39.87.8,1.28,1.21Zm-105,12.56q-.78-.43-1.53-.9l.5-.79q.72.47,1.47.87Zm38.34-5-.5-.78,1.45-.94.51.77c-.51.34-1,.67-1.49.97Zm2.91-1.94-.53-.76,1.4-1,.55.75c-.5.36-.98.7-1.45,1.03Zm-44.24,5c-.47-.35-.93-.73-1.37-1.12l.61-.69c.43.37.87.73,1.32,1.07Zm105.48-12.94c-.44-.36-.9-.72-1.35-1.06l.55-.74c.47.35.94.71,1.39,1.08Zm-58.42,5.88-.57-.74.14-.11,1.25-.95.56.74c-.42.31-.83.63-1.24.95Zm55.66-7.93c-.47-.31-1-.63-1.45-.92l.48-.8c.51.31,1,.63,1.49.95Zm-105.4,12.66c-.41-.43-.81-.87-1.18-1.33l.71-.59c.36.44.74.86,1.13,1.27Zm52.48-6.8-.54-.75,1.43-1,.53.76Zm50-7.62c-.5-.28-1-.54-1.53-.79l.41-.83c.52.25,1,.52,1.57.8Zm-47.1,5.66-.51-.78,1.47-.95.49.79c-.53.3-1.01.63-1.5.94Zm-57.59,6c-.34-.48-.66-1-1-1.5l.81-.47a15.991,15.991,0,0,0,.91,1.44Zm60.52-7.87-.48-.79c.5-.3,1-.6,1.51-.88l.46.8c-.55.3-1.05.6-1.54.89Zm41.08-5.3c-.53-.23-1.06-.44-1.6-.64l.33-.87c.54.2,1.09.42,1.63.65Zm-38.08,3.6-.43-.82c.51-.28,1-.55,1.55-.81l.42.83ZM219.65,326c-.54-.17-1.1-.34-1.65-.48l.24-.9c.56.15,1.13.32,1.69.49Zm-31.77,3.24-.39-.84c.53-.25,1.06-.5,1.59-.73l.37.85c-.52.2-1.05.48-1.57.69Zm-68.4,8.05c-.26-.52-.5-1.07-.71-1.62l.87-.34c.2.53.43,1.05.68,1.56Zm96.85-12.17c-.56-.12-1.12-.23-1.69-.32l.15-.92c.58.1,1.16.21,1.73.33Zm-25.28,2.74-.35-.87c.54-.21,1.09-.43,1.64-.62l.32.87a16.415,16.415,0,0,0-1.61.59Zm21.89-3.31c-.56-.06-1.14-.12-1.71-.16l.07-.93c.58.05,1.17.1,1.75.17Zm-18.66,2.12-.29-.88c.56-.19,1.12-.36,1.68-.52l.26.89Zm15.24-2.37H207.8v-.93h1.76Zm-11.93,1.4-.23-.9c.57-.15,1.14-.28,1.71-.41l.2.91c-.56.09-1.12.23-1.68.37Zm8.49-1.35a16.192,16.192,0,0,0-1.71.14l-.1-.93c.59,0,1.18-.1,1.76-.13Zm-5.12.61-.17-.91c.58-.1,1.16-.2,1.74-.28l.13.92a16.572,16.572,0,0,0-1.66.24Zm-82.77,9c-.17-.56-.32-1.14-.45-1.72l.91-.2c.12.56.27,1.11.43,1.65Zm-.77-3.46-.09-.64c0-.37-.08-.75-.11-1.12l.93-.07a9.852,9.852,0,0,0,.1,1.08l.09.62Zm.66-3.54h-.93v-1.77l.92.06c.02.58,0,1.15.01,1.75Zm.2-3.41-.93-.11c.07-.57.16-1.15.26-1.72l.92.14h0c-.1.58-.19,1.14-.25,1.69Zm.6-3.38L118,320c.13-.57.27-1.15.42-1.71l.9.24a14.078,14.078,0,0,0-.44,1.64Zm31.76-4.7a12.145,12.145,0,0,1-1.8,0v-.93a11.758,11.758,0,0,0,1.67,0Zm1.77-.28-.2-.9a14.2,14.2,0,0,0,1.63-.46l.3.88a14.456,14.456,0,0,1-1.73.48Zm-5.38.1a9.07,9.07,0,0,1-1.74-.56l.38-.85a8.619,8.619,0,0,0,1.56.5Zm8.77-1.23-.38-.85c.51-.23,1-.49,1.5-.77l.47.81c-.52.29-1.05.57-1.59.81Zm3.09-1.77-.53-.76a16.585,16.585,0,0,0,1.34-1l.6.71a16.1,16.1,0,0,1-1.41,1.05Zm-39.11,4.57-.89-.29c.18-.55.37-1.11.58-1.66l.87.32c-.2.54-.34,1.08-.56,1.63Zm23.92-3.05a8,8,0,0,1-1.34-1.27l.71-.59a7,7,0,0,0,1.19,1.11ZM161.6,310l-.67-.65a16.684,16.684,0,0,0,1.12-1.27l.72.57C162.41,309.09,162,309.55,161.6,310ZM121,313.63l-.86-.36c.23-.54.47-1.08.72-1.6l.84.4A12.654,12.654,0,0,0,121,313.63ZM141.34,311a10.67,10.67,0,0,1-.69-1.69l.89-.27a10,10,0,0,0,.62,1.53Zm22.47-3.85-.79-.49a15.358,15.358,0,0,0,.82-1.48l.83.41a14.926,14.926,0,0,1-.86,1.58Zm-41.36,3.37-.82-.44c.27-.52.57-1,.87-1.54l.79.48q-.44.75-.84,1.52Zm17.8-3a4.442,4.442,0,0,0-.07-.49c-.05-.41-.09-.85-.1-1.29h.93a11.85,11.85,0,0,0,.09,1.22l.06.46ZM165.36,304l-.88-.3a15.593,15.593,0,0,0,.45-1.62l.91.19A17.768,17.768,0,0,1,165.36,304Zm-41.15,3.64-.78-.52c.32-.48.66-1,1-1.44l.75.54c-.33.42-.66.89-.97,1.37Zm16.8-3.54h-.93a17.138,17.138,0,0,1,.13-1.77l.93.1a13.045,13.045,0,0,0-.14,1.62Zm25.09-3.6-.92-.08a13.461,13.461,0,0,0,0-1.68h.93a15.467,15.467,0,0,1-.01,1.71Zm-39.87,4.36-.72-.58c.36-.46.74-.91,1.13-1.35l.69.61c-.33.38-.74.83-1.1,1.27Zm2.27-2.58-.67-.64c.41-.43.83-.84,1.25-1.24l.64.67a16.4,16.4,0,0,0-1.22,1.16Zm12.88-1.56-.91-.17c.11-.58.24-1.16.39-1.73l.9.24c-.15.49-.27,1.05-.38,1.61ZM165,297.05a7.309,7.309,0,0,0-.54-1.53l.83-.41a7.738,7.738,0,0,1,.62,1.73Zm-34,2.81-.61-.7c.44-.38.9-.76,1.36-1.12l.57.73C131.87,299.12,131.42,299.49,131,299.86Zm11.27-2.47-.87-.31c.19-.56.42-1.11.66-1.65l.84.38c-.24.52-.45,1.05-.64,1.58Zm21.31-3.22a7.451,7.451,0,0,0-1.18-1.13l.56-.74a8.471,8.471,0,0,1,1.33,1.27Zm-29.89,3.56-.54-.75c.47-.35,1-.68,1.45-1l.51.78c-.49.3-.96.63-1.43.97Zm2.87-1.9-.47-.79c.5-.3,1-.6,1.53-.88l.44.82c-.51.27-1.06.56-1.51.85Zm7.1-1.54-.81-.44q.38-.69.81-1.35c-.31.1-.61.22-.92.33l-.33-.87c.55-.21,1.11-.4,1.67-.58l.28.88-.46.15.64.43c-.32.47-.62.96-.89,1.45ZM161,292.16a12.72,12.72,0,0,0-1.54-.65l.3-.88a12.542,12.542,0,0,1,1.66.7Zm-21.41,2-.41-.84c.53-.26,1.07-.5,1.6-.73l.37.85c-.53.26-1.06.56-1.57.76Zm18.25-3.14c-.54-.11-1.1-.21-1.67-.27l.1-.92a15.785,15.785,0,0,1,1.76.28Zm-11.83.7-.18-.67-.29.37-.74-.57c.36-.46.74-.92,1.14-1.36l.69.62-.55.63,1.4-.34.2.91c-.57.16-1.13.3-1.68.45Zm8.46-1.1h-1.71v-.92h1.77Zm-5.11.37-.15-.92c.59-.1,1.18-.18,1.75-.24l.1.93c-.57.1-1.14.17-1.71.24Zm-1.54-2.1-.65-.67c.42-.4.86-.8,1.31-1.19l.6.71c-.44.41-.87.8-1.27,1.19Zm2.6-2.22-.56-.74c.46-.35.94-.69,1.43-1l.52.77a16.117,16.117,0,0,0-1.4,1.01Zm2.84-1.91-.48-.8c.49-.29,1-.59,1.53-.87l.44.82c-.52.31-1.02.6-1.5.89Zm3-1.64-.41-.84,1.6-.74.38.85c-.53.28-1.05.52-1.56.77Zm3.16-1.39-.35-.86q.81-.33,1.65-.63l.31.88c-.53.23-1.03.44-1.6.65Zm3.25-1.17-.29-.88,1.68-.52.26.9Zm3.32-1-.23-.9c.56-.15,1.13-.29,1.7-.42l.21.91c-.55.21-1.12.34-1.67.49Zm3.37-.77-.18-.91,1.73-.33.16.92a16.147,16.147,0,0,1-1.7.4Zm5.12-.78s-.63.05-1.7.2l-.13-.92c1.1-.16,1.74-.21,1.76-.21Z" fill="#8c9df4"/>
    <rect id="Rectángulo_5411" data-name="Rectángulo 5411" width="36.94" height="94.85" transform="translate(142.07 380.34)" fill="#bdd1f9"/>
    <rect id="Rectángulo_5412" data-name="Rectángulo 5412" width="36.94" height="125.85" transform="translate(199.53 349.34)" fill="#bdd1f9"/>
    <rect id="Rectángulo_5413" data-name="Rectángulo 5413" width="40.44" height="159.31" transform="translate(251.78 315.88)" fill="#bdd1f9"/>
    <rect id="Rectángulo_5414" data-name="Rectángulo 5414" width="36.94" height="181.36" transform="translate(306.63 293.83)" fill="#bdd1f9"/>
    <path id="Trazado_112848" data-name="Trazado 112848" d="M292.22,368.97l77.63-37.58-34.62,73.8-5.85-33.48Z" fill="#ef2a66"/>
    <g id="Grupo_55811" data-name="Grupo 55811">
      <path id="Trazado_112849" data-name="Trazado 112849" d="M274.36,343.82a14.55,14.55,0,1,1,17.57,10.69,14.55,14.55,0,0,1-17.57-10.69Z" fill="#ffb93e"/>
      <path id="Trazado_112850" data-name="Trazado 112850" d="M291.67,353.42a13.25,13.25,0,1,1,8.19-6,13.1,13.1,0,0,1-8.19,6Zm-6.08-25a10.3,10.3,0,1,1,0,.01Z" fill="#fd8f25"/>
      <path id="Trazado_112851" data-name="Trazado 112851" d="M291.22,343.85a2.49,2.49,0,0,0-.21-.74,1.61,1.61,0,0,0-.47-.54,3.091,3.091,0,0,0-.77-.41,8.56,8.56,0,0,0-1.11-.31,20,20,0,0,1-2.05-.55,7,7,0,0,1-1.63-.77,4,4,0,0,1-1.12-1.15,4.17,4.17,0,0,1-.56-1.68,3.94,3.94,0,0,1,.12-1.62,3.741,3.741,0,0,1,.73-1.36,4.55,4.55,0,0,1,1.26-1,6,6,0,0,1,1.74-.64l-.27-2.19,1.76-.21.27,2.21a5.56,5.56,0,0,1,1.77.3,4.309,4.309,0,0,1,1.43.82,4.429,4.429,0,0,1,1,1.32,5.54,5.54,0,0,1,.51,1.81l-3.17.38a2.7,2.7,0,0,0-.77-1.76,1.85,1.85,0,0,0-1.53-.43,2.39,2.39,0,0,0-.83.24,1.51,1.51,0,0,0-.54.45,1.44,1.44,0,0,0-.28.6,2.46,2.46,0,0,0,0,.72,2.191,2.191,0,0,0,.19.67,1.47,1.47,0,0,0,.45.52,2.908,2.908,0,0,0,.77.4,10,10,0,0,0,1.17.35,20,20,0,0,1,2,.58,6.769,6.769,0,0,1,1.62.78,3.71,3.71,0,0,1,1.68,2.82,4.06,4.06,0,0,1-.12,1.65,3.62,3.62,0,0,1-.73,1.35,4.629,4.629,0,0,1-1.28,1,6.34,6.34,0,0,1-1.75.63l.25,2-1.75.21-.24-2a7.281,7.281,0,0,1-1.81-.19,4.44,4.44,0,0,1-1.62-.7,4.109,4.109,0,0,1-1.23-1.32,5.05,5.05,0,0,1-.65-2.06l3.17-.38a3.231,3.231,0,0,0,.35,1.18,2,2,0,0,0,.64.71,2.069,2.069,0,0,0,.82.32,3.868,3.868,0,0,0,.9,0,2.75,2.75,0,0,0,.89-.24,1.8,1.8,0,0,0,.61-.45,1.46,1.46,0,0,0,.33-.61,1.851,1.851,0,0,0,.06-.71Z" fill="#fd8f25"/>
    </g>
    <g id="Grupo_55812" data-name="Grupo 55812">
      <circle id="Elipse_4178" data-name="Elipse 4178" cx="14.17" cy="14.17" r="14.17" transform="matrix(0.666, -0.746, 0.746, 0.666, 345.034, 303.185)" fill="#ffb93e"/>
      <path id="Trazado_112852" data-name="Trazado 112852" d="M365.56,315.09a12.9,12.9,0,1,1,9-4.13,12.9,12.9,0,0,1-9,4.13Zm-1-25a8.941,8.941,0,1,0,.01-.02Z" fill="#fd8f25"/>
      <path id="Trazado_112853" data-name="Trazado 112853" d="M367,305.87a2.24,2.24,0,0,0-.06-.75,1.49,1.49,0,0,0-.34-.61,2.759,2.759,0,0,0-.65-.53,7.865,7.865,0,0,0-1-.51,18.73,18.73,0,0,1-1.85-.93,6.171,6.171,0,0,1-1.4-1.05,3.749,3.749,0,0,1-.85-1.31,3.88,3.88,0,0,1-.21-1.71,4,4,0,0,1,.43-1.53,3.639,3.639,0,0,1,1-1.15,4.49,4.49,0,0,1,1.41-.73,5.83,5.83,0,0,1,1.78-.28l.17-2.14,1.71.14-.17,2.17a5,5,0,0,1,1.64.62,4.09,4.09,0,0,1,1.2,1.06,4,4,0,0,1,.7,1.45,5.4,5.4,0,0,1,.15,1.83l-3.11-.25a2.64,2.64,0,0,0-.39-1.83,1.81,1.81,0,0,0-1.38-.71,2.47,2.47,0,0,0-.84.07,1.57,1.57,0,0,0-.6.32,1.44,1.44,0,0,0-.38.53,2.179,2.179,0,0,0-.16.68,2.14,2.14,0,0,0,.05.68,1.551,1.551,0,0,0,.33.58,2.89,2.89,0,0,0,.66.54c.28.17.63.35,1,.55.68.31,1.29.63,1.84.94a6.772,6.772,0,0,1,1.39,1.06,3.69,3.69,0,0,1,1.06,3,4,4,0,0,1-.43,1.56,3.52,3.52,0,0,1-1,1.14,4.4,4.4,0,0,1-1.42.71,6.589,6.589,0,0,1-1.78.26l-.16,2-1.71-.13.16-2a7.122,7.122,0,0,1-1.7-.52,4.69,4.69,0,0,1-1.41-1,4,4,0,0,1-.91-1.51,4.88,4.88,0,0,1-.23-2.08l3.11.24a3,3,0,0,0,.1,1.2,2.1,2.1,0,0,0,.47.8,1.93,1.93,0,0,0,.73.46,3.15,3.15,0,0,0,.85.18,2.59,2.59,0,0,0,.9-.06,1.72,1.72,0,0,0,.67-.3,1.541,1.541,0,0,0,.43-.52,1.79,1.79,0,0,0,.2-.63Z" fill="#fd8f25"/>
    </g>
    <g id="Grupo_55813" data-name="Grupo 55813">
      <path id="Trazado_112854" data-name="Trazado 112854" d="M330.9,327.71a9.77,9.77,0,1,1,9.94,9.6,9.77,9.77,0,0,1-9.94-9.6Z" fill="#ffb93e"/>
      <path id="Trazado_112855" data-name="Trazado 112855" d="M340.83,336.56a8.9,8.9,0,1,1,6.25-2.72A8.9,8.9,0,0,1,340.83,336.56Zm-.31-17.27a8.37,8.37,0,1,0,8.52,8.22A8.37,8.37,0,0,0,340.52,319.29Z" fill="#fd8f25"/>
      <path id="Trazado_112856" data-name="Trazado 112856" d="M341.94,330.22a1.46,1.46,0,0,0,0-.52,1,1,0,0,0-.23-.42,1.68,1.68,0,0,0-.44-.38,5.8,5.8,0,0,0-.68-.37c-.47-.22-.89-.44-1.27-.66a4.551,4.551,0,0,1-.94-.75,2.53,2.53,0,0,1-.57-.92,2.631,2.631,0,0,1-.12-1.18,2.49,2.49,0,0,1,.32-1,2.4,2.4,0,0,1,.67-.78,2.909,2.909,0,0,1,1-.49,4.3,4.3,0,0,1,1.23-.17l.15-1.47,1.18.12-.15,1.49a3.619,3.619,0,0,1,1.12.46,2.81,2.81,0,0,1,.82.75,3,3,0,0,1,.46,1,4,4,0,0,1,.07,1.26l-2.14-.22a1.78,1.78,0,0,0-.24-1.27,1.28,1.28,0,0,0-.94-.5,1.79,1.79,0,0,0-.58,0,1.051,1.051,0,0,0-.42.22.85.85,0,0,0-.27.35,1.481,1.481,0,0,0-.12.47,1.45,1.45,0,0,0,0,.47,1.1,1.1,0,0,0,.22.41,1.93,1.93,0,0,0,.45.37,6.214,6.214,0,0,0,.71.4c.46.23.88.45,1.25.68a4.55,4.55,0,0,1,.94.75,2.53,2.53,0,0,1,.57.92,2.64,2.64,0,0,1,.12,1.18,2.69,2.69,0,0,1-.32,1.06,2.43,2.43,0,0,1-.68.78,3.3,3.3,0,0,1-1,.47,4.841,4.841,0,0,1-1.24.15l-.14,1.37-1.18-.12.14-1.36a5.28,5.28,0,0,1-1.16-.39,3.21,3.21,0,0,1-1-.7,2.88,2.88,0,0,1-.61-1.05,3.49,3.49,0,0,1-.12-1.44l2.14.21a2,2,0,0,0,0,.83,1.33,1.33,0,0,0,.32.56,1.18,1.18,0,0,0,.49.33,2.31,2.31,0,0,0,.59.14,2.081,2.081,0,0,0,.62,0,1.291,1.291,0,0,0,.46-.2,1,1,0,0,0,.3-.35,1.18,1.18,0,0,0,.22-.49Z" fill="#fd8f25"/>
    </g>
    <g id="Grupo_55814" data-name="Grupo 55814">
      <circle id="Elipse_4179" data-name="Elipse 4179" cx="23.84" cy="23.84" r="23.84" transform="translate(286.997 267.882) rotate(-3.89)" fill="#ffb93e"/>
      <path id="Trazado_112857" data-name="Trazado 112857" d="M319.3,311a21.74,21.74,0,1,1,12.58-10.87A21.74,21.74,0,0,1,319.3,311Zm-13.25-40a16.2,16.2,0,1,0,0-.07Z" fill="#fd8f25"/>
      <path id="Trazado_112858" data-name="Trazado 112858" d="M317.29,295.37a3.58,3.58,0,0,0-.44-1.18,2.56,2.56,0,0,0-.84-.83,5.24,5.24,0,0,0-1.3-.56,13.8,13.8,0,0,0-1.86-.35,34.6,34.6,0,0,1-3.43-.64,11,11,0,0,1-2.75-1,6.389,6.389,0,0,1-2-1.73,7.19,7.19,0,0,1-1.16-5.33,6.13,6.13,0,0,1,1-2.31,7.76,7.76,0,0,1,1.93-1.85,10.249,10.249,0,0,1,2.75-1.27l-.72-3.53,2.84-.59.73,3.59A8.841,8.841,0,0,1,315,278a6.877,6.877,0,0,1,4.25,3.15,8.8,8.8,0,0,1,1.08,2.88l-5.13,1.05a4.4,4.4,0,0,0-1.49-2.78,3.09,3.09,0,0,0-2.56-.5,4.149,4.149,0,0,0-1.33.5,2.641,2.641,0,0,0-.82.81,2.45,2.45,0,0,0-.37,1,3.889,3.889,0,0,0,.06,1.17,3.311,3.311,0,0,0,.4,1.07,2.52,2.52,0,0,0,.8.79,5.089,5.089,0,0,0,1.32.56,17.138,17.138,0,0,0,1.94.4c1.24.2,2.38.42,3.41.68a10.58,10.58,0,0,1,2.74,1.07,6.08,6.08,0,0,1,3.12,4.39,6.53,6.53,0,0,1,0,2.71,6,6,0,0,1-1,2.29,7.13,7.13,0,0,1-2,1.81,10.5,10.5,0,0,1-2.77,1.25l.68,3.29-2.83.58-.67-3.27a12.37,12.37,0,0,1-3-.06,7.8,7.8,0,0,1-2.74-.93,7,7,0,0,1-2.18-2,8.42,8.42,0,0,1-1.34-3.27l5.14-1.05a5,5,0,0,0,.73,1.88,3.31,3.31,0,0,0,1.13,1.08,3.229,3.229,0,0,0,1.39.4,5.6,5.6,0,0,0,1.47-.1,4.469,4.469,0,0,0,1.42-.51,3.26,3.26,0,0,0,.94-.81,2.56,2.56,0,0,0,.45-1A2.94,2.94,0,0,0,317.29,295.37Z" fill="#fd8f25"/>
    </g>
    <g id="Grupo_55815" data-name="Grupo 55815">
      <path id="Trazado_112859" data-name="Trazado 112859" d="M218.28,283.5c-2.14.54-4.19,1.05-6.1,1.38-6.2,1.06-11,.18-13.05-8.08s1.75-11.28,7.72-13.26c1.84-.61,3.89-1.12,6-1.66a25.57,25.57,0,0,1,13.69.69c4,1.3,6.94,3.4,7.47,5.51.6,2.4-1,5.66-3.94,8.6a26.08,26.08,0,0,1-11.79,6.82Z" fill="#739af0"/>
      <path id="Trazado_112860" data-name="Trazado 112860" d="M206.85,263.54l-7.04-4.6-11.11,2.37,11.54,8.11Z" fill="#163560"/>
      <path id="Trazado_112861" data-name="Trazado 112861" d="M212.16,284.81l-4.05,7.37-10.92,3.13,6.37-12.58Z" fill="#163560"/>
      <path id="Trazado_112862" data-name="Trazado 112862" d="M212.18,284.88c-6.2,1.06-11,.18-13.05-8.08s1.75-11.28,7.72-13.26Z" fill="#163560"/>
      <path id="Trazado_112863" data-name="Trazado 112863" d="M184.66,280.41s3.1-7.2,8.51-6.09,4.83,7.08.68,7.63S187.08,279.81,184.66,280.41Z" fill="#f77d48"/>
      <path id="Trazado_112864" data-name="Trazado 112864" d="M217.6,266.34a5.34,5.34,0,1,1-3.88,6.48,5.34,5.34,0,0,1,3.88-6.48Z" fill="#163560"/>
      <path id="Trazado_112865" data-name="Trazado 112865" d="M218.9,277.22a5.7,5.7,0,1,1,1.38-.17,5.489,5.489,0,0,1-1.38.17Zm0-10.68a4.987,4.987,0,1,0,4.83,3.82,5,5,0,0,0-4.83-3.82Z" fill="#bdd1f9"/>
      <path id="Trazado_112866" data-name="Trazado 112866" d="M230.1,276.68l-3.53-14.11c4,1.3,6.94,3.4,7.47,5.51C234.64,270.48,233,273.74,230.1,276.68Z" fill="#f77d48"/>
    </g>
    <g id="Grupo_55816" data-name="Grupo 55816">
      <path id="Trazado_112867" data-name="Trazado 112867" d="M389.81,354.19s10.79,11.19,11.3,15.4S396,380.38,396,380.38Z" fill="#ed7d2b"/>
      <path id="Trazado_112868" data-name="Trazado 112868" d="M384.94,470.16s-.38,5.93-1.53,6h-5.83l-7.24-.05a2.35,2.35,0,0,1,2.17-2.11c2.12-.37,5.66-1.85,6.95-4.64S384.94,470.16,384.94,470.16Z" fill="#2e5a99"/>
      <path id="Trazado_112869" data-name="Trazado 112869" d="M401.06,470.19s-.38,5.94-1.53,6h-5.82l-7.24-.06a2.35,2.35,0,0,1,2.17-2.11c2.11-.36,5.66-1.84,6.95-4.64S401.06,470.19,401.06,470.19Z" fill="#18417c"/>
      <path id="Trazado_112870" data-name="Trazado 112870" d="M377.06,406.34s1.86,12.12,8.88,33.63,8,30.83,8,30.83l7.58-.19s.12-23.5-3.12-34.32-.61-39-.61-39Z" fill="#6c58b8"/>
      <path id="Trazado_112871" data-name="Trazado 112871" d="M373.39,397.92a293.72,293.72,0,0,0,2.8,40.67c3.11,22.42,2,31.93,2,31.93l7.56.26s4.57-22.4,3.3-33.62,6.27-38.48,6.27-38.48Z" fill="#9182ca"/>
      <path id="Trazado_112872" data-name="Trazado 112872" d="M388.12,355.24l-4,2.64-5.83-1.1c.09-.47.47-2.42.83-4.18l.06-.31c.3-1.51.57-2.79.57-2.79l5.44-2.39,2-.89s-.16,1.66-.18,1.9a13.87,13.87,0,0,0,1.11,7.12Z" fill="#ffb27d"/>
      <path id="Trazado_112873" data-name="Trazado 112873" d="M379.76,353.89c.11-.05,7-2.07,7.77-1.82s1.19,1.7,1.19,1.7l-11.29,2.53a5.58,5.58,0,0,1,2.33-2.41Z" fill="#ed7d2b"/>
      <path id="Trazado_112874" data-name="Trazado 112874" d="M398.24,400.23c-1.18,5.33-20.65,5.92-25.65,1.07-.57-.56-.6-3.12-.37-6.59.43-6.76,1.81-16.94,1.87-22.14a40.7,40.7,0,0,1,.85-7.41,60.441,60.441,0,0,1,2.49-8.86s9.51-3.05,11.29-2.53C397.28,356.31,399.42,394.9,398.24,400.23Z" fill="#f99746"/>
      <path id="Trazado_112875" data-name="Trazado 112875" d="M372.22,394.71c.43-6.76,1.81-16.94,1.87-22.14a40.7,40.7,0,0,1,.85-7.41l5.72-1S386.2,387,372.22,394.71Z" fill="#ed7d2b"/>
      <path id="Trazado_112876" data-name="Trazado 112876" d="M375.33,385.29a1.35,1.35,0,0,1-.43,1.56,2.58,2.58,0,0,0-1.16,2.37c.18.74,2,2,2.6,1.76s1.89-1.16,1.75-1.55.86-3.43-.65-4.6a1.23,1.23,0,0,0-2.11.46Z" fill="#ffb27d"/>
      <path id="Trazado_112877" data-name="Trazado 112877" d="M381.8,354.94s-5.58,1-10,7.57-7.4,11.4-6.58,13.77,8.26,10.56,9.54,10.56a3.44,3.44,0,0,0,3.49-3s-5.24-7.89-4.2-9.06c.44-.51,6.83-5.67,7.74-3.33C383.25,375.29,381.8,354.94,381.8,354.94Z" fill="#f99746"/>
      <path id="Trazado_112878" data-name="Trazado 112878" d="M386.6,348.2c-1.2,2-5.65,3.76-7.51,4.4l.06-.31c.3-1.51.57-2.79.57-2.79l5.44-2.39C386.36,347.09,387.09,347.36,386.6,348.2Z" fill="#fca56b"/>
      <path id="Trazado_112879" data-name="Trazado 112879" d="M377.67,349.16s8.75,2.75,10.38-2.73,3.86-8.81-1.66-10.8-7.24-.22-8.23,1.47S375.43,348.3,377.67,349.16Z" fill="#ffb27d"/>
      <path id="Trazado_112880" data-name="Trazado 112880" d="M378.51,336.58s.54,6.38,1.86,6.1,2.52-.47,2.32,1.45-2,4.14,2,4.49,9.93-10.13,8.82-12.11C390.34,330.77,373.87,329.58,378.51,336.58Z" fill="#163560"/>
    </g>
    <g id="Grupo_55843" data-name="Grupo 55843">
      <g id="Grupo_55841" data-name="Grupo 55841">
        <g id="Grupo_55839" data-name="Grupo 55839">
          <g id="Grupo_55818" data-name="Grupo 55818">
            <path id="Trazado_112881" data-name="Trazado 112881" d="M336.05,472.49v2.3a.74.74,0,0,1-.18.49,1,1,0,0,1-.49.33l-.19.05H291.47a1,1,0,0,1-1.05-.75v-2.56a1,1,0,0,1,1.05-.75h43.72l.19.05a1,1,0,0,1,.49.33.74.74,0,0,1,.18.51Z" fill="#ffb93e"/>
            <path id="Trazado_112882" data-name="Trazado 112882" d="M314.68,475.67H291.35a.93.93,0,0,1-.9-.65v-2.76a.93.93,0,0,1,.9-.65h20.46A7.14,7.14,0,0,0,314.68,475.67Z" fill="#fd8f25"/>
            <g id="Grupo_55817" data-name="Grupo 55817">
              <rect id="Rectángulo_5415" data-name="Rectángulo 5415" width="0.49" height="4.06" transform="translate(330.26 471.61)" fill="#fd8f25"/>
              <rect id="Rectángulo_5416" data-name="Rectángulo 5416" width="0.49" height="4.06" transform="translate(328.59 471.61)" fill="#fd8f25"/>
              <rect id="Rectángulo_5417" data-name="Rectángulo 5417" width="0.49" height="4.06" transform="translate(326.58 471.61)" fill="#fd8f25"/>
              <rect id="Rectángulo_5418" data-name="Rectángulo 5418" width="0.49" height="4.06" transform="translate(323.5 471.61)" fill="#fd8f25"/>
              <rect id="Rectángulo_5419" data-name="Rectángulo 5419" width="0.49" height="4.06" transform="translate(320.24 471.61)" fill="#fd8f25"/>
              <rect id="Rectángulo_5420" data-name="Rectángulo 5420" width="0.49" height="4.06" transform="translate(315.25 471.61)" fill="#fd8f25"/>
              <rect id="Rectángulo_5421" data-name="Rectángulo 5421" width="0.49" height="4.06" transform="translate(310.58 471.61)" fill="#fd8f25"/>
              <rect id="Rectángulo_5422" data-name="Rectángulo 5422" width="0.49" height="4.06" transform="translate(306.41 471.61)" fill="#fd8f25"/>
              <rect id="Rectángulo_5423" data-name="Rectángulo 5423" width="0.49" height="4.06" transform="translate(331.85 471.61)" fill="#fd8f25"/>
              <rect id="Rectángulo_5424" data-name="Rectángulo 5424" width="0.49" height="4.06" transform="translate(332.91 471.61)" fill="#fd8f25"/>
              <rect id="Rectángulo_5425" data-name="Rectángulo 5425" width="0.49" height="4.06" transform="translate(333.92 471.61)" fill="#fd8f25"/>
              <path id="Trazado_112883" data-name="Trazado 112883" d="M335.19,471.62v4h-.5v-4.06h.5Z" fill="#fd8f25"/>
              <path id="Trazado_112884" data-name="Trazado 112884" d="M335.87,472v3.28a1,1,0,0,1-.49.33v-3.94A1,1,0,0,1,335.87,472Z" fill="#fd8f25"/>
            </g>
          </g>
          <g id="Grupo_55820" data-name="Grupo 55820">
            <path id="Trazado_112885" data-name="Trazado 112885" d="M331.4,468.43v2.29a.8.8,0,0,1-.18.5l-.1.1a1.05,1.05,0,0,1-.4.23H286.81a1,1,0,0,1-1-.76.191.191,0,0,1,0-.08v-2.39a.191.191,0,0,1,0-.08,1,1,0,0,1,1-.76H330.9l.13.09h0a.83.83,0,0,1,.37.86Z" fill="#ffb93e"/>
            <path id="Trazado_112886" data-name="Trazado 112886" d="M310,471.61H286.7a.93.93,0,0,1-.91-.66.3.3,0,0,1,0-.1.191.191,0,0,1,0-.08v-2.39a.191.191,0,0,1,0-.08.3.3,0,0,1,0-.1.93.93,0,0,1,.91-.66h20.46a.3.3,0,0,0,0,.1,7.15,7.15,0,0,0,2.84,3.97Z" fill="#fd8f25"/>
            <g id="Grupo_55819" data-name="Grupo 55819">
              <rect id="Rectángulo_5426" data-name="Rectángulo 5426" width="0.49" height="4.06" transform="translate(325.61 467.54)" fill="#fd8f25"/>
              <rect id="Rectángulo_5427" data-name="Rectángulo 5427" width="0.49" height="4.06" transform="translate(323.93 467.54)" fill="#fd8f25"/>
              <rect id="Rectángulo_5428" data-name="Rectángulo 5428" width="0.49" height="4.06" transform="translate(321.92 467.54)" fill="#fd8f25"/>
              <rect id="Rectángulo_5429" data-name="Rectángulo 5429" width="0.49" height="4.06" transform="translate(318.84 467.54)" fill="#fd8f25"/>
              <rect id="Rectángulo_5430" data-name="Rectángulo 5430" width="0.49" height="4.06" transform="translate(315.59 467.54)" fill="#fd8f25"/>
              <rect id="Rectángulo_5431" data-name="Rectángulo 5431" width="0.49" height="4.06" transform="translate(310.6 467.54)" fill="#fd8f25"/>
              <rect id="Rectángulo_5432" data-name="Rectángulo 5432" width="0.49" height="4.06" transform="translate(305.92 467.54)" fill="#fd8f25"/>
              <rect id="Rectángulo_5433" data-name="Rectángulo 5433" width="0.49" height="4.06" transform="translate(301.75 467.54)" fill="#fd8f25"/>
              <rect id="Rectángulo_5434" data-name="Rectángulo 5434" width="0.49" height="4.06" transform="translate(327.2 467.54)" fill="#fd8f25"/>
              <rect id="Rectángulo_5435" data-name="Rectángulo 5435" width="0.49" height="4.06" transform="translate(328.25 467.54)" fill="#fd8f25"/>
              <rect id="Rectángulo_5436" data-name="Rectángulo 5436" width="0.49" height="4.06" transform="translate(329.27 467.54)" fill="#fd8f25"/>
              <path id="Trazado_112887" data-name="Trazado 112887" d="M330.53,467.56v4H330v-4.07h.3Z" fill="#fd8f25"/>
              <path id="Trazado_112888" data-name="Trazado 112888" d="M331.22,467.93v3.29a1,1,0,0,1-.5.33V467.6a1.131,1.131,0,0,1,.5.33Z" fill="#fd8f25"/>
            </g>
          </g>
          <g id="Grupo_55822" data-name="Grupo 55822">
            <path id="Trazado_112889" data-name="Trazado 112889" d="M333.65,464.46v2.3a.8.8,0,0,1-.18.49,1,1,0,0,1-.5.33l-.19.05H289.06a1.159,1.159,0,0,1-.49-.1.9.9,0,0,1-.55-.64.13.13,0,0,1,0-.06v-2.42a.281.281,0,0,1,0-.09,1,1,0,0,1,1-.75h43.72l.19.05a1.1,1.1,0,0,1,.5.33A.8.8,0,0,1,333.65,464.46Z" fill="#ffb93e"/>
            <path id="Trazado_112890" data-name="Trazado 112890" d="M312.27,467.64H289a.92.92,0,0,1-.44-.1.89.89,0,0,1-.49-.64.13.13,0,0,1,0-.06v-2.42a.28.28,0,0,1,0-.09.291.291,0,0,1,0-.09.93.93,0,0,1,.91-.66h20.46a7.06,7.06,0,0,0,2.72,4,.716.716,0,0,0,.11.06Z" fill="#fd8f25"/>
            <g id="Grupo_55821" data-name="Grupo 55821">
              <rect id="Rectángulo_5437" data-name="Rectángulo 5437" width="0.49" height="4.06" transform="translate(327.86 463.58)" fill="#fd8f25"/>
              <rect id="Rectángulo_5438" data-name="Rectángulo 5438" width="0.49" height="4.06" transform="translate(326.18 463.58)" fill="#fd8f25"/>
              <rect id="Rectángulo_5439" data-name="Rectángulo 5439" width="0.49" height="4.06" transform="translate(324.17 463.58)" fill="#fd8f25"/>
              <rect id="Rectángulo_5440" data-name="Rectángulo 5440" width="0.49" height="4.06" transform="translate(321.09 463.58)" fill="#fd8f25"/>
              <rect id="Rectángulo_5441" data-name="Rectángulo 5441" width="0.49" height="4.06" transform="translate(317.84 463.58)" fill="#fd8f25"/>
              <rect id="Rectángulo_5442" data-name="Rectángulo 5442" width="0.49" height="4.06" transform="translate(312.85 463.58)" fill="#fd8f25"/>
              <rect id="Rectángulo_5443" data-name="Rectángulo 5443" width="0.49" height="4.06" transform="translate(308.17 463.58)" fill="#fd8f25"/>
              <rect id="Rectángulo_5444" data-name="Rectángulo 5444" width="0.49" height="4.06" transform="translate(304 463.58)" fill="#fd8f25"/>
              <rect id="Rectángulo_5445" data-name="Rectángulo 5445" width="0.49" height="4.06" transform="translate(329.45 463.58)" fill="#fd8f25"/>
              <rect id="Rectángulo_5446" data-name="Rectángulo 5446" width="0.49" height="4.06" transform="translate(330.5 463.58)" fill="#fd8f25"/>
              <rect id="Rectángulo_5447" data-name="Rectángulo 5447" width="0.49" height="4.06" transform="translate(331.52 463.58)" fill="#fd8f25"/>
              <path id="Trazado_112891" data-name="Trazado 112891" d="M332.78,463.59v4h-.5v-4.06h.5Z" fill="#fd8f25"/>
              <path id="Trazado_112892" data-name="Trazado 112892" d="M333.47,464v3.28a1,1,0,0,1-.5.33v-3.94A1,1,0,0,1,333.47,464Z" fill="#fd8f25"/>
            </g>
          </g>
          <g id="Grupo_55824" data-name="Grupo 55824">
            <path id="Trazado_112893" data-name="Trazado 112893" d="M334.69,460.4v2.29a.8.8,0,0,1-.18.5l-.05.05a.84.84,0,0,1-.3.22l-.14.06a.708.708,0,0,1-.2,0H290.1a1,1,0,0,1-1-.75v-2.48a1,1,0,0,1,.93-.83h44.04a1.091,1.091,0,0,1,.49.34.8.8,0,0,1,.13.6Z" fill="#ffb93e"/>
            <path id="Trazado_112894" data-name="Trazado 112894" d="M313.31,463.58H290a.94.94,0,0,1-.91-.66v-2.57a.91.91,0,0,1,.83-.83h20.57a7.13,7.13,0,0,0,2.82,4.06Z" fill="#fd8f25"/>
            <g id="Grupo_55823" data-name="Grupo 55823">
              <rect id="Rectángulo_5448" data-name="Rectángulo 5448" width="0.49" height="4.06" transform="translate(328.9 459.52)" fill="#fd8f25"/>
              <rect id="Rectángulo_5449" data-name="Rectángulo 5449" width="0.49" height="4.06" transform="translate(327.22 459.52)" fill="#fd8f25"/>
              <rect id="Rectángulo_5450" data-name="Rectángulo 5450" width="0.49" height="4.06" transform="translate(325.21 459.52)" fill="#fd8f25"/>
              <rect id="Rectángulo_5451" data-name="Rectángulo 5451" width="0.49" height="4.06" transform="translate(322.14 459.52)" fill="#fd8f25"/>
              <rect id="Rectángulo_5452" data-name="Rectángulo 5452" width="0.49" height="4.06" transform="translate(318.88 459.52)" fill="#fd8f25"/>
              <rect id="Rectángulo_5453" data-name="Rectángulo 5453" width="0.49" height="4.06" transform="translate(313.89 459.52)" fill="#fd8f25"/>
              <rect id="Rectángulo_5454" data-name="Rectángulo 5454" width="0.49" height="4.06" transform="translate(309.22 459.52)" fill="#fd8f25"/>
              <rect id="Rectángulo_5455" data-name="Rectángulo 5455" width="0.49" height="4.06" transform="translate(305.04 459.52)" fill="#fd8f25"/>
              <rect id="Rectángulo_5456" data-name="Rectángulo 5456" width="0.49" height="4.06" transform="translate(330.49 459.52)" fill="#fd8f25"/>
              <rect id="Rectángulo_5457" data-name="Rectángulo 5457" width="0.49" height="4.06" transform="translate(331.55 459.52)" fill="#fd8f25"/>
              <rect id="Rectángulo_5458" data-name="Rectángulo 5458" width="0.49" height="4.06" transform="translate(332.56 459.52)" fill="#fd8f25"/>
              <path id="Trazado_112895" data-name="Trazado 112895" d="M333.82,459.53v4h-.49v-4.06h.49Z" fill="#fd8f25"/>
              <path id="Trazado_112896" data-name="Trazado 112896" d="M334.51,459.91v3.28a1.07,1.07,0,0,1-.49.33v-3.95a1.09,1.09,0,0,1,.49.34Z" fill="#fd8f25"/>
            </g>
          </g>
          <g id="Grupo_55826" data-name="Grupo 55826">
            <path id="Trazado_112897" data-name="Trazado 112897" d="M331.49,456.34v2.3a.8.8,0,0,1-.18.49,1,1,0,0,1-.5.33l-.19.05H286.9a1,1,0,0,1-1-.84v-2.42a1,1,0,0,1,.79-.77h44.14a1,1,0,0,1,.5.33A.8.8,0,0,1,331.49,456.34Z" fill="#ffb93e"/>
            <path id="Trazado_112898" data-name="Trazado 112898" d="M310.11,459.52H286.79a.92.92,0,0,1-.94-.84v-2.42a.91.91,0,0,1,.73-.78h20.67a7.16,7.16,0,0,0,2.84,4Z" fill="#fd8f25"/>
            <g id="Grupo_55825" data-name="Grupo 55825">
              <rect id="Rectángulo_5459" data-name="Rectángulo 5459" width="0.49" height="4.06" transform="translate(325.7 455.46)" fill="#fd8f25"/>
              <rect id="Rectángulo_5460" data-name="Rectángulo 5460" width="0.49" height="4.06" transform="translate(324.02 455.46)" fill="#fd8f25"/>
              <rect id="Rectángulo_5461" data-name="Rectángulo 5461" width="0.49" height="4.06" transform="translate(322.01 455.46)" fill="#fd8f25"/>
              <rect id="Rectángulo_5462" data-name="Rectángulo 5462" width="0.49" height="4.06" transform="translate(318.94 455.46)" fill="#fd8f25"/>
              <rect id="Rectángulo_5463" data-name="Rectángulo 5463" width="0.49" height="4.06" transform="translate(315.68 455.46)" fill="#fd8f25"/>
              <rect id="Rectángulo_5464" data-name="Rectángulo 5464" width="0.49" height="4.06" transform="translate(310.69 455.46)" fill="#fd8f25"/>
              <rect id="Rectángulo_5465" data-name="Rectángulo 5465" width="0.49" height="4.06" transform="translate(306.02 455.46)" fill="#fd8f25"/>
              <rect id="Rectángulo_5466" data-name="Rectángulo 5466" width="0.49" height="4.06" transform="translate(301.84 455.46)" fill="#fd8f25"/>
              <rect id="Rectángulo_5467" data-name="Rectángulo 5467" width="0.49" height="4.06" transform="translate(327.29 455.46)" fill="#fd8f25"/>
              <rect id="Rectángulo_5468" data-name="Rectángulo 5468" width="0.49" height="4.06" transform="translate(328.34 455.46)" fill="#fd8f25"/>
              <rect id="Rectángulo_5469" data-name="Rectángulo 5469" width="0.49" height="4.06" transform="translate(329.36 455.46)" fill="#fd8f25"/>
              <path id="Trazado_112899" data-name="Trazado 112899" d="M330.62,455.47v4h-.49v-4.06h.49Z" fill="#fd8f25"/>
              <path id="Trazado_112900" data-name="Trazado 112900" d="M331.31,455.85v3.28a1,1,0,0,1-.5.33v-3.94A1,1,0,0,1,331.31,455.85Z" fill="#fd8f25"/>
            </g>
          </g>
          <g id="Grupo_55828" data-name="Grupo 55828">
            <path id="Trazado_112901" data-name="Trazado 112901" d="M331.4,452.31v2.29a.85.85,0,0,1-.18.5l-.1.1a1.05,1.05,0,0,1-.4.23h-44.1a1,1,0,0,1-.85-.75.17.17,0,0,1,0-.07v-2.39a.191.191,0,0,1,0-.08,1,1,0,0,1,1-.76h44.02a1.12,1.12,0,0,1,.35.25h0a.8.8,0,0,1,.26.68Z" fill="#ffb93e"/>
            <path id="Trazado_112902" data-name="Trazado 112902" d="M310,455.49H286.58a.9.9,0,0,1-.81-.76.17.17,0,0,1,0-.07v-2.39a.191.191,0,0,1,0-.08.3.3,0,0,1,0-.1.93.93,0,0,1,.91-.66h20.46a.3.3,0,0,0,0,.1,7.13,7.13,0,0,0,2.8,3.94Z" fill="#fd8f25"/>
            <g id="Grupo_55827" data-name="Grupo 55827">
              <rect id="Rectángulo_5470" data-name="Rectángulo 5470" width="0.49" height="4.06" transform="translate(325.61 451.42)" fill="#fd8f25"/>
              <rect id="Rectángulo_5471" data-name="Rectángulo 5471" width="0.49" height="4.06" transform="translate(323.93 451.42)" fill="#fd8f25"/>
              <rect id="Rectángulo_5472" data-name="Rectángulo 5472" width="0.49" height="4.06" transform="translate(321.92 451.42)" fill="#fd8f25"/>
              <rect id="Rectángulo_5473" data-name="Rectángulo 5473" width="0.49" height="4.06" transform="translate(318.84 451.42)" fill="#fd8f25"/>
              <rect id="Rectángulo_5474" data-name="Rectángulo 5474" width="0.49" height="4.06" transform="translate(315.59 451.42)" fill="#fd8f25"/>
              <rect id="Rectángulo_5475" data-name="Rectángulo 5475" width="0.49" height="4.06" transform="translate(310.6 451.42)" fill="#fd8f25"/>
              <rect id="Rectángulo_5476" data-name="Rectángulo 5476" width="0.49" height="4.06" transform="translate(305.92 451.42)" fill="#fd8f25"/>
              <rect id="Rectángulo_5477" data-name="Rectángulo 5477" width="0.49" height="4.06" transform="translate(301.75 451.42)" fill="#fd8f25"/>
              <rect id="Rectángulo_5478" data-name="Rectángulo 5478" width="0.49" height="4.06" transform="translate(327.2 451.42)" fill="#fd8f25"/>
              <rect id="Rectángulo_5479" data-name="Rectángulo 5479" width="0.49" height="4.06" transform="translate(328.25 451.42)" fill="#fd8f25"/>
              <rect id="Rectángulo_5480" data-name="Rectángulo 5480" width="0.49" height="4.06" transform="translate(329.27 451.42)" fill="#fd8f25"/>
              <path id="Trazado_112903" data-name="Trazado 112903" d="M330.53,451.44v4H330v-4.07h.3Z" fill="#fd8f25"/>
              <path id="Trazado_112904" data-name="Trazado 112904" d="M331.22,451.81v3.29a1.13,1.13,0,0,1-.5.33v-3.95A1,1,0,0,1,331.22,451.81Z" fill="#fd8f25"/>
            </g>
          </g>
          <g id="Grupo_55830" data-name="Grupo 55830">
            <path id="Trazado_112905" data-name="Trazado 112905" d="M333.65,448.34v2.3a.8.8,0,0,1-.18.49,1,1,0,0,1-.5.33l-.19.05H289.06a1.159,1.159,0,0,1-.49-.1.9.9,0,0,1-.55-.64.13.13,0,0,1,0-.06V448.3a.281.281,0,0,1,0-.09,1,1,0,0,1,1-.75h43.91a1,1,0,0,1,.5.33A.8.8,0,0,1,333.65,448.34Z" fill="#ffb93e"/>
            <path id="Trazado_112906" data-name="Trazado 112906" d="M312.27,451.52H289a.92.92,0,0,1-.44-.1.89.89,0,0,1-.49-.64.13.13,0,0,1,0-.06V448.3a.28.28,0,0,1,0-.09.291.291,0,0,1,0-.09.93.93,0,0,1,.91-.66h20.46a7.06,7.06,0,0,0,2.72,4,.713.713,0,0,0,.11.06Z" fill="#fd8f25"/>
            <g id="Grupo_55829" data-name="Grupo 55829">
              <rect id="Rectángulo_5481" data-name="Rectángulo 5481" width="0.49" height="4.06" transform="translate(327.86 447.46)" fill="#fd8f25"/>
              <rect id="Rectángulo_5482" data-name="Rectángulo 5482" width="0.49" height="4.06" transform="translate(326.18 447.46)" fill="#fd8f25"/>
              <rect id="Rectángulo_5483" data-name="Rectángulo 5483" width="0.49" height="4.06" transform="translate(324.17 447.46)" fill="#fd8f25"/>
              <rect id="Rectángulo_5484" data-name="Rectángulo 5484" width="0.49" height="4.06" transform="translate(321.09 447.46)" fill="#fd8f25"/>
              <rect id="Rectángulo_5485" data-name="Rectángulo 5485" width="0.49" height="4.06" transform="translate(317.84 447.46)" fill="#fd8f25"/>
              <rect id="Rectángulo_5486" data-name="Rectángulo 5486" width="0.49" height="4.06" transform="translate(312.85 447.46)" fill="#fd8f25"/>
              <rect id="Rectángulo_5487" data-name="Rectángulo 5487" width="0.49" height="4.06" transform="translate(308.17 447.46)" fill="#fd8f25"/>
              <rect id="Rectángulo_5488" data-name="Rectángulo 5488" width="0.49" height="4.06" transform="translate(304 447.46)" fill="#fd8f25"/>
              <rect id="Rectángulo_5489" data-name="Rectángulo 5489" width="0.49" height="4.06" transform="translate(329.45 447.46)" fill="#fd8f25"/>
              <rect id="Rectángulo_5490" data-name="Rectángulo 5490" width="0.49" height="4.06" transform="translate(330.5 447.46)" fill="#fd8f25"/>
              <rect id="Rectángulo_5491" data-name="Rectángulo 5491" width="0.49" height="4.06" transform="translate(331.52 447.46)" fill="#fd8f25"/>
              <path id="Trazado_112907" data-name="Trazado 112907" d="M332.78,447.47v4h-.5v-4.06h.5Z" fill="#fd8f25"/>
              <path id="Trazado_112908" data-name="Trazado 112908" d="M333.47,447.85v3.28a1,1,0,0,1-.5.33v-3.94A1,1,0,0,1,333.47,447.85Z" fill="#fd8f25"/>
            </g>
          </g>
          <g id="Grupo_55832" data-name="Grupo 55832">
            <path id="Trazado_112909" data-name="Trazado 112909" d="M337.2,444.28v2.29a.82.82,0,0,1-.17.5h0v.05a1.079,1.079,0,0,1-.24.18l-.14.07H292.62a1,1,0,0,1-1-.75.281.281,0,0,1,0-.09.09.09,0,0,1,0-.05v-2.29a1,1,0,0,1,.92-.83h44.04a1.15,1.15,0,0,1,.45.28h0a.79.79,0,0,1,.17.64Z" fill="#ffb93e"/>
            <path id="Trazado_112910" data-name="Trazado 112910" d="M315.83,447.46H292.5a.93.93,0,0,1-.9-.66.29.29,0,0,1,0-.09.279.279,0,0,1,0-.09.09.09,0,0,1,0-.05v-2.29a.9.9,0,0,1,.82-.83H313a7.11,7.11,0,0,0,2.83,4.01Z" fill="#fd8f25"/>
            <g id="Grupo_55831" data-name="Grupo 55831">
              <rect id="Rectángulo_5492" data-name="Rectángulo 5492" width="0.49" height="4.06" transform="translate(331.41 443.39)" fill="#fd8f25"/>
              <rect id="Rectángulo_5493" data-name="Rectángulo 5493" width="0.49" height="4.06" transform="translate(329.74 443.39)" fill="#fd8f25"/>
              <rect id="Rectángulo_5494" data-name="Rectángulo 5494" width="0.49" height="4.06" transform="translate(327.73 443.39)" fill="#fd8f25"/>
              <rect id="Rectángulo_5495" data-name="Rectángulo 5495" width="0.49" height="4.06" transform="translate(324.65 443.39)" fill="#fd8f25"/>
              <rect id="Rectángulo_5496" data-name="Rectángulo 5496" width="0.49" height="4.06" transform="translate(321.4 443.39)" fill="#fd8f25"/>
              <rect id="Rectángulo_5497" data-name="Rectángulo 5497" width="0.49" height="4.06" transform="translate(316.4 443.39)" fill="#fd8f25"/>
              <rect id="Rectángulo_5498" data-name="Rectángulo 5498" width="0.49" height="4.06" transform="translate(311.73 443.39)" fill="#fd8f25"/>
              <rect id="Rectángulo_5499" data-name="Rectángulo 5499" width="0.49" height="4.06" transform="translate(307.56 443.39)" fill="#fd8f25"/>
              <rect id="Rectángulo_5500" data-name="Rectángulo 5500" width="0.49" height="4.06" transform="translate(333.01 443.39)" fill="#fd8f25"/>
              <rect id="Rectángulo_5501" data-name="Rectángulo 5501" width="0.49" height="4.06" transform="translate(334.06 443.39)" fill="#fd8f25"/>
              <rect id="Rectángulo_5502" data-name="Rectángulo 5502" width="0.49" height="4.06" transform="translate(335.08 443.39)" fill="#fd8f25"/>
              <path id="Trazado_112911" data-name="Trazado 112911" d="M336.34,443.41v4h-.5v-4.07h.31Z" fill="#fd8f25"/>
              <path id="Trazado_112912" data-name="Trazado 112912" d="M337,443.78v3.29a1.07,1.07,0,0,1-.49.33v-3.95A1.151,1.151,0,0,1,337,443.78Z" fill="#fd8f25"/>
            </g>
          </g>
          <g id="Grupo_55834" data-name="Grupo 55834">
            <path id="Trazado_112913" data-name="Trazado 112913" d="M331.49,440.22v2.3a.8.8,0,0,1-.18.49,1,1,0,0,1-.5.33l-.19.05H286.9a1.09,1.09,0,0,1-.9-.39.8.8,0,0,1-.16-.42V440.2a.92.92,0,0,1,.75-.8,1,1,0,0,1,.3,0h44a1.169,1.169,0,0,1,.3.19h0a.36.36,0,0,1,.08.09.8.8,0,0,1,.22.54Z" fill="#ffb93e"/>
            <path id="Trazado_112914" data-name="Trazado 112914" d="M310.11,443.4H286.79a1,1,0,0,1-.79-.4.86.86,0,0,1-.15-.44v-2.38a.92.92,0,0,1,.75-.83h20.65a.291.291,0,0,1,0,.09,7.11,7.11,0,0,0,2.83,4Z" fill="#fd8f25"/>
            <g id="Grupo_55833" data-name="Grupo 55833">
              <rect id="Rectángulo_5503" data-name="Rectángulo 5503" width="0.49" height="4.06" transform="translate(325.7 439.34)" fill="#fd8f25"/>
              <rect id="Rectángulo_5504" data-name="Rectángulo 5504" width="0.49" height="4.06" transform="translate(324.02 439.34)" fill="#fd8f25"/>
              <rect id="Rectángulo_5505" data-name="Rectángulo 5505" width="0.49" height="4.06" transform="translate(322.01 439.34)" fill="#fd8f25"/>
              <rect id="Rectángulo_5506" data-name="Rectángulo 5506" width="0.49" height="4.06" transform="translate(318.94 439.34)" fill="#fd8f25"/>
              <rect id="Rectángulo_5507" data-name="Rectángulo 5507" width="0.49" height="4.06" transform="translate(315.68 439.34)" fill="#fd8f25"/>
              <rect id="Rectángulo_5508" data-name="Rectángulo 5508" width="0.49" height="4.06" transform="translate(310.69 439.34)" fill="#fd8f25"/>
              <rect id="Rectángulo_5509" data-name="Rectángulo 5509" width="0.49" height="4.06" transform="translate(306.02 439.34)" fill="#fd8f25"/>
              <rect id="Rectángulo_5510" data-name="Rectángulo 5510" width="0.49" height="4.06" transform="translate(301.84 439.34)" fill="#fd8f25"/>
              <rect id="Rectángulo_5511" data-name="Rectángulo 5511" width="0.49" height="4.06" transform="translate(327.29 439.34)" fill="#fd8f25"/>
              <rect id="Rectángulo_5512" data-name="Rectángulo 5512" width="0.49" height="4.06" transform="translate(328.34 439.34)" fill="#fd8f25"/>
              <rect id="Rectángulo_5513" data-name="Rectángulo 5513" width="0.49" height="4.06" transform="translate(329.36 439.34)" fill="#fd8f25"/>
              <path id="Trazado_112915" data-name="Trazado 112915" d="M330.62,439.35v4h-.49v-4.06h.49Z" fill="#fd8f25"/>
              <path id="Trazado_112916" data-name="Trazado 112916" d="M331.31,439.73V443a1,1,0,0,1-.5.33V439.4A1,1,0,0,1,331.31,439.73Z" fill="#fd8f25"/>
            </g>
          </g>
          <g id="Grupo_55836" data-name="Grupo 55836">
            <path id="Trazado_112917" data-name="Trazado 112917" d="M334.69,436.25v2.3a.8.8,0,0,1-.18.49,1.07,1.07,0,0,1-.49.33l-.2.05H290.1a1.19,1.19,0,0,1-.47-.09.92.92,0,0,1-.58-.71V436.2a1,1,0,0,1,.93-.83h43.84a.73.73,0,0,1,.2.05,1,1,0,0,1,.49.33.8.8,0,0,1,.18.5Z" fill="#ffb93e"/>
            <path id="Trazado_112918" data-name="Trazado 112918" d="M313.31,439.43H290a1,1,0,0,1-.42-.09.91.91,0,0,1-.52-.71V436.2a.91.91,0,0,1,.83-.83h20.57a7.15,7.15,0,0,0,2.73,4Z" fill="#fd8f25"/>
            <g id="Grupo_55835" data-name="Grupo 55835">
              <rect id="Rectángulo_5514" data-name="Rectángulo 5514" width="0.49" height="4.06" transform="translate(328.9 435.37)" fill="#fd8f25"/>
              <rect id="Rectángulo_5515" data-name="Rectángulo 5515" width="0.49" height="4.06" transform="translate(327.22 435.37)" fill="#fd8f25"/>
              <rect id="Rectángulo_5516" data-name="Rectángulo 5516" width="0.49" height="4.06" transform="translate(325.21 435.37)" fill="#fd8f25"/>
              <rect id="Rectángulo_5517" data-name="Rectángulo 5517" width="0.49" height="4.06" transform="translate(322.14 435.37)" fill="#fd8f25"/>
              <rect id="Rectángulo_5518" data-name="Rectángulo 5518" width="0.49" height="4.06" transform="translate(318.88 435.37)" fill="#fd8f25"/>
              <rect id="Rectángulo_5519" data-name="Rectángulo 5519" width="0.49" height="4.06" transform="translate(313.89 435.37)" fill="#fd8f25"/>
              <rect id="Rectángulo_5520" data-name="Rectángulo 5520" width="0.49" height="4.06" transform="translate(309.22 435.37)" fill="#fd8f25"/>
              <rect id="Rectángulo_5521" data-name="Rectángulo 5521" width="0.49" height="4.06" transform="translate(305.04 435.37)" fill="#fd8f25"/>
              <rect id="Rectángulo_5522" data-name="Rectángulo 5522" width="0.49" height="4.06" transform="translate(330.49 435.37)" fill="#fd8f25"/>
              <rect id="Rectángulo_5523" data-name="Rectángulo 5523" width="0.49" height="4.06" transform="translate(331.55 435.37)" fill="#fd8f25"/>
              <rect id="Rectángulo_5524" data-name="Rectángulo 5524" width="0.49" height="4.06" transform="translate(332.56 435.37)" fill="#fd8f25"/>
              <path id="Trazado_112919" data-name="Trazado 112919" d="M333.82,435.38v4h-.49v-4.06h.49Z" fill="#fd8f25"/>
              <path id="Trazado_112920" data-name="Trazado 112920" d="M334.51,435.76V439a1.07,1.07,0,0,1-.49.33v-3.94a1,1,0,0,1,.49.37Z" fill="#fd8f25"/>
            </g>
          </g>
          <g id="Grupo_55838" data-name="Grupo 55838">
            <path id="Trazado_112921" data-name="Trazado 112921" d="M336.05,432.19v2.3a.74.74,0,0,1-.18.49,1,1,0,0,1-.49.33l-.19.05H291.46a1,1,0,0,1-1-.84v-2.38a1,1,0,0,1,1-.84h43.73l.19.05a1,1,0,0,1,.49.33.74.74,0,0,1,.18.51Z" fill="#ffb93e"/>
            <path id="Trazado_112922" data-name="Trazado 112922" d="M314.68,435.37H291.35a.92.92,0,0,1-.94-.84v-2.38a.92.92,0,0,1,.94-.84h20.46a7.19,7.19,0,0,0,2.86,4.06Z" fill="#fd8f25"/>
            <g id="Grupo_55837" data-name="Grupo 55837">
              <rect id="Rectángulo_5525" data-name="Rectángulo 5525" width="0.49" height="4.06" transform="translate(330.26 431.31)" fill="#fd8f25"/>
              <rect id="Rectángulo_5526" data-name="Rectángulo 5526" width="0.49" height="4.06" transform="translate(328.59 431.31)" fill="#fd8f25"/>
              <rect id="Rectángulo_5527" data-name="Rectángulo 5527" width="0.49" height="4.06" transform="translate(326.58 431.31)" fill="#fd8f25"/>
              <rect id="Rectángulo_5528" data-name="Rectángulo 5528" width="0.49" height="4.06" transform="translate(323.5 431.31)" fill="#fd8f25"/>
              <rect id="Rectángulo_5529" data-name="Rectángulo 5529" width="0.49" height="4.06" transform="translate(320.24 431.31)" fill="#fd8f25"/>
              <rect id="Rectángulo_5530" data-name="Rectángulo 5530" width="0.49" height="4.06" transform="translate(315.25 431.31)" fill="#fd8f25"/>
              <rect id="Rectángulo_5531" data-name="Rectángulo 5531" width="0.49" height="4.06" transform="translate(310.58 431.31)" fill="#fd8f25"/>
              <rect id="Rectángulo_5532" data-name="Rectángulo 5532" width="0.49" height="4.06" transform="translate(306.41 431.31)" fill="#fd8f25"/>
              <rect id="Rectángulo_5533" data-name="Rectángulo 5533" width="0.49" height="4.06" transform="translate(331.85 431.31)" fill="#fd8f25"/>
              <rect id="Rectángulo_5534" data-name="Rectángulo 5534" width="0.49" height="4.06" transform="translate(332.91 431.31)" fill="#fd8f25"/>
              <rect id="Rectángulo_5535" data-name="Rectángulo 5535" width="0.49" height="4.06" transform="translate(333.92 431.31)" fill="#fd8f25"/>
              <path id="Trazado_112923" data-name="Trazado 112923" d="M335.19,431.32v4h-.5v-4.06h.5Z" fill="#fd8f25"/>
              <path id="Trazado_112924" data-name="Trazado 112924" d="M335.87,431.7V435a1,1,0,0,1-.49.33v-3.94A1,1,0,0,1,335.87,431.7Z" fill="#fd8f25"/>
            </g>
          </g>
        </g>
        <g id="Grupo_55840" data-name="Grupo 55840">
          <path id="Trazado_112925" data-name="Trazado 112925" d="M322.25,408.15s-2.28,3.22-4.38,3.26-5.29-1.49-5.29-1.49-1.92-4.29-.61-6a2.8,2.8,0,0,1,2.67.44,4.08,4.08,0,0,1,.71.68,2.27,2.27,0,0,0,1.1.75c1.5.45,3.27-.62,3.94.41a7.14,7.14,0,0,0,1.15,1.37,5.134,5.134,0,0,0,.71.58Z" fill="#ffeddc"/>
          <path id="Trazado_112926" data-name="Trazado 112926" d="M292.44,431.37s8.09-19.59,22.63-20c0,0,13.43,1.49,14.18,20Z" fill="#ffeddc"/>
          <path id="Trazado_112927" data-name="Trazado 112927" d="M311.09,412s5.83,1.3,7.63.53a1.8,1.8,0,0,0-2.19-2.09,5.24,5.24,0,0,1-3.42-.9C312.2,409.08,310.85,411,311.09,412Z" fill="#db6a1d"/>
          <path id="Trazado_112928" data-name="Trazado 112928" d="M316.16,408.33c-.37.28-1.52-3.94-1.52-3.94a4.078,4.078,0,0,1,.71.68,2.27,2.27,0,0,0,1.1.75C316.46,405.94,316.52,408.06,316.16,408.33Z" fill="#e5c1a1"/>
          <path id="Trazado_112929" data-name="Trazado 112929" d="M321.54,407.6a23.361,23.361,0,0,1-3.14,1.67c-.37,0,2-3,2-3a7.139,7.139,0,0,0,1.14,1.33Z" fill="#e5c1a1"/>
          <path id="Trazado_112930" data-name="Trazado 112930" d="M300.34,425.9c-.15-.13,5.72-8.64,7.33-8.71s5.25,1.87,7.88,2.12,5.18-.5,5.68,1.05,1.86,7.07,1,7.95S303.57,428.65,300.34,425.9Z" fill="#f9ddbf"/>
        </g>
      </g>
      <path id="Trazado_112931" data-name="Trazado 112931" d="M305.87,455.46h0a19,19,0,0,1-.65,4h0a2.06,2.06,0,0,1-.17.57,19.551,19.551,0,0,1-1.43,3.49,20,20,0,0,1-2.74,4,.389.389,0,0,1-.08.1,20.9,20.9,0,0,1-4.79,4c-.38.23-.78.46-1.19.67s-.55.28-.82.41a9.213,9.213,0,0,0-.81.45,11.531,11.531,0,0,1-2.77,1.14v-2.02a.93.93,0,0,1,.9-.65H286.7a.93.93,0,0,1-.91-.66.3.3,0,0,1,0-.1.191.191,0,0,1,0-.08v-2.39a.191.191,0,0,1,0-.08.3.3,0,0,1,0-.1.93.93,0,0,1,.91-.66h1.81a.89.89,0,0,1-.49-.64.13.13,0,0,1,0-.06v-2.42a.281.281,0,0,1,0-.09.29.29,0,0,1,0-.09.93.93,0,0,1,.91-.66h1a.94.94,0,0,1-.91-.66v-2.57a.91.91,0,0,1,.83-.83h-3.09a.92.92,0,0,1-.94-.84v-2.42a.771.771,0,1,0-.08-1.54.17.17,0,0,1,0-.07v-2.39a.19.19,0,0,1,0-.08.3.3,0,0,1,0-.1.93.93,0,0,1,.91-.66h1.81a.89.89,0,0,1-.49-.64.13.13,0,0,1,0-.06V448.3a.28.28,0,0,1,0-.09.291.291,0,0,1,0-.09.93.93,0,0,1,.91-.66h3.55a.93.93,0,0,1-.9-.66.29.29,0,0,1,0-.09.28.28,0,0,1,0-.09.09.09,0,0,1,0-.05v-2.29a.9.9,0,0,1,.82-.83h-5.6a1,1,0,0,1-.79-.4h0l.59-3.6h0l.84-5.14a23.315,23.315,0,0,1,2.88.58h.17c.55.16,1.1.33,1.63.53h0a21.58,21.58,0,0,1,6.76,4l.1.09a20,20,0,0,1,2.83,3.05c.17.23.34.45.5.68l.15.23h0c.26.38.5.77.73,1.17a20.071,20.071,0,0,1,1.38,2.89,18.85,18.85,0,0,1,1.05,4v.1a19.281,19.281,0,0,1,.3,3.83Z" fill="#e2810e" opacity="0.5"/>
      <g id="Grupo_55842" data-name="Grupo 55842">
        <path id="Trazado_112932" data-name="Trazado 112932" d="M260.9,463.7a21.41,21.41,0,1,1,29.1,8.41,21.41,21.41,0,0,1-29.1-8.41Z" fill="#e2810e"/>
        <path id="Trazado_112933" data-name="Trazado 112933" d="M289.16,472.55l-.81.46a1.51,1.51,0,0,1-.28.15l-.63.33a21.42,21.42,0,0,1-21.95-36.6,20.256,20.256,0,0,1,2.19-1.38l.83-.44.81-.38a22.443,22.443,0,0,1,2.55-.95,21.867,21.867,0,0,1,3.88-.78,21.42,21.42,0,0,1,13.41,39.59Z" fill="#ffb93e"/>
        <path id="Trazado_112934" data-name="Trazado 112934" d="M278.16,473.68a19.19,19.19,0,1,1,17.962-12.526A19.19,19.19,0,0,1,278.16,473.68Zm-.06-37.86a18.66,18.66,0,1,0,16.39,9.65A18.66,18.66,0,0,0,278.1,435.82Z" fill="#fd8f25"/>
        <path id="Trazado_112935" data-name="Trazado 112935" d="M287.57,456.35c0-.11-.09-.21-.13-.31a5.769,5.769,0,0,0-1.3-1.86,6,6,0,0,0-2-1.2,9.842,9.842,0,0,0-2.6-.49,24.963,24.963,0,0,0-3.12,0,16.516,16.516,0,0,1-1.78,0,4.609,4.609,0,0,1-1.26-.28,2.19,2.19,0,0,1-.83-.57,2.79,2.79,0,0,1-.54-.87,3.269,3.269,0,0,1-.24-1,2.27,2.27,0,0,1,.15-1,2.41,2.41,0,0,1,.6-.85,3.481,3.481,0,0,1,1.09-.66,2.77,2.77,0,0,1,2.34,0,4,4,0,0,1,1.77,2.21l4.36-1.77a8,8,0,0,0-1.43-2.36,6.11,6.11,0,0,0-1.93-1.5,6.331,6.331,0,0,0-2.34-.61,8.28,8.28,0,0,0-2.63.26l-1.24-3-2.41,1,1.21,3a8.86,8.86,0,0,0-2.21,1.58,6.59,6.59,0,0,0-1.4,2,5.251,5.251,0,0,0-.51,2.2,5.639,5.639,0,0,0,.46,2.34,5.869,5.869,0,0,0,1.43,2.18,5.93,5.93,0,0,0,2,1.2,9.7,9.7,0,0,0,2.59.47,29.8,29.8,0,0,0,3.13,0,11.685,11.685,0,0,1,1.7,0,4.362,4.362,0,0,1,1.25.27,2.26,2.26,0,0,1,.87.6,3,3,0,0,1,.59,1,2.8,2.8,0,0,1,.21,1,2.241,2.241,0,0,1-.23,1,2.72,2.72,0,0,1-.7.87,3.85,3.85,0,0,1-1.17.69,4.73,4.73,0,0,1-1.28.33,2.83,2.83,0,0,1-1.29-.13,3,3,0,0,1-1.18-.76,4.571,4.571,0,0,1-.95-1.55l-4.36,1.78a7.369,7.369,0,0,0,1.71,2.66,6.12,6.12,0,0,0,2.26,1.41,6.739,6.739,0,0,0,2.57.37,10.862,10.862,0,0,0,2.64-.43l1.13,2.77,2.4-1-1.13-2.79a9.7,9.7,0,0,0,2.24-1.57,6.73,6.73,0,0,0,1.35-1.76l.08-.15a5.5,5.5,0,0,0,.52-2.19,5.811,5.811,0,0,0-.46-2.53Z" fill="#fd8f25"/>
      </g>
    </g>
    <g id="Grupo_55850" data-name="Grupo 55850" opacity="0.7">
      <g id="Grupo_55845" data-name="Grupo 55845">
        <path id="Trazado_112936" data-name="Trazado 112936" d="M431,452s4.12-4.8.25-7.85c0,0-2.82-1.71-5.12-1.57,0,0,3.26,5.47,2.21,6s-3.19-6.35-3.19-6.35-6.42-.62-8.49.37c0,0,5.49,4.49,4.33,4.76s-7.08-4.14-7.08-4.14-6,1-5.65,4.66,2.37,4.77,3.28,4.67,6.2-2.12,6.31-1.37-3.07,3.16-5.3,3.27c0,0,4.21,4.65,7,3.31s3-3.47,4.78-4.27,3.24-.79,2.52,0-3.88,1.61-4.88,3.37-1.89,3,1,2.52,7.61-2.55,7.81-5Z" fill="#77a4e5"/>
        <g id="Grupo_55844" data-name="Grupo 55844">
          <path id="Trazado_112937" data-name="Trazado 112937" d="M411.17,448s16.23-.63,19.81,4a11.69,11.69,0,0,0,3.23,4.54l.38,1s-2.81-3-3.82-3.14C430.77,454.45,432.35,448.7,411.17,448Z" fill="#77a4e5"/>
          <path id="Trazado_112938" data-name="Trazado 112938" d="M434.21,456.56a10.2,10.2,0,0,1,3.73,7.17l-.64.06s-1.11-4.76-3.12-6.62S434.21,456.56,434.21,456.56Z" fill="#77a4e5"/>
        </g>
      </g>
      <g id="Grupo_55847" data-name="Grupo 55847">
        <path id="Trazado_112939" data-name="Trazado 112939" d="M443.67,448.09s-5.77-3.23-3.08-7.61c0,0,2.16-2.7,4.46-3.39,0,0-1.23,6.54,0,6.7s.85-7.39.85-7.39,6.08-2.92,8.46-2.69c0,0-3.77,6.38-2.54,6.23s5.47-6.62,5.47-6.62,6.23-1.15,7.23,2.54-.62,5.54-1.54,5.77-6.85.16-6.69.92,4.15,2,6.38,1.31c0,0-2.46,6.08-5.69,5.77s-4.23-2.31-6.23-2.46-3.46.39-2.46.92,4.38.18,6,1.55,2.92,2.22-.08,2.84-8.39.23-9.46-2.08Z" fill="#77a4e5"/>
        <g id="Grupo_55846" data-name="Grupo 55846">
          <path id="Trazado_112940" data-name="Trazado 112940" d="M461.67,437s-16.15,5.23-18,11.07a12.229,12.229,0,0,1-1.54,5.62v1.15s1.69-3.92,2.62-4.46C444.75,450.4,441.13,445.32,461.67,437Z" fill="#77a4e5"/>
          <path id="Trazado_112941" data-name="Trazado 112941" d="M442.13,453.71a10.66,10.66,0,0,0-1.07,8.39l.64-.17s-.62-5.07.68-7.63S442.13,453.71,442.13,453.71Z" fill="#77a4e5"/>
        </g>
      </g>
      <g id="Grupo_55849" data-name="Grupo 55849">
        <path id="Trazado_112942" data-name="Trazado 112942" d="M435,440.93s8.63-4.83,4.61-11.39c0,0-3.23-4-6.68-5.06,0,0,1.84,9.78,0,10s-1.26-11.05-1.26-11.05-9.09-4.37-12.66-4c0,0,5.64,9.54,3.8,9.31s-8.17-9.89-8.17-9.89-9.32-1.73-10.81,3.8.92,8.28,2.3,8.63,10.24.23,10,1.38-6.22,3-9.55,2c0,0,3.68,9.09,8.51,8.63s6.33-3.45,9.32-3.68,5.18.57,3.68,1.38-6.56.26-9,2.32-4.37,3.32.11,4.24,12.54.34,14.15-3.11Z" fill="#9fc1f4"/>
        <g id="Grupo_55848" data-name="Grupo 55848">
          <path id="Trazado_112943" data-name="Trazado 112943" d="M408,424.36s24.16,7.83,26.92,16.57a18.451,18.451,0,0,0,2.3,8.4v1.72s-2.53-5.86-3.91-6.67C433.34,444.38,438.75,436.79,408,424.36Z" fill="#9fc1f4"/>
          <path id="Trazado_112944" data-name="Trazado 112944" d="M437.25,449.33a15.93,15.93,0,0,1,1.61,12.54l-1-.25s.93-7.59-1-11.41S437.25,449.33,437.25,449.33Z" fill="#9fc1f4"/>
        </g>
      </g>
      <path id="Trazado_112945" data-name="Trazado 112945" d="M434.75,475.27a14.9,14.9,0,0,1-14.9-14.9h29.8a14.91,14.91,0,0,1-14.9,14.9Z" fill="#9fc1f4"/>
      <rect id="Rectángulo_5536" data-name="Rectángulo 5536" width="30.63" height="0.46" transform="translate(450.13 460.82) rotate(180)" fill="#77a4e5"/>
      <path id="Trazado_112946" data-name="Trazado 112946" d="M441.11,475.27H427.16a1.19,1.19,0,0,1,1.19-1.2h11.56a1.2,1.2,0,0,1,1.2,1.2Z" fill="#77a4e5"/>
    </g>
    <path id="Trazado_112947" data-name="Trazado 112947" d="M343.93,375.23c-19.17,15.61-42.14,27.61-68.27,35.66-21.22,6.54-44.73,10.55-69.89,11.92-6.86.37-13.54.53-20,.53-13,0-25-.66-35.44-1.58l4.22-20a373.47,373.47,0,0,0,50.21.78c23.68-1.28,45.72-5,65.53-11.13,23.83-7.35,44.67-18.21,61.94-32.27Z" fill="#ef2a66"/>
    <g id="Grupo_55851" data-name="Grupo 55851">
      <path id="Trazado_112948" data-name="Trazado 112948" d="M201,335.34a6.1,6.1,0,0,0-4.81-.51c-8.15-1-10.53,8.55-10.42,11.83s.48,6.78-3.16,11c-10.52,12.28,11.52,12.82,11.52,12.82.18-9.81,11.95-6.23,11.43-5.24C220.63,368.9,207.05,338.49,201,335.34Z" fill="#163560"/>
      <path id="Trazado_112949" data-name="Trazado 112949" d="M169.52,376.25s-1.43-2.18-2.59-2.22-3.3-.64-3.13-.22,1.5.47,1.63.73-2,.64-2.57.69-2,0-2,.3,2.55,1.54,4.32,1.37a12.1,12.1,0,0,1,3.95.51Z" fill="#ffb27d"/>
      <path id="Trazado_112950" data-name="Trazado 112950" d="M190.27,377a21.618,21.618,0,0,1-2.2,3.32c-1.7,2.13-4.33,4.6-7.63,5.09a8.18,8.18,0,0,1-4.53-.74h0a20.65,20.65,0,0,1-7-5.87,3.27,3.27,0,0,1,.45-3.23s8.09,1.82,8.86,1.43,5.27-13.34,6.34-15,4.72-2.48,4.72-2.48Z" fill="#f99746"/>
      <path id="Trazado_112951" data-name="Trazado 112951" d="M188.07,380.28c-1.7,2.13-4.33,4.6-7.63,5.09a8.18,8.18,0,0,1-4.53-.74c.15,0,4.15.52,5.75-2.34s3.39-7.53,5.81-6C188.51,377,188.46,378.62,188.07,380.28Z" fill="#ed7d2b"/>
      <path id="Trazado_112952" data-name="Trazado 112952" d="M220.46,464.32s2.47,2.25,2,3.85-2.71,2.67-3,4.63-1.51,3-2.59,3H211.7s-.8-1.37,1.13-1.79,2.65-2.71,2.53-4.85a37.8,37.8,0,0,1,.18-5l4.1-.95Z" fill="#36599e"/>
      <path id="Trazado_112953" data-name="Trazado 112953" d="M199.56,465.28s.89,9.54-.2,10.08H185.49s0-1.6,2.23-2,6.14-1.66,6.8-4.57S199.56,465.28,199.56,465.28Z" fill="#472ea6"/>
      <path id="Trazado_112954" data-name="Trazado 112954" d="M209.45,396.78c-2.86-6.4-4.61-8.24-4.27-10.23.25-1.47-.76-27.57-.76-27.57-.34-.11-1-.2-1.39-.29a3.47,3.47,0,0,1-2.54-2.21,17.63,17.63,0,0,1-.86-5.89l-.37.08-6.15,1.21s.14,1.94.14,3.76v.05a3.54,3.54,0,0,1-2.55,3.42l-1.45.41a56.349,56.349,0,0,0-2.69,13.07c-.43,6.63,4.11,9.5,0,22.74C182.3,408.84,211,400.32,209.45,396.78Z" fill="#ffb27d"/>
      <path id="Trazado_112955" data-name="Trazado 112955" d="M193.11,351.88s.14,1.94.14,3.76c3.45-.1,5.26-3.23,6-5Z" fill="#e8945b"/>
      <path id="Trazado_112956" data-name="Trazado 112956" d="M192,353.61s8.14.13,8.15-4.94,1.06-8.47-4.14-8.77-6.21,1.64-6.62,3.33S189.84,353.44,192,353.61Z" fill="#ffb27d"/>
      <path id="Trazado_112957" data-name="Trazado 112957" d="M192.26,339.78s2.23,6,5.65,6.83,4.91,0,4.91,0a9.64,9.64,0,0,1-3.17-5.72S193.94,337,192.26,339.78Z" fill="#163560"/>
      <path id="Trazado_112958" data-name="Trazado 112958" d="M192.81,340.26a5.07,5.07,0,0,0-2.33,1.82,8.26,8.26,0,0,0-1.1,4.66s-1.68-4,.21-6.33S192.81,340.26,192.81,340.26Z" fill="#163560"/>
      <path id="Trazado_112959" data-name="Trazado 112959" d="M193.73,350.46a2,2,0,0,1-1.68.69,1.5,1.5,0,0,1-1.26-.83A5.48,5.48,0,0,1,193.73,350.46Z" fill="#ebf3fa"/>
      <path id="Trazado_112960" data-name="Trazado 112960" d="M210.23,370.52a54.4,54.4,0,0,1,0,6.41c-.14,2.32-2.48,5.43-2.81,6.2-.84,1.92-1.78,2.24-1.78,2.24l-7.29,1.78-2.56.63-8.07-2.41s-3.68-10.27-2.21-16.05a44.549,44.549,0,0,1,3.74-9.8s6.59,6.46,15.17-.54Z" fill="#f99746"/>
      <path id="Trazado_112961" data-name="Trazado 112961" d="M188.23,386.93s-4,12.45-4.26,16.69,7.65,60.22,8,62.17,2.58,3,2.58,3a3.48,3.48,0,0,0,2.56.2,6.37,6.37,0,0,0,2.74-1.29s3.11-39.93,1.18-54.19a227.626,227.626,0,0,1-1.95-26.59Z" fill="#35237d"/>
      <path id="Trazado_112962" data-name="Trazado 112962" d="M205.18,386.55s6.1,8.19,6.67,13.73.89,25,2.1,30.37,5.67,15.77,5.67,32.6a3.37,3.37,0,0,1-1.9,1.48,16.624,16.624,0,0,1-1.66.46,2.61,2.61,0,0,1-2.92-1.39c-3-6.06-12.6-25.61-13.1-29.67-.34-2.87-3.37-21.87-10-33-1.58-2.67,1-13.32,1-13.32Z" fill="#472ea6"/>
      <path id="Trazado_112963" data-name="Trazado 112963" d="M193.55,350.6s-.14.6-1.63.5c0,0-1.24-.07-1.21-.73a4,4,0,0,1,2.84.23Z" fill="#fff"/>
      <path id="Trazado_112964" data-name="Trazado 112964" d="M187.59,385a8.44,8.44,0,0,0,4.8,1.34c3.81.07,13.25-1,13.25-1a7.73,7.73,0,0,1,.4,2.41s-11.53,2.91-18.21.42a4.24,4.24,0,0,1-.24-3.17Z" fill="#35237d"/>
      <path id="Trazado_112965" data-name="Trazado 112965" d="M191.47,389.62a2,2,0,1,1,1.74-2,1.87,1.87,0,0,1-1.74,2Zm0-3.36a1.42,1.42,0,1,0,1.16,1.39,1.3,1.3,0,0,0-1.16-1.39Z" fill="#fff"/>
      <rect id="Rectángulo_5537" data-name="Rectángulo 5537" width="15.67" height="21.44" transform="translate(192.163 381.358) rotate(-41.05)" fill="#b5453c"/>
      <path id="Trazado_112966" data-name="Trazado 112966" d="M203,387.29s-4.32.51-4.31,1.54,1.08,3.14,1.61,3.23,3.53-2.85,3.53-2.85Z" fill="#ffb27d"/>
      <path id="Trazado_112967" data-name="Trazado 112967" d="M204.42,359s5.78.4,8,5.79,6.42,14.42,6.42,16-2.35,6.21-15,8.9c0,0-1.31-1.37-1.23-2.46,0,0,7.87-6.76,7.85-7.55,0-1.49-1.29-3.46-8.2-10.38C200.42,367.35,204.42,359,204.42,359Z" fill="#f99746"/>
    </g>
    <g id="Grupo_55859" data-name="Grupo 55859">
      <g id="Grupo_55857" data-name="Grupo 55857">
        <g id="Grupo_55852" data-name="Grupo 55852">
          <path id="Trazado_112968" data-name="Trazado 112968" d="M79.4,475.81h-.05a.6.6,0,0,1-.6-.61l.91-39.39,2.67-.32L80.05,475.2a.65.65,0,0,1-.65.61Z" fill="#95c0f4"/>
          <path id="Trazado_112969" data-name="Trazado 112969" d="M122.45,475.81h.06a.6.6,0,0,0,.6-.61l-.91-39.39-2.68-.32,2.29,39.71a.65.65,0,0,0,.64.61Z" fill="#b0d4ff"/>
          <path id="Trazado_112970" data-name="Trazado 112970" d="M77.63,433.36v-27a8.6,8.6,0,0,1,8.6-8.6h19.45a8.6,8.6,0,0,1,8.6,8.6v28Z" fill="#b0d4ff"/>
          <path id="Trazado_112971" data-name="Trazado 112971" d="M77.63,433.36h40.13v4.26H81.89a4.26,4.26,0,0,1-4.26-4.26Z" fill="#95c0f4"/>
          <rect id="Rectángulo_5538" data-name="Rectángulo 5538" width="32.23" height="4.26" rx="2.13" transform="translate(91.94 433.36)" fill="#b0d4ff"/>
        </g>
        <g id="Grupo_55856" data-name="Grupo 55856">
          <path id="Trazado_112972" data-name="Trazado 112972" d="M121.16,426.64a18.11,18.11,0,0,1-6.29,6.72H100.29S123.28,422.94,121.16,426.64Z" fill="#35237d"/>
          <g id="Grupo_55853" data-name="Grupo 55853">
            <path id="Trazado_112973" data-name="Trazado 112973" d="M110,464.15a1.36,1.36,0,0,0-.24,1.45h0a8.82,8.82,0,0,0,2.83,3.11c.17.14.32.26.45.38l.1.09.08.07c1.25,1.15.78,1.41,3,3.74,2.55,2.65,4.31,2.7,4.81,2.46s-.44-1.62-1.39-3.2c-.05-.07-.09-.15-.14-.23l-.38-.63c-1.11-1.91-.83-2.8-.56-5.63.21-2.3,3.58-12.86,3.58-12.86l-4.89-.84s-1.47,8.41-3.09,9.7c-.86.69-1.83.7-2.67,1.21l-.17.11a6.57,6.57,0,0,0-1.32,1.07Z" fill="#ffb27d"/>
            <path id="Trazado_112974" data-name="Trazado 112974" d="M110,464.15a1.36,1.36,0,0,0-.24,1.45h0a10.3,10.3,0,0,0,2.83,3.1l.45.39.1.09.08.07c1.25,1.15.78,1.41,3,3.74,2.55,2.65,4.31,2.7,4.81,2.46s-.44-1.62-1.39-3.2a10.81,10.81,0,0,1-4.54-3.35c-1.54-1.95-2.56-4.47-3.61-5.93l-.17.11a6.57,6.57,0,0,0-1.32,1.07Z" fill="#35237d"/>
            <path id="Trazado_112975" data-name="Trazado 112975" d="M149.35,461.1c.3,1.51,2.45,1.26,4.85.67s1.83.11,5.25-.26,4.45-1.66,4.56-2.16-1.6-.61-3.41-.82l-.69-.09c-2-.25-3.54-1.57-5.4-2.65s-4.38-5.21-4.38-5.21l-4.69.37s2.46,3.73,3.41,5.36a5.64,5.64,0,0,1,.46,3.19,6.129,6.129,0,0,0,.04,1.6Z" fill="#ffb27d"/>
            <path id="Trazado_112976" data-name="Trazado 112976" d="M154.2,461.77c2.4-.58,1.83.11,5.25-.26s4.45-1.66,4.56-2.16-1.6-.61-3.41-.82h0a9.659,9.659,0,0,1-4.89,1.52c-2.32.06-4.78-.61-6.38-.58a6.13,6.13,0,0,0,0,1.6C149.65,462.61,151.8,462.36,154.2,461.77Z" fill="#35237d"/>
            <path id="Trazado_112977" data-name="Trazado 112977" d="M131.39,431.14,127,442.93l-5.72,15.39a9.241,9.241,0,0,1-3-.28,12.909,12.909,0,0,1-2.94-1.43s1.59-16.53,4.55-26a16.93,16.93,0,0,1,2.55-5.51C127,419.65,131.39,431.14,131.39,431.14Z" fill="#35237d"/>
            <path id="Trazado_112978" data-name="Trazado 112978" d="M126.93,412.41c-2.87-.92-11.05.27-19.28,1.88l-1.72-2.84-17.76-1.39s-5.86,13-2.65,21.28a3,3,0,0,0,3,2h14.27c8.83,0,18.69-6.08,20-6.33,2.09-.42,2.92,3.76,5,8.14s19.63,19.42,19.63,19.42a15.331,15.331,0,0,0,3.81-.39,3.79,3.79,0,0,0,1.63-1S133.41,414.5,126.93,412.41Z" fill="#472ea6"/>
            <path id="Trazado_112979" data-name="Trazado 112979" d="M105.23,359.72c-2.27-1.19-5.73-1.35-6.3-1.43-6.73-.9-10.78,8.88-11,11.84-.44,5.46-3.33,6.3-7.39,9.72-8.16,6.86-5.77,14.83-1.31,17.79,2.68,1.78,7.39,0,7.39,0s12.9-7.17,19.23-10.66C115.31,385.64,111,362.77,105.23,359.72Z" fill="#b5453c"/>
            <path id="Trazado_112980" data-name="Trazado 112980" d="M100.53,384s-3.12,1.09-5.22.16-3.47-4.12-3.44-4.12c.9-.05,1.89-.83,2.65-6l.38.14,6.43,2.32s-.46,2.06-.76,4C100.31,382.21,100.18,383.79,100.53,384Z" fill="#ffb27d"/>
            <path id="Trazado_112981" data-name="Trazado 112981" d="M101.33,376.53s-.46,2.06-.76,4c-3.7-.67-5.15-4.35-5.67-6.35Z" fill="#ed975d"/>
            <path id="Trazado_112982" data-name="Trazado 112982" d="M102.29,378.57s-8.8-1.18-8-6.65.24-9.3,5.89-8.78,6.43,2.77,6.6,4.67S104.6,378.74,102.29,378.57Z" fill="#ffb27d"/>
            <path id="Trazado_112983" data-name="Trazado 112983" d="M106.48,364.81s-5.63,4.85-9.47,5.24-5.28-.83-5.28-.83a15,15,0,0,0,3.62-4.91,2.68,2.68,0,0,1,2.22-1.58C100.31,362.49,105.49,362.38,106.48,364.81Z" fill="#b5453c"/>
            <path id="Trazado_112984" data-name="Trazado 112984" d="M103,364.37a14.18,14.18,0,0,1,2.48,3.18,10.73,10.73,0,0,1,.29,5.66s2.93-5.71,1.27-8.48C105.24,361.78,103,364.37,103,364.37Z" fill="#b5453c"/>
            <path id="Trazado_112985" data-name="Trazado 112985" d="M107.94,397c-.27,17.81-.08,14.09-2,15.78a7.41,7.41,0,0,1-3.53.76C96.93,413.9,87.32,413,87,412c-1.26-3.5-.37-4.58-1.43-9.93-.1-.57-.24-1.18-.4-1.86-.88-3.67-1.73-4.92,1.38-10.82,2.82-5.35,5.75-9.68,6-9.53,7.44,4.42,8,.71,8,.71S108.07,388.3,107.94,397Z" fill="#8c9df4"/>
            <path id="Trazado_112986" data-name="Trazado 112986" d="M127,442.93l-5.72,15.39a9.241,9.241,0,0,1-3-.28,12.909,12.909,0,0,1-2.94-1.43s1.59-16.53,4.55-26Z" fill="#472ea6"/>
            <path id="Trazado_112987" data-name="Trazado 112987" d="M100.57,380.56s7.65,1.29,8.55,4.59l6.19,22.68s-3.89.69-5.69-1.1S103.36,390,103.36,390Z" fill="#8c9df4"/>
            <path id="Trazado_112988" data-name="Trazado 112988" d="M102.39,413.53C96.93,413.9,87.32,413,87,412c-1.26-3.5-.37-4.58-1.43-9.93l2.64-7.42s-.44,8.26,2,10.44,10,4.19,11.16,6a6.67,6.67,0,0,1,1.02,2.44Z" fill="#6980e2"/>
            <path id="Trazado_112989" data-name="Trazado 112989" d="M96.13,410.06s5.39-1.2,6.26-.72a12.85,12.85,0,0,1,3.26,2.82c.27.61-1.94-.46-2.65-.65a6.46,6.46,0,0,0-2.29.5,7.56,7.56,0,0,1-4.1.41Z" fill="#ffb27d"/>
            <path id="Trazado_112990" data-name="Trazado 112990" d="M92.52,379.85s-7.24.44-9.74,3.94c-3.53,4.92-10.53,25.88-6.52,28.68,4.52,3.14,20.55.82,20.55.82s.54-2.5-.2-3.7-12.81-3.16-13.37-3.71,7-10.86,7-12.53S92.52,379.85,92.52,379.85Z" fill="#8c9df4"/>
            <path id="Trazado_112991" data-name="Trazado 112991" d="M102.65,410.84a10.718,10.718,0,0,0,1.5,1.63,1.15,1.15,0,0,0,.61.13l-.76-1.37Z" fill="#ffb27d"/>
            <path id="Trazado_112992" data-name="Trazado 112992" d="M102.39,409.34l3.28,1.59a.58.58,0,0,1-.54.21,8,8,0,0,1-1.43-.39Z" fill="#ffb27d"/>
          </g>
          <g id="Grupo_55855" data-name="Grupo 55855">
            <g id="Grupo_55854" data-name="Grupo 55854">
              <path id="Trazado_112993" data-name="Trazado 112993" d="M102.96,414.7h27.7L139,395.27H111.34Z" fill="#f77d48"/>
              <path id="Trazado_112994" data-name="Trazado 112994" d="M130.99,413.44H94.41v1.23h36.25Z" fill="#f77d48"/>
            </g>
            <path id="Trazado_112995" data-name="Trazado 112995" d="M123.67,405a.91.91,0,0,0-.94-1.23A1.88,1.88,0,0,0,121,405a.91.91,0,0,0,.94,1.24,1.87,1.87,0,0,0,1.73-1.24Z" fill="#ebf3fa"/>
          </g>
        </g>
      </g>
      <g id="Grupo_55858" data-name="Grupo 55858">
        <path id="Trazado_112996" data-name="Trazado 112996" d="M171.62,476.35h.08a.84.84,0,0,0,.79-.89L171.29,418l-3.54-.45,3,57.93a.89.89,0,0,0,.87.87Z" fill="#35237d"/>
        <path id="Trazado_112997" data-name="Trazado 112997" d="M97,476.35h-.08a.84.84,0,0,1-.79-.89L97.32,418l3.54-.45-3,57.93a.89.89,0,0,1-.86.87Z" fill="#35237d"/>
        <rect id="Rectángulo_5539" data-name="Rectángulo 5539" width="83.23" height="4.11" rx="2.055" transform="translate(91.07 414.7)" fill="#35237d"/>
      </g>
    </g>
    <path id="Trazado_112998" data-name="Trazado 112998" d="M31,475.27H467.54a.93.93,0,0,1,.93.93h0a.93.93,0,0,1-.93.93H31a.94.94,0,0,1-.94-.94h0a.93.93,0,0,1,.93-.93Z" fill="#2e3552"/>
  </g>
</svg>
