<svg xmlns="http://www.w3.org/2000/svg" width="443.599" height="251.023" viewBox="0 0 443.599 251.023">
  <g id="grafico_1__cualitativos" data-name="grafico(1)_cualitativos" transform="translate(-29.955 -226.629)">
    <path id="Trazado_112728" data-name="Trazado 112728" d="M47,476.09c.1-1.82-42.81-56.56,7.16-107.1,22.56-22.81,60.73-10.45,54.69-77.1-5.21-57.54,84.81-91.35,140.75-40,36.15,33.2,72.74-11.09,130.09,14s19.58,93.41,43.11,99.85c46.35,12.67,69.37,68.45,32.42,109.67Z" fill="#f1eefd"/>
    <g id="Grupo_55757" data-name="Grupo 55757" opacity="0.7">
      <g id="Grupo_55752" data-name="Grupo 55752">
        <path id="Trazado_112729" data-name="Trazado 112729" d="M431,452s4.12-4.8.25-7.85c0,0-2.82-1.71-5.12-1.57,0,0,3.26,5.47,2.21,6s-3.19-6.35-3.19-6.35-6.42-.62-8.49.37c0,0,5.49,4.49,4.33,4.76s-7.08-4.14-7.08-4.14-6,1-5.65,4.66,2.37,4.77,3.28,4.67,6.2-2.12,6.31-1.37-3.07,3.16-5.3,3.27c0,0,4.21,4.65,7,3.31s3-3.47,4.78-4.27,3.24-.79,2.52,0-3.88,1.61-4.88,3.37-1.89,3,1,2.52,7.61-2.55,7.81-5Z" fill="#77a4e5"/>
        <g id="Grupo_55751" data-name="Grupo 55751">
          <path id="Trazado_112730" data-name="Trazado 112730" d="M411.17,448s16.23-.63,19.81,4a11.69,11.69,0,0,0,3.23,4.54l.38,1s-2.81-3-3.82-3.14C430.77,454.45,432.35,448.7,411.17,448Z" fill="#77a4e5"/>
          <path id="Trazado_112731" data-name="Trazado 112731" d="M434.21,456.56a10.2,10.2,0,0,1,3.73,7.17l-.64.06s-1.11-4.76-3.12-6.62S434.21,456.56,434.21,456.56Z" fill="#77a4e5"/>
        </g>
      </g>
      <g id="Grupo_55754" data-name="Grupo 55754">
        <path id="Trazado_112732" data-name="Trazado 112732" d="M443.67,448.09s-5.77-3.23-3.08-7.61c0,0,2.16-2.7,4.46-3.39,0,0-1.23,6.54,0,6.7s.85-7.39.85-7.39,6.08-2.92,8.46-2.69c0,0-3.77,6.38-2.54,6.23s5.47-6.62,5.47-6.62,6.23-1.15,7.23,2.54-.62,5.54-1.54,5.77-6.85.16-6.69.92,4.15,2,6.38,1.31c0,0-2.46,6.08-5.69,5.77s-4.23-2.31-6.23-2.46-3.46.39-2.46.92,4.38.18,6,1.55,2.92,2.22-.08,2.84-8.39.23-9.46-2.08Z" fill="#77a4e5"/>
        <g id="Grupo_55753" data-name="Grupo 55753">
          <path id="Trazado_112733" data-name="Trazado 112733" d="M461.67,437s-16.15,5.23-18,11.07a12.229,12.229,0,0,1-1.54,5.62v1.15s1.69-3.92,2.62-4.46C444.75,450.4,441.13,445.32,461.67,437Z" fill="#77a4e5"/>
          <path id="Trazado_112734" data-name="Trazado 112734" d="M442.13,453.71a10.66,10.66,0,0,0-1.07,8.39l.64-.17s-.62-5.07.68-7.63S442.13,453.71,442.13,453.71Z" fill="#77a4e5"/>
        </g>
      </g>
      <g id="Grupo_55756" data-name="Grupo 55756">
        <path id="Trazado_112735" data-name="Trazado 112735" d="M435,440.93s8.63-4.83,4.61-11.39c0,0-3.23-4-6.68-5.06,0,0,1.84,9.78,0,10s-1.26-11.05-1.26-11.05-9.09-4.37-12.66-4c0,0,5.64,9.54,3.8,9.31s-8.17-9.89-8.17-9.89-9.32-1.73-10.81,3.8.92,8.28,2.3,8.63,10.24.23,10,1.38-6.22,3-9.55,2c0,0,3.68,9.09,8.51,8.63s6.33-3.45,9.32-3.68,5.18.57,3.68,1.38-6.56.26-9,2.32-4.37,3.32.11,4.24,12.54.34,14.15-3.11Z" fill="#9fc1f4"/>
        <g id="Grupo_55755" data-name="Grupo 55755">
          <path id="Trazado_112736" data-name="Trazado 112736" d="M408,424.36s24.16,7.83,26.92,16.57a18.451,18.451,0,0,0,2.3,8.4v1.72s-2.53-5.86-3.91-6.67C433.34,444.38,438.75,436.79,408,424.36Z" fill="#9fc1f4"/>
          <path id="Trazado_112737" data-name="Trazado 112737" d="M437.25,449.33a15.93,15.93,0,0,1,1.61,12.54l-1-.25s.93-7.59-1-11.41S437.25,449.33,437.25,449.33Z" fill="#9fc1f4"/>
        </g>
      </g>
      <path id="Trazado_112738" data-name="Trazado 112738" d="M434.75,475.27a14.9,14.9,0,0,1-14.9-14.9h29.8a14.91,14.91,0,0,1-14.9,14.9Z" fill="#9fc1f4"/>
      <rect id="Rectángulo_5400" data-name="Rectángulo 5400" width="30.63" height="0.46" transform="translate(450.13 460.82) rotate(180)" fill="#77a4e5"/>
      <path id="Trazado_112739" data-name="Trazado 112739" d="M441.11,475.27H427.16a1.19,1.19,0,0,1,1.19-1.2h11.56a1.2,1.2,0,0,1,1.2,1.2Z" fill="#77a4e5"/>
    </g>
    <path id="Trazado_112740" data-name="Trazado 112740" d="M31,475.27H467.54a.93.93,0,0,1,.93.93h0a.93.93,0,0,1-.93.93H31a.94.94,0,0,1-.94-.94h0a.93.93,0,0,1,.93-.93Z" fill="#2e3552"/>
    <g id="Grupo_55759" data-name="Grupo 55759">
      <g id="Grupo_55758" data-name="Grupo 55758">
        <path id="Trazado_112741" data-name="Trazado 112741" d="M148.94,290.17c.09,9.58-16.65,35-16.65,35S115,300.09,114.94,290.51a17,17,0,0,1,34-.34Z" fill="#fd8f25"/>
        <ellipse id="Elipse_4176" data-name="Elipse 4176" cx="7.99" cy="8.15" rx="7.99" ry="8.15" transform="matrix(1, -0.01, 0.01, 1, 123.844, 281.513)" fill="#fff"/>
      </g>
      <path id="Trazado_112742" data-name="Trazado 112742" d="M117.87,292a14.91,14.91,0,0,1,14.61-15.21,14.64,14.64,0,0,1,11.77,5.76,14.71,14.71,0,0,0-12.88-7.42,14.91,14.91,0,0,0-14.62,15.2,15.23,15.23,0,0,0,3.15,9.15,15.13,15.13,0,0,1-2.03-7.48Z" fill="#fff"/>
      <path id="Trazado_112743" data-name="Trazado 112743" d="M128.21,318.59c2.36,3.93,4.08,6.59,4.08,6.59s16.74-25.43,16.65-35a9.243,9.243,0,0,0-.08-1.49,42.88,42.88,0,0,1-2.71,7.75c-3.15,6.86-7.87,11.29-12.88,16.88C131.66,315.11,130,316.9,128.21,318.59Z" fill="#cc5e7b"/>
    </g>
    <g id="Grupo_55760" data-name="Grupo 55760">
      <path id="Trazado_112744" data-name="Trazado 112744" d="M268.15,288.43a1.2,1.2,0,0,1,.27.28c.66,1,.41,1.91.77,3.05.16.5,1.47.86.77,1.72-.26.31-1,1-1.57,1.67a7.86,7.86,0,0,0-1.38,4.14c-.41,5.65.74,11.26,2,16.77a2.08,2.08,0,0,0,.37.89,2.14,2.14,0,0,0,1.61.5,42.791,42.791,0,0,1,8,1,16.27,16.27,0,0,1,6.57,2.73,7.27,7.27,0,0,1,3,6.19,5.69,5.69,0,0,1-2.83,4.32c-3.88,2.17-9-1.82-12.39-3.56a75.33,75.33,0,0,1-9.24-5.58,3.22,3.22,0,0,1-1-.9,3.38,3.38,0,0,1-.38-1.36A166.238,166.238,0,0,1,261.61,302c0-1.69.82-3.17.77-4.73,0-1-.77-1.75-1-2.68a9.15,9.15,0,0,1-.18-3.13c.24-1.86,1.94-2.79,3.34-3.75a1.92,1.92,0,0,1,1-.45,3,3,0,0,1,1.72.54,5.29,5.29,0,0,1,.89.63Z" fill="#e2b596"/>
      <path id="Trazado_112745" data-name="Trazado 112745" d="M275.05,327.81q.88-5.32,1.75-10.64c0,.23,16.25,1.66,17.22,1.78,3.69.46,7.51.95,10.67,2.9,6.75,4.17,5.06,14.48-3.07,15.61A44.19,44.19,0,0,1,275,332.3a1,1,0,0,1-.44-.36,1.15,1.15,0,0,1-.06-.78Z" fill="#292949"/>
    </g>
    <g id="Grupo_55766" data-name="Grupo 55766">
      <g id="Grupo_55762" data-name="Grupo 55762">
        <g id="Grupo_55761" data-name="Grupo 55761">
          <path id="Trazado_112746" data-name="Trazado 112746" d="M278.1,469a26.994,26.994,0,0,1-3.13-.77c1-10.58,3.6-21.43,5.57-31.92l8,1.62A95.868,95.868,0,0,0,282,454.7C281.76,455.62,278.25,469,278.1,469Z" fill="#e2b596"/>
          <path id="Trazado_112747" data-name="Trazado 112747" d="M274.94,466.16a1.67,1.67,0,0,0-1.59.37c-.29.19-.51.5-.85.62a2.449,2.449,0,0,1-1,.1c-2-.09-6.44-.83-4.53,2.77,1.73,3.28,7.66,2.94,11.11,2.63a1.1,1.1,0,0,0,.64-.17,1.55,1.55,0,0,0,.44-.61c.58-1.33,1.35-3-.27-3.82-.69-.36-1.43,0-2.17-.36S275.59,466.38,274.94,466.16Z" fill="#292949"/>
        </g>
        <path id="Trazado_112748" data-name="Trazado 112748" d="M274.89,444.31l16.54,2.1c7.56-20.52,19.08-37.25,21.11-62.11.14-1.69,1-3.3.78-5-.46-3.18-3.46-5.39-6.5-6.43-4.71-1.62-13.8-1.66-17,3-3.41,4.94-4.36,14.52-5.86,20.31a360.654,360.654,0,0,0-9.07,48.13Z" fill="#474ebb"/>
      </g>
      <g id="Grupo_55764" data-name="Grupo 55764">
        <g id="Grupo_55763" data-name="Grupo 55763">
          <path id="Trazado_112749" data-name="Trazado 112749" d="M323,470.42a26.524,26.524,0,0,1-3.21.25c-2.36-10.36-3.28-21.49-4.68-32.06l8.13-1a95.41,95.41,0,0,0-1,17.95C322.26,456.55,323.12,470.39,323,470.42Z" fill="#e2b596"/>
          <path id="Trazado_112750" data-name="Trazado 112750" d="M319.07,468.69a1.66,1.66,0,0,0-1.39.85c-.22.27-.33.64-.61.86a2.49,2.49,0,0,1-.94.41c-1.91.53-6.38,1.23-3.44,4.05,2.67,2.57,8.2.4,11.37-1a1.14,1.14,0,0,0,.57-.36,1.6,1.6,0,0,0,.22-.71c.13-1.45.35-3.27-1.45-3.56-.77-.12-1.36.48-2.17.35S319.76,468.7,319.07,468.69Z" fill="#292949"/>
        </g>
        <path id="Trazado_112751" data-name="Trazado 112751" d="M310.15,446l16.37-3.18q1.14-32.77.63-65.6a11.45,11.45,0,0,0-.83-5c-1.42-2.87-5-4-8.18-4.08-5-.06-13.63,2.74-15.23,8.19-1.69,5.76.4,15.15.78,21.12A361.718,361.718,0,0,0,310.15,446Z" fill="#474ebb"/>
      </g>
      <path id="Trazado_112752" data-name="Trazado 112752" d="M317.23,327a39.72,39.72,0,0,1,9.8,15.33c3.56,10,3.63,20.66,3.66,31.11v10.44c0,3.43-.29,4.16-4,3.71-6.89-.84-14.06-2.26-20.31-5.32-3-1.46-5.75-3.3-8.87-4.45-4.53-1.67-9.18-.91-13.66-2,1.13-3.44,2.84-6.58,3.63-10.19a75.078,75.078,0,0,0,1.41-11c.44-6.44,1.24-12.85,1.72-19.27.35-4.6-.26-8.37,4.63-11.38,2.67-1.65,7.51-4.46,11.27-3.7C310.52,321.11,314.73,324.64,317.23,327Z" fill="#292949"/>
      <g id="Grupo_55765" data-name="Grupo 55765">
        <path id="Trazado_112753" data-name="Trazado 112753" d="M301.15,312.35a37.064,37.064,0,0,0,3.34,5,11.39,11.39,0,0,1,1.77,5c.21,1.37.7,2.44,2.35,2.67,3.12.45,2.23-2.13,2.93-4,.81-2.14,2.54-3.83,3.74-5.74,3.48-5.52,2.49-16.42-4.75-18.75C302.62,294.05,298.59,306.77,301.15,312.35Z" fill="#e2b596"/>
        <path id="Trazado_112754" data-name="Trazado 112754" d="M313.76,307a3.86,3.86,0,0,1,2.55.71c.67.6.6,1.92-.28,2.06s-1.83-.7-2.32-.1c-.28.36,0,.88.18,1.29a7.56,7.56,0,0,1,.69,5.14c.33.3.84,0,1.13-.33a16.51,16.51,0,0,0,3.28-5.39,3.31,3.31,0,0,0,1.21,1.17,3.84,3.84,0,0,1,.07-2.32c.68-2.79,1.14-6.06-.81-8.34a7.28,7.28,0,0,0-4.22-2.22,21.7,21.7,0,0,0-4.83-.15c-.69,0-1.54.18-1.7.82a7.59,7.59,0,0,1,3.82,3.21C312.76,303,313.67,307,313.76,307Z" fill="#15273d"/>
        <path id="Trazado_112755" data-name="Trazado 112755" d="M310.57,300.3l.17.12a7,7,0,0,0,2.15,1.39c1.19.33,2.47-.25,3.65.16s2.17,2,3.13,2.95a14,14,0,0,0,5.61,3.28,13.609,13.609,0,0,0,3.29.59,5.84,5.84,0,0,0,1.67,0c.66-.18.64-.48-.06-.7-2.21-.71-2.9-3.81-2.74-5.87.13-1.63.69-3.32.07-4.83A5.67,5.67,0,0,0,325,295c-1.08-.73-2.25-.53-3.48-.88s-2.33-1.38-3.64-1.63-2.76.34-4.14.6a8.45,8.45,0,0,1-3.47,0,14.087,14.087,0,0,0-3.06-.62,5,5,0,0,0-3.84,2.22,10.24,10.24,0,0,0-1.65,7.11c-.07-.36,1.15-1.67,1.4-1.95a3.24,3.24,0,0,1,2-1.24,8.44,8.44,0,0,1,5.45,1.69Z" fill="#292949"/>
      </g>
    </g>
    <g id="Grupo_55772" data-name="Grupo 55772">
      <g id="Grupo_55770" data-name="Grupo 55770">
        <g id="Grupo_55769" data-name="Grupo 55769">
          <g id="Grupo_55767" data-name="Grupo 55767">
            <path id="Trazado_112756" data-name="Trazado 112756" d="M141.41,467.11a2.42,2.42,0,0,1,.71-1.11c.18-.15.38-.26.55-.42.81-.73.73-1.44,1.9-1.26,1.34.21,2.66.48,4,.71a.389.389,0,0,1,.15.06.33.33,0,0,1,.08.22l.14,1.39c.13,1.25,1.24,1.63,2.15,2.14l.72.4c1,.56,4.15,1.84,2.57,3.44a4.06,4.06,0,0,1-2.62.72,10.281,10.281,0,0,1-2.47-.27,25.16,25.16,0,0,1-7.34-2.66c-.84-.46-.77-1.74-.67-2.65A3.43,3.43,0,0,1,141.41,467.11Z" fill="#292949"/>
            <path id="Trazado_112757" data-name="Trazado 112757" d="M146.53,386.06l-2.84,10.39,2.45,29.76L142,465.68l7.79.79,10.77-37.64,8.69-41.24Z" fill="#9ea6ad"/>
          </g>
          <g id="Grupo_55768" data-name="Grupo 55768">
            <path id="Trazado_112758" data-name="Trazado 112758" d="M177.6,470.88a2.36,2.36,0,0,1,.42-1.24c.13-.18.3-.35.43-.54.61-.9.37-1.57,1.55-1.68,1.34-.12,2.69-.18,4-.27a.44.44,0,0,1,.16,0,.35.35,0,0,1,.12.19l.48,1.32c.42,1.18,1.59,1.28,2.59,1.56l.8.21c1.14.31,4.48.79,3.33,2.73-.48.8-1.56,1.05-2.37,1.32a10.269,10.269,0,0,1-2.47.33,25.14,25.14,0,0,1-7.76-.8c-.93-.25-1.16-1.51-1.29-2.41A3.061,3.061,0,0,1,177.6,470.88Z" fill="#292949"/>
            <path id="Trazado_112759" data-name="Trazado 112759" d="M163.06,390.99l-3.74,7.54,13.02,31.52,5.48,39.31,7.75-1.11,1.4-39.12-1.5-42.12Z" fill="#9ea6ad"/>
          </g>
        </g>
        <path id="Trazado_112760" data-name="Trazado 112760" d="M137.56,386.14c.31-1.91.63-3.51.72-4.08,1.21-7.79,4.7-15.23,6.95-22.75a279.094,279.094,0,0,1,9.33-26.39c1.31-3.2,3-6.68,6.19-8,3.69-1.48,7.25-4.48,10.93-2.32.75.45,1.68.66,2.47,1.05,4.68,2.34,7,6.16,8.07,11.28l2.49,12.36c.68,3.38,1.36,6.77,1.89,10.18a169.7,169.7,0,0,1,1.68,27c0,4.53-.15,9.06-.3,13.59-.09,2.89-1.39,1.5-3,.41-2.76-1.88-5.5-3.84-8.75-4.81a28.532,28.532,0,0,0-4.85-.88,89.771,89.771,0,0,0-29.88,1.31,5.379,5.379,0,0,0-1.67.6c-.67.43-1.63,1.48-2.43.76-.49-.44-.46-1.73-.49-2.32a35.782,35.782,0,0,1,.65-6.99Z" fill="#353a85"/>
      </g>
      <g id="Grupo_55771" data-name="Grupo 55771">
        <path id="Trazado_112761" data-name="Trazado 112761" d="M177.22,304.74a12.23,12.23,0,0,1,.86,5.56,1.77,1.77,0,0,0,.3,1.42c.39.37,0,1,.31.63a9.559,9.559,0,0,0,1.74-2.26,19.859,19.859,0,0,0,.4-3.77,5.5,5.5,0,0,0-.69-3.16,5.9,5.9,0,0,0-1.39-1.34,7.6,7.6,0,0,0-2.39-1.43c-1.53-.47-2.55,0-1.29,1.26a9.93,9.93,0,0,1,2.15,3.09Z" fill="#292949"/>
        <path id="Trazado_112762" data-name="Trazado 112762" d="M165.18,325l6.4,1.33a40.639,40.639,0,0,0,1.19-5.68c1.91-.12,4.19-.5,5-2.43a6.42,6.42,0,0,0,.43-2l1-8.3a8.14,8.14,0,0,0,0-2.87,5.73,5.73,0,0,0-3.08-3.44,12.14,12.14,0,0,0-11.19-.53,6.2,6.2,0,0,0-2.47,2c-.95,1.44-1,3.33-1.12,5.09s-.12,3.27-.19,4.9c-.07,1.88,0,4.05,1.29,5.19.7.61,1.67.81,2.24,1.56C165.69,321.24,164.94,323.3,165.18,325Z" fill="#e2b596"/>
        <path id="Trazado_112763" data-name="Trazado 112763" d="M179,315.26c0-.52,0-2-.89-1.18a1.54,1.54,0,0,0-.36.89,3.5,3.5,0,0,1-.21,1,1.69,1.69,0,0,1-1.81.84,1.67,1.67,0,0,1-.77-.28,2.34,2.34,0,0,1-.54-.63l-1.17-1.7c-.66-1-2.21-.75-3.25-.73a6.51,6.51,0,0,0-3.47.95l-.32.21a3.32,3.32,0,0,1-.79.46,2.26,2.26,0,0,1-2.59-1.16c-.25-.42-.47-.94-.92-1.06a.92.92,0,0,0-.94.45,2.67,2.67,0,0,0-.38,1.11,8.48,8.48,0,0,0,.26,4.25c1,2.9,3.54,3.52,6.12,3.74l3,.26c1.86.16,3.83.29,5.51-.63a6.87,6.87,0,0,0,3-4.06A10.751,10.751,0,0,0,179,315.26Zm-7.21,3.15a3.5,3.5,0,0,1-3.18,0c-.45-.19-.17-1,.28-.77a2.84,2.84,0,0,0,2.6,0c.51-.21.76.54.32.77Z" fill="#292949"/>
        <path id="Trazado_112764" data-name="Trazado 112764" d="M181,300.3a15.43,15.43,0,0,0,.62-2,3.94,3.94,0,0,1-2-.05l.12-1.19c0-.33-4.34-1.05-4.7-1.12-3.32-.64-6.35-1.25-9.58.25a9.3,9.3,0,0,0-5.39,6.42,14.43,14.43,0,0,0,1.22,9.34,19.72,19.72,0,0,1,.09-3.36,6.87,6.87,0,0,1,.93-2,8.67,8.67,0,0,1,3.33-2.86,16.36,16.36,0,0,1,6.77-1.52,17.61,17.61,0,0,1,6.7.73c1,.37,1.1.65,1.81-.31a16.688,16.688,0,0,0,1.11-2.18Z" fill="#292949"/>
      </g>
    </g>
    <g id="Grupo_55777" data-name="Grupo 55777">
      <g id="Grupo_55774" data-name="Grupo 55774">
        <g id="Grupo_55773" data-name="Grupo 55773">
          <path id="Trazado_112765" data-name="Trazado 112765" d="M384.74,467.5a16.919,16.919,0,0,0,3.18-.25,54.453,54.453,0,0,0-.64-11.1c-1.75,1.74-3.08.6-3.22,4C384,461.3,385.05,465.82,384.74,467.5Z" fill="#e2b596"/>
          <path id="Trazado_112766" data-name="Trazado 112766" d="M388.26,465.4c1.27-.37,1.38,2.61,1.35,3.31a5.309,5.309,0,0,0,0,1.26,3.31,3.31,0,0,0,.63,1.22l1.68,2.37a4.241,4.241,0,0,1,.63,1.14,2.32,2.32,0,0,1-1.35,2.64c-3.44,1.5-6.25-2.76-6.82-5.49-.09-.42-.15-.85-.21-1.27-.11-.88-.66-2.81-.27-3.64s1.64-.18,2.45-.51S387.75,465.55,388.26,465.4Z" fill="#292949"/>
        </g>
        <path id="Trazado_112767" data-name="Trazado 112767" d="M367.91,404.67c2.64,8.65,5.76,17.14,7.3,26.12,1.91,11.1,5.39,22,6.86,33.11a26.21,26.21,0,0,0,4.06.05c1.55-.09,4-.37,4.67-2a10.361,10.361,0,0,0,.12-3.15c0-2.87,0-5.74-.07-8.61-.14-8.11-.08-16.32-1.12-24.37-1.09-8.47-2.11-17-3-25.42-.47-4.37-1.1-8.72-1.94-13-.21-1.11-2.46-12.57-3-12.51a53,53,0,0,0-19.28,5.71,2.67,2.67,0,0,0-1.39,1.27,2.51,2.51,0,0,0,.07,1.67c1.46,5.31,3.52,10.33,5.09,15.62C366.78,400.94,367.34,402.78,367.91,404.67Z" fill="#292949"/>
      </g>
      <g id="Grupo_55776" data-name="Grupo 55776">
        <g id="Grupo_55775" data-name="Grupo 55775">
          <path id="Trazado_112768" data-name="Trazado 112768" d="M362.72,464.33a16.889,16.889,0,0,1-3.16.35,53.51,53.51,0,0,1-1.46-11c2,1.37,3.13,0,3.92,3.36C362.27,458.1,362.1,462.74,362.72,464.33Z" fill="#e2b596"/>
          <path id="Trazado_112769" data-name="Trazado 112769" d="M358.55,463.54c-.12,2-1.84,4.12-2.83,5.9a1.67,1.67,0,0,0-.25.66,1.64,1.64,0,0,0,.36,1,2.63,2.63,0,0,0,1,1.06,2.58,2.58,0,0,0,1.43.07c.8-.13,1.6-.3,2.38-.5a1.53,1.53,0,0,0,.56-.22,1.709,1.709,0,0,0,.44-.56,6.11,6.11,0,0,0,1.15-3.05,18.788,18.788,0,0,1,.26-3.82c.15-.6.34-1.37-.16-1.73s-1.14,0-1.58.08a5.869,5.869,0,0,0-2.23.36,1,1,0,0,0-.39.3.859.859,0,0,0-.14.45Z" fill="#292949"/>
        </g>
        <path id="Trazado_112770" data-name="Trazado 112770" d="M367.45,399.46c-1,9-2.43,17.91-2.26,27,.21,11.26-1.16,22.63-.52,33.81a26.732,26.732,0,0,1-4,.81c-1.54.2-4,.39-5-1.1a10,10,0,0,1-.71-3.08c-.56-2.81-1.06-5.64-1.55-8.47-1.39-8-3-16-3.48-24.14-.52-8.52-1.11-17.06-1.81-25.53-.37-4.38-.56-8.78-.55-13.17,0-1.14.06-12.82.63-12.87a53.07,53.07,0,0,1,20,2,2.73,2.73,0,0,1,1.61,1,2.48,2.48,0,0,1,.24,1.66c-.43,5.49-1.51,10.8-2.06,16.3C367.86,395.58,367.66,397.49,367.45,399.46Z" fill="#292949"/>
      </g>
      <path id="Trazado_112771" data-name="Trazado 112771" d="M375.33,327.35l.32.14a18,18,0,0,1,4.68,3.42c2.17,1.95,3.24,2.82,4,5.58a65.916,65.916,0,0,1,1.38,7.9c1.81,13.51,1.55,26.84,2.63,40.41.29,3.69.44,8-2.42,10.39-4.59-4-10.63-4.58-16.46-4.91-4.1-.24-8-1.79-12.16-1.56-3.95.21-7.32-1-11.31-.93-1,0-2.19-.07-2.52-1,1.61-4.05,1.84-8.5,2.4-12.82,1.44-11.19,5.77-21.76,7.91-32.84.72-3.76,1.35-10,4.45-12.75,3.37-2.93,10.65-2.59,14.72-1.74A14.518,14.518,0,0,1,375.33,327.35Z" fill="#fd8f25"/>
      <path id="Trazado_112772" data-name="Trazado 112772" d="M371.77,329.14a1.18,1.18,0,0,1-.29.35,3,3,0,0,1-1.75.69,7.451,7.451,0,0,1-2.48-.31c-1.09-.27-1-.92-1.12-1.93-.06-.56-.08-1.11-.09-1.67,0-.31.17-1.39,0-1.61s-.66-.13-.89-.27a2.51,2.51,0,0,1-.85-.95,7.35,7.35,0,0,1-.65-1.88c-.27-1.13-.55-2.26-.82-3.38a17.337,17.337,0,0,1-.61-3.5c-.07-1.78.36-4.27,1.78-5.49a8,8,0,0,1,4.74-1.55,9.75,9.75,0,0,1,6.21,1.62,5.18,5.18,0,0,1,1.81,2,8.41,8.41,0,0,1,.31,4.39l-.44,4.11c-.16,1.57-.46,3.38-1.7,4.18-.65.41-1.48.47-2.05,1a4.07,4.07,0,0,0-.82,2.72,3.24,3.24,0,0,1-.29,1.48Z" fill="#aa6755"/>
      <path id="Trazado_112773" data-name="Trazado 112773" d="M362.34,317.22c0,.31.08.64.11,1,.18,2.82-.25,5.54.31,8.37a17.93,17.93,0,0,1-6.6-5.67,4.769,4.769,0,0,1-.75-1.41,5.241,5.241,0,0,1-.14-1.59,46.651,46.651,0,0,1,1.23-10.2,14.671,14.671,0,0,1,1.32-3.79c1.92-3.47,5.78-4.63,9.26-4.66a8.59,8.59,0,0,1,5.75,1.63c1.75,1.47,2.23,4,2.14,6.16a3.36,3.36,0,0,1-.32,1.54c-.56.95-1.83,1.14-2.93,1.19a28.459,28.459,0,0,0-4.62.44,7.39,7.39,0,0,0-4,2.16C361.65,314,362.08,315.49,362.34,317.22Z" fill="#292949"/>
      <path id="Trazado_112774" data-name="Trazado 112774" d="M380.32,304.32a16.519,16.519,0,0,1,1.14,3c1,3.75,2,7.3,1.43,11.27a7.219,7.219,0,0,1-.38,1.62,6.6,6.6,0,0,1-1.19,1.78,32.821,32.821,0,0,1-6.11,5.53c.94-4.79,1.86-9.92.36-14.44a16.05,16.05,0,0,0-6.24-7.93c-1.48-1.07-5.48-3.23-4.46-5.62,1.42-3.29,9.15-1.2,11.29.13a11.17,11.17,0,0,1,4.16,4.66Z" fill="#292949"/>
    </g>
    <g id="Grupo_55788" data-name="Grupo 55788">
      <g id="Grupo_55778" data-name="Grupo 55778">
        <path id="Trazado_112775" data-name="Trazado 112775" d="M132,321.43a1.813,1.813,0,0,0-.31.09c-.86.47-1,1.22-1.74,1.9-.31.3-1.4.05-1.23.94.07.33.34,1.11.48,1.81a6.37,6.37,0,0,1-.63,3.52,31.74,31.74,0,0,1-2.24,4.29,55.329,55.329,0,0,1-6.41,8.06,15.15,15.15,0,0,0-15.4-2.58,3.53,3.53,0,0,0-1.43.92,2.93,2.93,0,0,0-.56,1.32c-1,5,3.75,5.79,7.59,6.57a49.941,49.941,0,0,0,7.31,1c3.42.18,5.67-1.73,7.68-4.39a50.13,50.13,0,0,0,5.75-9,39.063,39.063,0,0,0,1.61-4.79c.5-1.61,1.19-1.3,2-2.6a13.63,13.63,0,0,0,1.35-2.18c.55-1.43-.31-2.76-.94-4a1.58,1.58,0,0,0-.53-.7,2.34,2.34,0,0,0-1.45-.29,5.488,5.488,0,0,0-.9.11Z" fill="#e2b596"/>
        <path id="Trazado_112776" data-name="Trazado 112776" d="M111.67,351a8.192,8.192,0,0,0,.81.23,22.721,22.721,0,0,0,4.67.24c2.66,0,5.57,0,7.65-1.65a11.191,11.191,0,0,0,2-2.31q4.3-5.93,8.29-12a25.25,25.25,0,0,0-6-4.74,3.17,3.17,0,0,0-2-.56c-1,.19-1.63,1.29-2.06,2.27l-2.11,4.76a2.29,2.29,0,0,1-1,1.3,2.11,2.11,0,0,1-1.09.06,54.9,54.9,0,0,1-8.78-1.79,13.891,13.891,0,0,1-4-1.45,9.709,9.709,0,0,1-2.71-3.16,22.41,22.41,0,0,0-2.5-3.84,5.14,5.14,0,0,0-4-1.89,7.43,7.43,0,0,0-3.1,1.27c-1.89,1.14-4,2.5-4.48,4.64-.45,1.84.37,3.76,1.45,5.32,2.31,3.31,5.74,5.62,9.09,7.85a57.328,57.328,0,0,0,7.22,4.31,27.552,27.552,0,0,0,2.65,1.14Z" fill="#474ebb"/>
      </g>
      <g id="Grupo_55782" data-name="Grupo 55782">
        <g id="Grupo_55779" data-name="Grupo 55779">
          <path id="Trazado_112777" data-name="Trazado 112777" d="M75.19,467.77l-.19,3.1,6.03,3.47,3.28-2.92-2.92-3.29-6.02-3.46Z" fill="#292949"/>
          <path id="Trazado_112778" data-name="Trazado 112778" d="M70.93,373.55l-.55,9.42,10.17,41.56-5.63,42.22L81,468.34l17.28-50.65.41-15.27-3.97-31.43Z" fill="#292949"/>
        </g>
        <g id="Grupo_55780" data-name="Grupo 55780">
          <path id="Trazado_112779" data-name="Trazado 112779" d="M109.92,378.62l4.32,39.43-2.45,51.63-5.72.56-8.22-46.61-12.42-46.2Z" fill="#292949"/>
          <path id="Trazado_112780" data-name="Trazado 112780" d="M106.03,469.55l.31,3.1,6.49,2.48,2.78-3.39-3.39-2.79Z" fill="#292949"/>
        </g>
        <path id="Trazado_112781" data-name="Trazado 112781" d="M65.49,378.54c-.41,3.6-.74,8.47.63,8.77a1.26,1.26,0,0,0,.75-.15c2.52-1.09,4.38-2.78,6.85-3.82A27.32,27.32,0,0,1,82,381.55a78.53,78.53,0,0,1,12.74-.15c3.33.25,6.64.84,9.93,1.41,2.73.48,5.22,1.53,8,1.59a18.11,18.11,0,0,0,8.4-1.84.44.44,0,0,0,.24-.2.5.5,0,0,0,0-.34,15.07,15.07,0,0,0-1.66-4.72,29.569,29.569,0,0,1-2.43-5.34,82.068,82.068,0,0,1-3.74-11.43c-1.43-5.28-3.14-10.46-4.5-15.75a87.711,87.711,0,0,0-3.19-10.93c-1.11-2.76-3.16-6.83-5.95-8.26a8.919,8.919,0,0,0-3.07-.74l-9.58-1.16a7.89,7.89,0,0,0-3.49.11c-1.66.58-2.71,2.17-3.64,3.66A76.73,76.73,0,0,0,71,349.17c-1,4-2,8-2.86,12.08A136.624,136.624,0,0,0,66,374.9C65.89,375.41,65.68,376.83,65.49,378.54Z" fill="#474ebb"/>
        <path id="Trazado_112782" data-name="Trazado 112782" d="M90.38,341.84a26.82,26.82,0,0,1-.89,5.4q-3.87,16.23-7.72,32.47l25.81,2.13q.11-6.21.19-12.41a57.13,57.13,0,0,0-.23-8,58.7,58.7,0,0,0-3.4-12.39q-4-11.22-7.94-22.45a2.22,2.22,0,0,0-2-1.78,25.339,25.339,0,0,0-7.66-1.13c-.83,2.19,1.09,6.31,1.75,8.48C89.27,335.35,90.46,338.51,90.38,341.84Z" fill="#fff"/>
        <g id="Grupo_55781" data-name="Grupo 55781">
          <path id="Trazado_112783" data-name="Trazado 112783" d="M93.39,326.34l-5.32-.72a26.408,26.408,0,0,1,.44-4.25,12.449,12.449,0,0,1-3-2c-.64-1.05-.57-2.71-.77-3.9-.41-2.55-.76-5.41.75-7.49s4.59-2.68,7.26-2.51c3.35.22,7,1.53,8.45,4.56,1.31,2.73-1,6.37-1.8,9.05-.4,1.33-1,2.83-2.27,3.29-.69.24-1.5.13-2.13.51C93.91,323.57,94,325.2,93.39,326.34Z" fill="#e2b596"/>
          <path id="Trazado_112784" data-name="Trazado 112784" d="M106.94,305.6q.56-2.75,1.1-5.49a4.64,4.64,0,0,0,.11-2.06,3.6,3.6,0,0,0-2.39-2.3c-1.08-.4-2.24-.52-3.34-.87a14,14,0,0,0-3.51-1.06c-2.34-.11-4.32,1.88-6.65,2-3.23.22-6-1.51-8.29,2.06-.41.66-.58,1.44-1,2.12a14.531,14.531,0,0,1-1.93,2.3c-2.84,3.38-2.53,8.92.24,12.25,1.35,1.61,1.83,3,3.83,3.67-.76-2,1.16-9.43,3.79-10,.7-.17,2.65.85,3.39,1a20.371,20.371,0,0,1,4.74,1.6,24.32,24.32,0,0,0,7.18,2.5.93.93,0,0,0,1.32-.89C106,310.16,106.48,307.88,106.94,305.6Z" fill="#292949"/>
        </g>
      </g>
      <g id="Grupo_55786" data-name="Grupo 55786">
        <g id="Grupo_55784" data-name="Grupo 55784">
          <rect id="Rectángulo_5401" data-name="Rectángulo 5401" width="53.41" height="70.85" transform="translate(79.538 339.8) rotate(20.25)" fill="#fd8f25"/>
          <path id="Trazado_112785" data-name="Trazado 112785" d="M59.83,404.8l.75.28,43.75,17.69,22.02-63.29-2.27-.17Z" fill="#000909" opacity="0.26"/>
          <rect id="Rectángulo_5402" data-name="Rectángulo 5402" width="48.02" height="65.55" transform="translate(81.284 342.849) rotate(20.25)" fill="#fff"/>
          <path id="Trazado_112786" data-name="Trazado 112786" d="M81.14,342.53l32.41,11.96L71.08,369.63Z" fill="#000004" opacity="0.05"/>
          <g id="Grupo_55783" data-name="Grupo 55783">
            <rect id="Rectángulo_5403" data-name="Rectángulo 5403" width="20.86" height="1.95" transform="translate(94.149 347.23) rotate(20.25)" fill="#000100" opacity="0.12"/>
            <path id="Trazado_112787" data-name="Trazado 112787" d="M111.75,347.45l-.3-.11.08-.2a4,4,0,0,0-2.73-4.95l-2.92-1.08a4,4,0,0,0-5.29,2l-.08.2-.3-.11a4,4,0,0,0-5.29,2l-1.43,3.88,19.56,7.22,1.43-3.88a4,4,0,0,0-2.73-4.97Zm-3.22-1.1-5.16-1.9a1.014,1.014,0,1,1,.71-1.9l5.15,1.9a1.012,1.012,0,1,1-.7,1.9Z" fill="#e4eae9"/>
          </g>
        </g>
        <g id="Grupo_55785" data-name="Grupo 55785" opacity="0.47">
          <path id="Trazado_112788" data-name="Trazado 112788" d="M87.55,364.69l-6.62-2.44a.37.37,0,0,0-.47.22Q79.25,365.76,78,369a.37.37,0,0,0,.21.47L84.87,372a.36.36,0,0,0,.27,0h0a.36.36,0,0,0,.18-.2c.81-2.19,1.62-4.39,2.42-6.58a.37.37,0,0,0-.19-.53Zm-2.77,6.45L78.85,369,81,363.07l6,2.18Z" fill="#8b9498"/>
          <path id="Trazado_112789" data-name="Trazado 112789" d="M83.06,376.85l-6.61-2.44a.37.37,0,0,0-.47.22l-2.43,6.57a.37.37,0,0,0,.22.47l6.62,2.44a.33.33,0,0,0,.26,0h0a.34.34,0,0,0,.18-.19q1.2-3.3,2.42-6.58a.37.37,0,0,0-.19-.49Zm-2.77,6.45-5.92-2.19c.72-2,1.45-3.92,2.17-5.89l5.93,2.19c-.73,1.96-1.47,3.93-2.18,5.89Z" fill="#8b9498"/>
          <path id="Trazado_112790" data-name="Trazado 112790" d="M78.58,389,72,386.57a.37.37,0,0,0-.47.21q-1.2,3.3-2.42,6.58a.37.37,0,0,0,.22.47l6.61,2.44a.32.32,0,0,0,.27,0h0a.33.33,0,0,0,.18-.2l2.43-6.57a.37.37,0,0,0-.24-.5Zm-2.77,6.45-5.93-2.19c.73-2,1.45-3.93,2.18-5.89l5.94,2.2q-1.11,2.94-2.19,5.89Z" fill="#8b9498"/>
        </g>
        <path id="Trazado_112791" data-name="Trazado 112791" d="M82.24,365.56l1.71.06.28,1.82,9.19-2.52.78.48-10.98,3.77Z" fill="#fd8f25"/>
        <path id="Trazado_112792" data-name="Trazado 112792" d="M77.09,377.82l1.71.06.29,1.82,9.18-2.52.78.48-10.98,3.77Z" fill="#fd8f25"/>
        <path id="Trazado_112793" data-name="Trazado 112793" d="M72.71,389.28l1.71.06.28,1.82,9.19-2.53.78.48-10.98,3.77Z" fill="#fd8f25"/>
        <rect id="Rectángulo_5404" data-name="Rectángulo 5404" width="24.87" height="3.5" transform="translate(81.834 393.247) rotate(20.25)" fill="#8b9498" opacity="0.32"/>
        <rect id="Rectángulo_5405" data-name="Rectángulo 5405" width="24.946" height="3.511" transform="matrix(0.937, 0.349, -0.349, 0.937, 85.237, 381.403)" fill="#8b9498" opacity="0.32"/>
        <rect id="Rectángulo_5406" data-name="Rectángulo 5406" width="24.87" height="3.5" transform="translate(91.33 367.496) rotate(20.25)" fill="#8b9498" opacity="0.32"/>
      </g>
      <g id="Grupo_55787" data-name="Grupo 55787">
        <path id="Trazado_112794" data-name="Trazado 112794" d="M70.53,358.91c-.15.41-.15,1,.25,1.16a1.45,1.45,0,0,0,.77,0,2.23,2.23,0,0,1,2.4,1.32,2.82,2.82,0,0,1-1,3.12,5.82,5.82,0,0,1-3.25,1.13,2.61,2.61,0,0,1-2.07-.46,2.55,2.55,0,0,1-.58-1c-.73-1.78-1.34-4.12.07-5.74C68.27,357.17,71.56,356.14,70.53,358.91Z" fill="#e2b596"/>
        <path id="Trazado_112795" data-name="Trazado 112795" d="M62.19,358.54a3.43,3.43,0,0,1,.5-.51c1.55-1.25,3.56-2.46,5.62-1.82A19.09,19.09,0,0,0,70,367.52a1.06,1.06,0,0,1,.16.87c-.24.53-1.93.9-2.44.92a6.29,6.29,0,0,1-5.53-2.67,7.45,7.45,0,0,1-.81-3.11C61.19,361.9,61.11,359.89,62.19,358.54Z" fill="#474ebb"/>
      </g>
    </g>
    <g id="Grupo_55791" data-name="Grupo 55791">
      <rect id="Rectángulo_5407" data-name="Rectángulo 5407" width="88.68" height="85.64" transform="translate(154.74 377.21)" fill="#ec1c24"/>
      <path id="Trazado_112796" data-name="Trazado 112796" d="M243.42,462.85l21.93-21.93V355.28l-21.93,21.93Z" fill="#760e12"/>
      <path id="Trazado_112797" data-name="Trazado 112797" d="M243.42,377.21l21.93-21.93H176.67l-21.93,21.93Z" fill="#f04950"/>
      <path id="Trazado_112798" data-name="Trazado 112798" d="M214.71,355.28l-21.93,21.93v17.26h12.59V377.21h.02l21.93-21.93Z" fill="#760e12"/>
      <g id="Grupo_55789" data-name="Grupo 55789">
        <path id="Trazado_112799" data-name="Trazado 112799" d="M217.5,399.68l-12.12,15.65h7.36V440.4h9.53V415.33h7.36Z" fill="#fff"/>
        <path id="Trazado_112800" data-name="Trazado 112800" d="M168.53,415.33h7.36V440.4h9.54V415.33h7.35l-12.12-15.65Z" fill="#fff"/>
      </g>
      <g id="Grupo_55790" data-name="Grupo 55790">
        <rect id="Rectángulo_5408" data-name="Rectángulo 5408" width="65.21" height="1.29" transform="translate(166.48 445.25)" fill="#fff"/>
        <rect id="Rectángulo_5409" data-name="Rectángulo 5409" width="65.21" height="1.29" transform="translate(166.48 449.09)" fill="#fff"/>
        <rect id="Rectángulo_5410" data-name="Rectángulo 5410" width="65.21" height="1.29" transform="translate(166.48 452.93)" fill="#fff"/>
      </g>
    </g>
    <g id="Grupo_55795" data-name="Grupo 55795">
      <circle id="Elipse_4177" data-name="Elipse 4177" cx="34.77" cy="34.77" r="34.77" transform="translate(264.89 345.4)" fill="#8cabef"/>
      <g id="Grupo_55792" data-name="Grupo 55792" opacity="0.16">
        <path id="Trazado_112801" data-name="Trazado 112801" d="M317.85,350.5a34.77,34.77,0,0,1-47.49,48.36,34.77,34.77,0,1,0,47.49-48.36Z"/>
      </g>
      <g id="Grupo_55793" data-name="Grupo 55793">
        <path id="Trazado_112802" data-name="Trazado 112802" d="M308,346.4c.62.15,1.23.32,1.84.51Z" fill="#95b84c"/>
        <path id="Trazado_112803" data-name="Trazado 112803" d="M311.87,347.61a10.129,10.129,0,0,0-2.95.05,4.589,4.589,0,0,0,.87-.75c-.61-.19-1.22-.36-1.84-.51l-.13.05c-.84.29-1,.32-.83.85a5.752,5.752,0,0,1-.93-.46h-4c2.55,2.82-2.39,2.64-4.2,2.64-.33,0-.41-.66-.22-.83a9.662,9.662,0,0,1,1.69,0c1.7,0,1.49-.12,1.49-1.81-1.64,1.21-1.58,0-3.43,0a8.42,8.42,0,0,0-4.12.78l1.49,1.27c-.62-.14-2.66-.94-3.22-.7-.26.11-.32.8-.65.8-1.29,0-4.81.71-4.81-.78h-.07a35.06,35.06,0,0,0-8.76,5.42,20.524,20.524,0,0,1,3.78-.18,16.338,16.338,0,0,1,1.23,3c.06,1.2-.76,1.67-1.37,2.81a14.3,14.3,0,0,0-1.46,7.13c0,.08,1.39,1.33,1.39,1.82,0,2.07.21,2.1,1.63,3.63V369.3c.85,2.22,1.87,3.08,2.64,5.25.87,2.47,4.3.57,5.47,2.2.51.71,1.47.38,1.93,1.08l1.24,1.9c.75,1.14,1.66.74,3,.74s-1.17,4.44-1.17,4.82c0,1.54,2.1,5,2.08,5.65,0,1.83,2.25,2.09,3.49,3.21,1,.91.28,3.48.25,4.62-.07,2.66,1.62,4.57,2.06,7.08.16.93-.2,1.94,0,2.84s1,1.49,1,2.51c0,1.57,4.41,1.86,5.26,1.86a23,23,0,0,0-3.22-1.47c0-1.49.76-1.39.76-2.3,0-1.08-1-2-.36-3.5s.58-1.6,2.38-1.6a11.446,11.446,0,0,0-.35-2.25c1.6-2.49,5.32-4.89,6.31-5.57,1.34-.91.59-3.38,1.17-4.7.51-1.15,2.05-2.22,2.13-3.65.05-1.08-.91-1.35-1.7-1.32s-.87-1.3-1.47-1.3a7.9,7.9,0,0,1-4.85-1.4c-.24-.17-.51-2.3-.91-2.82-.59-.76-2.46.57-3.18-.46-.28-.39-.92-1.91-1.37-1.91-.6,0-3.92-.64-4.62,0,.11-.1-1.13-.47-1.31-.47.08,0-4.27,2.25-4.27,1.08,0-1.52.74-3.47-1.06-3.47-2.89,0-.43-.76-.43-2.08,0-1.7-2.79.47-4.27.47,0,0-1.66-2.79-.84-2.79.58,0,.67-1.19,1.11-1.69a4.76,4.76,0,0,1,4.46-1.23,7.81,7.81,0,0,1,2.57,2.92c0-.11.82-.64.93-.81.4-.61.17-.87.27-1.48.34-2,.42-2.45,2.05-3.69a21.94,21.94,0,0,0,3.82-3.15,6.33,6.33,0,0,1,2.43-1.88c-.11.05,1,.67,1.22.67.94,0,1.17-.8,1.69-1.51h-1.64c1.85-1.42-1.5-2.15,2.21-2.15,1.82,0,2,0,3.1-1.27-1.77,0-1.34,0-1.34-1.81,0-.31-.5-1.41-1-.94-1.3,1.29-1.26-.23-1.83-1.09-.74-1.1-1.53,0-1.84.71-.39.83-3.53,2.12-3.52,3.21,0,.63-1,.61-1-.1,0-1.06-3.64-2.08-3.7-2.49s1.82-2,3.47-2c.76,0,.38-.88.62-.88,1.57,0,3.42-.49,4.28-1.75h-2.23c0-.72-.31-1.16.52-1.16,1.94,0,2.51,1.51,4.64,1.51l-2.28,1.66c1.07,0,2.67,1.77,3.49,1.22,1.52-1,.5-1.94,1.76-2.15a1.471,1.471,0,0,0,.62.38c.39.14,1.81.39,2.05.75s1,3,.49,3.23c-.88.37-3.46,3.16-1.49,3.86,1.53.54,1.92-.14,3.27-1s1.61-.5,3,0a9.389,9.389,0,0,1,2,.15c1.2.42,1.12-.33,1.24-.29a3.3,3.3,0,0,0,2.09,0,34.78,34.78,0,0,0-13.9-9.69Z" fill="#fff"/>
        <path id="Trazado_112804" data-name="Trazado 112804" d="M297.44,371.82l-.7.71c2.19,0,3.52.7,5.47.7C300.9,371.19,299.88,371.82,297.44,371.82Z" fill="#fff"/>
        <path id="Trazado_112805" data-name="Trazado 112805" d="M304.67,373.59c-1.76,0-1.84.21-2.91,1.42h2.78C305.34,375,305.23,373.61,304.67,373.59Z" fill="#fff"/>
        <path id="Trazado_112806" data-name="Trazado 112806" d="M307.17,375.42C307.17,372.96,304.66,375.42,307.17,375.42Z" fill="#fff"/>
      </g>
      <path id="Trazado_112807" data-name="Trazado 112807" d="M269.61,383.84a32.28,32.28,0,0,1,57.87-19.68,32.28,32.28,0,1,0-53.58,35.77A32.13,32.13,0,0,1,269.61,383.84Z" fill="#9dbdf4"/>
      <g id="Grupo_55794" data-name="Grupo 55794">
        <path id="Trazado_112808" data-name="Trazado 112808" d="M309,349.38l.45.14.13-.09a3.675,3.675,0,0,1-.58-.05Z" fill="#a2c14b"/>
        <path id="Trazado_112809" data-name="Trazado 112809" d="M307.25,351.09c1.07,0,2.67,1.77,3.49,1.22,1.13-.76.85-1.46,1.16-1.86-.82-.34-1.65-.65-2.5-.93Z" fill="#f4f4f4"/>
        <path id="Trazado_112810" data-name="Trazado 112810" d="M309,349.38l-1-.29A3.91,3.91,0,0,0,309,349.38Z" fill="#a2c14b"/>
        <path id="Trazado_112811" data-name="Trazado 112811" d="M322.4,357.51a32.359,32.359,0,0,0-6.86-5.27c.27.91.48,2.13.12,2.28l-.12.06a32.9,32.9,0,0,1,4.79,2.76l.14.05A10.488,10.488,0,0,1,322.4,357.51Z" fill="#f4f4f4"/>
        <path id="Trazado_112812" data-name="Trazado 112812" d="M302.1,351.56c.2-.25,0-.72.22-.72,1.57,0,3.42-.49,4.28-1.75h-2.23c0-.3-.05-.55-.05-.75-.52-.07-1-.14-1.57-.19.09,1.46-3.44,1.34-4.91,1.34-.33,0-.41-.66-.22-.83a9.665,9.665,0,0,1,1.69,0c1.18,0,1.44-.06,1.49-.65h-1.31a32.07,32.07,0,0,0-5.31.44l.56.48c-.24-.05-.71-.21-1.21-.37a32.2,32.2,0,0,0-12.36,5.15,21.454,21.454,0,0,1,1.07,2.72c.06,1.2-.76,1.67-1.37,2.81l-.11.24a32.14,32.14,0,0,1,21.13-7.88Z" fill="#f4f4f4"/>
      </g>
      <path id="Trazado_112813" data-name="Trazado 112813" d="M303.43,408.63c.22.92,1,1.49,1,2.51,0,1.57,4.41,1.86,5.26,1.86a23,23,0,0,0-3.22-1.47c0-1.49.76-1.39.76-2.3,0-1.08-1-2-.36-3.5s.58-1.6,2.38-1.6a11.449,11.449,0,0,0-.35-2.25c1.6-2.49,5.32-4.89,6.31-5.57,1.34-.91.59-3.38,1.17-4.7.51-1.15,2.05-2.22,2.13-3.65a1.23,1.23,0,0,0-.19-.75,34.82,34.82,0,0,1-16.48,14.15,27.076,27.076,0,0,1,1.59,4.43C303.58,406.72,303.22,407.73,303.43,408.63Z" fill="#f2f2f2"/>
    </g>
    <g id="Grupo_55803" data-name="Grupo 55803">
      <g id="Grupo_55800" data-name="Grupo 55800">
        <path id="Trazado_112814" data-name="Trazado 112814" d="M267.71,285.73l-13.89-2.08,9.72,6.38a28.24,28.24,0,0,0,9.31,3.69l10.43,1.59Z" fill="#474ebb"/>
        <path id="Trazado_112815" data-name="Trazado 112815" d="M196.08,265.34a48.06,48.06,0,0,1-3.34-3.78,2.94,2.94,0,0,1,1.57-4.68l4.84-1.21a29,29,0,0,1,17.6.92L257.65,274a36.08,36.08,0,0,1,11.93,8.25l1.93,2a2.78,2.78,0,0,1-2,4.69l-8.08-.28c-5-1.43-11.05-2.57-16-4L220,277.34l-7.35-2.12a41.44,41.44,0,0,1-13.22-6.93,30.527,30.527,0,0,1-3.35-2.95Z" fill="#474ebb"/>
        <g id="Grupo_55797" data-name="Grupo 55797">
          <path id="Trazado_112816" data-name="Trazado 112816" d="M222.56,279.69l5,1.29a1.43,1.43,0,0,1,1,1.66l-.31,1.51a1.43,1.43,0,0,1-1.61,1.13l-5.18-.75a1.42,1.42,0,0,1-1.14-.93,3.68,3.68,0,0,1,.74-3.4A1.43,1.43,0,0,1,222.56,279.69Z" fill="#fd8f25"/>
          <g id="Grupo_55796" data-name="Grupo 55796" opacity="0.05">
            <path id="Trazado_112817" data-name="Trazado 112817" d="M224.61,280.32l1.83,4.93-5.36-.81s3.32.34,3.09-4.23Z" fill="#000100"/>
          </g>
          <path id="Trazado_112818" data-name="Trazado 112818" d="M222.23,281.23a8.74,8.74,0,0,0-.42,3.21.5.5,0,0,0,0,.12l-.49-.07a1.23,1.23,0,0,1-1-.9,3.93,3.93,0,0,1,.74-3.4,1.31,1.31,0,0,1,1.39-.53l.39.1a12.528,12.528,0,0,0-.61,1.47Z" fill="#292949"/>
        </g>
        <g id="Grupo_55799" data-name="Grupo 55799">
          <path id="Trazado_112819" data-name="Trazado 112819" d="M228.52,288.57l5.06.86a1.42,1.42,0,0,1,1.17,1.57l-.18,1.53a1.43,1.43,0,0,1-1.51,1.26l-5.23-.31a1.42,1.42,0,0,1-1.21-.83,3.69,3.69,0,0,1,.46-3.46,1.43,1.43,0,0,1,1.44-.62Z" fill="#fd8f25"/>
          <path id="Trazado_112820" data-name="Trazado 112820" d="M228.06,290.08a8.59,8.59,0,0,0-.16,3.23c0,.05,0,.08,0,.12h-.5a1.25,1.25,0,0,1-1.11-.81,3.91,3.91,0,0,1,.47-3.45,1.32,1.32,0,0,1,1.34-.65l.39.07A12.258,12.258,0,0,0,228.06,290.08Z" fill="#292949"/>
          <g id="Grupo_55798" data-name="Grupo 55798" opacity="0.05">
            <path id="Trazado_112821" data-name="Trazado 112821" d="M230.64,289l2.24,4.75-5.42-.36s3.34.06,2.73-4.47Z" fill="#000100"/>
          </g>
        </g>
        <path id="Trazado_112822" data-name="Trazado 112822" d="M216.13,270.64l22.18,31.71a12,12,0,0,0,10.6,5.14l1.58-.09-11.12-31.76L216,269.72Z" fill="#474ebb"/>
        <path id="Trazado_112823" data-name="Trazado 112823" d="M199.63,255.56s1.05,2,5.43,3l-1.29,2.64s-5.41-1.48-7.46-4.84Z" fill="#8cabef"/>
        <path id="Trazado_112824" data-name="Trazado 112824" d="M256.74,280.33l.26-.45,20.95-11.53,8.81,3.71-14.5,17.13Z" fill="#474ebb"/>
      </g>
      <g id="Grupo_55801" data-name="Grupo 55801" opacity="0.1">
        <path id="Trazado_112825" data-name="Trazado 112825" d="M221.06,270.61l1.21.49a.35.35,0,0,0,.45-.19l1.06-2.62a.36.36,0,0,0-.19-.46l-1.21-.49a.35.35,0,0,0-.45.2l-1.06,2.62a.34.34,0,0,0,.19.45Z" fill="#fff"/>
        <path id="Trazado_112826" data-name="Trazado 112826" d="M217.86,269.32l1.21.49a.35.35,0,0,0,.45-.2l1.06-2.62a.35.35,0,0,0-.19-.45l-1.21-.49a.33.33,0,0,0-.45.19l-1.06,2.62a.36.36,0,0,0,.19.46Z" fill="#fff"/>
        <path id="Trazado_112827" data-name="Trazado 112827" d="M214.46,267.94l.87.35a.53.53,0,0,0,.69-.3l.92-2.27a.54.54,0,0,0-.29-.7l-.87-.35a.53.53,0,0,0-.69.3l-.92,2.27A.54.54,0,0,0,214.46,267.94Z" fill="#fff"/>
      </g>
      <g id="Grupo_55802" data-name="Grupo 55802" opacity="0.04">
        <path id="Trazado_112828" data-name="Trazado 112828" d="M248.57,284.42c-5.81-1.76-11.61-3.52-17.31-5.58-9.77-3.53-20.63-6.4-29.62-11.61-1.12-.64-8.35-5.2-9.24-6.4h-.05c.17.85,3.17,3.84,3.73,4.49,1.7,2,4.18,3.4,5.82,4.6a34,34,0,0,0,5.76,3.32c9.81,4.07,20.58,6.11,30.76,9.12,4.12,1.22,8.18,2.69,12.34,3.76,1.54.4,3.09.74,4.65,1.06.94.19,2.82.94,3.66.43C255.65,286.38,252.05,285.48,248.57,284.42Z" fill="#000100"/>
      </g>
    </g>
    <g id="Grupo_55804" data-name="Grupo 55804">
      <path id="Trazado_112829" data-name="Trazado 112829" d="M173.78,387.92a1.841,1.841,0,0,0-.06-.41c-.37-1.17-1.09-1.49-1.68-2.48-.26-.44.08-1.82-.79-1.7-.33,0-1.11.3-1.8.4a5.08,5.08,0,0,1-3.34-1.24,32.3,32.3,0,0,1-3.94-3.41,65.7,65.7,0,0,1-7.21-9.26c3.87-4.88,5.43-12.78,3.88-19.59a5.2,5.2,0,0,0-.76-2,2.76,2.76,0,0,0-1.23-.89c-4.75-1.95-5.92,4.16-7,9a84.32,84.32,0,0,0-1.59,9.32c-.48,4.4,1.16,7.54,3.55,10.46a53.449,53.449,0,0,0,8.12,8.5,32.179,32.179,0,0,0,4.48,2.66c1.52.85,1.15,1.7,2.33,2.9a15,15,0,0,0,2,2c1.34.89,2.7-.06,4-.73a1.53,1.53,0,0,0,.73-.6,3.83,3.83,0,0,0,.4-1.84,7.621,7.621,0,0,0-.09-1.09Z" fill="#e2b596"/>
      <path id="Trazado_112830" data-name="Trazado 112830" d="M147,358c-.35,2.41-.61,4.79-.8,7.1-.28,3.44-.51,7.2.91,10.1a13.8,13.8,0,0,0,2.05,2.89q5.32,6.27,10.88,12.17a31.09,31.09,0,0,0,5.11-7.2,4.82,4.82,0,0,0,.72-2.56,4.14,4.14,0,0,0-2-2.94l-4.42-3.3a2.67,2.67,0,0,1-1.15-1.48,3.77,3.77,0,0,1,0-1.42c1.41-8.84,3.87-15.82,6.89-23.82,1.33-3.53,2.69-7.2,2.8-11.15.23-8.44-7.32-13.05-11.66-6.53C151.37,337.32,148.42,347.9,147,358Z" fill="#353a85"/>
    </g>
    <g id="Grupo_55805" data-name="Grupo 55805">
      <path id="Trazado_112831" data-name="Trazado 112831" d="M301.59,366.18a1.36,1.36,0,0,1,.07-.35c.43-1,1.26-1.27,1.95-2.11.3-.37-.08-1.56.92-1.45.38,0,1.27.27,2.06.36a7.12,7.12,0,0,0,3.85-1,36.877,36.877,0,0,0,4.55-2.89,61.559,61.559,0,0,0,8.35-7.87A16.85,16.85,0,0,1,319.05,334a3.92,3.92,0,0,1,.89-1.67,3.56,3.56,0,0,1,1.41-.75c5.48-1.62,6.78,3.63,8,7.82a55.152,55.152,0,0,1,1.75,8c.52,3.78-1.39,6.46-4.16,8.94a55.539,55.539,0,0,1-9.4,7.2,40.758,40.758,0,0,1-5.17,2.24c-1.74.71-1.33,1.45-2.69,2.46a15,15,0,0,1-2.3,1.7c-1.53.75-3.09-.08-4.53-.67a1.79,1.79,0,0,1-.83-.52,2.65,2.65,0,0,1-.44-1.58,4.862,4.862,0,0,1,.01-.99Z" fill="#e2b596"/>
      <path id="Trazado_112832" data-name="Trazado 112832" d="M328.24,345.87a15.538,15.538,0,0,0-2.46.94c-.55.26-6.67,3-6.69,2.87-.44-1.66-2-3.26-2.82-4.84a25.2,25.2,0,0,1-2.09-5.95c-.74-3.4-2.33-6.71-3.56-10-1.56-4.11,1.29-7,5.47-5.66,3.56,1.16,6.39,4.27,9,6.83a31.661,31.661,0,0,1,5.6,6.79,11.92,11.92,0,0,1,1.49,8.49,17.6,17.6,0,0,0-3.94.53Z" fill="#292949"/>
    </g>
    <g id="Grupo_55808" data-name="Grupo 55808">
      <path id="Trazado_112833" data-name="Trazado 112833" d="M346.54,355.26l39.15-.07a4.81,4.81,0,0,1,4.73,4.87v27.72a4.8,4.8,0,0,1-4.71,4.88l-39.15.06a4.79,4.79,0,0,1-4.73-4.87V360.14a4.79,4.79,0,0,1,4.71-4.88Z" fill="#474ebb"/>
      <g id="Grupo_55806" data-name="Grupo 55806">
        <path id="Trazado_112834" data-name="Trazado 112834" d="M375.89,375.23h9.33a1.3,1.3,0,0,0,1.27-1.32v-9.64A1.3,1.3,0,0,0,385.2,363h-9.33a1.31,1.31,0,0,0-1.27,1.32v9.64a1.28,1.28,0,0,0,1.29,1.27Z" fill="#fff"/>
        <path id="Trazado_112835" data-name="Trazado 112835" d="M376,389.81h9.33a1.3,1.3,0,0,0,1.27-1.32v-9.64a1.31,1.31,0,0,0-1.28-1.31h-9.33a1.29,1.29,0,0,0-1.27,1.31v9.64A1.3,1.3,0,0,0,376,389.81Z" fill="#fff"/>
        <path id="Trazado_112836" data-name="Trazado 112836" d="M361.32,375.26h9.33a1.28,1.28,0,0,0,1.27-1.31v-9.64a1.3,1.3,0,0,0-1.27-1.32h-9.33A1.3,1.3,0,0,0,360,364.3v9.64a1.3,1.3,0,0,0,1.32,1.32Z" fill="#fff"/>
        <path id="Trazado_112837" data-name="Trazado 112837" d="M361.42,389.84h9.33a1.29,1.29,0,0,0,1.27-1.31v-9.64a1.3,1.3,0,0,0-1.28-1.32h-9.33a1.3,1.3,0,0,0-1.27,1.32v9.63a1.3,1.3,0,0,0,1.28,1.32Z" fill="#fff"/>
        <path id="Trazado_112838" data-name="Trazado 112838" d="M346.76,375.28h9.33a1.31,1.31,0,0,0,1.27-1.32v-9.64a1.29,1.29,0,0,0-1.27-1.31h-9.33a1.3,1.3,0,0,0-1.27,1.32V374a1.3,1.3,0,0,0,1.27,1.28Z" fill="#fff"/>
        <path id="Trazado_112839" data-name="Trazado 112839" d="M346.86,389.86h9.33a1.3,1.3,0,0,0,1.27-1.32V378.9a1.29,1.29,0,0,0-1.27-1.31h-9.33a1.29,1.29,0,0,0-1.27,1.32v9.64a1.3,1.3,0,0,0,1.27,1.31Z" fill="#fff"/>
      </g>
      <g id="Grupo_55807" data-name="Grupo 55807">
        <path id="Trazado_112840" data-name="Trazado 112840" d="M380.49,351.21h1.36a1.37,1.37,0,0,1,1.35,1.39v5.21a1.37,1.37,0,0,1-1.35,1.39H380.5a1.38,1.38,0,0,1-1.35-1.39v-5.2A1.37,1.37,0,0,1,380.49,351.21Z" fill="#fff"/>
        <path id="Trazado_112841" data-name="Trazado 112841" d="M350,351.26h1.36a1.37,1.37,0,0,1,1.35,1.39v5.2a1.37,1.37,0,0,1-1.35,1.4H350a1.37,1.37,0,0,1-1.35-1.39v-5.2a1.37,1.37,0,0,1,1.35-1.4Z" fill="#fff"/>
      </g>
    </g>
    <g id="Grupo_55809" data-name="Grupo 55809">
      <path id="Trazado_112842" data-name="Trazado 112842" d="M393.12,375.76a30.012,30.012,0,0,0,1.07-3.07c-1.58-.36-3.16-.71-4.74-1q-.06.45-.09.87c-.14,1.46-.05,2.95-.33,4.4a5.56,5.56,0,0,1-.84,2.15c-.39.55-.76.78-.88,1.53s.79.92.43,1.64-1.54.22-2.14.78a1.51,1.51,0,0,0-.35.6,2.21,2.21,0,0,0-.1,1.76c.85,1.63,3.05.83,4.05,0a10.421,10.421,0,0,0,2.08-1.83c1-1.59.26-3.68.83-5.4A23.293,23.293,0,0,1,393.12,375.76Z" fill="#aa6755"/>
      <path id="Trazado_112843" data-name="Trazado 112843" d="M379.85,348.79c1.83,2.89,5.44,4.93,7.8,7.55,4.62,5.12,1.66,14.52,1.06,20.77l4,1.59,5.58-19.09-8.47-18.3a22.84,22.84,0,0,0-12.31-11.64l-3.82-1.52c1.5.6,3.26,11.35,3.74,13,.62,2.18,1,5,2,7C379.58,348.35,379.71,348.57,379.85,348.79Z" fill="#fd8f25"/>
    </g>
    <g id="Grupo_55810" data-name="Grupo 55810">
      <path id="Trazado_112844" data-name="Trazado 112844" d="M347.69,359.36a4,4,0,0,0-4-3.46,3,3,0,0,0-1.74.55,1.94,1.94,0,0,0-.81,1.6l.5-.46v.05a15.328,15.328,0,0,0-1,3.13,3.049,3.049,0,0,0,0,1.53,3.5,3.5,0,0,0,.95,1.35,2.639,2.639,0,0,0,1.06.76.87.87,0,0,0,1.07-.5c.09-.36-.13-.76.06-1.07s.76-.27,1.17-.36.92-.63,1.41-.91c.19-.11.41-.19.6-.32A2,2,0,0,0,347.69,359.36Z" fill="#aa6755"/>
      <path id="Trazado_112845" data-name="Trazado 112845" d="M342.28,358.17a2.43,2.43,0,0,1,2.44-1.34,2.23,2.23,0,0,0,.92.12.92.92,0,0,0,.57-1.08,2.31,2.31,0,0,0-.69-1.13,5.11,5.11,0,0,0-2.4-1.58,3.93,3.93,0,0,0-3.36.95,6.68,6.68,0,0,0-1.86,3.05c-.52,1.61-1.07,6.28,1.58,6.38C342.39,363.65,341.39,359.77,342.28,358.17Z" fill="#fd8f25"/>
    </g>
  </g>
</svg>
