<svg id="Layer_1" data-name="Layer 1" xmlns="http://www.w3.org/2000/svg" xmlns:xlink="http://www.w3.org/1999/xlink" width="500" height="500" viewBox="0 0 500 500">
  <defs>
    <style>
      .cls-1 {
        fill: #f1eefd;
      }

      .cls-2 {
        fill: #bdd0fb;
      }

      .cls-3 {
        fill: #91b3fa;
      }

      .cls-4 {
        fill: url(#linear-gradient);
      }

      .cls-5 {
        fill: #f0f0f0;
      }

      .cls-6 {
        fill: #7d97f4;
      }

      .cls-7 {
        fill: url(#linear-gradient-2);
      }

      .cls-8 {
        fill: url(#linear-gradient-3);
      }

      .cls-9 {
        fill: url(#linear-gradient-4);
      }

      .cls-10 {
        fill: url(#linear-gradient-5);
      }

      .cls-11 {
        fill: url(#linear-gradient-6);
      }

      .cls-12 {
        fill: #ef2a66;
      }

      .cls-13 {
        fill: url(#linear-gradient-7);
      }

      .cls-14 {
        fill: #12263f;
      }

      .cls-15 {
        fill: url(#linear-gradient-8);
      }

      .cls-16 {
        fill: url(#linear-gradient-9);
      }

      .cls-17 {
        opacity: 0.61;
      }

      .cls-18 {
        fill: #fff;
      }

      .cls-19 {
        fill: url(#Degradado_sin_nombre_3);
      }

      .cls-20 {
        fill: url(#Degradado_sin_nombre_3-2);
      }

      .cls-21 {
        opacity: 0.59;
      }

      .cls-22 {
        fill: url(#Degradado_sin_nombre_3-3);
      }

      .cls-23 {
        fill: url(#Degradado_sin_nombre_3-4);
      }

      .cls-24 {
        opacity: 0.51;
      }

      .cls-25 {
        fill: url(#linear-gradient-10);
      }

      .cls-26 {
        fill: url(#linear-gradient-11);
      }

      .cls-27 {
        fill: url(#linear-gradient-12);
      }

      .cls-28 {
        fill: url(#linear-gradient-13);
      }

      .cls-29 {
        fill: url(#linear-gradient-14);
      }

      .cls-30 {
        fill: url(#linear-gradient-15);
      }

      .cls-31 {
        fill: url(#linear-gradient-16);
      }

      .cls-32 {
        fill: url(#linear-gradient-17);
      }

      .cls-33 {
        fill: url(#linear-gradient-18);
      }

      .cls-34 {
        fill: url(#linear-gradient-19);
      }

      .cls-35 {
        fill: url(#linear-gradient-20);
      }

      .cls-36 {
        fill: url(#linear-gradient-21);
      }

      .cls-37 {
        fill: url(#linear-gradient-22);
      }

      .cls-38 {
        fill: url(#linear-gradient-23);
      }

      .cls-39 {
        fill: url(#linear-gradient-24);
      }

      .cls-40 {
        fill: url(#linear-gradient-25);
      }

      .cls-41 {
        fill: url(#linear-gradient-26);
      }

      .cls-42 {
        fill: url(#linear-gradient-27);
      }

      .cls-43 {
        fill: url(#linear-gradient-28);
      }

      .cls-44 {
        fill: url(#linear-gradient-29);
      }

      .cls-45 {
        fill: url(#linear-gradient-30);
      }

      .cls-46 {
        fill: url(#linear-gradient-31);
      }

      .cls-47 {
        fill: url(#linear-gradient-32);
      }

      .cls-48 {
        fill: url(#linear-gradient-33);
      }

      .cls-49 {
        fill: url(#linear-gradient-34);
      }

      .cls-50 {
        fill: url(#linear-gradient-35);
      }

      .cls-51 {
        fill: url(#linear-gradient-36);
      }

      .cls-52 {
        fill: url(#linear-gradient-37);
      }

      .cls-53 {
        fill: url(#linear-gradient-38);
      }

      .cls-54 {
        fill: url(#linear-gradient-39);
      }

      .cls-55 {
        fill: url(#linear-gradient-40);
      }

      .cls-56 {
        fill: url(#linear-gradient-41);
      }

      .cls-57 {
        fill: url(#linear-gradient-42);
      }

      .cls-58 {
        fill: url(#linear-gradient-43);
      }

      .cls-59 {
        fill: url(#linear-gradient-44);
      }

      .cls-60 {
        fill: url(#linear-gradient-45);
      }

      .cls-61 {
        fill: url(#linear-gradient-46);
      }

      .cls-62 {
        fill: url(#linear-gradient-47);
      }

      .cls-63 {
        fill: url(#linear-gradient-48);
      }

      .cls-64 {
        fill: url(#linear-gradient-49);
      }

      .cls-65 {
        fill: url(#linear-gradient-50);
      }

      .cls-66 {
        fill: url(#linear-gradient-51);
      }

      .cls-67 {
        fill: url(#linear-gradient-52);
      }

      .cls-68 {
        fill: url(#linear-gradient-53);
      }
    </style>
    <linearGradient id="linear-gradient" x1="464.32" y1="320.74" x2="480.91" y2="320.74" gradientUnits="userSpaceOnUse">
      <stop offset="0" stop-color="#dae3fe"/>
      <stop offset="1" stop-color="#e9effd"/>
    </linearGradient>
    <linearGradient id="linear-gradient-2" x1="24.48" y1="354.52" x2="37.88" y2="354.52" xlink:href="#linear-gradient"/>
    <linearGradient id="linear-gradient-3" x1="426.52" y1="177.49" x2="298.03" y2="348.08" gradientUnits="userSpaceOnUse">
      <stop offset="0" stop-color="#4042e2"/>
      <stop offset="1" stop-color="#4f52ff"/>
    </linearGradient>
    <linearGradient id="linear-gradient-4" x1="317.71" y1="243.5" x2="435.91" y2="243.5" xlink:href="#linear-gradient"/>
    <linearGradient id="linear-gradient-5" x1="426.52" y1="177.49" x2="298.03" y2="348.08" gradientTransform="translate(491.06 -190.35) rotate(71.88)" xlink:href="#linear-gradient-3"/>
    <linearGradient id="linear-gradient-6" x1="339.98" y1="243.5" x2="413.64" y2="243.5" xlink:href="#linear-gradient"/>
    <linearGradient id="linear-gradient-7" x1="361.29" y1="243.5" x2="392.33" y2="243.5" xlink:href="#linear-gradient"/>
    <linearGradient id="linear-gradient-8" x1="426.18" y1="189.73" x2="448.15" y2="189.73" xlink:href="#linear-gradient-3"/>
    <linearGradient id="linear-gradient-9" x1="424.71" y1="184.73" x2="439.63" y2="184.73" xlink:href="#linear-gradient-3"/>
    <linearGradient id="Degradado_sin_nombre_3" data-name="Degradado sin nombre 3" x1="307.2" y1="390.02" x2="406.82" y2="393.02" gradientUnits="userSpaceOnUse">
      <stop offset="0" stop-color="#472ea6"/>
      <stop offset="1" stop-color="#4f52ff"/>
    </linearGradient>
    <linearGradient id="Degradado_sin_nombre_3-2" x1="243.24" y1="447.91" x2="320.77" y2="323.46" xlink:href="#Degradado_sin_nombre_3"/>
    <linearGradient id="Degradado_sin_nombre_3-3" x1="131.54" y1="425.48" x2="216.63" y2="428.04" xlink:href="#Degradado_sin_nombre_3"/>
    <linearGradient id="Degradado_sin_nombre_3-4" x1="-16.16" y1="475.37" x2="138.26" y2="427.22" xlink:href="#Degradado_sin_nombre_3"/>
    <linearGradient id="linear-gradient-10" x1="-1422.68" y1="1405.01" x2="-1476.54" y2="1375.32" gradientTransform="translate(1390.21 -1390.29) rotate(-9.53)" xlink:href="#linear-gradient-3"/>
    <linearGradient id="linear-gradient-11" x1="-1428.02" y1="1423.67" x2="-1377.96" y2="1371.36" gradientTransform="translate(1390.21 -1390.29) rotate(-9.53)" gradientUnits="userSpaceOnUse">
      <stop offset="0" stop-color="#ff928e"/>
      <stop offset="1" stop-color="#feb3b1"/>
    </linearGradient>
    <linearGradient id="linear-gradient-12" x1="-1422.96" y1="1428.51" x2="-1372.91" y2="1376.2" xlink:href="#linear-gradient-11"/>
    <linearGradient id="linear-gradient-13" x1="244.14" y1="216.07" x2="244.14" y2="281.91" gradientTransform="matrix(1, 0, 0, 1, 0, 0)" xlink:href="#linear-gradient-11"/>
    <linearGradient id="linear-gradient-14" x1="-1523.66" y1="1492.1" x2="-1515.53" y2="1492.1" xlink:href="#linear-gradient-11"/>
    <linearGradient id="linear-gradient-15" x1="-1413.8" y1="1465.95" x2="-1404.87" y2="1465.95" xlink:href="#linear-gradient-11"/>
    <linearGradient id="linear-gradient-16" x1="-1457.51" y1="1389.86" x2="-1506.49" y2="1467.91" gradientTransform="translate(1390.21 -1390.29) rotate(-9.53)" xlink:href="#linear-gradient-3"/>
    <linearGradient id="linear-gradient-17" x1="146.17" y1="197.05" x2="160.61" y2="248.91" gradientTransform="matrix(1, 0, 0, 1, 0, 0)" xlink:href="#linear-gradient-11"/>
    <linearGradient id="linear-gradient-18" x1="167.64" y1="273.97" x2="173.73" y2="234.4" xlink:href="#linear-gradient-3"/>
    <linearGradient id="linear-gradient-19" x1="195.41" y1="197.62" x2="180.53" y2="242.72" gradientTransform="matrix(1, 0, 0, 1, 0, 0)" xlink:href="#linear-gradient-11"/>
    <linearGradient id="linear-gradient-20" x1="839.91" y1="-390.25" x2="841.71" y2="-359.13" gradientTransform="translate(-670.67 516.76) rotate(3.85)" xlink:href="#linear-gradient-11"/>
    <linearGradient id="linear-gradient-21" x1="833.98" y1="-389.9" x2="835.79" y2="-358.78" gradientTransform="translate(-670.67 516.76) rotate(3.85)" xlink:href="#linear-gradient-11"/>
    <linearGradient id="linear-gradient-22" x1="-13163.95" y1="-993.25" x2="-13159.31" y2="-993.25" gradientTransform="matrix(-0.98, -0.22, -0.22, 0.98, -12710.01, -1471.11)" xlink:href="#linear-gradient-11"/>
    <linearGradient id="linear-gradient-23" x1="-13165.87" y1="-983.06" x2="-13153.4" y2="-983.06" gradientTransform="matrix(-0.98, -0.22, -0.22, 0.98, -12710.01, -1471.11)" xlink:href="#linear-gradient-3"/>
    <linearGradient id="linear-gradient-24" x1="-13167.3" y1="-988.97" x2="-13162.95" y2="-988.97" gradientTransform="matrix(-0.98, -0.22, -0.22, 0.98, -12710.01, -1471.11)" xlink:href="#linear-gradient-11"/>
    <linearGradient id="linear-gradient-25" x1="-12964.07" y1="-1233.21" x2="-12905.72" y2="-1291.98" gradientTransform="matrix(-0.98, -0.22, -0.22, 0.98, -12710.01, -1471.11)" xlink:href="#linear-gradient-3"/>
    <linearGradient id="linear-gradient-26" x1="346.35" y1="362.57" x2="360.78" y2="334.38" gradientTransform="matrix(1, 0, 0, 1, 0, 0)" xlink:href="#linear-gradient-11"/>
    <linearGradient id="linear-gradient-27" x1="369.13" y1="332.54" x2="397.98" y2="383.75" xlink:href="#linear-gradient-3"/>
    <linearGradient id="linear-gradient-28" x1="-13168.49" y1="-1061.58" x2="-13158.42" y2="-1061.58" gradientTransform="matrix(-0.98, -0.22, -0.22, 0.98, -12710.01, -1471.11)" xlink:href="#linear-gradient-11"/>
    <linearGradient id="linear-gradient-29" x1="380.22" y1="326.3" x2="409.07" y2="377.5" xlink:href="#linear-gradient-3"/>
    <linearGradient id="linear-gradient-30" x1="381.29" y1="346.91" x2="386.93" y2="364.73" gradientTransform="matrix(1, 0, 0, 1, 0, 0)" xlink:href="#linear-gradient-11"/>
    <linearGradient id="linear-gradient-31" x1="362.2" y1="328.92" x2="371.9" y2="329.26" gradientTransform="matrix(1, 0, 0, 1, 0, 0)" xlink:href="#linear-gradient-11"/>
    <linearGradient id="linear-gradient-32" x1="-14510.94" y1="-7753.44" x2="-14500.83" y2="-7763.8" gradientTransform="matrix(-0.65, -0.76, -0.76, 0.65, -14986.17, -5549.53)" xlink:href="#linear-gradient-11"/>
    <linearGradient id="linear-gradient-33" x1="10824.51" y1="351.24" x2="10818.16" y2="360.81" gradientTransform="translate(-10487.12)" xlink:href="#linear-gradient-3"/>
    <linearGradient id="linear-gradient-34" x1="367.87" y1="363.96" x2="368.32" y2="446.03" gradientUnits="userSpaceOnUse">
      <stop offset="0" stop-color="#e1473d"/>
      <stop offset="1" stop-color="#e9605a"/>
    </linearGradient>
    <linearGradient id="linear-gradient-35" x1="306.85" y1="451.66" x2="424.45" y2="451.66" xlink:href="#linear-gradient"/>
    <linearGradient id="linear-gradient-36" x1="306.85" y1="455.35" x2="424.45" y2="455.35" xlink:href="#linear-gradient"/>
    <linearGradient id="linear-gradient-37" x1="306.85" y1="459.04" x2="424.45" y2="459.04" xlink:href="#linear-gradient"/>
    <linearGradient id="linear-gradient-38" x1="306.85" y1="462.74" x2="424.45" y2="462.74" xlink:href="#linear-gradient"/>
    <linearGradient id="linear-gradient-39" x1="306.85" y1="466.43" x2="424.45" y2="466.43" xlink:href="#linear-gradient"/>
    <linearGradient id="linear-gradient-40" x1="-17043.02" y1="358.06" x2="-17028.56" y2="390.96" gradientTransform="matrix(-1, 0, 0, 1, -16930.33, 0)" gradientUnits="userSpaceOnUse">
      <stop offset="0" stop-color="#a22b25"/>
      <stop offset="1" stop-color="#c0423c"/>
    </linearGradient>
    <linearGradient id="linear-gradient-41" x1="-16998.27" y1="472.4" x2="-16991.63" y2="472.4" gradientTransform="matrix(-1, 0, 0, 1, -16930.33, 0)" xlink:href="#linear-gradient-3"/>
    <linearGradient id="linear-gradient-42" x1="88.25" y1="454.46" x2="97.48" y2="454.46" gradientTransform="matrix(1, 0, 0, 1, 0, 0)" xlink:href="#linear-gradient-40"/>
    <linearGradient id="linear-gradient-43" x1="-17029.1" y1="471.19" x2="-17018.36" y2="471.19" gradientTransform="matrix(-1, 0, 0, 1, -16930.33, 0)" xlink:href="#linear-gradient-3"/>
    <linearGradient id="linear-gradient-44" x1="62.51" y1="453.97" x2="83.11" y2="453.97" gradientTransform="matrix(1, 0, 0, 1, 0, 0)" xlink:href="#linear-gradient-40"/>
    <linearGradient id="linear-gradient-45" x1="-17026.07" y1="386.02" x2="-17021.3" y2="430.32" gradientTransform="matrix(-1, 0, 0, 1, -16930.33, 0)" xlink:href="#linear-gradient-3"/>
    <linearGradient id="linear-gradient-46" x1="-13201.35" y1="388.55" x2="-13199.56" y2="375.43" gradientTransform="matrix(-1, 0, 0, 1, -13104.33, 0)" gradientUnits="userSpaceOnUse">
      <stop offset="0" stop-color="#c4421b"/>
      <stop offset="1" stop-color="#5c0e16"/>
    </linearGradient>
    <linearGradient id="linear-gradient-47" x1="-17019.96" y1="394.95" x2="-17008.05" y2="394.95" xlink:href="#linear-gradient-40"/>
    <linearGradient id="linear-gradient-48" x1="-17031.88" y1="371.63" x2="-17016.23" y2="343.78" xlink:href="#linear-gradient-40"/>
    <linearGradient id="linear-gradient-49" x1="-17028.55" y1="373.51" x2="-17012.9" y2="345.65" xlink:href="#linear-gradient-40"/>
    <linearGradient id="linear-gradient-50" x1="-17045.88" y1="359.32" x2="-17031.42" y2="392.21" xlink:href="#linear-gradient-40"/>
    <linearGradient id="linear-gradient-51" x1="118.61" y1="323.98" x2="124.36" y2="385.2" gradientTransform="matrix(1, 0, 0, 1, 0, 0)" xlink:href="#linear-gradient-40"/>
    <linearGradient id="linear-gradient-52" x1="197.55" y1="437.85" x2="205.93" y2="437.85" xlink:href="#linear-gradient"/>
    <linearGradient id="linear-gradient-53" x1="216.33" y1="460.77" x2="226.71" y2="460.77" xlink:href="#linear-gradient"/>
  </defs>
  <g>
    <path class="cls-1" d="M477.52,370.6q-6.51-21.27-13-42.54a95.83,95.83,0,0,1-3.76-15.15c-2.34-17.08,8-30.4,12.33-46.1,3.44-12.54,6.48-28.05,4.89-40.95a35.6,35.6,0,0,0-4.51-14.25c-3.29-5.41-8.53-9.46-14-12.75-18.89-11.26-40.41-13.18-62-9.42-22.08,3.85-41.3,11.95-64.47,8.11-27.79-4.61-52.1-22.28-80.21-24.54-23.94-1.92-47.09,7.61-68.69,17.53-18.5,8.51-37.44,17.85-58.07,20.63-17.93,2.42-35.45-9.46-52.63-13.16-18.45-4-41.13,3.67-47.37,21.8-5.77,16.78,1.09,36.31,6.35,52.42,6.27,19.25,11.82,38.63,7.93,58.92-2.12,11.1-6.48,21.7-10.62,32.3-6.28,16.07-12.59,31.33-4.1,48,8.7,17.08,28.27,18.45,47,19.16,22,.83,44-.51,66-.51H420.85c13.21,0,29.33-2.84,41.08-8.32,14.38-6.71,18.1-18.28,18.85-31.68C481.17,383.19,479.53,377.16,477.52,370.6Z"/>
    <g>
      <g>
        <path class="cls-2" d="M378.13,453.7c15.95,3.19,36.33-14.21,42.89-33.21,6.76-19.56-5.63-27.75-5.53-54.89.11-30.83,16.14-35.48,26.75-77,2.39-9.37,16.24-63.63-.92-73.8-15.87-9.4-60.45,17.59-68.26,52.12-5.58,24.63,11.65,35,5.07,63.65-5.77,25.17-20.94,25.54-26.75,49.82C344.3,409.92,357.18,449.51,378.13,453.7Z"/>
        <path class="cls-3" d="M379.29,461.16c-4.3-33.21,4.09-84.45,11.88-121.59,8.45-40.21,18-73,18.12-73.33l1.33.39c-.1.32-9.66,33.08-18.09,73.23-7.78,37-16.15,88.11-11.87,121.13Z"/>
      </g>
      <g>
        <path class="cls-2" d="M396.5,450c-20.92-10.91-28.09-48.36-16.19-60.53,8-8.22,19.56.43,30.69-8.09,14.2-10.89,3.75-31.39,14.91-58,9.5-22.62,32.29-44,45.61-39.64,13.94,4.6,21.28,38.71,9.38,59.25-7.75,13.35-19.6,14-22.17,26.42-3,14.41,11.43,21,11.51,34.95C470.38,429.48,424.19,464.41,396.5,450Z"/>
        <path class="cls-3" d="M407.8,459.58a.81.81,0,0,1-.37-.09.85.85,0,0,1-.4-1.14c27.75-57.17,35.89-123.5,36-124.16a.86.86,0,0,1,1.7.2c-.08.66-8.25,67.28-36.12,124.71A.86.86,0,0,1,407.8,459.58Z"/>
        <path class="cls-4" d="M464.73,351.36a.44.44,0,0,1-.25-.08.42.42,0,0,1-.08-.58c8.76-11.24,18.47-28.13,15-44.75a29.16,29.16,0,0,0-8-15.11.4.4,0,0,1,0-.57.41.41,0,0,1,.57,0c.25.22,6.13,5.4,8.26,15.57,2,9.34.94,24.8-15.12,45.42A.41.41,0,0,1,464.73,351.36Z"/>
        <path class="cls-5" d="M394.62,445a.42.42,0,0,1-.34-.17c-13.46-19.65-18-34.82-13.64-45.12,3.92-9.14,13.81-10.85,13.91-10.86a.41.41,0,0,1,.47.33.41.41,0,0,1-.34.47c-.09,0-9.56,1.66-13.3,10.4-4.28,10,.29,24.92,13.57,44.32a.4.4,0,0,1-.1.56A.39.39,0,0,1,394.62,445Z"/>
      </g>
    </g>
    <g>
      <path class="cls-3" d="M125.19,445c-17.51,3.17-40.23-11.86-47.77-28.6-7.77-17.24,5.73-24.77,5.17-48.87-.64-27.39-18.37-31.18-30.74-67.87-2.8-8.28-19-56.18-.23-65.57,17.32-8.69,66.85,14.36,76,44.87,6.54,21.77-12.24,31.31-4.52,56.65,6.77,22.24,23.48,22.25,30.28,43.69C161.7,405.43,148.19,440.86,125.19,445Z"/>
      <path class="cls-6" d="M124.38,464.15c3.27-29.58-5-75-12.59-107.82-8.18-35.57-17.24-64.54-17.33-64.83l-1.17.37c.09.28,9.14,29.22,17.3,64.75,7.53,32.76,15.82,78,12.57,107.39Z"/>
    </g>
    <g>
      <path class="cls-2" d="M92.62,454.81c16.25-8.87,21.31-38.34,11.8-47.7-6.42-6.33-15.33.62-24.18-5.9-11.3-8.32-3.41-24.55-12.56-45.23-7.78-17.6-26-34.05-36.35-30.41-10.86,3.81-16.11,30.67-6.47,46.59,6.27,10.36,15.57,10.7,17.77,20.4,2.55,11.25-8.65,16.62-8.51,27.58C34.38,439.82,71.12,466.53,92.62,454.81Z"/>
      <path class="cls-3" d="M83.91,462.49a.65.65,0,0,0,.29-.07.67.67,0,0,0,.29-.9c-22.61-44.42-30-96.31-30-96.83a.67.67,0,0,0-1.33.18c.08.52,7.47,52.64,30.18,97.26A.66.66,0,0,0,83.91,462.49Z"/>
      <path class="cls-7" d="M37.66,378.38a.22.22,0,0,1-.18-.08c-5.68-7-9.55-13.87-11.5-20.39A31.42,31.42,0,0,1,25,343a23.41,23.41,0,0,1,6.22-12.27.22.22,0,0,1,.31,0,.22.22,0,0,1,0,.32,22.89,22.89,0,0,0-6.08,12.05C24,350.33,25.08,362.27,37.83,378a.21.21,0,0,1,0,.31A.19.19,0,0,1,37.66,378.38Z"/>
      <path class="cls-5" d="M94,450.77a.17.17,0,0,1-.12,0,.22.22,0,0,1-.07-.31c5.56-8.44,9.11-15.9,10.56-22.17,1.18-5.09,1-9.43-.57-12.88-3.09-6.85-10.58-8-10.65-8a.22.22,0,0,1,.06-.44c.08,0,7.81,1.19,11,8.26,1.6,3.55,1.8,8,.6,13.17-1.46,6.32-5,13.83-10.62,22.32A.26.26,0,0,1,94,450.77Z"/>
    </g>
    <g>
      <g>
        <circle class="cls-3" cx="376.81" cy="243.5" r="66.86" transform="translate(-61.81 337.76) rotate(-45)"/>
        <g>
          <circle class="cls-8" cx="376.81" cy="243.5" r="57.06"/>
          <path class="cls-9" d="M376.81,302.6a59.11,59.11,0,1,1,59.1-59.1A59.16,59.16,0,0,1,376.81,302.6Zm0-114.13a55,55,0,1,0,55,55A55.1,55.1,0,0,0,376.81,188.47Z"/>
        </g>
        <g>
          <circle class="cls-10" cx="376.81" cy="243.5" r="34.79" transform="translate(28.21 525.91) rotate(-71.88)"/>
          <path class="cls-11" d="M376.81,280.33a36.83,36.83,0,1,1,36.83-36.83A36.88,36.88,0,0,1,376.81,280.33Zm0-69.58a32.75,32.75,0,1,0,32.75,32.75A32.79,32.79,0,0,0,376.81,210.75Z"/>
        </g>
        <g>
          <path class="cls-12" d="M387.56,234.87c8.91,13.68-5.7,28.29-19.38,19.38a7.26,7.26,0,0,1-2.12-2.12c-8.91-13.68,5.7-28.29,19.38-19.38A7.26,7.26,0,0,1,387.56,234.87Z"/>
          <path class="cls-13" d="M376.81,259a15.52,15.52,0,1,1,15.52-15.51A15.53,15.53,0,0,1,376.81,259Zm0-26.95a11.44,11.44,0,1,0,11.44,11.44A11.45,11.45,0,0,0,376.81,232.06Z"/>
        </g>
      </g>
      <g>
        <rect class="cls-14" x="412.89" y="170.57" width="1.98" height="74.9" transform="translate(559.44 647.77) rotate(-135)"/>
        <path class="cls-14" d="M387.69,230.43c.8-.8,4.58,3,3.78,3.78l-14,11a.55.55,0,0,1-.78-.78Z"/>
        <path class="cls-15" d="M441,182.27l7.12.71-9.78,9.78a15.15,15.15,0,0,1-12.19,4.36h0Z"/>
        <path class="cls-16" d="M439.63,180.87l-.71-7.12-9.78,9.78a15.1,15.1,0,0,0-4.36,12.19h0Z"/>
      </g>
    </g>
    <g>
      <g>
        <rect class="cls-12" x="345.65" y="264.12" width="87.2" height="199.04" rx="7"/>
        <rect class="cls-12" x="319.94" y="264.12" width="87.2" height="199.04" rx="7"/>
        <g class="cls-17">
          <path class="cls-18" d="M327.14,300.35a.55.55,0,0,1-.55-.55V284.69A14.44,14.44,0,0,1,341,270.27h22.93a.56.56,0,0,1,0,1.11H341a13.32,13.32,0,0,0-13.31,13.31V299.8A.56.56,0,0,1,327.14,300.35Z"/>
          <path class="cls-18" d="M327.14,316.37a.55.55,0,0,1-.55-.55v-6.16a.56.56,0,0,1,1.11,0v6.16A.56.56,0,0,1,327.14,316.37Z"/>
        </g>
      </g>
      <g>
        <rect class="cls-19" x="264.49" y="306.79" width="72.76" height="166.08" rx="5"/>
        <rect class="cls-20" x="243.04" y="306.79" width="72.76" height="166.08" rx="5"/>
        <g>
          <path class="cls-2" d="M249.05,337a.45.45,0,0,1-.46-.46V324a12,12,0,0,1,12-12h19.13a.46.46,0,0,1,.46.46.47.47,0,0,1-.46.46H260.62A11.12,11.12,0,0,0,249.51,324v12.6A.46.46,0,0,1,249.05,337Z"/>
          <path class="cls-2" d="M249.05,350.39a.46.46,0,0,1-.46-.46v-5.14a.46.46,0,0,1,.46-.46.47.47,0,0,1,.46.46v5.14A.47.47,0,0,1,249.05,350.39Z"/>
        </g>
      </g>
      <g>
        <rect class="cls-12" x="192.85" y="341.09" width="73.88" height="131.77" rx="7"/>
        <rect class="cls-12" x="174.09" y="341.09" width="73.88" height="131.77" rx="7"/>
        <g class="cls-21">
          <path class="cls-18" d="M179,365.71a.47.47,0,0,1-.46-.46V355.9a9,9,0,0,1,9-9h14.19a.46.46,0,0,1,.46.46.47.47,0,0,1-.46.46H187.62a8.13,8.13,0,0,0-8.12,8.12v9.35A.47.47,0,0,1,179,365.71Z"/>
          <path class="cls-18" d="M179,375.62a.47.47,0,0,1-.46-.46v-3.81a.46.46,0,0,1,.92,0v3.81A.47.47,0,0,1,179,375.62Z"/>
        </g>
      </g>
      <g>
        <rect class="cls-22" x="128.07" y="379.79" width="63.66" height="93.07" rx="5"/>
        <rect class="cls-23" x="109.3" y="379.79" width="63.66" height="93.07" rx="5"/>
        <g>
          <path class="cls-2" d="M114.56,406.31a.46.46,0,0,1-.46-.47v-11a10.6,10.6,0,0,1,10.58-10.58h16.74a.46.46,0,0,1,.46.46.45.45,0,0,1-.46.46H124.68a9.67,9.67,0,0,0-9.66,9.66v11A.47.47,0,0,1,114.56,406.31Z"/>
          <path class="cls-2" d="M114.56,418a.46.46,0,0,1-.46-.46v-4.49a.45.45,0,0,1,.46-.46.46.46,0,0,1,.46.46v4.49A.47.47,0,0,1,114.56,418Z"/>
        </g>
      </g>
      <g>
        <rect class="cls-12" x="67.05" y="426.61" width="63.66" height="46.25" rx="7"/>
        <rect class="cls-12" x="48.28" y="426.61" width="63.66" height="46.25" rx="7"/>
        <g class="cls-24">
          <path class="cls-18" d="M52.81,452.36a.45.45,0,0,1-.46-.46v-11a10.6,10.6,0,0,1,10.58-10.58H79.67a.46.46,0,0,1,0,.92H62.93a9.67,9.67,0,0,0-9.66,9.66v11A.46.46,0,0,1,52.81,452.36Z"/>
          <path class="cls-18" d="M52.81,464.06a.46.46,0,0,1-.46-.46v-4.5a.46.46,0,0,1,.46-.46.47.47,0,0,1,.46.46v4.5A.47.47,0,0,1,52.81,464.06Z"/>
        </g>
      </g>
    </g>
    <g>
      <path class="cls-25" d="M208.14,214.88l-6.46,14.86c5.38,7.21,10.61,10.82,15.46,12.13A24.44,24.44,0,0,1,221,229.48C212.21,226.26,208.14,214.88,208.14,214.88Z"/>
      <path class="cls-26" d="M240.4,223.75c-8,6.77-14.46,7.53-19.39,5.73a24.44,24.44,0,0,0-3.87,12.39c15.42,4.18,27-14.8,27-14.8Z"/>
      <path class="cls-27" d="M241.27,226s-3.11-3.79-.19-7.59c0,0,.9-1.46,2.44.2,0,0,3.15-4,4.4-2.81s4.51,4.11,2.52,8.39S242.76,227.66,241.27,226Z"/>
      <path class="cls-28" d="M244.55,223.1a2.2,2.2,0,0,1-1.16-.09,1.93,1.93,0,0,1-1.14-1.35.51.51,0,0,1,.35-.65.53.53,0,0,1,.66.35c.16.53.42.63.5.66a1.65,1.65,0,0,0,1.05-.08l-1.25-2.45a.53.53,0,0,1,.23-.71.52.52,0,0,1,.71.23l1.5,2.93a.52.52,0,0,1-.2.69A3.62,3.62,0,0,1,244.55,223.1Z"/>
      <path class="cls-3" d="M129.31,334.91a2.35,2.35,0,0,0-.58,2.58c1.36,3.66,5.43,13.27,12.23,18.22a.89.89,0,0,0,1.28-.21,33.86,33.86,0,0,1-6.87-7.69C131,341.53,129.64,337.42,129.31,334.91Z"/>
      <path class="cls-14" d="M136.78,333.51a8.22,8.22,0,0,0-7.45,1.38l0,0c.33,2.51,1.64,6.62,6.06,12.9a33.86,33.86,0,0,0,6.87,7.69,1,1,0,0,0,.17-.47C142.86,351.06,143.4,340.15,136.78,333.51Z"/>
      <path class="cls-29" d="M142.23,332.84l-2.85,3.82a1.79,1.79,0,0,1-2.18.58,4.74,4.74,0,0,1-2.08-1.83,1.83,1.83,0,0,1,0-2l2.76-4.29a1.81,1.81,0,0,1,2.91-.19l1.36,1.61A1.82,1.82,0,0,1,142.23,332.84Z"/>
      <path class="cls-3" d="M245.37,297.55a2.33,2.33,0,0,0,2.64,0c3.32-2.08,11.89-8,15.35-15.68a.88.88,0,0,0-.46-1.21,33.67,33.67,0,0,1-6.13,8.28C251.52,294.59,247.76,296.71,245.37,297.55Z"/>
      <path class="cls-14" d="M242.48,290.52a8.22,8.22,0,0,0,2.87,7l0,0c2.39-.84,6.15-3,11.4-8.57a33.67,33.67,0,0,0,6.13-8.28,1,1,0,0,0-.49-.07C258.43,281,247.64,282.69,242.48,290.52Z"/>
      <path class="cls-30" d="M242.74,285.3l4.06,2.5a1.79,1.79,0,0,1,.77,2.11,4.71,4.71,0,0,1-1.64,2.24,1.8,1.8,0,0,1-1.94.16L239.47,290a1.81,1.81,0,0,1-.45-2.88l1.49-1.5A1.83,1.83,0,0,1,242.74,285.3Z"/>
      <path class="cls-14" d="M166.4,266s-3,24.71-5.7,35.82c0,0-7.61,2.5-12,6.14S136.58,329,136.58,329s3.59,4.71,7,4.95l26.21-25.53,19.05-31.5-3.27-12.58Z"/>
      <path class="cls-14" d="M166.5,264l-.94,6.79s4.69,16.61,25.53,10.17S214,270.6,214,270.6s0,11.11,25.45,20.19c0,0,3.1-3.27,3.37-6.44L222,260.16c-2.87-3.15-5.13-3.72-9.17-2.38-8.93,3-25.8,7.73-28.47,7.72Z"/>
      <path class="cls-31" d="M175.1,213.24c-6.16,1.36-15.49,6-20.85,12.87A77.68,77.68,0,0,1,163,234a19.86,19.86,0,0,1,8.16-5.93,267.49,267.49,0,0,1-6.43,39.17,1.36,1.36,0,0,0,1.09,1.69c4.12.7,16.14,2,24.48-4.75l15.5-32.65a25.28,25.28,0,0,0,2.45-11.25l-.08-5.41S188.52,210.28,175.1,213.24Z"/>
      <path class="cls-32" d="M171.39,259.34c-1.21-1.81-4.56-3.13-6.14-3.67-1.7-2.39-8.7-13.24-2.28-21.66a77.68,77.68,0,0,0-8.72-7.9c-6.19,8-7.09,19,8.23,31.67-.09,3.77,2.91,7.63,4.25,8C167.35,266,173,261.75,171.39,259.34Z"/>
      <path class="cls-33" d="M172.32,227.94a.53.53,0,0,1-.28-1l5.47-2.18a.53.53,0,0,1,.68.3.52.52,0,0,1-.29.68l-5.47,2.18A.23.23,0,0,1,172.32,227.94Z"/>
      <path class="cls-34" d="M187.58,203.16,184,214.5a1.73,1.73,0,0,0,.58,1.89c1.53,1.23,5,3.05,10,.48a1.61,1.61,0,0,0,.87-1.49l-.2-9.71Z"/>
      <g>
        <path class="cls-35" d="M198.55,191.63s2.68,7.48,2.63,11.31.62,6.37-3.85,6.84a9.41,9.41,0,0,1-9.79-5.92s-2.76-6.06-1.89-8.42S198.55,191.63,198.55,191.63Z"/>
        <path class="cls-14" d="M189.23,201.23l.26-.09a.6.6,0,0,0,.35-.81c-.54-1.25-1.57-4.08,0-4.62,2.08-.69,10.19-1.79,12.1-4.51a5.28,5.28,0,0,0-1.53-7.38.29.29,0,0,0-.4.1l-.21.34a.3.3,0,0,1-.55-.1h0a.3.3,0,0,0-.54-.11c-.58.81-2.11,2.09-6,2.54-5.52.64-9.26,2.6-9.6,6.35a.3.3,0,0,1-.48.22,1.55,1.55,0,0,0-1.93.24c-1.58,1.15-1.19,4.45,1.91,7.36a.3.3,0,0,1,0,.48c-.62.34-1.57,1.2.64,2.58A7.73,7.73,0,0,0,188,205.2a.3.3,0,0,0,.27-.34l-.51-3.36a.3.3,0,0,1,.32-.34Z"/>
        <path class="cls-36" d="M189.32,201.94s-.89-4.73-3.06-3.56.73,5.27,2.39,5.56Z"/>
      </g>
    </g>
    <g>
      <path class="cls-18" d="M63.65,419.41a.87.87,0,0,1-.32-.06.88.88,0,0,1-.49-1.13s.46-1.17,1.37-3.26a.87.87,0,0,1,1.59.69c-.89,2.05-1.34,3.19-1.35,3.21A.86.86,0,0,1,63.65,419.41ZM66.43,413a.9.9,0,0,1-.36-.08.86.86,0,0,1-.43-1.15c.47-1,1-2.09,1.47-3.16a.86.86,0,0,1,1.56.74c-.5,1.06-1,2.12-1.46,3.14A.86.86,0,0,1,66.43,413Zm3-6.28a.85.85,0,0,1-.38-.09.87.87,0,0,1-.4-1.16c.5-1,1-2.07,1.55-3.12a.87.87,0,0,1,1.55.78c-.53,1-1,2.08-1.54,3.1A.87.87,0,0,1,69.4,406.71Zm3.12-6.2a.85.85,0,0,1-.4-.1.86.86,0,0,1-.37-1.16c.53-1,1.08-2.06,1.62-3.08a.86.86,0,0,1,1.17-.36A.87.87,0,0,1,74.9,397L73.29,400A.85.85,0,0,1,72.52,400.51Zm3.26-6.12a.87.87,0,0,1-.76-1.28c.55-1,1.12-2,1.68-3.05a.87.87,0,0,1,1.18-.33.86.86,0,0,1,.33,1.18c-.56,1-1.12,2-1.67,3A.87.87,0,0,1,75.78,394.39Zm3.38-6.06a.86.86,0,0,1-.43-.11.88.88,0,0,1-.32-1.18c.57-1,1.16-2,1.74-3a.88.88,0,0,1,1.19-.31.86.86,0,0,1,.31,1.18c-.58,1-1.17,2-1.73,3A.87.87,0,0,1,79.16,388.33Zm3.51-6a.92.92,0,0,1-.45-.12.86.86,0,0,1-.29-1.19c.59-1,1.19-2,1.79-3a.87.87,0,1,1,1.48.9c-.6,1-1.2,2-1.79,3A.86.86,0,0,1,82.67,382.35Zm3.62-5.91a.84.84,0,0,1-.46-.13.87.87,0,0,1-.28-1.2c.62-1,1.24-2,1.86-2.93a.87.87,0,1,1,1.46.93c-.62,1-1.24,1.95-1.85,2.92A.87.87,0,0,1,86.29,376.44ZM90,370.6a.89.89,0,0,1-.47-.14.86.86,0,0,1-.25-1.2c.63-1,1.27-1.95,1.91-2.9a.86.86,0,0,1,1.2-.24.87.87,0,0,1,.24,1.2c-.63.95-1.27,1.92-1.9,2.89A.89.89,0,0,1,90,370.6Zm3.84-5.77a.87.87,0,0,1-.48-.15.86.86,0,0,1-.23-1.2l2-2.86a.87.87,0,1,1,1.42,1c-.66.94-1.31,1.9-2,2.84A.86.86,0,0,1,93.86,364.83Zm4-5.69a.86.86,0,0,1-.7-1.36c.66-.94,1.34-1.89,2-2.83a.87.87,0,0,1,1.21-.19.86.86,0,0,1,.19,1.21l-2,2.81A.86.86,0,0,1,97.82,359.14Zm4.07-5.61a.85.85,0,0,1-.52-.17.87.87,0,0,1-.18-1.21l2.08-2.78a.87.87,0,1,1,1.38,1.05c-.69.91-1.38,1.84-2.07,2.76A.86.86,0,0,1,101.89,353.53Zm4.18-5.52a.87.87,0,0,1-.69-1.4c.7-.91,1.42-1.83,2.14-2.74a.87.87,0,0,1,1.36,1.07q-1.08,1.37-2.13,2.73A.87.87,0,0,1,106.07,348Zm4.28-5.45a.85.85,0,0,1-.54-.19.87.87,0,0,1-.13-1.22l2.19-2.69a.87.87,0,0,1,1.34,1.1c-.73.88-1.46,1.79-2.18,2.68A.87.87,0,0,1,110.35,342.56Zm4.4-5.35a.91.91,0,0,1-.56-.2.87.87,0,0,1-.1-1.22c.74-.88,1.49-1.78,2.24-2.65a.87.87,0,0,1,1.32,1.12l-2.24,2.64A.86.86,0,0,1,114.75,337.21Zm4.51-5.26a.83.83,0,0,1-.57-.22.86.86,0,0,1-.08-1.22c.76-.87,1.53-1.74,2.3-2.6a.87.87,0,1,1,1.29,1.16l-2.29,2.58A.85.85,0,0,1,119.26,332Zm4.62-5.16a.89.89,0,0,1-.59-.23.86.86,0,0,1-.05-1.22c.77-.85,1.57-1.71,2.35-2.56a.89.89,0,0,1,1.23,0,.88.88,0,0,1,0,1.23c-.78.83-1.57,1.69-2.34,2.53A.88.88,0,0,1,123.88,326.79Zm4.72-5.07a.84.84,0,0,1-.59-.24.86.86,0,0,1,0-1.22c.79-.83,1.6-1.68,2.41-2.5a.87.87,0,1,1,1.24,1.21c-.8.82-1.61,1.65-2.4,2.48A.86.86,0,0,1,128.6,321.72Zm4.84-5a.86.86,0,0,1-.61-1.47c.81-.82,1.64-1.64,2.47-2.45a.86.86,0,0,1,1.22,0,.87.87,0,0,1,0,1.22l-2.46,2.43A.84.84,0,0,1,133.44,316.76Zm4.95-4.84a.86.86,0,0,1-.6-1.49c.83-.8,1.68-1.6,2.52-2.39a.87.87,0,1,1,1.19,1.26c-.84.79-1.68,1.58-2.51,2.38A.88.88,0,0,1,138.39,311.92Zm5.06-4.73a.87.87,0,0,1-.59-1.51c.85-.78,1.72-1.56,2.58-2.33a.87.87,0,0,1,1.22.07.86.86,0,0,1-.07,1.22L144,307A.87.87,0,0,1,143.45,307.19Zm5.16-4.62a.87.87,0,0,1-.57-1.52l2.64-2.26a.86.86,0,0,1,1.22.1.87.87,0,0,1-.1,1.22c-.87.73-1.75,1.49-2.62,2.25A.86.86,0,0,1,148.61,302.57Zm5.28-4.48a.86.86,0,0,1-.67-.32.87.87,0,0,1,.12-1.22c.89-.74,1.79-1.48,2.68-2.2a.87.87,0,1,1,1.09,1.35c-.88.71-1.78,1.45-2.67,2.19A.89.89,0,0,1,153.89,298.09Zm5.38-4.36a.86.86,0,0,1-.68-.33.87.87,0,0,1,.15-1.22c.9-.71,1.82-1.43,2.74-2.13a.86.86,0,1,1,1.05,1.37l-2.72,2.12A.85.85,0,0,1,159.27,293.73Zm5.49-4.22a.87.87,0,0,1-.52-1.56l2.8-2.07a.87.87,0,1,1,1,1.4l-2.78,2.05A.86.86,0,0,1,164.76,289.51Zm5.6-4.08a.87.87,0,0,1-.71-.37.85.85,0,0,1,.21-1.2l2.84-2a.87.87,0,1,1,1,1.43c-.94.65-1.89,1.31-2.82,2A.85.85,0,0,1,170.36,285.43Zm5.7-3.94a.85.85,0,0,1-.72-.38.87.87,0,0,1,.23-1.2c1-.65,1.94-1.29,2.9-1.92a.87.87,0,0,1,.95,1.45l-2.88,1.91A.86.86,0,0,1,176.06,281.49Zm5.8-3.78a.87.87,0,0,1-.47-1.6l3-1.84a.87.87,0,0,1,.91,1.48c-1,.6-2,1.21-2.93,1.83A.89.89,0,0,1,181.86,277.71Zm5.9-3.62a.88.88,0,0,1-.75-.43.86.86,0,0,1,.3-1.18c1-.6,2-1.19,3-1.76a.86.86,0,1,1,.86,1.5l-3,1.74A.8.8,0,0,1,187.76,274.09Zm6-3.47a.88.88,0,0,1-.76-.44.87.87,0,0,1,.34-1.18c1-.56,2-1.13,3-1.67a.86.86,0,0,1,1.17.34.87.87,0,0,1-.35,1.18c-1,.54-2,1.1-3,1.66A.8.8,0,0,1,193.75,270.62Zm6.09-3.3a.86.86,0,0,1-.4-1.63l3.09-1.59a.87.87,0,0,1,.78,1.55c-1,.51-2.06,1-3.07,1.58A1,1,0,0,1,199.84,267.32ZM206,264.2a.87.87,0,0,1-.78-.49.86.86,0,0,1,.4-1.15c1-.51,2.09-1,3.13-1.51a.87.87,0,0,1,.74,1.57c-1,.49-2.09,1-3.11,1.49A.92.92,0,0,1,206,264.2Zm6.26-2.95a.87.87,0,0,1-.79-.51.86.86,0,0,1,.43-1.14c1.05-.48,2.12-1,3.18-1.42a.87.87,0,0,1,.69,1.59l-3.15,1.4A.94.94,0,0,1,212.28,261.25Zm6.34-2.77a.86.86,0,0,1-.33-1.66c1.06-.45,2.14-.89,3.21-1.33a.87.87,0,0,1,.65,1.61L219,258.41A.8.8,0,0,1,218.62,258.48Zm6.43-2.59a.86.86,0,0,1-.32-1.67c1.08-.42,2.17-.83,3.25-1.23a.86.86,0,1,1,.6,1.62l-3.22,1.22A.89.89,0,0,1,225.05,255.89Zm6.49-2.4a.86.86,0,0,1-.29-1.68l3.28-1.13a.86.86,0,0,1,1.1.54.88.88,0,0,1-.54,1.1c-1.09.36-2.19.74-3.26,1.12A.77.77,0,0,1,231.54,253.49Zm6.56-2.21a.87.87,0,0,1-.83-.6.88.88,0,0,1,.56-1.09l3.32-1a.87.87,0,1,1,.5,1.66c-1.09.33-2.2.68-3.29,1A.78.78,0,0,1,238.1,251.28Zm6.62-2a.87.87,0,0,1-.24-1.7c1.1-.32,2.23-.63,3.34-.94a.87.87,0,1,1,.46,1.67c-1.11.3-2.22.62-3.32.94A1,1,0,0,1,244.72,249.26Zm6.67-1.83a.86.86,0,0,1-.21-1.7c1.11-.29,2.24-.57,3.37-.85a.86.86,0,0,1,.41,1.68l-3.35.84A.78.78,0,0,1,251.39,247.43Zm6.73-1.63a.87.87,0,0,1-.84-.68.85.85,0,0,1,.65-1c1.12-.26,2.26-.51,3.39-.75a.86.86,0,1,1,.36,1.69l-3.37.74A.63.63,0,0,1,258.12,245.8Zm113.39-.47h-.17l-3.39-.65a.86.86,0,0,1-.69-1,.85.85,0,0,1,1-.69l3.41.65a.86.86,0,0,1-.16,1.71Zm-106.62-1a.87.87,0,0,1-.17-1.72l3.42-.65a.86.86,0,0,1,.31,1.7l-3.39.65Zm99.81-.28h-.15l-3.4-.58a.87.87,0,0,1-.72-1,.88.88,0,0,1,1-.72l3.42.58a.87.87,0,0,1-.15,1.72Zm-93-1a.87.87,0,0,1-.14-1.72l3.43-.56a.87.87,0,0,1,.26,1.72c-1.13.17-2.28.36-3.41.55Zm86.17-.14h-.13l-3.41-.5a.86.86,0,1,1,.24-1.71c1.13.16,2.29.32,3.43.5a.87.87,0,0,1,.73,1A.88.88,0,0,1,357.87,243Zm-79.33-.92a.86.86,0,0,1-.12-1.72l3.44-.46a.87.87,0,0,1,.22,1.72l-3.42.45ZM351,242h-.11l-3.43-.42a.88.88,0,0,1-.76-1,.86.86,0,0,1,1-.76l3.45.42a.86.86,0,0,1,.74,1A.85.85,0,0,1,351,242Zm-6.88-.81h-.09c-1.14-.12-2.29-.24-3.43-.34a.87.87,0,0,1,.16-1.73l3.45.35a.86.86,0,0,1-.09,1.72Zm-58.73,0a.87.87,0,0,1-.1-1.73c1.14-.12,2.3-.25,3.46-.36a.86.86,0,0,1,.17,1.72l-3.43.36Zm51.84-.63h-.07l-3.44-.26a.87.87,0,0,1-.81-.92.88.88,0,0,1,.93-.81c1.14.08,2.31.17,3.46.27a.87.87,0,0,1-.07,1.73Zm-44.95,0a.87.87,0,0,1-.07-1.73c1.14-.1,2.31-.19,3.46-.27a.87.87,0,0,1,.12,1.73l-3.44.26Zm38-.45h0c-1.14-.07-2.3-.13-3.44-.18a.87.87,0,1,1,.08-1.73l3.46.18a.87.87,0,0,1-.05,1.73Zm-31.14,0a.87.87,0,0,1-.86-.82.86.86,0,0,1,.82-.91c1.15-.07,2.32-.13,3.47-.18a.87.87,0,0,1,.07,1.73l-3.45.18Zm24.23-.27h0l-3.45-.1a.87.87,0,0,1,0-1.73l3.48.09a.87.87,0,0,1,0,1.74Zm-17.31,0a.87.87,0,0,1,0-1.73c1.14,0,2.31-.07,3.47-.09a.87.87,0,1,1,0,1.73c-1.15,0-2.31.05-3.45.09Zm10.39-.06h-3.46a.89.89,0,0,1-.87-.89.88.88,0,0,1,.86-.89h3.47a.89.89,0,0,1,0,1.78Z"/>
      <path class="cls-18" d="M368.38,251a.87.87,0,0,1-.45-1.61l6.49-4a50.81,50.81,0,0,0-4.26-5.87.87.87,0,0,1,.16-1.68c.57-.08,1.16-.17,6,7.35a.85.85,0,0,1,.12.66.91.91,0,0,1-.39.55l-7.26,4.45A.93.93,0,0,1,368.38,251Z"/>
    </g>
    <g>
      <g>
        <rect class="cls-6" x="377.2" y="385.2" width="2.64" height="28.53"/>
        <path class="cls-6" d="M390.07,414.28H367v-.73a1,1,0,0,1,1-1h21a1.07,1.07,0,0,1,1.07,1.07Z"/>
        <rect class="cls-6" x="363.57" y="378.41" width="30.87" height="8.76" rx="3.01"/>
      </g>
      <g>
        <path class="cls-14" d="M355.14,405.07s-8.53,3.67-8,7.51c0,0,8.81-1.69,10.39-4.21s.71-4,.71-4Z"/>
        <path class="cls-37" d="M357.23,400.87l.43,3.74a1.26,1.26,0,0,1-.78,1.32,3.37,3.37,0,0,1-1.08.16,1.45,1.45,0,0,1-1.41-1l-.83-3Z"/>
        <path class="cls-14" d="M375.86,372.17s-15.69-.73-23.49,3.82.39,26.4.39,26.4a7.93,7.93,0,0,0,5-1.13s-4.19-16,3.08-18.77a41.91,41.91,0,0,1,16.65-2.37l-1.57-7.46Z"/>
        <path class="cls-14" d="M348.81,410.9c1.79-.39,7.07-2.59,7.88-2.56s1.94,1.24,1.94,1.24a2.17,2.17,0,0,1-.38,1.6,14.88,14.88,0,0,1-7.71,3.23,5.79,5.79,0,0,1-4.89-1.81A7,7,0,0,1,348.81,410.9Z"/>
        <path class="cls-38" d="M350.54,414.41a14.88,14.88,0,0,0,7.71-3.23,6.62,6.62,0,0,1-2.52,2.19c-3.45,1.95-9.15,1.67-10.28,1.23-.9-.35-.62-1.2.2-2A5.79,5.79,0,0,0,350.54,414.41Z"/>
        <path class="cls-39" d="M360.5,407.62a12.64,12.64,0,0,1-2.09,2.51,1.4,1.4,0,0,1-1.32.39,3.4,3.4,0,0,1-.94-.33.91.91,0,0,1-.36-1.25l1.83-3.33Z"/>
        <path class="cls-14" d="M391.4,370.85s1.37,9.71-2.59,11.7-12.64,3.28-15.63,8.32-8.36,14.93-13.25,17.77c0,0-2.79-.91-3.61-2.28,0,0,5.8-15.25,8.22-19,2.1-3.21,5.16-7.84,9.52-9.84,1.25-.57,1.34-1.89,1.12-3.25l-.4-2.46Z"/>
        <path class="cls-40" d="M354.71,359.84c5.55,1.59,8-14,8-14.41l8.51,9.95s-5.07,8.92-12.72,9.87a9.07,9.07,0,0,1-5-.73A8,8,0,0,0,354.71,359.84Z"/>
        <path class="cls-41" d="M344.43,354.73c2.42-1,4.47,1,4.47,1,2.4,2.45,4.3,3.69,5.81,4.12a8,8,0,0,1-1.17,4.68,12.34,12.34,0,0,1-5.45-5.52,1,1,0,0,0-1.37-.47c-.52.25-1,.63-1.08,1.14-.06,1-1.27,1.08-1.27.7a14.83,14.83,0,0,1,.93-2.37l-3.86,2.46a1.61,1.61,0,0,1-2-.44S342,355.72,344.43,354.73Z"/>
        <path class="cls-42" d="M389.26,339s-7.46-5.09-25.47,4.11a5.87,5.87,0,0,0-1,5c.86,2.65,11.56,17,12,23.73,0,0,7.32,4.3,16.81,0C391.59,371.89,394.77,354.1,389.26,339Z"/>
        <path class="cls-43" d="M373.73,332.49l2.95,5.78a1.65,1.65,0,0,1-.17,1.77,4.69,4.69,0,0,1-5.4,1.5,2.51,2.51,0,0,1-1.72-1.83l-1.53-6.45Z"/>
        <path class="cls-44" d="M394.78,359.17c.51-3.51-8.77-10.32-8.77-10.32l3.25-9.85s17.7,12.63,14,22.95a7.16,7.16,0,0,1-2.3,3.32A11.49,11.49,0,0,0,394.78,359.17Z"/>
        <path class="cls-45" d="M381.84,360.14s10.5,2.93,12.67-.26a1.59,1.59,0,0,0,.27-.71,11.49,11.49,0,0,1,6.16,6.1c-5,3.92-14.59-.48-17.2-1.79a1.84,1.84,0,0,0-1.38-.12,12.59,12.59,0,0,1-3.43.69c-1.32-.07-2.72,4.67-4.95,3.47C374,367.52,375,359.42,381.84,360.14Z"/>
        <g>
          <path class="cls-46" d="M370,323.06c-.12.1-5.51,9.67-5.51,9.67l5.53,3,6.45-8.31S372.06,321.24,370,323.06Z"/>
          <path class="cls-14" d="M373.85,328.25l-3.05,4.64a1.07,1.07,0,0,1-.14.16c-.33.29-1.54,1.19-2.38-.1a7,7,0,0,0-2.3-2.59.77.77,0,0,0-1,.33,33.08,33.08,0,0,0-2.22,4.71.76.76,0,0,0,.41,1,25.14,25.14,0,0,0,5.52,1.86.76.76,0,0,0,.74-.28c.87-1.09,3.51-4.39,4.39-5.19s2.29-.37,2.9-.16a.78.78,0,0,0,.6,0,2,2,0,0,0,.89-3.11.79.79,0,0,1,.29-1.08,2,2,0,0,0,1-2.84,2.85,2.85,0,0,0-3.1-1.61.77.77,0,0,1-.82-.56.64.64,0,0,0-.55-.44.76.76,0,0,1-.6-1,2.32,2.32,0,0,0-1.15-2.78c-2.38-1.44-4.61.65-5.23,2.47s2.05,3.23,3.76,3.52c1.29.22,1.92,1.72,2.15,2.42A.77.77,0,0,1,373.85,328.25Z"/>
          <path class="cls-47" d="M372.7,334.43s1.22-3.13,2.6-2.95,2.41,1.6.63,3.08C373.71,336.4,372.7,334.43,372.7,334.43Z"/>
        </g>
      </g>
      <g>
        <path class="cls-14" d="M368.44,366.82h-.05l-24.52,0a1.1,1.1,0,1,1,0-2.2l24.52,0a1.1,1.1,0,0,1,.05,2.19Z"/>
        <path class="cls-14" d="M321.83,344.56h20.42a3.9,3.9,0,0,1,3.52,2.23l9.44,20H329.83a2.36,2.36,0,0,1-2.2-1.5l-7.32-18.52A1.63,1.63,0,0,1,321.83,344.56Z"/>
        <path class="cls-48" d="M336.21,354.82c.45,1.38.12,2.71-.73,3s-1.88-.62-2.33-2-.11-2.71.73-3S335.77,353.45,336.21,354.82Z"/>
      </g>
      <g>
        <g>
          <path class="cls-2" d="M325.14,419.41a1,1,0,0,1-.41-.09,1,1,0,0,1-.54-1.31l21.61-48.62a1.06,1.06,0,0,1,1.36-.53,1,1,0,0,1,.53,1.31l-21.6,48.63A1,1,0,0,1,325.14,419.41Z"/>
          <path class="cls-2" d="M349.48,419.41a1,1,0,0,1-1-.61l-21.6-48.63a1,1,0,0,1,.54-1.31,1,1,0,0,1,1.35.53L350.43,418a1,1,0,0,1-.95,1.4Z"/>
          <path class="cls-2" d="M392,419.41a1,1,0,0,1-.94-1.4l21.6-48.62a1.06,1.06,0,0,1,1.36-.53,1,1,0,0,1,.54,1.31L393,418.8A1,1,0,0,1,392,419.41Z"/>
          <path class="cls-2" d="M416.36,419.41a1,1,0,0,1-.94-.61l-21.61-48.63a1,1,0,0,1,.54-1.31,1,1,0,0,1,1.35.53L417.31,418a1,1,0,0,1-.95,1.4Z"/>
        </g>
        <path class="cls-2" d="M418.9,367.88a1.21,1.21,0,0,0-.21-.9.92.92,0,0,0-.75-.39H319.65a1.09,1.09,0,0,0-.94.58,1.37,1.37,0,0,0-.08,1.2L319.7,371a1.49,1.49,0,0,0,1.35,1h96.22a1.17,1.17,0,0,0,1.11-1Z"/>
      </g>
    </g>
    <g>
      <g>
        <g>
          <path class="cls-3" d="M303.08,471.43H427.36V446.55H303.08C305.74,446.55,305.74,471.43,303.08,471.43Z"/>
          <path class="cls-49" d="M427.36,465.2V453.82c0-4-2.45-7.27-5.48-7.27H303.61a4.32,4.32,0,0,1-4.32-4.31h0a1.31,1.31,0,0,1,1.31-1.31H429.87c3,0,7.67,4.66,7.67,10.41v15.9c0,5.42-4.57,9.81-7.37,9.81H301.28a2,2,0,0,1-2-2,3.64,3.64,0,0,1,3.64-3.63H422.67C425.26,471.43,427.36,468.64,427.36,465.2Z"/>
        </g>
        <path class="cls-50" d="M423.92,452.19H307.39a.54.54,0,1,1,0-1.07H423.92a.54.54,0,0,1,0,1.07Z"/>
        <path class="cls-51" d="M423.92,455.88H307.39a.53.53,0,0,1-.54-.53.54.54,0,0,1,.54-.53H423.92a.53.53,0,0,1,.53.53A.53.53,0,0,1,423.92,455.88Z"/>
        <path class="cls-52" d="M423.92,459.58H307.39a.54.54,0,1,1,0-1.07H423.92a.54.54,0,0,1,0,1.07Z"/>
        <path class="cls-53" d="M423.92,463.27H307.39a.54.54,0,1,1,0-1.07H423.92a.54.54,0,0,1,0,1.07Z"/>
        <path class="cls-54" d="M423.92,467H307.39a.54.54,0,1,1,0-1.07H423.92a.54.54,0,0,1,0,1.07Z"/>
      </g>
      <g>
        <rect class="cls-14" x="315.36" y="413.82" width="111.83" height="26.99" rx="7.31" transform="translate(742.55 854.64) rotate(180)"/>
        <rect class="cls-6" x="401.41" y="416.93" width="13.14" height="20.79" rx="2.44"/>
        <rect class="cls-6" x="394.55" y="416.93" width="4.93" height="20.79" rx="1.96"/>
      </g>
    </g>
    <g>
      <path class="cls-14" d="M90.89,356.14s-4.28,2.09-5.07,4.48c-.63,1.92-5.36,2.17-5.83,5.94a4.33,4.33,0,0,1-3.62,3.81c-4.84.74-12.29,3.25-13.48,11.64-.91,6.41,2.35,8.84,5.78,9.68a4.86,4.86,0,0,1,3.68,5.61c-.48,2.43.24,5.25,4.47,7.48,9.46,5,18.91-11.83,18.91-11.83l1.94-29.38Z"/>
      <path class="cls-55" d="M119.36,347.73s-7.5,20.46-20.29,26.86c0,0,4.25,6.94,6.48,7.36,0,0,13.66-17.48,15-31.81Z"/>
      <path class="cls-56" d="M67.93,470.81l-.38,3.1A1.28,1.28,0,0,1,66.43,475a20.4,20.4,0,0,1-4.15.07,1.11,1.11,0,0,1-.93-1.43,11.36,11.36,0,0,1,2.09-4.05h3.44A1.06,1.06,0,0,1,67.93,470.81Z"/>
      <path class="cls-57" d="M94.89,434.46l.58,3.42s-1.94,19.7-2.29,27.59a6.3,6.3,0,0,0,.91,3.51l3.39,5.49-8.6-5.07-.17-1,1.41-1.94-1.85-22.07a6.78,6.78,0,0,1,.77-3.75l1.78-3.34Z"/>
      <path class="cls-58" d="M98,475.27H95.3a1.65,1.65,0,0,1-1.31-.65c-.86-1.11-2.63-3.28-3.48-3.33-1.14-.08-1,4-1,4h-.64l-.81-5a3,3,0,0,1,1.56-3.12h0a4.24,4.24,0,0,0,1.68,2.78c1.41.85,5.75,3.91,5.75,3.91a3.77,3.77,0,0,1,1.12,0A.73.73,0,0,1,98,475.27Z"/>
      <path class="cls-59" d="M83.11,436.08S71.72,457.7,69.9,462.64a47.87,47.87,0,0,0-2.47,9.44c0,.61-.79,1.2-2.88,1.2a2,2,0,0,1-1.87-.85,1.21,1.21,0,0,1,0-1.18c.66-1.34,2.75-5.6,3.53-7.54.92-2.31,2.91-12.77,4-16.41s2.33-7.58,7.08-11.22C77.25,436.08,80.51,432.89,83.11,436.08Z"/>
      <path class="cls-60" d="M90.31,400.66c2.94-12.46-4.5-19.51-4.5-19.51,4.7-4.51,13.26-6.56,13.26-6.56s8.17,6,7.2,10.65c-.57,2.74-5.74,16.41-5.74,16.41A11.37,11.37,0,0,1,90.31,400.66Z"/>
      <path class="cls-14" d="M83.8,406.82c1.19-3.6,6.51-6.16,6.51-6.16a11.37,11.37,0,0,0,10.22,1,20.54,20.54,0,0,1,.33,7.92c-.74,3.81-5.39,28.31-5.39,28.31-7.32,1.48-18.58-1.5-18.58-1.5C81.55,428.1,82.6,410.43,83.8,406.82Z"/>
      <path class="cls-61" d="M93.73,366.36l-2.39,10.73c-.23,1,.63.79,1.59.61,1.56-.29,3.58-.9,4.25-2.12a1.11,1.11,0,0,0,.13-.4l1-7.45a1.31,1.31,0,0,0-.78-1.4l-2-.88A1.33,1.33,0,0,0,93.73,366.36Z"/>
      <path class="cls-62" d="M85.81,381.15s-16.69,11.94-2.14,24.48a3.75,3.75,0,0,0,1.65.95,18.34,18.34,0,0,1,3,2.05.57.57,0,0,0,.82-.15h0a.8.8,0,0,0,0-.75l-2.07-4.36a1.58,1.58,0,0,0-2.07-.09h0a.78.78,0,0,1-1.19-.27c-1.12-2.29-3.25-9,5.45-16.64a1,1,0,0,0,.2-1.15C88.91,384.05,87.52,381.72,85.81,381.15Z"/>
      <g>
        <path class="cls-63" d="M96.53,356.13a10.64,10.64,0,0,1,4.76,5.29c1.92,4.09.48,6-1.32,6.24a8.43,8.43,0,0,1-7.36-2.43C89.75,362.59,92.85,354.72,96.53,356.13Z"/>
        <path class="cls-14" d="M94.53,363.05s-2.14-6,3.17-6.05l1.25.87s1.94-3.32-1.25-4.9-6.94-.28-8.3,4-1.59,7.18.67,9.24,3.2-.27,3.2-.27S92,364,92.54,363s1.66.21,1.66.21Z"/>
        <path class="cls-64" d="M93.93,363.72s-1.08-3.09-2.52-1.86,1.17,2.85,2.19,3.37Z"/>
      </g>
      <g>
        <path class="cls-65" d="M120.08,351.46c.12.36-1.21.92-2-.57,0-.72-.46-3.77,0-4.35a56.75,56.75,0,0,1,6.67-7,1,1,0,0,1,.13,1.45l-2.14,2.23A10.17,10.17,0,0,1,124,345.7a3,3,0,0,1-.3,2.21,25,25,0,0,1-1.37,2.24A3,3,0,0,1,120.08,351.46Z"/>
        <path class="cls-66" d="M121.08,349.92l-.22,0a21.43,21.43,0,0,1,1-4,1,1,0,0,0,.2-.74.55.55,0,0,0-.29-.32l-1.86,1.58-.6,1.61-.21-.07.62-1.67,2-1.72.07,0a.84.84,0,0,1,.47.5,1.18,1.18,0,0,1-.23.91A21.86,21.86,0,0,0,121.08,349.92Z"/>
      </g>
    </g>
    <g>
      <path class="cls-3" d="M225.8,476.11s10.33-13,8.65-25.27-10.07-10.81-13.8-3.55-7.09,6.26-4.87-.56,5-11.27.4-18.07-5.07-9.68-2.49-15.74,5.83-14.66-4.45-17.72-20.5,6.35-18.11,18.68,3.84,13.66.54,18.23-1.93,6.44-1.46,9.41-4.57,3.67-4.46-.52,6.51-14.06,2.14-18.67-13-4.66-15.15,6,4.84,15.44,4.49,19.3-4.13-2-7.42,1.94,1.14,7,4.4,9.14,8.18,6,3.5,8.72-9.11.12-6.25,8.68Z"/>
      <path class="cls-67" d="M204.55,404.09a5.48,5.48,0,0,0-.93.64,7.37,7.37,0,0,0-.79.79,9.55,9.55,0,0,0-1.27,1.88,11.93,11.93,0,0,0-1.17,4.38c0,.19,0,.38,0,.57a5.42,5.42,0,0,0,0,.57v.57l0,.57v.28l0,.28.06.57c.05.37.09.75.17,1.12s.13.74.22,1.1l.13.55.13.53.53,2.13c.69,2.82,1.37,5.65,1.9,8.49a41.94,41.94,0,0,1,.79,8.55c0,.71-.07,1.41-.16,2.11a15.6,15.6,0,0,1-.39,2.06,13.28,13.28,0,0,1-.66,2,15.26,15.26,0,0,0-.74,2.19,35.68,35.68,0,0,0-.72,4.42c-.15,1.46-.27,2.93-.37,4.39-.2,2.92-.37,5.83-.79,8.69-.06.36-.11.72-.18,1.08s-.14.71-.21,1.06-.16.7-.25,1.06c0,.17-.09.34-.14.52s-.1.34-.16.51l-.17.52c-.06.17-.13.33-.2.5-.12.34-.29.66-.44,1a9.08,9.08,0,0,1-1.21,1.79l.12.11a9.28,9.28,0,0,0,1.38-1.73,12.71,12.71,0,0,0,1-2,24.44,24.44,0,0,0,1.21-4.27c.6-2.89.88-5.82,1.2-8.72.16-1.45.31-2.9.51-4.34a32.28,32.28,0,0,1,.81-4.21,13.65,13.65,0,0,1,.7-1.95,15.74,15.74,0,0,0,.78-2.18,17,17,0,0,0,.46-2.23,19.38,19.38,0,0,0,.21-2.26,41.77,41.77,0,0,0-.75-8.89c-.51-2.92-1.21-5.78-2-8.61-.19-.71-.39-1.41-.59-2.12l-.16-.52-.14-.52c-.1-.34-.17-.68-.25-1s-.15-.69-.22-1l-.08-.52c0-.18-.05-.35-.07-.53a16.44,16.44,0,0,1-.13-2.1,12.23,12.23,0,0,1,.18-2.1,11.16,11.16,0,0,1,.54-2c.13-.32.27-.65.43-1a8.51,8.51,0,0,1,.54-.92,6.72,6.72,0,0,1,1.42-1.59Z"/>
      <path class="cls-68" d="M226.55,448.08c-.31,2.3-.75,4.58-1.28,6.82-.27,1.13-.57,2.25-.9,3.35-.07.28-.17.55-.25.83s-.18.55-.27.82c-.17.55-.37,1.09-.56,1.63s-.41,1.08-.63,1.61-.45,1.06-.69,1.58c-.48,1-1,2.07-1.57,3.07a31.53,31.53,0,0,1-1.86,2.89,31.16,31.16,0,0,1-2.21,2.66l.11.13A20.84,20.84,0,0,0,219,471a27.79,27.79,0,0,0,2.09-2.85,33,33,0,0,0,1.69-3.09c.24-.54.49-1.07.71-1.62s.43-1.09.63-1.64.39-1.11.56-1.67c.09-.27.18-.56.26-.84s.16-.56.23-.84c.32-1.13.57-2.28.79-3.42a41.79,41.79,0,0,0,.79-7Z"/>
    </g>
  </g>
</svg>
