<svg id="Layer_1" data-name="Layer 1" xmlns="http://www.w3.org/2000/svg" xmlns:xlink="http://www.w3.org/1999/xlink" width="100" height="100" viewBox="0 0 100 100">
  <defs>
    <style>
      .cls-1 {
        fill: none;
      }

      .cls-2 {
        fill: #bbabf5;
      }

      .cls-3 {
        fill: #12263f;
      }

      .cls-4 {
        fill: #2cffe2;
      }

      .cls-5 {
        clip-path: url(#clip-path);
      }

      .cls-6 {
        fill: #6c58b8;
      }

      .cls-7 {
        fill: #ef2a66;
      }

      .cls-8 {
        fill: #9182ca;
      }

      .cls-9 {
        fill: #fd8f25;
      }
    </style>
    <clipPath id="clip-path">
      <rect class="cls-1" x="12.92" y="27.07" width="80.1" height="45.85"/>
    </clipPath>
  </defs>
  <circle class="cls-2" cx="50" cy="50" r="50"/>
  <rect id="Rectángulo_3526" data-name="Rectángulo 3526" class="cls-3" x="60.42" y="47.94" width="34.68" height="1.15" transform="translate(28.62 125.88) rotate(-89.54)"/>
  <path id="Trazado_35704" data-name="Trazado 35704" class="cls-4" d="M77.81,30.66,90.88,35l-13,3.28Z"/>
  <path id="Trazado_35705" data-name="Trazado 35705" class="cls-3" d="M78.42,31.49l10.32,3.45-10.26,2.6Zm-1.13,7.59,15.74-4L77.2,29.81Z"/>
  <g id="Grupo_17452" data-name="Grupo 17452">
    <g class="cls-5">
      <g id="Grupo_17451" data-name="Grupo 17451">
        <path id="Trazado_35706" data-name="Trazado 35706" class="cls-6" d="M13.52,72.93h0a6.57,6.57,0,0,1,6.35-6.77h60a6.57,6.57,0,0,1,6.35,6.77"/>
        <path id="Trazado_35707" data-name="Trazado 35707" class="cls-3" d="M86.8,72.93H85.6a6,6,0,0,0-5.75-6.17h-60a6,6,0,0,0-5.75,6.17h-1.2a7.17,7.17,0,0,1,7-7.37h60a7.17,7.17,0,0,1,7,7.37"/>
        <path id="Trazado_35708" data-name="Trazado 35708" class="cls-3" d="M65.61,47.43a3.8,3.8,0,1,0-4-3.57l0,.28a3.88,3.88,0,0,0,4,3.29"/>
        <path id="Trazado_35709" data-name="Trazado 35709" class="cls-3" d="M60.09,57.27l-2.85-.92a1.74,1.74,0,0,1-1.16-2.17.14.14,0,0,1,0-.06l2.52-7.23a1.86,1.86,0,0,1,2.32-1.11A4.61,4.61,0,0,1,64,51.54a.88.88,0,0,1-.05.15L62.4,56.15a1.84,1.84,0,0,1-2.31,1.12"/>
        <path id="Trazado_35710" data-name="Trazado 35710" class="cls-3" d="M64.58,65.82a1.48,1.48,0,0,1-1.48-1.45l-.11-5-3.6-2.51a1.48,1.48,0,0,1,1.7-2.43l4.84,3.38.13,6.51a1.47,1.47,0,0,1-1.45,1.51h0"/>
        <path id="Trazado_35711" data-name="Trazado 35711" class="cls-3" d="M51.54,66.77a1.48,1.48,0,0,1-1.22-2.32l3.84-5.58,1.69-4.13a1.48,1.48,0,1,1,2.77,1.07l0,0-1.81,4.43-4,5.84a1.47,1.47,0,0,1-1.22.64"/>
        <path id="Trazado_35712" data-name="Trazado 35712" class="cls-3" d="M61.38,48.61a1.25,1.25,0,0,1-.46-.09l-4-1.62-1.44-5.13a1.22,1.22,0,1,1,2.35-.66l1.12,4,2.88,1.16a1.22,1.22,0,0,1-.46,2.35"/>
        <path id="Trazado_35713" data-name="Trazado 35713" class="cls-3" d="M62.86,48.26H76.78v.52a.85.85,0,0,1-.84.84H74.6v.83a1.18,1.18,0,0,1-1.11.81H62.86"/>
        <path id="Trazado_35714" data-name="Trazado 35714" class="cls-7" d="M47.22,37.66a5.25,5.25,0,0,0,.86-1.07l1.58.21.57-2.06L48.8,34.1a5.2,5.2,0,0,0-.15-1.42l1.22-.94-1-1.86-1.41.53a5.17,5.17,0,0,0-1.16-.92L46.44,28l-2.06-.58-.6,1.35A5.27,5.27,0,0,0,42.3,29l-.91-1.18-1.86,1,.53,1.4a5.38,5.38,0,0,0-.9,1.16l-1.5-.19-.57,2,1.41.63a4.86,4.86,0,0,0,.19,1.42l-1.25,1,1.05,1.86L40,37.53a5.61,5.61,0,0,0,1.09.85L40.87,40l2.06.58.65-1.47a5.09,5.09,0,0,0,1.35-.16l1,1.29,1.86-1Zm-5.28-1.79a2.62,2.62,0,1,1,3.7-.2,2.62,2.62,0,0,1-3.7.2h0"/>
        <path id="Trazado_35715" data-name="Trazado 35715" class="cls-3" d="M42.93,40.9h-.1l-2-.58a.34.34,0,0,1-.25-.38l.17-1.37a5.91,5.91,0,0,1-.8-.62l-1.28.48a.35.35,0,0,1-.43-.15l-1-1.87a.35.35,0,0,1,.09-.44l1.06-.82a5.21,5.21,0,0,1-.14-1l-1.21-.54a.34.34,0,0,1-.19-.41l.57-2.05a.36.36,0,0,1,.38-.26L39,31a4.75,4.75,0,0,1,.68-.87l-.46-1.2a.34.34,0,0,1,.15-.42l1.86-1a.34.34,0,0,1,.45.09l.77,1a5.35,5.35,0,0,1,1.12-.13l.51-1.15a.36.36,0,0,1,.42-.2l2.05.59a.33.33,0,0,1,.25.38l-.16,1.26a5.41,5.41,0,0,1,.88.7l1.19-.46a.35.35,0,0,1,.43.16l1.05,1.86a.36.36,0,0,1-.09.45l-1,.8a4.72,4.72,0,0,1,.12,1.06l1.22.54a.34.34,0,0,1,.19.41L50,36.89a.36.36,0,0,1-.38.25L48.25,37a6.82,6.82,0,0,1-.63.79L48.11,39a.34.34,0,0,1-.15.43l-1.86,1a.37.37,0,0,1-.45-.09l-.85-1.11a6.66,6.66,0,0,1-1,.11l-.56,1.27a.35.35,0,0,1-.32.21m-1.68-1.18,1.48.42.54-1.21a.36.36,0,0,1,.32-.2h0a5.3,5.3,0,0,0,1.26-.15.34.34,0,0,1,.36.12l.81,1L47.36,39l-.47-1.23a.32.32,0,0,1,.09-.37,4.82,4.82,0,0,0,.8-1,.35.35,0,0,1,.34-.17l1.28.17.42-1.47-1.16-.52a.34.34,0,0,1-.2-.33,4.87,4.87,0,0,0-.15-1.32.37.37,0,0,1,.13-.37l1-.75-.75-1.34-1.14.43a.34.34,0,0,1-.38-.09,4.45,4.45,0,0,0-1.07-.86.35.35,0,0,1-.17-.34l.15-1.19-1.48-.42-.48,1.08a.36.36,0,0,1-.33.21,4.68,4.68,0,0,0-1.39.16.34.34,0,0,1-.36-.12l-.73-1L40,29l.44,1.12a.34.34,0,0,1-.09.37,5,5,0,0,0-.84,1.09.34.34,0,0,1-.34.17l-1.21-.16L37.5,33l1.14.51a.34.34,0,0,1,.2.32A4.89,4.89,0,0,0,39,35.19a.35.35,0,0,1-.12.37l-1,.77.75,1.34,1.21-.46a.34.34,0,0,1,.37.08,4.89,4.89,0,0,0,1,.79.35.35,0,0,1,.17.35Zm2.44-2.84a2.88,2.88,0,1,1,.19,0h-.19m-1.52-1.27a2.27,2.27,0,0,0,3.21-.18A2.19,2.19,0,0,0,46,33.79a2.27,2.27,0,0,0-2.41-2.14A2.23,2.23,0,0,0,42,32.4a2.28,2.28,0,0,0,.19,3.21h0"/>
        <path id="Trazado_35716" data-name="Trazado 35716" class="cls-8" d="M56.87,34.74a3.7,3.7,0,0,0-1-.21l-.42-1.16-1.62.35.07,1.2a4.19,4.19,0,0,0-.93.62L51.84,35l-.91,1.39.88.77a3.92,3.92,0,0,0-.23,1.12l-1.09.41.34,1.61L52,40.27a3.91,3.91,0,0,0,.66,1l-.49,1,1.39.91.77-.87a4.25,4.25,0,0,0,1.13.2l.4,1.1,1.62-.34-.07-1.2a4.1,4.1,0,0,0,.91-.63l1.1.5.91-1.38-.93-.82a4.15,4.15,0,0,0,.2-1.05l1.17-.43-.34-1.62-1.26.08a4,4,0,0,0-.59-.87l.53-1.14-1.39-.9ZM57.54,39a2,2,0,1,1-1.48-2.46h0A2,2,0,0,1,57.54,39"/>
        <path id="Trazado_35717" data-name="Trazado 35717" class="cls-3" d="M55.84,43.9a.29.29,0,0,1-.27-.19l-.34-.92a3.91,3.91,0,0,1-.83-.15l-.65.73a.28.28,0,0,1-.37.05L52,42.52a.3.3,0,0,1-.1-.37l.4-.87a4.91,4.91,0,0,1-.48-.71l-1,.06a.28.28,0,0,1-.3-.23l-.34-1.61a.3.3,0,0,1,.18-.34l.92-.34a4.75,4.75,0,0,1,.16-.82l-.73-.64a.29.29,0,0,1-.06-.38l.91-1.39a.3.3,0,0,1,.37-.1l.92.42a3.69,3.69,0,0,1,.67-.44l-.07-1a.3.3,0,0,1,.24-.31l1.62-.34a.29.29,0,0,1,.33.19l.36,1a4.53,4.53,0,0,1,.75.15l.71-.79a.28.28,0,0,1,.37,0l1.39.9a.27.27,0,0,1,.1.36l-.45,1a3.67,3.67,0,0,1,.42.61l1.07-.07a.29.29,0,0,1,.31.23L61,38.2a.28.28,0,0,1-.18.33l-1,.37a3.93,3.93,0,0,1-.13.75l.79.69a.3.3,0,0,1,.05.38l-.91,1.39a.3.3,0,0,1-.37.1l-.93-.43a3.65,3.65,0,0,1-.65.46l.06,1a.29.29,0,0,1-.24.3l-1.62.35h-.06M54.31,42h.09a3.42,3.42,0,0,0,1.05.19.29.29,0,0,1,.26.19l.32.86L57.16,43l-.06-.95a.3.3,0,0,1,.16-.27,3.84,3.84,0,0,0,.84-.59.29.29,0,0,1,.32,0l.88.4.63-1L59.19,40a.3.3,0,0,1-.08-.31,4,4,0,0,0,.18-1,.28.28,0,0,1,.19-.26l.93-.35L60.18,37l-1,.06a.27.27,0,0,1-.27-.16,4.05,4.05,0,0,0-.55-.8.29.29,0,0,1-.05-.32l.42-.91-1-.63-.66.74a.28.28,0,0,1-.31.08,4,4,0,0,0-1-.19.28.28,0,0,1-.26-.19l-.34-.92L54.08,34l.06,1a.3.3,0,0,1-.17.28,3.51,3.51,0,0,0-.85.57.31.31,0,0,1-.32,0l-.86-.39-.63,1L52,37a.3.3,0,0,1,.08.32,3.63,3.63,0,0,0-.21,1,.3.3,0,0,1-.19.26l-.85.31L51.06,40,52,40a.3.3,0,0,1,.28.17,3.55,3.55,0,0,0,.61.88.29.29,0,0,1,0,.32l-.38.82,1,.63.6-.68a.28.28,0,0,1,.22-.1m1.25-1.2a2.33,2.33,0,1,1,2.33-2.32,2.22,2.22,0,0,1-.07.57,2.31,2.31,0,0,1-2.26,1.75m0-4.06a1.74,1.74,0,0,0-.45,3.43h0a1.75,1.75,0,0,0,2.12-1.27A1.72,1.72,0,0,0,56,36.82h0a1.93,1.93,0,0,0-.42-.05"/>
        <path id="Trazado_35718" data-name="Trazado 35718" class="cls-9" d="M53.37,50.13a6.32,6.32,0,0,0-.1-1.79L55,47.15l-1.24-2.49-2,.63a6.31,6.31,0,0,0-1.39-1.24l.36-2-2.65-.89-.9,1.75a6.88,6.88,0,0,0-1.92.12l-1.12-1.61-2.51,1.23.61,1.85A6.41,6.41,0,0,0,41,46l-1.92-.34-.89,2.63,1.75.89a6.53,6.53,0,0,0,.14,1.92L38.44,52.2l1.24,2.49,1.93-.62A6.6,6.6,0,0,0,43,55.28l-.37,2,2.65.89.94-1.85a6.38,6.38,0,0,0,1.8-.13l1.2,1.72,2.5-1.23-.65-2a6.73,6.73,0,0,0,1.17-1.33l2.09.38.89-2.64ZM46.69,53a3.42,3.42,0,1,1,3.41-3.43A3.41,3.41,0,0,1,46.69,53h0"/>
        <path id="Trazado_35719" data-name="Trazado 35719" class="cls-3" d="M45.3,58.6a.31.31,0,0,1-.13,0l-2.65-.89a.41.41,0,0,1-.28-.47l.32-1.73a7.29,7.29,0,0,1-1.08-.92l-1.67.53a.41.41,0,0,1-.51-.21l-1.24-2.49a.44.44,0,0,1,.14-.54l1.4-1a7.33,7.33,0,0,1-.11-1.48L38,48.65a.42.42,0,0,1-.21-.51l.89-2.64a.43.43,0,0,1,.48-.28l1.64.3a7.71,7.71,0,0,1,1-1.14l-.52-1.58a.42.42,0,0,1,.22-.5L44,41.06a.42.42,0,0,1,.53.14l1,1.38A7.5,7.5,0,0,1,47,42.49L47.75,41a.42.42,0,0,1,.51-.2l2.64.89a.41.41,0,0,1,.28.47l-.31,1.71a7.34,7.34,0,0,1,1.06.95l1.69-.54a.4.4,0,0,1,.5.21L55.36,47a.42.42,0,0,1-.14.54l-1.49,1a6.71,6.71,0,0,1,.08,1.35l1.63.82a.43.43,0,0,1,.21.51l-.9,2.64a.42.42,0,0,1-.47.28l-1.82-.33a6.93,6.93,0,0,1-.88,1l.57,1.75a.42.42,0,0,1-.21.51l-2.51,1.23a.43.43,0,0,1-.53-.14l-1-1.5a6.82,6.82,0,0,1-1.35.1l-.83,1.62a.42.42,0,0,1-.37.23M43.14,57l2,.66.78-1.53a.42.42,0,0,1,.4-.23A6,6,0,0,0,48,55.78a.41.41,0,0,1,.43.17l1,1.43,1.85-.92L50.7,54.8a.44.44,0,0,1,.12-.45,6,6,0,0,0,1.1-1.25.41.41,0,0,1,.42-.18l1.73.32.67-2-1.55-.79a.4.4,0,0,1-.23-.41,6.33,6.33,0,0,0-.1-1.68A.41.41,0,0,1,53,48l1.42-1-.92-1.84-1.6.52a.43.43,0,0,1-.45-.13,6.56,6.56,0,0,0-1.3-1.17A.4.4,0,0,1,50,44l.29-1.62-2-.66-.73,1.43a.44.44,0,0,1-.41.23,6.09,6.09,0,0,0-1.81.11.43.43,0,0,1-.43-.18L44,42l-1.85.91.48,1.49a.42.42,0,0,1-.12.45,6.35,6.35,0,0,0-1.21,1.38.43.43,0,0,1-.43.19l-1.56-.29-.66,2,1.42.73a.41.41,0,0,1,.23.4,6.06,6.06,0,0,0,.14,1.8.41.41,0,0,1-.18.43L39,52.34l.91,1.84,1.58-.51a.42.42,0,0,1,.44.12,6.23,6.23,0,0,0,1.33,1.13.43.43,0,0,1,.19.43Zm3.54-3.58a3.84,3.84,0,1,1,0-7.67h0a3.84,3.84,0,1,1,0,7.67v0Zm0-6.83h0a3,3,0,0,0-2.12.89,2.92,2.92,0,0,0-.87,2.12,3,3,0,0,0,3,3h0a3,3,0,1,0,0-6"/>
        <path id="Trazado_35720" data-name="Trazado 35720" class="cls-3" d="M34.73,44.94a3.72,3.72,0,1,0-3.65-3.79,2.62,2.62,0,0,0,0,.28,3.76,3.76,0,0,0,3.64,3.51"/>
        <path id="Trazado_35721" data-name="Trazado 35721" class="cls-3" d="M34.06,56.21l-2.92-.35A1.7,1.7,0,0,1,29.62,54v-.06l1.07-7.42a1.81,1.81,0,0,1,2-1.51,4.52,4.52,0,0,1,4,5s0,.1,0,.15l-.65,4.59a1.82,1.82,0,0,1-2,1.51"/>
        <path id="Trazado_35722" data-name="Trazado 35722" class="cls-3" d="M38.57,66.25A1.45,1.45,0,0,1,37.14,65l-.67-6L33,56.12a1.46,1.46,0,0,1,1.85-2.25h0l4.34,3.58.8,7.19a1.46,1.46,0,0,1-1.29,1.6h-.16"/>
        <path id="Trazado_35723" data-name="Trazado 35723" class="cls-3" d="M26.69,66.64a1.47,1.47,0,0,1-1.45-1.46,1.43,1.43,0,0,1,.15-.64l3.22-6.45L29.74,54a1.45,1.45,0,0,1,2.79.78l-1.2,4.31L28,65.83a1.43,1.43,0,0,1-1.29.8"/>
        <path id="Trazado_35724" data-name="Trazado 35724" class="cls-3" d="M38.13,52.26,33.31,49a1.2,1.2,0,0,1,1.34-2l4.09,2.75,3.14-.34a1.19,1.19,0,0,1,.3,2.37h0Z"/>
      </g>
    </g>
  </g>
</svg>
