<svg id="Layer_1" data-name="Layer 1" xmlns="http://www.w3.org/2000/svg" width="100" height="100" viewBox="0 0 100 100">
  <defs>
    <style>
      .cls-1 {
        fill: none;
      }

      .cls-2, .cls-3 {
        fill: #472ea6;
      }

      .cls-2, .cls-4, .cls-5, .cls-8, .cls-9 {
        isolation: isolate;
      }

      .cls-2 {
        opacity: 0.3;
      }

      .cls-4, .cls-5, .cls-9 {
        fill: #fff;
      }

      .cls-4 {
        opacity: 0.7;
      }

      .cls-5 {
        opacity: 0.6;
      }

      .cls-6 {
        fill: #455a64;
      }

      .cls-7 {
        fill: #12263f;
      }

      .cls-8 {
        fill: #6c58b8;
        opacity: 0.15;
      }

      .cls-9 {
        opacity: 0.5;
      }

      .cls-10 {
        fill: #fafafa;
      }

      .cls-11 {
        fill: #6ed1c3;
      }

      .cls-12 {
        fill: #80ffee;
      }

      .cls-13 {
        fill: #abfff3;
      }
    </style>
  </defs>
  <rect class="cls-1" width="100" height="100"/>
  <g id="freepik--Microscope--inject-21">
    <path id="freepik--shadow--inject-21" class="cls-2" d="M45.31,58.46l-23,13.27c-.34.19-.34.49,0,.67l36,20.79a1.29,1.29,0,0,0,1.18,0l23-13.27c.33-.19.33-.5,0-.66l-36-20.79A1.3,1.3,0,0,0,45.31,58.46Z"/>
    <g id="freepik--microscope--inject-21-2" data-name="freepik--microscope--inject-21">
      <path class="cls-3" d="M59,32.74a2.17,2.17,0,0,1,2.3.2,5.44,5.44,0,0,1,1.34,1.14l.29.36h0a8,8,0,0,1,1.21,2.24,5.62,5.62,0,0,1,.3,1.77,2.26,2.26,0,0,1-.89,2l-1.06.62a1.64,1.64,0,0,0,.43-.4,2.68,2.68,0,0,0,.46-1.64,7.08,7.08,0,0,0-3.19-5.54,2.66,2.66,0,0,0-1.67-.41,1.51,1.51,0,0,0-.61.2h0Z"/>
      <path class="cls-4" d="M59,32.74a2.17,2.17,0,0,1,2.3.2,5.44,5.44,0,0,1,1.34,1.14l.29.36h0a8,8,0,0,1,1.21,2.24,5.62,5.62,0,0,1,.3,1.77,2.26,2.26,0,0,1-.89,2l-1.06.62a1.64,1.64,0,0,0,.43-.4,2.68,2.68,0,0,0,.46-1.64,7.08,7.08,0,0,0-3.19-5.54,2.66,2.66,0,0,0-1.67-.41,1.51,1.51,0,0,0-.61.2h0Z"/>
      <path class="cls-3" d="M58,33.34a1.69,1.69,0,0,1,.62-.21,2.7,2.7,0,0,1,1.66.41,7.1,7.1,0,0,1,3.2,5.54A2.67,2.67,0,0,1,63,40.72a1.5,1.5,0,0,1-.43.4h0a1.65,1.65,0,0,1-.87.21,3,3,0,0,1-1.38-.44,7.06,7.06,0,0,1-3.19-5.53A2.26,2.26,0,0,1,58,33.34Z"/>
      <path class="cls-5" d="M58,33.34a1.69,1.69,0,0,1,.62-.21,2.7,2.7,0,0,1,1.66.41,7.1,7.1,0,0,1,3.2,5.54A2.67,2.67,0,0,1,63,40.72a1.5,1.5,0,0,1-.43.4h0a1.65,1.65,0,0,1-.87.21,3,3,0,0,1-1.38-.44,7.06,7.06,0,0,1-3.19-5.53A2.26,2.26,0,0,1,58,33.34Z"/>
      <path class="cls-6" d="M60.24,35.75c-.7-.41-1.28-.08-1.28.74a2.84,2.84,0,0,0,1.28,2.23c.72.41,1.29.08,1.29-.74A2.84,2.84,0,0,0,60.24,35.75Z"/>
      <path class="cls-7" d="M41.4,47.27V37.93h-5v9.34h0a1.26,1.26,0,0,0,.74,1,3.9,3.9,0,0,0,3.52,0A1.22,1.22,0,0,0,41.4,47.27Z"/>
      <path class="cls-3" d="M36.42,45.79a1.26,1.26,0,0,0,.74,1,3.9,3.9,0,0,0,3.52,0,1.22,1.22,0,0,0,.72-1v1.49a1.22,1.22,0,0,1-.72,1,3.9,3.9,0,0,1-3.52,0,1.26,1.26,0,0,1-.74-1h0V45.78Z"/>
      <path class="cls-5" d="M36.42,45.79a1.26,1.26,0,0,0,.74,1,3.9,3.9,0,0,0,3.52,0,1.22,1.22,0,0,0,.72-1v1.49a1.22,1.22,0,0,1-.72,1,3.9,3.9,0,0,1-3.52,0,1.26,1.26,0,0,1-.74-1h0V45.78Z"/>
      <path class="cls-7" d="M47.36,47.27V37.93h5v9.34h0a1.25,1.25,0,0,1-.73,1,3.9,3.9,0,0,1-3.52,0A1.23,1.23,0,0,1,47.36,47.27Z"/>
      <path class="cls-3" d="M52.35,45.79a1.23,1.23,0,0,1-.73,1,3.9,3.9,0,0,1-3.52,0,1.23,1.23,0,0,1-.73-1v1.49a1.23,1.23,0,0,0,.73,1,3.9,3.9,0,0,0,3.52,0,1.23,1.23,0,0,0,.73-1h0V45.78Z"/>
      <path class="cls-8" d="M52.35,45.79a1.23,1.23,0,0,1-.73,1,3.9,3.9,0,0,1-3.52,0,1.23,1.23,0,0,1-.73-1v1.49a1.23,1.23,0,0,0,.73,1,3.9,3.9,0,0,0,3.52,0,1.23,1.23,0,0,0,.73-1h0V45.78Z"/>
      <path class="cls-7" d="M46.88,50.42V41.09h-5v9.33h0a1.24,1.24,0,0,0,.73,1,3.9,3.9,0,0,0,3.52,0A1.23,1.23,0,0,0,46.88,50.42Z"/>
      <path class="cls-3" d="M41.9,48.94a1.24,1.24,0,0,0,.73,1,3.9,3.9,0,0,0,3.52,0,1.26,1.26,0,0,0,.73-1v1.5a1.23,1.23,0,0,1-.73,1,3.84,3.84,0,0,1-3.52,0,1.23,1.23,0,0,1-.73-1h0v-1.5Z"/>
      <path class="cls-7" d="M36,36.28c-.1,1.26.66,2.57,2.37,3.54l5.76,3.33a12.75,12.75,0,0,0,11.54,0A4.06,4.06,0,0,0,58,39.85V31.18a3,3,0,0,0-.46-1.56,3.65,3.65,0,0,0-3.34-1.69H54a20.31,20.31,0,0,1-6.39-.75,12.83,12.83,0,0,0-9.21.91c-1.6.92-2.4,2.13-2.4,3.33v4.86Z"/>
      <path class="cls-6" d="M36,31.45A3,3,0,0,0,36.4,33a3.66,3.66,0,0,0,3.34,1.7H40a20,20,0,0,1,6.4.72,12.9,12.9,0,0,0,9.21-.92c1.6-.92,2.4-2.12,2.4-3.33a3.08,3.08,0,0,0-.46-1.56,3.67,3.67,0,0,0-3.34-1.69h-.28a19.93,19.93,0,0,1-6.38-.74,12.83,12.83,0,0,0-9.21.91C36.75,29,36,30.24,36,31.45Z"/>
      <polygon class="cls-3" points="42.66 39.97 44.65 41.11 44.65 39.97 42.66 38.82 42.66 39.97"/>
      <path class="cls-3" d="M55.63,42.19a12.91,12.91,0,0,1-11.54,0l-5.76-3.34c-1.59-.93-2.39-2.13-2.38-3.33v1c0,1.2.79,2.41,2.38,3.34l5.76,3.33a12.72,12.72,0,0,0,11.54,0A4,4,0,0,0,58,39.88v-1C58,40.08,57.22,41.27,55.63,42.19Z"/>
      <path class="cls-7" d="M41.68,31.12V25.45L58,25.5v5.68h0c0,1.2-.8,2.41-2.4,3.33a12.75,12.75,0,0,1-11.54,0C42.5,33.53,41.68,32.32,41.68,31.12Z"/>
      <path class="cls-3" d="M58,25.5l-16.35-.05v1.26c0,1.21.8,2.42,2.39,3.34a12.75,12.75,0,0,0,11.54,0C57.2,29.17,58,28,58,26.75S58,25.5,58,25.5Z"/>
      <path class="cls-3" d="M55.65,22.17a12.72,12.72,0,0,0-11.54,0c-3.19,1.82-3.2,4.81,0,6.67a12.78,12.78,0,0,0,11.54,0C58.84,27,58.83,24,55.65,22.17Z"/>
      <path class="cls-9" d="M55.65,22.17a12.72,12.72,0,0,0-11.54,0c-3.19,1.82-3.2,4.81,0,6.67a12.78,12.78,0,0,0,11.54,0C58.84,27,58.83,24,55.65,22.17Z"/>
      <path class="cls-7" d="M46.35,25V14.86h7.06V25h0a1.79,1.79,0,0,1-1,1.44,5.49,5.49,0,0,1-5,0A1.76,1.76,0,0,1,46.35,25Z"/>
      <path class="cls-3" d="M53.39,14.88h-7v1.49a1.74,1.74,0,0,0,1,1.44,5.47,5.47,0,0,0,5,0,1.74,1.74,0,0,0,1-1.43Z"/>
      <path class="cls-3" d="M52.35,13.44a5.53,5.53,0,0,0-5,0c-1.38.79-1.39,2.08,0,2.88a5.53,5.53,0,0,0,5,0C53.73,15.53,53.74,14.24,52.35,13.44Z"/>
      <path class="cls-8" d="M52.35,13.44a5.53,5.53,0,0,0-5,0c-1.38.79-1.39,2.08,0,2.88a5.53,5.53,0,0,0,5,0C53.73,15.53,53.74,14.24,52.35,13.44Z"/>
      <path class="cls-7" d="M51.69,13.84a3.92,3.92,0,0,0-3.59,0,1.09,1.09,0,0,0,0,2.07,4,4,0,0,0,3.59,0A1.1,1.1,0,0,0,51.69,13.84Z"/>
      <path class="cls-6" d="M48.08,15.3a1.73,1.73,0,0,0-.41.3,2.38,2.38,0,0,0,.4.31,4,4,0,0,0,3.59,0,2,2,0,0,0,.4-.31,1.85,1.85,0,0,0-.39-.3A4,4,0,0,0,48.08,15.3Z"/>
      <path class="cls-10" d="M49.07,15.44a.34.34,0,0,1-.29.32c-.19.05-.37,0-.39-.17s.1-.28.28-.33A.33.33,0,0,1,49.07,15.44Z"/>
      <path class="cls-10" d="M49.51,15.24a.13.13,0,0,1-.1.17.14.14,0,0,1-.16-.11.13.13,0,0,1,.1-.16.14.14,0,0,1,.16.09Z"/>
      <path class="cls-7" d="M26.65,69.46V71.9L59,90.57V88.13c0-1.33-1.33-3.22-3-4.17L29.68,68.75a2.78,2.78,0,0,0-2.43-.4A1.19,1.19,0,0,0,26.65,69.46Z"/>
      <path class="cls-6" d="M44.9,58.16h0a2.58,2.58,0,0,1,2.46.38L73.75,73.75c1.65,1,3,2.83,3,4.17v2.44L59,90.58V88.14c0-1.33-1.33-3.22-3-4.17L29.68,68.75a2.78,2.78,0,0,0-2.43-.4Z"/>
      <path class="cls-7" d="M38.18,63.13a14.28,14.28,0,0,1,13,0c2.07,1.19,2.94,2.82,2.6,4.38h0l11.15,6.43-8,4.58L45.77,72.09h0a13.74,13.74,0,0,1-7.6-1.51C34.61,68.52,34.61,65.19,38.18,63.13Z"/>
      <path class="cls-3" d="M53.81,61V58.42c0-1.34-.9-2.71-2.67-3.74a14.26,14.26,0,0,0-12.94,0c-1.79,1-2.67,2.38-2.67,3.73h0V61h0c0,1.37.86,2.75,2.67,3.79a14.32,14.32,0,0,0,12.94,0c1.81-1,2.67-2.42,2.67-3.79Z"/>
      <path class="cls-8" d="M53.81,61V58.42c0-1.34-.9-2.71-2.67-3.74a14.26,14.26,0,0,0-12.94,0c-1.79,1-2.67,2.38-2.67,3.73h0V61h0c0,1.37.86,2.75,2.67,3.79a14.32,14.32,0,0,0,12.94,0c1.81-1,2.67-2.42,2.67-3.79Z"/>
      <path class="cls-3" d="M38.18,54.68a14.28,14.28,0,0,1,13,0c3.6,2.06,3.57,5.4,0,7.47a14.31,14.31,0,0,1-13,0C34.58,60.09,34.61,56.74,38.18,54.68Z"/>
      <polygon class="cls-3" points="56.92 72.92 56.92 70.09 64.89 65.49 64.89 68.31 56.92 72.92"/>
      <polygon class="cls-8" points="56.92 72.92 56.92 70.09 64.89 65.49 64.89 68.31 56.92 72.92"/>
      <polygon class="cls-3" points="56.92 72.92 45.49 66.31 45.77 63.66 56.92 70.09 56.92 72.92"/>
      <polygon class="cls-8" points="56.92 72.92 45.49 66.31 45.77 63.66 56.92 70.09 56.92 72.92"/>
      <polygon class="cls-3" points="64.89 65.49 53.74 59.06 45.77 63.66 56.92 70.09 64.89 65.49"/>
      <path class="cls-11" d="M51.51,58.27V56.33a3.43,3.43,0,0,0-2-2.8,10.7,10.7,0,0,0-9.7,0,3.42,3.42,0,0,0-2,2.8h0v1.94h0a3.46,3.46,0,0,0,2,2.84,10.7,10.7,0,0,0,9.7,0A3.44,3.44,0,0,0,51.51,58.27Z"/>
      <path class="cls-10" d="M39.8,53.53a10.72,10.72,0,0,1,9.71,0c2.66,1.55,2.66,4,0,5.6a10.66,10.66,0,0,1-9.71,0C37.12,57.58,37.12,55.08,39.8,53.53Z"/>
      <path class="cls-12" d="M40.08,53.69a10.1,10.1,0,0,1,9.15,0c2.53,1.46,2.53,3.83,0,5.28a10.1,10.1,0,0,1-9.15,0C37.55,57.52,37.55,55.18,40.08,53.69Z"/>
      <path class="cls-13" d="M49.23,55.48a10.1,10.1,0,0,0-9.15,0,3.91,3.91,0,0,0-1.73,1.75A3.79,3.79,0,0,0,40.06,59a10.1,10.1,0,0,0,9.15,0,3.84,3.84,0,0,0,1.71-1.74A3.87,3.87,0,0,0,49.23,55.48Z"/>
      <path class="cls-3" d="M43.56,56.52a2.52,2.52,0,0,1,2.33,0,.71.71,0,0,1,0,1.33,2.58,2.58,0,0,1-2.33,0,.71.71,0,0,1,0-1.33Z"/>
      <path class="cls-3" d="M46.51,57.89a.83.83,0,0,1,.72,0,.22.22,0,0,1,.13.28.21.21,0,0,1-.13.13.76.76,0,0,1-.72,0,.22.22,0,0,1-.14-.28A.23.23,0,0,1,46.51,57.89Z"/>
      <path class="cls-5" d="M45.85,56.88c0,.18-.25.32-.56.32s-.56-.14-.56-.32.25-.32.56-.32S45.85,56.7,45.85,56.88Z"/>
      <path class="cls-5" d="M47.17,58s-.08.1-.18.1-.18-.05-.18-.1.08-.1.18-.1S47.17,57.94,47.17,58Z"/>
      <path class="cls-3" d="M53.73,73.28v4.07l7.05,4.07V77.35a7.79,7.79,0,0,0-3.52-6.11A2.47,2.47,0,0,0,54.75,71,2.5,2.5,0,0,0,53.73,73.28Z"/>
      <path class="cls-5" d="M53.73,73.28v4.07l7.05,4.07V77.35a7.79,7.79,0,0,0-3.52-6.11A2.47,2.47,0,0,0,54.75,71,2.5,2.5,0,0,0,53.73,73.28Z"/>
      <path class="cls-3" d="M63.18,66.14l.06,0a2.48,2.48,0,0,1,2.48.25,7.77,7.77,0,0,1,3.52,6.1v4.06L60.78,81.4V77.34a7.78,7.78,0,0,0-3.52-6.11,2.54,2.54,0,0,0-2.41-.29Z"/>
      <path class="cls-4" d="M63.18,66.14l.06,0a2.48,2.48,0,0,1,2.48.25,7.77,7.77,0,0,1,3.52,6.1v4.06L60.78,81.4V77.34a7.78,7.78,0,0,0-3.52-6.11,2.54,2.54,0,0,0-2.41-.29Z"/>
      <path class="cls-6" d="M57.26,73.9c-.78-.45-1.41-.08-1.41.82a3.15,3.15,0,0,0,1.41,2.44c.78.44,1.41.08,1.41-.82A3.12,3.12,0,0,0,57.26,73.9Z"/>
      <path class="cls-7" d="M52.51,43.73a22.39,22.39,0,0,1,4.72,4.85,20,20,0,0,1,3.26,10.51c0,7.21-4.1,10.93-4.23,11a2.53,2.53,0,0,1,2.41.3,7.77,7.77,0,0,1,3.52,6.1h0a22.9,22.9,0,0,0,3.39-8.34,35.91,35.91,0,0,0,.83-7.93A26.45,26.45,0,0,0,64,49a24,24,0,0,0-3.15-5,21.32,21.32,0,0,0-5.26-5.34,3.28,3.28,0,0,0-1.83-.6C53,39.42,51.31,42.75,52.51,43.73Z"/>
      <path class="cls-7" d="M52.71,38.31a2.18,2.18,0,0,1,1.08-.26,3.3,3.3,0,0,1,.42-.61Z"/>
      <path class="cls-7" d="M58.22,35.12a2,2,0,0,1,.84-.28,2.64,2.64,0,0,1,1,0,4.14,4.14,0,0,1,1.23.5c3,1.75,6.4,6.18,7.93,9.34A28,28,0,0,1,72.06,57c0,10.78-4.23,16.28-4.23,16.28L62.2,76.52a22.79,22.79,0,0,0,3.38-8.34,36.4,36.4,0,0,0,.84-7.93A26.45,26.45,0,0,0,64,49a23.84,23.84,0,0,0-3.16-5,21.28,21.28,0,0,0-5.26-5.33,2.76,2.76,0,0,0-3-.26Z"/>
      <path class="cls-3" d="M51.69,37a2.22,2.22,0,0,1,2.3.2,5.45,5.45,0,0,1,1.37,1.16c.1.1.2.22.3.34h0a7.69,7.69,0,0,1,1.2,2.24,5.63,5.63,0,0,1,.31,1.77,2.28,2.28,0,0,1-.89,2l-1.07.61a1.45,1.45,0,0,0,.43-.39,2.67,2.67,0,0,0,.46-1.65,7.06,7.06,0,0,0-3.19-5.53,2.7,2.7,0,0,0-1.66-.41,1.39,1.39,0,0,0-.62.21h0Z"/>
      <path class="cls-4" d="M51.69,37a2.22,2.22,0,0,1,2.3.2,5.45,5.45,0,0,1,1.37,1.16c.1.1.2.22.3.34h0a7.69,7.69,0,0,1,1.2,2.24,5.63,5.63,0,0,1,.31,1.77,2.28,2.28,0,0,1-.89,2l-1.07.61a1.45,1.45,0,0,0,.43-.39,2.67,2.67,0,0,0,.46-1.65,7.06,7.06,0,0,0-3.19-5.53,2.7,2.7,0,0,0-1.66-.41,1.39,1.39,0,0,0-.62.21h0Z"/>
      <path class="cls-3" d="M50.66,37.56a1.39,1.39,0,0,1,.61-.21,2.71,2.71,0,0,1,1.67.41,7.09,7.09,0,0,1,3.19,5.53,2.67,2.67,0,0,1-.46,1.65,1.59,1.59,0,0,1-.43.39l-.05,0a1.61,1.61,0,0,1-.88.2,2.88,2.88,0,0,1-1.37-.44,7,7,0,0,1-3.19-5.52A2.22,2.22,0,0,1,50.66,37.56Z"/>
      <path class="cls-5" d="M50.66,37.56a1.39,1.39,0,0,1,.61-.21,2.71,2.71,0,0,1,1.67.41,7.09,7.09,0,0,1,3.19,5.53,2.67,2.67,0,0,1-.46,1.65,1.59,1.59,0,0,1-.43.39l-.05,0a1.61,1.61,0,0,1-.88.2,2.88,2.88,0,0,1-1.37-.44,7,7,0,0,1-3.19-5.52A2.22,2.22,0,0,1,50.66,37.56Z"/>
      <path class="cls-6" d="M52.94,40c-.71-.41-1.29-.08-1.29.74a2.84,2.84,0,0,0,1.29,2.23c.71.41,1.28.07,1.28-.75A2.82,2.82,0,0,0,52.94,40Z"/>
    </g>
  </g>
</svg>
