<svg id="Layer_1" data-name="Layer 1" xmlns="http://www.w3.org/2000/svg" width="100" height="100" viewBox="0 0 100 100">
  <defs>
    <style>
      .cls-1 {
        fill: none;
      }

      .cls-2 {
        fill: #472ea6;
      }

      .cls-3, .cls-4 {
        fill: #6c58b8;
      }

      .cls-3, .cls-4, .cls-5 {
        isolation: isolate;
      }

      .cls-3 {
        opacity: 0.3;
      }

      .cls-4 {
        opacity: 0.1;
      }

      .cls-5 {
        fill: #fff;
        opacity: 0.5;
      }

      .cls-6 {
        fill: #fafafa;
      }
    </style>
  </defs>
  <rect class="cls-1" width="100" height="100"/>
  <polygon class="cls-2" points="83.9 58.44 36.12 80 36.12 93.11 83.9 71.55 83.9 58.44"/>
  <polygon class="cls-3" points="83.9 58.44 36.12 80 36.12 93.11 83.9 71.55 83.9 58.44"/>
  <path class="cls-2" d="M83.9,58.44C71,49.69,53.89,45.07,34,45l1.28,21.24L36.12,80Z"/>
  <path class="cls-4" d="M83.9,58.44C71,49.69,53.89,45.07,34,45l1.28,21.24L36.12,80Z"/>
  <g>
    <path class="cls-2" d="M67.72,26.43a4.24,4.24,0,0,0-1.91-3.32l-27.67-16c-1-.61-1.91-.12-1.91,1.11V35a4.29,4.29,0,0,0,1.91,3.34L49.73,45l3.66,14.77a1,1,0,0,0,2,.09l3.35-9.67,7.08,4.08c1,.62,1.91.13,1.91-1.1Z"/>
    <path class="cls-5" d="M67.72,26.43a4.24,4.24,0,0,0-1.91-3.32l-27.67-16c-1-.61-1.91-.12-1.91,1.11V35a4.29,4.29,0,0,0,1.91,3.34L49.73,45l3.66,14.77a1,1,0,0,0,2,.09l3.35-9.67,7.08,4.08c1,.62,1.91.13,1.91-1.1Z"/>
    <path class="cls-6" d="M46.72,19.36a8,8,0,0,1,1.55,1.17,8.41,8.41,0,0,1,1.11,1.34,5.8,5.8,0,0,1,.69,1.36,5.53,5.53,0,0,1,.27,1.27c0,.44,0,.9,0,1.38a11.22,11.22,0,0,1,0,1.33,2.26,2.26,0,0,1-.27.95,1.25,1.25,0,0,1-.69.57,2,2,0,0,1-1.11.05,4.82,4.82,0,0,1-1.55-.65A7.42,7.42,0,0,1,45.15,27a6.89,6.89,0,0,1-1.1-1.31,5.69,5.69,0,0,1-1-2.64V20.31a2.67,2.67,0,0,1,.28-.95,1.27,1.27,0,0,1,.69-.58,2.27,2.27,0,0,1,1.1,0A5,5,0,0,1,46.72,19.36Zm9.76,6.22a.92.92,0,0,1,.36-.13,1,1,0,0,1,.52.19l1.46.83a1.57,1.57,0,0,1,.43.38.82.82,0,0,1,.16.45v.11a.76.76,0,0,1-.08.11l-12,8.88a.8.8,0,0,1-.36.14,1,1,0,0,1-.52-.19L45,35.52a1.44,1.44,0,0,1-.43-.38.81.81,0,0,1-.15-.45.17.17,0,0,1,0-.1.19.19,0,0,1,.07-.12Zm-8.48,0a1.62,1.62,0,0,0,0-.44V23.82a1.85,1.85,0,0,0,0-.47,2.32,2.32,0,0,0-1.28-1.93c-.47-.27-.8-.35-1-.22a.9.9,0,0,0-.31.65v2.23a2.75,2.75,0,0,0,.31,1,2.49,2.49,0,0,0,1,.9c.47.28.79.35,1,.23a.81.81,0,0,0,.31-.61ZM57.26,34a7.2,7.2,0,0,1,1.56,1.18,7.47,7.47,0,0,1,1.11,1.33,6,6,0,0,1,1,2.63v2.71a2.44,2.44,0,0,1-.29,1,1.25,1.25,0,0,1-.68.58,2.09,2.09,0,0,1-1.11,0,5.19,5.19,0,0,1-1.56-.64,8.18,8.18,0,0,1-2.67-2.48,6.48,6.48,0,0,1-.68-1.37,5.07,5.07,0,0,1-.28-1.27c0-.44-.05-.9-.05-1.38a11.22,11.22,0,0,1,.05-1.33,2.48,2.48,0,0,1,.28-1,1.27,1.27,0,0,1,.68-.57,2.13,2.13,0,0,1,1.12-.06,4.93,4.93,0,0,1,1.55.7Zm1.3,6.26a3.38,3.38,0,0,0,0-.45V38a2.77,2.77,0,0,0-.32-1,2.49,2.49,0,0,0-1-.91c-.47-.27-.8-.35-1-.22a.84.84,0,0,0-.32.65,3.23,3.23,0,0,0,0,.44v1.31a3.84,3.84,0,0,0,0,.48,2.53,2.53,0,0,0,.32,1,2.5,2.5,0,0,0,1,.91q.7.39,1,.21a.85.85,0,0,0,.32-.64Z"/>
  </g>
</svg>
