<svg id="Layer_1" data-name="Layer 1" xmlns="http://www.w3.org/2000/svg" xmlns:xlink="http://www.w3.org/1999/xlink" width="100" height="100" viewBox="0 0 100 100">
  <defs>
    <style>
      .cls-1 {
        fill: none;
      }

      .cls-2 {
        fill: #bbabf5;
      }

      .cls-3 {
        clip-path: url(#clip-path);
      }

      .cls-4 {
        fill: #6c58b8;
      }

      .cls-5 {
        fill: #a8c4cd;
      }

      .cls-6 {
        fill: #12263f;
      }

      .cls-7 {
        fill: #ef2a66;
      }

      .cls-8 {
        fill: #9182ca;
      }

      .cls-9 {
        fill: #fd8f25;
      }
    </style>
    <clipPath id="clip-path">
      <rect class="cls-1" x="12.42" y="21.38" width="72.7" height="58.17"/>
    </clipPath>
  </defs>
  <circle class="cls-2" cx="50" cy="50" r="50"/>
  <g class="cls-3">
    <g id="Grupo_17447" data-name="Grupo 17447">
      <path id="Trazado_35664" data-name="Trazado 35664" class="cls-4" d="M85.12,76.64c0,1.61-11.59,2.92-25.89,2.92s-25.88-1.31-25.88-2.92,11.59-2.92,25.88-2.92S85.12,75,85.12,76.64"/>
      <path id="Trazado_35665" data-name="Trazado 35665" class="cls-4" d="M27,40.54l5.17-5.15L31,45.57"/>
      <path id="Trazado_35666" data-name="Trazado 35666" class="cls-4" d="M51.77,32.42l15,6.78-11,2.29-6.5-1.67"/>
      <path id="Trazado_35667" data-name="Trazado 35667" class="cls-4" d="M68.91,61l13.68-11,1.85,2.59L78.27,64l-7.4.74Z"/>
      <path id="Trazado_35668" data-name="Trazado 35668" class="cls-4" d="M33.4,48.2l2.35,6.16L41.91,56"/>
      <path id="Trazado_35669" data-name="Trazado 35669" class="cls-5" d="M46.72,58.55l11.34,4.07L57,63.36,49.31,62"/>
      <path id="Trazado_35670" data-name="Trazado 35670" class="cls-4" d="M50.29,56l6.17-10.6,7.27,7.89"/>
      <path id="Trazado_35671" data-name="Trazado 35671" class="cls-5" d="M58.06,63.36l3,3,8.25,7.27-4.59-8Z"/>
      <path id="Trazado_35672" data-name="Trazado 35672" class="cls-4" d="M33.4,45.86l8.2-1.42,1.73,8.75Z"/>
      <path id="Trazado_35673" data-name="Trazado 35673" class="cls-4" d="M65.33,50.91,70.26,44,81,42.41l1.23,2.83-7.89,5.67Z"/>
      <path id="Trazado_35674" data-name="Trazado 35674" class="cls-6" d="M70.53,76.39,58.07,65.16l-9.63-.88L44.53,58H35.06L30,46l6-9.71,15-6.47,9.93.89.09,0L71.17,34.1l10,3.58,3.15,7.87.52,7.79-5.67,5.54-1.32,4.49-7.57,1.32ZM49.43,62.68l9.35.85,10,9-.21-9.25,8-1.38L77.65,58l5.43-5.31-.46-6.75L79.86,39l-9.25-3.33-10-3.29-9.3-.84L37.19,37.64l-5.31,8.53,4.3,10.18h9.27Z"/>
      <path id="Trazado_35675" data-name="Trazado 35675" class="cls-6" d="M44.68,56.71l9.21-14.12L50.13,30.82l.82-.26,3.89,12.15L46.53,55.46l15.93-3.21L68.88,40l12.43-1.5.1.86-12,1.45L63,53l-.2,0Z"/>
      <path id="Trazado_35676" data-name="Trazado 35676" class="cls-6" d="M45.24,57.12,30.44,45.48l11.07-5.13,8.71-9.82.65.57-8.15,9.19,12,1.75-.12.85L42.45,41.12ZM32.08,45.68,44,55.05,41.6,41.26Z"/>
      <path id="Trazado_35677" data-name="Trazado 35677" class="cls-6" d="M66,64.89l-7.39-3.64.29,3-.85.09-.44-4.59,7.15,3.51L62.35,52.83,53.94,42.21,68.8,39.89l.13.85-13.4,2.1,7.61,9.61Z"/>
      <path id="Trazado_35678" data-name="Trazado 35678" class="cls-6" d="M78.62,58.24,74.09,54,69,41.07l-8.51-9.22.63-.58,8.62,9.33,5.11,12.9,4.39,4.11Z"/>
      <path id="Trazado_35679" data-name="Trazado 35679" class="cls-6" d="M74.27,53.36l-11.16,0v-.86l10.87,0,9.21-7.09.53.68Z"/>
      <path id="Trazado_35680" data-name="Trazado 35680" class="cls-6" d="M69.21,64.55,62.9,54l-4.85,6.86L45.18,57.05l.24-.82L57.7,59.84,63,52.4l6.5,10.89L78.05,57l.51.69Z"/>
      <path id="Trazado_35681" data-name="Trazado 35681" class="cls-7" d="M51.62,42.71a2.81,2.81,0,1,1,2.81,2.81h0a2.8,2.8,0,0,1-2.8-2.81"/>
      <path id="Trazado_35682" data-name="Trazado 35682" class="cls-6" d="M54.42,46h0a3.31,3.31,0,0,1,0-6.62h0a3.31,3.31,0,0,1,0,6.62m0-5.61a2.3,2.3,0,0,0,0,4.6h0a2.3,2.3,0,0,0,0-4.6Z"/>
      <path id="Trazado_35683" data-name="Trazado 35683" class="cls-8" d="M43.18,56.15a2.12,2.12,0,1,1,2.12,2.11h0a2.11,2.11,0,0,1-2.12-2.11"/>
      <path id="Trazado_35684" data-name="Trazado 35684" class="cls-6" d="M45.3,58.83h0a2.69,2.69,0,1,1,0-5.37h0a2.69,2.69,0,0,1,0,5.37m-1.55-2.69a1.55,1.55,0,0,0,1.55,1.55h0a1.55,1.55,0,1,0,0-3.09h0a1.55,1.55,0,0,0-1.55,1.54"/>
      <path id="Trazado_35685" data-name="Trazado 35685" class="cls-8" d="M67.12,40.56a1.79,1.79,0,1,1,1.79,1.79,1.79,1.79,0,0,1-1.79-1.79h0"/>
      <path id="Trazado_35686" data-name="Trazado 35686" class="cls-6" d="M68.91,42.79h0a2.23,2.23,0,1,1,0-4.46h0a2.23,2.23,0,0,1,0,4.46m-1.79-2.23h.44A1.34,1.34,0,0,0,68.9,41.9h0a1.35,1.35,0,0,0,0-2.69h0a1.35,1.35,0,0,0-1.35,1.35Z"/>
      <path id="Trazado_35687" data-name="Trazado 35687" class="cls-9" d="M61.08,52.45a2.1,2.1,0,1,1,2.09,2.1h0a2.1,2.1,0,0,1-2.09-2.1"/>
      <path id="Trazado_35688" data-name="Trazado 35688" class="cls-6" d="M63.17,55.05h0a2.6,2.6,0,0,1-2.6-2.6h0a2.61,2.61,0,0,1,2.6-2.6h0a2.6,2.6,0,0,1,0,5.2m0-4.19a1.59,1.59,0,0,0,0,3.18h0a1.59,1.59,0,1,0,0-3.18Z"/>
      <path id="Trazado_35689" data-name="Trazado 35689" class="cls-4" d="M72.79,53.44a1.6,1.6,0,1,1,1.6,1.6h0a1.6,1.6,0,0,1-1.6-1.6"/>
      <path id="Trazado_35690" data-name="Trazado 35690" class="cls-6" d="M74.39,55.54h0a2.1,2.1,0,0,1,0-4.19h0a2.1,2.1,0,0,1,0,4.19m0-3.21a1.11,1.11,0,0,0,0,2.22h0a1.11,1.11,0,0,0,0-2.22Z"/>
      <path id="Trazado_35691" data-name="Trazado 35691" class="cls-4" d="M40.56,40.8a1.6,1.6,0,1,1,1.6,1.6,1.6,1.6,0,0,1-1.6-1.6h0"/>
      <path id="Trazado_35692" data-name="Trazado 35692" class="cls-6" d="M42.16,42.9h0a2.1,2.1,0,1,1,0-4.19h0a2.1,2.1,0,0,1,0,4.19h0m-1.6-2.1h.49a1.11,1.11,0,0,0,1.11,1.11h0a1.11,1.11,0,1,0,0-2.22h0a1.11,1.11,0,0,0-1.11,1.11Z"/>
      <rect id="Rectángulo_3518" data-name="Rectángulo 3518" class="cls-6" x="67.05" y="63.66" width="0.86" height="10.84" transform="translate(-21.87 32.46) rotate(-23.39)"/>
      <path id="Trazado_35693" data-name="Trazado 35693" class="cls-6" d="M30.75,46.83,12.42,21.38,37.31,36.81l-.66,1.07L17.16,25.8,31.78,46.09Z"/>
      <path id="Trazado_35694" data-name="Trazado 35694" class="cls-6" d="M31.33,46l-.81-.09,1.22-10.37-7.67,2L24,30.14l-5.48-.89.13-.81,6.15,1,.08,7.06,7.82-2Z"/>
      <path id="Trazado_35695" data-name="Trazado 35695" class="cls-9" d="M26.81,37a1.47,1.47,0,1,1,2.08,0,1.47,1.47,0,0,1-2.08,0h0"/>
      <path id="Trazado_35696" data-name="Trazado 35696" class="cls-6" d="M27.85,37.78a1.79,1.79,0,1,1,1.26-.53,1.79,1.79,0,0,1-1.26.53m0-2.94a1.16,1.16,0,1,0,.81.34,1.13,1.13,0,0,0-.81-.34"/>
    </g>
  </g>
</svg>
