<svg xmlns="http://www.w3.org/2000/svg" width="196.271" height="191.797" viewBox="0 0 196.271 191.797">
  <g id="Grupo_55903" data-name="Grupo 55903" transform="translate(5982 1599.797)">
    <g id="Grupo_55902" data-name="Grupo 55902">
      <path id="Trazado_100478" data-name="Trazado 100478" d="M786,1268.073v-49.04a9.012,9.012,0,0,0-9.012-9.012H667.159a9.014,9.014,0,0,0-9.012,9.012v49.04a9.009,9.009,0,0,1-9.012,9.012H632.964a9.014,9.014,0,0,0-6.918,14.791l89.1,106.706a9.011,9.011,0,0,0,13.834,0l89.11-106.706a9.012,9.012,0,0,0-6.915-14.791H795.012A9.012,9.012,0,0,1,786,1268.073Z" transform="translate(-5161.795 -197.979) rotate(180)" fill="#fff"/>
      <path id="Trazado_111599" data-name="Trazado 111599" d="M-113.444,539.658V477.924a11.961,11.961,0,0,0-11.948-11.948h-57.23a11.961,11.961,0,0,0-11.948,11.948v9.3h18.334v61.734a11.961,11.961,0,0,0,11.948,11.948h50.581a11.961,11.961,0,0,0,11.948-11.948v-9.3Zm-62.791-58h-12.771v-3.737a6.393,6.393,0,0,1,6.385-6.386,6.394,6.394,0,0,1,6.386,6.386Zm18.333,67.3a6.392,6.392,0,0,1-6.385,6.385,6.393,6.393,0,0,1-6.386-6.385V477.924a11.878,11.878,0,0,0-1.856-6.386h47.139a6.393,6.393,0,0,1,6.385,6.386v61.734h-38.9Zm50.583,0a6.393,6.393,0,0,1-6.386,6.385h-40.487a11.887,11.887,0,0,0,1.852-6.385v-3.737h45.021Z" transform="translate(-5731.409 -1996.823)" fill="#ef2a66"/>
      <rect id="Rect치ngulo_5312" data-name="Rect치ngulo 5312" width="40.542" height="5.562" transform="translate(-5896.52 -1512.514)" fill="#ef2a66"/>
      <rect id="Rect치ngulo_5313" data-name="Rect치ngulo 5313" width="40.542" height="5.562" transform="translate(-5896.52 -1499.886)" fill="#ef2a66"/>
      <path id="Trazado_111600" data-name="Trazado 111600" d="M-159.734,493.237a9.981,9.981,0,0,0-9.97,9.97,9.986,9.986,0,0,0,7.189,9.572v5.2h5.563v-5.2a9.987,9.987,0,0,0,7.188-9.572A9.981,9.981,0,0,0-159.734,493.237Zm0,14.377a4.411,4.411,0,0,1-4.407-4.407,4.413,4.413,0,0,1,4.407-4.408,4.414,4.414,0,0,1,4.408,4.408A4.413,4.413,0,0,1-159.734,507.614Z" transform="translate(-5716.515 -1980.494)" fill="#ef2a66"/>
    </g>
  </g>
</svg>
