<svg id="Layer_1" data-name="Layer 1" xmlns="http://www.w3.org/2000/svg" width="300" height="300" viewBox="0 0 300 300">
  <defs>
    <style>
      .cls-1 {
        fill: none;
      }

      .cls-2 {
        fill: #dad5ed;
      }

      .cls-3 {
        fill: #6ed1c3;
      }

      .cls-4 {
        fill: #472ea6;
      }

      .cls-10, .cls-11, .cls-12, .cls-15, .cls-16, .cls-17, .cls-5, .cls-9 {
        fill: #6c58b8;
      }

      .cls-6 {
        fill: #455a64;
      }

      .cls-7 {
        fill: #abfff3;
      }

      .cls-8 {
        fill: #12263f;
      }

      .cls-10, .cls-11, .cls-12, .cls-15, .cls-16, .cls-17, .cls-20, .cls-21, .cls-22, .cls-23, .cls-26, .cls-9 {
        isolation: isolate;
      }

      .cls-22, .cls-9 {
        opacity: 0.1;
      }

      .cls-10 {
        opacity: 0.5;
      }

      .cls-11, .cls-21, .cls-27 {
        opacity: 0.15;
      }

      .cls-12 {
        opacity: 0.4;
      }

      .cls-13 {
        fill: #d1c6c6;
      }

      .cls-14, .cls-20, .cls-21, .cls-22, .cls-23, .cls-26 {
        fill: #fff;
      }

      .cls-15 {
        opacity: 0.3;
      }

      .cls-16, .cls-24 {
        opacity: 0.2;
      }

      .cls-17 {
        opacity: 0.35;
      }

      .cls-18 {
        fill: #ffa8a7;
      }

      .cls-19 {
        fill: #f28f8f;
      }

      .cls-20 {
        opacity: 0.75;
      }

      .cls-23 {
        opacity: 0.25;
      }

      .cls-25 {
        fill: #fafafa;
      }

      .cls-26 {
        opacity: 0.6;
      }
    </style>
  </defs>
  <rect class="cls-1" width="300" height="300"/>
  <g id="freepik--Floor--inject-80">
    <ellipse id="freepik--floor--inject-80-2" data-name="freepik--floor--inject-80" class="cls-2" cx="150.65" cy="212.71" rx="147.97" ry="73.48"/>
  </g>
  <g id="freepik--Shadows--inject-80">
    <path id="freepik--Shadow--inject-80" class="cls-3" d="M63.6,250l-10-5.78-10.37,6,1.73-5-10.37,2,12.1-7L8.05,217.9a.68.68,0,0,1-.42-.86.7.7,0,0,1,.42-.42l72.62-41.73a2.4,2.4,0,0,1,2.21,0l55.44,32a.67.67,0,0,1,.42.85.65.65,0,0,1-.42.42L65.81,250A2.4,2.4,0,0,1,63.6,250Z"/>
    <ellipse id="freepik--shadow--inject-80-2" data-name="freepik--shadow--inject-80" class="cls-3" cx="245.97" cy="219.93" rx="44.61" ry="25.76"/>
  </g>
  <g id="freepik--Plants--inject-80">
    <g id="freepik--Leaves--inject-80">
      <g id="freepik--leaves--inject-80-2" data-name="freepik--leaves--inject-80">
        <path class="cls-4" d="M65.82,107.71S61.1,106.65,57.4,101c-3-4.53-2.72-7.67-2.19-7.89s2.47,1.13,5.84,6.13C62.45,101.33,65.82,107.71,65.82,107.71Z"/>
        <path class="cls-4" d="M74,114.63a35.51,35.51,0,0,1-6.68-9.46c-1.35-2.76-1.22-4.55-.53-4.59.4,0,2.32,1.37,4.35,5.56S74.5,114.93,74,114.63Z"/>
        <path class="cls-4" d="M69.19,111c-.42-.4-2.26-1-5.46-1.52-2.16-.34-4.65-.9-4.92-.23s1.93,2.39,4.44,2.79S69.61,111.39,69.19,111Z"/>
        <path class="cls-4" d="M77.45,117.13c-.52-.39-4.33-.75-6.07-.9s-3.8,0-4.31.78,1.57,2,4.54,2S78,117.53,77.45,117.13Z"/>
        <path class="cls-4" d="M81.64,119.15c-.53-.05-2.51-2.62-4.17-5.24s-3-6.11-1.89-6.22,2.68,1.5,4.15,4.42C81.36,115.35,82.17,119.2,81.64,119.15Z"/>
        <path class="cls-4" d="M85.64,121.18c-.21-.26-2.93.2-5.75.46s-4,.37-4.18,1.22,1.34,2,4.43,1.39S85.85,121.44,85.64,121.18Z"/>
        <path class="cls-3" d="M56.59,96.13a58,58,0,0,0,7.38,10,70,70,0,0,0,9.17,8.47A43.12,43.12,0,0,0,84,120.91a23.81,23.81,0,0,0,12.36,1.46,0,0,0,0,0,0,0h0a0,0,0,0,0,0,0h0a27.55,27.55,0,0,1-12-2.21,51.8,51.8,0,0,1-10.73-6,68.68,68.68,0,0,1-9.27-8.19,58.16,58.16,0,0,1-7.64-9.77s0,0-.06,0,0,0,0,0A0,0,0,0,0,56.59,96.13Z"/>
      </g>
      <g id="freepik--leaves--inject-80-3" data-name="freepik--leaves--inject-80">
        <path class="cls-3" d="M44.85,49.83c.48-6.76,2.91-8.25,4.5-10.7a10.62,10.62,0,0,0,2-5.39c.74,1.91,1.22,7.28-1.38,10.38C47.77,46.7,45.74,47.19,44.85,49.83Z"/>
        <path class="cls-3" d="M40.75,40.64a10.47,10.47,0,0,1-8-7.76,13.6,13.6,0,0,0-3-6.07A16.29,16.29,0,0,1,40.75,40.64Z"/>
      </g>
      <path id="freepik--Leavesz--inject-80" class="cls-3" d="M50.68,101a19.07,19.07,0,0,1-3.4-4.86c.08-4.22,1.6-8.5-.34-12.53-.07-.14-.32-.21-.31,0,0,1.22-.55,2.46-.7,3.65a17.15,17.15,0,0,0-.17,2.15,7.59,7.59,0,0,0,1.37,4.19c-.07.66-.11,1.32-.13,2-.45-.89-.88-1.82-1.3-2.72C44.39,90,43.18,87.16,42,84.27a13.58,13.58,0,0,0,.2-1.92,7.48,7.48,0,0,0-.05-1.89c1.14-.61,1.52-2,1.66-3.33,1.21-2.92,1.38-6.39,3.24-9a18.88,18.88,0,0,0,1.47-1.87,11.88,11.88,0,0,0,1.12-2.15,10,10,0,0,0,.6-2.16,11,11,0,0,0,.11-2.5c0-.32-.06-.61-.08-1a4.51,4.51,0,0,1,0-.9c0-.17.14-.45-.06-.54s-.14-.11-.2,0a3.35,3.35,0,0,0-.43.41c-.14.19-.25.38-.39.55a8.46,8.46,0,0,0-.76,1.21c-.45.74-.93,1.45-1.33,2.21-.26.51-.52,1-.74,1.55A5.34,5.34,0,0,0,46,64.45c0,.28,0,.55,0,.84v3.52a1.51,1.51,0,0,0,0,.42h0a13.46,13.46,0,0,0-.71,2c-.46,1.44-.94,2.94-1.34,4.44a54.81,54.81,0,0,0-.68-7.12c0-.14-.24-.31-.33-.14a13.64,13.64,0,0,0-1,11.69,10.88,10.88,0,0,1,0,2.55,5.55,5.55,0,0,1-.13.87,71.12,71.12,0,0,1-2.8-8.78c-.18-.78-.35-1.56-.51-2.33a.09.09,0,0,0,0-.13h0s0,0-.06-.07L37.91,70a9.6,9.6,0,0,1,.36-1.07c.45-1.08,1-2.09,1.6-3.12a12.91,12.91,0,0,0,1.34-4.6c0-.36,0-.72.07-1.09s0-.46,0-.69a5.25,5.25,0,0,0,0-1.12c0-.41-.36-.11-.49.09-.33.52-.61,1.07-.89,1.62s-.61.91-.84,1.4c-.08.14-.16.28-.25.41a1.46,1.46,0,0,1-.22.33c-.05-.06-.05-.22-.07-.29s-.08-.36-.11-.54a3.68,3.68,0,0,0-.17-.73,5.26,5.26,0,0,1-.15-.6,1.78,1.78,0,0,0-.21-.44,5.13,5.13,0,0,1-.33-1.16,9.76,9.76,0,0,1-.27-3V55c0-.14-.2-.43-.31-.21a16.73,16.73,0,0,0-1.36,4.25,11.13,11.13,0,0,0-.29,2.64,6.82,6.82,0,0,0,.06,1.1c.07.37.14.77.23,1.15a36.17,36.17,0,0,0,1.48,3.49c0,.61.1,1.21.19,1.86a4.52,4.52,0,0,0-.83-.92,7.77,7.77,0,0,0-1.68-1,13.49,13.49,0,0,1-2.68-1.73c-.1-.08-.21,0-.19.13a6.89,6.89,0,0,0,1.58,3.64c1.22,1.26,2.88,1.73,4.31,2.62.21,1,.43,1.88.61,2.8.36,1.66.81,3.31,1.31,4.93a10.21,10.21,0,0,0-5.66-3.46c-.19,0-.13.2,0,.27,1.76.94,2,3.72,3.31,5.19A5.39,5.39,0,0,0,38.85,83a10.19,10.19,0,0,0,2.33.86c.12.32.24.66.37,1,1.28,3.36,2.74,6.67,4.25,9.9a23,23,0,0,0,4.43,6.82C50.58,101.88,51,101.27,50.68,101ZM37.78,60a6.41,6.41,0,0,1,.48,2.11,5.65,5.65,0,0,1-.19,1.36,9.32,9.32,0,0,1-.3,1,2.47,2.47,0,0,0-.18.52,5.84,5.84,0,0,1-.15.6,5.28,5.28,0,0,0-.16.66,1.65,1.65,0,0,0,0,.7,17.5,17.5,0,0,0-.79-1.89,6.56,6.56,0,0,1-.37-1,5.85,5.85,0,0,1-.28-.9,4.81,4.81,0,0,1-.1-.84v-.66a6.61,6.61,0,0,1,.08-1,22.91,22.91,0,0,1,.53-2.46,19.85,19.85,0,0,1,.7-2.27,8.75,8.75,0,0,0,.2,2.22A15.65,15.65,0,0,0,37.78,60Zm2.43,3.72A23.64,23.64,0,0,1,39,66.51c-.2.43-.44.87-.65,1.32-.11.24-.21.49-.31.75a2,2,0,0,0-.21.75,11.46,11.46,0,0,1-.16-3c0-.18,0-.38.07-.57a8.85,8.85,0,0,1,.27-1A24.34,24.34,0,0,1,39.23,62c.15-.32.31-.65.47-1,.31-.61.66-1.17,1-1.77,0-.08.16-.39.27-.43s.09.31.09.39c0,.5-.12,1-.17,1.51a3,3,0,0,1,0,.6c-.06.43-.18.86-.27,1.29,0,.2-.11.41-.18.61,0,0,0,.11-.07.17s0,.18-.07.29Zm-2.43,7.9a15.14,15.14,0,0,0-1.87-1c-1.34-.72-3.3-2.06-3.38-3.77-.05-1,.2-.23.74.13a11.3,11.3,0,0,0,1.34.69A5.76,5.76,0,0,1,37.47,70c.12.55.24,1.09.34,1.62Zm8.6-3.18V67.36a7.74,7.74,0,0,0-.05-1.08,11.25,11.25,0,0,1,.12-1.83c.26-2.11,1.51-4,2.66-5.68.1-.14.38-.61.61-.67s.21,1.36.22,1.53A14,14,0,0,1,49.57,63a9.8,9.8,0,0,1-.88,2.33,11,11,0,0,1-1.38,2.07c-.18.21-.34.4-.49.61a3.06,3.06,0,0,0-.42.46ZM42.17,80.07c-.47-1.95-1.09-3.64-.86-5.73A15.21,15.21,0,0,1,43,69.09c.33,2.29,1,5.35.61,7.9a1.83,1.83,0,0,1-.09.39h0a5.41,5.41,0,0,1-1.3,2.71Zm-3,2.58A6,6,0,0,1,36.68,80c-.42-.78-.7-1.65-1.18-2.43,0,0-.52-.55-.76-.82.45.33,1.95,1,2.22,1.12a9.2,9.2,0,0,1,3.28,3.19c.26.76.52,1.54.8,2.3a18.4,18.4,0,0,1-1.87-.71Zm8,10.54a8.42,8.42,0,0,1-1-4.2,17.77,17.77,0,0,1,.43-3.17c.12-.48.28-1,.36-1.47,1.16,2.87.62,5.87.29,8.86Z"/>
      <g id="freepik--leaves--inject-80-4" data-name="freepik--leaves--inject-80">
        <path class="cls-4" d="M239.12,107.71s4.72-1.06,8.42-6.68c3-4.53,2.72-7.67,2.19-7.89s-2.47,1.13-5.84,6.13C242.49,101.33,239.12,107.71,239.12,107.71Z"/>
        <path class="cls-4" d="M230.9,114.63a35.76,35.76,0,0,0,6.68-9.46c1.34-2.76,1.22-4.55.53-4.59-.4,0-2.32,1.37-4.35,5.56S230.44,114.93,230.9,114.63Z"/>
        <path class="cls-4" d="M235.75,111c.42-.4,2.26-1,5.46-1.52,2.16-.34,4.65-.9,4.92-.23s-1.94,2.39-4.44,2.79S235.33,111.39,235.75,111Z"/>
        <path class="cls-4" d="M227.49,117.13c.52-.39,4.33-.75,6.07-.9s3.8,0,4.31.78-1.57,2-4.54,2S227,117.53,227.49,117.13Z"/>
        <path class="cls-4" d="M223.3,119.15c.53-.05,2.51-2.62,4.17-5.24s3-6.11,1.89-6.22-2.68,1.5-4.15,4.42C223.58,115.35,222.77,119.2,223.3,119.15Z"/>
        <path class="cls-4" d="M219.3,121.18c.21-.26,2.93.2,5.75.46s4,.37,4.18,1.22-1.34,2-4.43,1.39S219.09,121.44,219.3,121.18Z"/>
        <path class="cls-3" d="M248.35,96.13a58,58,0,0,1-7.38,10,70,70,0,0,1-9.17,8.47A43,43,0,0,1,221,120.91a23.76,23.76,0,0,1-12.35,1.46,0,0,0,0,1,0,0h0a0,0,0,0,1,0,0h0a27.57,27.57,0,0,0,12-2.21,51.8,51.8,0,0,0,10.73-6,68.68,68.68,0,0,0,9.27-8.19,58.16,58.16,0,0,0,7.64-9.77s0,0,.06,0,0,0,0,0S248.36,96.13,248.35,96.13Z"/>
      </g>
      <g id="freepik--leaves--inject-80-5" data-name="freepik--leaves--inject-80">
        <path class="cls-3" d="M260.08,49.83c-.47-6.76-2.9-8.25-4.49-10.7a10.62,10.62,0,0,1-2-5.39c-.74,1.91-1.22,7.28,1.38,10.38C257.17,46.7,259.2,47.19,260.08,49.83Z"/>
        <path class="cls-3" d="M264.19,40.64a10.47,10.47,0,0,0,8-7.76,13.6,13.6,0,0,1,3-6.07A16.29,16.29,0,0,0,264.19,40.64Z"/>
      </g>
      <path id="freepik--leavesz--inject-80-2" data-name="freepik--leavesz--inject-80" class="cls-3" d="M254.66,101.58a23,23,0,0,0,4.43-6.82c1.52-3.24,3-6.54,4.25-9.9.13-.33.24-.67.36-1A10,10,0,0,0,266,83a5.6,5.6,0,0,0,1.44-1.17c1.29-1.47,1.55-4.25,3.3-5.19.11-.06.18-.31,0-.27a10.27,10.27,0,0,0-5.66,3.46c.51-1.62.95-3.27,1.31-4.93.2-.92.42-1.85.61-2.8,1.43-.89,3.09-1.36,4.31-2.62a6.78,6.78,0,0,0,1.58-3.64c0-.11-.08-.21-.19-.13a12.65,12.65,0,0,1-2.68,1.73,7.77,7.77,0,0,0-1.68,1,4.32,4.32,0,0,0-.83.93c.09-.61.15-1.22.19-1.87A31.9,31.9,0,0,0,269.21,64c.09-.39.18-.77.23-1.16s0-.73.07-1.1a11.75,11.75,0,0,0-.3-2.64,16.34,16.34,0,0,0-1.36-4.25c-.11-.22-.32.06-.3.21a2.73,2.73,0,0,0,0,.41,9.7,9.7,0,0,1-.28,2.94,4.86,4.86,0,0,1-.33,1.17,1.72,1.72,0,0,0-.21.43c-.05.19-.08.39-.15.61a3.85,3.85,0,0,0-.16.69c0,.18-.08.36-.11.54s0,.23-.07.29a1.46,1.46,0,0,1-.22-.33c-.09-.13-.17-.27-.25-.41-.25-.49-.6-.91-.84-1.4s-.56-1.1-.89-1.62c-.13-.19-.44-.5-.49-.09a5.25,5.25,0,0,0,0,1.12c0,.23,0,.46.05.7s0,.72.07,1.08a11.74,11.74,0,0,0,.7,3.21,10.22,10.22,0,0,0,.61,1.4c.55,1,1.15,2,1.6,3.12A10.17,10.17,0,0,1,267,70c-.15.74-.3,1.49-.46,2.24l-.05.07a.1.1,0,0,0,0,.14h0c-.16.77-.33,1.55-.51,2.33a71.76,71.76,0,0,1-2.79,8.71c-.05-.3-.1-.61-.13-.87a10.88,10.88,0,0,1,0-2.55,13.65,13.65,0,0,0-1-11.69c-.09-.17-.31,0-.32.14a53.13,53.13,0,0,0-.69,7.12c-.4-1.5-.88-3-1.34-4.44a13.46,13.46,0,0,0-.71-2h0a1.4,1.4,0,0,0-.05-.41V68.3c0-.61,0-1.28,0-1.92V65.21a4.68,4.68,0,0,0,0-.84,5.34,5.34,0,0,0-.36-1.48c-.21-.53-.48-1-.74-1.54-.4-.77-.88-1.48-1.33-2.21a8,8,0,0,0-.75-1.22c-.15-.17-.26-.36-.4-.55a5.44,5.44,0,0,0-.42-.41c-.07-.08-.15,0-.21,0s-.08.37-.06.54a4.51,4.51,0,0,1,0,.9c0,.32,0,.61-.07,1a10.46,10.46,0,0,0,.1,2.5,10.12,10.12,0,0,0,.64,2.16,11.83,11.83,0,0,0,1.11,2.15A18.88,18.88,0,0,0,257.89,68c1.87,2.62,2,6.07,3.24,9,.14,1.32.52,2.72,1.66,3.33a7.55,7.55,0,0,0-.05,1.9,13.59,13.59,0,0,0,.2,1.91c-1.12,2.92-2.35,5.8-3.64,8.64-.42.91-.84,1.83-1.3,2.72a18.79,18.79,0,0,0-.13-2,7.52,7.52,0,0,0,1.38-4.19,19.27,19.27,0,0,0-.17-2.15,23.48,23.48,0,0,1-.7-3.65c0-.23-.24-.16-.32,0-1.93,4-.41,8.31-.33,12.53a19.37,19.37,0,0,1-3.41,4.86C254,101.27,254.36,101.88,254.66,101.58Zm13.06-43.32a8.78,8.78,0,0,0,.2-2.23,20.65,20.65,0,0,1,.7,2.28,22.91,22.91,0,0,1,.53,2.46,6.61,6.61,0,0,1,.08,1v.65a4.6,4.6,0,0,1-.1.84,6,6,0,0,1-.28.91,7.57,7.57,0,0,1-.37,1,18.22,18.22,0,0,0-.79,1.88,1.61,1.61,0,0,0,0-.69,4.88,4.88,0,0,0-.16-.66l-.15-.61a2.38,2.38,0,0,0-.18-.51,9.32,9.32,0,0,1-.3-1,5.65,5.65,0,0,1-.19-1.36,6.47,6.47,0,0,1,.48-2.12A14.9,14.9,0,0,0,267.72,58.26Zm-3.09,5.22a.49.49,0,0,0-.06-.17,6.13,6.13,0,0,1-.18-.61c-.1-.43-.21-.86-.27-1.29,0-.2,0-.4-.05-.6,0-.5-.15-1-.16-1.51,0-.08,0-.44.09-.39s.23.35.27.43c.3.61.65,1.17,1,1.77.16.31.32.64.47,1a26.41,26.41,0,0,1,1.18,2.67,8.85,8.85,0,0,1,.27,1c0,.19.05.39.06.57a10.68,10.68,0,0,1-.16,3,1.82,1.82,0,0,0-.2-.75c-.1-.26-.2-.51-.32-.75-.2-.45-.45-.89-.65-1.32a25.38,25.38,0,0,1-1.16-2.8C264.69,63.63,264.66,63.57,264.63,63.48ZM267.44,70a5.7,5.7,0,0,1,2.86-2.33,11.43,11.43,0,0,0,1.35-.69c.54-.36.78-1.11.74-.13-.09,1.71-2,3-3.38,3.77a15.26,15.26,0,0,0-1.88,1c.09-.53.22-1.07.31-1.6Zm-9.32-2c-.15-.2-.31-.39-.49-.61a11,11,0,0,1-1.38-2.07,9.8,9.8,0,0,1-.88-2.33,14,14,0,0,1-.37-3.34c0-.17-.06-1.59.22-1.53s.48.53.58.67c1.15,1.73,2.4,3.57,2.66,5.68a11.25,11.25,0,0,1,.12,1.83c0,.35,0,.72-.05,1.08v1.07A2.52,2.52,0,0,0,258.12,68Zm3.32,9.44h0a2,2,0,0,0-.09-.39c-.39-2.54.28-5.61.61-7.89a15.34,15.34,0,0,1,1.65,5.24c.23,2.1-.39,3.78-.87,5.73a5.32,5.32,0,0,1-1.31-2.69Zm2.46,6c.28-.75.54-1.53.81-2.3A9,9,0,0,1,268,77.89c.26-.16,1.76-.79,2.22-1.12-.24.27-.75.82-.76.82-.49.75-.76,1.62-1.18,2.43a6.09,6.09,0,0,1-2.5,2.67,15.46,15.46,0,0,1-1.87.68Zm-5.87,1c.08.5.24,1,.36,1.47a17.77,17.77,0,0,1,.43,3.17,8.45,8.45,0,0,1-1.05,4.2c-.33-3-.87-6,.25-8.84Z"/>
    </g>
  </g>
  <g id="freepik--Book--inject-80">
    <g id="freepik--Books--inject-80">
      <path class="cls-5" d="M57.08,243.56l1.74-1a2.8,2.8,0,0,0-1.46-.11C56.89,242.67,57.08,243.56,57.08,243.56Z"/>
      <path class="cls-5" d="M55.87,242.46a2.13,2.13,0,0,1,3-.12l.12.12c1.69,1.56,1.78,3.11,2.49,3.08s.69-12.45.69-12.45l-6.68,6.22Z"/>
      <path class="cls-6" d="M126,197.27l.1-.06-1.07-.6L78.86,169.94l-67.3,43.54c-1.11.64-1.31,1.57-.45,2.07l1.58.9,43.18,25,.3-.23Z"/>
      <path class="cls-4" d="M61.63,227.21l-3.34-.69v13.39c2,.85,3.29,1.66,3.5,3.35Z"/>
      <path class="cls-7" d="M56.8,240.08,14,215.42a3,3,0,0,1-1.34-2.32V199.87L55.87,225a3.89,3.89,0,0,0,2.05,2.43c1.53.57.37,1.22.37,1.22v11.25C57,239.75,56.8,240.08,56.8,240.08Z"/>
      <path class="cls-8" d="M60.75,226.75c-.44-.25-.79-.27-.79,0v.42c0,.46-.71.44-1.58-.07s-1.59-1.28-1.59-1.75v-.41c0-.25-.61-.78-1.33-1.22l69.59-39.84,1.07.61a1,1,0,0,1,.27.57v.42c0,.46.71,1.25,1.57,1.75s1.59.53,1.59.07v-.42c0-.24.35-.23.79,0Z"/>
      <path class="cls-6" d="M126,184.52l.1-.06-1.07-.61L78.86,157.18,11.56,196c-1.11.64-1.31,1.57-.45,2.07l1.58.9,43.18,26Z"/>
      <path class="cls-6" d="M129.56,186.44,60,226.58l2.43,1.91,69.31-40a2.7,2.7,0,0,0-.93-1.29Z"/>
      <path class="cls-6" d="M131.5,206.45l.13-.09a.23.23,0,0,0,.07-.07.85.85,0,0,0,.14-.19.36.36,0,0,0,.07-.1,1.46,1.46,0,0,0,.18-.38c0-.15.1-.3.14-.45s.07-.34.1-.53,0-.21,0-.32V192a9.53,9.53,0,0,0-.65-3.5l-69.26,40-.29,18,69.3-40Z"/>
      <path class="cls-9" d="M62.46,228.49h0S117.05,202.94,122,200.6c3.28-1.55,2.9,2.33.61,5.32-1.82,2.39-17.9,16-17.9,16l17.83-10.32,8.92-5.15h0l.13-.09a.27.27,0,0,0,.08-.07,1.33,1.33,0,0,0,.14-.19.36.36,0,0,0,.07-.1,1.71,1.71,0,0,0,.17-.39,2.15,2.15,0,0,0,.14-.45c0-.17.08-.34.11-.52a1.73,1.73,0,0,0,0-.32V192a9.52,9.52,0,0,0-.64-3.5Z"/>
      <path class="cls-8" d="M63.11,232H61.55a7,7,0,0,0-.75-3.39,2,2,0,0,1-1.27.42,3.92,3.92,0,0,1-1.93-.61,5.72,5.72,0,0,1-1.82-1.57,1.1,1.1,0,0,1-.09-.14,2.55,2.55,0,0,1-.47-1.33L14.28,201.72l-1.39-.8-1.78-1a1,1,0,0,1-.54-.81v-1.82a1,1,0,0,0,.54.83h0l4.75,2.75,39.61,22.87c.74.43,1.35,1,1.35,1.22v.41a1.24,1.24,0,0,0,.36.74,4.35,4.35,0,0,0,1.21,1c.89.51,1.59.53,1.59.06v-.41c0-.24.35-.23.79,0l.78.46C62.4,227.7,63.11,229.85,63.11,232Z"/>
      <path class="cls-8" d="M61.55,232v12l0,.39v0a4.52,4.52,0,0,0-2.34-2.92,4,4,0,0,0-1.9-.61,2.06,2.06,0,0,0-1.38.52l-.14-.08-.28-.16L15.86,218.28,13.59,217l-.65-.38L11,215.48a.91.91,0,0,1-.43-.74v1.82a.88.88,0,0,0,.43.68h0l.7.42.45.25.76.44c.24.14.32.2.47.27l.33.2.61.34,31.47,18.16,10,5.8c.72.42,1.3.57,1.34.35V243c0-.51.7-.51,1.58,0A2.1,2.1,0,0,1,60,244.57v.5a.77.77,0,0,0,.23.61l.24.12.49.3.61.35a.61.61,0,0,0,.78-.07.27.27,0,0,0,.08-.07.86.86,0,0,0,.14-.18h0a.61.61,0,0,0,.07-.1,2.32,2.32,0,0,0,.18-.39,3.88,3.88,0,0,0,.14-.45c0-.17.06-.34.1-.53s0-.21,0-.31V232Z"/>
      <path class="cls-9" d="M131.77,188.47l-65.87,38L16.11,197.75c-.75-.42-.75-1.12,0-1.55l65.18-37.65L125,183.85h0l1.08.61a1,1,0,0,1,.27.57v.42c0,.46.71,1.25,1.57,1.76l.14.06,1.46-.83.68.39.1,0h0l.51.3A2.66,2.66,0,0,1,131.77,188.47Z"/>
      <path class="cls-4" d="M19.82,198l2-1.06L20,196.55A1.35,1.35,0,0,0,19.82,198Z"/>
      <path class="cls-10" d="M19.82,198l2-1.06L20,196.55A1.35,1.35,0,0,0,19.82,198Z"/>
      <path class="cls-4" d="M72.32,224.48a4.47,4.47,0,0,1-4,0L23.05,198.37,90.78,159.9l1.58-1,45.25,25.51a1.22,1.22,0,0,1,0,2.32Z"/>
      <path class="cls-4" d="M55.32,175.77l-15.78,9.1L29.32,179l-11.87,6.85v7.93c0,1,1.16,2.51,1.59,2.27a10.83,10.83,0,0,1,2.28.8,17,17,0,0,1,3.28,2.43L60.86,179Z"/>
      <path class="cls-11" d="M55.32,175.77l-15.78,9.1L29.32,179l-11.87,6.85v7.93c0,1,1.16,2.51,1.59,2.27a10.83,10.83,0,0,1,2.28.8,17,17,0,0,1,3.28,2.43L60.86,179Z"/>
      <path class="cls-8" d="M24,186.77v8.61l-.14-.08a4.14,4.14,0,0,0-1.93-.61,2,2,0,0,0-1.27.3V184.84Z"/>
      <path class="cls-3" d="M26.18,198.34a2.7,2.7,0,0,0-.57-1.47,4.94,4.94,0,0,0-.56-.64l-.19-.18-.25-.22-.2-.15q-.22-.17-.45-.3v-8.57l2.22,1.29v10.24Z"/>
      <path class="cls-12" d="M17.45,193.75c0,1,1.16,2.51,1.59,2.27h0l1.58-1v-6.54L19,185.71l-.86-.31-.72.42Z"/>
      <path class="cls-13" d="M26.18,198.33V188L70.3,213.52v9.79A2.6,2.6,0,0,1,69,223l-5-2.87"/>
      <path class="cls-11" d="M29,194.63l10.59,6.11a26.77,26.77,0,0,0-5.29-3.54C30.26,194.87,29,194.63,29,194.63Z"/>
      <path class="cls-14" d="M136.46,176.62V184a3,3,0,0,1-1.34,2.33L76.57,220.16,71.62,223a2.73,2.73,0,0,1-1.34.32v-8.71Z"/>
      <path class="cls-4" d="M90.77,147.12,23,186.23v.91c0,.5-.71.69-1.58.18s-1.58-1.13-1.58-2l-.08-.86,69-39.85.28-.16a.88.88,0,0,1,.11.42v.42C89.2,145.8,89.93,146.6,90.77,147.12Z"/>
      <path class="cls-9" d="M90.77,147.12,23,186.23v.91c0,.5-.71.69-1.58.18s-1.58-1.13-1.58-2l-.08-.86,69-39.85.28-.16a.88.88,0,0,1,.11.42v.42C89.2,145.8,89.93,146.6,90.77,147.12Z"/>
      <path class="cls-4" d="M68.29,212.39,24,186.81c-.56-.3-1.07-.53-1.29-.42l.29-.16,67.73-39.11.79-.46a2.56,2.56,0,0,1,2.14.32l43.9,25.33a1.23,1.23,0,0,1,0,2.33L72.32,212.39A4.47,4.47,0,0,1,68.29,212.39Z"/>
      <path class="cls-6" d="M79.57,164.61l.35-.2,1,.6,7.15-4.12-1-.61.35-.2,4,2.31-.36.2L89.93,162l-7.15,4.12,1.35.78a3.13,3.13,0,0,0,.83.33,4,4,0,0,0,1.91-.2l1.61-.49.38.22L86,168.32Z"/>
      <path class="cls-6" d="M92.36,172l.35-.2.93.54,1.53-2-2.6-1.5-3.46.9.74.43.12.09c.1.07,0,.17-.17.29l-2.43-1.39.36-.2.83.48,10.37-2.67,1,.56-4.41,6.11.39.22.13.09c.1.08,0,.18-.17.3Zm4.89-4.41-4.16,1.1L95.38,170Z"/>
      <path class="cls-6" d="M102.77,178a.86.86,0,0,1-.29-.25c-.06-.15.06-.43.38-.86l2.27-2.94-6.41,1.71-.26-.15a.83.83,0,0,1-.3-.26c-.06-.14.06-.42.39-.85l4-5.2-.65-.38.35-.2,3.55,2-.35.21-1-.61-3.64,4.5,4.77-1.29,1.58-2,3,1.74-.35.21-1-.61-3.63,4.4,7.45-2.17-1-.61.35-.2,2.16,1.25-.35.21-.65-.39-10,2.89Z"/>
      <path class="cls-14" d="M66.61,207.82a.43.43,0,0,1-.22-.06L33.15,188.63a.45.45,0,0,1,0-.76,2,2,0,0,0,0-3.51.44.44,0,0,1,0-.75l55.49-32a.43.43,0,0,1,.44,0,7,7,0,0,0,7,0,.42.42,0,0,1,.43,0l33.18,19.15a.45.45,0,0,1,0,.76,2,2,0,0,0-.74,2.77,2.1,2.1,0,0,0,.74.74.44.44,0,0,1,0,.75l-55.43,32a.43.43,0,0,1-.44,0,7,7,0,0,0-6.94,0A.44.44,0,0,1,66.61,207.82ZM34.16,188.2l32.46,18.68a7.86,7.86,0,0,1,7.36,0l54.65-31.57a2.9,2.9,0,0,1-.07-4.1l.07-.06L96.22,152.44a7.84,7.84,0,0,1-7.38,0L34.14,184a2.92,2.92,0,0,1,.07,4.11l-.07.06Z"/>
      <path class="cls-4" d="M89.09,144.46l-.28.16-69,39.84a.58.58,0,0,0-.15-.19l-.24-.14-.52-.28-.61-.36a.63.63,0,0,0-.78.07l-.07.07a1.42,1.42,0,0,0-.21.29,1.38,1.38,0,0,0-.18.39,3.88,3.88,0,0,0-.14.45c0,.17-.07.34-.1.52a1.87,1.87,0,0,0,0,.32v-1.08a4.15,4.15,0,0,1,2-3.1L84,143.72a4,4,0,0,1,3.59-.25l.82.48h0l.35.2h0A.61.61,0,0,1,89.09,144.46Z"/>
      <path class="cls-4" d="M68.29,224.48l-2.74-1.58-41-23.65a2.61,2.61,0,0,0-.56-1.47,5.88,5.88,0,0,0-1.82-1.58,4,4,0,0,0-1.93-.6A2,2,0,0,0,19,196a7.24,7.24,0,0,1-.72-3.39H16.73c0,2.14.7,4.29,1.57,4.78l.79.46c.44.26.79.28.79,0v-.41c0-.47.71-.45,1.58.06S23,198.8,23,199.27v.42c0,.24.61.78,1.34,1.21L64,223.78l4.3,2.47h0a4.26,4.26,0,0,0,2,.48v-1.82A4.1,4.1,0,0,1,68.29,224.48Z"/>
      <path class="cls-15" d="M68.29,224.48l-2.74-1.58-41-23.65a2.61,2.61,0,0,0-.56-1.47,5.88,5.88,0,0,0-1.82-1.58,4,4,0,0,0-1.93-.6A2,2,0,0,0,19,196a7.24,7.24,0,0,1-.72-3.39H16.73c0,2.14.7,4.29,1.57,4.78l.79.46c.44.26.79.28.79,0v-.41c0-.47.71-.45,1.58.06S23,198.8,23,199.27v.42c0,.24.61.78,1.34,1.21L64,223.78l4.3,2.47h0a4.26,4.26,0,0,0,2,.48v-1.82A4.1,4.1,0,0,1,68.29,224.48Z"/>
      <path class="cls-4" d="M68.3,212.39h0l-2.73-1.59-31.5-18.18-10-5.81c-.71-.42-1.29-.56-1.33-.35h0v.46c0,.5-.7.5-1.57,0a2.11,2.11,0,0,1-1.21-1.58v-.5a.73.73,0,0,0-.24-.61l-.23-.13-.5-.29-.61-.36a.65.65,0,0,0-.78.08.11.11,0,0,0-.07.06.85.85,0,0,0-.14.19.44.44,0,0,0-.08.11,1.84,1.84,0,0,0-.17.38,2.59,2.59,0,0,0-.14.45c0,.17-.07.34-.1.53a1.12,1.12,0,0,0,0,.32v7h1.47V186l0-.39v0a4.48,4.48,0,0,0,2.35,2.92,3.91,3.91,0,0,0,1.88.61,2.09,2.09,0,0,0,1.39-.52l.14.08.28.17L64,211.69l4.29,2.47h0a4.12,4.12,0,0,0,2,.46v-1.79A4.21,4.21,0,0,1,68.3,212.39Z"/>
      <path class="cls-15" d="M68.3,212.39h0l-2.73-1.59-31.5-18.18-10-5.81c-.71-.42-1.29-.56-1.33-.35h0v.46c0,.5-.7.5-1.57,0a2.11,2.11,0,0,1-1.21-1.58v-.5a.73.73,0,0,0-.24-.61l-.23-.13-.5-.29-.61-.36a.65.65,0,0,0-.78.08.11.11,0,0,0-.07.06.85.85,0,0,0-.14.19.44.44,0,0,0-.08.11,1.84,1.84,0,0,0-.17.38,2.59,2.59,0,0,0-.14.45c0,.17-.07.34-.1.53a1.12,1.12,0,0,0,0,.32v7h1.47V186l0-.39v0a4.48,4.48,0,0,0,2.35,2.92,3.91,3.91,0,0,0,1.88.61,2.09,2.09,0,0,0,1.39-.52l.14.08.28.17L64,211.69l4.29,2.47h0a4.12,4.12,0,0,0,2,.46v-1.79A4.21,4.21,0,0,1,68.3,212.39Z"/>
      <path class="cls-4" d="M138.43,173.47v1.82a1.4,1.4,0,0,1-.8,1.15h0l-61,35.24-4.25,2.47h0a4.25,4.25,0,0,1-2,.47v-1.79a4.11,4.11,0,0,0,2-.44L75,210.81h0l62.54-36.12A1.37,1.37,0,0,0,138.43,173.47Z"/>
      <path class="cls-16" d="M138.43,173.47v1.82a1.4,1.4,0,0,1-.8,1.15h0l-61,35.24-4.25,2.47h0a4.25,4.25,0,0,1-2,.47v-1.79a4.11,4.11,0,0,0,2-.44L75,210.81h0l62.54-36.12A1.37,1.37,0,0,0,138.43,173.47Z"/>
      <path class="cls-4" d="M138.43,185.59v1.82a1.4,1.4,0,0,1-.8,1.15h0l-61,35.23-4.25,2.48h0a4.38,4.38,0,0,1-2,.48v-1.83a3.94,3.94,0,0,0,2-.48l2.72-1.57h0l62.54-36.13A1.36,1.36,0,0,0,138.43,185.59Z"/>
      <path class="cls-16" d="M138.43,185.59v1.82a1.4,1.4,0,0,1-.8,1.15h0l-61,35.23-4.25,2.48h0a4.38,4.38,0,0,1-2,.48v-1.83a3.94,3.94,0,0,0,2-.48l2.72-1.57h0l62.54-36.13A1.36,1.36,0,0,0,138.43,185.59Z"/>
      <polygon class="cls-4" points="30.81 195.65 30.81 220.09 34.34 216.01 37.87 224.16 37.87 199.72 30.81 195.65"/>
      <polygon class="cls-10" points="30.81 195.65 30.81 220.09 34.34 216.01 37.87 224.16 37.87 199.72 30.81 195.65"/>
      <path class="cls-4" d="M46.68,227.41V234a6.16,6.16,0,0,1-3.07,5.33l-9.27,5.35,8.84-1-1.79,5.11,9.28-5.35a6.18,6.18,0,0,0,3.07-5.33v-6.65Z"/>
      <path class="cls-10" d="M46.68,227.41V234a6.16,6.16,0,0,1-3.07,5.33l-9.27,5.35,8.84-1-1.79,5.11,9.28-5.35a6.18,6.18,0,0,0,3.07-5.33v-6.65Z"/>
      <path class="cls-11" d="M44.63,226.23l10.58,6.11a28.49,28.49,0,0,0-5.29-3.56C45.85,226.48,44.63,226.23,44.63,226.23Z"/>
    </g>
  </g>
  <g id="freepik--Gavel--inject-80">
    <g id="freepik--Mullet--inject-80">
      <g id="freepik--Base--inject-80">
        <path class="cls-4" d="M274.6,193.74c-15.79-9.11-41.45-9.11-57.26,0-7.89,4.57-11.83,10.55-11.82,16.53v6.19c0,6,3.91,12,11.82,16.53,15.79,9.1,41.45,9.1,57.26,0,7.89-4.57,11.83-10.55,11.82-16.53v-6.19C286.43,204.29,282.51,198.31,274.6,193.74Z"/>
        <path class="cls-10" d="M274.6,193.74c-15.79-9.11-41.45-9.11-57.26,0-7.89,4.57-11.83,10.55-11.82,16.53v6.19c0,6,3.91,12,11.82,16.53,15.79,9.1,41.45,9.1,57.26,0,7.89-4.57,11.83-10.55,11.82-16.53v-6.19C286.43,204.29,282.51,198.31,274.6,193.74Z"/>
        <ellipse class="cls-4" cx="245.97" cy="210.27" rx="40.49" ry="23.38"/>
        <ellipse class="cls-17" cx="245.97" cy="210.27" rx="40.49" ry="23.38"/>
        <path class="cls-4" d="M267.78,190c-12-6.95-31.57-6.95-43.63,0-6,3.48-9,8-9,12.6v4.1c0,4.56,3,9.11,9,12.6,12,6.95,31.58,6.95,43.63,0,6-3.48,9-8,9-12.6v-4.1C276.8,198,273.81,193.43,267.78,190Z"/>
        <path class="cls-11" d="M267.78,190c-12-6.95-31.57-6.95-43.63,0-6,3.48-9,8-9,12.6v4.1c0,4.56,3,9.11,9,12.6,12,6.95,31.58,6.95,43.63,0,6-3.48,9-8,9-12.6v-4.1C276.8,198,273.81,193.43,267.78,190Z"/>
        <ellipse class="cls-6" cx="245.97" cy="202.55" rx="30.85" ry="17.81"/>
      </g>
      <g id="freepik--Mallet--inject-80">
        <path class="cls-8" d="M226.17,187.44c-3.6-2.38-58.25-29.48-63.06-32.13s-4.22-7-3-9,4.2-3.64,8.4-1.38c2.74,1.47,60.87,36.83,60.87,36.83S231.26,184.35,226.17,187.44Z"/>
        <path class="cls-8" d="M224.5,186.48l4-.88a6,6,0,0,0,.46-.54c-3.64-1.78-22.87-11.23-43.11-22.16-22.41-12.14-26.71-15.18-24.73-17.84a5.25,5.25,0,0,0-1,1.22c-1.22,2-1.83,6.4,3,9C167.55,157.74,214.52,181.05,224.5,186.48Z"/>
        <path class="cls-8" d="M269.34,158.35c-7.37-4.25-13.65-2.56-16.13,3.49-.48,1.16-2.31,5.58-2.74,6.68a13.79,13.79,0,0,0-.9,5.16c0,8.86,6.22,19.63,13.9,24.07a14,14,0,0,0,4.93,1.82l7.08,1c6.51.9,11.14-3.7,11.14-12.21C286.62,177.26,278.88,163.86,269.34,158.35Z"/>
        <path class="cls-8" d="M263.47,165.63c-7.68-4.43-13.9-.83-13.9,8s6.22,19.64,13.9,24.07,13.89.84,13.89-8S271.14,170.08,263.47,165.63Z"/>
        <path class="cls-4" d="M246,166.85c2.7-1.55,6.42-1.33,10.53,1.05,8.3,4.73,15,16.33,15,25.86,0,4.76-1.68,8.1-4.38,9.66-.91.52-25,14.62-26,15.15-2.7,1.56-6.43,1.34-10.56-1-8.25-4.77-14.94-16.39-14.94-25.89,0-4.77,1.67-8.11,4.38-9.66C220.93,181.46,245.08,167.34,246,166.85Z"/>
        <path class="cls-15" d="M246,166.85c2.7-1.55,6.42-1.33,10.53,1.05,8.3,4.73,15,16.33,15,25.86,0,4.76-1.68,8.1-4.38,9.66-.91.52-25,14.62-26,15.15-2.7,1.56-6.43,1.34-10.56-1-8.25-4.77-14.94-16.39-14.94-25.89,0-4.77,1.67-8.11,4.38-9.66C220.93,181.46,245.08,167.34,246,166.85Z"/>
        <path class="cls-11" d="M223.22,211l46.3-26.89a27.34,27.34,0,0,1,2,9.62c0,4.76-1.68,8.1-4.38,9.66-.91.52-25,14.62-26,15.15-2.7,1.56-6.43,1.34-10.56-1A27.57,27.57,0,0,1,223.22,211Z"/>
        <path class="cls-8" d="M230.59,183c-8.26-4.77-15-.91-15,8.63s6.68,21.13,15,25.89,14.95.91,14.95-8.63S238.85,187.76,230.59,183Z"/>
        <path class="cls-8" d="M240.05,211.26c0-8.86-6.22-19.64-13.89-24.07a13.69,13.69,0,0,0-5.26-1.82l-7.17-.82c-6.4-.77-10.93,3.82-10.93,12.24,0,11,7.73,24.42,17.27,29.93,7.29,4.2,13.49,2.61,16-3.27.52-1.19,2.43-5.66,2.93-6.74A13.53,13.53,0,0,0,240.05,211.26Z"/>
        <path class="cls-6" d="M220.07,186.79c-9.54-5.5-17.27-1-17.27,10s7.73,24.42,17.27,29.93,17.28,1,17.28-10S229.62,192.31,220.07,186.79Z"/>
      </g>
    </g>
  </g>
  <g id="freepik--Character--inject-80">
    <g id="freepik--Justice--inject-80">
      <g id="freepik--Stand--inject-80">
        <path class="cls-8" d="M190.91,231.66a33.24,33.24,0,0,0-7.29-5.57c-17.19-9.94-45.12-9.94-62.32,0a33.24,33.24,0,0,0-7.29,5.57l-5.65,2.28v10.15h0c0,6.51,4.31,13,12.91,18,17.22,9.94,45.13,9.94,62.35,0,8.6-5,12.91-11.48,12.91-18V233.94Z"/>
        <ellipse class="cls-8" cx="152.47" cy="233.83" rx="44.08" ry="25.45"/>
        <path class="cls-6" d="M152.47,209.54c11.57,0,22.43,2.59,30.59,7.28,7.95,4.59,12.33,10.63,12.33,17s-4.38,12.4-12.33,17c-8.16,4.7-19,7.28-30.59,7.28s-22.44-2.59-30.59-7.28c-7.95-4.59-12.33-10.63-12.33-17s4.38-12.4,12.33-17c8.15-4.7,19-7.28,30.59-7.28m0-1.16c-11.28,0-22.56,2.48-31.17,7.45-17.22,9.94-17.22,26.06,0,36,8.61,5,19.89,7.45,31.17,7.45s22.56-2.49,31.17-7.45c17.22-9.94,17.22-26.06,0-36C175,210.86,163.75,208.38,152.47,208.38Z"/>
        <path class="cls-8" d="M184.3,220.28a27.63,27.63,0,0,0-6-4.62c-14.26-8.22-37.36-8.22-51.61,0a27.87,27.87,0,0,0-6,4.62L116,221.83v8.77h0c0,5.39,3.56,10.78,10.69,14.9,14.26,8.23,37.37,8.23,51.61,0C185.41,241.38,189,236,189,230.6v-8.77Z"/>
        <path class="cls-6" d="M152.47,201.1c-9.34,0-18.68,2.06-25.81,6.18-14.26,8.23-14.26,21.57,0,29.81,7.13,4.11,16.47,6.16,25.81,6.16s18.68-2.05,25.81-6.16c14.26-8.24,14.26-21.58,0-29.81-7.13-4.12-16.47-6.18-25.81-6.18Z"/>
      </g>
      <g id="freepik--justice--inject-80-2" data-name="freepik--justice--inject-80">
        <path id="freepik--Hair--inject-80" class="cls-8" d="M153.45,13.66c-5.19-1.82-12.43-.49-15.22,3.43a23.6,23.6,0,0,0-3.92,13.41c0,4.46,1.29,5.75-5.23,9.56s-2.21,11.31-4.83,14.9-7.83,2.7-12.56,5.88S106,71.32,107.77,74.52s2.28,8.06-1.14,8.53-3-2.71-3-2.71-2.12,3.11,1.56,6.21,8.81.9,10.85-1.47a13.15,13.15,0,0,0,2.69,13.06c5.47,6.28,15,2.53,15,2.53s3.25,6.51,14.87,4.81,16.7-23.34,15.58-36c-.51-5.86-2.84-18.27-5.2-29.91C169.29,18.46,153.45,13.66,153.45,13.66Z"/>
        <g id="freepik--Arm--inject-80">
          <path class="cls-18" d="M211.32,29.48c-1.73,2.34-6.4,6.36-10.33,9.46-3.57,2.82-8.23,6.12-8.23,6.12-3.28-.47-7.17-.81-11.09-1.21-4.56-.47-9.19-.07-10.1-.81a15.48,15.48,0,0,0-11.41-3l5.92,13.79c4.7,1.51,24.08,1.49,26.36,1.51,2.87,0,4.4.16,6.13-1.54s4-3.51,5.67-5.46c3.09-3.55,6.07-7.94,7.83-9.79Z"/>
          <path class="cls-18" d="M207,33.91c2.46-2.53,3.75-3.49,3.42-6.16s-1.1-4.14-1-4.77,1.89-3.45,2.31-4.77a2.23,2.23,0,0,1,2-1.87c1.16-.28,3.65-.84,4.33-1.13a1.67,1.67,0,0,1-.68,2.26h0l-1.59,1s1.05,1,1.54,1.39.46.81,0,2.39c0,0,.74.22.91.76a3.23,3.23,0,0,1-.08,1.66,1.48,1.48,0,0,1,.75.6c.27.45,0,1.77-.37,2.91-.29,1.35-.17,3.09-.5,4.25s-1.9,2.27-3,3l-7,8.16L200,39.71S205.2,35.76,207,33.91Z"/>
          <path class="cls-19" d="M211,23.31a5,5,0,0,0,1.59-2.83c.16-1.09.27-2.3.61-2.36.6-.09,1.82.91,1.71,2.7s-.66,3.76-.66,4.25a8,8,0,0,0,1,2.43,4.66,4.66,0,0,1-.91,5.24,4.27,4.27,0,0,0,1.86-2.61c.61-1.95-.76-3.68-1.09-4.55s-.4-1,0-2.64.76-3.31-.61-4.67-1.82-.56-2,0S212.43,22,211,23.31Z"/>
          <path class="cls-19" d="M215.83,18.49l-1,.67.39.24a1.4,1.4,0,0,1,1.51-.09Z"/>
          <path class="cls-19" d="M217.39,22.27c-.12.53-.6,2.14-.71,2.46s-.7.3-1.12-.25A2.2,2.2,0,0,1,215,23a2.38,2.38,0,0,0,.3,1.71c.51.72,1.08.75,1.41.61S217.12,23.39,217.39,22.27Z"/>
          <path class="cls-19" d="M218.23,24.68c-.09.4-.3.92-.57,2-.16.61-.23,1-.61,1a1.61,1.61,0,0,1-1.12-1.46,5.53,5.53,0,0,1,.15-1.28l-.31-.1a4.23,4.23,0,0,0-.07,2c.26.87,1.21,1.46,1.56,1.18s.43-.61.61-1.55S218.23,24.68,218.23,24.68Z"/>
          <path class="cls-19" d="M217.35,27.81c0,.26.17.82.6.79a1,1,0,0,0,.66-.38.79.79,0,0,1-.68.61c-.52,0-.83-.46-1-.9Z"/>
        </g>
        <path id="freepik--Leg--inject-80" class="cls-18" d="M187.58,154c2.42-10.56,0-14.18-2.33-22-2.82-9.48-7.25-17.38-9.8-26.63l-21.13,13.6c6.89,12.92,11.84,20.65,15.79,32-2.34,6.16-5,10.28-5.59,17.7-.61,7.74.61,24.58-.22,30.87s-2.63,7.78-2.43,9.85c.28,3.43,3.4,4.13,4.76,4.92,3.44,2,3.93,4.56,6.6,6.65s7.19,2.15,10,1c3.4-1.41,3.19-3.19-.32-4.47-2.75-1-5.16-4-7.8-8.1-2.09-3.26-3.22-4.14-1.45-10.77C176.11,189.25,185.12,164.53,187.58,154Z"/>
        <g id="freepik--Dress--inject-80">
          <g id="freepik--dress--inject-80-2" data-name="freepik--dress--inject-80">
            <path class="cls-4" d="M186,159.56c-.74,1.36-1.65,3.24-2.65,5.47h0c-.23.46-4.13,8.13-8.6,16.56-4.62,8.7-11.91,26.29-11.91,26.29-2.88,7.38-7.1,14.51-15,17.74-11.5,4.7-26.48,2.92-29.63.07,0,0,0-5.89,3.31-7.28a78.54,78.54,0,0,1,8.68-2.92c-.36-1.71-.27-3.86,1-4.8,0,0,1-6.49,0-9.6s-2.64-5.46-.73-7.62c0,0-1.58-10.1,0-16.34s3.24-6.68,3.41-11.23-2.48-16.24-3.41-21.09-2.08-7.85,0-9.44a124.33,124.33,0,0,1,1.05-17.68c1.55-11.12,4.31-16.71,4.31-16.71s.46-7.2,3.43-5.85c2.48-3.29,5-5.61,5.63-8.08.27-1.07-1.66-4.76-2.95-7.7q-.13-.31-.27-.6c-1.62,0-1.14-2.16-1.13-2.18a33.64,33.64,0,0,1,4.35-4.81c5.08-4.43,11.64-6.68,14.84-14.68s-1.19-16.84-1.19-16.84a6.84,6.84,0,0,1,7.78,3.39,11.25,11.25,0,0,1,1.41,6.55c1.83,2.64,3.57,5.29,5.26,7.77s4.11,8.87-1.63,13.51L170.31,83c1.16-1.37,2.48,2.58,2,5.88,0,0,1.79.21,2.19,3.12.23,1.67,3.18,16.72,5.18,19.56s4.69,5.11,3.68,8.66c0,0,5.69,16.93,6.68,23.11S190.05,152.23,186,159.56Z"/>
            <path class="cls-20" d="M190.05,143.36a87.46,87.46,0,0,0-2.12-8.55c-2-6.89-4.57-14.57-4.57-14.57h0a4.48,4.48,0,0,0,.11-.5c.61-3.26-1.87-5.46-3.79-8.15a8.5,8.5,0,0,1-.81-1.66c-1.57-4-3.38-12.53-4.08-16.26-.15-.81-.26-1.39-.29-1.65-.4-2.91-2.19-3.12-2.19-3.12a10.82,10.82,0,0,0-.05-3.36,4.87,4.87,0,0,0-1.06-2.64.56.56,0,0,0-.79,0,.39.39,0,0,0-.08.1h0l.3-3.31.75-8.25c5-4,3.8-9.42,2.3-12.37A9.21,9.21,0,0,0,173,58c-1.69-2.49-3.42-5.14-5.26-7.77a11.37,11.37,0,0,0-1.41-6.56,10.58,10.58,0,0,0-.68-1,6.49,6.49,0,0,0-3.23-2.29,7.69,7.69,0,0,0-3.87-.12c0,.06,4.35,8.88,1.16,16.89S150,67.38,144.88,71.81a33.64,33.64,0,0,0-4.35,4.81,2.62,2.62,0,0,0,.14,1.68l.05.06.07.1a1.13,1.13,0,0,0,.87.34h0a.47.47,0,0,0,.06.15c.08.15.14.3.21.46.88,2,2,4.32,2.62,6a3.9,3.9,0,0,1,.33,1.75,5.07,5.07,0,0,1-.24.72c-.88,2.2-3.15,4.39-5.39,7.36h0a1.41,1.41,0,0,0-1.42,0,3.84,3.84,0,0,0-1.31,2.07h0a16.6,16.6,0,0,0-.69,3.64V101h0a45.79,45.79,0,0,0-2.92,9.11c-.5,2.15-1,4.66-1.39,7.56-.53,3.82-.79,7.53-.93,10.56-.05,1-.08,1.9-.1,2.72-.07,2.7,0,4.41,0,4.41-2.08,1.59-.93,4.59,0,9.44.26,1.34.65,3.2,1.07,5.3.87,4.51,1.94,10,2.23,13.68a.33.33,0,0,1,0,.14v0a18.52,18.52,0,0,1,.06,2,4.25,4.25,0,0,1,0,.8,11.91,11.91,0,0,1-1.05,4,36.06,36.06,0,0,0-2.3,6.44c-1.57,6.24,0,16.34,0,16.34a3.28,3.28,0,0,0-.87,2.1v.09a2,2,0,0,0,0,.35v.1c.13,1.46,1,3.08,1.59,5,1,3.11,0,9.6,0,9.6-1,.73-1.21,2.19-1.14,3.6a10,10,0,0,0,.17,1.22,78.54,78.54,0,0,0-8.68,2.92,4.35,4.35,0,0,0-2.11,2.08,13.12,13.12,0,0,0-1.22,5.19,11.77,11.77,0,0,0,5,2,41.74,41.74,0,0,0,8.85.83,43.48,43.48,0,0,0,15.79-2.9,22.58,22.58,0,0,0,2.43-1.17c6.38-3.59,10-10,12.61-16.57,0,0,7.29-17.61,11.91-26.29,4.47-8.43,8.36-16.09,8.6-16.56h0c.3-.66.61-1.29.87-1.9l.14-.3c.07-.13.12-.25.18-.38.53-1.11,1-2.08,1.46-2.88C190.05,152.23,191.06,149.55,190.05,143.36Z"/>
          </g>
          <g id="freepik--Lights--inject-80">
            <path class="cls-21" d="M165,73.23a9.28,9.28,0,0,1-11,4.72c-3.61-1.12-5.47-3.64-5.58-5.89.46-.34,1-.69,1.47-1,1.21-.83,2.42-1.65,3.52-2.48a3.56,3.56,0,0,1,.4.61A7.16,7.16,0,0,0,161,72.89C164.74,72.49,165.88,70.82,165,73.23Z"/>
            <path class="cls-21" d="M171.07,84.38c.73,1.46,1.15,8.3-2,14.57s-8.54,12.26-14.43,15-12.47-.39-14.09-3.83c0,0,4.36,6.14,13.79,1.59S168.26,98,169.05,94.27,170.76,83.23,171.07,84.38Z"/>
            <path class="cls-21" d="M174.4,118.91c-.71,7.26-4.25,21.71-11.44,28.88s-17.67,7.89-22.74,3.83-.89-3.38,2.77-2.64a21.23,21.23,0,0,0,18.51-5C168.69,137.66,173.78,125.15,174.4,118.91Z"/>
            <path class="cls-21" d="M179.46,113.31c1.46,1.7,3.59,4,2.27,7.66s-3.27,9.25-6.07,18.68-4,19.13-10.43,26-16.69,9.58-16.69,9.58,11.21-3.91,16.1-13.41,6.68-13.33,8.75-21.68S180.06,122.4,179.46,113.31Z"/>
            <path class="cls-22" d="M165.52,61.29c-1.38,2.32-.61,6.92,1.89,8.56,1.25.82,3.6.54,5.38-1.67,1.91-2.37,1.59-5.88,1-6.54s-1.36,2.87-3.85,1.67S166.35,59.89,165.52,61.29Z"/>
            <path class="cls-23" d="M184.6,129.2c-1.46-1.56-4,6.3-4.13,9.88s2.95,7.63,3.47,12.15-3,14.66-1.53,13.05,6.35-10,6.54-15.06S185.8,130.52,184.6,129.2Z"/>
          </g>
          <g class="cls-24">
            <path class="cls-5" d="M167.75,48.71a11,11,0,0,0-1-4.32L164.31,46s2.18,2.52,3.47,4.22Z"/>
            <path class="cls-5" d="M170.91,99.85a22.64,22.64,0,0,0,1.4-10.93c-.87,9.44-4,15.13-8.43,20A20.11,20.11,0,0,0,170.91,99.85Z"/>
            <path class="cls-5" d="M162.25,169.93s7.53-2.58,12.27-16.39c5.36-15.59,5.4-20.9,10.08-29.56-.73-2.26-1.22-3.76-1.22-3.76-4.64,10.71-7.59,22.21-10.89,33.64S162.25,169.93,162.25,169.93Z"/>
            <path class="cls-5" d="M159.85,186.88c15.25-10.52,22.91-29,22.91-29-8,14.52-16.92,23.61-29.92,30.75-7.81,4.3-14.17,5.69-18.1,5.81h0c-1-5.25.64-10.85,5.26-20.78s-4.62-23.93-5.16-27.07a4.43,4.43,0,0,1,.2-2.62,14.77,14.77,0,0,0,7.34,3.52c7.16,1.29,19.71-2.37,25.8-14.12s6.22-26.15,6.22-26.15c-.55,5.31-3.75,20.68-10.52,28.24s-14,9.68-19.11,9.66a15,15,0,0,1-8.5-2.47c-2.52-7.29-1.13-25.4,0-29.23a7.59,7.59,0,0,1,1.21-2.61,17.52,17.52,0,0,0,2,3.34c3.84,5,13.42,3.84,18.18,0,0,0-9.37,4.86-16-.92a15.56,15.56,0,0,1-2.8-3.21h0s-1.52-2.8-.57-5.26,2.43-1.7,2.43-1.7h0c1.46,1.63,4,2.86,8.6,2.38,11.21-1.19,20-10.55,20.94-22.38-2.48,12.43-11.54,18.48-20.52,20.4-4.34.92-7-.43-8.64-2.08a18.44,18.44,0,0,1,3.7-7.08c3.34-3.78,5.11-3.48,3.92-6.12-1.09-2.43-3.6-8.89-5.24-11.9A35,35,0,0,1,149.77,71c6.6-4.48,12.18-8.55,12.63-17.52s-3.86-13.25-3.86-13.25,4.37,8.86,1.16,16.88-9.76,10.25-14.84,14.68a34.26,34.26,0,0,0-4.35,4.82,3.08,3.08,0,0,0-.07.61h0a2.18,2.18,0,0,0,0,.51v0a1.42,1.42,0,0,0,0,.2v.06a1,1,0,0,0,.11.23h0l0,.06v.05a.05.05,0,0,0,0,0h0l.1.1.05,0,.13.07.06,0,.22.06h.28a.52.52,0,0,0,.06.16,4.69,4.69,0,0,1,.21.45c.88,2,2,4.32,2.62,5.95a3.9,3.9,0,0,1,.33,1.75,4.34,4.34,0,0,1-.24.72c-.87,2.21-3.15,4.39-5.39,7.36h0a1.44,1.44,0,0,0-1.42,0,3.87,3.87,0,0,0-1.31,2.07h0a16.83,16.83,0,0,0-.69,3.64V101h0a45.79,45.79,0,0,0-2.92,9.11c-.49,2.15-1,4.66-1.39,7.57-.53,3.81-.79,7.52-.93,10.55,0,1-.08,1.9-.1,2.73-.07,2.69,0,4.4,0,4.4h0c-2.08,1.59-.93,4.59,0,9.44.26,1.34.65,3.21,1.08,5.3.06.35.13.7.21,1.07h0c.46,2.29.94,4.78,1.33,7.11a.63.63,0,0,0,0,.27l.11.66,0,.35a5.39,5.39,0,0,0,.08.56c0,.19.05.26.06.39s.05.32.07.48l.05.42.06.42,0,.44a1,1,0,0,0,0,.3c.05.37.08.72.11,1.05v.24c0,.23,0,.45,0,.66v1.37c0,.5-.06,1-.12,1.48v.18l.05.52a.65.65,0,0,1-.05.2c0,.07,0,.25-.08.37l-.05.2c0,.12-.07.23-.1.34s0,.14-.06.2l-.12.35-.18.45,0,.14-.17.42h0c-.34.78-.73,1.61-1.14,2.69h0c-.09.23-.19.49-.28.76v0c-.09.27-.18.54-.27.83v.06c-.09.29-.18.61-.28.92v.07l-.28,1.05h0c-.06.23-.11.46-.16.69a.39.39,0,0,1,0,.23l-.09.51a2.17,2.17,0,0,1,0,.25c0,.19-.06.38-.08.57v.19c0,.25-.06.51-.09.76v.22c0,.19,0,.38,0,.57v4.4a.33.33,0,0,0,0,.14v1.75l0,.61v.11c0,.5.08,1,.11,1.42v.08a3,3,0,0,0,.06.6v0h0c.18,1.93.38,3.21.38,3.21h0a3.34,3.34,0,0,0-.88,2.1v.54c.14,1.46,1,3.08,1.6,5a18.83,18.83,0,0,1,.37,6.11h0c-.13,1.94-.37,3.49-.37,3.49-1,.73-1.22,2.19-1.14,3.61a10,10,0,0,0,.16,1.21h0a79.51,79.51,0,0,0-8.64,2.9,3.92,3.92,0,0,0-1.52,1.18c-1.76,2.2-1.78,6.07-1.78,6.07h0a2.91,2.91,0,0,0,.33.26h0l.37.25h0l.4.21h.06l.45.21.06,0,.53.2h0a20.22,20.22,0,0,0,2,.61l.17,0c.19,0,.37.09.56.12l.25.06.53.1.29.06.53.08.3.05.61.09.22,0c.61.07,1.17.14,1.78.19h0A45.35,45.35,0,0,0,148,225.53c6.51-2.66,10.6-8.06,13.42-14v-.29c-2.28,5.27-11,13.29-23.86,14.31-11.49.92-14.69-1.43-15.79-2.61,1.82-1.61,5.86-2.62,8.95-2.6,4.11,1.09,20.83,2,31.93-17.3-3.23,3.58-9.72,12.31-24.13,15h0a6.79,6.79,0,0,1-3.17-4.17,4,4,0,0,1,1.49-4h0c23-4.43,32-18.28,40.85-38.25,0,0-9,19.65-22.29,28-8,5-14.73,6.8-18.92,7.4-.71-2.8-2.21-6.21-2.74-8.15a4.5,4.5,0,0,1,0-2.52C138.39,196.72,148,195.08,159.85,186.88Z"/>
            <path class="cls-5" d="M167.2,70.61c.07.25,1.21,4,3.87,4.3l.31-3.45A9,9,0,0,0,175,65a10.12,10.12,0,0,1-2.43,4.43c-1.29,1.36-3.07,2.31-5.32,1.21Zm3.6,1.1a3.64,3.64,0,0,1-3-.57,3.68,3.68,0,0,0,3,.57Z"/>
            <path class="cls-5" d="M176.27,105.26a10.05,10.05,0,0,0-.05-1.28C176.24,104.41,176.26,104.84,176.27,105.26Z"/>
            <path class="cls-5" d="M168.51,142c-6.34,13.44-15.52,16-20.95,15.15,0,0,8.74,4.2,17.68-7.22s11.64-28.38,11-44.62C176.38,112,174.43,129.42,168.51,142Z"/>
            <path class="cls-5" d="M164.15,49.71a42.29,42.29,0,0,1,.46,8.56,34.19,34.19,0,0,1-1.68,8.55C165.79,62.51,166,54.32,164.15,49.71Z"/>
            <path class="cls-5" d="M167.75,66.82a21.25,21.25,0,0,0,.43-11.47c-1.34-6.32-4.71-9.2-4.71-9.2a25.64,25.64,0,0,1,4,9.56A46.41,46.41,0,0,1,167.75,66.82Z"/>
            <path class="cls-5" d="M158.29,79.26A10.21,10.21,0,0,1,148,74.69s2.42,9.36,10.06,9,8-11.54,8-11.54C165.18,75.85,162.88,78.67,158.29,79.26Z"/>
          </g>
          <g id="freepik--Ties--inject-80">
            <g id="freepik--ties--inject-80-2" data-name="freepik--ties--inject-80">
              <path class="cls-6" d="M146.77,87.13a30.47,30.47,0,0,0,11.38-2.34c7.37-.38,11.3-3.47,12.43-4.52l.1-.85a.24.24,0,0,0-.17.09S167.13,83.15,159.9,84A36.53,36.53,0,0,0,171,76.21l.1-1.09c-1,1.58-6,6.2-13,9-.33,0-.65,0-1,0A33.23,33.23,0,0,1,143,81.67l.38.84a34.19,34.19,0,0,0,13,2.32,28.57,28.57,0,0,1-11.48,1.6,2.47,2.47,0,0,1,0,.61C145.53,87.1,146.15,87.13,146.77,87.13Z"/>
              <path class="cls-6" d="M170.33,83.06l.12-1.38h0c-2.92,4.86-5.79,7.53-13.42,8.71-5.46.85-9.22,0-11.23-1.33h0a5,5,0,0,1-1.11-.93.23.23,0,0,0-.1-.07l-.27.55a5.6,5.6,0,0,0,1.21,1c.9.82,6.17,4,14.21,4a24.87,24.87,0,0,1-4.7,1.9c-7.42,2.15-12-.5-14.19-2.36l-.38.47a13.91,13.91,0,0,0,9.25,3.3,19.42,19.42,0,0,0,5.46-.83A24.9,24.9,0,0,0,161,93.63a30.67,30.67,0,0,0,5.22-.66c.16-.24.32-.48.47-.72a36,36,0,0,1-4.62.71A21,21,0,0,0,170.33,83.06Zm-9.46,10a27.76,27.76,0,0,1-11.6-2,18.54,18.54,0,0,0,3.64.33,26.21,26.21,0,0,0,4.25-.35c6-.92,9.2-2.84,11.7-5.88a22.59,22.59,0,0,1-8,7.88Z"/>
              <path class="cls-6" d="M142.57,80.82A24.35,24.35,0,0,0,150.39,82a27.92,27.92,0,0,0,20.9-9.24l.09-1c-11.48,13-26.6,9.52-29.14,8.27A5.21,5.21,0,0,0,142.57,80.82Z"/>
            </g>
          </g>
        </g>
        <g id="freepik--Chest--inject-80">
          <path class="cls-19" d="M135.81,72.42c-3-1.71-5.36-6.79-5.36-11.35,0-2.56.76-4.41,2-5.24a3,3,0,0,1,3.41.09c3,1.7,5.37,6.78,5.37,11.35a7.11,7.11,0,0,1-1.4,4.74A3,3,0,0,1,135.81,72.42Z"/>
          <path class="cls-18" d="M158.54,40.25h0a12.7,12.7,0,0,0-1.5.39c-.33.15-.72.35-1.15.57V37.56l-12.41,0,0,9.16a2.75,2.75,0,0,1-1.32,2.38c-1.67,1-4.44,2.67-5.46,3.32a28.61,28.61,0,0,0-4.59,3.7h0c-1,.91-1.68,2.66-1.68,5,0,4.56,2.4,9.63,5.36,11.34a3,3,0,0,0,.44.22h0a10.35,10.35,0,0,1,4.25,4h0a33.64,33.64,0,0,1,4.35-4.81c5.08-4.43,11.64-6.68,14.84-14.68S158.54,40.25,158.54,40.25Z"/>
          <path class="cls-19" d="M156.67,51.63c0-3.42-.34-6.39-.36-14.07h-.41s0,4.25.09,7.58c-9.72-.45-11.76-6.88-11.76-6.88a7.84,7.84,0,0,0,5.46,6.68A25.64,25.64,0,0,0,156,46.46l.16,1.5c.29,3,.35,7.62-.86,8.32C156.17,56.06,156.68,55,156.67,51.63Z"/>
          <path class="cls-19" d="M156.46,45.14a6.61,6.61,0,0,0,3.53-.89s-.46,1.21-3.53,1.41Z"/>
          <path class="cls-19" d="M142.22,74.52c-1.47-1-3.45-.5-5-1.29l.23.16.18.12.45.33.1.07c.17.14.34.29.49.44l.12.11c.12.11.23.23.34.34l.16.18.27.31a2.49,2.49,0,0,0,.17.21l.25.34.15.21c.1.15.21.31.31.48s0,.06.06.1h0s.68-.93,1.69-2.11Z"/>
        </g>
        <g id="freepik--Sword--inject-80">
          <polygon class="cls-7" points="164.72 196.22 120.64 134.78 117.02 137.33 160.03 199.5 171.1 210.27 164.72 196.22"/>
          <polyline class="cls-3" points="160.03 199.5 159.06 193.15 118.83 136.05 117.02 137.33"/>
          <polygon class="cls-25" points="164.72 196.22 159.06 193.15 160.03 199.5 171.1 210.27 164.72 196.22"/>
          <path class="cls-6" d="M107.57,140.05c2.86-2,7.78-5.65,6.12-8l-9.88-14.11h-.11a2.11,2.11,0,0,1-2.24-.57c-.68-1,0-2.66,1.63-3.76a4.94,4.94,0,0,1,2.17-.89,3,3,0,0,1,.73,0,1.67,1.67,0,0,1,1.22.61,2.09,2.09,0,0,1-.23,2.3s0,.07-.06.1c1.08,1.55,8.42,12,9.89,14.11,1.66,2.37,6.76-1,9.61-3s3.78.37,1.42,2-5.62,3.52-6.6,6.26a12,12,0,0,0-.9,3h0a10.55,10.55,0,0,0-3.19-.22c-2.9,0-5.77,2.43-8.13,4.1S104.71,142.06,107.57,140.05Z"/>
          <polygon class="cls-4" points="116.46 132.7 118.83 133.3 118.67 135.85 116.22 135.12 116.46 132.7"/>
          <path class="cls-8" d="M109,142.08c2.36-1.66,5.23-4.1,8.13-4.1s3.16.19,3.19.22h0l-1-1.47-3.81-1.13.38-3.76-10.32-14.7a2.38,2.38,0,0,1-.92-.06,1.62,1.62,0,0,1-1.23-1.94s0,0,0-.06a3.85,3.85,0,0,1,1.88-2.32,4.8,4.8,0,0,0-2.17.88c-1.58,1.11-2.31,2.79-1.63,3.76a2.08,2.08,0,0,0,2.24.57h.11c1.22,1.77,8.29,11.85,9.89,14.11s-3.27,6-6.13,8S106.63,143.73,109,142.08Z"/>
          <path class="cls-26" d="M118.38,134.3l-.08.76L117,133.31l.89.24A.7.7,0,0,1,118.38,134.3Z"/>
          <polygon class="cls-14" points="123.21 139.23 163.11 194.91 159.15 192.71 161.43 193.38 123.21 139.23"/>
          <polygon class="cls-14" points="159.57 193.88 164.26 196.8 169.51 207.94 163.87 197.2 159.57 193.88"/>
        </g>
        <g id="freepik--arm--inject-80-2" data-name="freepik--arm--inject-80">
          <path class="cls-18" d="M136.71,52.35c-2.36,1.82-5.85,2.64-7.64,7.17s-1.65,6.73-2.33,8.68c-.31.91-2.49,4.89-3.91,9.11-1.62,4.82-3.54,10.4-4.08,11.6a40.81,40.81,0,0,0-3.79,10c-1.11,5.1-2.26,16.6-2.7,19.51s-2.18,5.36-3.37,8.41c-1.33,3.46-1.14,4.65-.7,5.54s1.32.92,1.87,1.93,1,.67,1.5,1.54,1,.08,1,.08,4.1-4.91,5.13-5.51a.71.71,0,0,1,.93.24,6.78,6.78,0,0,0,2.26-.57c-.3-1.33-.68-2.64-1.11-3.93-.79-2.35-.61-5.13.71-9.16.67-2,2.33-6.5,3.92-10.89s2.79-9.44,3.65-11.32c1.64-3.64,3.34-5.47,5.67-9.72s6-11.3,6-11.3a7.51,7.51,0,0,0,2.49-4C144.65,57.07,136.71,52.35,136.71,52.35Z"/>
          <path class="cls-19" d="M139.72,73.77s1.78-1.58,1.62-7.64c0,0,2.13,4.91-.53,9Z"/>
        </g>
        <g id="freepik--Ribbon--inject-80">
          <path class="cls-4" d="M141,37.87c-1.83,2.43-8.93,5.3-21.16,2.8C108.2,38.3,93.3,42.26,91.08,55.35c0,0,2.26-3.81,5.46-4.59a20.91,20.91,0,0,0-1.1,13.13S95,55.82,103,49.71c5.86-4.5,11.16-4.13,23.48-3.56s15.4-4.21,17-8.63A2.15,2.15,0,0,1,141,37.87Z"/>
          <path class="cls-11" d="M141,37.87c-1.83,2.43-8.93,5.3-21.16,2.8C108.2,38.3,93.3,42.26,91.08,55.35c0,0,2.26-3.81,5.46-4.59a20.91,20.91,0,0,0-1.1,13.13S95,55.82,103,49.71c5.86-4.5,11.16-4.13,23.48-3.56s15.4-4.21,17-8.63A2.15,2.15,0,0,1,141,37.87Z"/>
          <g class="cls-27">
            <path class="cls-5" d="M141,38.83a9.85,9.85,0,0,1-2.81,1.87,20,20,0,0,1-3.35,1.22,19.57,19.57,0,0,1-3,.6,21.61,21.61,0,0,1-2.9.08,50,50,0,0,1-7.82-.76,44.2,44.2,0,0,0-8.5-1,20.51,20.51,0,0,0-9.67,2.65s0,.09,0,.07a26.29,26.29,0,0,1,9.32-2.18,42,42,0,0,1,8.72,1c1.29.23,2.58.45,3.89.57s2.64.17,4,.19a24.55,24.55,0,0,0,3-.08,19.69,19.69,0,0,0,3-.6,12,12,0,0,0,6.25-3.54s0-.13,0-.08Z"/>
            <path class="cls-5" d="M140.57,40.81a8.72,8.72,0,0,1-3.36,2.37,20.92,20.92,0,0,1-4.56,1c-3.39.31-6.73-.29-10.08-.72-.92-.13-1.82-.23-2.77-.29a12.43,12.43,0,0,0-2.86,0c-.07,0-.08.18,0,.2.93.14,1.89.13,2.83.23s1.82.21,2.69.33c1.72.23,3.43.51,5.16.68a28.26,28.26,0,0,0,5.12.08,13.21,13.21,0,0,0,4.51-1.06,10.46,10.46,0,0,0,2-1.28,5.57,5.57,0,0,0,1.32-1.42s0-.09,0,0Z"/>
            <path class="cls-5" d="M113.12,43.05A16.35,16.35,0,0,0,105,44.81a18.14,18.14,0,0,0-6.8,5.46,15.48,15.48,0,0,0-2.08,4.36c0,.07.06.19.1.09A17.27,17.27,0,0,1,101,47.84a19.44,19.44,0,0,1,7.82-4.2,21.62,21.62,0,0,1,4.25-.48s.06-.13,0-.13Z"/>
          </g>
          <path class="cls-11" d="M103,49.71c5.85-4.5,11.16-4.13,23.48-3.56s15.39-4.21,17-8.63a2.21,2.21,0,0,1-2.5.35A5.56,5.56,0,0,1,139.71,39a4,4,0,0,0,1.47.5s-3,5.09-12.63,5.62S112.33,42.71,103,48.78s-7.54,15.14-7.54,15.14S95.06,55.82,103,49.71Z"/>
          <path class="cls-9" d="M96.57,50.76a14.57,14.57,0,0,1,1.25-2.65s-5.37,2.29-6.75,7.24C91.08,55.35,93.34,51.54,96.57,50.76Z"/>
        </g>
        <g id="freepik--Head--inject-80">
          <path class="cls-8" d="M166.94,20.9s.61,1.22-.46,1.41c-.48.09-1.55-.37-1.64-2.5-.14-3.07-2.21-5.36-6.61-6.24-5.36-1.07-7.29,1.67-7.29,1.67l5.53,8.15,6,5.31A2.64,2.64,0,0,0,165.5,27a2.37,2.37,0,0,0-.67-2.65s1.82.53,2.7-.6A1.85,1.85,0,0,0,166.94,20.9Z"/>
          <path class="cls-18" d="M164,32.51c-.29,9.29-2.6,12.7-8,12.63-9.74-.44-11.76-6.88-12.48-7.58l0,0c-1.06,1.21-3.75.29-4.65-1.46s-.81-4.1.94-5a2.71,2.71,0,0,1,3.55.82c.64,1,.3,2.34,1.39,2.07.9-.21.78-3.11.78-3.11,2-.43,3.14-2.54,2.56-5,.61-2.69,3.77-6.23,8.44-2.42,0,0,1.25-3.46,4.41-2.6,1.22.34,3,2.81,3.13,6.8h0C164.07,29.16,164.08,30.84,164,32.51Z"/>
          <path class="cls-8" d="M154.56,32.66a1.11,1.11,0,0,1-2.22-.08,1.11,1.11,0,0,1,2.22.06Z"/>
          <path class="cls-8" d="M153.23,27.08l-2.58,1.54a1.59,1.59,0,0,1,.55-2.13,1.48,1.48,0,0,1,2,.56Z"/>
          <path class="cls-8" d="M163,27.69l-2.81-1.1a1.58,1.58,0,0,1,2-.87,1.47,1.47,0,0,1,.81,1.91Z"/>
          <path class="cls-19" d="M154.58,39.52,157,40a1.22,1.22,0,0,1-1.4,1h0A1.28,1.28,0,0,1,154.58,39.52Z"/>
          <path class="cls-8" d="M162.38,30.84a1.12,1.12,0,1,1-1.11-1.15,1.13,1.13,0,0,1,1.11,1.15Z"/>
          <polygon class="cls-19" points="156.98 30.5 157.89 37.56 161.46 36.23 156.98 30.5"/>
          <path class="cls-6" d="M151,15.24c-1.69-1.41-5.62-.89-7.44-.15-2.17.89-3.74,1.59-5,4.45s-1.18,3.64-1.82,4.92a2.14,2.14,0,0,1-1.27,1.09c-.29.06-.63,0-.86.19a.73.73,0,0,0-.19.45A3.33,3.33,0,0,0,134.6,28a5,5,0,0,0,1.71,2.2,5.25,5.25,0,0,0,3.48.9,2.7,2.7,0,0,1,3.55.82c.64,1,.41,3.5,1.45,3.07,1.58-.65.72-4.12.72-4.12,2-.43,3.14-2.54,2.56-5,.6-2.7,3.77-6.24,8.44-2.43A9,9,0,0,0,151,15.24Z"/>
          <path class="cls-8" d="M147.76,26.12c.13.74,1.18,3.93-1.82,4.86-2.56.79-3.93-1.63-2.7-3.12a1.18,1.18,0,0,0,.67.8c.78.28,2.34-.31,1.68-1.82Z"/>
          <path class="cls-8" d="M155.74,22.85c-1.62-1.36-3-3.51-4.79-3.14-4.15.83-2.91,6.13-2.91,6.13C148.6,23.29,151.48,20,155.74,22.85Z"/>
          <path class="cls-4" d="M143.71,32.9A12.78,12.78,0,0,0,151,36.54c4.6.68,7.09-2.73,8.62-2.73l1,1.25a3.83,3.83,0,0,0,3.4-.65s.87-4,.08-6.82c0,0-.92-.48-6.28-.25a53.53,53.53,0,0,0-16.25,3.43A2.67,2.67,0,0,1,143.71,32.9Z"/>
          <path class="cls-11" d="M143.71,32.9A12.78,12.78,0,0,0,151,36.54c4.6.68,7.09-2.73,8.62-2.73l1,1.25a3.83,3.83,0,0,0,3.4-.65s.87-4,.08-6.82c0,0-.92-.48-6.28-.25a53.53,53.53,0,0,0-16.25,3.43A2.67,2.67,0,0,1,143.71,32.9Z"/>
          <path class="cls-11" d="M163.94,34.41a23.13,23.13,0,0,0,.38-3,4.38,4.38,0,0,1-.8,2.23,3.19,3.19,0,0,1-3.12.15,18.74,18.74,0,0,1-2.34-1.93l1.51,1.93,1,1.25A3.73,3.73,0,0,0,163.94,34.41Z"/>
          <g class="cls-27">
            <path class="cls-5" d="M143.09,31.06a6.08,6.08,0,0,1,2.36.36,11.52,11.52,0,0,0,2.11.29,12.38,12.38,0,0,0,2.11-.08,6.77,6.77,0,0,0,1.85-.69,8.3,8.3,0,0,0-1.1.24c-.36.07-.74.12-1.11.16a14.3,14.3,0,0,1-2.17,0,17,17,0,0,1-2.12-.32,3.52,3.52,0,0,0-1.93,0Z"/>
            <path class="cls-5" d="M143.64,31.75A19.81,19.81,0,0,0,147,33.23a5.85,5.85,0,0,0,3.32.41s0-.06,0-.06c-.54-.08-1.1-.1-1.64-.18a11.31,11.31,0,0,1-1.82-.47c-1.09-.38-2.13-.93-3.25-1.21v0Z"/>
            <path class="cls-5" d="M163.64,31a8.39,8.39,0,0,1-2.18-.13c-.69-.15-1.36-.38-2.06-.49a6.73,6.73,0,0,0-3.29.5c-1.22.41-2.43.81-3.72,1.11a10.27,10.27,0,0,1-3.78.35h0a12.24,12.24,0,0,0,3.82.08,22.31,22.31,0,0,0,3.59-.94c.54-.18,1.06-.39,1.62-.54a4.6,4.6,0,0,1,2-.09c.61.1,1.26.26,1.89.34a7.71,7.71,0,0,0,2.09-.07s0-.13,0-.13Z"/>
            <path class="cls-5" d="M163.19,29.43a6.8,6.8,0,0,1-1.72-.56,12.69,12.69,0,0,0-1.59-.49,8,8,0,0,0-3.51,0c-1.16.28-2.28.68-3.43,1a29.19,29.19,0,0,1-3.69.9h0a30.52,30.52,0,0,0,3.8-.45c1.16-.23,2.26-.67,3.4-1a8.85,8.85,0,0,1,3.55-.13,10.58,10.58,0,0,1,1.58.34,4.67,4.67,0,0,0,1.6.41s0-.08,0-.08Z"/>
            <path class="cls-5" d="M157.39,33.35c-.82.33-1.6.75-2.43,1.09a11.63,11.63,0,0,1-2.47.7,13.08,13.08,0,0,1-2.5.09,6.24,6.24,0,0,1-2.34-.75h0a7.43,7.43,0,0,0,2.47,1.06,6.09,6.09,0,0,0,2.55.08,8.24,8.24,0,0,0,2.46-.84c.78-.42,1.46-1,2.28-1.37,0,0,0-.1,0-.08Z"/>
          </g>
          <path class="cls-11" d="M143.71,32.9a12.23,12.23,0,0,0,4,2.72c-1.89-1-3.34-2.83-3.26-3.44s.43-.68,2.13-1.29A1.84,1.84,0,0,0,148,28.76a59.67,59.67,0,0,0-6.55,2A2.67,2.67,0,0,1,143.71,32.9Z"/>
          <path class="cls-6" d="M148,25.84c.12.75,1.18,3.94-1.82,4.86-2.57.8-3.94-1.63-2.71-3.11,0,0,0,1.14.56,1.34.77.27,2.36-.35,1.51-2.11Z"/>
          <path class="cls-8" d="M144.72,28.69c.44-.18.86-.85.4-2.21s-2.07-4.64.17-6.81a4.6,4.6,0,0,0-.71,3.89c.28,1.33,1.77,3.3,1.13,4.79A.94.94,0,0,1,144.72,28.69Z"/>
        </g>
        <g id="freepik--Scale--inject-80">
          <path class="cls-4" d="M188.6,96.94c-.06,4.25,3.55,6.49,8,6.49s7.95-2.24,7.95-6.49Z"/>
          <path class="cls-15" d="M188.6,96.94c-.06,4.25,3.55,6.49,8,6.49s7.95-2.24,7.95-6.49Z"/>
          <path class="cls-4" d="M190.93,100.19c-3.11-1.82-3.11-4.7,0-6.5a12.4,12.4,0,0,1,11.24,0c3.1,1.79,3.11,4.69,0,6.49A12.4,12.4,0,0,1,190.93,100.19Z"/>
          <path class="cls-9" d="M191.33,100.39a12.6,12.6,0,0,0,10.44,0c1-1.25.69-2.8-1.12-3.84a9.07,9.07,0,0,0-8.21,0C190.64,97.59,190.27,99.14,191.33,100.39Z"/>
          <path class="cls-8" d="M194.5,101.51h0a.13.13,0,0,1-.13-.14h0l2-25.81a.14.14,0,0,1,.14-.13h0a.14.14,0,0,1,.13.15h0l-2,25.81a.14.14,0,0,1-.15.13Z"/>
          <path class="cls-8" d="M204.22,95.88a.14.14,0,0,1-.14-.07L196.4,75.62a.15.15,0,0,1,.1-.17.14.14,0,0,1,.17.07l7.67,20.19a.14.14,0,0,1-.07.18h-.05Z"/>
          <path class="cls-8" d="M190.93,93.83h0a.13.13,0,0,1-.1-.17h0l5.63-18.14a.13.13,0,0,1,.17-.09.15.15,0,0,1,.09.18h0l-5.62,18.13A.14.14,0,0,1,190.93,93.83Z"/>
          <path class="cls-4" d="M225.46,75.91c-.06,4.25,3.56,6.49,7.95,6.49s8-2.24,8-6.49Z"/>
          <path class="cls-15" d="M225.46,75.91c-.06,4.25,3.56,6.49,7.95,6.49s8-2.24,8-6.49Z"/>
          <path class="cls-4" d="M227.79,79.15c-3.11-1.79-3.11-4.7,0-6.49a12.43,12.43,0,0,1,11.24,0c3.1,1.79,3.11,4.7,0,6.49A12.37,12.37,0,0,1,227.79,79.15Z"/>
          <path class="cls-9" d="M228.19,79.37a12.67,12.67,0,0,0,10.44,0c1.05-1.26.69-2.81-1.11-3.85a9.09,9.09,0,0,0-8.22,0C227.5,76.56,227.15,78.11,228.19,79.37Z"/>
          <path class="cls-8" d="M231.36,80.48h0a.12.12,0,0,1-.13-.12v0l2-25.82a.14.14,0,0,1,.14-.13h0a.16.16,0,0,1,.13.15h0l-2.06,25.81A.13.13,0,0,1,231.36,80.48Z"/>
          <path class="cls-8" d="M241.12,74.86a.18.18,0,0,1-.14-.1l-7.67-20.18a.14.14,0,0,1,.26-.1h0l7.67,20.19a.13.13,0,0,1-.07.17Z"/>
          <path class="cls-8" d="M227.76,72.8h0a.13.13,0,0,1-.09-.17h0l5.62-18.14a.14.14,0,0,1,.26.08h0l-5.62,18.13A.14.14,0,0,1,227.76,72.8Z"/>
          <path class="cls-6" d="M234.3,48.51a1.81,1.81,0,0,1-.73,1.08,1.05,1.05,0,0,1-.86.15,1.14,1.14,0,0,1-.67-.6,2.46,2.46,0,0,1-.17-1.39,4,4,0,0,1,.39-1.21,4.21,4.21,0,0,1,.76-1,2.2,2.2,0,0,1,1.34-.68,1.37,1.37,0,0,1,.92.25,1.78,1.78,0,0,1,.55.61,3.17,3.17,0,0,1,.35,1.38,5.54,5.54,0,0,1-.56,2.5,6.14,6.14,0,0,1-1.53,2.07,3.78,3.78,0,0,1-.56.4,7.39,7.39,0,0,1-1.78.76,7.76,7.76,0,0,1-2.49.29c-1.64,0-3.12-.36-4.56-.48a14.72,14.72,0,0,0-4.19.15,18.49,18.49,0,0,0-7.6,3.64,40.52,40.52,0,0,0-6.23,6.19c-1.91,2.27-3.67,4.71-5.71,7a16.1,16.1,0,0,1-3.54,3.15,3.35,3.35,0,0,1-1.32.52,2,2,0,0,1-1.61-.48,2.32,2.32,0,0,1-.68-1.4,4.49,4.49,0,0,1,.05-1.32,5.6,5.6,0,0,1,1-2.3,3.41,3.41,0,0,1,1-.89,2,2,0,0,1,.72-.23,1.25,1.25,0,0,1,.82.2,1.28,1.28,0,0,1,.51.66,1.86,1.86,0,0,1,.1.7,3.24,3.24,0,0,1-.28,1.22,3,3,0,0,1-.72,1,1.55,1.55,0,0,1-.61.35.83.83,0,0,1-.76-.13h0a.23.23,0,0,1,0-.33h0a.23.23,0,0,1,.32,0c.16.11.45,0,.66-.27a2.2,2.2,0,0,0,.47-.86,2.46,2.46,0,0,0,.14-1c0-.31-.14-.57-.27-.61a.62.62,0,0,0-.61.13,2.11,2.11,0,0,0-.6.66,4.44,4.44,0,0,0-.67,1.86,3.54,3.54,0,0,0,0,.92,1,1,0,0,0,.3.61c.25.2.67.14,1.21-.27a16.29,16.29,0,0,0,3-3c3.64-4.62,6.92-10,11.9-13.83a23.4,23.4,0,0,1,4-2.55,16.11,16.11,0,0,1,4.57-1.54,15.46,15.46,0,0,1,4.8,0c1.56.2,3,.57,4.41.67a7,7,0,0,0,2-.11,5.9,5.9,0,0,0,.93-.29l.45-.21.37-.23a4.69,4.69,0,0,0,1.21-1.48,4.18,4.18,0,0,0,.54-1.82,1.89,1.89,0,0,0-.13-.81.91.91,0,0,0-.17-.23.2.2,0,0,0-.14-.05,1.11,1.11,0,0,0-.64.31,3.29,3.29,0,0,0-.61.74,2.71,2.71,0,0,0-.35.89,1.47,1.47,0,0,0,0,.83.43.43,0,0,0,.12.17h.22a2.11,2.11,0,0,0,.75-.57h0a.22.22,0,0,1,.3,0A.18.18,0,0,1,234.3,48.51Z"/>
          <path class="cls-6" d="M211.2,55.89c0,2.79,1.4,2.89,3.78,1.52s3.79-3.1,3.79-5.89Z"/>
          <path class="cls-4" d="M216.73,48.72A5.45,5.45,0,0,1,215,52c-.79.45-1.49-.27-1.75-1.27a4.17,4.17,0,0,1,1.75-3C215.87,47.19,216.62,47.64,216.73,48.72Z"/>
          <path class="cls-6" d="M215,45.41a6.19,6.19,0,0,0-2.57,4.92c0,1.88,1.15,3.43,2.57,2.62s2.57-3.69,2.57-5.59S216.4,44.6,215,45.41Zm0,1c1-.6,1.86,0,1.86,1.41a4.92,4.92,0,0,1-.11.93c-.11-1.08-.86-1.53-1.75-1a4.17,4.17,0,0,0-1.75,3,3.58,3.58,0,0,1-.1-.8A4.46,4.46,0,0,1,215,46.38Z"/>
          <polygon class="cls-4" points="214.98 48.89 215.8 49.69 214.98 51.52 214.17 50.62 214.98 48.89"/>
          <path class="cls-26" d="M215.32,50.35l-.26.54L215,49.41l.3.32A.6.6,0,0,1,215.32,50.35Z"/>
          <path class="cls-6" d="M214.67,46.36a.79.79,0,0,1-.37-.1,1.56,1.56,0,0,1-.58-1.42,3.1,3.1,0,0,1,1.12-2.53.76.76,0,0,1,.82,0,1.56,1.56,0,0,1,.61,1.42,3.12,3.12,0,0,1-1.13,2.53A.85.85,0,0,1,214.67,46.36Zm.61-3.64a.31.31,0,0,0-.17.05,2.59,2.59,0,0,0-.85,2c0,.53.15.86.31,1a.31.31,0,0,0,.26,0,2.59,2.59,0,0,0,.85-2.05,1.16,1.16,0,0,0-.31-.95l-.08,0Z"/>
          <path class="cls-6" d="M215,52.44c-3.57,2.06-7.69,4.15-9,6.48a7.22,7.22,0,0,0-1,4.3Z"/>
          <path class="cls-6" d="M215,52.44c3.56-2,7.7-4.74,9-3.95s1,3.11,1,3.11Z"/>
          <path class="cls-4" d="M224.21,50.19a12,12,0,0,0-5.46.72s2.91-1.92,4.52-1.72C224.36,49.32,224.21,50.19,224.21,50.19Z"/>
          <path class="cls-4" d="M205.74,60.85a33.93,33.93,0,0,1,5.47-5.56,15.22,15.22,0,0,0-4.52,3.5C205.6,60.16,205.74,60.85,205.74,60.85Z"/>
          <path class="cls-6" d="M200.08,65.78a2.52,2.52,0,0,0,0,1.44.81.81,0,0,0,.25.45h0s0,0,.06-.07c.22-.12.47-.61.88-.8a4.46,4.46,0,0,1,1.58-.6.1.1,0,0,1,.12.08h0a2.81,2.81,0,0,1-.57,1.7,2.58,2.58,0,0,1-1.75.88,1.32,1.32,0,0,1-.71-.08,1.21,1.21,0,0,1-.57-.5,1.8,1.8,0,0,1-.2-1,3.17,3.17,0,0,1,.24-.85,2,2,0,0,1,.48-.72.11.11,0,0,1,.13,0,.11.11,0,0,1,0,.08Z"/>
          <path class="cls-6" d="M230,48.38a.57.57,0,0,1,.41.26,2.09,2.09,0,0,1,.19.4,2.8,2.8,0,0,1,.14.85,3.23,3.23,0,0,1-.45,1.74,4.33,4.33,0,0,1-.57.78,1.55,1.55,0,0,1-.86.48,1.91,1.91,0,0,1-.95,0,1.7,1.7,0,0,1-.84-.46.12.12,0,0,1,0-.16h0c.52-.43.89-.67,1.21-.9a1.63,1.63,0,0,1,.47-.25,1.31,1.31,0,0,0,.49-.27,2.64,2.64,0,0,0,.69-1.05,2.14,2.14,0,0,0,.17-.66c0-.22,0-.47-.12-.58h0a.08.08,0,0,1,0-.11A.06.06,0,0,1,230,48.38Z"/>
          <path class="cls-6" d="M196.11,76.22a.87.87,0,0,1-.41-.11,1.23,1.23,0,0,1-.52-1.12,2.88,2.88,0,0,1,1.22-2.31,1,1,0,0,1,1-.06,1.23,1.23,0,0,1,.52,1.12,2.85,2.85,0,0,1-1.22,2.31A1.15,1.15,0,0,1,196.11,76.22Zm.87-3.16a.63.63,0,0,0-.3.1,2.34,2.34,0,0,0-.94,1.82.73.73,0,0,0,.24.61.44.44,0,0,0,.43,0,2.33,2.33,0,0,0,.94-1.83.72.72,0,0,0-.23-.63.36.36,0,0,0-.14,0Z"/>
          <path class="cls-6" d="M233,54.93a.77.77,0,0,1-.41-.11,1.19,1.19,0,0,1-.51-1.11,2.84,2.84,0,0,1,1.21-2.31,1,1,0,0,1,1-.06,1.2,1.2,0,0,1,.51,1.12,2.87,2.87,0,0,1-1.21,2.31A1.14,1.14,0,0,1,233,54.93Zm.87-3.15a.56.56,0,0,0-.29.1,2.32,2.32,0,0,0-1,1.82.74.74,0,0,0,.23.61.49.49,0,0,0,.44-.06,2.31,2.31,0,0,0,.94-1.82.68.68,0,0,0-.23-.6.3.3,0,0,0-.15,0Z"/>
          <path class="cls-8" d="M215,43.2a.13.13,0,0,1-.14-.13h0V24a1.94,1.94,0,0,1-1.51-.16,2.26,2.26,0,0,1-1.48-2.18.11.11,0,0,1,.12-.12h0a.13.13,0,0,1,.13.14h0a2,2,0,0,0,1.29,1.92,1.43,1.43,0,0,0,1.44,0,.14.14,0,0,1,.15,0,.17.17,0,0,1,.09.13V43.1A.14.14,0,0,1,215,43.2Z"/>
        </g>
      </g>
    </g>
  </g>
</svg>
