<svg id="Layer_1" data-name="Layer 1" xmlns="http://www.w3.org/2000/svg" width="100" height="100" viewBox="0 0 100 100">
  <defs>
    <style>
      .cls-1 {
        fill: none;
      }

      .cls-2 {
        fill: #472ea6;
      }

      .cls-18, .cls-3, .cls-4, .cls-8 {
        fill: #fff;
      }

      .cls-10, .cls-11, .cls-13, .cls-14, .cls-15, .cls-3, .cls-4, .cls-5, .cls-7, .cls-8, .cls-9 {
        isolation: isolate;
      }

      .cls-11, .cls-3 {
        opacity: 0.25;
      }

      .cls-4, .cls-9 {
        opacity: 0.4;
      }

      .cls-13, .cls-14, .cls-15, .cls-5, .cls-6, .cls-7, .cls-9 {
        fill: #6c58b8;
      }

      .cls-5 {
        opacity: 0.1;
      }

      .cls-7 {
        opacity: 0.05;
      }

      .cls-15, .cls-8 {
        opacity: 0.15;
      }

      .cls-10 {
        fill: #dad5ed;
        opacity: 0.5;
      }

      .cls-11 {
        fill: #241753;
      }

      .cls-12 {
        fill: #abfff3;
      }

      .cls-13 {
        opacity: 0.35;
      }

      .cls-14 {
        opacity: 0.45;
      }

      .cls-16 {
        opacity: 0.2;
      }

      .cls-17 {
        fill: #cc9ee0;
      }

      .cls-19 {
        fill: #fafafa;
      }
    </style>
  </defs>
  <rect class="cls-1" width="100" height="100"/>
  <g id="freepik--Coin--inject-46">
    <g id="freepik--Con--inject-46">
      <g id="freepik--coin--inject-46-2" data-name="freepik--coin--inject-46">
        <path class="cls-2" d="M67.58,19.68l1.73-3.57-7.48-4.33h0A11.85,11.85,0,0,0,59,10.6c-.34-.09-.7-.16-1-.23a14,14,0,0,0-5.27.15,15.82,15.82,0,0,0-1.91.51,20.51,20.51,0,0,0-2,.76,24.93,24.93,0,0,0-2.52,1.29c-.89.52-1.77,1.1-2.63,1.72-.65.47-1.3,1-1.93,1.52-9.32,7.86-16.66,21.86-18.52,35.33-.13.92-.23,1.82-.31,2.73-.11,1.3-.16,2.6-.16,3.87,0,1,.05,2.06.13,3s.16,1.67.29,2.46.26,1.55.43,2.3h0a22.22,22.22,0,0,0,2.18,5.75c.2.36.41.71.63,1a14,14,0,0,0,3.32,3.59,12.19,12.19,0,0,0,1.22.8h0L38,81.31,39.6,78c.42-.1.84-.21,1.26-.34a22.92,22.92,0,0,0,4.94-2.18,30.62,30.62,0,0,0,2.87-1.93,35.46,35.46,0,0,0,3.55-3C60,63.08,66.11,51.39,68.36,39.75c.33-1.71.57-3.44.73-5.18.13-1.42.19-2.84.19-4.24a36.77,36.77,0,0,0-.5-6A25.62,25.62,0,0,0,67.58,19.68Z"/>
        <path class="cls-3" d="M24.93,43.68l15.21,8.78,2-5.78-15.22-8.8C26.15,39.79,25.51,41.73,24.93,43.68Z"/>
        <path class="cls-3" d="M61.8,11.78h0A12.21,12.21,0,0,0,59,10.6c-.35-.09-.7-.16-1.06-.23a14,14,0,0,0-5.27.15c-.23,0-.47.11-.7.16l15.65,9v0l1.72-3.57Z"/>
        <path class="cls-3" d="M60.17,34l2-2.4L39.37,18.45c-.72.72-1.44,1.48-2.13,2.26Z"/>
        <path class="cls-3" d="M32.41,27.17,52.17,38.58l2.17-5.69L35.94,22.27A54.79,54.79,0,0,0,32.41,27.17Z"/>
        <path class="cls-4" d="M61.8,11.78h0A12.21,12.21,0,0,0,59,10.6c-.35-.09-.7-.16-1.06-.23a14,14,0,0,0-5.27.15,15.66,15.66,0,0,0-1.9.51,19.54,19.54,0,0,0-2,.76,23,23,0,0,0-2.52,1.29c-.9.52-1.77,1.1-2.64,1.72-.65.47-1.29,1-1.92,1.52-8.67,7.32-15.62,20-18,32.54L55.41,67.19a61.92,61.92,0,0,0,13-27.43,50,50,0,0,0,.73-5.18,40.34,40.34,0,0,0,.19-4.24,35.69,35.69,0,0,0-.49-6,25.88,25.88,0,0,0-1.22-4.65l1.73-3.57Z"/>
        <path class="cls-5" d="M38,81.31,39.6,78c.42-.1.84-.21,1.26-.34a22.92,22.92,0,0,0,4.94-2.18,30.62,30.62,0,0,0,2.87-1.93,35.46,35.46,0,0,0,3.55-3,43.87,43.87,0,0,0,3.16-3.38L23.65,48.86c-.18.92-.33,1.85-.46,2.77s-.23,1.83-.3,2.74c-.11,1.3-.17,2.6-.17,3.87,0,1,.05,2.06.13,3s.16,1.67.29,2.46.26,1.54.44,2.3h0a21.65,21.65,0,0,0,2.18,5.75c.2.36.4.71.62,1a14,14,0,0,0,3.32,3.59,14.23,14.23,0,0,0,1.22.8h0Z"/>
        <path class="cls-5" d="M25.78,71.8c.2.35.41.7.62,1A12.59,12.59,0,0,0,31,77.22h0L38,81.31,39.6,78h.07l.11-1.34L24,67.59A21,21,0,0,0,25.78,71.8Z"/>
        <path class="cls-6" d="M76.82,29a24.89,24.89,0,0,0-1.75-6,15.53,15.53,0,0,0-4.6-6.09,11.91,11.91,0,0,0-4.13-2c-.35-.09-.7-.17-1.06-.23a13.75,13.75,0,0,0-5.27.15,15.66,15.66,0,0,0-1.9.51,19.48,19.48,0,0,0-2,.75,26,26,0,0,0-2.52,1.29c-.89.53-1.77,1.1-2.64,1.73-.65.47-1.29,1-1.92,1.52-9.31,7.85-16.63,21.85-18.49,35.32-.12.91-.23,1.83-.3,2.73-.11,1.3-.16,2.6-.16,3.87,0,1.05.05,2.06.12,3s.17,1.66.29,2.45.27,1.55.45,2.3h0a22,22,0,0,0,2.17,5.75c.2.36.41.71.63,1a14,14,0,0,0,3.32,3.59A11.71,11.71,0,0,0,43.65,83a15.19,15.19,0,0,0,5.23-.68,23,23,0,0,0,4.94-2.19,30.51,30.51,0,0,0,2.87-1.92,38.2,38.2,0,0,0,3.56-3C68,67.73,74.13,56,76.35,44.39a48.34,48.34,0,0,0,.73-5.17A40.58,40.58,0,0,0,77.27,35,35.42,35.42,0,0,0,76.82,29Z"/>
        <path class="cls-7" d="M31,53.13c-.18.93-.34,1.86-.46,2.79s-.23,1.83-.31,2.74c-.11,1.3-.16,2.6-.15,3.87q0,1.57.12,3c.07.85.17,1.67.29,2.46s.27,1.54.44,2.3h0a22.33,22.33,0,0,0,2.17,5.75c.2.36.41.71.63,1a14.36,14.36,0,0,0,3.32,3.59,11.89,11.89,0,0,0,6.56,2.35,15.52,15.52,0,0,0,5.24-.68,23.38,23.38,0,0,0,4.93-2.19c.89-.53,1.75-1.11,2.58-1.72Z"/>
        <path class="cls-7" d="M31.4,71.9a20.88,20.88,0,0,0,1.72,4.15c.2.35.41.7.63,1a14,14,0,0,0,3.32,3.58,11.75,11.75,0,0,0,5.3,2.22Z"/>
        <path class="cls-8" d="M34.26,42.15a59.67,59.67,0,0,0-2,5.78l27.6,27.6.38-.35a46.8,46.8,0,0,0,3.38-3.66Z"/>
        <path class="cls-8" d="M43.29,26.52a54.9,54.9,0,0,0-3.54,4.9l30.4,30.4q1.48-2.79,2.7-5.75Z"/>
        <path class="cls-8" d="M46.74,22.7c-.73.72-1.45,1.48-2.15,2.3L73.66,54.06c.4-1.09.79-2.18,1.15-3.29Z"/>
        <path class="cls-8" d="M77.26,32.88h0c0-.58-.07-1.11-.12-1.65a4.69,4.69,0,0,0-.06-.54c0-.18,0-.37-.07-.58-.05-.4-.11-.79-.17-1.15a25.37,25.37,0,0,0-1.76-6,15.4,15.4,0,0,0-4.6-6.08,11.6,11.6,0,0,0-4.13-2c-.34-.09-.69-.16-1-.23a13.75,13.75,0,0,0-5.27.15c-.23,0-.47.11-.7.16Z"/>
        <path class="cls-2" d="M71.3,38.59c0,12.42-7.25,26.77-16.41,32.87-.39.26-.78.5-1.18.73C44,77.8,36.12,71.85,36.12,58.9S44,30.9,53.71,25.29c.4-.23.79-.44,1.18-.63C64,20.18,71.3,26.17,71.3,38.59Z"/>
        <path class="cls-9" d="M71.3,38.59c0,12.42-7.25,26.77-16.41,32.87-.39.26-.78.5-1.18.73C44,77.8,36.12,71.85,36.12,58.9S44,30.9,53.71,25.29c.4-.23.79-.44,1.18-.63C64,20.18,71.3,26.17,71.3,38.59Z"/>
        <path class="cls-2" d="M70.52,39v1.21c-.45,11.58-7.2,24.56-15.66,30.2l-.23.15c-.29.19-.58.38-.9.57a14.68,14.68,0,0,1-5.28,1.93,8.9,8.9,0,0,1-9.28-4.73,18.42,18.42,0,0,1-2.18-8c0-.61-.06-1.23-.06-1.88s0-1.19,0-1.79a32.59,32.59,0,0,1,.43-3.82c1.48-9,6.25-18.07,12.33-23.58a24.75,24.75,0,0,1,2.67-2.11q.66-.45,1.32-.84a8.14,8.14,0,0,1,1.15-.57l.32-.15a11.36,11.36,0,0,1,6.95-1.11c3.54.68,6.26,3.51,7.57,8A23.61,23.61,0,0,1,70.52,39Z"/>
        <path class="cls-10" d="M70.52,39v1.21c-.45,11.58-7.2,24.56-15.66,30.2l-.23.15c-.29.19-.58.38-.9.57a14.68,14.68,0,0,1-5.28,1.93,8.9,8.9,0,0,1-9.28-4.73,18.42,18.42,0,0,1-2.18-8c0-.61-.06-1.23-.06-1.88s0-1.19,0-1.79a32.59,32.59,0,0,1,.43-3.82c1.48-9,6.25-18.07,12.33-23.58a24.75,24.75,0,0,1,2.67-2.11q.66-.45,1.32-.84a8.14,8.14,0,0,1,1.15-.57l.32-.15a11.36,11.36,0,0,1,6.95-1.11c3.54.68,6.26,3.51,7.57,8A23.61,23.61,0,0,1,70.52,39Z"/>
        <path class="cls-2" d="M67.71,38.63V37.42a23.87,23.87,0,0,0-.85-6.56,12.39,12.39,0,0,0-3.62-6.07,8.85,8.85,0,0,0-1.15-.31,11.37,11.37,0,0,0-7,1.1l-.32.15-1.15.58a10.43,10.43,0,0,0-1.31.83,25,25,0,0,0-2.68,2.12C43.6,34.74,38.83,43.87,37.35,52.84a35,35,0,0,0-.43,3.81c0,.61-.05,1.2-.05,1.8s0,1.27.06,1.88a18.49,18.49,0,0,0,2.18,8,10.73,10.73,0,0,0,2.21,2.72,9.32,9.32,0,0,0,4.29.38,14.54,14.54,0,0,0,5.28-1.92,9.53,9.53,0,0,0,.89-.57l.23-.15C60.51,63.19,67.26,50.21,67.71,38.63Z"/>
        <path class="cls-11" d="M67.71,38.63V37.42a23.87,23.87,0,0,0-.85-6.56,12.39,12.39,0,0,0-3.62-6.07,8.85,8.85,0,0,0-1.15-.31,11.37,11.37,0,0,0-7,1.1l-.32.15-1.15.58a10.43,10.43,0,0,0-1.31.83,25,25,0,0,0-2.68,2.12C43.6,34.74,38.83,43.87,37.35,52.84a35,35,0,0,0-.43,3.81c0,.61-.05,1.2-.05,1.8s0,1.27.06,1.88a18.49,18.49,0,0,0,2.18,8,10.73,10.73,0,0,0,2.21,2.72,9.32,9.32,0,0,0,4.29.38,14.54,14.54,0,0,0,5.28-1.92,9.53,9.53,0,0,0,.89-.57l.23-.15C60.51,63.19,67.26,50.21,67.71,38.63Z"/>
        <path class="cls-12" d="M65.28,14.6c-10.16-1.15-18.4,7.27-23.94,14.83-8,11.74-13,26.6-10.25,40.83v0c.9,4,2.71,7.92,6,10.43-3.36-2.46-5.31-6.43-6.26-10.41v0c-2.53-11.63.66-23.86,6-34.26C42.51,25.72,52.17,13.22,65.28,14.6Z"/>
        <g id="freepik--money-sign--inject-46">
          <polygon class="cls-13" points="57.6 42.16 54.22 40.21 60.75 34.64 64.12 36.59 57.6 42.16"/>
          <path class="cls-13" d="M59.67,43.45c-1.73-1.23-4.72-.3-7.26.5l-1.66.54a3,3,0,0,0-.25,1.15c0,2,1.67,1.43,5.29.23a28.16,28.16,0,0,1,3.74-1c.11,1,.8,1.91,3.51.48Z"/>
          <polygon class="cls-14" points="51.31 69.03 47.94 67.08 47.94 63.09 51.31 65.05 51.31 69.03"/>
          <path class="cls-13" d="M57,53.91c0,1.58-1.19,3-3,4-2.81,1.63-3.9.3-4.15-1l-.57-.34A6.73,6.73,0,0,0,50.72,56a6,6,0,0,0,2.74-2.91C55.53,52.39,57,52.12,57,53.91Z"/>
          <path class="cls-13" d="M44.48,63.67a2.21,2.21,0,0,0-1.23-.3q-.11-.32-.18-.63l-3.37-2a4.17,4.17,0,0,0,1.89,2.87h0l3.37,2A1.59,1.59,0,0,0,44.48,63.67Z"/>
          <path class="cls-2" d="M55.79,45.9c-3.62,1.19-5.29,1.72-5.29-.24a3,3,0,0,1,.25-1.15c-2.48.76-3.63.86-3.63-.78,0-1.19.82-2.68,3.05-4s3.72-1,4,.48l6.52-5.57a.59.59,0,0,0-.09-.24A3.94,3.94,0,0,0,61.78,34l-2.69-1.59-.26-.16h0a4.53,4.53,0,0,0-2.56-.42,11,11,0,0,0-3.38.93v-.07l3.38-2-3.38-2h0l-2.3,1.33-3,1.78h0v4c-4.57,3.33-7.43,7.68-7.43,12.38,0,2.15.58,3.36,1.52,4h0l.25.13,2.82,1.6a2.06,2.06,0,0,0-.17-1.27,16.07,16.07,0,0,0,2.65-.58c3.45-1,6.48-2.66,6.48-.12a3.58,3.58,0,0,1-.21,1.12c2.08-.68,3.58-1,3.58.83,0,1.59-1.19,3-3,4-2.82,1.63-3.91.29-4.15-1h0l-.57-.35L46.58,55l-6.86,5.8,3.37,1.95a6,6,0,0,0,.52,1.44A10.94,10.94,0,0,0,48,63.09v1.62L53.29,64V60c4.61-3.4,7.81-8,7.81-12.79a6.33,6.33,0,0,0-.38-2.4A18.62,18.62,0,0,0,55.79,45.9Z"/>
          <path class="cls-15" d="M55.79,45.9c-3.62,1.19-5.29,1.72-5.29-.24a3,3,0,0,1,.25-1.15c-2.48.76-3.63.86-3.63-.78,0-1.19.82-2.68,3.05-4s3.72-1,4,.48l6.52-5.57a.59.59,0,0,0-.09-.24A3.94,3.94,0,0,0,61.78,34l-2.69-1.59-.26-.16h0a4.53,4.53,0,0,0-2.56-.42,11,11,0,0,0-3.38.93v-.07l3.38-2-3.38-2h0l-2.3,1.33-3,1.78h0v4c-4.57,3.33-7.43,7.68-7.43,12.38,0,2.15.58,3.36,1.52,4h0l.25.13,2.82,1.6a2.06,2.06,0,0,0-.17-1.27,16.07,16.07,0,0,0,2.65-.58c3.45-1,6.48-2.66,6.48-.12a3.58,3.58,0,0,1-.21,1.12c2.08-.68,3.58-1,3.58.83,0,1.59-1.19,3-3,4-2.82,1.63-3.91.29-4.15-1h0l-.57-.35L46.58,55l-6.86,5.8,3.37,1.95a6,6,0,0,0,.52,1.44A10.94,10.94,0,0,0,48,63.09v1.62L53.29,64V60c4.61-3.4,7.81-8,7.81-12.79a6.33,6.33,0,0,0-.38-2.4A18.62,18.62,0,0,0,55.79,45.9Z"/>
          <g class="cls-16">
            <path class="cls-6" d="M47.5,35.81a21.27,21.27,0,0,0-6.09,7.36,12.67,12.67,0,0,0-1.15,4.6,8.25,8.25,0,0,0,.14,2.38,3.27,3.27,0,0,0,1.19,2,3.22,3.22,0,0,1-1.38-2,8,8,0,0,1-.27-2.44A12.27,12.27,0,0,1,41,43a16.29,16.29,0,0,1,2.75-4A20,20,0,0,1,47.5,35.81Z"/>
          </g>
          <path class="cls-17" d="M60.7,44.8a18.39,18.39,0,0,0-4.91,1.1c-3.62,1.19-5.29,1.72-5.29-.24a3,3,0,0,1,.25-1.15,6.29,6.29,0,0,1,2.8-2.81c2.38-1.38,3.71-1.05,4,.48l6.53-5.57a3.82,3.82,0,0,0-3.79-2.91,10.21,10.21,0,0,0-4.07,1v-4l-3.38,2-2,1.15v4c-4.58,3.33-7.43,7.68-7.43,12.38a7.06,7.06,0,0,0,.4,2.57c1,2.51,3.78,2.17,6.69,1.31,1-.3,2-.66,2.88-1,2.08-.68,3.58-.95,3.58.83,0,1.59-1.19,3-3,4-2.81,1.63-3.9.3-4.14-1L43,62.74a6.2,6.2,0,0,0,.52,1.44c.89,1.68,2.49,2.14,4.35,1.89a12.84,12.84,0,0,0,3.37-1v4L56.6,66v-4c4.6-3.39,7.81-8,7.81-12.79C64.46,45.7,62.82,44.75,60.7,44.8Z"/>
          <path class="cls-8" d="M49.45,57.33,45.24,60.9l4.68,4.68c.46-.16.92-.33,1.39-.53V67l1.31,1.31,4-2.3V64.56Z"/>
          <path class="cls-8" d="M60.7,44.8a18.39,18.39,0,0,0-4.91,1.1l-1.15.38,8.43,8.43a12.35,12.35,0,0,0,1.41-5.55,8,8,0,0,0-.16-1.63l-2.67-2.68A6,6,0,0,0,60.7,44.8Z"/>
          <path class="cls-8" d="M51.57,43.23a8.28,8.28,0,0,1,2-1.55c2.38-1.39,3.71-1,4,.48l.72-.62-7.43-7.43v3.65A23.71,23.71,0,0,0,48.26,40Z"/>
          <path class="cls-8" d="M58.06,34a13.68,13.68,0,0,0-1.8.63V32.23l-1-1-2.38,1.39-.42.24,7.38,7.37,2.39-2Z"/>
          <path class="cls-8" d="M46.78,54.65,43.54,51.4a5.08,5.08,0,0,0,.32,1.29A3,3,0,0,0,46.78,54.65Z"/>
          <polygon class="cls-2" points="50.88 37.76 47.5 35.81 47.5 31.83 50.88 33.78 50.88 37.76"/>
          <polygon class="cls-13" points="50.88 37.76 47.5 35.81 47.5 31.83 50.88 33.78 50.88 37.76"/>
          <path class="cls-18" d="M56.64,62l.52-.42a6.91,6.91,0,0,0,.58-.49c.21-.19.48-.4.74-.65s.58-.51.85-.81l.45-.46.45-.5c.16-.16.3-.34.45-.52a7.09,7.09,0,0,0,.45-.57c.28-.38.58-.77.84-1.15s.51-.82.76-1.23a9,9,0,0,0,.61-1.25c.17-.42.32-.83.48-1.22.06-.19.11-.39.16-.57l.09-.28a2.56,2.56,0,0,0,.05-.27c.08-.32.14-.64.19-1s.08-.55.09-.76a4.52,4.52,0,0,1,0-.67v.67a10.93,10.93,0,0,1-.22,1.72,1.37,1.37,0,0,1,0,.28c0,.1,0,.18-.08.28s-.1.39-.16.57a11.69,11.69,0,0,1-.46,1.23c-.19.42-.39.85-.61,1.27a8.7,8.7,0,0,1-.75,1.24c-.28.4-.57.8-.86,1.15-.15.19-.3.37-.45.58a4,4,0,0,1-.46.52l-.46.5-.46.45a10.15,10.15,0,0,1-.86.79c-.29.22-.54.45-.77.64s-.44.34-.61.46Z"/>
          <polygon class="cls-19" points="50.88 33.78 56.26 30.66 56.26 34.64 55.9 31.3 50.88 33.78"/>
          <polygon class="cls-19" points="51.31 65.05 51.59 68.51 56.64 65.95 51.31 69.03 51.31 65.05"/>
        </g>
      </g>
      <polygon class="cls-18" points="61.16 14.02 61.61 8.1 62.06 14.02 67.99 14.47 62.06 14.92 61.61 20.85 61.16 14.92 55.24 14.47 61.16 14.02"/>
      <polygon class="cls-18" points="65.81 18.88 66.03 16.01 66.25 18.88 69.11 19.1 66.25 19.32 66.03 22.19 65.81 19.32 62.94 19.1 65.81 18.88"/>
    </g>
  </g>
</svg>
