<svg id="Layer_1" data-name="Layer 1" xmlns="http://www.w3.org/2000/svg" width="100" height="100" viewBox="0 0 100 100">
  <defs>
    <style>
      .cls-1 {
        fill: none;
      }

      .cls-2 {
        fill: #472ea6;
      }

      .cls-3, .cls-4, .cls-5, .cls-8 {
        fill: #6c58b8;
        isolation: isolate;
      }

      .cls-3 {
        opacity: 0.5;
      }

      .cls-4 {
        opacity: 0.35;
      }

      .cls-5 {
        opacity: 0.15;
      }

      .cls-6 {
        fill: #455a64;
      }

      .cls-7 {
        fill: #12263f;
      }

      .cls-8 {
        opacity: 0.3;
      }
    </style>
  </defs>
  <rect class="cls-1" width="100" height="100"/>
  <g id="freepik--Gavel--inject-80">
    <g id="freepik--Mullet--inject-80">
      <g id="freepik--Base--inject-80">
        <path class="cls-2" d="M82.73,53.18c-9.66-5.58-25.37-5.58-35,0-4.83,2.79-7.25,6.45-7.24,10.11v3.79c0,3.66,2.4,7.32,7.24,10.12,9.66,5.57,25.36,5.57,35,0C87.56,74.4,90,70.74,90,67.08V63.29C90,59.63,87.57,56,82.73,53.18Z"/>
        <path class="cls-3" d="M82.73,53.18c-9.66-5.58-25.37-5.58-35,0-4.83,2.79-7.25,6.45-7.24,10.11v3.79c0,3.66,2.4,7.32,7.24,10.12,9.66,5.57,25.36,5.57,35,0C87.56,74.4,90,70.74,90,67.08V63.29C90,59.63,87.57,56,82.73,53.18Z"/>
        <ellipse class="cls-2" cx="65.21" cy="63.29" rx="24.78" ry="14.31"/>
        <ellipse class="cls-4" cx="65.21" cy="63.29" rx="24.78" ry="14.31"/>
        <path class="cls-2" d="M78.56,50.86c-7.37-4.26-19.32-4.26-26.7,0-3.69,2.13-5.52,4.92-5.51,7.71v2.51c0,2.79,1.82,5.57,5.51,7.71,7.37,4.25,19.32,4.25,26.7,0,3.69-2.13,5.52-4.92,5.52-7.71V58.57C84.08,55.78,82.25,53,78.56,50.86Z"/>
        <path class="cls-5" d="M78.56,50.86c-7.37-4.26-19.32-4.26-26.7,0-3.69,2.13-5.52,4.92-5.51,7.71v2.51c0,2.79,1.82,5.57,5.51,7.71,7.37,4.25,19.32,4.25,26.7,0,3.69-2.13,5.52-4.92,5.52-7.71V58.57C84.08,55.78,82.25,53,78.56,50.86Z"/>
        <ellipse class="cls-6" cx="65.21" cy="58.57" rx="18.88" ry="10.9"/>
      </g>
      <g id="freepik--Mallet--inject-80">
        <path class="cls-7" d="M53.09,49.32c-2.2-1.45-35.65-18-38.6-19.66a3.94,3.94,0,0,1-1.86-5.54c.73-1.23,2.58-2.23,5.15-.84C19.45,24.18,55,45.82,55,45.82S56.21,47.43,53.09,49.32Z"/>
        <path class="cls-7" d="M52.07,48.73l2.45-.54c.1-.1.2-.21.29-.32-2.23-1.1-14-6.88-26.39-13.57C14.7,26.87,12.07,25,13.28,23.38a3,3,0,0,0-.63.75c-.74,1.23-1.12,3.91,1.86,5.53C17.21,31.14,46,45.41,52.07,48.73Z"/>
        <path class="cls-7" d="M79.51,31.51c-4.5-2.6-8.35-1.57-9.87,2.14-.29.71-1.41,3.42-1.68,4.09a8.51,8.51,0,0,0-.54,3.16c0,5.42,3.8,12,8.5,14.73a8.34,8.34,0,0,0,3,1.11l4.33.59c4,.55,6.82-2.27,6.82-7.48C90.09,43.09,85.36,34.89,79.51,31.51Z"/>
        <path class="cls-7" d="M75.92,36c-4.7-2.71-8.5-.51-8.5,4.91s3.8,12,8.5,14.73,8.51.52,8.51-4.91S80.62,38.69,75.92,36Z"/>
        <path class="cls-2" d="M65.21,36.72c1.65-.95,3.93-.81,6.45.64,5.07,2.9,9.16,10,9.16,15.83,0,2.91-1,5-2.68,5.91L62.26,68.37c-1.65,1-3.93.83-6.46-.63-5-2.92-9.15-10-9.15-15.85,0-2.92,1-5,2.68-5.91C49.88,45.66,64.66,37,65.21,36.72Z"/>
        <path class="cls-8" d="M65.21,36.72c1.65-.95,3.93-.81,6.45.64,5.07,2.9,9.16,10,9.16,15.83,0,2.91-1,5-2.68,5.91L62.26,68.37c-1.65,1-3.93.83-6.46-.63-5-2.92-9.15-10-9.15-15.85,0-2.92,1-5,2.68-5.91C49.88,45.66,64.66,37,65.21,36.72Z"/>
        <path class="cls-5" d="M51.29,63.76,79.62,47.3a16.56,16.56,0,0,1,1.2,5.89c0,2.91-1,5-2.68,5.91L62.26,68.37c-1.65,1-3.93.83-6.46-.63A16.66,16.66,0,0,1,51.29,63.76Z"/>
        <path class="cls-7" d="M55.8,46.6c-5.06-2.92-9.15-.55-9.15,5.28s4.08,12.94,9.15,15.85S65,68.29,65,62.45,60.85,49.52,55.8,46.6Z"/>
        <path class="cls-7" d="M61.59,63.9c0-5.42-3.81-12-8.51-14.73a8.36,8.36,0,0,0-3.22-1.12s-3.61-.4-4.38-.5c-3.92-.47-6.69,2.34-6.69,7.5,0,6.74,4.73,14.94,10.57,18.31,4.46,2.57,8.26,1.6,9.82-2,.31-.72,1.48-3.46,1.79-4.12A8.5,8.5,0,0,0,61.59,63.9Z"/>
        <path class="cls-6" d="M49.36,48.92c-5.84-3.37-10.57-.63-10.57,6.11s4.73,15,10.57,18.32,10.58.64,10.58-6.11S55.2,52.3,49.36,48.92Z"/>
      </g>
    </g>
  </g>
</svg>
