<svg id="Layer_1" data-name="Layer 1" xmlns="http://www.w3.org/2000/svg" xmlns:xlink="http://www.w3.org/1999/xlink" width="100" height="100" viewBox="0 0 100 100">
  <defs>
    <style>
      .cls-1 {
        fill: none;
      }

      .cls-2 {
        fill: #bbabf5;
      }

      .cls-3 {
        clip-path: url(#clip-path);
      }

      .cls-4 {
        fill: #fd8f25;
      }

      .cls-5 {
        fill: #9182ca;
      }

      .cls-6 {
        fill: #2cffe2;
      }

      .cls-7 {
        fill: #12263f;
      }
    </style>
    <clipPath id="clip-path">
      <rect class="cls-1" x="20.44" y="13.42" width="57.89" height="71.65"/>
    </clipPath>
  </defs>
  <circle class="cls-2" cx="50" cy="50" r="50"/>
  <g class="cls-3">
    <g id="Grupo_17455" data-name="Grupo 17455">
      <path id="Trazado_35725" data-name="Trazado 35725" class="cls-4" d="M49.7,28.65a22.73,22.73,0,0,1,2.92-3.2,11.35,11.35,0,0,1,1.66-1.18,9,9,0,0,0-18,.68,8.63,8.63,0,0,0,1,4,35.78,35.78,0,0,1,5.45,4.45,9,9,0,0,0,4,.25c.29-1.87,1.82-3.56,2.93-5"/>
      <path id="Trazado_35726" data-name="Trazado 35726" class="cls-5" d="M65.65,84.72c1.71,0,3-1.93,2.61-4-1.49-8.53-7.67-14.8-15.08-14.8H46.77c-7.4,0-13.58,6.32-15.07,14.86-.36,2,.91,4,2.61,4Z"/>
      <path id="Trazado_35727" data-name="Trazado 35727" class="cls-6" d="M45.4,48.88s-17.79,7.84-24-15.22c0,0,27.05-1.09,24,15.22"/>
      <path id="Trazado_35728" data-name="Trazado 35728" class="cls-6" d="M47.53,48.92S43.48,26.58,78.34,28.57c0,0-9.8,29.75-30.81,20.35"/>
      <path id="Trazado_35729" data-name="Trazado 35729" class="cls-7" d="M54.14,48.7a20.31,20.31,0,0,1-6.59-1.16l-.39-.14-.1-.4a17.08,17.08,0,0,1,3.07-13.55c4.63-6.16,13.52-9.53,26.42-10l1,0-.26,1a50.73,50.73,0,0,1-3.46,8.91c-4,8-8.54,11.69-11.65,13.36a16.79,16.79,0,0,1-8.06,2.05m-5.69-2.46a16.15,16.15,0,0,0,13-.92c8.67-4.67,13-16.77,14.07-20.33-11.85.61-20,3.76-24.21,9.37a15.88,15.88,0,0,0-2.89,11.88"/>
      <path id="Trazado_35730" data-name="Trazado 35730" class="cls-7" d="M40.9,49.11A18.47,18.47,0,0,1,31,46.35c-5.28-3.32-8.78-9.41-10.38-18.1l-.19-1,1,.12a54.73,54.73,0,0,1,9.12,2.07c6.6,2.09,11.18,5,13.63,8.61a11.77,11.77,0,0,1,1.51,10.06l-.12.42-.42.12a17.62,17.62,0,0,1-4.28.48M45,47.9ZM22.32,29c1.6,7.7,4.79,13.1,9.5,16.06a17.76,17.76,0,0,0,12.55,2.19A10.27,10.27,0,0,0,43,38.88C38.35,32.07,26,29.61,22.32,29"/>
      <path id="Trazado_35731" data-name="Trazado 35731" class="cls-7" d="M46.81,64.42a1,1,0,0,1-1-.94V44.4a.95.95,0,1,1,1.9,0h0V63.48a1,1,0,0,1-.95,1"/>
      <path id="Trazado_35732" data-name="Trazado 35732" class="cls-7" d="M48.27,46.86a.76.76,0,0,1-.45-1.37L65.75,32.32a.76.76,0,0,1,1.06.16.75.75,0,0,1-.16,1.06h0L48.72,46.71a.74.74,0,0,1-.45.15"/>
      <path id="Trazado_35733" data-name="Trazado 35733" class="cls-7" d="M46.59,48.76a.75.75,0,0,1-.46-.15L28.46,35.09A.75.75,0,0,1,28.3,34a.76.76,0,0,1,1.06-.16l0,0L47.05,47.4a.76.76,0,0,1-.46,1.36"/>
      <path id="Trazado_35734" data-name="Trazado 35734" class="cls-7" d="M29.18,85.07a3.57,3.57,0,0,1-2.74-1.34,5.17,5.17,0,0,1-1.05-4.17,23.31,23.31,0,0,1,6.26-12.48,16.49,16.49,0,0,1,11.64-5h7.25a16.51,16.51,0,0,1,11.64,5A23.1,23.1,0,0,1,68.43,79.5a5.11,5.11,0,0,1-1,4.16A3.58,3.58,0,0,1,64.65,85l-35.46.06Zm35.47-.92ZM43.29,63.75a14.62,14.62,0,0,0-10.44,4.54,21.59,21.59,0,0,0-5.78,11.57,3.41,3.41,0,0,0,.67,2.77,1.86,1.86,0,0,0,1.44.73h0l35.46-.06a1.92,1.92,0,0,0,1.44-.74,3.4,3.4,0,0,0,.66-2.77A21.43,21.43,0,0,0,61,68.26a14.66,14.66,0,0,0-10.44-4.51Z"/>
      <path id="Trazado_35735" data-name="Trazado 35735" class="cls-7" d="M46.16,32.2v1.55a0,0,0,0,1,0,0h-1a0,0,0,0,1,0,0h0v-1.5s0,0,0,0a6.23,6.23,0,0,1-2.75-.67.05.05,0,0,1,0,0v-2s0,0,0,0h0a4.39,4.39,0,0,0,1.23.6,5.86,5.86,0,0,0,1.49.34,0,0,0,0,0,0,0h0V27.79s0,0,0,0a5.85,5.85,0,0,1-2.35-1.39,2.88,2.88,0,0,1-.49-.89,2.93,2.93,0,0,1,1.27-3.39,3.77,3.77,0,0,1,1.56-.5,0,0,0,0,0,0,0V20.24a0,0,0,0,1,0,0h1s0,0,0,0h0v1.29a0,0,0,0,0,0,0,5.64,5.64,0,0,1,2.29.49.05.05,0,0,1,0,0V24s0,0,0,0h0a5.49,5.49,0,0,0-2.25-.74s0,0,0,0h0v2.74a.05.05,0,0,0,0,0,6,6,0,0,1,2.31,1.33,2.56,2.56,0,0,1,.71,1.82,2.65,2.65,0,0,1-.79,2,3.72,3.72,0,0,1-2.22.91,0,0,0,0,0,0,0m-1.08-6.58V23.37a0,0,0,0,0,0,0h0a1,1,0,0,0-1,1.07c0,.5.32.91,1,1.25,0,0,0,0,0,0v0m1.08,2.62V30.4s0,0,0,0h0c.68-.11,1-.47,1-1.05s-.33-.86-1-1.17a0,0,0,0,0-.05,0h0"/>
      <path id="Trazado_35736" data-name="Trazado 35736" class="cls-7" d="M58.19,25.19c.45-.23.89-.47,1.33-.71a14.07,14.07,0,0,0-27.82,3c0,.24,0,.48,0,.72l1.49.55a12.63,12.63,0,0,1,25-3.57"/>
      <path id="Trazado_35737" data-name="Trazado 35737" class="cls-7" d="M55.1,27l.22-.15.79-.49a10.4,10.4,0,0,0-20.75,1.25,11.32,11.32,0,0,0,.21,2.17l.25.11,1,.45a10.11,10.11,0,0,1-.38-2.73A9.34,9.34,0,1,1,55.1,27"/>
      <path id="Trazado_35738" data-name="Trazado 35738" class="cls-7" d="M35.56,71.81c0-.63,1-1.14,2.18-1.14s2.18.51,2.18,1.14S38.94,73,37.74,73s-2.18-.51-2.18-1.14"/>
      <path id="Trazado_35739" data-name="Trazado 35739" class="cls-7" d="M44.65,68.78c0-.63,1-1.14,2.18-1.14S49,68.15,49,68.78s-1,1.14-2.18,1.14-2.18-.51-2.18-1.14"/>
      <path id="Trazado_35740" data-name="Trazado 35740" class="cls-7" d="M53.74,72c0-.63,1-1.14,2.18-1.14s2.18.51,2.18,1.14-1,1.14-2.18,1.14-2.18-.51-2.18-1.14"/>
    </g>
  </g>
</svg>
