<svg xmlns="http://www.w3.org/2000/svg" width="196.271" height="191.797" viewBox="0 0 196.271 191.797">
  <g id="Grupo_55904" data-name="Grupo 55904" transform="translate(5358.271 1599.797)">
    <path id="Trazado_100479" data-name="Trazado 100479" d="M786,1268.073v-49.04a9.012,9.012,0,0,0-9.012-9.012H667.159a9.014,9.014,0,0,0-9.012,9.012v49.04a9.009,9.009,0,0,1-9.012,9.012H632.964a9.014,9.014,0,0,0-6.918,14.791l89.1,106.706a9.011,9.011,0,0,0,13.834,0l89.11-106.706a9.012,9.012,0,0,0-6.915-14.791H795.012A9.012,9.012,0,0,1,786,1268.073Z" transform="translate(-5982.205 -2809.818)" fill="#fff"/>
    <path id="Trazado_111601" data-name="Trazado 111601" d="M-156.542,392.579a2.3,2.3,0,0,0,2.3-2.3V378.563a2.3,2.3,0,0,0-2.3-2.3,2.3,2.3,0,0,0-2.3,2.3V390.28A2.3,2.3,0,0,0-156.542,392.579Z" transform="translate(-5112.1 -1931.262)" fill="#ef2a66"/>
    <path id="Trazado_111602" data-name="Trazado 111602" d="M-167.475,394.331a2.3,2.3,0,0,0,1.948,1.073,2.29,2.29,0,0,0,1.225-.354,2.3,2.3,0,0,0,.719-3.173l-6.129-9.724a2.3,2.3,0,0,0-3.172-.719,2.3,2.3,0,0,0-.72,3.172Z" transform="translate(-5118.462 -1929.234)" fill="#ef2a66"/>
    <path id="Trazado_111603" data-name="Trazado 111603" d="M-146.962,395.05a2.285,2.285,0,0,0,1.223.354,2.3,2.3,0,0,0,1.948-1.074l6.123-9.723a2.3,2.3,0,0,0-.722-3.173,2.3,2.3,0,0,0-3.172.722l-6.123,9.724A2.3,2.3,0,0,0-146.962,395.05Z" transform="translate(-5107.551 -1929.234)" fill="#ef2a66"/>
    <path id="Trazado_111604" data-name="Trazado 111604" d="M-81.636,424.534l-4-7.061a2.3,2.3,0,0,0-3.135-.868,2.3,2.3,0,0,0-.868,3.135l3.994,7.056a1.131,1.131,0,0,1,.1.87,1.081,1.081,0,0,1-.514.658l-6.158,3.413a1.168,1.168,0,0,1-1.56-.415l-1.564-2.768-.021-.037L-111.539,399.9a1.122,1.122,0,0,1-.1-.86,1.083,1.083,0,0,1,.513-.656l6.167-3.412a1.144,1.144,0,0,1,1.553.416l3.606,6.37a2.3,2.3,0,0,0,3.135.868A2.3,2.3,0,0,0-95.8,399.5l-3.6-6.367a5.759,5.759,0,0,0-7.785-2.178l-6.167,3.412a5.639,5.639,0,0,0-2.714,3.433,5.681,5.681,0,0,0,.391,4.121l-3.4.985a13.315,13.315,0,0,1-2.812.645h-.006a5.674,5.674,0,0,1-1.746-.524c-.473-.179-1.064-.4-1.789-.656l-6.019-2.1a13.8,13.8,0,0,0-7-.9l-10.263.919c-4.678.413-7.66,1.469-9.307,3.3l-5.849-1.694a5.687,5.687,0,0,0,.377-4.09,5.642,5.642,0,0,0-2.713-3.432l-6.163-3.413a5.76,5.76,0,0,0-7.79,2.177l-17.759,31.4a5.689,5.689,0,0,0-.529,4.384,5.642,5.642,0,0,0,2.711,3.436l6.164,3.413a5.732,5.732,0,0,0,2.782.719,5.744,5.744,0,0,0,5.007-2.9l.651-1.152a10.8,10.8,0,0,1,4.286,3.265,7.682,7.682,0,0,0-1.795,4.151,7.676,7.676,0,0,0,1.64,5.692,7.671,7.671,0,0,0,5.147,2.843,7.661,7.661,0,0,0,1.647,5.638,7.708,7.708,0,0,0,5.144,2.843,7.671,7.671,0,0,0,1.641,5.634,7.674,7.674,0,0,0,5.15,2.848,7.657,7.657,0,0,0,1.645,5.641,7.721,7.721,0,0,0,6.046,2.9,7.715,7.715,0,0,0,4.828-1.691l4.817-3.855a7.673,7.673,0,0,0,1.042-1.006l2.752,2.2a7.7,7.7,0,0,0,4.818,1.687,7.733,7.733,0,0,0,6.053-2.9,7.675,7.675,0,0,0,1.543-3.339,7.691,7.691,0,0,0,2.519.422,7.867,7.867,0,0,0,.875-.048,7.665,7.665,0,0,0,5.185-2.848,7.666,7.666,0,0,0,1.65-5.64,7.728,7.728,0,0,0,5.147-2.845,7.7,7.7,0,0,0,1.643-5.637,7.678,7.678,0,0,0,5.142-2.841,7.666,7.666,0,0,0,1.645-5.684,7.685,7.685,0,0,0-1.795-4.163,10.755,10.755,0,0,1,4.281-3.265l.652,1.155a5.744,5.744,0,0,0,5.006,2.894,5.748,5.748,0,0,0,2.785-.72l6.16-3.412a5.642,5.642,0,0,0,2.713-3.43,5.7,5.7,0,0,0-.52-4.385Zm-104.148,6.786a1.166,1.166,0,0,1-1.559.416l-6.163-3.413a1.081,1.081,0,0,1-.512-.656,1.127,1.127,0,0,1,.1-.868l17.76-31.409a1.123,1.123,0,0,1,.985-.563,1.178,1.178,0,0,1,.573.148l6.161,3.413h0a1.074,1.074,0,0,1,.512.655,1.117,1.117,0,0,1-.1.864ZM-169,443.157a3.106,3.106,0,0,1-2.3.661,3.106,3.106,0,0,1-2.1-1.148,3.116,3.116,0,0,1-.659-2.306,3.1,3.1,0,0,1,1.154-2.094l8.611-6.883a3.144,3.144,0,0,1,4.411.492,3.1,3.1,0,0,1,.659,2.3,3.083,3.083,0,0,1-1.15,2.089.5.5,0,0,0-.04.037L-169,443.156Zm2.383,7.989a3.1,3.1,0,0,1-.661-2.295,3.11,3.11,0,0,1,1.151-2.1h0l12.4-9.911a3.144,3.144,0,0,1,4.411.493,3.1,3.1,0,0,1,.659,2.3,3.106,3.106,0,0,1-1.152,2.1l-12.4,9.907a3.145,3.145,0,0,1-4.413-.49Zm8.892,9.635a3.094,3.094,0,0,1-2.1-1.152,3.106,3.106,0,0,1-.661-2.3,3.1,3.1,0,0,1,1.152-2.1h0l8.584-6.857.031-.023a3.141,3.141,0,0,1,4.406.489,3.106,3.106,0,0,1,.661,2.3,3.1,3.1,0,0,1-1.154,2.094l-8.611,6.883a3.116,3.116,0,0,1-2.309.661Zm15.071,1.869a3.1,3.1,0,0,1-1.152,2.1l-4.817,3.855a3.144,3.144,0,0,1-4.412-.489,3.1,3.1,0,0,1-.661-2.3,3.1,3.1,0,0,1,1.148-2.1h0l4.816-3.849.007,0a3.143,3.143,0,0,1,4.411.492A3.1,3.1,0,0,1-142.653,462.65Zm36.5-19.981a3.1,3.1,0,0,1-2.1,1.15,3.1,3.1,0,0,1-2.3-.661h0l-6.154-4.918a2.3,2.3,0,0,0-3.233.361,2.3,2.3,0,0,0,.361,3.233l6.153,4.916a3.135,3.135,0,0,1,.5,4.4,3.143,3.143,0,0,1-4.412.489l-6.677-5.327a2.3,2.3,0,0,0-3.233.362,2.3,2.3,0,0,0,.364,3.233l6.673,5.326a3.109,3.109,0,0,1,1.152,2.1,3.1,3.1,0,0,1-.665,2.3,3.1,3.1,0,0,1-2.1,1.15,3.123,3.123,0,0,1-2.306-.658l-3.322-2.657-.016-.014-2.808-2.244-.524-.419a2.3,2.3,0,0,0-3.233.359,2.264,2.264,0,0,0-.253.391,2.3,2.3,0,0,0-.016,2.055,2.3,2.3,0,0,0,.628.787l3.341,2.671a3.136,3.136,0,0,1,.486,4.392,3.142,3.142,0,0,1-4.409.493l-3.79-3.027a7.664,7.664,0,0,0-1.66-5.432,7.705,7.705,0,0,0-2.762-2.171,7.7,7.7,0,0,0,1.4-3.65,7.681,7.681,0,0,0-1.641-5.7,7.709,7.709,0,0,0-2.759-2.167,7.683,7.683,0,0,0,1.4-3.659,7.677,7.677,0,0,0-1.64-5.681,7.756,7.756,0,0,0-9.071-2.286A7.685,7.685,0,0,0-156.3,429a7.752,7.752,0,0,0-10.873-1.212l-6.16,4.922a15.162,15.162,0,0,0-5.525-4.3L-166.187,406l6.745,1.955a7.544,7.544,0,0,0,.188,1.142c1.633,6.714,7.814,9.841,16.132,8.166,7.01-1.411,9.894.691,15.64,4.875.6.433,1.216.884,1.864,1.349,4.134,2.965,8.55,6.45,11.51,8.813l7.467,5.967a3.1,3.1,0,0,1,1.15,2.1,3.1,3.1,0,0,1-.664,2.3Zm-.071-9.957-5.01-4c-3-2.394-7.481-5.928-11.7-8.956q-.959-.686-1.837-1.329c-5.958-4.34-10.265-7.474-19.257-5.667-2.751.554-9.307,1.2-10.754-4.742-.2-.84,0-1.128.091-1.252.308-.428,1.546-1.472,6.387-1.9l10.273-.919a9.428,9.428,0,0,1,5.069.664l6.019,2.1c.669.233,1.2.436,1.677.615,2.9,1.1,3.666,1.1,7.473,0l4.438-1.286,12.652,22.377A15.117,15.117,0,0,0-106.226,432.712Z" transform="translate(-5128.862 -1925.382)" fill="#ef2a66"/>
    <path id="Trazado_111605" data-name="Trazado 111605" d="M-123.428,406.86a2.3,2.3,0,0,0,2.3-2.3,2.3,2.3,0,0,0-2.3-2.3,2.3,2.3,0,0,0-2.3,2.3v.007A2.3,2.3,0,0,0-123.428,406.86Z" transform="translate(-5098.16 -1920.32)" fill="#ef2a66"/>
  </g>
</svg>
